G04 #@! TF.GenerationSoftware,KiCad,Pcbnew,9.0.3*
G04 #@! TF.CreationDate,2025-08-01T02:34:43-04:00*
G04 #@! TF.ProjectId,quartz58,71756172-747a-4353-982e-6b696361645f,rev?*
G04 #@! TF.SameCoordinates,Original*
G04 #@! TF.FileFunction,Legend,Top*
G04 #@! TF.FilePolarity,Positive*
%FSLAX46Y46*%
G04 Gerber Fmt 4.6, Leading zero omitted, Abs format (unit mm)*
G04 Created by KiCad (PCBNEW 9.0.3) date 2025-08-01 02:34:43*
%MOMM*%
%LPD*%
G01*
G04 APERTURE LIST*
%ADD10C,0.150000*%
%ADD11C,0.100000*%
%ADD12C,0.120000*%
%ADD13C,0.127000*%
%ADD14C,0.200000*%
%ADD15C,0.152400*%
%ADD16C,0.381000*%
%ADD17C,1.752600*%
G04 #@! TA.AperFunction,Profile*
%ADD18C,0.150000*%
G04 #@! TD*
G04 #@! TA.AperFunction,Profile*
%ADD19C,0.200000*%
G04 #@! TD*
G04 #@! TA.AperFunction,Profile*
%ADD20C,0.050000*%
G04 #@! TD*
G04 #@! TA.AperFunction,Profile*
%ADD21C,0.100000*%
G04 #@! TD*
G04 #@! TA.AperFunction,Profile*
%ADD22C,0.120000*%
G04 #@! TD*
G04 APERTURE END LIST*
D10*
X195807542Y-81585577D02*
X195950399Y-81633196D01*
X195950399Y-81633196D02*
X195998018Y-81680815D01*
X195998018Y-81680815D02*
X196045637Y-81776053D01*
X196045637Y-81776053D02*
X196045637Y-81918910D01*
X196045637Y-81918910D02*
X195998018Y-82014148D01*
X195998018Y-82014148D02*
X195950399Y-82061768D01*
X195950399Y-82061768D02*
X195855161Y-82109387D01*
X195855161Y-82109387D02*
X195474209Y-82109387D01*
X195474209Y-82109387D02*
X195474209Y-81109387D01*
X195474209Y-81109387D02*
X195807542Y-81109387D01*
X195807542Y-81109387D02*
X195902780Y-81157006D01*
X195902780Y-81157006D02*
X195950399Y-81204625D01*
X195950399Y-81204625D02*
X195998018Y-81299863D01*
X195998018Y-81299863D02*
X195998018Y-81395101D01*
X195998018Y-81395101D02*
X195950399Y-81490339D01*
X195950399Y-81490339D02*
X195902780Y-81537958D01*
X195902780Y-81537958D02*
X195807542Y-81585577D01*
X195807542Y-81585577D02*
X195474209Y-81585577D01*
X196331352Y-81109387D02*
X196902780Y-81109387D01*
X196617066Y-82109387D02*
X196617066Y-81109387D01*
X197188495Y-81204625D02*
X197236114Y-81157006D01*
X197236114Y-81157006D02*
X197331352Y-81109387D01*
X197331352Y-81109387D02*
X197569447Y-81109387D01*
X197569447Y-81109387D02*
X197664685Y-81157006D01*
X197664685Y-81157006D02*
X197712304Y-81204625D01*
X197712304Y-81204625D02*
X197759923Y-81299863D01*
X197759923Y-81299863D02*
X197759923Y-81395101D01*
X197759923Y-81395101D02*
X197712304Y-81537958D01*
X197712304Y-81537958D02*
X197140876Y-82109387D01*
X197140876Y-82109387D02*
X197759923Y-82109387D01*
X170465892Y-81658553D02*
X170608749Y-81706172D01*
X170608749Y-81706172D02*
X170656368Y-81753791D01*
X170656368Y-81753791D02*
X170703987Y-81849029D01*
X170703987Y-81849029D02*
X170703987Y-81991886D01*
X170703987Y-81991886D02*
X170656368Y-82087124D01*
X170656368Y-82087124D02*
X170608749Y-82134744D01*
X170608749Y-82134744D02*
X170513511Y-82182363D01*
X170513511Y-82182363D02*
X170132559Y-82182363D01*
X170132559Y-82182363D02*
X170132559Y-81182363D01*
X170132559Y-81182363D02*
X170465892Y-81182363D01*
X170465892Y-81182363D02*
X170561130Y-81229982D01*
X170561130Y-81229982D02*
X170608749Y-81277601D01*
X170608749Y-81277601D02*
X170656368Y-81372839D01*
X170656368Y-81372839D02*
X170656368Y-81468077D01*
X170656368Y-81468077D02*
X170608749Y-81563315D01*
X170608749Y-81563315D02*
X170561130Y-81610934D01*
X170561130Y-81610934D02*
X170465892Y-81658553D01*
X170465892Y-81658553D02*
X170132559Y-81658553D01*
X170989702Y-81182363D02*
X171561130Y-81182363D01*
X171275416Y-82182363D02*
X171275416Y-81182363D01*
X172418273Y-82182363D02*
X171846845Y-82182363D01*
X172132559Y-82182363D02*
X172132559Y-81182363D01*
X172132559Y-81182363D02*
X172037321Y-81325220D01*
X172037321Y-81325220D02*
X171942083Y-81420458D01*
X171942083Y-81420458D02*
X171846845Y-81468077D01*
D11*
X74188402Y-196283064D02*
X73855069Y-196283064D01*
X73712212Y-195759254D02*
X74188402Y-195759254D01*
X74188402Y-195759254D02*
X74188402Y-196759254D01*
X74188402Y-196759254D02*
X73712212Y-196759254D01*
X72759831Y-195759254D02*
X73331259Y-195759254D01*
X73045545Y-195759254D02*
X73045545Y-196759254D01*
X73045545Y-196759254D02*
X73140783Y-196616397D01*
X73140783Y-196616397D02*
X73236021Y-196521159D01*
X73236021Y-196521159D02*
X73331259Y-196473540D01*
D10*
X192499210Y-113342720D02*
X192499210Y-114009387D01*
X192499210Y-113437958D02*
X192546829Y-113390339D01*
X192546829Y-113390339D02*
X192642067Y-113342720D01*
X192642067Y-113342720D02*
X192784924Y-113342720D01*
X192784924Y-113342720D02*
X192880162Y-113390339D01*
X192880162Y-113390339D02*
X192927781Y-113485577D01*
X192927781Y-113485577D02*
X192927781Y-114009387D01*
X193403972Y-114009387D02*
X193403972Y-113342720D01*
X193403972Y-113009387D02*
X193356353Y-113057006D01*
X193356353Y-113057006D02*
X193403972Y-113104625D01*
X193403972Y-113104625D02*
X193451591Y-113057006D01*
X193451591Y-113057006D02*
X193403972Y-113009387D01*
X193403972Y-113009387D02*
X193403972Y-113104625D01*
X194308733Y-113961768D02*
X194213495Y-114009387D01*
X194213495Y-114009387D02*
X194023019Y-114009387D01*
X194023019Y-114009387D02*
X193927781Y-113961768D01*
X193927781Y-113961768D02*
X193880162Y-113914148D01*
X193880162Y-113914148D02*
X193832543Y-113818910D01*
X193832543Y-113818910D02*
X193832543Y-113533196D01*
X193832543Y-113533196D02*
X193880162Y-113437958D01*
X193880162Y-113437958D02*
X193927781Y-113390339D01*
X193927781Y-113390339D02*
X194023019Y-113342720D01*
X194023019Y-113342720D02*
X194213495Y-113342720D01*
X194213495Y-113342720D02*
X194308733Y-113390339D01*
X195118257Y-113961768D02*
X195023019Y-114009387D01*
X195023019Y-114009387D02*
X194832543Y-114009387D01*
X194832543Y-114009387D02*
X194737305Y-113961768D01*
X194737305Y-113961768D02*
X194689686Y-113866529D01*
X194689686Y-113866529D02*
X194689686Y-113485577D01*
X194689686Y-113485577D02*
X194737305Y-113390339D01*
X194737305Y-113390339D02*
X194832543Y-113342720D01*
X194832543Y-113342720D02*
X195023019Y-113342720D01*
X195023019Y-113342720D02*
X195118257Y-113390339D01*
X195118257Y-113390339D02*
X195165876Y-113485577D01*
X195165876Y-113485577D02*
X195165876Y-113580815D01*
X195165876Y-113580815D02*
X194689686Y-113676053D01*
X195594448Y-113914148D02*
X195642067Y-113961768D01*
X195642067Y-113961768D02*
X195594448Y-114009387D01*
X195594448Y-114009387D02*
X195546829Y-113961768D01*
X195546829Y-113961768D02*
X195594448Y-113914148D01*
X195594448Y-113914148D02*
X195594448Y-114009387D01*
X195594448Y-113628434D02*
X195546829Y-113057006D01*
X195546829Y-113057006D02*
X195594448Y-113009387D01*
X195594448Y-113009387D02*
X195642067Y-113057006D01*
X195642067Y-113057006D02*
X195594448Y-113628434D01*
X195594448Y-113628434D02*
X195594448Y-113009387D01*
X195975400Y-113342720D02*
X196213495Y-114009387D01*
X196213495Y-114009387D02*
X196451590Y-113342720D01*
X196832543Y-114009387D02*
X196832543Y-113342720D01*
X196832543Y-113009387D02*
X196784924Y-113057006D01*
X196784924Y-113057006D02*
X196832543Y-113104625D01*
X196832543Y-113104625D02*
X196880162Y-113057006D01*
X196880162Y-113057006D02*
X196832543Y-113009387D01*
X196832543Y-113009387D02*
X196832543Y-113104625D01*
X197689685Y-113961768D02*
X197594447Y-114009387D01*
X197594447Y-114009387D02*
X197403971Y-114009387D01*
X197403971Y-114009387D02*
X197308733Y-113961768D01*
X197308733Y-113961768D02*
X197261114Y-113866529D01*
X197261114Y-113866529D02*
X197261114Y-113485577D01*
X197261114Y-113485577D02*
X197308733Y-113390339D01*
X197308733Y-113390339D02*
X197403971Y-113342720D01*
X197403971Y-113342720D02*
X197594447Y-113342720D01*
X197594447Y-113342720D02*
X197689685Y-113390339D01*
X197689685Y-113390339D02*
X197737304Y-113485577D01*
X197737304Y-113485577D02*
X197737304Y-113580815D01*
X197737304Y-113580815D02*
X197261114Y-113676053D01*
X198070638Y-113342720D02*
X198261114Y-114009387D01*
X198261114Y-114009387D02*
X198451590Y-113533196D01*
X198451590Y-113533196D02*
X198642066Y-114009387D01*
X198642066Y-114009387D02*
X198832542Y-113342720D01*
X201032837Y-118226109D02*
X201080457Y-118273728D01*
X201080457Y-118273728D02*
X201128076Y-118416585D01*
X201128076Y-118416585D02*
X201128076Y-118511823D01*
X201128076Y-118511823D02*
X201080457Y-118654680D01*
X201080457Y-118654680D02*
X200985218Y-118749918D01*
X200985218Y-118749918D02*
X200889980Y-118797537D01*
X200889980Y-118797537D02*
X200699504Y-118845156D01*
X200699504Y-118845156D02*
X200556647Y-118845156D01*
X200556647Y-118845156D02*
X200366171Y-118797537D01*
X200366171Y-118797537D02*
X200270933Y-118749918D01*
X200270933Y-118749918D02*
X200175695Y-118654680D01*
X200175695Y-118654680D02*
X200128076Y-118511823D01*
X200128076Y-118511823D02*
X200128076Y-118416585D01*
X200128076Y-118416585D02*
X200175695Y-118273728D01*
X200175695Y-118273728D02*
X200223314Y-118226109D01*
X201080457Y-117845156D02*
X201128076Y-117702299D01*
X201128076Y-117702299D02*
X201128076Y-117464204D01*
X201128076Y-117464204D02*
X201080457Y-117368966D01*
X201080457Y-117368966D02*
X201032837Y-117321347D01*
X201032837Y-117321347D02*
X200937599Y-117273728D01*
X200937599Y-117273728D02*
X200842361Y-117273728D01*
X200842361Y-117273728D02*
X200747123Y-117321347D01*
X200747123Y-117321347D02*
X200699504Y-117368966D01*
X200699504Y-117368966D02*
X200651885Y-117464204D01*
X200651885Y-117464204D02*
X200604266Y-117654680D01*
X200604266Y-117654680D02*
X200556647Y-117749918D01*
X200556647Y-117749918D02*
X200509028Y-117797537D01*
X200509028Y-117797537D02*
X200413790Y-117845156D01*
X200413790Y-117845156D02*
X200318552Y-117845156D01*
X200318552Y-117845156D02*
X200223314Y-117797537D01*
X200223314Y-117797537D02*
X200175695Y-117749918D01*
X200175695Y-117749918D02*
X200128076Y-117654680D01*
X200128076Y-117654680D02*
X200128076Y-117416585D01*
X200128076Y-117416585D02*
X200175695Y-117273728D01*
X190968076Y-120464203D02*
X189968076Y-120464203D01*
X189968076Y-120464203D02*
X190682361Y-120130870D01*
X190682361Y-120130870D02*
X189968076Y-119797537D01*
X189968076Y-119797537D02*
X190968076Y-119797537D01*
X189968076Y-119130870D02*
X189968076Y-118940394D01*
X189968076Y-118940394D02*
X190015695Y-118845156D01*
X190015695Y-118845156D02*
X190110933Y-118749918D01*
X190110933Y-118749918D02*
X190301409Y-118702299D01*
X190301409Y-118702299D02*
X190634742Y-118702299D01*
X190634742Y-118702299D02*
X190825218Y-118749918D01*
X190825218Y-118749918D02*
X190920457Y-118845156D01*
X190920457Y-118845156D02*
X190968076Y-118940394D01*
X190968076Y-118940394D02*
X190968076Y-119130870D01*
X190968076Y-119130870D02*
X190920457Y-119226108D01*
X190920457Y-119226108D02*
X190825218Y-119321346D01*
X190825218Y-119321346D02*
X190634742Y-119368965D01*
X190634742Y-119368965D02*
X190301409Y-119368965D01*
X190301409Y-119368965D02*
X190110933Y-119321346D01*
X190110933Y-119321346D02*
X190015695Y-119226108D01*
X190015695Y-119226108D02*
X189968076Y-119130870D01*
X190920457Y-118321346D02*
X190968076Y-118178489D01*
X190968076Y-118178489D02*
X190968076Y-117940394D01*
X190968076Y-117940394D02*
X190920457Y-117845156D01*
X190920457Y-117845156D02*
X190872837Y-117797537D01*
X190872837Y-117797537D02*
X190777599Y-117749918D01*
X190777599Y-117749918D02*
X190682361Y-117749918D01*
X190682361Y-117749918D02*
X190587123Y-117797537D01*
X190587123Y-117797537D02*
X190539504Y-117845156D01*
X190539504Y-117845156D02*
X190491885Y-117940394D01*
X190491885Y-117940394D02*
X190444266Y-118130870D01*
X190444266Y-118130870D02*
X190396647Y-118226108D01*
X190396647Y-118226108D02*
X190349028Y-118273727D01*
X190349028Y-118273727D02*
X190253790Y-118321346D01*
X190253790Y-118321346D02*
X190158552Y-118321346D01*
X190158552Y-118321346D02*
X190063314Y-118273727D01*
X190063314Y-118273727D02*
X190015695Y-118226108D01*
X190015695Y-118226108D02*
X189968076Y-118130870D01*
X189968076Y-118130870D02*
X189968076Y-117892775D01*
X189968076Y-117892775D02*
X190015695Y-117749918D01*
X190968076Y-117321346D02*
X189968076Y-117321346D01*
X195048076Y-119845156D02*
X196048076Y-119511823D01*
X196048076Y-119511823D02*
X195048076Y-119178490D01*
X195952837Y-118273728D02*
X196000457Y-118321347D01*
X196000457Y-118321347D02*
X196048076Y-118464204D01*
X196048076Y-118464204D02*
X196048076Y-118559442D01*
X196048076Y-118559442D02*
X196000457Y-118702299D01*
X196000457Y-118702299D02*
X195905218Y-118797537D01*
X195905218Y-118797537D02*
X195809980Y-118845156D01*
X195809980Y-118845156D02*
X195619504Y-118892775D01*
X195619504Y-118892775D02*
X195476647Y-118892775D01*
X195476647Y-118892775D02*
X195286171Y-118845156D01*
X195286171Y-118845156D02*
X195190933Y-118797537D01*
X195190933Y-118797537D02*
X195095695Y-118702299D01*
X195095695Y-118702299D02*
X195048076Y-118559442D01*
X195048076Y-118559442D02*
X195048076Y-118464204D01*
X195048076Y-118464204D02*
X195095695Y-118321347D01*
X195095695Y-118321347D02*
X195143314Y-118273728D01*
X195952837Y-117273728D02*
X196000457Y-117321347D01*
X196000457Y-117321347D02*
X196048076Y-117464204D01*
X196048076Y-117464204D02*
X196048076Y-117559442D01*
X196048076Y-117559442D02*
X196000457Y-117702299D01*
X196000457Y-117702299D02*
X195905218Y-117797537D01*
X195905218Y-117797537D02*
X195809980Y-117845156D01*
X195809980Y-117845156D02*
X195619504Y-117892775D01*
X195619504Y-117892775D02*
X195476647Y-117892775D01*
X195476647Y-117892775D02*
X195286171Y-117845156D01*
X195286171Y-117845156D02*
X195190933Y-117797537D01*
X195190933Y-117797537D02*
X195095695Y-117702299D01*
X195095695Y-117702299D02*
X195048076Y-117559442D01*
X195048076Y-117559442D02*
X195048076Y-117464204D01*
X195048076Y-117464204D02*
X195095695Y-117321347D01*
X195095695Y-117321347D02*
X195143314Y-117273728D01*
X197635695Y-119368966D02*
X197588076Y-119464204D01*
X197588076Y-119464204D02*
X197588076Y-119607061D01*
X197588076Y-119607061D02*
X197635695Y-119749918D01*
X197635695Y-119749918D02*
X197730933Y-119845156D01*
X197730933Y-119845156D02*
X197826171Y-119892775D01*
X197826171Y-119892775D02*
X198016647Y-119940394D01*
X198016647Y-119940394D02*
X198159504Y-119940394D01*
X198159504Y-119940394D02*
X198349980Y-119892775D01*
X198349980Y-119892775D02*
X198445218Y-119845156D01*
X198445218Y-119845156D02*
X198540457Y-119749918D01*
X198540457Y-119749918D02*
X198588076Y-119607061D01*
X198588076Y-119607061D02*
X198588076Y-119511823D01*
X198588076Y-119511823D02*
X198540457Y-119368966D01*
X198540457Y-119368966D02*
X198492837Y-119321347D01*
X198492837Y-119321347D02*
X198159504Y-119321347D01*
X198159504Y-119321347D02*
X198159504Y-119511823D01*
X198588076Y-118892775D02*
X197588076Y-118892775D01*
X197588076Y-118892775D02*
X198588076Y-118321347D01*
X198588076Y-118321347D02*
X197588076Y-118321347D01*
X198588076Y-117845156D02*
X197588076Y-117845156D01*
X197588076Y-117845156D02*
X197588076Y-117607061D01*
X197588076Y-117607061D02*
X197635695Y-117464204D01*
X197635695Y-117464204D02*
X197730933Y-117368966D01*
X197730933Y-117368966D02*
X197826171Y-117321347D01*
X197826171Y-117321347D02*
X198016647Y-117273728D01*
X198016647Y-117273728D02*
X198159504Y-117273728D01*
X198159504Y-117273728D02*
X198349980Y-117321347D01*
X198349980Y-117321347D02*
X198445218Y-117368966D01*
X198445218Y-117368966D02*
X198540457Y-117464204D01*
X198540457Y-117464204D02*
X198588076Y-117607061D01*
X198588076Y-117607061D02*
X198588076Y-117845156D01*
X193460457Y-119845156D02*
X193508076Y-119702299D01*
X193508076Y-119702299D02*
X193508076Y-119464204D01*
X193508076Y-119464204D02*
X193460457Y-119368966D01*
X193460457Y-119368966D02*
X193412837Y-119321347D01*
X193412837Y-119321347D02*
X193317599Y-119273728D01*
X193317599Y-119273728D02*
X193222361Y-119273728D01*
X193222361Y-119273728D02*
X193127123Y-119321347D01*
X193127123Y-119321347D02*
X193079504Y-119368966D01*
X193079504Y-119368966D02*
X193031885Y-119464204D01*
X193031885Y-119464204D02*
X192984266Y-119654680D01*
X192984266Y-119654680D02*
X192936647Y-119749918D01*
X192936647Y-119749918D02*
X192889028Y-119797537D01*
X192889028Y-119797537D02*
X192793790Y-119845156D01*
X192793790Y-119845156D02*
X192698552Y-119845156D01*
X192698552Y-119845156D02*
X192603314Y-119797537D01*
X192603314Y-119797537D02*
X192555695Y-119749918D01*
X192555695Y-119749918D02*
X192508076Y-119654680D01*
X192508076Y-119654680D02*
X192508076Y-119416585D01*
X192508076Y-119416585D02*
X192555695Y-119273728D01*
X193412837Y-118273728D02*
X193460457Y-118321347D01*
X193460457Y-118321347D02*
X193508076Y-118464204D01*
X193508076Y-118464204D02*
X193508076Y-118559442D01*
X193508076Y-118559442D02*
X193460457Y-118702299D01*
X193460457Y-118702299D02*
X193365218Y-118797537D01*
X193365218Y-118797537D02*
X193269980Y-118845156D01*
X193269980Y-118845156D02*
X193079504Y-118892775D01*
X193079504Y-118892775D02*
X192936647Y-118892775D01*
X192936647Y-118892775D02*
X192746171Y-118845156D01*
X192746171Y-118845156D02*
X192650933Y-118797537D01*
X192650933Y-118797537D02*
X192555695Y-118702299D01*
X192555695Y-118702299D02*
X192508076Y-118559442D01*
X192508076Y-118559442D02*
X192508076Y-118464204D01*
X192508076Y-118464204D02*
X192555695Y-118321347D01*
X192555695Y-118321347D02*
X192603314Y-118273728D01*
X193508076Y-117845156D02*
X192508076Y-117845156D01*
X193508076Y-117273728D02*
X192936647Y-117702299D01*
X192508076Y-117273728D02*
X193079504Y-117845156D01*
D11*
X168918273Y-97534963D02*
X168584940Y-97058772D01*
X168346845Y-97534963D02*
X168346845Y-96534963D01*
X168346845Y-96534963D02*
X168727797Y-96534963D01*
X168727797Y-96534963D02*
X168823035Y-96582582D01*
X168823035Y-96582582D02*
X168870654Y-96630201D01*
X168870654Y-96630201D02*
X168918273Y-96725439D01*
X168918273Y-96725439D02*
X168918273Y-96868296D01*
X168918273Y-96868296D02*
X168870654Y-96963534D01*
X168870654Y-96963534D02*
X168823035Y-97011153D01*
X168823035Y-97011153D02*
X168727797Y-97058772D01*
X168727797Y-97058772D02*
X168346845Y-97058772D01*
X169346845Y-97011153D02*
X169680178Y-97011153D01*
X169823035Y-97534963D02*
X169346845Y-97534963D01*
X169346845Y-97534963D02*
X169346845Y-96534963D01*
X169346845Y-96534963D02*
X169823035Y-96534963D01*
X170584940Y-97011153D02*
X170251607Y-97011153D01*
X170251607Y-97534963D02*
X170251607Y-96534963D01*
X170251607Y-96534963D02*
X170727797Y-96534963D01*
X171251607Y-96534963D02*
X171251607Y-96773058D01*
X171013512Y-96677820D02*
X171251607Y-96773058D01*
X171251607Y-96773058D02*
X171489702Y-96677820D01*
X171108750Y-96963534D02*
X171251607Y-96773058D01*
X171251607Y-96773058D02*
X171394464Y-96963534D01*
X172013512Y-96534963D02*
X172013512Y-96773058D01*
X171775417Y-96677820D02*
X172013512Y-96773058D01*
X172013512Y-96773058D02*
X172251607Y-96677820D01*
X171870655Y-96963534D02*
X172013512Y-96773058D01*
X172013512Y-96773058D02*
X172156369Y-96963534D01*
D10*
X167132560Y-113415696D02*
X167132560Y-114082363D01*
X167132560Y-113510934D02*
X167180179Y-113463315D01*
X167180179Y-113463315D02*
X167275417Y-113415696D01*
X167275417Y-113415696D02*
X167418274Y-113415696D01*
X167418274Y-113415696D02*
X167513512Y-113463315D01*
X167513512Y-113463315D02*
X167561131Y-113558553D01*
X167561131Y-113558553D02*
X167561131Y-114082363D01*
X168037322Y-114082363D02*
X168037322Y-113415696D01*
X168037322Y-113082363D02*
X167989703Y-113129982D01*
X167989703Y-113129982D02*
X168037322Y-113177601D01*
X168037322Y-113177601D02*
X168084941Y-113129982D01*
X168084941Y-113129982D02*
X168037322Y-113082363D01*
X168037322Y-113082363D02*
X168037322Y-113177601D01*
X168942083Y-114034744D02*
X168846845Y-114082363D01*
X168846845Y-114082363D02*
X168656369Y-114082363D01*
X168656369Y-114082363D02*
X168561131Y-114034744D01*
X168561131Y-114034744D02*
X168513512Y-113987124D01*
X168513512Y-113987124D02*
X168465893Y-113891886D01*
X168465893Y-113891886D02*
X168465893Y-113606172D01*
X168465893Y-113606172D02*
X168513512Y-113510934D01*
X168513512Y-113510934D02*
X168561131Y-113463315D01*
X168561131Y-113463315D02*
X168656369Y-113415696D01*
X168656369Y-113415696D02*
X168846845Y-113415696D01*
X168846845Y-113415696D02*
X168942083Y-113463315D01*
X169751607Y-114034744D02*
X169656369Y-114082363D01*
X169656369Y-114082363D02*
X169465893Y-114082363D01*
X169465893Y-114082363D02*
X169370655Y-114034744D01*
X169370655Y-114034744D02*
X169323036Y-113939505D01*
X169323036Y-113939505D02*
X169323036Y-113558553D01*
X169323036Y-113558553D02*
X169370655Y-113463315D01*
X169370655Y-113463315D02*
X169465893Y-113415696D01*
X169465893Y-113415696D02*
X169656369Y-113415696D01*
X169656369Y-113415696D02*
X169751607Y-113463315D01*
X169751607Y-113463315D02*
X169799226Y-113558553D01*
X169799226Y-113558553D02*
X169799226Y-113653791D01*
X169799226Y-113653791D02*
X169323036Y-113749029D01*
X170227798Y-113987124D02*
X170275417Y-114034744D01*
X170275417Y-114034744D02*
X170227798Y-114082363D01*
X170227798Y-114082363D02*
X170180179Y-114034744D01*
X170180179Y-114034744D02*
X170227798Y-113987124D01*
X170227798Y-113987124D02*
X170227798Y-114082363D01*
X170227798Y-113701410D02*
X170180179Y-113129982D01*
X170180179Y-113129982D02*
X170227798Y-113082363D01*
X170227798Y-113082363D02*
X170275417Y-113129982D01*
X170275417Y-113129982D02*
X170227798Y-113701410D01*
X170227798Y-113701410D02*
X170227798Y-113082363D01*
X170608750Y-113415696D02*
X170846845Y-114082363D01*
X170846845Y-114082363D02*
X171084940Y-113415696D01*
X171465893Y-114082363D02*
X171465893Y-113415696D01*
X171465893Y-113082363D02*
X171418274Y-113129982D01*
X171418274Y-113129982D02*
X171465893Y-113177601D01*
X171465893Y-113177601D02*
X171513512Y-113129982D01*
X171513512Y-113129982D02*
X171465893Y-113082363D01*
X171465893Y-113082363D02*
X171465893Y-113177601D01*
X172323035Y-114034744D02*
X172227797Y-114082363D01*
X172227797Y-114082363D02*
X172037321Y-114082363D01*
X172037321Y-114082363D02*
X171942083Y-114034744D01*
X171942083Y-114034744D02*
X171894464Y-113939505D01*
X171894464Y-113939505D02*
X171894464Y-113558553D01*
X171894464Y-113558553D02*
X171942083Y-113463315D01*
X171942083Y-113463315D02*
X172037321Y-113415696D01*
X172037321Y-113415696D02*
X172227797Y-113415696D01*
X172227797Y-113415696D02*
X172323035Y-113463315D01*
X172323035Y-113463315D02*
X172370654Y-113558553D01*
X172370654Y-113558553D02*
X172370654Y-113653791D01*
X172370654Y-113653791D02*
X171894464Y-113749029D01*
X172703988Y-113415696D02*
X172894464Y-114082363D01*
X172894464Y-114082363D02*
X173084940Y-113606172D01*
X173084940Y-113606172D02*
X173275416Y-114082363D01*
X173275416Y-114082363D02*
X173465892Y-113415696D01*
X175691187Y-118399085D02*
X175738807Y-118446704D01*
X175738807Y-118446704D02*
X175786426Y-118589561D01*
X175786426Y-118589561D02*
X175786426Y-118684799D01*
X175786426Y-118684799D02*
X175738807Y-118827656D01*
X175738807Y-118827656D02*
X175643568Y-118922894D01*
X175643568Y-118922894D02*
X175548330Y-118970513D01*
X175548330Y-118970513D02*
X175357854Y-119018132D01*
X175357854Y-119018132D02*
X175214997Y-119018132D01*
X175214997Y-119018132D02*
X175024521Y-118970513D01*
X175024521Y-118970513D02*
X174929283Y-118922894D01*
X174929283Y-118922894D02*
X174834045Y-118827656D01*
X174834045Y-118827656D02*
X174786426Y-118684799D01*
X174786426Y-118684799D02*
X174786426Y-118589561D01*
X174786426Y-118589561D02*
X174834045Y-118446704D01*
X174834045Y-118446704D02*
X174881664Y-118399085D01*
X175738807Y-118018132D02*
X175786426Y-117875275D01*
X175786426Y-117875275D02*
X175786426Y-117637180D01*
X175786426Y-117637180D02*
X175738807Y-117541942D01*
X175738807Y-117541942D02*
X175691187Y-117494323D01*
X175691187Y-117494323D02*
X175595949Y-117446704D01*
X175595949Y-117446704D02*
X175500711Y-117446704D01*
X175500711Y-117446704D02*
X175405473Y-117494323D01*
X175405473Y-117494323D02*
X175357854Y-117541942D01*
X175357854Y-117541942D02*
X175310235Y-117637180D01*
X175310235Y-117637180D02*
X175262616Y-117827656D01*
X175262616Y-117827656D02*
X175214997Y-117922894D01*
X175214997Y-117922894D02*
X175167378Y-117970513D01*
X175167378Y-117970513D02*
X175072140Y-118018132D01*
X175072140Y-118018132D02*
X174976902Y-118018132D01*
X174976902Y-118018132D02*
X174881664Y-117970513D01*
X174881664Y-117970513D02*
X174834045Y-117922894D01*
X174834045Y-117922894D02*
X174786426Y-117827656D01*
X174786426Y-117827656D02*
X174786426Y-117589561D01*
X174786426Y-117589561D02*
X174834045Y-117446704D01*
X165626426Y-120637179D02*
X164626426Y-120637179D01*
X164626426Y-120637179D02*
X165340711Y-120303846D01*
X165340711Y-120303846D02*
X164626426Y-119970513D01*
X164626426Y-119970513D02*
X165626426Y-119970513D01*
X164626426Y-119303846D02*
X164626426Y-119113370D01*
X164626426Y-119113370D02*
X164674045Y-119018132D01*
X164674045Y-119018132D02*
X164769283Y-118922894D01*
X164769283Y-118922894D02*
X164959759Y-118875275D01*
X164959759Y-118875275D02*
X165293092Y-118875275D01*
X165293092Y-118875275D02*
X165483568Y-118922894D01*
X165483568Y-118922894D02*
X165578807Y-119018132D01*
X165578807Y-119018132D02*
X165626426Y-119113370D01*
X165626426Y-119113370D02*
X165626426Y-119303846D01*
X165626426Y-119303846D02*
X165578807Y-119399084D01*
X165578807Y-119399084D02*
X165483568Y-119494322D01*
X165483568Y-119494322D02*
X165293092Y-119541941D01*
X165293092Y-119541941D02*
X164959759Y-119541941D01*
X164959759Y-119541941D02*
X164769283Y-119494322D01*
X164769283Y-119494322D02*
X164674045Y-119399084D01*
X164674045Y-119399084D02*
X164626426Y-119303846D01*
X165578807Y-118494322D02*
X165626426Y-118351465D01*
X165626426Y-118351465D02*
X165626426Y-118113370D01*
X165626426Y-118113370D02*
X165578807Y-118018132D01*
X165578807Y-118018132D02*
X165531187Y-117970513D01*
X165531187Y-117970513D02*
X165435949Y-117922894D01*
X165435949Y-117922894D02*
X165340711Y-117922894D01*
X165340711Y-117922894D02*
X165245473Y-117970513D01*
X165245473Y-117970513D02*
X165197854Y-118018132D01*
X165197854Y-118018132D02*
X165150235Y-118113370D01*
X165150235Y-118113370D02*
X165102616Y-118303846D01*
X165102616Y-118303846D02*
X165054997Y-118399084D01*
X165054997Y-118399084D02*
X165007378Y-118446703D01*
X165007378Y-118446703D02*
X164912140Y-118494322D01*
X164912140Y-118494322D02*
X164816902Y-118494322D01*
X164816902Y-118494322D02*
X164721664Y-118446703D01*
X164721664Y-118446703D02*
X164674045Y-118399084D01*
X164674045Y-118399084D02*
X164626426Y-118303846D01*
X164626426Y-118303846D02*
X164626426Y-118065751D01*
X164626426Y-118065751D02*
X164674045Y-117922894D01*
X165626426Y-117494322D02*
X164626426Y-117494322D01*
X169706426Y-120018132D02*
X170706426Y-119684799D01*
X170706426Y-119684799D02*
X169706426Y-119351466D01*
X170611187Y-118446704D02*
X170658807Y-118494323D01*
X170658807Y-118494323D02*
X170706426Y-118637180D01*
X170706426Y-118637180D02*
X170706426Y-118732418D01*
X170706426Y-118732418D02*
X170658807Y-118875275D01*
X170658807Y-118875275D02*
X170563568Y-118970513D01*
X170563568Y-118970513D02*
X170468330Y-119018132D01*
X170468330Y-119018132D02*
X170277854Y-119065751D01*
X170277854Y-119065751D02*
X170134997Y-119065751D01*
X170134997Y-119065751D02*
X169944521Y-119018132D01*
X169944521Y-119018132D02*
X169849283Y-118970513D01*
X169849283Y-118970513D02*
X169754045Y-118875275D01*
X169754045Y-118875275D02*
X169706426Y-118732418D01*
X169706426Y-118732418D02*
X169706426Y-118637180D01*
X169706426Y-118637180D02*
X169754045Y-118494323D01*
X169754045Y-118494323D02*
X169801664Y-118446704D01*
X170611187Y-117446704D02*
X170658807Y-117494323D01*
X170658807Y-117494323D02*
X170706426Y-117637180D01*
X170706426Y-117637180D02*
X170706426Y-117732418D01*
X170706426Y-117732418D02*
X170658807Y-117875275D01*
X170658807Y-117875275D02*
X170563568Y-117970513D01*
X170563568Y-117970513D02*
X170468330Y-118018132D01*
X170468330Y-118018132D02*
X170277854Y-118065751D01*
X170277854Y-118065751D02*
X170134997Y-118065751D01*
X170134997Y-118065751D02*
X169944521Y-118018132D01*
X169944521Y-118018132D02*
X169849283Y-117970513D01*
X169849283Y-117970513D02*
X169754045Y-117875275D01*
X169754045Y-117875275D02*
X169706426Y-117732418D01*
X169706426Y-117732418D02*
X169706426Y-117637180D01*
X169706426Y-117637180D02*
X169754045Y-117494323D01*
X169754045Y-117494323D02*
X169801664Y-117446704D01*
X172294045Y-119541942D02*
X172246426Y-119637180D01*
X172246426Y-119637180D02*
X172246426Y-119780037D01*
X172246426Y-119780037D02*
X172294045Y-119922894D01*
X172294045Y-119922894D02*
X172389283Y-120018132D01*
X172389283Y-120018132D02*
X172484521Y-120065751D01*
X172484521Y-120065751D02*
X172674997Y-120113370D01*
X172674997Y-120113370D02*
X172817854Y-120113370D01*
X172817854Y-120113370D02*
X173008330Y-120065751D01*
X173008330Y-120065751D02*
X173103568Y-120018132D01*
X173103568Y-120018132D02*
X173198807Y-119922894D01*
X173198807Y-119922894D02*
X173246426Y-119780037D01*
X173246426Y-119780037D02*
X173246426Y-119684799D01*
X173246426Y-119684799D02*
X173198807Y-119541942D01*
X173198807Y-119541942D02*
X173151187Y-119494323D01*
X173151187Y-119494323D02*
X172817854Y-119494323D01*
X172817854Y-119494323D02*
X172817854Y-119684799D01*
X173246426Y-119065751D02*
X172246426Y-119065751D01*
X172246426Y-119065751D02*
X173246426Y-118494323D01*
X173246426Y-118494323D02*
X172246426Y-118494323D01*
X173246426Y-118018132D02*
X172246426Y-118018132D01*
X172246426Y-118018132D02*
X172246426Y-117780037D01*
X172246426Y-117780037D02*
X172294045Y-117637180D01*
X172294045Y-117637180D02*
X172389283Y-117541942D01*
X172389283Y-117541942D02*
X172484521Y-117494323D01*
X172484521Y-117494323D02*
X172674997Y-117446704D01*
X172674997Y-117446704D02*
X172817854Y-117446704D01*
X172817854Y-117446704D02*
X173008330Y-117494323D01*
X173008330Y-117494323D02*
X173103568Y-117541942D01*
X173103568Y-117541942D02*
X173198807Y-117637180D01*
X173198807Y-117637180D02*
X173246426Y-117780037D01*
X173246426Y-117780037D02*
X173246426Y-118018132D01*
X168118807Y-120018132D02*
X168166426Y-119875275D01*
X168166426Y-119875275D02*
X168166426Y-119637180D01*
X168166426Y-119637180D02*
X168118807Y-119541942D01*
X168118807Y-119541942D02*
X168071187Y-119494323D01*
X168071187Y-119494323D02*
X167975949Y-119446704D01*
X167975949Y-119446704D02*
X167880711Y-119446704D01*
X167880711Y-119446704D02*
X167785473Y-119494323D01*
X167785473Y-119494323D02*
X167737854Y-119541942D01*
X167737854Y-119541942D02*
X167690235Y-119637180D01*
X167690235Y-119637180D02*
X167642616Y-119827656D01*
X167642616Y-119827656D02*
X167594997Y-119922894D01*
X167594997Y-119922894D02*
X167547378Y-119970513D01*
X167547378Y-119970513D02*
X167452140Y-120018132D01*
X167452140Y-120018132D02*
X167356902Y-120018132D01*
X167356902Y-120018132D02*
X167261664Y-119970513D01*
X167261664Y-119970513D02*
X167214045Y-119922894D01*
X167214045Y-119922894D02*
X167166426Y-119827656D01*
X167166426Y-119827656D02*
X167166426Y-119589561D01*
X167166426Y-119589561D02*
X167214045Y-119446704D01*
X168071187Y-118446704D02*
X168118807Y-118494323D01*
X168118807Y-118494323D02*
X168166426Y-118637180D01*
X168166426Y-118637180D02*
X168166426Y-118732418D01*
X168166426Y-118732418D02*
X168118807Y-118875275D01*
X168118807Y-118875275D02*
X168023568Y-118970513D01*
X168023568Y-118970513D02*
X167928330Y-119018132D01*
X167928330Y-119018132D02*
X167737854Y-119065751D01*
X167737854Y-119065751D02*
X167594997Y-119065751D01*
X167594997Y-119065751D02*
X167404521Y-119018132D01*
X167404521Y-119018132D02*
X167309283Y-118970513D01*
X167309283Y-118970513D02*
X167214045Y-118875275D01*
X167214045Y-118875275D02*
X167166426Y-118732418D01*
X167166426Y-118732418D02*
X167166426Y-118637180D01*
X167166426Y-118637180D02*
X167214045Y-118494323D01*
X167214045Y-118494323D02*
X167261664Y-118446704D01*
X168166426Y-118018132D02*
X167166426Y-118018132D01*
X168166426Y-117446704D02*
X167594997Y-117875275D01*
X167166426Y-117446704D02*
X167737854Y-118018132D01*
X180108807Y-119110876D02*
X180156426Y-118968019D01*
X180156426Y-118968019D02*
X180156426Y-118729924D01*
X180156426Y-118729924D02*
X180108807Y-118634686D01*
X180108807Y-118634686D02*
X180061187Y-118587067D01*
X180061187Y-118587067D02*
X179965949Y-118539448D01*
X179965949Y-118539448D02*
X179870711Y-118539448D01*
X179870711Y-118539448D02*
X179775473Y-118587067D01*
X179775473Y-118587067D02*
X179727854Y-118634686D01*
X179727854Y-118634686D02*
X179680235Y-118729924D01*
X179680235Y-118729924D02*
X179632616Y-118920400D01*
X179632616Y-118920400D02*
X179584997Y-119015638D01*
X179584997Y-119015638D02*
X179537378Y-119063257D01*
X179537378Y-119063257D02*
X179442140Y-119110876D01*
X179442140Y-119110876D02*
X179346902Y-119110876D01*
X179346902Y-119110876D02*
X179251664Y-119063257D01*
X179251664Y-119063257D02*
X179204045Y-119015638D01*
X179204045Y-119015638D02*
X179156426Y-118920400D01*
X179156426Y-118920400D02*
X179156426Y-118682305D01*
X179156426Y-118682305D02*
X179204045Y-118539448D01*
X179156426Y-118206114D02*
X180156426Y-117968019D01*
X180156426Y-117968019D02*
X179442140Y-117777543D01*
X179442140Y-117777543D02*
X180156426Y-117587067D01*
X180156426Y-117587067D02*
X179156426Y-117348972D01*
X179251664Y-117015638D02*
X179204045Y-116968019D01*
X179204045Y-116968019D02*
X179156426Y-116872781D01*
X179156426Y-116872781D02*
X179156426Y-116634686D01*
X179156426Y-116634686D02*
X179204045Y-116539448D01*
X179204045Y-116539448D02*
X179251664Y-116491829D01*
X179251664Y-116491829D02*
X179346902Y-116444210D01*
X179346902Y-116444210D02*
X179442140Y-116444210D01*
X179442140Y-116444210D02*
X179584997Y-116491829D01*
X179584997Y-116491829D02*
X180156426Y-117063257D01*
X180156426Y-117063257D02*
X180156426Y-116444210D01*
D11*
X194259923Y-99161987D02*
X193926590Y-98685796D01*
X193688495Y-99161987D02*
X193688495Y-98161987D01*
X193688495Y-98161987D02*
X194069447Y-98161987D01*
X194069447Y-98161987D02*
X194164685Y-98209606D01*
X194164685Y-98209606D02*
X194212304Y-98257225D01*
X194212304Y-98257225D02*
X194259923Y-98352463D01*
X194259923Y-98352463D02*
X194259923Y-98495320D01*
X194259923Y-98495320D02*
X194212304Y-98590558D01*
X194212304Y-98590558D02*
X194164685Y-98638177D01*
X194164685Y-98638177D02*
X194069447Y-98685796D01*
X194069447Y-98685796D02*
X193688495Y-98685796D01*
X194688495Y-98638177D02*
X195021828Y-98638177D01*
X195164685Y-99161987D02*
X194688495Y-99161987D01*
X194688495Y-99161987D02*
X194688495Y-98161987D01*
X194688495Y-98161987D02*
X195164685Y-98161987D01*
X195926590Y-98638177D02*
X195593257Y-98638177D01*
X195593257Y-99161987D02*
X195593257Y-98161987D01*
X195593257Y-98161987D02*
X196069447Y-98161987D01*
X196593257Y-98161987D02*
X196593257Y-98400082D01*
X196355162Y-98304844D02*
X196593257Y-98400082D01*
X196593257Y-98400082D02*
X196831352Y-98304844D01*
X196450400Y-98590558D02*
X196593257Y-98400082D01*
X196593257Y-98400082D02*
X196736114Y-98590558D01*
X197355162Y-98161987D02*
X197355162Y-98400082D01*
X197117067Y-98304844D02*
X197355162Y-98400082D01*
X197355162Y-98400082D02*
X197593257Y-98304844D01*
X197212305Y-98590558D02*
X197355162Y-98400082D01*
X197355162Y-98400082D02*
X197498019Y-98590558D01*
D10*
X185736057Y-116371235D02*
X185688437Y-116514092D01*
X185688437Y-116514092D02*
X185688437Y-116752187D01*
X185688437Y-116752187D02*
X185736057Y-116847425D01*
X185736057Y-116847425D02*
X185783676Y-116895044D01*
X185783676Y-116895044D02*
X185878914Y-116942663D01*
X185878914Y-116942663D02*
X185974152Y-116942663D01*
X185974152Y-116942663D02*
X186069390Y-116895044D01*
X186069390Y-116895044D02*
X186117009Y-116847425D01*
X186117009Y-116847425D02*
X186164628Y-116752187D01*
X186164628Y-116752187D02*
X186212247Y-116561711D01*
X186212247Y-116561711D02*
X186259866Y-116466473D01*
X186259866Y-116466473D02*
X186307485Y-116418854D01*
X186307485Y-116418854D02*
X186402723Y-116371235D01*
X186402723Y-116371235D02*
X186497961Y-116371235D01*
X186497961Y-116371235D02*
X186593199Y-116418854D01*
X186593199Y-116418854D02*
X186640818Y-116466473D01*
X186640818Y-116466473D02*
X186688437Y-116561711D01*
X186688437Y-116561711D02*
X186688437Y-116799806D01*
X186688437Y-116799806D02*
X186640818Y-116942663D01*
X186688437Y-117275997D02*
X185688437Y-117514092D01*
X185688437Y-117514092D02*
X186402723Y-117704568D01*
X186402723Y-117704568D02*
X185688437Y-117895044D01*
X185688437Y-117895044D02*
X186688437Y-118133140D01*
X186355104Y-118942663D02*
X185688437Y-118942663D01*
X186736057Y-118704568D02*
X186021771Y-118466473D01*
X186021771Y-118466473D02*
X186021771Y-119085520D01*
X200330447Y-87266863D02*
X200406637Y-87266863D01*
X200406637Y-87266863D02*
X200482828Y-87304958D01*
X200482828Y-87304958D02*
X200520923Y-87343053D01*
X200520923Y-87343053D02*
X200559018Y-87419244D01*
X200559018Y-87419244D02*
X200597113Y-87571625D01*
X200597113Y-87571625D02*
X200597113Y-87762101D01*
X200597113Y-87762101D02*
X200559018Y-87914482D01*
X200559018Y-87914482D02*
X200520923Y-87990672D01*
X200520923Y-87990672D02*
X200482828Y-88028768D01*
X200482828Y-88028768D02*
X200406637Y-88066863D01*
X200406637Y-88066863D02*
X200330447Y-88066863D01*
X200330447Y-88066863D02*
X200254256Y-88028768D01*
X200254256Y-88028768D02*
X200216161Y-87990672D01*
X200216161Y-87990672D02*
X200178066Y-87914482D01*
X200178066Y-87914482D02*
X200139970Y-87762101D01*
X200139970Y-87762101D02*
X200139970Y-87571625D01*
X200139970Y-87571625D02*
X200178066Y-87419244D01*
X200178066Y-87419244D02*
X200216161Y-87343053D01*
X200216161Y-87343053D02*
X200254256Y-87304958D01*
X200254256Y-87304958D02*
X200330447Y-87266863D01*
X201092352Y-87266863D02*
X201168542Y-87266863D01*
X201168542Y-87266863D02*
X201244733Y-87304958D01*
X201244733Y-87304958D02*
X201282828Y-87343053D01*
X201282828Y-87343053D02*
X201320923Y-87419244D01*
X201320923Y-87419244D02*
X201359018Y-87571625D01*
X201359018Y-87571625D02*
X201359018Y-87762101D01*
X201359018Y-87762101D02*
X201320923Y-87914482D01*
X201320923Y-87914482D02*
X201282828Y-87990672D01*
X201282828Y-87990672D02*
X201244733Y-88028768D01*
X201244733Y-88028768D02*
X201168542Y-88066863D01*
X201168542Y-88066863D02*
X201092352Y-88066863D01*
X201092352Y-88066863D02*
X201016161Y-88028768D01*
X201016161Y-88028768D02*
X200978066Y-87990672D01*
X200978066Y-87990672D02*
X200939971Y-87914482D01*
X200939971Y-87914482D02*
X200901875Y-87762101D01*
X200901875Y-87762101D02*
X200901875Y-87571625D01*
X200901875Y-87571625D02*
X200939971Y-87419244D01*
X200939971Y-87419244D02*
X200978066Y-87343053D01*
X200978066Y-87343053D02*
X201016161Y-87304958D01*
X201016161Y-87304958D02*
X201092352Y-87266863D01*
X201816161Y-87609720D02*
X201739971Y-87571625D01*
X201739971Y-87571625D02*
X201701876Y-87533529D01*
X201701876Y-87533529D02*
X201663780Y-87457339D01*
X201663780Y-87457339D02*
X201663780Y-87419244D01*
X201663780Y-87419244D02*
X201701876Y-87343053D01*
X201701876Y-87343053D02*
X201739971Y-87304958D01*
X201739971Y-87304958D02*
X201816161Y-87266863D01*
X201816161Y-87266863D02*
X201968542Y-87266863D01*
X201968542Y-87266863D02*
X202044733Y-87304958D01*
X202044733Y-87304958D02*
X202082828Y-87343053D01*
X202082828Y-87343053D02*
X202120923Y-87419244D01*
X202120923Y-87419244D02*
X202120923Y-87457339D01*
X202120923Y-87457339D02*
X202082828Y-87533529D01*
X202082828Y-87533529D02*
X202044733Y-87571625D01*
X202044733Y-87571625D02*
X201968542Y-87609720D01*
X201968542Y-87609720D02*
X201816161Y-87609720D01*
X201816161Y-87609720D02*
X201739971Y-87647815D01*
X201739971Y-87647815D02*
X201701876Y-87685910D01*
X201701876Y-87685910D02*
X201663780Y-87762101D01*
X201663780Y-87762101D02*
X201663780Y-87914482D01*
X201663780Y-87914482D02*
X201701876Y-87990672D01*
X201701876Y-87990672D02*
X201739971Y-88028768D01*
X201739971Y-88028768D02*
X201816161Y-88066863D01*
X201816161Y-88066863D02*
X201968542Y-88066863D01*
X201968542Y-88066863D02*
X202044733Y-88028768D01*
X202044733Y-88028768D02*
X202082828Y-87990672D01*
X202082828Y-87990672D02*
X202120923Y-87914482D01*
X202120923Y-87914482D02*
X202120923Y-87762101D01*
X202120923Y-87762101D02*
X202082828Y-87685910D01*
X202082828Y-87685910D02*
X202044733Y-87647815D01*
X202044733Y-87647815D02*
X201968542Y-87609720D01*
X188989399Y-92416863D02*
X189256066Y-93216863D01*
X189256066Y-93216863D02*
X189522732Y-92416863D01*
X190246542Y-93140672D02*
X190208446Y-93178768D01*
X190208446Y-93178768D02*
X190094161Y-93216863D01*
X190094161Y-93216863D02*
X190017970Y-93216863D01*
X190017970Y-93216863D02*
X189903684Y-93178768D01*
X189903684Y-93178768D02*
X189827494Y-93102577D01*
X189827494Y-93102577D02*
X189789399Y-93026387D01*
X189789399Y-93026387D02*
X189751303Y-92874006D01*
X189751303Y-92874006D02*
X189751303Y-92759720D01*
X189751303Y-92759720D02*
X189789399Y-92607339D01*
X189789399Y-92607339D02*
X189827494Y-92531148D01*
X189827494Y-92531148D02*
X189903684Y-92454958D01*
X189903684Y-92454958D02*
X190017970Y-92416863D01*
X190017970Y-92416863D02*
X190094161Y-92416863D01*
X190094161Y-92416863D02*
X190208446Y-92454958D01*
X190208446Y-92454958D02*
X190246542Y-92493053D01*
X191046542Y-93140672D02*
X191008446Y-93178768D01*
X191008446Y-93178768D02*
X190894161Y-93216863D01*
X190894161Y-93216863D02*
X190817970Y-93216863D01*
X190817970Y-93216863D02*
X190703684Y-93178768D01*
X190703684Y-93178768D02*
X190627494Y-93102577D01*
X190627494Y-93102577D02*
X190589399Y-93026387D01*
X190589399Y-93026387D02*
X190551303Y-92874006D01*
X190551303Y-92874006D02*
X190551303Y-92759720D01*
X190551303Y-92759720D02*
X190589399Y-92607339D01*
X190589399Y-92607339D02*
X190627494Y-92531148D01*
X190627494Y-92531148D02*
X190703684Y-92454958D01*
X190703684Y-92454958D02*
X190817970Y-92416863D01*
X190817970Y-92416863D02*
X190894161Y-92416863D01*
X190894161Y-92416863D02*
X191008446Y-92454958D01*
X191008446Y-92454958D02*
X191046542Y-92493053D01*
X200597113Y-110996863D02*
X200139970Y-110996863D01*
X200368542Y-110996863D02*
X200368542Y-110196863D01*
X200368542Y-110196863D02*
X200292351Y-110311148D01*
X200292351Y-110311148D02*
X200216161Y-110387339D01*
X200216161Y-110387339D02*
X200139970Y-110425434D01*
X201092352Y-110196863D02*
X201168542Y-110196863D01*
X201168542Y-110196863D02*
X201244733Y-110234958D01*
X201244733Y-110234958D02*
X201282828Y-110273053D01*
X201282828Y-110273053D02*
X201320923Y-110349244D01*
X201320923Y-110349244D02*
X201359018Y-110501625D01*
X201359018Y-110501625D02*
X201359018Y-110692101D01*
X201359018Y-110692101D02*
X201320923Y-110844482D01*
X201320923Y-110844482D02*
X201282828Y-110920672D01*
X201282828Y-110920672D02*
X201244733Y-110958768D01*
X201244733Y-110958768D02*
X201168542Y-110996863D01*
X201168542Y-110996863D02*
X201092352Y-110996863D01*
X201092352Y-110996863D02*
X201016161Y-110958768D01*
X201016161Y-110958768D02*
X200978066Y-110920672D01*
X200978066Y-110920672D02*
X200939971Y-110844482D01*
X200939971Y-110844482D02*
X200901875Y-110692101D01*
X200901875Y-110692101D02*
X200901875Y-110501625D01*
X200901875Y-110501625D02*
X200939971Y-110349244D01*
X200939971Y-110349244D02*
X200978066Y-110273053D01*
X200978066Y-110273053D02*
X201016161Y-110234958D01*
X201016161Y-110234958D02*
X201092352Y-110196863D01*
X202044733Y-110463529D02*
X202044733Y-110996863D01*
X201854257Y-110158768D02*
X201663780Y-110730196D01*
X201663780Y-110730196D02*
X202159019Y-110730196D01*
X189567161Y-85596863D02*
X189300494Y-85215910D01*
X189110018Y-85596863D02*
X189110018Y-84796863D01*
X189110018Y-84796863D02*
X189414780Y-84796863D01*
X189414780Y-84796863D02*
X189490970Y-84834958D01*
X189490970Y-84834958D02*
X189529065Y-84873053D01*
X189529065Y-84873053D02*
X189567161Y-84949244D01*
X189567161Y-84949244D02*
X189567161Y-85063529D01*
X189567161Y-85063529D02*
X189529065Y-85139720D01*
X189529065Y-85139720D02*
X189490970Y-85177815D01*
X189490970Y-85177815D02*
X189414780Y-85215910D01*
X189414780Y-85215910D02*
X189110018Y-85215910D01*
X189871922Y-85368291D02*
X190252875Y-85368291D01*
X189795732Y-85596863D02*
X190062399Y-84796863D01*
X190062399Y-84796863D02*
X190329065Y-85596863D01*
X190519541Y-84796863D02*
X190710017Y-85596863D01*
X190710017Y-85596863D02*
X190862398Y-85025434D01*
X190862398Y-85025434D02*
X191014779Y-85596863D01*
X191014779Y-85596863D02*
X191205256Y-84796863D01*
X189522732Y-103376863D02*
X189065589Y-103376863D01*
X189294161Y-103376863D02*
X189294161Y-102576863D01*
X189294161Y-102576863D02*
X189217970Y-102691148D01*
X189217970Y-102691148D02*
X189141780Y-102767339D01*
X189141780Y-102767339D02*
X189065589Y-102805434D01*
X190284637Y-103376863D02*
X189827494Y-103376863D01*
X190056066Y-103376863D02*
X190056066Y-102576863D01*
X190056066Y-102576863D02*
X189979875Y-102691148D01*
X189979875Y-102691148D02*
X189903685Y-102767339D01*
X189903685Y-102767339D02*
X189827494Y-102805434D01*
X191008447Y-102576863D02*
X190627495Y-102576863D01*
X190627495Y-102576863D02*
X190589399Y-102957815D01*
X190589399Y-102957815D02*
X190627495Y-102919720D01*
X190627495Y-102919720D02*
X190703685Y-102881625D01*
X190703685Y-102881625D02*
X190894161Y-102881625D01*
X190894161Y-102881625D02*
X190970352Y-102919720D01*
X190970352Y-102919720D02*
X191008447Y-102957815D01*
X191008447Y-102957815D02*
X191046542Y-103034006D01*
X191046542Y-103034006D02*
X191046542Y-103224482D01*
X191046542Y-103224482D02*
X191008447Y-103300672D01*
X191008447Y-103300672D02*
X190970352Y-103338768D01*
X190970352Y-103338768D02*
X190894161Y-103376863D01*
X190894161Y-103376863D02*
X190703685Y-103376863D01*
X190703685Y-103376863D02*
X190627495Y-103338768D01*
X190627495Y-103338768D02*
X190589399Y-103300672D01*
X200444733Y-89914958D02*
X200368543Y-89876863D01*
X200368543Y-89876863D02*
X200254257Y-89876863D01*
X200254257Y-89876863D02*
X200139971Y-89914958D01*
X200139971Y-89914958D02*
X200063781Y-89991148D01*
X200063781Y-89991148D02*
X200025686Y-90067339D01*
X200025686Y-90067339D02*
X199987590Y-90219720D01*
X199987590Y-90219720D02*
X199987590Y-90334006D01*
X199987590Y-90334006D02*
X200025686Y-90486387D01*
X200025686Y-90486387D02*
X200063781Y-90562577D01*
X200063781Y-90562577D02*
X200139971Y-90638768D01*
X200139971Y-90638768D02*
X200254257Y-90676863D01*
X200254257Y-90676863D02*
X200330448Y-90676863D01*
X200330448Y-90676863D02*
X200444733Y-90638768D01*
X200444733Y-90638768D02*
X200482829Y-90600672D01*
X200482829Y-90600672D02*
X200482829Y-90334006D01*
X200482829Y-90334006D02*
X200330448Y-90334006D01*
X200825686Y-90676863D02*
X200825686Y-89876863D01*
X200825686Y-89876863D02*
X201282829Y-90676863D01*
X201282829Y-90676863D02*
X201282829Y-89876863D01*
X201663781Y-90676863D02*
X201663781Y-89876863D01*
X201663781Y-89876863D02*
X201854257Y-89876863D01*
X201854257Y-89876863D02*
X201968543Y-89914958D01*
X201968543Y-89914958D02*
X202044733Y-89991148D01*
X202044733Y-89991148D02*
X202082828Y-90067339D01*
X202082828Y-90067339D02*
X202120924Y-90219720D01*
X202120924Y-90219720D02*
X202120924Y-90334006D01*
X202120924Y-90334006D02*
X202082828Y-90486387D01*
X202082828Y-90486387D02*
X202044733Y-90562577D01*
X202044733Y-90562577D02*
X201968543Y-90638768D01*
X201968543Y-90638768D02*
X201854257Y-90676863D01*
X201854257Y-90676863D02*
X201663781Y-90676863D01*
X200330447Y-94956863D02*
X200406637Y-94956863D01*
X200406637Y-94956863D02*
X200482828Y-94994958D01*
X200482828Y-94994958D02*
X200520923Y-95033053D01*
X200520923Y-95033053D02*
X200559018Y-95109244D01*
X200559018Y-95109244D02*
X200597113Y-95261625D01*
X200597113Y-95261625D02*
X200597113Y-95452101D01*
X200597113Y-95452101D02*
X200559018Y-95604482D01*
X200559018Y-95604482D02*
X200520923Y-95680672D01*
X200520923Y-95680672D02*
X200482828Y-95718768D01*
X200482828Y-95718768D02*
X200406637Y-95756863D01*
X200406637Y-95756863D02*
X200330447Y-95756863D01*
X200330447Y-95756863D02*
X200254256Y-95718768D01*
X200254256Y-95718768D02*
X200216161Y-95680672D01*
X200216161Y-95680672D02*
X200178066Y-95604482D01*
X200178066Y-95604482D02*
X200139970Y-95452101D01*
X200139970Y-95452101D02*
X200139970Y-95261625D01*
X200139970Y-95261625D02*
X200178066Y-95109244D01*
X200178066Y-95109244D02*
X200216161Y-95033053D01*
X200216161Y-95033053D02*
X200254256Y-94994958D01*
X200254256Y-94994958D02*
X200330447Y-94956863D01*
X201359018Y-95756863D02*
X200901875Y-95756863D01*
X201130447Y-95756863D02*
X201130447Y-94956863D01*
X201130447Y-94956863D02*
X201054256Y-95071148D01*
X201054256Y-95071148D02*
X200978066Y-95147339D01*
X200978066Y-95147339D02*
X200901875Y-95185434D01*
X201625685Y-94956863D02*
X202159019Y-94956863D01*
X202159019Y-94956863D02*
X201816161Y-95756863D01*
X200330447Y-102566863D02*
X200406637Y-102566863D01*
X200406637Y-102566863D02*
X200482828Y-102604958D01*
X200482828Y-102604958D02*
X200520923Y-102643053D01*
X200520923Y-102643053D02*
X200559018Y-102719244D01*
X200559018Y-102719244D02*
X200597113Y-102871625D01*
X200597113Y-102871625D02*
X200597113Y-103062101D01*
X200597113Y-103062101D02*
X200559018Y-103214482D01*
X200559018Y-103214482D02*
X200520923Y-103290672D01*
X200520923Y-103290672D02*
X200482828Y-103328768D01*
X200482828Y-103328768D02*
X200406637Y-103366863D01*
X200406637Y-103366863D02*
X200330447Y-103366863D01*
X200330447Y-103366863D02*
X200254256Y-103328768D01*
X200254256Y-103328768D02*
X200216161Y-103290672D01*
X200216161Y-103290672D02*
X200178066Y-103214482D01*
X200178066Y-103214482D02*
X200139970Y-103062101D01*
X200139970Y-103062101D02*
X200139970Y-102871625D01*
X200139970Y-102871625D02*
X200178066Y-102719244D01*
X200178066Y-102719244D02*
X200216161Y-102643053D01*
X200216161Y-102643053D02*
X200254256Y-102604958D01*
X200254256Y-102604958D02*
X200330447Y-102566863D01*
X200901875Y-102643053D02*
X200939971Y-102604958D01*
X200939971Y-102604958D02*
X201016161Y-102566863D01*
X201016161Y-102566863D02*
X201206637Y-102566863D01*
X201206637Y-102566863D02*
X201282828Y-102604958D01*
X201282828Y-102604958D02*
X201320923Y-102643053D01*
X201320923Y-102643053D02*
X201359018Y-102719244D01*
X201359018Y-102719244D02*
X201359018Y-102795434D01*
X201359018Y-102795434D02*
X201320923Y-102909720D01*
X201320923Y-102909720D02*
X200863780Y-103366863D01*
X200863780Y-103366863D02*
X201359018Y-103366863D01*
X202044733Y-102833529D02*
X202044733Y-103366863D01*
X201854257Y-102528768D02*
X201663780Y-103100196D01*
X201663780Y-103100196D02*
X202159019Y-103100196D01*
X189522732Y-105916863D02*
X189065589Y-105916863D01*
X189294161Y-105916863D02*
X189294161Y-105116863D01*
X189294161Y-105116863D02*
X189217970Y-105231148D01*
X189217970Y-105231148D02*
X189141780Y-105307339D01*
X189141780Y-105307339D02*
X189065589Y-105345434D01*
X190284637Y-105916863D02*
X189827494Y-105916863D01*
X190056066Y-105916863D02*
X190056066Y-105116863D01*
X190056066Y-105116863D02*
X189979875Y-105231148D01*
X189979875Y-105231148D02*
X189903685Y-105307339D01*
X189903685Y-105307339D02*
X189827494Y-105345434D01*
X190551304Y-105116863D02*
X191046542Y-105116863D01*
X191046542Y-105116863D02*
X190779876Y-105421625D01*
X190779876Y-105421625D02*
X190894161Y-105421625D01*
X190894161Y-105421625D02*
X190970352Y-105459720D01*
X190970352Y-105459720D02*
X191008447Y-105497815D01*
X191008447Y-105497815D02*
X191046542Y-105574006D01*
X191046542Y-105574006D02*
X191046542Y-105764482D01*
X191046542Y-105764482D02*
X191008447Y-105840672D01*
X191008447Y-105840672D02*
X190970352Y-105878768D01*
X190970352Y-105878768D02*
X190894161Y-105916863D01*
X190894161Y-105916863D02*
X190665590Y-105916863D01*
X190665590Y-105916863D02*
X190589399Y-105878768D01*
X190589399Y-105878768D02*
X190551304Y-105840672D01*
X189567162Y-90676863D02*
X189300495Y-90295910D01*
X189110019Y-90676863D02*
X189110019Y-89876863D01*
X189110019Y-89876863D02*
X189414781Y-89876863D01*
X189414781Y-89876863D02*
X189490971Y-89914958D01*
X189490971Y-89914958D02*
X189529066Y-89953053D01*
X189529066Y-89953053D02*
X189567162Y-90029244D01*
X189567162Y-90029244D02*
X189567162Y-90143529D01*
X189567162Y-90143529D02*
X189529066Y-90219720D01*
X189529066Y-90219720D02*
X189490971Y-90257815D01*
X189490971Y-90257815D02*
X189414781Y-90295910D01*
X189414781Y-90295910D02*
X189110019Y-90295910D01*
X189871923Y-90638768D02*
X189986209Y-90676863D01*
X189986209Y-90676863D02*
X190176685Y-90676863D01*
X190176685Y-90676863D02*
X190252876Y-90638768D01*
X190252876Y-90638768D02*
X190290971Y-90600672D01*
X190290971Y-90600672D02*
X190329066Y-90524482D01*
X190329066Y-90524482D02*
X190329066Y-90448291D01*
X190329066Y-90448291D02*
X190290971Y-90372101D01*
X190290971Y-90372101D02*
X190252876Y-90334006D01*
X190252876Y-90334006D02*
X190176685Y-90295910D01*
X190176685Y-90295910D02*
X190024304Y-90257815D01*
X190024304Y-90257815D02*
X189948114Y-90219720D01*
X189948114Y-90219720D02*
X189910019Y-90181625D01*
X189910019Y-90181625D02*
X189871923Y-90105434D01*
X189871923Y-90105434D02*
X189871923Y-90029244D01*
X189871923Y-90029244D02*
X189910019Y-89953053D01*
X189910019Y-89953053D02*
X189948114Y-89914958D01*
X189948114Y-89914958D02*
X190024304Y-89876863D01*
X190024304Y-89876863D02*
X190214781Y-89876863D01*
X190214781Y-89876863D02*
X190329066Y-89914958D01*
X190557638Y-89876863D02*
X191014781Y-89876863D01*
X190786209Y-90676863D02*
X190786209Y-89876863D01*
X200597113Y-105916863D02*
X200139970Y-105916863D01*
X200368542Y-105916863D02*
X200368542Y-105116863D01*
X200368542Y-105116863D02*
X200292351Y-105231148D01*
X200292351Y-105231148D02*
X200216161Y-105307339D01*
X200216161Y-105307339D02*
X200139970Y-105345434D01*
X201092352Y-105116863D02*
X201168542Y-105116863D01*
X201168542Y-105116863D02*
X201244733Y-105154958D01*
X201244733Y-105154958D02*
X201282828Y-105193053D01*
X201282828Y-105193053D02*
X201320923Y-105269244D01*
X201320923Y-105269244D02*
X201359018Y-105421625D01*
X201359018Y-105421625D02*
X201359018Y-105612101D01*
X201359018Y-105612101D02*
X201320923Y-105764482D01*
X201320923Y-105764482D02*
X201282828Y-105840672D01*
X201282828Y-105840672D02*
X201244733Y-105878768D01*
X201244733Y-105878768D02*
X201168542Y-105916863D01*
X201168542Y-105916863D02*
X201092352Y-105916863D01*
X201092352Y-105916863D02*
X201016161Y-105878768D01*
X201016161Y-105878768D02*
X200978066Y-105840672D01*
X200978066Y-105840672D02*
X200939971Y-105764482D01*
X200939971Y-105764482D02*
X200901875Y-105612101D01*
X200901875Y-105612101D02*
X200901875Y-105421625D01*
X200901875Y-105421625D02*
X200939971Y-105269244D01*
X200939971Y-105269244D02*
X200978066Y-105193053D01*
X200978066Y-105193053D02*
X201016161Y-105154958D01*
X201016161Y-105154958D02*
X201092352Y-105116863D01*
X201854257Y-105116863D02*
X201930447Y-105116863D01*
X201930447Y-105116863D02*
X202006638Y-105154958D01*
X202006638Y-105154958D02*
X202044733Y-105193053D01*
X202044733Y-105193053D02*
X202082828Y-105269244D01*
X202082828Y-105269244D02*
X202120923Y-105421625D01*
X202120923Y-105421625D02*
X202120923Y-105612101D01*
X202120923Y-105612101D02*
X202082828Y-105764482D01*
X202082828Y-105764482D02*
X202044733Y-105840672D01*
X202044733Y-105840672D02*
X202006638Y-105878768D01*
X202006638Y-105878768D02*
X201930447Y-105916863D01*
X201930447Y-105916863D02*
X201854257Y-105916863D01*
X201854257Y-105916863D02*
X201778066Y-105878768D01*
X201778066Y-105878768D02*
X201739971Y-105840672D01*
X201739971Y-105840672D02*
X201701876Y-105764482D01*
X201701876Y-105764482D02*
X201663780Y-105612101D01*
X201663780Y-105612101D02*
X201663780Y-105421625D01*
X201663780Y-105421625D02*
X201701876Y-105269244D01*
X201701876Y-105269244D02*
X201739971Y-105193053D01*
X201739971Y-105193053D02*
X201778066Y-105154958D01*
X201778066Y-105154958D02*
X201854257Y-105116863D01*
X189522732Y-108456863D02*
X189065589Y-108456863D01*
X189294161Y-108456863D02*
X189294161Y-107656863D01*
X189294161Y-107656863D02*
X189217970Y-107771148D01*
X189217970Y-107771148D02*
X189141780Y-107847339D01*
X189141780Y-107847339D02*
X189065589Y-107885434D01*
X190284637Y-108456863D02*
X189827494Y-108456863D01*
X190056066Y-108456863D02*
X190056066Y-107656863D01*
X190056066Y-107656863D02*
X189979875Y-107771148D01*
X189979875Y-107771148D02*
X189903685Y-107847339D01*
X189903685Y-107847339D02*
X189827494Y-107885434D01*
X191046542Y-108456863D02*
X190589399Y-108456863D01*
X190817971Y-108456863D02*
X190817971Y-107656863D01*
X190817971Y-107656863D02*
X190741780Y-107771148D01*
X190741780Y-107771148D02*
X190665590Y-107847339D01*
X190665590Y-107847339D02*
X190589399Y-107885434D01*
X189256066Y-110196863D02*
X189332256Y-110196863D01*
X189332256Y-110196863D02*
X189408447Y-110234958D01*
X189408447Y-110234958D02*
X189446542Y-110273053D01*
X189446542Y-110273053D02*
X189484637Y-110349244D01*
X189484637Y-110349244D02*
X189522732Y-110501625D01*
X189522732Y-110501625D02*
X189522732Y-110692101D01*
X189522732Y-110692101D02*
X189484637Y-110844482D01*
X189484637Y-110844482D02*
X189446542Y-110920672D01*
X189446542Y-110920672D02*
X189408447Y-110958768D01*
X189408447Y-110958768D02*
X189332256Y-110996863D01*
X189332256Y-110996863D02*
X189256066Y-110996863D01*
X189256066Y-110996863D02*
X189179875Y-110958768D01*
X189179875Y-110958768D02*
X189141780Y-110920672D01*
X189141780Y-110920672D02*
X189103685Y-110844482D01*
X189103685Y-110844482D02*
X189065589Y-110692101D01*
X189065589Y-110692101D02*
X189065589Y-110501625D01*
X189065589Y-110501625D02*
X189103685Y-110349244D01*
X189103685Y-110349244D02*
X189141780Y-110273053D01*
X189141780Y-110273053D02*
X189179875Y-110234958D01*
X189179875Y-110234958D02*
X189256066Y-110196863D01*
X190284637Y-110996863D02*
X189827494Y-110996863D01*
X190056066Y-110996863D02*
X190056066Y-110196863D01*
X190056066Y-110196863D02*
X189979875Y-110311148D01*
X189979875Y-110311148D02*
X189903685Y-110387339D01*
X189903685Y-110387339D02*
X189827494Y-110425434D01*
X190779876Y-110196863D02*
X190856066Y-110196863D01*
X190856066Y-110196863D02*
X190932257Y-110234958D01*
X190932257Y-110234958D02*
X190970352Y-110273053D01*
X190970352Y-110273053D02*
X191008447Y-110349244D01*
X191008447Y-110349244D02*
X191046542Y-110501625D01*
X191046542Y-110501625D02*
X191046542Y-110692101D01*
X191046542Y-110692101D02*
X191008447Y-110844482D01*
X191008447Y-110844482D02*
X190970352Y-110920672D01*
X190970352Y-110920672D02*
X190932257Y-110958768D01*
X190932257Y-110958768D02*
X190856066Y-110996863D01*
X190856066Y-110996863D02*
X190779876Y-110996863D01*
X190779876Y-110996863D02*
X190703685Y-110958768D01*
X190703685Y-110958768D02*
X190665590Y-110920672D01*
X190665590Y-110920672D02*
X190627495Y-110844482D01*
X190627495Y-110844482D02*
X190589399Y-110692101D01*
X190589399Y-110692101D02*
X190589399Y-110501625D01*
X190589399Y-110501625D02*
X190627495Y-110349244D01*
X190627495Y-110349244D02*
X190665590Y-110273053D01*
X190665590Y-110273053D02*
X190703685Y-110234958D01*
X190703685Y-110234958D02*
X190779876Y-110196863D01*
X200330447Y-97566863D02*
X200406637Y-97566863D01*
X200406637Y-97566863D02*
X200482828Y-97604958D01*
X200482828Y-97604958D02*
X200520923Y-97643053D01*
X200520923Y-97643053D02*
X200559018Y-97719244D01*
X200559018Y-97719244D02*
X200597113Y-97871625D01*
X200597113Y-97871625D02*
X200597113Y-98062101D01*
X200597113Y-98062101D02*
X200559018Y-98214482D01*
X200559018Y-98214482D02*
X200520923Y-98290672D01*
X200520923Y-98290672D02*
X200482828Y-98328768D01*
X200482828Y-98328768D02*
X200406637Y-98366863D01*
X200406637Y-98366863D02*
X200330447Y-98366863D01*
X200330447Y-98366863D02*
X200254256Y-98328768D01*
X200254256Y-98328768D02*
X200216161Y-98290672D01*
X200216161Y-98290672D02*
X200178066Y-98214482D01*
X200178066Y-98214482D02*
X200139970Y-98062101D01*
X200139970Y-98062101D02*
X200139970Y-97871625D01*
X200139970Y-97871625D02*
X200178066Y-97719244D01*
X200178066Y-97719244D02*
X200216161Y-97643053D01*
X200216161Y-97643053D02*
X200254256Y-97604958D01*
X200254256Y-97604958D02*
X200330447Y-97566863D01*
X200901875Y-97643053D02*
X200939971Y-97604958D01*
X200939971Y-97604958D02*
X201016161Y-97566863D01*
X201016161Y-97566863D02*
X201206637Y-97566863D01*
X201206637Y-97566863D02*
X201282828Y-97604958D01*
X201282828Y-97604958D02*
X201320923Y-97643053D01*
X201320923Y-97643053D02*
X201359018Y-97719244D01*
X201359018Y-97719244D02*
X201359018Y-97795434D01*
X201359018Y-97795434D02*
X201320923Y-97909720D01*
X201320923Y-97909720D02*
X200863780Y-98366863D01*
X200863780Y-98366863D02*
X201359018Y-98366863D01*
X201854257Y-97566863D02*
X201930447Y-97566863D01*
X201930447Y-97566863D02*
X202006638Y-97604958D01*
X202006638Y-97604958D02*
X202044733Y-97643053D01*
X202044733Y-97643053D02*
X202082828Y-97719244D01*
X202082828Y-97719244D02*
X202120923Y-97871625D01*
X202120923Y-97871625D02*
X202120923Y-98062101D01*
X202120923Y-98062101D02*
X202082828Y-98214482D01*
X202082828Y-98214482D02*
X202044733Y-98290672D01*
X202044733Y-98290672D02*
X202006638Y-98328768D01*
X202006638Y-98328768D02*
X201930447Y-98366863D01*
X201930447Y-98366863D02*
X201854257Y-98366863D01*
X201854257Y-98366863D02*
X201778066Y-98328768D01*
X201778066Y-98328768D02*
X201739971Y-98290672D01*
X201739971Y-98290672D02*
X201701876Y-98214482D01*
X201701876Y-98214482D02*
X201663780Y-98062101D01*
X201663780Y-98062101D02*
X201663780Y-97871625D01*
X201663780Y-97871625D02*
X201701876Y-97719244D01*
X201701876Y-97719244D02*
X201739971Y-97643053D01*
X201739971Y-97643053D02*
X201778066Y-97604958D01*
X201778066Y-97604958D02*
X201854257Y-97566863D01*
X200330447Y-100066863D02*
X200406637Y-100066863D01*
X200406637Y-100066863D02*
X200482828Y-100104958D01*
X200482828Y-100104958D02*
X200520923Y-100143053D01*
X200520923Y-100143053D02*
X200559018Y-100219244D01*
X200559018Y-100219244D02*
X200597113Y-100371625D01*
X200597113Y-100371625D02*
X200597113Y-100562101D01*
X200597113Y-100562101D02*
X200559018Y-100714482D01*
X200559018Y-100714482D02*
X200520923Y-100790672D01*
X200520923Y-100790672D02*
X200482828Y-100828768D01*
X200482828Y-100828768D02*
X200406637Y-100866863D01*
X200406637Y-100866863D02*
X200330447Y-100866863D01*
X200330447Y-100866863D02*
X200254256Y-100828768D01*
X200254256Y-100828768D02*
X200216161Y-100790672D01*
X200216161Y-100790672D02*
X200178066Y-100714482D01*
X200178066Y-100714482D02*
X200139970Y-100562101D01*
X200139970Y-100562101D02*
X200139970Y-100371625D01*
X200139970Y-100371625D02*
X200178066Y-100219244D01*
X200178066Y-100219244D02*
X200216161Y-100143053D01*
X200216161Y-100143053D02*
X200254256Y-100104958D01*
X200254256Y-100104958D02*
X200330447Y-100066863D01*
X200901875Y-100143053D02*
X200939971Y-100104958D01*
X200939971Y-100104958D02*
X201016161Y-100066863D01*
X201016161Y-100066863D02*
X201206637Y-100066863D01*
X201206637Y-100066863D02*
X201282828Y-100104958D01*
X201282828Y-100104958D02*
X201320923Y-100143053D01*
X201320923Y-100143053D02*
X201359018Y-100219244D01*
X201359018Y-100219244D02*
X201359018Y-100295434D01*
X201359018Y-100295434D02*
X201320923Y-100409720D01*
X201320923Y-100409720D02*
X200863780Y-100866863D01*
X200863780Y-100866863D02*
X201359018Y-100866863D01*
X201663780Y-100143053D02*
X201701876Y-100104958D01*
X201701876Y-100104958D02*
X201778066Y-100066863D01*
X201778066Y-100066863D02*
X201968542Y-100066863D01*
X201968542Y-100066863D02*
X202044733Y-100104958D01*
X202044733Y-100104958D02*
X202082828Y-100143053D01*
X202082828Y-100143053D02*
X202120923Y-100219244D01*
X202120923Y-100219244D02*
X202120923Y-100295434D01*
X202120923Y-100295434D02*
X202082828Y-100409720D01*
X202082828Y-100409720D02*
X201625685Y-100866863D01*
X201625685Y-100866863D02*
X202120923Y-100866863D01*
X189256066Y-94956863D02*
X189332256Y-94956863D01*
X189332256Y-94956863D02*
X189408447Y-94994958D01*
X189408447Y-94994958D02*
X189446542Y-95033053D01*
X189446542Y-95033053D02*
X189484637Y-95109244D01*
X189484637Y-95109244D02*
X189522732Y-95261625D01*
X189522732Y-95261625D02*
X189522732Y-95452101D01*
X189522732Y-95452101D02*
X189484637Y-95604482D01*
X189484637Y-95604482D02*
X189446542Y-95680672D01*
X189446542Y-95680672D02*
X189408447Y-95718768D01*
X189408447Y-95718768D02*
X189332256Y-95756863D01*
X189332256Y-95756863D02*
X189256066Y-95756863D01*
X189256066Y-95756863D02*
X189179875Y-95718768D01*
X189179875Y-95718768D02*
X189141780Y-95680672D01*
X189141780Y-95680672D02*
X189103685Y-95604482D01*
X189103685Y-95604482D02*
X189065589Y-95452101D01*
X189065589Y-95452101D02*
X189065589Y-95261625D01*
X189065589Y-95261625D02*
X189103685Y-95109244D01*
X189103685Y-95109244D02*
X189141780Y-95033053D01*
X189141780Y-95033053D02*
X189179875Y-94994958D01*
X189179875Y-94994958D02*
X189256066Y-94956863D01*
X189789399Y-94956863D02*
X190284637Y-94956863D01*
X190284637Y-94956863D02*
X190017971Y-95261625D01*
X190017971Y-95261625D02*
X190132256Y-95261625D01*
X190132256Y-95261625D02*
X190208447Y-95299720D01*
X190208447Y-95299720D02*
X190246542Y-95337815D01*
X190246542Y-95337815D02*
X190284637Y-95414006D01*
X190284637Y-95414006D02*
X190284637Y-95604482D01*
X190284637Y-95604482D02*
X190246542Y-95680672D01*
X190246542Y-95680672D02*
X190208447Y-95718768D01*
X190208447Y-95718768D02*
X190132256Y-95756863D01*
X190132256Y-95756863D02*
X189903685Y-95756863D01*
X189903685Y-95756863D02*
X189827494Y-95718768D01*
X189827494Y-95718768D02*
X189789399Y-95680672D01*
X191046542Y-95756863D02*
X190589399Y-95756863D01*
X190817971Y-95756863D02*
X190817971Y-94956863D01*
X190817971Y-94956863D02*
X190741780Y-95071148D01*
X190741780Y-95071148D02*
X190665590Y-95147339D01*
X190665590Y-95147339D02*
X190589399Y-95185434D01*
X200444733Y-92454958D02*
X200368543Y-92416863D01*
X200368543Y-92416863D02*
X200254257Y-92416863D01*
X200254257Y-92416863D02*
X200139971Y-92454958D01*
X200139971Y-92454958D02*
X200063781Y-92531148D01*
X200063781Y-92531148D02*
X200025686Y-92607339D01*
X200025686Y-92607339D02*
X199987590Y-92759720D01*
X199987590Y-92759720D02*
X199987590Y-92874006D01*
X199987590Y-92874006D02*
X200025686Y-93026387D01*
X200025686Y-93026387D02*
X200063781Y-93102577D01*
X200063781Y-93102577D02*
X200139971Y-93178768D01*
X200139971Y-93178768D02*
X200254257Y-93216863D01*
X200254257Y-93216863D02*
X200330448Y-93216863D01*
X200330448Y-93216863D02*
X200444733Y-93178768D01*
X200444733Y-93178768D02*
X200482829Y-93140672D01*
X200482829Y-93140672D02*
X200482829Y-92874006D01*
X200482829Y-92874006D02*
X200330448Y-92874006D01*
X200825686Y-93216863D02*
X200825686Y-92416863D01*
X200825686Y-92416863D02*
X201282829Y-93216863D01*
X201282829Y-93216863D02*
X201282829Y-92416863D01*
X201663781Y-93216863D02*
X201663781Y-92416863D01*
X201663781Y-92416863D02*
X201854257Y-92416863D01*
X201854257Y-92416863D02*
X201968543Y-92454958D01*
X201968543Y-92454958D02*
X202044733Y-92531148D01*
X202044733Y-92531148D02*
X202082828Y-92607339D01*
X202082828Y-92607339D02*
X202120924Y-92759720D01*
X202120924Y-92759720D02*
X202120924Y-92874006D01*
X202120924Y-92874006D02*
X202082828Y-93026387D01*
X202082828Y-93026387D02*
X202044733Y-93102577D01*
X202044733Y-93102577D02*
X201968543Y-93178768D01*
X201968543Y-93178768D02*
X201854257Y-93216863D01*
X201854257Y-93216863D02*
X201663781Y-93216863D01*
X189256066Y-100036863D02*
X189332256Y-100036863D01*
X189332256Y-100036863D02*
X189408447Y-100074958D01*
X189408447Y-100074958D02*
X189446542Y-100113053D01*
X189446542Y-100113053D02*
X189484637Y-100189244D01*
X189484637Y-100189244D02*
X189522732Y-100341625D01*
X189522732Y-100341625D02*
X189522732Y-100532101D01*
X189522732Y-100532101D02*
X189484637Y-100684482D01*
X189484637Y-100684482D02*
X189446542Y-100760672D01*
X189446542Y-100760672D02*
X189408447Y-100798768D01*
X189408447Y-100798768D02*
X189332256Y-100836863D01*
X189332256Y-100836863D02*
X189256066Y-100836863D01*
X189256066Y-100836863D02*
X189179875Y-100798768D01*
X189179875Y-100798768D02*
X189141780Y-100760672D01*
X189141780Y-100760672D02*
X189103685Y-100684482D01*
X189103685Y-100684482D02*
X189065589Y-100532101D01*
X189065589Y-100532101D02*
X189065589Y-100341625D01*
X189065589Y-100341625D02*
X189103685Y-100189244D01*
X189103685Y-100189244D02*
X189141780Y-100113053D01*
X189141780Y-100113053D02*
X189179875Y-100074958D01*
X189179875Y-100074958D02*
X189256066Y-100036863D01*
X190017971Y-100036863D02*
X190094161Y-100036863D01*
X190094161Y-100036863D02*
X190170352Y-100074958D01*
X190170352Y-100074958D02*
X190208447Y-100113053D01*
X190208447Y-100113053D02*
X190246542Y-100189244D01*
X190246542Y-100189244D02*
X190284637Y-100341625D01*
X190284637Y-100341625D02*
X190284637Y-100532101D01*
X190284637Y-100532101D02*
X190246542Y-100684482D01*
X190246542Y-100684482D02*
X190208447Y-100760672D01*
X190208447Y-100760672D02*
X190170352Y-100798768D01*
X190170352Y-100798768D02*
X190094161Y-100836863D01*
X190094161Y-100836863D02*
X190017971Y-100836863D01*
X190017971Y-100836863D02*
X189941780Y-100798768D01*
X189941780Y-100798768D02*
X189903685Y-100760672D01*
X189903685Y-100760672D02*
X189865590Y-100684482D01*
X189865590Y-100684482D02*
X189827494Y-100532101D01*
X189827494Y-100532101D02*
X189827494Y-100341625D01*
X189827494Y-100341625D02*
X189865590Y-100189244D01*
X189865590Y-100189244D02*
X189903685Y-100113053D01*
X189903685Y-100113053D02*
X189941780Y-100074958D01*
X189941780Y-100074958D02*
X190017971Y-100036863D01*
X190589399Y-100113053D02*
X190627495Y-100074958D01*
X190627495Y-100074958D02*
X190703685Y-100036863D01*
X190703685Y-100036863D02*
X190894161Y-100036863D01*
X190894161Y-100036863D02*
X190970352Y-100074958D01*
X190970352Y-100074958D02*
X191008447Y-100113053D01*
X191008447Y-100113053D02*
X191046542Y-100189244D01*
X191046542Y-100189244D02*
X191046542Y-100265434D01*
X191046542Y-100265434D02*
X191008447Y-100379720D01*
X191008447Y-100379720D02*
X190551304Y-100836863D01*
X190551304Y-100836863D02*
X191046542Y-100836863D01*
X189256066Y-97496863D02*
X189332256Y-97496863D01*
X189332256Y-97496863D02*
X189408447Y-97534958D01*
X189408447Y-97534958D02*
X189446542Y-97573053D01*
X189446542Y-97573053D02*
X189484637Y-97649244D01*
X189484637Y-97649244D02*
X189522732Y-97801625D01*
X189522732Y-97801625D02*
X189522732Y-97992101D01*
X189522732Y-97992101D02*
X189484637Y-98144482D01*
X189484637Y-98144482D02*
X189446542Y-98220672D01*
X189446542Y-98220672D02*
X189408447Y-98258768D01*
X189408447Y-98258768D02*
X189332256Y-98296863D01*
X189332256Y-98296863D02*
X189256066Y-98296863D01*
X189256066Y-98296863D02*
X189179875Y-98258768D01*
X189179875Y-98258768D02*
X189141780Y-98220672D01*
X189141780Y-98220672D02*
X189103685Y-98144482D01*
X189103685Y-98144482D02*
X189065589Y-97992101D01*
X189065589Y-97992101D02*
X189065589Y-97801625D01*
X189065589Y-97801625D02*
X189103685Y-97649244D01*
X189103685Y-97649244D02*
X189141780Y-97573053D01*
X189141780Y-97573053D02*
X189179875Y-97534958D01*
X189179875Y-97534958D02*
X189256066Y-97496863D01*
X189827494Y-97573053D02*
X189865590Y-97534958D01*
X189865590Y-97534958D02*
X189941780Y-97496863D01*
X189941780Y-97496863D02*
X190132256Y-97496863D01*
X190132256Y-97496863D02*
X190208447Y-97534958D01*
X190208447Y-97534958D02*
X190246542Y-97573053D01*
X190246542Y-97573053D02*
X190284637Y-97649244D01*
X190284637Y-97649244D02*
X190284637Y-97725434D01*
X190284637Y-97725434D02*
X190246542Y-97839720D01*
X190246542Y-97839720D02*
X189789399Y-98296863D01*
X189789399Y-98296863D02*
X190284637Y-98296863D01*
X190665590Y-98296863D02*
X190817971Y-98296863D01*
X190817971Y-98296863D02*
X190894161Y-98258768D01*
X190894161Y-98258768D02*
X190932257Y-98220672D01*
X190932257Y-98220672D02*
X191008447Y-98106387D01*
X191008447Y-98106387D02*
X191046542Y-97954006D01*
X191046542Y-97954006D02*
X191046542Y-97649244D01*
X191046542Y-97649244D02*
X191008447Y-97573053D01*
X191008447Y-97573053D02*
X190970352Y-97534958D01*
X190970352Y-97534958D02*
X190894161Y-97496863D01*
X190894161Y-97496863D02*
X190741780Y-97496863D01*
X190741780Y-97496863D02*
X190665590Y-97534958D01*
X190665590Y-97534958D02*
X190627495Y-97573053D01*
X190627495Y-97573053D02*
X190589399Y-97649244D01*
X190589399Y-97649244D02*
X190589399Y-97839720D01*
X190589399Y-97839720D02*
X190627495Y-97915910D01*
X190627495Y-97915910D02*
X190665590Y-97954006D01*
X190665590Y-97954006D02*
X190741780Y-97992101D01*
X190741780Y-97992101D02*
X190894161Y-97992101D01*
X190894161Y-97992101D02*
X190970352Y-97954006D01*
X190970352Y-97954006D02*
X191008447Y-97915910D01*
X191008447Y-97915910D02*
X191046542Y-97839720D01*
X189529066Y-87374958D02*
X189452876Y-87336863D01*
X189452876Y-87336863D02*
X189338590Y-87336863D01*
X189338590Y-87336863D02*
X189224304Y-87374958D01*
X189224304Y-87374958D02*
X189148114Y-87451148D01*
X189148114Y-87451148D02*
X189110019Y-87527339D01*
X189110019Y-87527339D02*
X189071923Y-87679720D01*
X189071923Y-87679720D02*
X189071923Y-87794006D01*
X189071923Y-87794006D02*
X189110019Y-87946387D01*
X189110019Y-87946387D02*
X189148114Y-88022577D01*
X189148114Y-88022577D02*
X189224304Y-88098768D01*
X189224304Y-88098768D02*
X189338590Y-88136863D01*
X189338590Y-88136863D02*
X189414781Y-88136863D01*
X189414781Y-88136863D02*
X189529066Y-88098768D01*
X189529066Y-88098768D02*
X189567162Y-88060672D01*
X189567162Y-88060672D02*
X189567162Y-87794006D01*
X189567162Y-87794006D02*
X189414781Y-87794006D01*
X189910019Y-88136863D02*
X189910019Y-87336863D01*
X189910019Y-87336863D02*
X190367162Y-88136863D01*
X190367162Y-88136863D02*
X190367162Y-87336863D01*
X190748114Y-88136863D02*
X190748114Y-87336863D01*
X190748114Y-87336863D02*
X190938590Y-87336863D01*
X190938590Y-87336863D02*
X191052876Y-87374958D01*
X191052876Y-87374958D02*
X191129066Y-87451148D01*
X191129066Y-87451148D02*
X191167161Y-87527339D01*
X191167161Y-87527339D02*
X191205257Y-87679720D01*
X191205257Y-87679720D02*
X191205257Y-87794006D01*
X191205257Y-87794006D02*
X191167161Y-87946387D01*
X191167161Y-87946387D02*
X191129066Y-88022577D01*
X191129066Y-88022577D02*
X191052876Y-88098768D01*
X191052876Y-88098768D02*
X190938590Y-88136863D01*
X190938590Y-88136863D02*
X190748114Y-88136863D01*
X200330447Y-84796863D02*
X200406637Y-84796863D01*
X200406637Y-84796863D02*
X200482828Y-84834958D01*
X200482828Y-84834958D02*
X200520923Y-84873053D01*
X200520923Y-84873053D02*
X200559018Y-84949244D01*
X200559018Y-84949244D02*
X200597113Y-85101625D01*
X200597113Y-85101625D02*
X200597113Y-85292101D01*
X200597113Y-85292101D02*
X200559018Y-85444482D01*
X200559018Y-85444482D02*
X200520923Y-85520672D01*
X200520923Y-85520672D02*
X200482828Y-85558768D01*
X200482828Y-85558768D02*
X200406637Y-85596863D01*
X200406637Y-85596863D02*
X200330447Y-85596863D01*
X200330447Y-85596863D02*
X200254256Y-85558768D01*
X200254256Y-85558768D02*
X200216161Y-85520672D01*
X200216161Y-85520672D02*
X200178066Y-85444482D01*
X200178066Y-85444482D02*
X200139970Y-85292101D01*
X200139970Y-85292101D02*
X200139970Y-85101625D01*
X200139970Y-85101625D02*
X200178066Y-84949244D01*
X200178066Y-84949244D02*
X200216161Y-84873053D01*
X200216161Y-84873053D02*
X200254256Y-84834958D01*
X200254256Y-84834958D02*
X200330447Y-84796863D01*
X201092352Y-84796863D02*
X201168542Y-84796863D01*
X201168542Y-84796863D02*
X201244733Y-84834958D01*
X201244733Y-84834958D02*
X201282828Y-84873053D01*
X201282828Y-84873053D02*
X201320923Y-84949244D01*
X201320923Y-84949244D02*
X201359018Y-85101625D01*
X201359018Y-85101625D02*
X201359018Y-85292101D01*
X201359018Y-85292101D02*
X201320923Y-85444482D01*
X201320923Y-85444482D02*
X201282828Y-85520672D01*
X201282828Y-85520672D02*
X201244733Y-85558768D01*
X201244733Y-85558768D02*
X201168542Y-85596863D01*
X201168542Y-85596863D02*
X201092352Y-85596863D01*
X201092352Y-85596863D02*
X201016161Y-85558768D01*
X201016161Y-85558768D02*
X200978066Y-85520672D01*
X200978066Y-85520672D02*
X200939971Y-85444482D01*
X200939971Y-85444482D02*
X200901875Y-85292101D01*
X200901875Y-85292101D02*
X200901875Y-85101625D01*
X200901875Y-85101625D02*
X200939971Y-84949244D01*
X200939971Y-84949244D02*
X200978066Y-84873053D01*
X200978066Y-84873053D02*
X201016161Y-84834958D01*
X201016161Y-84834958D02*
X201092352Y-84796863D01*
X202044733Y-84796863D02*
X201892352Y-84796863D01*
X201892352Y-84796863D02*
X201816161Y-84834958D01*
X201816161Y-84834958D02*
X201778066Y-84873053D01*
X201778066Y-84873053D02*
X201701876Y-84987339D01*
X201701876Y-84987339D02*
X201663780Y-85139720D01*
X201663780Y-85139720D02*
X201663780Y-85444482D01*
X201663780Y-85444482D02*
X201701876Y-85520672D01*
X201701876Y-85520672D02*
X201739971Y-85558768D01*
X201739971Y-85558768D02*
X201816161Y-85596863D01*
X201816161Y-85596863D02*
X201968542Y-85596863D01*
X201968542Y-85596863D02*
X202044733Y-85558768D01*
X202044733Y-85558768D02*
X202082828Y-85520672D01*
X202082828Y-85520672D02*
X202120923Y-85444482D01*
X202120923Y-85444482D02*
X202120923Y-85254006D01*
X202120923Y-85254006D02*
X202082828Y-85177815D01*
X202082828Y-85177815D02*
X202044733Y-85139720D01*
X202044733Y-85139720D02*
X201968542Y-85101625D01*
X201968542Y-85101625D02*
X201816161Y-85101625D01*
X201816161Y-85101625D02*
X201739971Y-85139720D01*
X201739971Y-85139720D02*
X201701876Y-85177815D01*
X201701876Y-85177815D02*
X201663780Y-85254006D01*
X174988797Y-87439839D02*
X175064987Y-87439839D01*
X175064987Y-87439839D02*
X175141178Y-87477934D01*
X175141178Y-87477934D02*
X175179273Y-87516029D01*
X175179273Y-87516029D02*
X175217368Y-87592220D01*
X175217368Y-87592220D02*
X175255463Y-87744601D01*
X175255463Y-87744601D02*
X175255463Y-87935077D01*
X175255463Y-87935077D02*
X175217368Y-88087458D01*
X175217368Y-88087458D02*
X175179273Y-88163648D01*
X175179273Y-88163648D02*
X175141178Y-88201744D01*
X175141178Y-88201744D02*
X175064987Y-88239839D01*
X175064987Y-88239839D02*
X174988797Y-88239839D01*
X174988797Y-88239839D02*
X174912606Y-88201744D01*
X174912606Y-88201744D02*
X174874511Y-88163648D01*
X174874511Y-88163648D02*
X174836416Y-88087458D01*
X174836416Y-88087458D02*
X174798320Y-87935077D01*
X174798320Y-87935077D02*
X174798320Y-87744601D01*
X174798320Y-87744601D02*
X174836416Y-87592220D01*
X174836416Y-87592220D02*
X174874511Y-87516029D01*
X174874511Y-87516029D02*
X174912606Y-87477934D01*
X174912606Y-87477934D02*
X174988797Y-87439839D01*
X175750702Y-87439839D02*
X175826892Y-87439839D01*
X175826892Y-87439839D02*
X175903083Y-87477934D01*
X175903083Y-87477934D02*
X175941178Y-87516029D01*
X175941178Y-87516029D02*
X175979273Y-87592220D01*
X175979273Y-87592220D02*
X176017368Y-87744601D01*
X176017368Y-87744601D02*
X176017368Y-87935077D01*
X176017368Y-87935077D02*
X175979273Y-88087458D01*
X175979273Y-88087458D02*
X175941178Y-88163648D01*
X175941178Y-88163648D02*
X175903083Y-88201744D01*
X175903083Y-88201744D02*
X175826892Y-88239839D01*
X175826892Y-88239839D02*
X175750702Y-88239839D01*
X175750702Y-88239839D02*
X175674511Y-88201744D01*
X175674511Y-88201744D02*
X175636416Y-88163648D01*
X175636416Y-88163648D02*
X175598321Y-88087458D01*
X175598321Y-88087458D02*
X175560225Y-87935077D01*
X175560225Y-87935077D02*
X175560225Y-87744601D01*
X175560225Y-87744601D02*
X175598321Y-87592220D01*
X175598321Y-87592220D02*
X175636416Y-87516029D01*
X175636416Y-87516029D02*
X175674511Y-87477934D01*
X175674511Y-87477934D02*
X175750702Y-87439839D01*
X176474511Y-87782696D02*
X176398321Y-87744601D01*
X176398321Y-87744601D02*
X176360226Y-87706505D01*
X176360226Y-87706505D02*
X176322130Y-87630315D01*
X176322130Y-87630315D02*
X176322130Y-87592220D01*
X176322130Y-87592220D02*
X176360226Y-87516029D01*
X176360226Y-87516029D02*
X176398321Y-87477934D01*
X176398321Y-87477934D02*
X176474511Y-87439839D01*
X176474511Y-87439839D02*
X176626892Y-87439839D01*
X176626892Y-87439839D02*
X176703083Y-87477934D01*
X176703083Y-87477934D02*
X176741178Y-87516029D01*
X176741178Y-87516029D02*
X176779273Y-87592220D01*
X176779273Y-87592220D02*
X176779273Y-87630315D01*
X176779273Y-87630315D02*
X176741178Y-87706505D01*
X176741178Y-87706505D02*
X176703083Y-87744601D01*
X176703083Y-87744601D02*
X176626892Y-87782696D01*
X176626892Y-87782696D02*
X176474511Y-87782696D01*
X176474511Y-87782696D02*
X176398321Y-87820791D01*
X176398321Y-87820791D02*
X176360226Y-87858886D01*
X176360226Y-87858886D02*
X176322130Y-87935077D01*
X176322130Y-87935077D02*
X176322130Y-88087458D01*
X176322130Y-88087458D02*
X176360226Y-88163648D01*
X176360226Y-88163648D02*
X176398321Y-88201744D01*
X176398321Y-88201744D02*
X176474511Y-88239839D01*
X176474511Y-88239839D02*
X176626892Y-88239839D01*
X176626892Y-88239839D02*
X176703083Y-88201744D01*
X176703083Y-88201744D02*
X176741178Y-88163648D01*
X176741178Y-88163648D02*
X176779273Y-88087458D01*
X176779273Y-88087458D02*
X176779273Y-87935077D01*
X176779273Y-87935077D02*
X176741178Y-87858886D01*
X176741178Y-87858886D02*
X176703083Y-87820791D01*
X176703083Y-87820791D02*
X176626892Y-87782696D01*
X163647749Y-92589839D02*
X163914416Y-93389839D01*
X163914416Y-93389839D02*
X164181082Y-92589839D01*
X164904892Y-93313648D02*
X164866796Y-93351744D01*
X164866796Y-93351744D02*
X164752511Y-93389839D01*
X164752511Y-93389839D02*
X164676320Y-93389839D01*
X164676320Y-93389839D02*
X164562034Y-93351744D01*
X164562034Y-93351744D02*
X164485844Y-93275553D01*
X164485844Y-93275553D02*
X164447749Y-93199363D01*
X164447749Y-93199363D02*
X164409653Y-93046982D01*
X164409653Y-93046982D02*
X164409653Y-92932696D01*
X164409653Y-92932696D02*
X164447749Y-92780315D01*
X164447749Y-92780315D02*
X164485844Y-92704124D01*
X164485844Y-92704124D02*
X164562034Y-92627934D01*
X164562034Y-92627934D02*
X164676320Y-92589839D01*
X164676320Y-92589839D02*
X164752511Y-92589839D01*
X164752511Y-92589839D02*
X164866796Y-92627934D01*
X164866796Y-92627934D02*
X164904892Y-92666029D01*
X165704892Y-93313648D02*
X165666796Y-93351744D01*
X165666796Y-93351744D02*
X165552511Y-93389839D01*
X165552511Y-93389839D02*
X165476320Y-93389839D01*
X165476320Y-93389839D02*
X165362034Y-93351744D01*
X165362034Y-93351744D02*
X165285844Y-93275553D01*
X165285844Y-93275553D02*
X165247749Y-93199363D01*
X165247749Y-93199363D02*
X165209653Y-93046982D01*
X165209653Y-93046982D02*
X165209653Y-92932696D01*
X165209653Y-92932696D02*
X165247749Y-92780315D01*
X165247749Y-92780315D02*
X165285844Y-92704124D01*
X165285844Y-92704124D02*
X165362034Y-92627934D01*
X165362034Y-92627934D02*
X165476320Y-92589839D01*
X165476320Y-92589839D02*
X165552511Y-92589839D01*
X165552511Y-92589839D02*
X165666796Y-92627934D01*
X165666796Y-92627934D02*
X165704892Y-92666029D01*
X175255463Y-111169839D02*
X174798320Y-111169839D01*
X175026892Y-111169839D02*
X175026892Y-110369839D01*
X175026892Y-110369839D02*
X174950701Y-110484124D01*
X174950701Y-110484124D02*
X174874511Y-110560315D01*
X174874511Y-110560315D02*
X174798320Y-110598410D01*
X175750702Y-110369839D02*
X175826892Y-110369839D01*
X175826892Y-110369839D02*
X175903083Y-110407934D01*
X175903083Y-110407934D02*
X175941178Y-110446029D01*
X175941178Y-110446029D02*
X175979273Y-110522220D01*
X175979273Y-110522220D02*
X176017368Y-110674601D01*
X176017368Y-110674601D02*
X176017368Y-110865077D01*
X176017368Y-110865077D02*
X175979273Y-111017458D01*
X175979273Y-111017458D02*
X175941178Y-111093648D01*
X175941178Y-111093648D02*
X175903083Y-111131744D01*
X175903083Y-111131744D02*
X175826892Y-111169839D01*
X175826892Y-111169839D02*
X175750702Y-111169839D01*
X175750702Y-111169839D02*
X175674511Y-111131744D01*
X175674511Y-111131744D02*
X175636416Y-111093648D01*
X175636416Y-111093648D02*
X175598321Y-111017458D01*
X175598321Y-111017458D02*
X175560225Y-110865077D01*
X175560225Y-110865077D02*
X175560225Y-110674601D01*
X175560225Y-110674601D02*
X175598321Y-110522220D01*
X175598321Y-110522220D02*
X175636416Y-110446029D01*
X175636416Y-110446029D02*
X175674511Y-110407934D01*
X175674511Y-110407934D02*
X175750702Y-110369839D01*
X176703083Y-110636505D02*
X176703083Y-111169839D01*
X176512607Y-110331744D02*
X176322130Y-110903172D01*
X176322130Y-110903172D02*
X176817369Y-110903172D01*
X164225511Y-85769839D02*
X163958844Y-85388886D01*
X163768368Y-85769839D02*
X163768368Y-84969839D01*
X163768368Y-84969839D02*
X164073130Y-84969839D01*
X164073130Y-84969839D02*
X164149320Y-85007934D01*
X164149320Y-85007934D02*
X164187415Y-85046029D01*
X164187415Y-85046029D02*
X164225511Y-85122220D01*
X164225511Y-85122220D02*
X164225511Y-85236505D01*
X164225511Y-85236505D02*
X164187415Y-85312696D01*
X164187415Y-85312696D02*
X164149320Y-85350791D01*
X164149320Y-85350791D02*
X164073130Y-85388886D01*
X164073130Y-85388886D02*
X163768368Y-85388886D01*
X164530272Y-85541267D02*
X164911225Y-85541267D01*
X164454082Y-85769839D02*
X164720749Y-84969839D01*
X164720749Y-84969839D02*
X164987415Y-85769839D01*
X165177891Y-84969839D02*
X165368367Y-85769839D01*
X165368367Y-85769839D02*
X165520748Y-85198410D01*
X165520748Y-85198410D02*
X165673129Y-85769839D01*
X165673129Y-85769839D02*
X165863606Y-84969839D01*
X164181082Y-103549839D02*
X163723939Y-103549839D01*
X163952511Y-103549839D02*
X163952511Y-102749839D01*
X163952511Y-102749839D02*
X163876320Y-102864124D01*
X163876320Y-102864124D02*
X163800130Y-102940315D01*
X163800130Y-102940315D02*
X163723939Y-102978410D01*
X164942987Y-103549839D02*
X164485844Y-103549839D01*
X164714416Y-103549839D02*
X164714416Y-102749839D01*
X164714416Y-102749839D02*
X164638225Y-102864124D01*
X164638225Y-102864124D02*
X164562035Y-102940315D01*
X164562035Y-102940315D02*
X164485844Y-102978410D01*
X165666797Y-102749839D02*
X165285845Y-102749839D01*
X165285845Y-102749839D02*
X165247749Y-103130791D01*
X165247749Y-103130791D02*
X165285845Y-103092696D01*
X165285845Y-103092696D02*
X165362035Y-103054601D01*
X165362035Y-103054601D02*
X165552511Y-103054601D01*
X165552511Y-103054601D02*
X165628702Y-103092696D01*
X165628702Y-103092696D02*
X165666797Y-103130791D01*
X165666797Y-103130791D02*
X165704892Y-103206982D01*
X165704892Y-103206982D02*
X165704892Y-103397458D01*
X165704892Y-103397458D02*
X165666797Y-103473648D01*
X165666797Y-103473648D02*
X165628702Y-103511744D01*
X165628702Y-103511744D02*
X165552511Y-103549839D01*
X165552511Y-103549839D02*
X165362035Y-103549839D01*
X165362035Y-103549839D02*
X165285845Y-103511744D01*
X165285845Y-103511744D02*
X165247749Y-103473648D01*
X175103083Y-90087934D02*
X175026893Y-90049839D01*
X175026893Y-90049839D02*
X174912607Y-90049839D01*
X174912607Y-90049839D02*
X174798321Y-90087934D01*
X174798321Y-90087934D02*
X174722131Y-90164124D01*
X174722131Y-90164124D02*
X174684036Y-90240315D01*
X174684036Y-90240315D02*
X174645940Y-90392696D01*
X174645940Y-90392696D02*
X174645940Y-90506982D01*
X174645940Y-90506982D02*
X174684036Y-90659363D01*
X174684036Y-90659363D02*
X174722131Y-90735553D01*
X174722131Y-90735553D02*
X174798321Y-90811744D01*
X174798321Y-90811744D02*
X174912607Y-90849839D01*
X174912607Y-90849839D02*
X174988798Y-90849839D01*
X174988798Y-90849839D02*
X175103083Y-90811744D01*
X175103083Y-90811744D02*
X175141179Y-90773648D01*
X175141179Y-90773648D02*
X175141179Y-90506982D01*
X175141179Y-90506982D02*
X174988798Y-90506982D01*
X175484036Y-90849839D02*
X175484036Y-90049839D01*
X175484036Y-90049839D02*
X175941179Y-90849839D01*
X175941179Y-90849839D02*
X175941179Y-90049839D01*
X176322131Y-90849839D02*
X176322131Y-90049839D01*
X176322131Y-90049839D02*
X176512607Y-90049839D01*
X176512607Y-90049839D02*
X176626893Y-90087934D01*
X176626893Y-90087934D02*
X176703083Y-90164124D01*
X176703083Y-90164124D02*
X176741178Y-90240315D01*
X176741178Y-90240315D02*
X176779274Y-90392696D01*
X176779274Y-90392696D02*
X176779274Y-90506982D01*
X176779274Y-90506982D02*
X176741178Y-90659363D01*
X176741178Y-90659363D02*
X176703083Y-90735553D01*
X176703083Y-90735553D02*
X176626893Y-90811744D01*
X176626893Y-90811744D02*
X176512607Y-90849839D01*
X176512607Y-90849839D02*
X176322131Y-90849839D01*
X174988797Y-95129839D02*
X175064987Y-95129839D01*
X175064987Y-95129839D02*
X175141178Y-95167934D01*
X175141178Y-95167934D02*
X175179273Y-95206029D01*
X175179273Y-95206029D02*
X175217368Y-95282220D01*
X175217368Y-95282220D02*
X175255463Y-95434601D01*
X175255463Y-95434601D02*
X175255463Y-95625077D01*
X175255463Y-95625077D02*
X175217368Y-95777458D01*
X175217368Y-95777458D02*
X175179273Y-95853648D01*
X175179273Y-95853648D02*
X175141178Y-95891744D01*
X175141178Y-95891744D02*
X175064987Y-95929839D01*
X175064987Y-95929839D02*
X174988797Y-95929839D01*
X174988797Y-95929839D02*
X174912606Y-95891744D01*
X174912606Y-95891744D02*
X174874511Y-95853648D01*
X174874511Y-95853648D02*
X174836416Y-95777458D01*
X174836416Y-95777458D02*
X174798320Y-95625077D01*
X174798320Y-95625077D02*
X174798320Y-95434601D01*
X174798320Y-95434601D02*
X174836416Y-95282220D01*
X174836416Y-95282220D02*
X174874511Y-95206029D01*
X174874511Y-95206029D02*
X174912606Y-95167934D01*
X174912606Y-95167934D02*
X174988797Y-95129839D01*
X176017368Y-95929839D02*
X175560225Y-95929839D01*
X175788797Y-95929839D02*
X175788797Y-95129839D01*
X175788797Y-95129839D02*
X175712606Y-95244124D01*
X175712606Y-95244124D02*
X175636416Y-95320315D01*
X175636416Y-95320315D02*
X175560225Y-95358410D01*
X176284035Y-95129839D02*
X176817369Y-95129839D01*
X176817369Y-95129839D02*
X176474511Y-95929839D01*
X174988797Y-102739839D02*
X175064987Y-102739839D01*
X175064987Y-102739839D02*
X175141178Y-102777934D01*
X175141178Y-102777934D02*
X175179273Y-102816029D01*
X175179273Y-102816029D02*
X175217368Y-102892220D01*
X175217368Y-102892220D02*
X175255463Y-103044601D01*
X175255463Y-103044601D02*
X175255463Y-103235077D01*
X175255463Y-103235077D02*
X175217368Y-103387458D01*
X175217368Y-103387458D02*
X175179273Y-103463648D01*
X175179273Y-103463648D02*
X175141178Y-103501744D01*
X175141178Y-103501744D02*
X175064987Y-103539839D01*
X175064987Y-103539839D02*
X174988797Y-103539839D01*
X174988797Y-103539839D02*
X174912606Y-103501744D01*
X174912606Y-103501744D02*
X174874511Y-103463648D01*
X174874511Y-103463648D02*
X174836416Y-103387458D01*
X174836416Y-103387458D02*
X174798320Y-103235077D01*
X174798320Y-103235077D02*
X174798320Y-103044601D01*
X174798320Y-103044601D02*
X174836416Y-102892220D01*
X174836416Y-102892220D02*
X174874511Y-102816029D01*
X174874511Y-102816029D02*
X174912606Y-102777934D01*
X174912606Y-102777934D02*
X174988797Y-102739839D01*
X175560225Y-102816029D02*
X175598321Y-102777934D01*
X175598321Y-102777934D02*
X175674511Y-102739839D01*
X175674511Y-102739839D02*
X175864987Y-102739839D01*
X175864987Y-102739839D02*
X175941178Y-102777934D01*
X175941178Y-102777934D02*
X175979273Y-102816029D01*
X175979273Y-102816029D02*
X176017368Y-102892220D01*
X176017368Y-102892220D02*
X176017368Y-102968410D01*
X176017368Y-102968410D02*
X175979273Y-103082696D01*
X175979273Y-103082696D02*
X175522130Y-103539839D01*
X175522130Y-103539839D02*
X176017368Y-103539839D01*
X176703083Y-103006505D02*
X176703083Y-103539839D01*
X176512607Y-102701744D02*
X176322130Y-103273172D01*
X176322130Y-103273172D02*
X176817369Y-103273172D01*
X164181082Y-106089839D02*
X163723939Y-106089839D01*
X163952511Y-106089839D02*
X163952511Y-105289839D01*
X163952511Y-105289839D02*
X163876320Y-105404124D01*
X163876320Y-105404124D02*
X163800130Y-105480315D01*
X163800130Y-105480315D02*
X163723939Y-105518410D01*
X164942987Y-106089839D02*
X164485844Y-106089839D01*
X164714416Y-106089839D02*
X164714416Y-105289839D01*
X164714416Y-105289839D02*
X164638225Y-105404124D01*
X164638225Y-105404124D02*
X164562035Y-105480315D01*
X164562035Y-105480315D02*
X164485844Y-105518410D01*
X165209654Y-105289839D02*
X165704892Y-105289839D01*
X165704892Y-105289839D02*
X165438226Y-105594601D01*
X165438226Y-105594601D02*
X165552511Y-105594601D01*
X165552511Y-105594601D02*
X165628702Y-105632696D01*
X165628702Y-105632696D02*
X165666797Y-105670791D01*
X165666797Y-105670791D02*
X165704892Y-105746982D01*
X165704892Y-105746982D02*
X165704892Y-105937458D01*
X165704892Y-105937458D02*
X165666797Y-106013648D01*
X165666797Y-106013648D02*
X165628702Y-106051744D01*
X165628702Y-106051744D02*
X165552511Y-106089839D01*
X165552511Y-106089839D02*
X165323940Y-106089839D01*
X165323940Y-106089839D02*
X165247749Y-106051744D01*
X165247749Y-106051744D02*
X165209654Y-106013648D01*
X164225512Y-90849839D02*
X163958845Y-90468886D01*
X163768369Y-90849839D02*
X163768369Y-90049839D01*
X163768369Y-90049839D02*
X164073131Y-90049839D01*
X164073131Y-90049839D02*
X164149321Y-90087934D01*
X164149321Y-90087934D02*
X164187416Y-90126029D01*
X164187416Y-90126029D02*
X164225512Y-90202220D01*
X164225512Y-90202220D02*
X164225512Y-90316505D01*
X164225512Y-90316505D02*
X164187416Y-90392696D01*
X164187416Y-90392696D02*
X164149321Y-90430791D01*
X164149321Y-90430791D02*
X164073131Y-90468886D01*
X164073131Y-90468886D02*
X163768369Y-90468886D01*
X164530273Y-90811744D02*
X164644559Y-90849839D01*
X164644559Y-90849839D02*
X164835035Y-90849839D01*
X164835035Y-90849839D02*
X164911226Y-90811744D01*
X164911226Y-90811744D02*
X164949321Y-90773648D01*
X164949321Y-90773648D02*
X164987416Y-90697458D01*
X164987416Y-90697458D02*
X164987416Y-90621267D01*
X164987416Y-90621267D02*
X164949321Y-90545077D01*
X164949321Y-90545077D02*
X164911226Y-90506982D01*
X164911226Y-90506982D02*
X164835035Y-90468886D01*
X164835035Y-90468886D02*
X164682654Y-90430791D01*
X164682654Y-90430791D02*
X164606464Y-90392696D01*
X164606464Y-90392696D02*
X164568369Y-90354601D01*
X164568369Y-90354601D02*
X164530273Y-90278410D01*
X164530273Y-90278410D02*
X164530273Y-90202220D01*
X164530273Y-90202220D02*
X164568369Y-90126029D01*
X164568369Y-90126029D02*
X164606464Y-90087934D01*
X164606464Y-90087934D02*
X164682654Y-90049839D01*
X164682654Y-90049839D02*
X164873131Y-90049839D01*
X164873131Y-90049839D02*
X164987416Y-90087934D01*
X165215988Y-90049839D02*
X165673131Y-90049839D01*
X165444559Y-90849839D02*
X165444559Y-90049839D01*
X175255463Y-106089839D02*
X174798320Y-106089839D01*
X175026892Y-106089839D02*
X175026892Y-105289839D01*
X175026892Y-105289839D02*
X174950701Y-105404124D01*
X174950701Y-105404124D02*
X174874511Y-105480315D01*
X174874511Y-105480315D02*
X174798320Y-105518410D01*
X175750702Y-105289839D02*
X175826892Y-105289839D01*
X175826892Y-105289839D02*
X175903083Y-105327934D01*
X175903083Y-105327934D02*
X175941178Y-105366029D01*
X175941178Y-105366029D02*
X175979273Y-105442220D01*
X175979273Y-105442220D02*
X176017368Y-105594601D01*
X176017368Y-105594601D02*
X176017368Y-105785077D01*
X176017368Y-105785077D02*
X175979273Y-105937458D01*
X175979273Y-105937458D02*
X175941178Y-106013648D01*
X175941178Y-106013648D02*
X175903083Y-106051744D01*
X175903083Y-106051744D02*
X175826892Y-106089839D01*
X175826892Y-106089839D02*
X175750702Y-106089839D01*
X175750702Y-106089839D02*
X175674511Y-106051744D01*
X175674511Y-106051744D02*
X175636416Y-106013648D01*
X175636416Y-106013648D02*
X175598321Y-105937458D01*
X175598321Y-105937458D02*
X175560225Y-105785077D01*
X175560225Y-105785077D02*
X175560225Y-105594601D01*
X175560225Y-105594601D02*
X175598321Y-105442220D01*
X175598321Y-105442220D02*
X175636416Y-105366029D01*
X175636416Y-105366029D02*
X175674511Y-105327934D01*
X175674511Y-105327934D02*
X175750702Y-105289839D01*
X176512607Y-105289839D02*
X176588797Y-105289839D01*
X176588797Y-105289839D02*
X176664988Y-105327934D01*
X176664988Y-105327934D02*
X176703083Y-105366029D01*
X176703083Y-105366029D02*
X176741178Y-105442220D01*
X176741178Y-105442220D02*
X176779273Y-105594601D01*
X176779273Y-105594601D02*
X176779273Y-105785077D01*
X176779273Y-105785077D02*
X176741178Y-105937458D01*
X176741178Y-105937458D02*
X176703083Y-106013648D01*
X176703083Y-106013648D02*
X176664988Y-106051744D01*
X176664988Y-106051744D02*
X176588797Y-106089839D01*
X176588797Y-106089839D02*
X176512607Y-106089839D01*
X176512607Y-106089839D02*
X176436416Y-106051744D01*
X176436416Y-106051744D02*
X176398321Y-106013648D01*
X176398321Y-106013648D02*
X176360226Y-105937458D01*
X176360226Y-105937458D02*
X176322130Y-105785077D01*
X176322130Y-105785077D02*
X176322130Y-105594601D01*
X176322130Y-105594601D02*
X176360226Y-105442220D01*
X176360226Y-105442220D02*
X176398321Y-105366029D01*
X176398321Y-105366029D02*
X176436416Y-105327934D01*
X176436416Y-105327934D02*
X176512607Y-105289839D01*
X164181082Y-108629839D02*
X163723939Y-108629839D01*
X163952511Y-108629839D02*
X163952511Y-107829839D01*
X163952511Y-107829839D02*
X163876320Y-107944124D01*
X163876320Y-107944124D02*
X163800130Y-108020315D01*
X163800130Y-108020315D02*
X163723939Y-108058410D01*
X164942987Y-108629839D02*
X164485844Y-108629839D01*
X164714416Y-108629839D02*
X164714416Y-107829839D01*
X164714416Y-107829839D02*
X164638225Y-107944124D01*
X164638225Y-107944124D02*
X164562035Y-108020315D01*
X164562035Y-108020315D02*
X164485844Y-108058410D01*
X165704892Y-108629839D02*
X165247749Y-108629839D01*
X165476321Y-108629839D02*
X165476321Y-107829839D01*
X165476321Y-107829839D02*
X165400130Y-107944124D01*
X165400130Y-107944124D02*
X165323940Y-108020315D01*
X165323940Y-108020315D02*
X165247749Y-108058410D01*
X163914416Y-110369839D02*
X163990606Y-110369839D01*
X163990606Y-110369839D02*
X164066797Y-110407934D01*
X164066797Y-110407934D02*
X164104892Y-110446029D01*
X164104892Y-110446029D02*
X164142987Y-110522220D01*
X164142987Y-110522220D02*
X164181082Y-110674601D01*
X164181082Y-110674601D02*
X164181082Y-110865077D01*
X164181082Y-110865077D02*
X164142987Y-111017458D01*
X164142987Y-111017458D02*
X164104892Y-111093648D01*
X164104892Y-111093648D02*
X164066797Y-111131744D01*
X164066797Y-111131744D02*
X163990606Y-111169839D01*
X163990606Y-111169839D02*
X163914416Y-111169839D01*
X163914416Y-111169839D02*
X163838225Y-111131744D01*
X163838225Y-111131744D02*
X163800130Y-111093648D01*
X163800130Y-111093648D02*
X163762035Y-111017458D01*
X163762035Y-111017458D02*
X163723939Y-110865077D01*
X163723939Y-110865077D02*
X163723939Y-110674601D01*
X163723939Y-110674601D02*
X163762035Y-110522220D01*
X163762035Y-110522220D02*
X163800130Y-110446029D01*
X163800130Y-110446029D02*
X163838225Y-110407934D01*
X163838225Y-110407934D02*
X163914416Y-110369839D01*
X164942987Y-111169839D02*
X164485844Y-111169839D01*
X164714416Y-111169839D02*
X164714416Y-110369839D01*
X164714416Y-110369839D02*
X164638225Y-110484124D01*
X164638225Y-110484124D02*
X164562035Y-110560315D01*
X164562035Y-110560315D02*
X164485844Y-110598410D01*
X165438226Y-110369839D02*
X165514416Y-110369839D01*
X165514416Y-110369839D02*
X165590607Y-110407934D01*
X165590607Y-110407934D02*
X165628702Y-110446029D01*
X165628702Y-110446029D02*
X165666797Y-110522220D01*
X165666797Y-110522220D02*
X165704892Y-110674601D01*
X165704892Y-110674601D02*
X165704892Y-110865077D01*
X165704892Y-110865077D02*
X165666797Y-111017458D01*
X165666797Y-111017458D02*
X165628702Y-111093648D01*
X165628702Y-111093648D02*
X165590607Y-111131744D01*
X165590607Y-111131744D02*
X165514416Y-111169839D01*
X165514416Y-111169839D02*
X165438226Y-111169839D01*
X165438226Y-111169839D02*
X165362035Y-111131744D01*
X165362035Y-111131744D02*
X165323940Y-111093648D01*
X165323940Y-111093648D02*
X165285845Y-111017458D01*
X165285845Y-111017458D02*
X165247749Y-110865077D01*
X165247749Y-110865077D02*
X165247749Y-110674601D01*
X165247749Y-110674601D02*
X165285845Y-110522220D01*
X165285845Y-110522220D02*
X165323940Y-110446029D01*
X165323940Y-110446029D02*
X165362035Y-110407934D01*
X165362035Y-110407934D02*
X165438226Y-110369839D01*
X174988797Y-97739839D02*
X175064987Y-97739839D01*
X175064987Y-97739839D02*
X175141178Y-97777934D01*
X175141178Y-97777934D02*
X175179273Y-97816029D01*
X175179273Y-97816029D02*
X175217368Y-97892220D01*
X175217368Y-97892220D02*
X175255463Y-98044601D01*
X175255463Y-98044601D02*
X175255463Y-98235077D01*
X175255463Y-98235077D02*
X175217368Y-98387458D01*
X175217368Y-98387458D02*
X175179273Y-98463648D01*
X175179273Y-98463648D02*
X175141178Y-98501744D01*
X175141178Y-98501744D02*
X175064987Y-98539839D01*
X175064987Y-98539839D02*
X174988797Y-98539839D01*
X174988797Y-98539839D02*
X174912606Y-98501744D01*
X174912606Y-98501744D02*
X174874511Y-98463648D01*
X174874511Y-98463648D02*
X174836416Y-98387458D01*
X174836416Y-98387458D02*
X174798320Y-98235077D01*
X174798320Y-98235077D02*
X174798320Y-98044601D01*
X174798320Y-98044601D02*
X174836416Y-97892220D01*
X174836416Y-97892220D02*
X174874511Y-97816029D01*
X174874511Y-97816029D02*
X174912606Y-97777934D01*
X174912606Y-97777934D02*
X174988797Y-97739839D01*
X175560225Y-97816029D02*
X175598321Y-97777934D01*
X175598321Y-97777934D02*
X175674511Y-97739839D01*
X175674511Y-97739839D02*
X175864987Y-97739839D01*
X175864987Y-97739839D02*
X175941178Y-97777934D01*
X175941178Y-97777934D02*
X175979273Y-97816029D01*
X175979273Y-97816029D02*
X176017368Y-97892220D01*
X176017368Y-97892220D02*
X176017368Y-97968410D01*
X176017368Y-97968410D02*
X175979273Y-98082696D01*
X175979273Y-98082696D02*
X175522130Y-98539839D01*
X175522130Y-98539839D02*
X176017368Y-98539839D01*
X176512607Y-97739839D02*
X176588797Y-97739839D01*
X176588797Y-97739839D02*
X176664988Y-97777934D01*
X176664988Y-97777934D02*
X176703083Y-97816029D01*
X176703083Y-97816029D02*
X176741178Y-97892220D01*
X176741178Y-97892220D02*
X176779273Y-98044601D01*
X176779273Y-98044601D02*
X176779273Y-98235077D01*
X176779273Y-98235077D02*
X176741178Y-98387458D01*
X176741178Y-98387458D02*
X176703083Y-98463648D01*
X176703083Y-98463648D02*
X176664988Y-98501744D01*
X176664988Y-98501744D02*
X176588797Y-98539839D01*
X176588797Y-98539839D02*
X176512607Y-98539839D01*
X176512607Y-98539839D02*
X176436416Y-98501744D01*
X176436416Y-98501744D02*
X176398321Y-98463648D01*
X176398321Y-98463648D02*
X176360226Y-98387458D01*
X176360226Y-98387458D02*
X176322130Y-98235077D01*
X176322130Y-98235077D02*
X176322130Y-98044601D01*
X176322130Y-98044601D02*
X176360226Y-97892220D01*
X176360226Y-97892220D02*
X176398321Y-97816029D01*
X176398321Y-97816029D02*
X176436416Y-97777934D01*
X176436416Y-97777934D02*
X176512607Y-97739839D01*
X174988797Y-100239839D02*
X175064987Y-100239839D01*
X175064987Y-100239839D02*
X175141178Y-100277934D01*
X175141178Y-100277934D02*
X175179273Y-100316029D01*
X175179273Y-100316029D02*
X175217368Y-100392220D01*
X175217368Y-100392220D02*
X175255463Y-100544601D01*
X175255463Y-100544601D02*
X175255463Y-100735077D01*
X175255463Y-100735077D02*
X175217368Y-100887458D01*
X175217368Y-100887458D02*
X175179273Y-100963648D01*
X175179273Y-100963648D02*
X175141178Y-101001744D01*
X175141178Y-101001744D02*
X175064987Y-101039839D01*
X175064987Y-101039839D02*
X174988797Y-101039839D01*
X174988797Y-101039839D02*
X174912606Y-101001744D01*
X174912606Y-101001744D02*
X174874511Y-100963648D01*
X174874511Y-100963648D02*
X174836416Y-100887458D01*
X174836416Y-100887458D02*
X174798320Y-100735077D01*
X174798320Y-100735077D02*
X174798320Y-100544601D01*
X174798320Y-100544601D02*
X174836416Y-100392220D01*
X174836416Y-100392220D02*
X174874511Y-100316029D01*
X174874511Y-100316029D02*
X174912606Y-100277934D01*
X174912606Y-100277934D02*
X174988797Y-100239839D01*
X175560225Y-100316029D02*
X175598321Y-100277934D01*
X175598321Y-100277934D02*
X175674511Y-100239839D01*
X175674511Y-100239839D02*
X175864987Y-100239839D01*
X175864987Y-100239839D02*
X175941178Y-100277934D01*
X175941178Y-100277934D02*
X175979273Y-100316029D01*
X175979273Y-100316029D02*
X176017368Y-100392220D01*
X176017368Y-100392220D02*
X176017368Y-100468410D01*
X176017368Y-100468410D02*
X175979273Y-100582696D01*
X175979273Y-100582696D02*
X175522130Y-101039839D01*
X175522130Y-101039839D02*
X176017368Y-101039839D01*
X176322130Y-100316029D02*
X176360226Y-100277934D01*
X176360226Y-100277934D02*
X176436416Y-100239839D01*
X176436416Y-100239839D02*
X176626892Y-100239839D01*
X176626892Y-100239839D02*
X176703083Y-100277934D01*
X176703083Y-100277934D02*
X176741178Y-100316029D01*
X176741178Y-100316029D02*
X176779273Y-100392220D01*
X176779273Y-100392220D02*
X176779273Y-100468410D01*
X176779273Y-100468410D02*
X176741178Y-100582696D01*
X176741178Y-100582696D02*
X176284035Y-101039839D01*
X176284035Y-101039839D02*
X176779273Y-101039839D01*
X163914416Y-95129839D02*
X163990606Y-95129839D01*
X163990606Y-95129839D02*
X164066797Y-95167934D01*
X164066797Y-95167934D02*
X164104892Y-95206029D01*
X164104892Y-95206029D02*
X164142987Y-95282220D01*
X164142987Y-95282220D02*
X164181082Y-95434601D01*
X164181082Y-95434601D02*
X164181082Y-95625077D01*
X164181082Y-95625077D02*
X164142987Y-95777458D01*
X164142987Y-95777458D02*
X164104892Y-95853648D01*
X164104892Y-95853648D02*
X164066797Y-95891744D01*
X164066797Y-95891744D02*
X163990606Y-95929839D01*
X163990606Y-95929839D02*
X163914416Y-95929839D01*
X163914416Y-95929839D02*
X163838225Y-95891744D01*
X163838225Y-95891744D02*
X163800130Y-95853648D01*
X163800130Y-95853648D02*
X163762035Y-95777458D01*
X163762035Y-95777458D02*
X163723939Y-95625077D01*
X163723939Y-95625077D02*
X163723939Y-95434601D01*
X163723939Y-95434601D02*
X163762035Y-95282220D01*
X163762035Y-95282220D02*
X163800130Y-95206029D01*
X163800130Y-95206029D02*
X163838225Y-95167934D01*
X163838225Y-95167934D02*
X163914416Y-95129839D01*
X164447749Y-95129839D02*
X164942987Y-95129839D01*
X164942987Y-95129839D02*
X164676321Y-95434601D01*
X164676321Y-95434601D02*
X164790606Y-95434601D01*
X164790606Y-95434601D02*
X164866797Y-95472696D01*
X164866797Y-95472696D02*
X164904892Y-95510791D01*
X164904892Y-95510791D02*
X164942987Y-95586982D01*
X164942987Y-95586982D02*
X164942987Y-95777458D01*
X164942987Y-95777458D02*
X164904892Y-95853648D01*
X164904892Y-95853648D02*
X164866797Y-95891744D01*
X164866797Y-95891744D02*
X164790606Y-95929839D01*
X164790606Y-95929839D02*
X164562035Y-95929839D01*
X164562035Y-95929839D02*
X164485844Y-95891744D01*
X164485844Y-95891744D02*
X164447749Y-95853648D01*
X165704892Y-95929839D02*
X165247749Y-95929839D01*
X165476321Y-95929839D02*
X165476321Y-95129839D01*
X165476321Y-95129839D02*
X165400130Y-95244124D01*
X165400130Y-95244124D02*
X165323940Y-95320315D01*
X165323940Y-95320315D02*
X165247749Y-95358410D01*
X175103083Y-92627934D02*
X175026893Y-92589839D01*
X175026893Y-92589839D02*
X174912607Y-92589839D01*
X174912607Y-92589839D02*
X174798321Y-92627934D01*
X174798321Y-92627934D02*
X174722131Y-92704124D01*
X174722131Y-92704124D02*
X174684036Y-92780315D01*
X174684036Y-92780315D02*
X174645940Y-92932696D01*
X174645940Y-92932696D02*
X174645940Y-93046982D01*
X174645940Y-93046982D02*
X174684036Y-93199363D01*
X174684036Y-93199363D02*
X174722131Y-93275553D01*
X174722131Y-93275553D02*
X174798321Y-93351744D01*
X174798321Y-93351744D02*
X174912607Y-93389839D01*
X174912607Y-93389839D02*
X174988798Y-93389839D01*
X174988798Y-93389839D02*
X175103083Y-93351744D01*
X175103083Y-93351744D02*
X175141179Y-93313648D01*
X175141179Y-93313648D02*
X175141179Y-93046982D01*
X175141179Y-93046982D02*
X174988798Y-93046982D01*
X175484036Y-93389839D02*
X175484036Y-92589839D01*
X175484036Y-92589839D02*
X175941179Y-93389839D01*
X175941179Y-93389839D02*
X175941179Y-92589839D01*
X176322131Y-93389839D02*
X176322131Y-92589839D01*
X176322131Y-92589839D02*
X176512607Y-92589839D01*
X176512607Y-92589839D02*
X176626893Y-92627934D01*
X176626893Y-92627934D02*
X176703083Y-92704124D01*
X176703083Y-92704124D02*
X176741178Y-92780315D01*
X176741178Y-92780315D02*
X176779274Y-92932696D01*
X176779274Y-92932696D02*
X176779274Y-93046982D01*
X176779274Y-93046982D02*
X176741178Y-93199363D01*
X176741178Y-93199363D02*
X176703083Y-93275553D01*
X176703083Y-93275553D02*
X176626893Y-93351744D01*
X176626893Y-93351744D02*
X176512607Y-93389839D01*
X176512607Y-93389839D02*
X176322131Y-93389839D01*
X163914416Y-100209839D02*
X163990606Y-100209839D01*
X163990606Y-100209839D02*
X164066797Y-100247934D01*
X164066797Y-100247934D02*
X164104892Y-100286029D01*
X164104892Y-100286029D02*
X164142987Y-100362220D01*
X164142987Y-100362220D02*
X164181082Y-100514601D01*
X164181082Y-100514601D02*
X164181082Y-100705077D01*
X164181082Y-100705077D02*
X164142987Y-100857458D01*
X164142987Y-100857458D02*
X164104892Y-100933648D01*
X164104892Y-100933648D02*
X164066797Y-100971744D01*
X164066797Y-100971744D02*
X163990606Y-101009839D01*
X163990606Y-101009839D02*
X163914416Y-101009839D01*
X163914416Y-101009839D02*
X163838225Y-100971744D01*
X163838225Y-100971744D02*
X163800130Y-100933648D01*
X163800130Y-100933648D02*
X163762035Y-100857458D01*
X163762035Y-100857458D02*
X163723939Y-100705077D01*
X163723939Y-100705077D02*
X163723939Y-100514601D01*
X163723939Y-100514601D02*
X163762035Y-100362220D01*
X163762035Y-100362220D02*
X163800130Y-100286029D01*
X163800130Y-100286029D02*
X163838225Y-100247934D01*
X163838225Y-100247934D02*
X163914416Y-100209839D01*
X164676321Y-100209839D02*
X164752511Y-100209839D01*
X164752511Y-100209839D02*
X164828702Y-100247934D01*
X164828702Y-100247934D02*
X164866797Y-100286029D01*
X164866797Y-100286029D02*
X164904892Y-100362220D01*
X164904892Y-100362220D02*
X164942987Y-100514601D01*
X164942987Y-100514601D02*
X164942987Y-100705077D01*
X164942987Y-100705077D02*
X164904892Y-100857458D01*
X164904892Y-100857458D02*
X164866797Y-100933648D01*
X164866797Y-100933648D02*
X164828702Y-100971744D01*
X164828702Y-100971744D02*
X164752511Y-101009839D01*
X164752511Y-101009839D02*
X164676321Y-101009839D01*
X164676321Y-101009839D02*
X164600130Y-100971744D01*
X164600130Y-100971744D02*
X164562035Y-100933648D01*
X164562035Y-100933648D02*
X164523940Y-100857458D01*
X164523940Y-100857458D02*
X164485844Y-100705077D01*
X164485844Y-100705077D02*
X164485844Y-100514601D01*
X164485844Y-100514601D02*
X164523940Y-100362220D01*
X164523940Y-100362220D02*
X164562035Y-100286029D01*
X164562035Y-100286029D02*
X164600130Y-100247934D01*
X164600130Y-100247934D02*
X164676321Y-100209839D01*
X165247749Y-100286029D02*
X165285845Y-100247934D01*
X165285845Y-100247934D02*
X165362035Y-100209839D01*
X165362035Y-100209839D02*
X165552511Y-100209839D01*
X165552511Y-100209839D02*
X165628702Y-100247934D01*
X165628702Y-100247934D02*
X165666797Y-100286029D01*
X165666797Y-100286029D02*
X165704892Y-100362220D01*
X165704892Y-100362220D02*
X165704892Y-100438410D01*
X165704892Y-100438410D02*
X165666797Y-100552696D01*
X165666797Y-100552696D02*
X165209654Y-101009839D01*
X165209654Y-101009839D02*
X165704892Y-101009839D01*
X163914416Y-97669839D02*
X163990606Y-97669839D01*
X163990606Y-97669839D02*
X164066797Y-97707934D01*
X164066797Y-97707934D02*
X164104892Y-97746029D01*
X164104892Y-97746029D02*
X164142987Y-97822220D01*
X164142987Y-97822220D02*
X164181082Y-97974601D01*
X164181082Y-97974601D02*
X164181082Y-98165077D01*
X164181082Y-98165077D02*
X164142987Y-98317458D01*
X164142987Y-98317458D02*
X164104892Y-98393648D01*
X164104892Y-98393648D02*
X164066797Y-98431744D01*
X164066797Y-98431744D02*
X163990606Y-98469839D01*
X163990606Y-98469839D02*
X163914416Y-98469839D01*
X163914416Y-98469839D02*
X163838225Y-98431744D01*
X163838225Y-98431744D02*
X163800130Y-98393648D01*
X163800130Y-98393648D02*
X163762035Y-98317458D01*
X163762035Y-98317458D02*
X163723939Y-98165077D01*
X163723939Y-98165077D02*
X163723939Y-97974601D01*
X163723939Y-97974601D02*
X163762035Y-97822220D01*
X163762035Y-97822220D02*
X163800130Y-97746029D01*
X163800130Y-97746029D02*
X163838225Y-97707934D01*
X163838225Y-97707934D02*
X163914416Y-97669839D01*
X164485844Y-97746029D02*
X164523940Y-97707934D01*
X164523940Y-97707934D02*
X164600130Y-97669839D01*
X164600130Y-97669839D02*
X164790606Y-97669839D01*
X164790606Y-97669839D02*
X164866797Y-97707934D01*
X164866797Y-97707934D02*
X164904892Y-97746029D01*
X164904892Y-97746029D02*
X164942987Y-97822220D01*
X164942987Y-97822220D02*
X164942987Y-97898410D01*
X164942987Y-97898410D02*
X164904892Y-98012696D01*
X164904892Y-98012696D02*
X164447749Y-98469839D01*
X164447749Y-98469839D02*
X164942987Y-98469839D01*
X165323940Y-98469839D02*
X165476321Y-98469839D01*
X165476321Y-98469839D02*
X165552511Y-98431744D01*
X165552511Y-98431744D02*
X165590607Y-98393648D01*
X165590607Y-98393648D02*
X165666797Y-98279363D01*
X165666797Y-98279363D02*
X165704892Y-98126982D01*
X165704892Y-98126982D02*
X165704892Y-97822220D01*
X165704892Y-97822220D02*
X165666797Y-97746029D01*
X165666797Y-97746029D02*
X165628702Y-97707934D01*
X165628702Y-97707934D02*
X165552511Y-97669839D01*
X165552511Y-97669839D02*
X165400130Y-97669839D01*
X165400130Y-97669839D02*
X165323940Y-97707934D01*
X165323940Y-97707934D02*
X165285845Y-97746029D01*
X165285845Y-97746029D02*
X165247749Y-97822220D01*
X165247749Y-97822220D02*
X165247749Y-98012696D01*
X165247749Y-98012696D02*
X165285845Y-98088886D01*
X165285845Y-98088886D02*
X165323940Y-98126982D01*
X165323940Y-98126982D02*
X165400130Y-98165077D01*
X165400130Y-98165077D02*
X165552511Y-98165077D01*
X165552511Y-98165077D02*
X165628702Y-98126982D01*
X165628702Y-98126982D02*
X165666797Y-98088886D01*
X165666797Y-98088886D02*
X165704892Y-98012696D01*
X164187416Y-87547934D02*
X164111226Y-87509839D01*
X164111226Y-87509839D02*
X163996940Y-87509839D01*
X163996940Y-87509839D02*
X163882654Y-87547934D01*
X163882654Y-87547934D02*
X163806464Y-87624124D01*
X163806464Y-87624124D02*
X163768369Y-87700315D01*
X163768369Y-87700315D02*
X163730273Y-87852696D01*
X163730273Y-87852696D02*
X163730273Y-87966982D01*
X163730273Y-87966982D02*
X163768369Y-88119363D01*
X163768369Y-88119363D02*
X163806464Y-88195553D01*
X163806464Y-88195553D02*
X163882654Y-88271744D01*
X163882654Y-88271744D02*
X163996940Y-88309839D01*
X163996940Y-88309839D02*
X164073131Y-88309839D01*
X164073131Y-88309839D02*
X164187416Y-88271744D01*
X164187416Y-88271744D02*
X164225512Y-88233648D01*
X164225512Y-88233648D02*
X164225512Y-87966982D01*
X164225512Y-87966982D02*
X164073131Y-87966982D01*
X164568369Y-88309839D02*
X164568369Y-87509839D01*
X164568369Y-87509839D02*
X165025512Y-88309839D01*
X165025512Y-88309839D02*
X165025512Y-87509839D01*
X165406464Y-88309839D02*
X165406464Y-87509839D01*
X165406464Y-87509839D02*
X165596940Y-87509839D01*
X165596940Y-87509839D02*
X165711226Y-87547934D01*
X165711226Y-87547934D02*
X165787416Y-87624124D01*
X165787416Y-87624124D02*
X165825511Y-87700315D01*
X165825511Y-87700315D02*
X165863607Y-87852696D01*
X165863607Y-87852696D02*
X165863607Y-87966982D01*
X165863607Y-87966982D02*
X165825511Y-88119363D01*
X165825511Y-88119363D02*
X165787416Y-88195553D01*
X165787416Y-88195553D02*
X165711226Y-88271744D01*
X165711226Y-88271744D02*
X165596940Y-88309839D01*
X165596940Y-88309839D02*
X165406464Y-88309839D01*
X174988797Y-84969839D02*
X175064987Y-84969839D01*
X175064987Y-84969839D02*
X175141178Y-85007934D01*
X175141178Y-85007934D02*
X175179273Y-85046029D01*
X175179273Y-85046029D02*
X175217368Y-85122220D01*
X175217368Y-85122220D02*
X175255463Y-85274601D01*
X175255463Y-85274601D02*
X175255463Y-85465077D01*
X175255463Y-85465077D02*
X175217368Y-85617458D01*
X175217368Y-85617458D02*
X175179273Y-85693648D01*
X175179273Y-85693648D02*
X175141178Y-85731744D01*
X175141178Y-85731744D02*
X175064987Y-85769839D01*
X175064987Y-85769839D02*
X174988797Y-85769839D01*
X174988797Y-85769839D02*
X174912606Y-85731744D01*
X174912606Y-85731744D02*
X174874511Y-85693648D01*
X174874511Y-85693648D02*
X174836416Y-85617458D01*
X174836416Y-85617458D02*
X174798320Y-85465077D01*
X174798320Y-85465077D02*
X174798320Y-85274601D01*
X174798320Y-85274601D02*
X174836416Y-85122220D01*
X174836416Y-85122220D02*
X174874511Y-85046029D01*
X174874511Y-85046029D02*
X174912606Y-85007934D01*
X174912606Y-85007934D02*
X174988797Y-84969839D01*
X175750702Y-84969839D02*
X175826892Y-84969839D01*
X175826892Y-84969839D02*
X175903083Y-85007934D01*
X175903083Y-85007934D02*
X175941178Y-85046029D01*
X175941178Y-85046029D02*
X175979273Y-85122220D01*
X175979273Y-85122220D02*
X176017368Y-85274601D01*
X176017368Y-85274601D02*
X176017368Y-85465077D01*
X176017368Y-85465077D02*
X175979273Y-85617458D01*
X175979273Y-85617458D02*
X175941178Y-85693648D01*
X175941178Y-85693648D02*
X175903083Y-85731744D01*
X175903083Y-85731744D02*
X175826892Y-85769839D01*
X175826892Y-85769839D02*
X175750702Y-85769839D01*
X175750702Y-85769839D02*
X175674511Y-85731744D01*
X175674511Y-85731744D02*
X175636416Y-85693648D01*
X175636416Y-85693648D02*
X175598321Y-85617458D01*
X175598321Y-85617458D02*
X175560225Y-85465077D01*
X175560225Y-85465077D02*
X175560225Y-85274601D01*
X175560225Y-85274601D02*
X175598321Y-85122220D01*
X175598321Y-85122220D02*
X175636416Y-85046029D01*
X175636416Y-85046029D02*
X175674511Y-85007934D01*
X175674511Y-85007934D02*
X175750702Y-84969839D01*
X176703083Y-84969839D02*
X176550702Y-84969839D01*
X176550702Y-84969839D02*
X176474511Y-85007934D01*
X176474511Y-85007934D02*
X176436416Y-85046029D01*
X176436416Y-85046029D02*
X176360226Y-85160315D01*
X176360226Y-85160315D02*
X176322130Y-85312696D01*
X176322130Y-85312696D02*
X176322130Y-85617458D01*
X176322130Y-85617458D02*
X176360226Y-85693648D01*
X176360226Y-85693648D02*
X176398321Y-85731744D01*
X176398321Y-85731744D02*
X176474511Y-85769839D01*
X176474511Y-85769839D02*
X176626892Y-85769839D01*
X176626892Y-85769839D02*
X176703083Y-85731744D01*
X176703083Y-85731744D02*
X176741178Y-85693648D01*
X176741178Y-85693648D02*
X176779273Y-85617458D01*
X176779273Y-85617458D02*
X176779273Y-85426982D01*
X176779273Y-85426982D02*
X176741178Y-85350791D01*
X176741178Y-85350791D02*
X176703083Y-85312696D01*
X176703083Y-85312696D02*
X176626892Y-85274601D01*
X176626892Y-85274601D02*
X176474511Y-85274601D01*
X176474511Y-85274601D02*
X176398321Y-85312696D01*
X176398321Y-85312696D02*
X176360226Y-85350791D01*
X176360226Y-85350791D02*
X176322130Y-85426982D01*
D12*
X199653257Y-90564568D02*
X199653257Y-82744568D01*
X199653257Y-84344568D02*
X198733257Y-84344568D01*
X199653257Y-82744568D02*
X198733257Y-82744568D01*
X198893257Y-88304568D02*
X197893257Y-88304568D01*
X198893257Y-86704568D02*
X198893257Y-88304568D01*
X198733257Y-84344568D02*
X198453257Y-84344568D01*
X198733257Y-82744568D02*
X198733257Y-84344568D01*
X197893257Y-88304568D02*
X197893257Y-86704568D01*
X197893257Y-86704568D02*
X198893257Y-86704568D01*
X197093257Y-86204568D02*
X197093257Y-90564568D01*
X196093257Y-90564568D02*
X196093257Y-86204568D01*
X196093257Y-86204568D02*
X197093257Y-86204568D01*
X195293257Y-88304568D02*
X195293257Y-90564568D01*
X195293257Y-88304568D02*
X195293257Y-86704568D01*
X195293257Y-86704568D02*
X194293257Y-86704568D01*
X194793257Y-88304568D02*
X194793257Y-90564568D01*
X194733257Y-84344568D02*
X194733257Y-83129568D01*
X194733257Y-84344568D02*
X194453257Y-84344568D01*
X194453257Y-84344568D02*
X194453257Y-82744568D01*
X194453257Y-82744568D02*
X193533257Y-82744568D01*
X194293257Y-88304568D02*
X195293257Y-88304568D01*
X194293257Y-86704568D02*
X194293257Y-88304568D01*
X193533257Y-90564568D02*
X199653257Y-90564568D01*
X193533257Y-84344568D02*
X194453257Y-84344568D01*
X193533257Y-82744568D02*
X193533257Y-90564568D01*
X168191607Y-82817544D02*
X168191607Y-90637544D01*
X168191607Y-84417544D02*
X169111607Y-84417544D01*
X168191607Y-90637544D02*
X174311607Y-90637544D01*
X168951607Y-86777544D02*
X168951607Y-88377544D01*
X168951607Y-88377544D02*
X169951607Y-88377544D01*
X169111607Y-82817544D02*
X168191607Y-82817544D01*
X169111607Y-84417544D02*
X169111607Y-82817544D01*
X169391607Y-84417544D02*
X169111607Y-84417544D01*
X169391607Y-84417544D02*
X169391607Y-83202544D01*
X169451607Y-88377544D02*
X169451607Y-90637544D01*
X169951607Y-86777544D02*
X168951607Y-86777544D01*
X169951607Y-88377544D02*
X169951607Y-86777544D01*
X169951607Y-88377544D02*
X169951607Y-90637544D01*
X170751607Y-86277544D02*
X171751607Y-86277544D01*
X170751607Y-90637544D02*
X170751607Y-86277544D01*
X171751607Y-86277544D02*
X171751607Y-90637544D01*
X172551607Y-86777544D02*
X173551607Y-86777544D01*
X172551607Y-88377544D02*
X172551607Y-86777544D01*
X173391607Y-82817544D02*
X173391607Y-84417544D01*
X173391607Y-84417544D02*
X173111607Y-84417544D01*
X173551607Y-86777544D02*
X173551607Y-88377544D01*
X173551607Y-88377544D02*
X172551607Y-88377544D01*
X174311607Y-82817544D02*
X173391607Y-82817544D01*
X174311607Y-84417544D02*
X173391607Y-84417544D01*
X174311607Y-90637544D02*
X174311607Y-82817544D01*
D13*
X181151607Y-123047544D02*
X181151607Y-128707544D01*
D14*
X176851607Y-128127544D02*
G75*
G02*
X176651607Y-128127544I-100000J0D01*
G01*
X176651607Y-128127544D02*
G75*
G02*
X176851607Y-128127544I100000J0D01*
G01*
D13*
X178551607Y-127457544D02*
X178551607Y-125797544D01*
X178551607Y-124457544D02*
X178551607Y-124297544D01*
X180231607Y-129227544D02*
X179471607Y-129227544D01*
X180231607Y-122527544D02*
X179471607Y-122527544D01*
D11*
X88058537Y-180916674D02*
X85997927Y-180166674D01*
X85997927Y-181666674D02*
X88058537Y-180916674D01*
X85997927Y-180166674D02*
X85997927Y-181666674D01*
X74247927Y-193416674D02*
X72747927Y-193416674D01*
X74247927Y-168416674D02*
X73497927Y-166356064D01*
X73497927Y-195477284D02*
X74247927Y-193416674D01*
X73497927Y-166356064D02*
X72747927Y-168416674D01*
X72747927Y-193416674D02*
X73497927Y-195477284D01*
X72747927Y-168416674D02*
X74247927Y-168416674D01*
X60997927Y-181666674D02*
X60997927Y-180166674D01*
X60997927Y-180166674D02*
X58937317Y-180916674D01*
X58937317Y-180916674D02*
X60997927Y-181666674D01*
X77497927Y-180916674D02*
G75*
G02*
X69497927Y-180916674I-4000000J0D01*
G01*
X69497927Y-180916674D02*
G75*
G02*
X77497927Y-180916674I4000000J0D01*
G01*
X84947927Y-180916674D02*
G75*
G02*
X62047927Y-180916674I-11450000J0D01*
G01*
X62047927Y-180916674D02*
G75*
G02*
X84947927Y-180916674I11450000J0D01*
G01*
D12*
X189243257Y-114444568D02*
X201943257Y-114444568D01*
X201943257Y-116984568D01*
X189243257Y-116984568D01*
X189243257Y-114444568D01*
X163901607Y-114617544D02*
X176601607Y-114617544D01*
X176601607Y-117157544D01*
X163901607Y-117157544D01*
X163901607Y-114617544D01*
D15*
X181581207Y-120254044D02*
X181581207Y-115301044D01*
X181581207Y-115301044D02*
X181239948Y-115301044D01*
X177822007Y-115301044D02*
X177822007Y-120254044D01*
X177822007Y-120254044D02*
X178163266Y-120254044D01*
X179539946Y-120254044D02*
X179863268Y-120254044D01*
X181239948Y-120254044D02*
X181581207Y-120254044D01*
X179863268Y-115301044D02*
X179539946Y-115301044D01*
X178163266Y-115301044D02*
X177822007Y-115301044D01*
D13*
X184693257Y-128634568D02*
X184693257Y-122974568D01*
D14*
X189193257Y-123554568D02*
G75*
G02*
X188993257Y-123554568I-100000J0D01*
G01*
X188993257Y-123554568D02*
G75*
G02*
X189193257Y-123554568I100000J0D01*
G01*
D13*
X187293257Y-124224568D02*
X187293257Y-125884568D01*
X187293257Y-127224568D02*
X187293257Y-127384568D01*
X185613257Y-122454568D02*
X186373257Y-122454568D01*
X185613257Y-129154568D02*
X186373257Y-129154568D01*
D15*
X184263657Y-115228068D02*
X184263657Y-120181068D01*
X184263657Y-120181068D02*
X184604916Y-120181068D01*
X188022857Y-120181068D02*
X188022857Y-115228068D01*
X188022857Y-115228068D02*
X187681598Y-115228068D01*
X186304918Y-115228068D02*
X185981596Y-115228068D01*
X184604916Y-115228068D02*
X184263657Y-115228068D01*
X185981596Y-120181068D02*
X186304918Y-120181068D01*
X187681598Y-120181068D02*
X188022857Y-120181068D01*
D16*
X186703257Y-81424568D02*
X204483257Y-81424568D01*
X204483257Y-81424568D02*
X204483257Y-114444568D01*
X186703257Y-114444568D02*
X186703257Y-81424568D01*
X204483257Y-114444568D02*
X186703257Y-114444568D01*
X161361607Y-81597544D02*
X179141607Y-81597544D01*
X179141607Y-81597544D02*
X179141607Y-114617544D01*
X161361607Y-114617544D02*
X161361607Y-81597544D01*
X179141607Y-114617544D02*
X161361607Y-114617544D01*
D17*
X203213257Y-85234568D03*
X203213257Y-87774568D03*
X203213257Y-90314568D03*
X203213257Y-92854568D03*
X203213257Y-95394568D03*
X203213257Y-97934568D03*
X203213257Y-100474568D03*
X203213257Y-103014568D03*
X203213257Y-105554568D03*
X203213257Y-108094568D03*
X203213257Y-110634568D03*
X203213257Y-113174568D03*
X187973257Y-113174568D03*
X187973257Y-110634568D03*
X187973257Y-108094568D03*
X187973257Y-105554568D03*
X187973257Y-103014568D03*
X187973257Y-100474568D03*
X187973257Y-97934568D03*
X187973257Y-95394568D03*
X187973257Y-92854568D03*
X187973257Y-90314568D03*
X187973257Y-87774568D03*
X187973257Y-85234568D03*
X200673257Y-108094568D03*
X198133257Y-108094568D03*
X195593257Y-108094568D03*
X177871607Y-85407544D03*
X177871607Y-87947544D03*
X177871607Y-90487544D03*
X177871607Y-93027544D03*
X177871607Y-95567544D03*
X177871607Y-98107544D03*
X177871607Y-100647544D03*
X177871607Y-103187544D03*
X177871607Y-105727544D03*
X177871607Y-108267544D03*
X177871607Y-110807544D03*
X177871607Y-113347544D03*
X162631607Y-113347544D03*
X162631607Y-110807544D03*
X162631607Y-108267544D03*
X162631607Y-105727544D03*
X162631607Y-103187544D03*
X162631607Y-100647544D03*
X162631607Y-98107544D03*
X162631607Y-95567544D03*
X162631607Y-93027544D03*
X162631607Y-90487544D03*
X162631607Y-87947544D03*
X162631607Y-85407544D03*
X175331607Y-108267544D03*
X172791607Y-108267544D03*
X170251607Y-108267544D03*
D18*
X151581850Y-176177544D02*
X132151607Y-176177544D01*
X103076607Y-76427544D02*
X103076607Y-75427544D01*
X168958035Y-184228503D02*
X151793159Y-176224390D01*
X103576607Y-74927544D02*
X122626607Y-74927544D01*
X181776606Y-157811695D02*
G75*
G02*
X181729765Y-158023010I-499606J-105D01*
G01*
X234193257Y-175604568D02*
G75*
G02*
X233693257Y-176104531I-500007J44D01*
G01*
X181276607Y-79927544D02*
G75*
G02*
X181776556Y-80427544I-7J-499956D01*
G01*
X123626607Y-76927544D02*
X141676607Y-76927544D01*
X281318257Y-76854568D02*
X263268257Y-76854568D01*
D19*
X55247927Y-169042164D02*
G75*
G02*
X58356911Y-167806534I1800019J42D01*
G01*
D18*
X272293257Y-172604568D02*
G75*
G02*
X271793257Y-173104531I-500007J44D01*
G01*
X272293257Y-172604568D02*
X272293257Y-162554568D01*
X242218257Y-76854568D02*
X224168257Y-76854568D01*
X84026607Y-77427544D02*
G75*
G02*
X84526607Y-76927507I499993J44D01*
G01*
X272293257Y-162554568D02*
G75*
G02*
X272793257Y-162054531I499993J44D01*
G01*
X93551607Y-172677544D02*
X93551607Y-162627544D01*
X94051607Y-173177544D02*
G75*
G02*
X93551556Y-172677544I-7J500044D01*
G01*
X184115104Y-157950031D02*
X196222367Y-183913686D01*
D19*
X60988237Y-167800904D02*
G75*
G02*
X60996820Y-194040621I12509689J-13115768D01*
G01*
D18*
X151581850Y-176177544D02*
G75*
G02*
X151793164Y-176224379I-50J-500356D01*
G01*
X169622497Y-183986661D02*
G75*
G02*
X168958020Y-184228535I-453197J211361D01*
G01*
X122626607Y-74927544D02*
G75*
G02*
X123126556Y-75427544I-7J-499956D01*
G01*
X65476607Y-81927544D02*
X83526607Y-81927544D01*
X300868257Y-84354568D02*
X300868257Y-82354568D01*
X132151607Y-176177544D02*
G75*
G02*
X131651556Y-175677544I-7J500044D01*
G01*
X319918257Y-161554568D02*
X319918257Y-85354568D01*
X142676607Y-79927544D02*
G75*
G02*
X142176556Y-79427544I-7J500044D01*
G01*
X142676607Y-79927544D02*
X181276607Y-79927544D01*
X196886830Y-184155527D02*
G75*
G02*
X196222382Y-183913679I-211280J453203D01*
G01*
D19*
X58147927Y-192791184D02*
G75*
G02*
X55947927Y-192791184I-1100000J0D01*
G01*
X55947927Y-192791184D02*
G75*
G02*
X58147927Y-192791184I1100000J0D01*
G01*
D18*
X142176607Y-77427544D02*
X142176607Y-79427544D01*
X214051705Y-176151414D02*
G75*
G02*
X214263014Y-176104568I211145J-452410D01*
G01*
X263268257Y-76854568D02*
G75*
G02*
X262768206Y-76354568I-7J500044D01*
G01*
X84526607Y-76927544D02*
X102576607Y-76927544D01*
X262268257Y-74854568D02*
G75*
G02*
X262768206Y-75354568I-7J-499956D01*
G01*
X46426607Y-84927544D02*
X64476607Y-84927544D01*
X319418257Y-84854568D02*
X301368257Y-84854568D01*
X272793257Y-162054568D02*
X319418257Y-162054568D01*
X131151607Y-173177544D02*
X94051607Y-173177544D01*
X282318257Y-81854568D02*
G75*
G02*
X281818206Y-81354568I-7J500044D01*
G01*
X262268257Y-74854568D02*
X243218257Y-74854568D01*
X319418257Y-84854568D02*
G75*
G02*
X319918206Y-85354568I-7J-499956D01*
G01*
D19*
X58147927Y-169042164D02*
G75*
G02*
X55947927Y-169042164I-1100000J0D01*
G01*
X55947927Y-169042164D02*
G75*
G02*
X58147927Y-169042164I1100000J0D01*
G01*
D18*
X281818257Y-81354568D02*
X281818257Y-77354568D01*
X46426607Y-162127544D02*
G75*
G02*
X45926556Y-161627544I-7J500044D01*
G01*
X64976607Y-84427544D02*
G75*
G02*
X64476607Y-84927507I-500007J44D01*
G01*
X223168257Y-79854568D02*
X184568257Y-79854568D01*
X214263014Y-176104568D02*
X233693257Y-176104568D01*
D19*
X58322610Y-194062092D02*
G75*
G02*
X60996782Y-194040601I1348036J-1351830D01*
G01*
D18*
X223668257Y-77354568D02*
X223668257Y-79354568D01*
X131651607Y-175677544D02*
X131651607Y-173677544D01*
X242718257Y-75354568D02*
G75*
G02*
X243218257Y-74854531I499993J44D01*
G01*
X123126607Y-75427544D02*
X123126607Y-76427544D01*
X181729760Y-158023007D02*
X169622497Y-183986662D01*
X234193257Y-173604568D02*
G75*
G02*
X234693257Y-173104531I499993J44D01*
G01*
X300368257Y-81854568D02*
G75*
G02*
X300868206Y-82354568I-7J-499956D01*
G01*
X84026607Y-81427544D02*
G75*
G02*
X83526607Y-81927507I-500007J44D01*
G01*
X262768257Y-76354568D02*
X262768257Y-75354568D01*
D19*
X58319332Y-194065371D02*
G75*
G02*
X55247980Y-192791191I-1271386J1274149D01*
G01*
D18*
X184115105Y-157950031D02*
G75*
G02*
X184068259Y-157738719I453145J211307D01*
G01*
X223668257Y-79354568D02*
G75*
G02*
X223168257Y-79854531I-500007J44D01*
G01*
X64976607Y-84427544D02*
X64976607Y-82427544D01*
X181776607Y-80427544D02*
X181776607Y-157811695D01*
X45926607Y-85427544D02*
G75*
G02*
X46426607Y-84927507I499993J44D01*
G01*
D19*
X60988237Y-167800903D02*
G75*
G02*
X58360078Y-167807567I-1317591J1381481D01*
G01*
D18*
X234193257Y-175604568D02*
X234193257Y-173604568D01*
X281318257Y-76854568D02*
G75*
G02*
X281818206Y-77354568I-7J-499956D01*
G01*
X301368257Y-84854568D02*
G75*
G02*
X300868206Y-84354568I-7J500044D01*
G01*
X45926607Y-161627544D02*
X45926607Y-85427544D01*
X319918257Y-161554568D02*
G75*
G02*
X319418257Y-162054531I-500007J44D01*
G01*
X184068257Y-80354568D02*
X184068257Y-157738719D01*
X141676607Y-76927544D02*
G75*
G02*
X142176556Y-77427544I-7J-499956D01*
G01*
X223668257Y-77354568D02*
G75*
G02*
X224168257Y-76854531I499993J44D01*
G01*
X64976607Y-82427544D02*
G75*
G02*
X65476607Y-81927507I499993J44D01*
G01*
X123626607Y-76927544D02*
G75*
G02*
X123126556Y-76427544I-7J500044D01*
G01*
X93051607Y-162127544D02*
X46426607Y-162127544D01*
X184068257Y-80354568D02*
G75*
G02*
X184568257Y-79854531I499993J44D01*
G01*
X242718257Y-76354568D02*
G75*
G02*
X242218257Y-76854531I-500007J44D01*
G01*
X103076607Y-75427544D02*
G75*
G02*
X103576607Y-74927507I499993J44D01*
G01*
X93051607Y-162127544D02*
G75*
G02*
X93551556Y-162627544I-7J-499956D01*
G01*
X103076607Y-76427544D02*
G75*
G02*
X102576607Y-76927507I-500007J44D01*
G01*
X300368257Y-81854568D02*
X282318257Y-81854568D01*
D19*
X55247927Y-169042164D02*
X55247927Y-192791184D01*
D18*
X84026607Y-81427544D02*
X84026607Y-77427544D01*
X131151607Y-173177544D02*
G75*
G02*
X131651556Y-173677544I-7J-499956D01*
G01*
X196886829Y-184155527D02*
X214051705Y-176151414D01*
X242718257Y-75354568D02*
X242718257Y-76354568D01*
X234693257Y-173104568D02*
X271793257Y-173104568D01*
D20*
X70451607Y-149102544D02*
G75*
G02*
X68551607Y-149102544I-950000J0D01*
G01*
X68551607Y-149102544D02*
G75*
G02*
X70451607Y-149102544I950000J0D01*
G01*
D21*
X76526607Y-143202544D02*
G75*
G02*
X73476607Y-143202544I-1525000J0D01*
G01*
X73476607Y-143202544D02*
G75*
G02*
X76526607Y-143202544I1525000J0D01*
G01*
X81526607Y-145302544D02*
G75*
G02*
X78476607Y-145302544I-1525000J0D01*
G01*
X78476607Y-145302544D02*
G75*
G02*
X81526607Y-145302544I1525000J0D01*
G01*
D20*
X81451607Y-149102544D02*
G75*
G02*
X79551607Y-149102544I-950000J0D01*
G01*
X79551607Y-149102544D02*
G75*
G02*
X81451607Y-149102544I950000J0D01*
G01*
X229143257Y-124979568D02*
G75*
G02*
X227243257Y-124979568I-950000J0D01*
G01*
X227243257Y-124979568D02*
G75*
G02*
X229143257Y-124979568I950000J0D01*
G01*
D21*
X235218257Y-119079568D02*
G75*
G02*
X232168257Y-119079568I-1525000J0D01*
G01*
X232168257Y-119079568D02*
G75*
G02*
X235218257Y-119079568I1525000J0D01*
G01*
X240218257Y-121179568D02*
G75*
G02*
X237168257Y-121179568I-1525000J0D01*
G01*
X237168257Y-121179568D02*
G75*
G02*
X240218257Y-121179568I1525000J0D01*
G01*
D20*
X240143257Y-124979568D02*
G75*
G02*
X238243257Y-124979568I-950000J0D01*
G01*
X238243257Y-124979568D02*
G75*
G02*
X240143257Y-124979568I950000J0D01*
G01*
X248193257Y-103929568D02*
G75*
G02*
X246293257Y-103929568I-950000J0D01*
G01*
X246293257Y-103929568D02*
G75*
G02*
X248193257Y-103929568I950000J0D01*
G01*
D21*
X254268257Y-98029568D02*
G75*
G02*
X251218257Y-98029568I-1525000J0D01*
G01*
X251218257Y-98029568D02*
G75*
G02*
X254268257Y-98029568I1525000J0D01*
G01*
X259268257Y-100129568D02*
G75*
G02*
X256218257Y-100129568I-1525000J0D01*
G01*
X256218257Y-100129568D02*
G75*
G02*
X259268257Y-100129568I1525000J0D01*
G01*
D20*
X259193257Y-103929568D02*
G75*
G02*
X257293257Y-103929568I-950000J0D01*
G01*
X257293257Y-103929568D02*
G75*
G02*
X259193257Y-103929568I950000J0D01*
G01*
X99026607Y-163152544D02*
G75*
G02*
X97126607Y-163152544I-950000J0D01*
G01*
X97126607Y-163152544D02*
G75*
G02*
X99026607Y-163152544I950000J0D01*
G01*
D21*
X105101607Y-157252544D02*
G75*
G02*
X102051607Y-157252544I-1525000J0D01*
G01*
X102051607Y-157252544D02*
G75*
G02*
X105101607Y-157252544I1525000J0D01*
G01*
X110101607Y-159352544D02*
G75*
G02*
X107051607Y-159352544I-1525000J0D01*
G01*
X107051607Y-159352544D02*
G75*
G02*
X110101607Y-159352544I1525000J0D01*
G01*
D20*
X110026607Y-163152544D02*
G75*
G02*
X108126607Y-163152544I-950000J0D01*
G01*
X108126607Y-163152544D02*
G75*
G02*
X110026607Y-163152544I950000J0D01*
G01*
X146651607Y-147102544D02*
G75*
G02*
X144751607Y-147102544I-950000J0D01*
G01*
X144751607Y-147102544D02*
G75*
G02*
X146651607Y-147102544I950000J0D01*
G01*
D21*
X152726607Y-141202544D02*
G75*
G02*
X149676607Y-141202544I-1525000J0D01*
G01*
X149676607Y-141202544D02*
G75*
G02*
X152726607Y-141202544I1525000J0D01*
G01*
X157726607Y-143302544D02*
G75*
G02*
X154676607Y-143302544I-1525000J0D01*
G01*
X154676607Y-143302544D02*
G75*
G02*
X157726607Y-143302544I1525000J0D01*
G01*
D20*
X157651607Y-147102544D02*
G75*
G02*
X155751607Y-147102544I-950000J0D01*
G01*
X155751607Y-147102544D02*
G75*
G02*
X157651607Y-147102544I950000J0D01*
G01*
X267243257Y-144029568D02*
G75*
G02*
X265343257Y-144029568I-950000J0D01*
G01*
X265343257Y-144029568D02*
G75*
G02*
X267243257Y-144029568I950000J0D01*
G01*
D21*
X273318257Y-138129568D02*
G75*
G02*
X270268257Y-138129568I-1525000J0D01*
G01*
X270268257Y-138129568D02*
G75*
G02*
X273318257Y-138129568I1525000J0D01*
G01*
X278318257Y-140229568D02*
G75*
G02*
X275268257Y-140229568I-1525000J0D01*
G01*
X275268257Y-140229568D02*
G75*
G02*
X278318257Y-140229568I1525000J0D01*
G01*
D20*
X278243257Y-144029568D02*
G75*
G02*
X276343257Y-144029568I-950000J0D01*
G01*
X276343257Y-144029568D02*
G75*
G02*
X278243257Y-144029568I950000J0D01*
G01*
X305343257Y-94879568D02*
G75*
G02*
X303443257Y-94879568I-950000J0D01*
G01*
X303443257Y-94879568D02*
G75*
G02*
X305343257Y-94879568I950000J0D01*
G01*
D21*
X311418257Y-88979568D02*
G75*
G02*
X308368257Y-88979568I-1525000J0D01*
G01*
X308368257Y-88979568D02*
G75*
G02*
X311418257Y-88979568I1525000J0D01*
G01*
X316418257Y-91079568D02*
G75*
G02*
X313368257Y-91079568I-1525000J0D01*
G01*
X313368257Y-91079568D02*
G75*
G02*
X316418257Y-91079568I1525000J0D01*
G01*
D20*
X316343257Y-94879568D02*
G75*
G02*
X314443257Y-94879568I-950000J0D01*
G01*
X314443257Y-94879568D02*
G75*
G02*
X316343257Y-94879568I950000J0D01*
G01*
X89501607Y-106002544D02*
G75*
G02*
X87601607Y-106002544I-950000J0D01*
G01*
X87601607Y-106002544D02*
G75*
G02*
X89501607Y-106002544I950000J0D01*
G01*
D21*
X95576607Y-100102544D02*
G75*
G02*
X92526607Y-100102544I-1525000J0D01*
G01*
X92526607Y-100102544D02*
G75*
G02*
X95576607Y-100102544I1525000J0D01*
G01*
X100576607Y-102202544D02*
G75*
G02*
X97526607Y-102202544I-1525000J0D01*
G01*
X97526607Y-102202544D02*
G75*
G02*
X100576607Y-102202544I1525000J0D01*
G01*
D20*
X100501607Y-106002544D02*
G75*
G02*
X98601607Y-106002544I-950000J0D01*
G01*
X98601607Y-106002544D02*
G75*
G02*
X100501607Y-106002544I950000J0D01*
G01*
X108551607Y-142102544D02*
G75*
G02*
X106651607Y-142102544I-950000J0D01*
G01*
X106651607Y-142102544D02*
G75*
G02*
X108551607Y-142102544I950000J0D01*
G01*
D21*
X114626607Y-136202544D02*
G75*
G02*
X111576607Y-136202544I-1525000J0D01*
G01*
X111576607Y-136202544D02*
G75*
G02*
X114626607Y-136202544I1525000J0D01*
G01*
X119626607Y-138302544D02*
G75*
G02*
X116576607Y-138302544I-1525000J0D01*
G01*
X116576607Y-138302544D02*
G75*
G02*
X119626607Y-138302544I1525000J0D01*
G01*
D20*
X119551607Y-142102544D02*
G75*
G02*
X117651607Y-142102544I-950000J0D01*
G01*
X117651607Y-142102544D02*
G75*
G02*
X119551607Y-142102544I950000J0D01*
G01*
X286293257Y-110929568D02*
G75*
G02*
X284393257Y-110929568I-950000J0D01*
G01*
X284393257Y-110929568D02*
G75*
G02*
X286293257Y-110929568I950000J0D01*
G01*
D21*
X292368257Y-105029568D02*
G75*
G02*
X289318257Y-105029568I-1525000J0D01*
G01*
X289318257Y-105029568D02*
G75*
G02*
X292368257Y-105029568I1525000J0D01*
G01*
X297368257Y-107129568D02*
G75*
G02*
X294318257Y-107129568I-1525000J0D01*
G01*
X294318257Y-107129568D02*
G75*
G02*
X297368257Y-107129568I1525000J0D01*
G01*
D20*
X297293257Y-110929568D02*
G75*
G02*
X295393257Y-110929568I-950000J0D01*
G01*
X295393257Y-110929568D02*
G75*
G02*
X297293257Y-110929568I950000J0D01*
G01*
D21*
X86404527Y-191523274D02*
G75*
G02*
X81804527Y-191523274I-2300000J0D01*
G01*
X81804527Y-191523274D02*
G75*
G02*
X86404527Y-191523274I2300000J0D01*
G01*
X86404527Y-170310074D02*
G75*
G02*
X81804527Y-170310074I-2300000J0D01*
G01*
X81804527Y-170310074D02*
G75*
G02*
X86404527Y-170310074I2300000J0D01*
G01*
X77479907Y-184098654D02*
G75*
G02*
X75879907Y-184098654I-800000J0D01*
G01*
X75879907Y-184098654D02*
G75*
G02*
X77479907Y-184098654I800000J0D01*
G01*
X71115947Y-177734694D02*
G75*
G02*
X69515947Y-177734694I-800000J0D01*
G01*
X69515947Y-177734694D02*
G75*
G02*
X71115947Y-177734694I800000J0D01*
G01*
X65191327Y-191523274D02*
G75*
G02*
X60591327Y-191523274I-2300000J0D01*
G01*
X60591327Y-191523274D02*
G75*
G02*
X65191327Y-191523274I2300000J0D01*
G01*
X65191327Y-170310074D02*
G75*
G02*
X60591327Y-170310074I-2300000J0D01*
G01*
X60591327Y-170310074D02*
G75*
G02*
X65191327Y-170310074I2300000J0D01*
G01*
D20*
X267243257Y-105929568D02*
G75*
G02*
X265343257Y-105929568I-950000J0D01*
G01*
X265343257Y-105929568D02*
G75*
G02*
X267243257Y-105929568I950000J0D01*
G01*
D21*
X273318257Y-100029568D02*
G75*
G02*
X270268257Y-100029568I-1525000J0D01*
G01*
X270268257Y-100029568D02*
G75*
G02*
X273318257Y-100029568I1525000J0D01*
G01*
X278318257Y-102129568D02*
G75*
G02*
X275268257Y-102129568I-1525000J0D01*
G01*
X275268257Y-102129568D02*
G75*
G02*
X278318257Y-102129568I1525000J0D01*
G01*
D20*
X278243257Y-105929568D02*
G75*
G02*
X276343257Y-105929568I-950000J0D01*
G01*
X276343257Y-105929568D02*
G75*
G02*
X278243257Y-105929568I950000J0D01*
G01*
X51401607Y-94952544D02*
G75*
G02*
X49501607Y-94952544I-950000J0D01*
G01*
X49501607Y-94952544D02*
G75*
G02*
X51401607Y-94952544I950000J0D01*
G01*
D21*
X57476607Y-89052544D02*
G75*
G02*
X54426607Y-89052544I-1525000J0D01*
G01*
X54426607Y-89052544D02*
G75*
G02*
X57476607Y-89052544I1525000J0D01*
G01*
X62476607Y-91152544D02*
G75*
G02*
X59426607Y-91152544I-1525000J0D01*
G01*
X59426607Y-91152544D02*
G75*
G02*
X62476607Y-91152544I1525000J0D01*
G01*
D20*
X62401607Y-94952544D02*
G75*
G02*
X60501607Y-94952544I-950000J0D01*
G01*
X60501607Y-94952544D02*
G75*
G02*
X62401607Y-94952544I950000J0D01*
G01*
X89501607Y-86952544D02*
G75*
G02*
X87601607Y-86952544I-950000J0D01*
G01*
X87601607Y-86952544D02*
G75*
G02*
X89501607Y-86952544I950000J0D01*
G01*
D21*
X95576607Y-81052544D02*
G75*
G02*
X92526607Y-81052544I-1525000J0D01*
G01*
X92526607Y-81052544D02*
G75*
G02*
X95576607Y-81052544I1525000J0D01*
G01*
X100576607Y-83152544D02*
G75*
G02*
X97526607Y-83152544I-1525000J0D01*
G01*
X97526607Y-83152544D02*
G75*
G02*
X100576607Y-83152544I1525000J0D01*
G01*
D20*
X100501607Y-86952544D02*
G75*
G02*
X98601607Y-86952544I-950000J0D01*
G01*
X98601607Y-86952544D02*
G75*
G02*
X100501607Y-86952544I950000J0D01*
G01*
X118076607Y-163152544D02*
G75*
G02*
X116176607Y-163152544I-950000J0D01*
G01*
X116176607Y-163152544D02*
G75*
G02*
X118076607Y-163152544I950000J0D01*
G01*
D21*
X124151607Y-157252544D02*
G75*
G02*
X121101607Y-157252544I-1525000J0D01*
G01*
X121101607Y-157252544D02*
G75*
G02*
X124151607Y-157252544I1525000J0D01*
G01*
X129151607Y-159352544D02*
G75*
G02*
X126101607Y-159352544I-1525000J0D01*
G01*
X126101607Y-159352544D02*
G75*
G02*
X129151607Y-159352544I1525000J0D01*
G01*
D20*
X129076607Y-163152544D02*
G75*
G02*
X127176607Y-163152544I-950000J0D01*
G01*
X127176607Y-163152544D02*
G75*
G02*
X129076607Y-163152544I950000J0D01*
G01*
X248193257Y-84879568D02*
G75*
G02*
X246293257Y-84879568I-950000J0D01*
G01*
X246293257Y-84879568D02*
G75*
G02*
X248193257Y-84879568I950000J0D01*
G01*
D21*
X254268257Y-78979568D02*
G75*
G02*
X251218257Y-78979568I-1525000J0D01*
G01*
X251218257Y-78979568D02*
G75*
G02*
X254268257Y-78979568I1525000J0D01*
G01*
X259268257Y-81079568D02*
G75*
G02*
X256218257Y-81079568I-1525000J0D01*
G01*
X256218257Y-81079568D02*
G75*
G02*
X259268257Y-81079568I1525000J0D01*
G01*
D20*
X259193257Y-84879568D02*
G75*
G02*
X257293257Y-84879568I-950000J0D01*
G01*
X257293257Y-84879568D02*
G75*
G02*
X259193257Y-84879568I950000J0D01*
G01*
X51401607Y-152102544D02*
G75*
G02*
X49501607Y-152102544I-950000J0D01*
G01*
X49501607Y-152102544D02*
G75*
G02*
X51401607Y-152102544I950000J0D01*
G01*
D21*
X57476607Y-146202544D02*
G75*
G02*
X54426607Y-146202544I-1525000J0D01*
G01*
X54426607Y-146202544D02*
G75*
G02*
X57476607Y-146202544I1525000J0D01*
G01*
X62476607Y-148302544D02*
G75*
G02*
X59426607Y-148302544I-1525000J0D01*
G01*
X59426607Y-148302544D02*
G75*
G02*
X62476607Y-148302544I1525000J0D01*
G01*
D20*
X62401607Y-152102544D02*
G75*
G02*
X60501607Y-152102544I-950000J0D01*
G01*
X60501607Y-152102544D02*
G75*
G02*
X62401607Y-152102544I950000J0D01*
G01*
X267243257Y-86879568D02*
G75*
G02*
X265343257Y-86879568I-950000J0D01*
G01*
X265343257Y-86879568D02*
G75*
G02*
X267243257Y-86879568I950000J0D01*
G01*
D21*
X273318257Y-80979568D02*
G75*
G02*
X270268257Y-80979568I-1525000J0D01*
G01*
X270268257Y-80979568D02*
G75*
G02*
X273318257Y-80979568I1525000J0D01*
G01*
X278318257Y-83079568D02*
G75*
G02*
X275268257Y-83079568I-1525000J0D01*
G01*
X275268257Y-83079568D02*
G75*
G02*
X278318257Y-83079568I1525000J0D01*
G01*
D20*
X278243257Y-86879568D02*
G75*
G02*
X276343257Y-86879568I-950000J0D01*
G01*
X276343257Y-86879568D02*
G75*
G02*
X278243257Y-86879568I950000J0D01*
G01*
X305343257Y-113929568D02*
G75*
G02*
X303443257Y-113929568I-950000J0D01*
G01*
X303443257Y-113929568D02*
G75*
G02*
X305343257Y-113929568I950000J0D01*
G01*
D21*
X311418257Y-108029568D02*
G75*
G02*
X308368257Y-108029568I-1525000J0D01*
G01*
X308368257Y-108029568D02*
G75*
G02*
X311418257Y-108029568I1525000J0D01*
G01*
X316418257Y-110129568D02*
G75*
G02*
X313368257Y-110129568I-1525000J0D01*
G01*
X313368257Y-110129568D02*
G75*
G02*
X316418257Y-110129568I1525000J0D01*
G01*
D20*
X316343257Y-113929568D02*
G75*
G02*
X314443257Y-113929568I-950000J0D01*
G01*
X314443257Y-113929568D02*
G75*
G02*
X316343257Y-113929568I950000J0D01*
G01*
X197895546Y-161743368D02*
G75*
G02*
X195995546Y-161743368I-950000J0D01*
G01*
X195995546Y-161743368D02*
G75*
G02*
X197895546Y-161743368I950000J0D01*
G01*
D21*
X206142163Y-164234613D02*
G75*
G02*
X203092161Y-164234613I-1525001J0D01*
G01*
X203092161Y-164234613D02*
G75*
G02*
X206142163Y-164234613I1525001J0D01*
G01*
X206352007Y-169653651D02*
G75*
G02*
X203302007Y-169653651I-1525000J0D01*
G01*
X203302007Y-169653651D02*
G75*
G02*
X206352007Y-169653651I1525000J0D01*
G01*
D20*
X202544346Y-171712754D02*
G75*
G02*
X200644346Y-171712754I-950000J0D01*
G01*
X200644346Y-171712754D02*
G75*
G02*
X202544346Y-171712754I950000J0D01*
G01*
X286293257Y-149029568D02*
G75*
G02*
X284393257Y-149029568I-950000J0D01*
G01*
X284393257Y-149029568D02*
G75*
G02*
X286293257Y-149029568I950000J0D01*
G01*
D21*
X292368257Y-143129568D02*
G75*
G02*
X289318257Y-143129568I-1525000J0D01*
G01*
X289318257Y-143129568D02*
G75*
G02*
X292368257Y-143129568I1525000J0D01*
G01*
X297368257Y-145229568D02*
G75*
G02*
X294318257Y-145229568I-1525000J0D01*
G01*
X294318257Y-145229568D02*
G75*
G02*
X297368257Y-145229568I1525000J0D01*
G01*
D20*
X297293257Y-149029568D02*
G75*
G02*
X295393257Y-149029568I-950000J0D01*
G01*
X295393257Y-149029568D02*
G75*
G02*
X297293257Y-149029568I950000J0D01*
G01*
X248193257Y-142029568D02*
G75*
G02*
X246293257Y-142029568I-950000J0D01*
G01*
X246293257Y-142029568D02*
G75*
G02*
X248193257Y-142029568I950000J0D01*
G01*
D21*
X254268257Y-136129568D02*
G75*
G02*
X251218257Y-136129568I-1525000J0D01*
G01*
X251218257Y-136129568D02*
G75*
G02*
X254268257Y-136129568I1525000J0D01*
G01*
X259268257Y-138229568D02*
G75*
G02*
X256218257Y-138229568I-1525000J0D01*
G01*
X256218257Y-138229568D02*
G75*
G02*
X259268257Y-138229568I1525000J0D01*
G01*
D20*
X259193257Y-142029568D02*
G75*
G02*
X257293257Y-142029568I-950000J0D01*
G01*
X257293257Y-142029568D02*
G75*
G02*
X259193257Y-142029568I950000J0D01*
G01*
X127601607Y-144102544D02*
G75*
G02*
X125701607Y-144102544I-950000J0D01*
G01*
X125701607Y-144102544D02*
G75*
G02*
X127601607Y-144102544I950000J0D01*
G01*
D21*
X133676607Y-138202544D02*
G75*
G02*
X130626607Y-138202544I-1525000J0D01*
G01*
X130626607Y-138202544D02*
G75*
G02*
X133676607Y-138202544I1525000J0D01*
G01*
X138676607Y-140302544D02*
G75*
G02*
X135626607Y-140302544I-1525000J0D01*
G01*
X135626607Y-140302544D02*
G75*
G02*
X138676607Y-140302544I1525000J0D01*
G01*
D20*
X138601607Y-144102544D02*
G75*
G02*
X136701607Y-144102544I-950000J0D01*
G01*
X136701607Y-144102544D02*
G75*
G02*
X138601607Y-144102544I950000J0D01*
G01*
X127601607Y-86952544D02*
G75*
G02*
X125701607Y-86952544I-950000J0D01*
G01*
X125701607Y-86952544D02*
G75*
G02*
X127601607Y-86952544I950000J0D01*
G01*
D21*
X133676607Y-81052544D02*
G75*
G02*
X130626607Y-81052544I-1525000J0D01*
G01*
X130626607Y-81052544D02*
G75*
G02*
X133676607Y-81052544I1525000J0D01*
G01*
X138676607Y-83152544D02*
G75*
G02*
X135626607Y-83152544I-1525000J0D01*
G01*
X135626607Y-83152544D02*
G75*
G02*
X138676607Y-83152544I1525000J0D01*
G01*
D20*
X138601607Y-86952544D02*
G75*
G02*
X136701607Y-86952544I-950000J0D01*
G01*
X136701607Y-86952544D02*
G75*
G02*
X138601607Y-86952544I950000J0D01*
G01*
X127601607Y-106002544D02*
G75*
G02*
X125701607Y-106002544I-950000J0D01*
G01*
X125701607Y-106002544D02*
G75*
G02*
X127601607Y-106002544I950000J0D01*
G01*
D21*
X133676607Y-100102544D02*
G75*
G02*
X130626607Y-100102544I-1525000J0D01*
G01*
X130626607Y-100102544D02*
G75*
G02*
X133676607Y-100102544I1525000J0D01*
G01*
X138676607Y-102202544D02*
G75*
G02*
X135626607Y-102202544I-1525000J0D01*
G01*
X135626607Y-102202544D02*
G75*
G02*
X138676607Y-102202544I1525000J0D01*
G01*
D20*
X138601607Y-106002544D02*
G75*
G02*
X136701607Y-106002544I-950000J0D01*
G01*
X136701607Y-106002544D02*
G75*
G02*
X138601607Y-106002544I950000J0D01*
G01*
X210093257Y-147029568D02*
G75*
G02*
X208193257Y-147029568I-950000J0D01*
G01*
X208193257Y-147029568D02*
G75*
G02*
X210093257Y-147029568I950000J0D01*
G01*
D21*
X216168257Y-141129568D02*
G75*
G02*
X213118257Y-141129568I-1525000J0D01*
G01*
X213118257Y-141129568D02*
G75*
G02*
X216168257Y-141129568I1525000J0D01*
G01*
X221168257Y-143229568D02*
G75*
G02*
X218118257Y-143229568I-1525000J0D01*
G01*
X218118257Y-143229568D02*
G75*
G02*
X221168257Y-143229568I1525000J0D01*
G01*
D20*
X221093257Y-147029568D02*
G75*
G02*
X219193257Y-147029568I-950000J0D01*
G01*
X219193257Y-147029568D02*
G75*
G02*
X221093257Y-147029568I950000J0D01*
G01*
X70451607Y-130052544D02*
G75*
G02*
X68551607Y-130052544I-950000J0D01*
G01*
X68551607Y-130052544D02*
G75*
G02*
X70451607Y-130052544I950000J0D01*
G01*
D21*
X76526607Y-124152544D02*
G75*
G02*
X73476607Y-124152544I-1525000J0D01*
G01*
X73476607Y-124152544D02*
G75*
G02*
X76526607Y-124152544I1525000J0D01*
G01*
X81526607Y-126252544D02*
G75*
G02*
X78476607Y-126252544I-1525000J0D01*
G01*
X78476607Y-126252544D02*
G75*
G02*
X81526607Y-126252544I1525000J0D01*
G01*
D20*
X81451607Y-130052544D02*
G75*
G02*
X79551607Y-130052544I-950000J0D01*
G01*
X79551607Y-130052544D02*
G75*
G02*
X81451607Y-130052544I950000J0D01*
G01*
X165200518Y-171785730D02*
G75*
G02*
X163300518Y-171785730I-950000J0D01*
G01*
X163300518Y-171785730D02*
G75*
G02*
X165200518Y-171785730I950000J0D01*
G01*
D21*
X162752702Y-164307589D02*
G75*
G02*
X159702702Y-164307589I-1525000J0D01*
G01*
X159702702Y-164307589D02*
G75*
G02*
X162752702Y-164307589I1525000J0D01*
G01*
X166769041Y-160663549D02*
G75*
G02*
X163719039Y-160663549I-1525001J0D01*
G01*
X163719039Y-160663549D02*
G75*
G02*
X166769041Y-160663549I1525001J0D01*
G01*
D20*
X169849318Y-161816344D02*
G75*
G02*
X167949318Y-161816344I-950000J0D01*
G01*
X167949318Y-161816344D02*
G75*
G02*
X169849318Y-161816344I950000J0D01*
G01*
X146651607Y-89952544D02*
G75*
G02*
X144751607Y-89952544I-950000J0D01*
G01*
X144751607Y-89952544D02*
G75*
G02*
X146651607Y-89952544I950000J0D01*
G01*
D21*
X152726607Y-84052544D02*
G75*
G02*
X149676607Y-84052544I-1525000J0D01*
G01*
X149676607Y-84052544D02*
G75*
G02*
X152726607Y-84052544I1525000J0D01*
G01*
X157726607Y-86152544D02*
G75*
G02*
X154676607Y-86152544I-1525000J0D01*
G01*
X154676607Y-86152544D02*
G75*
G02*
X157726607Y-86152544I1525000J0D01*
G01*
D20*
X157651607Y-89952544D02*
G75*
G02*
X155751607Y-89952544I-950000J0D01*
G01*
X155751607Y-89952544D02*
G75*
G02*
X157651607Y-89952544I950000J0D01*
G01*
X89501607Y-125052544D02*
G75*
G02*
X87601607Y-125052544I-950000J0D01*
G01*
X87601607Y-125052544D02*
G75*
G02*
X89501607Y-125052544I950000J0D01*
G01*
D21*
X95576607Y-119152544D02*
G75*
G02*
X92526607Y-119152544I-1525000J0D01*
G01*
X92526607Y-119152544D02*
G75*
G02*
X95576607Y-119152544I1525000J0D01*
G01*
X100576607Y-121252544D02*
G75*
G02*
X97526607Y-121252544I-1525000J0D01*
G01*
X97526607Y-121252544D02*
G75*
G02*
X100576607Y-121252544I1525000J0D01*
G01*
D20*
X100501607Y-125052544D02*
G75*
G02*
X98601607Y-125052544I-950000J0D01*
G01*
X98601607Y-125052544D02*
G75*
G02*
X100501607Y-125052544I950000J0D01*
G01*
X210093257Y-127979568D02*
G75*
G02*
X208193257Y-127979568I-950000J0D01*
G01*
X208193257Y-127979568D02*
G75*
G02*
X210093257Y-127979568I950000J0D01*
G01*
D21*
X216168257Y-122079568D02*
G75*
G02*
X213118257Y-122079568I-1525000J0D01*
G01*
X213118257Y-122079568D02*
G75*
G02*
X216168257Y-122079568I1525000J0D01*
G01*
X221168257Y-124179568D02*
G75*
G02*
X218118257Y-124179568I-1525000J0D01*
G01*
X218118257Y-124179568D02*
G75*
G02*
X221168257Y-124179568I1525000J0D01*
G01*
D20*
X221093257Y-127979568D02*
G75*
G02*
X219193257Y-127979568I-950000J0D01*
G01*
X219193257Y-127979568D02*
G75*
G02*
X221093257Y-127979568I950000J0D01*
G01*
X229143257Y-86879568D02*
G75*
G02*
X227243257Y-86879568I-950000J0D01*
G01*
X227243257Y-86879568D02*
G75*
G02*
X229143257Y-86879568I950000J0D01*
G01*
D21*
X235218257Y-80979568D02*
G75*
G02*
X232168257Y-80979568I-1525000J0D01*
G01*
X232168257Y-80979568D02*
G75*
G02*
X235218257Y-80979568I1525000J0D01*
G01*
X240218257Y-83079568D02*
G75*
G02*
X237168257Y-83079568I-1525000J0D01*
G01*
X237168257Y-83079568D02*
G75*
G02*
X240218257Y-83079568I1525000J0D01*
G01*
D20*
X240143257Y-86879568D02*
G75*
G02*
X238243257Y-86879568I-950000J0D01*
G01*
X238243257Y-86879568D02*
G75*
G02*
X240143257Y-86879568I950000J0D01*
G01*
X165701607Y-137577544D02*
G75*
G02*
X163801607Y-137577544I-950000J0D01*
G01*
X163801607Y-137577544D02*
G75*
G02*
X165701607Y-137577544I950000J0D01*
G01*
D21*
X171776607Y-131677544D02*
G75*
G02*
X168726607Y-131677544I-1525000J0D01*
G01*
X168726607Y-131677544D02*
G75*
G02*
X171776607Y-131677544I1525000J0D01*
G01*
X176776607Y-133777544D02*
G75*
G02*
X173726607Y-133777544I-1525000J0D01*
G01*
X173726607Y-133777544D02*
G75*
G02*
X176776607Y-133777544I1525000J0D01*
G01*
D20*
X176701607Y-137577544D02*
G75*
G02*
X174801607Y-137577544I-950000J0D01*
G01*
X174801607Y-137577544D02*
G75*
G02*
X176701607Y-137577544I950000J0D01*
G01*
X146651607Y-109002544D02*
G75*
G02*
X144751607Y-109002544I-950000J0D01*
G01*
X144751607Y-109002544D02*
G75*
G02*
X146651607Y-109002544I950000J0D01*
G01*
D21*
X152726607Y-103102544D02*
G75*
G02*
X149676607Y-103102544I-1525000J0D01*
G01*
X149676607Y-103102544D02*
G75*
G02*
X152726607Y-103102544I1525000J0D01*
G01*
X157726607Y-105202544D02*
G75*
G02*
X154676607Y-105202544I-1525000J0D01*
G01*
X154676607Y-105202544D02*
G75*
G02*
X157726607Y-105202544I1525000J0D01*
G01*
D20*
X157651607Y-109002544D02*
G75*
G02*
X155751607Y-109002544I-950000J0D01*
G01*
X155751607Y-109002544D02*
G75*
G02*
X157651607Y-109002544I950000J0D01*
G01*
X305343257Y-152029568D02*
G75*
G02*
X303443257Y-152029568I-950000J0D01*
G01*
X303443257Y-152029568D02*
G75*
G02*
X305343257Y-152029568I950000J0D01*
G01*
D21*
X311418257Y-146129568D02*
G75*
G02*
X308368257Y-146129568I-1525000J0D01*
G01*
X308368257Y-146129568D02*
G75*
G02*
X311418257Y-146129568I1525000J0D01*
G01*
X316418257Y-148229568D02*
G75*
G02*
X313368257Y-148229568I-1525000J0D01*
G01*
X313368257Y-148229568D02*
G75*
G02*
X316418257Y-148229568I1525000J0D01*
G01*
D20*
X316343257Y-152029568D02*
G75*
G02*
X314443257Y-152029568I-950000J0D01*
G01*
X314443257Y-152029568D02*
G75*
G02*
X316343257Y-152029568I950000J0D01*
G01*
X238668257Y-163079568D02*
G75*
G02*
X236768257Y-163079568I-950000J0D01*
G01*
X236768257Y-163079568D02*
G75*
G02*
X238668257Y-163079568I950000J0D01*
G01*
D21*
X244743257Y-157179568D02*
G75*
G02*
X241693257Y-157179568I-1525000J0D01*
G01*
X241693257Y-157179568D02*
G75*
G02*
X244743257Y-157179568I1525000J0D01*
G01*
X249743257Y-159279568D02*
G75*
G02*
X246693257Y-159279568I-1525000J0D01*
G01*
X246693257Y-159279568D02*
G75*
G02*
X249743257Y-159279568I1525000J0D01*
G01*
D20*
X249668257Y-163079568D02*
G75*
G02*
X247768257Y-163079568I-950000J0D01*
G01*
X247768257Y-163079568D02*
G75*
G02*
X249668257Y-163079568I950000J0D01*
G01*
D21*
X167226607Y-137796194D02*
X173226607Y-137796194D01*
X173226607Y-139796194D01*
X167226607Y-139796194D01*
X167226607Y-137796194D01*
D19*
X163951607Y-124521684D02*
G75*
G02*
X161751607Y-124521684I-1100000J0D01*
G01*
X161751607Y-124521684D02*
G75*
G02*
X163951607Y-124521684I1100000J0D01*
G01*
X163951607Y-148270704D02*
G75*
G02*
X161751607Y-148270704I-1100000J0D01*
G01*
X161751607Y-148270704D02*
G75*
G02*
X163951607Y-148270704I1100000J0D01*
G01*
D20*
X51401607Y-133052544D02*
G75*
G02*
X49501607Y-133052544I-950000J0D01*
G01*
X49501607Y-133052544D02*
G75*
G02*
X51401607Y-133052544I950000J0D01*
G01*
D21*
X57476607Y-127152544D02*
G75*
G02*
X54426607Y-127152544I-1525000J0D01*
G01*
X54426607Y-127152544D02*
G75*
G02*
X57476607Y-127152544I1525000J0D01*
G01*
X62476607Y-129252544D02*
G75*
G02*
X59426607Y-129252544I-1525000J0D01*
G01*
X59426607Y-129252544D02*
G75*
G02*
X62476607Y-129252544I1525000J0D01*
G01*
D20*
X62401607Y-133052544D02*
G75*
G02*
X60501607Y-133052544I-950000J0D01*
G01*
X60501607Y-133052544D02*
G75*
G02*
X62401607Y-133052544I950000J0D01*
G01*
X146651607Y-128052544D02*
G75*
G02*
X144751607Y-128052544I-950000J0D01*
G01*
X144751607Y-128052544D02*
G75*
G02*
X146651607Y-128052544I950000J0D01*
G01*
D21*
X152726607Y-122152544D02*
G75*
G02*
X149676607Y-122152544I-1525000J0D01*
G01*
X149676607Y-122152544D02*
G75*
G02*
X152726607Y-122152544I1525000J0D01*
G01*
X157726607Y-124252544D02*
G75*
G02*
X154676607Y-124252544I-1525000J0D01*
G01*
X154676607Y-124252544D02*
G75*
G02*
X157726607Y-124252544I1525000J0D01*
G01*
D20*
X157651607Y-128052544D02*
G75*
G02*
X155751607Y-128052544I-950000J0D01*
G01*
X155751607Y-128052544D02*
G75*
G02*
X157651607Y-128052544I950000J0D01*
G01*
X108551607Y-84952544D02*
G75*
G02*
X106651607Y-84952544I-950000J0D01*
G01*
X106651607Y-84952544D02*
G75*
G02*
X108551607Y-84952544I950000J0D01*
G01*
D21*
X114626607Y-79052544D02*
G75*
G02*
X111576607Y-79052544I-1525000J0D01*
G01*
X111576607Y-79052544D02*
G75*
G02*
X114626607Y-79052544I1525000J0D01*
G01*
X119626607Y-81152544D02*
G75*
G02*
X116576607Y-81152544I-1525000J0D01*
G01*
X116576607Y-81152544D02*
G75*
G02*
X119626607Y-81152544I1525000J0D01*
G01*
D20*
X119551607Y-84952544D02*
G75*
G02*
X117651607Y-84952544I-950000J0D01*
G01*
X117651607Y-84952544D02*
G75*
G02*
X119551607Y-84952544I950000J0D01*
G01*
D21*
X163951607Y-117852544D02*
G75*
G02*
X161551607Y-117852544I-1200000J0D01*
G01*
X161551607Y-117852544D02*
G75*
G02*
X163951607Y-117852544I1200000J0D01*
G01*
D20*
X229143257Y-105929568D02*
G75*
G02*
X227243257Y-105929568I-950000J0D01*
G01*
X227243257Y-105929568D02*
G75*
G02*
X229143257Y-105929568I950000J0D01*
G01*
D21*
X235218257Y-100029568D02*
G75*
G02*
X232168257Y-100029568I-1525000J0D01*
G01*
X232168257Y-100029568D02*
G75*
G02*
X235218257Y-100029568I1525000J0D01*
G01*
X240218257Y-102129568D02*
G75*
G02*
X237168257Y-102129568I-1525000J0D01*
G01*
X237168257Y-102129568D02*
G75*
G02*
X240218257Y-102129568I1525000J0D01*
G01*
D20*
X240143257Y-105929568D02*
G75*
G02*
X238243257Y-105929568I-950000J0D01*
G01*
X238243257Y-105929568D02*
G75*
G02*
X240143257Y-105929568I950000J0D01*
G01*
X286293257Y-129979568D02*
G75*
G02*
X284393257Y-129979568I-950000J0D01*
G01*
X284393257Y-129979568D02*
G75*
G02*
X286293257Y-129979568I950000J0D01*
G01*
D21*
X292368257Y-124079568D02*
G75*
G02*
X289318257Y-124079568I-1525000J0D01*
G01*
X289318257Y-124079568D02*
G75*
G02*
X292368257Y-124079568I1525000J0D01*
G01*
X297368257Y-126179568D02*
G75*
G02*
X294318257Y-126179568I-1525000J0D01*
G01*
X294318257Y-126179568D02*
G75*
G02*
X297368257Y-126179568I1525000J0D01*
G01*
D20*
X297293257Y-129979568D02*
G75*
G02*
X295393257Y-129979568I-950000J0D01*
G01*
X295393257Y-129979568D02*
G75*
G02*
X297293257Y-129979568I950000J0D01*
G01*
X51401607Y-114002544D02*
G75*
G02*
X49501607Y-114002544I-950000J0D01*
G01*
X49501607Y-114002544D02*
G75*
G02*
X51401607Y-114002544I950000J0D01*
G01*
D21*
X57476607Y-108102544D02*
G75*
G02*
X54426607Y-108102544I-1525000J0D01*
G01*
X54426607Y-108102544D02*
G75*
G02*
X57476607Y-108102544I1525000J0D01*
G01*
X62476607Y-110202544D02*
G75*
G02*
X59426607Y-110202544I-1525000J0D01*
G01*
X59426607Y-110202544D02*
G75*
G02*
X62476607Y-110202544I1525000J0D01*
G01*
D20*
X62401607Y-114002544D02*
G75*
G02*
X60501607Y-114002544I-950000J0D01*
G01*
X60501607Y-114002544D02*
G75*
G02*
X62401607Y-114002544I950000J0D01*
G01*
X248193257Y-122979568D02*
G75*
G02*
X246293257Y-122979568I-950000J0D01*
G01*
X246293257Y-122979568D02*
G75*
G02*
X248193257Y-122979568I950000J0D01*
G01*
D21*
X254268257Y-117079568D02*
G75*
G02*
X251218257Y-117079568I-1525000J0D01*
G01*
X251218257Y-117079568D02*
G75*
G02*
X254268257Y-117079568I1525000J0D01*
G01*
X259268257Y-119179568D02*
G75*
G02*
X256218257Y-119179568I-1525000J0D01*
G01*
X256218257Y-119179568D02*
G75*
G02*
X259268257Y-119179568I1525000J0D01*
G01*
D20*
X259193257Y-122979568D02*
G75*
G02*
X257293257Y-122979568I-950000J0D01*
G01*
X257293257Y-122979568D02*
G75*
G02*
X259193257Y-122979568I950000J0D01*
G01*
D21*
X253976607Y-137777544D02*
X257976607Y-137777544D01*
X257976607Y-139777544D01*
X253976607Y-139777544D01*
X253976607Y-137777544D01*
X250816607Y-143677544D02*
G75*
G02*
X248616607Y-143677544I-1100000J0D01*
G01*
X248616607Y-143677544D02*
G75*
G02*
X250816607Y-143677544I1100000J0D01*
G01*
X261276607Y-121677544D02*
G75*
G02*
X259076607Y-121677544I-1100000J0D01*
G01*
X259076607Y-121677544D02*
G75*
G02*
X261276607Y-121677544I1100000J0D01*
G01*
D20*
X108551607Y-123052544D02*
G75*
G02*
X106651607Y-123052544I-950000J0D01*
G01*
X106651607Y-123052544D02*
G75*
G02*
X108551607Y-123052544I950000J0D01*
G01*
D21*
X114626607Y-117152544D02*
G75*
G02*
X111576607Y-117152544I-1525000J0D01*
G01*
X111576607Y-117152544D02*
G75*
G02*
X114626607Y-117152544I1525000J0D01*
G01*
X119626607Y-119252544D02*
G75*
G02*
X116576607Y-119252544I-1525000J0D01*
G01*
X116576607Y-119252544D02*
G75*
G02*
X119626607Y-119252544I1525000J0D01*
G01*
D20*
X119551607Y-123052544D02*
G75*
G02*
X117651607Y-123052544I-950000J0D01*
G01*
X117651607Y-123052544D02*
G75*
G02*
X119551607Y-123052544I950000J0D01*
G01*
X89501607Y-144102544D02*
G75*
G02*
X87601607Y-144102544I-950000J0D01*
G01*
X87601607Y-144102544D02*
G75*
G02*
X89501607Y-144102544I950000J0D01*
G01*
D21*
X95576607Y-138202544D02*
G75*
G02*
X92526607Y-138202544I-1525000J0D01*
G01*
X92526607Y-138202544D02*
G75*
G02*
X95576607Y-138202544I1525000J0D01*
G01*
X100576607Y-140302544D02*
G75*
G02*
X97526607Y-140302544I-1525000J0D01*
G01*
X97526607Y-140302544D02*
G75*
G02*
X100576607Y-140302544I1525000J0D01*
G01*
D20*
X100501607Y-144102544D02*
G75*
G02*
X98601607Y-144102544I-950000J0D01*
G01*
X98601607Y-144102544D02*
G75*
G02*
X100501607Y-144102544I950000J0D01*
G01*
X219618257Y-166079568D02*
G75*
G02*
X217718257Y-166079568I-950000J0D01*
G01*
X217718257Y-166079568D02*
G75*
G02*
X219618257Y-166079568I950000J0D01*
G01*
D21*
X225693257Y-160179568D02*
G75*
G02*
X222643257Y-160179568I-1525000J0D01*
G01*
X222643257Y-160179568D02*
G75*
G02*
X225693257Y-160179568I1525000J0D01*
G01*
X230693257Y-162279568D02*
G75*
G02*
X227643257Y-162279568I-1525000J0D01*
G01*
X227643257Y-162279568D02*
G75*
G02*
X230693257Y-162279568I1525000J0D01*
G01*
D20*
X230618257Y-166079568D02*
G75*
G02*
X228718257Y-166079568I-950000J0D01*
G01*
X228718257Y-166079568D02*
G75*
G02*
X230618257Y-166079568I950000J0D01*
G01*
X210093257Y-108929568D02*
G75*
G02*
X208193257Y-108929568I-950000J0D01*
G01*
X208193257Y-108929568D02*
G75*
G02*
X210093257Y-108929568I950000J0D01*
G01*
D21*
X216168257Y-103029568D02*
G75*
G02*
X213118257Y-103029568I-1525000J0D01*
G01*
X213118257Y-103029568D02*
G75*
G02*
X216168257Y-103029568I1525000J0D01*
G01*
X221168257Y-105129568D02*
G75*
G02*
X218118257Y-105129568I-1525000J0D01*
G01*
X218118257Y-105129568D02*
G75*
G02*
X221168257Y-105129568I1525000J0D01*
G01*
D20*
X221093257Y-108929568D02*
G75*
G02*
X219193257Y-108929568I-950000J0D01*
G01*
X219193257Y-108929568D02*
G75*
G02*
X221093257Y-108929568I950000J0D01*
G01*
X229143257Y-144029568D02*
G75*
G02*
X227243257Y-144029568I-950000J0D01*
G01*
X227243257Y-144029568D02*
G75*
G02*
X229143257Y-144029568I950000J0D01*
G01*
D21*
X235218257Y-138129568D02*
G75*
G02*
X232168257Y-138129568I-1525000J0D01*
G01*
X232168257Y-138129568D02*
G75*
G02*
X235218257Y-138129568I1525000J0D01*
G01*
X240218257Y-140229568D02*
G75*
G02*
X237168257Y-140229568I-1525000J0D01*
G01*
X237168257Y-140229568D02*
G75*
G02*
X240218257Y-140229568I1525000J0D01*
G01*
D20*
X240143257Y-144029568D02*
G75*
G02*
X238243257Y-144029568I-950000J0D01*
G01*
X238243257Y-144029568D02*
G75*
G02*
X240143257Y-144029568I950000J0D01*
G01*
X70451607Y-111002544D02*
G75*
G02*
X68551607Y-111002544I-950000J0D01*
G01*
X68551607Y-111002544D02*
G75*
G02*
X70451607Y-111002544I950000J0D01*
G01*
D21*
X76526607Y-105102544D02*
G75*
G02*
X73476607Y-105102544I-1525000J0D01*
G01*
X73476607Y-105102544D02*
G75*
G02*
X76526607Y-105102544I1525000J0D01*
G01*
X81526607Y-107202544D02*
G75*
G02*
X78476607Y-107202544I-1525000J0D01*
G01*
X78476607Y-107202544D02*
G75*
G02*
X81526607Y-107202544I1525000J0D01*
G01*
D20*
X81451607Y-111002544D02*
G75*
G02*
X79551607Y-111002544I-950000J0D01*
G01*
X79551607Y-111002544D02*
G75*
G02*
X81451607Y-111002544I950000J0D01*
G01*
X191043257Y-137504568D02*
G75*
G02*
X189143257Y-137504568I-950000J0D01*
G01*
X189143257Y-137504568D02*
G75*
G02*
X191043257Y-137504568I950000J0D01*
G01*
D21*
X197118257Y-131604568D02*
G75*
G02*
X194068257Y-131604568I-1525000J0D01*
G01*
X194068257Y-131604568D02*
G75*
G02*
X197118257Y-131604568I1525000J0D01*
G01*
X202118257Y-133704568D02*
G75*
G02*
X199068257Y-133704568I-1525000J0D01*
G01*
X199068257Y-133704568D02*
G75*
G02*
X202118257Y-133704568I1525000J0D01*
G01*
D20*
X202043257Y-137504568D02*
G75*
G02*
X200143257Y-137504568I-950000J0D01*
G01*
X200143257Y-137504568D02*
G75*
G02*
X202043257Y-137504568I950000J0D01*
G01*
X267243257Y-124979568D02*
G75*
G02*
X265343257Y-124979568I-950000J0D01*
G01*
X265343257Y-124979568D02*
G75*
G02*
X267243257Y-124979568I950000J0D01*
G01*
D21*
X273318257Y-119079568D02*
G75*
G02*
X270268257Y-119079568I-1525000J0D01*
G01*
X270268257Y-119079568D02*
G75*
G02*
X273318257Y-119079568I1525000J0D01*
G01*
X278318257Y-121179568D02*
G75*
G02*
X275268257Y-121179568I-1525000J0D01*
G01*
X275268257Y-121179568D02*
G75*
G02*
X278318257Y-121179568I1525000J0D01*
G01*
D20*
X278243257Y-124979568D02*
G75*
G02*
X276343257Y-124979568I-950000J0D01*
G01*
X276343257Y-124979568D02*
G75*
G02*
X278243257Y-124979568I950000J0D01*
G01*
X70451607Y-91952544D02*
G75*
G02*
X68551607Y-91952544I-950000J0D01*
G01*
X68551607Y-91952544D02*
G75*
G02*
X70451607Y-91952544I950000J0D01*
G01*
D21*
X76526607Y-86052544D02*
G75*
G02*
X73476607Y-86052544I-1525000J0D01*
G01*
X73476607Y-86052544D02*
G75*
G02*
X76526607Y-86052544I1525000J0D01*
G01*
X81526607Y-88152544D02*
G75*
G02*
X78476607Y-88152544I-1525000J0D01*
G01*
X78476607Y-88152544D02*
G75*
G02*
X81526607Y-88152544I1525000J0D01*
G01*
D20*
X81451607Y-91952544D02*
G75*
G02*
X79551607Y-91952544I-950000J0D01*
G01*
X79551607Y-91952544D02*
G75*
G02*
X81451607Y-91952544I950000J0D01*
G01*
X257718257Y-163079568D02*
G75*
G02*
X255818257Y-163079568I-950000J0D01*
G01*
X255818257Y-163079568D02*
G75*
G02*
X257718257Y-163079568I950000J0D01*
G01*
D21*
X263793257Y-157179568D02*
G75*
G02*
X260743257Y-157179568I-1525000J0D01*
G01*
X260743257Y-157179568D02*
G75*
G02*
X263793257Y-157179568I1525000J0D01*
G01*
X268793257Y-159279568D02*
G75*
G02*
X265743257Y-159279568I-1525000J0D01*
G01*
X265743257Y-159279568D02*
G75*
G02*
X268793257Y-159279568I1525000J0D01*
G01*
D20*
X268718257Y-163079568D02*
G75*
G02*
X266818257Y-163079568I-950000J0D01*
G01*
X266818257Y-163079568D02*
G75*
G02*
X268718257Y-163079568I950000J0D01*
G01*
X127601607Y-125052544D02*
G75*
G02*
X125701607Y-125052544I-950000J0D01*
G01*
X125701607Y-125052544D02*
G75*
G02*
X127601607Y-125052544I950000J0D01*
G01*
D21*
X133676607Y-119152544D02*
G75*
G02*
X130626607Y-119152544I-1525000J0D01*
G01*
X130626607Y-119152544D02*
G75*
G02*
X133676607Y-119152544I1525000J0D01*
G01*
X138676607Y-121252544D02*
G75*
G02*
X135626607Y-121252544I-1525000J0D01*
G01*
X135626607Y-121252544D02*
G75*
G02*
X138676607Y-121252544I1525000J0D01*
G01*
D20*
X138601607Y-125052544D02*
G75*
G02*
X136701607Y-125052544I-950000J0D01*
G01*
X136701607Y-125052544D02*
G75*
G02*
X138601607Y-125052544I950000J0D01*
G01*
X210093257Y-89879568D02*
G75*
G02*
X208193257Y-89879568I-950000J0D01*
G01*
X208193257Y-89879568D02*
G75*
G02*
X210093257Y-89879568I950000J0D01*
G01*
D21*
X216168257Y-83979568D02*
G75*
G02*
X213118257Y-83979568I-1525000J0D01*
G01*
X213118257Y-83979568D02*
G75*
G02*
X216168257Y-83979568I1525000J0D01*
G01*
X221168257Y-86079568D02*
G75*
G02*
X218118257Y-86079568I-1525000J0D01*
G01*
X218118257Y-86079568D02*
G75*
G02*
X221168257Y-86079568I1525000J0D01*
G01*
D20*
X221093257Y-89879568D02*
G75*
G02*
X219193257Y-89879568I-950000J0D01*
G01*
X219193257Y-89879568D02*
G75*
G02*
X221093257Y-89879568I950000J0D01*
G01*
X305343257Y-132979568D02*
G75*
G02*
X303443257Y-132979568I-950000J0D01*
G01*
X303443257Y-132979568D02*
G75*
G02*
X305343257Y-132979568I950000J0D01*
G01*
D21*
X311418257Y-127079568D02*
G75*
G02*
X308368257Y-127079568I-1525000J0D01*
G01*
X308368257Y-127079568D02*
G75*
G02*
X311418257Y-127079568I1525000J0D01*
G01*
X316418257Y-129179568D02*
G75*
G02*
X313368257Y-129179568I-1525000J0D01*
G01*
X313368257Y-129179568D02*
G75*
G02*
X316418257Y-129179568I1525000J0D01*
G01*
D20*
X316343257Y-132979568D02*
G75*
G02*
X314443257Y-132979568I-950000J0D01*
G01*
X314443257Y-132979568D02*
G75*
G02*
X316343257Y-132979568I950000J0D01*
G01*
X286293257Y-91879568D02*
G75*
G02*
X284393257Y-91879568I-950000J0D01*
G01*
X284393257Y-91879568D02*
G75*
G02*
X286293257Y-91879568I950000J0D01*
G01*
D21*
X292368257Y-85979568D02*
G75*
G02*
X289318257Y-85979568I-1525000J0D01*
G01*
X289318257Y-85979568D02*
G75*
G02*
X292368257Y-85979568I1525000J0D01*
G01*
X297368257Y-88079568D02*
G75*
G02*
X294318257Y-88079568I-1525000J0D01*
G01*
X294318257Y-88079568D02*
G75*
G02*
X297368257Y-88079568I1525000J0D01*
G01*
D20*
X297293257Y-91879568D02*
G75*
G02*
X295393257Y-91879568I-950000J0D01*
G01*
X295393257Y-91879568D02*
G75*
G02*
X297293257Y-91879568I950000J0D01*
G01*
X108551607Y-104002544D02*
G75*
G02*
X106651607Y-104002544I-950000J0D01*
G01*
X106651607Y-104002544D02*
G75*
G02*
X108551607Y-104002544I950000J0D01*
G01*
D21*
X114626607Y-98102544D02*
G75*
G02*
X111576607Y-98102544I-1525000J0D01*
G01*
X111576607Y-98102544D02*
G75*
G02*
X114626607Y-98102544I1525000J0D01*
G01*
X119626607Y-100202544D02*
G75*
G02*
X116576607Y-100202544I-1525000J0D01*
G01*
X116576607Y-100202544D02*
G75*
G02*
X119626607Y-100202544I1525000J0D01*
G01*
D20*
X119551607Y-104002544D02*
G75*
G02*
X117651607Y-104002544I-950000J0D01*
G01*
X117651607Y-104002544D02*
G75*
G02*
X119551607Y-104002544I950000J0D01*
G01*
X137126607Y-166152544D02*
G75*
G02*
X135226607Y-166152544I-950000J0D01*
G01*
X135226607Y-166152544D02*
G75*
G02*
X137126607Y-166152544I950000J0D01*
G01*
D21*
X143201607Y-160252544D02*
G75*
G02*
X140151607Y-160252544I-1525000J0D01*
G01*
X140151607Y-160252544D02*
G75*
G02*
X143201607Y-160252544I1525000J0D01*
G01*
X148201607Y-162352544D02*
G75*
G02*
X145151607Y-162352544I-1525000J0D01*
G01*
X145151607Y-162352544D02*
G75*
G02*
X148201607Y-162352544I1525000J0D01*
G01*
D20*
X148126607Y-166152544D02*
G75*
G02*
X146226607Y-166152544I-950000J0D01*
G01*
X146226607Y-166152544D02*
G75*
G02*
X148126607Y-166152544I950000J0D01*
G01*
D22*
X273693257Y-112309568D02*
X273693257Y-109709568D01*
X273493257Y-109509568D02*
X270093257Y-109509568D01*
X270093257Y-112509568D02*
X273493257Y-112509568D01*
X269893257Y-109709568D02*
X269893257Y-112309568D01*
X273493257Y-109509568D02*
G75*
G02*
X273693257Y-109709568I-1J-200001D01*
G01*
X273693257Y-112309568D02*
G75*
G02*
X273493257Y-112509568I-200001J1D01*
G01*
X269893257Y-109709568D02*
G75*
G02*
X270093257Y-109509568I200000J0D01*
G01*
X270093257Y-112509568D02*
G75*
G02*
X269893257Y-112309568I0J200000D01*
G01*
X134051607Y-131432544D02*
X134051607Y-128832544D01*
X133851607Y-128632544D02*
X130451607Y-128632544D01*
X130451607Y-131632544D02*
X133851607Y-131632544D01*
X130251607Y-128832544D02*
X130251607Y-131432544D01*
X133851607Y-128632544D02*
G75*
G02*
X134051607Y-128832544I-1J-200001D01*
G01*
X134051607Y-131432544D02*
G75*
G02*
X133851607Y-131632544I-200001J1D01*
G01*
X130251607Y-128832544D02*
G75*
G02*
X130451607Y-128632544I200000J0D01*
G01*
X130451607Y-131632544D02*
G75*
G02*
X130251607Y-131432544I0J200000D01*
G01*
X76901607Y-155482544D02*
X76901607Y-152882544D01*
X76701607Y-152682544D02*
X73301607Y-152682544D01*
X73301607Y-155682544D02*
X76701607Y-155682544D01*
X73101607Y-152882544D02*
X73101607Y-155482544D01*
X76701607Y-152682544D02*
G75*
G02*
X76901607Y-152882544I-1J-200001D01*
G01*
X76901607Y-155482544D02*
G75*
G02*
X76701607Y-155682544I-200001J1D01*
G01*
X73101607Y-152882544D02*
G75*
G02*
X73301607Y-152682544I200000J0D01*
G01*
X73301607Y-155682544D02*
G75*
G02*
X73101607Y-155482544I0J200000D01*
G01*
X254643257Y-129359568D02*
X254643257Y-126759568D01*
X254443257Y-126559568D02*
X251043257Y-126559568D01*
X251043257Y-129559568D02*
X254443257Y-129559568D01*
X250843257Y-126759568D02*
X250843257Y-129359568D01*
X254443257Y-126559568D02*
G75*
G02*
X254643257Y-126759568I-1J-200001D01*
G01*
X254643257Y-129359568D02*
G75*
G02*
X254443257Y-129559568I-200001J1D01*
G01*
X250843257Y-126759568D02*
G75*
G02*
X251043257Y-126559568I200000J0D01*
G01*
X251043257Y-129559568D02*
G75*
G02*
X250843257Y-129359568I0J200000D01*
G01*
X105476607Y-169532544D02*
X105476607Y-166932544D01*
X105276607Y-166732544D02*
X101876607Y-166732544D01*
X101876607Y-169732544D02*
X105276607Y-169732544D01*
X101676607Y-166932544D02*
X101676607Y-169532544D01*
X105276607Y-166732544D02*
G75*
G02*
X105476607Y-166932544I-1J-200001D01*
G01*
X105476607Y-169532544D02*
G75*
G02*
X105276607Y-169732544I-200001J1D01*
G01*
X101676607Y-166932544D02*
G75*
G02*
X101876607Y-166732544I200000J0D01*
G01*
X101876607Y-169732544D02*
G75*
G02*
X101676607Y-169532544I0J200000D01*
G01*
X143576607Y-172532544D02*
X143576607Y-169932544D01*
X143376607Y-169732544D02*
X139976607Y-169732544D01*
X139976607Y-172732544D02*
X143376607Y-172732544D01*
X139776607Y-169932544D02*
X139776607Y-172532544D01*
X143376607Y-169732544D02*
G75*
G02*
X143576607Y-169932544I-1J-200001D01*
G01*
X143576607Y-172532544D02*
G75*
G02*
X143376607Y-172732544I-200001J1D01*
G01*
X139776607Y-169932544D02*
G75*
G02*
X139976607Y-169732544I200000J0D01*
G01*
X139976607Y-172732544D02*
G75*
G02*
X139776607Y-172532544I0J200000D01*
G01*
X57851607Y-139432544D02*
X57851607Y-136832544D01*
X57651607Y-136632544D02*
X54251607Y-136632544D01*
X54251607Y-139632544D02*
X57651607Y-139632544D01*
X54051607Y-136832544D02*
X54051607Y-139432544D01*
X57651607Y-136632544D02*
G75*
G02*
X57851607Y-136832544I-1J-200001D01*
G01*
X57851607Y-139432544D02*
G75*
G02*
X57651607Y-139632544I-200001J1D01*
G01*
X54051607Y-136832544D02*
G75*
G02*
X54251607Y-136632544I200000J0D01*
G01*
X54251607Y-139632544D02*
G75*
G02*
X54051607Y-139432544I0J200000D01*
G01*
X153101607Y-115382544D02*
X153101607Y-112782544D01*
X152901607Y-112582544D02*
X149501607Y-112582544D01*
X149501607Y-115582544D02*
X152901607Y-115582544D01*
X149301607Y-112782544D02*
X149301607Y-115382544D01*
X152901607Y-112582544D02*
G75*
G02*
X153101607Y-112782544I-1J-200001D01*
G01*
X153101607Y-115382544D02*
G75*
G02*
X152901607Y-115582544I-200001J1D01*
G01*
X149301607Y-112782544D02*
G75*
G02*
X149501607Y-112582544I200000J0D01*
G01*
X149501607Y-115582544D02*
G75*
G02*
X149301607Y-115382544I0J200000D01*
G01*
X273693257Y-150409568D02*
X273693257Y-147809568D01*
X273493257Y-147609568D02*
X270093257Y-147609568D01*
X270093257Y-150609568D02*
X273493257Y-150609568D01*
X269893257Y-147809568D02*
X269893257Y-150409568D01*
X273493257Y-147609568D02*
G75*
G02*
X273693257Y-147809568I-1J-200001D01*
G01*
X273693257Y-150409568D02*
G75*
G02*
X273493257Y-150609568I-200001J1D01*
G01*
X269893257Y-147809568D02*
G75*
G02*
X270093257Y-147609568I200000J0D01*
G01*
X270093257Y-150609568D02*
G75*
G02*
X269893257Y-150409568I0J200000D01*
G01*
X273693257Y-93259568D02*
X273693257Y-90659568D01*
X273493257Y-90459568D02*
X270093257Y-90459568D01*
X270093257Y-93459568D02*
X273493257Y-93459568D01*
X269893257Y-90659568D02*
X269893257Y-93259568D01*
X273493257Y-90459568D02*
G75*
G02*
X273693257Y-90659568I-1J-200001D01*
G01*
X273693257Y-93259568D02*
G75*
G02*
X273493257Y-93459568I-200001J1D01*
G01*
X269893257Y-90659568D02*
G75*
G02*
X270093257Y-90459568I200000J0D01*
G01*
X270093257Y-93459568D02*
G75*
G02*
X269893257Y-93259568I0J200000D01*
G01*
X115001607Y-129432544D02*
X115001607Y-126832544D01*
X114801607Y-126632544D02*
X111401607Y-126632544D01*
X111401607Y-129632544D02*
X114801607Y-129632544D01*
X111201607Y-126832544D02*
X111201607Y-129432544D01*
X114801607Y-126632544D02*
G75*
G02*
X115001607Y-126832544I-1J-200001D01*
G01*
X115001607Y-129432544D02*
G75*
G02*
X114801607Y-129632544I-200001J1D01*
G01*
X111201607Y-126832544D02*
G75*
G02*
X111401607Y-126632544I200000J0D01*
G01*
X111401607Y-129632544D02*
G75*
G02*
X111201607Y-129432544I0J200000D01*
G01*
X134051607Y-150482544D02*
X134051607Y-147882544D01*
X133851607Y-147682544D02*
X130451607Y-147682544D01*
X130451607Y-150682544D02*
X133851607Y-150682544D01*
X130251607Y-147882544D02*
X130251607Y-150482544D01*
X133851607Y-147682544D02*
G75*
G02*
X134051607Y-147882544I-1J-200001D01*
G01*
X134051607Y-150482544D02*
G75*
G02*
X133851607Y-150682544I-200001J1D01*
G01*
X130251607Y-147882544D02*
G75*
G02*
X130451607Y-147682544I200000J0D01*
G01*
X130451607Y-150682544D02*
G75*
G02*
X130251607Y-150482544I0J200000D01*
G01*
X95951607Y-131432544D02*
X95951607Y-128832544D01*
X95751607Y-128632544D02*
X92351607Y-128632544D01*
X92351607Y-131632544D02*
X95751607Y-131632544D01*
X92151607Y-128832544D02*
X92151607Y-131432544D01*
X95751607Y-128632544D02*
G75*
G02*
X95951607Y-128832544I-1J-200001D01*
G01*
X95951607Y-131432544D02*
G75*
G02*
X95751607Y-131632544I-200001J1D01*
G01*
X92151607Y-128832544D02*
G75*
G02*
X92351607Y-128632544I200000J0D01*
G01*
X92351607Y-131632544D02*
G75*
G02*
X92151607Y-131432544I0J200000D01*
G01*
X235593257Y-93259568D02*
X235593257Y-90659568D01*
X235393257Y-90459568D02*
X231993257Y-90459568D01*
X231993257Y-93459568D02*
X235393257Y-93459568D01*
X231793257Y-90659568D02*
X231793257Y-93259568D01*
X235393257Y-90459568D02*
G75*
G02*
X235593257Y-90659568I-1J-200001D01*
G01*
X235593257Y-93259568D02*
G75*
G02*
X235393257Y-93459568I-200001J1D01*
G01*
X231793257Y-90659568D02*
G75*
G02*
X231993257Y-90459568I200000J0D01*
G01*
X231993257Y-93459568D02*
G75*
G02*
X231793257Y-93259568I0J200000D01*
G01*
X115001607Y-110382544D02*
X115001607Y-107782544D01*
X114801607Y-107582544D02*
X111401607Y-107582544D01*
X111401607Y-110582544D02*
X114801607Y-110582544D01*
X111201607Y-107782544D02*
X111201607Y-110382544D01*
X114801607Y-107582544D02*
G75*
G02*
X115001607Y-107782544I-1J-200001D01*
G01*
X115001607Y-110382544D02*
G75*
G02*
X114801607Y-110582544I-200001J1D01*
G01*
X111201607Y-107782544D02*
G75*
G02*
X111401607Y-107582544I200000J0D01*
G01*
X111401607Y-110582544D02*
G75*
G02*
X111201607Y-110382544I0J200000D01*
G01*
X197493257Y-143884568D02*
X197493257Y-141284568D01*
X197293257Y-141084568D02*
X193893257Y-141084568D01*
X193893257Y-144084568D02*
X197293257Y-144084568D01*
X193693257Y-141284568D02*
X193693257Y-143884568D01*
X197293257Y-141084568D02*
G75*
G02*
X197493257Y-141284568I-1J-200001D01*
G01*
X197493257Y-143884568D02*
G75*
G02*
X197293257Y-144084568I-200001J1D01*
G01*
X193693257Y-141284568D02*
G75*
G02*
X193893257Y-141084568I200000J0D01*
G01*
X193893257Y-144084568D02*
G75*
G02*
X193693257Y-143884568I0J200000D01*
G01*
X254643257Y-91259568D02*
X254643257Y-88659568D01*
X254443257Y-88459568D02*
X251043257Y-88459568D01*
X251043257Y-91459568D02*
X254443257Y-91459568D01*
X250843257Y-88659568D02*
X250843257Y-91259568D01*
X254443257Y-88459568D02*
G75*
G02*
X254643257Y-88659568I-1J-200001D01*
G01*
X254643257Y-91259568D02*
G75*
G02*
X254443257Y-91459568I-200001J1D01*
G01*
X250843257Y-88659568D02*
G75*
G02*
X251043257Y-88459568I200000J0D01*
G01*
X251043257Y-91459568D02*
G75*
G02*
X250843257Y-91259568I0J200000D01*
G01*
X173160137Y-167775356D02*
X170803737Y-166676548D01*
X170537951Y-166773286D02*
X169101049Y-169854733D01*
X171819973Y-171122588D02*
X173256875Y-168041141D01*
X169197787Y-170120518D02*
X171554187Y-171219326D01*
X170537951Y-166773286D02*
G75*
G02*
X170803737Y-166676548I181262J-84525D01*
G01*
X173160137Y-167775356D02*
G75*
G02*
X173256875Y-168041141I-84525J-181262D01*
G01*
X169197787Y-170120518D02*
G75*
G02*
X169101049Y-169854733I84524J181262D01*
G01*
X171819973Y-171122588D02*
G75*
G02*
X171554187Y-171219326I-181262J84524D01*
G01*
X153101607Y-153482544D02*
X153101607Y-150882544D01*
X152901607Y-150682544D02*
X149501607Y-150682544D01*
X149501607Y-153682544D02*
X152901607Y-153682544D01*
X149301607Y-150882544D02*
X149301607Y-153482544D01*
X152901607Y-150682544D02*
G75*
G02*
X153101607Y-150882544I-1J-200001D01*
G01*
X153101607Y-153482544D02*
G75*
G02*
X152901607Y-153682544I-200001J1D01*
G01*
X149301607Y-150882544D02*
G75*
G02*
X149501607Y-150682544I200000J0D01*
G01*
X149501607Y-153682544D02*
G75*
G02*
X149301607Y-153482544I0J200000D01*
G01*
X226068257Y-172459568D02*
X226068257Y-169859568D01*
X225868257Y-169659568D02*
X222468257Y-169659568D01*
X222468257Y-172659568D02*
X225868257Y-172659568D01*
X222268257Y-169859568D02*
X222268257Y-172459568D01*
X225868257Y-169659568D02*
G75*
G02*
X226068257Y-169859568I-1J-200001D01*
G01*
X226068257Y-172459568D02*
G75*
G02*
X225868257Y-172659568I-200001J1D01*
G01*
X222268257Y-169859568D02*
G75*
G02*
X222468257Y-169659568I200000J0D01*
G01*
X222468257Y-172659568D02*
G75*
G02*
X222268257Y-172459568I0J200000D01*
G01*
X216543257Y-96259568D02*
X216543257Y-93659568D01*
X216343257Y-93459568D02*
X212943257Y-93459568D01*
X212943257Y-96459568D02*
X216343257Y-96459568D01*
X212743257Y-93659568D02*
X212743257Y-96259568D01*
X216343257Y-93459568D02*
G75*
G02*
X216543257Y-93659568I-1J-200001D01*
G01*
X216543257Y-96259568D02*
G75*
G02*
X216343257Y-96459568I-200001J1D01*
G01*
X212743257Y-93659568D02*
G75*
G02*
X212943257Y-93459568I200000J0D01*
G01*
X212943257Y-96459568D02*
G75*
G02*
X212743257Y-96259568I0J200000D01*
G01*
X124526607Y-169532544D02*
X124526607Y-166932544D01*
X124326607Y-166732544D02*
X120926607Y-166732544D01*
X120926607Y-169732544D02*
X124326607Y-169732544D01*
X120726607Y-166932544D02*
X120726607Y-169532544D01*
X124326607Y-166732544D02*
G75*
G02*
X124526607Y-166932544I-1J-200001D01*
G01*
X124526607Y-169532544D02*
G75*
G02*
X124326607Y-169732544I-200001J1D01*
G01*
X120726607Y-166932544D02*
G75*
G02*
X120926607Y-166732544I200000J0D01*
G01*
X120926607Y-169732544D02*
G75*
G02*
X120726607Y-169532544I0J200000D01*
G01*
X134051607Y-93332544D02*
X134051607Y-90732544D01*
X133851607Y-90532544D02*
X130451607Y-90532544D01*
X130451607Y-93532544D02*
X133851607Y-93532544D01*
X130251607Y-90732544D02*
X130251607Y-93332544D01*
X133851607Y-90532544D02*
G75*
G02*
X134051607Y-90732544I-1J-200001D01*
G01*
X134051607Y-93332544D02*
G75*
G02*
X133851607Y-93532544I-200001J1D01*
G01*
X130251607Y-90732544D02*
G75*
G02*
X130451607Y-90532544I200000J0D01*
G01*
X130451607Y-93532544D02*
G75*
G02*
X130251607Y-93332544I0J200000D01*
G01*
X57851607Y-120382544D02*
X57851607Y-117782544D01*
X57651607Y-117582544D02*
X54251607Y-117582544D01*
X54251607Y-120582544D02*
X57651607Y-120582544D01*
X54051607Y-117782544D02*
X54051607Y-120382544D01*
X57651607Y-117582544D02*
G75*
G02*
X57851607Y-117782544I-1J-200001D01*
G01*
X57851607Y-120382544D02*
G75*
G02*
X57651607Y-120582544I-200001J1D01*
G01*
X54051607Y-117782544D02*
G75*
G02*
X54251607Y-117582544I200000J0D01*
G01*
X54251607Y-120582544D02*
G75*
G02*
X54051607Y-120382544I0J200000D01*
G01*
X311793257Y-158409568D02*
X311793257Y-155809568D01*
X311593257Y-155609568D02*
X308193257Y-155609568D01*
X308193257Y-158609568D02*
X311593257Y-158609568D01*
X307993257Y-155809568D02*
X307993257Y-158409568D01*
X311593257Y-155609568D02*
G75*
G02*
X311793257Y-155809568I-1J-200001D01*
G01*
X311793257Y-158409568D02*
G75*
G02*
X311593257Y-158609568I-200001J1D01*
G01*
X307993257Y-155809568D02*
G75*
G02*
X308193257Y-155609568I200000J0D01*
G01*
X308193257Y-158609568D02*
G75*
G02*
X307993257Y-158409568I0J200000D01*
G01*
X254643257Y-148409568D02*
X254643257Y-145809568D01*
X254443257Y-145609568D02*
X251043257Y-145609568D01*
X251043257Y-148609568D02*
X254443257Y-148609568D01*
X250843257Y-145809568D02*
X250843257Y-148409568D01*
X254443257Y-145609568D02*
G75*
G02*
X254643257Y-145809568I-1J-200001D01*
G01*
X254643257Y-148409568D02*
G75*
G02*
X254443257Y-148609568I-200001J1D01*
G01*
X250843257Y-145809568D02*
G75*
G02*
X251043257Y-145609568I200000J0D01*
G01*
X251043257Y-148609568D02*
G75*
G02*
X250843257Y-148409568I0J200000D01*
G01*
X235593257Y-112309568D02*
X235593257Y-109709568D01*
X235393257Y-109509568D02*
X231993257Y-109509568D01*
X231993257Y-112509568D02*
X235393257Y-112509568D01*
X231793257Y-109709568D02*
X231793257Y-112309568D01*
X235393257Y-109509568D02*
G75*
G02*
X235593257Y-109709568I-1J-200001D01*
G01*
X235593257Y-112309568D02*
G75*
G02*
X235393257Y-112509568I-200001J1D01*
G01*
X231793257Y-109709568D02*
G75*
G02*
X231993257Y-109509568I200000J0D01*
G01*
X231993257Y-112509568D02*
G75*
G02*
X231793257Y-112309568I0J200000D01*
G01*
X311793257Y-101259568D02*
X311793257Y-98659568D01*
X311593257Y-98459568D02*
X308193257Y-98459568D01*
X308193257Y-101459568D02*
X311593257Y-101459568D01*
X307993257Y-98659568D02*
X307993257Y-101259568D01*
X311593257Y-98459568D02*
G75*
G02*
X311793257Y-98659568I-1J-200001D01*
G01*
X311793257Y-101259568D02*
G75*
G02*
X311593257Y-101459568I-200001J1D01*
G01*
X307993257Y-98659568D02*
G75*
G02*
X308193257Y-98459568I200000J0D01*
G01*
X308193257Y-101459568D02*
G75*
G02*
X307993257Y-101259568I0J200000D01*
G01*
D21*
X204293257Y-117779568D02*
G75*
G02*
X201893257Y-117779568I-1200000J0D01*
G01*
X201893257Y-117779568D02*
G75*
G02*
X204293257Y-117779568I1200000J0D01*
G01*
D22*
X273693257Y-131359568D02*
X273693257Y-128759568D01*
X273493257Y-128559568D02*
X270093257Y-128559568D01*
X270093257Y-131559568D02*
X273493257Y-131559568D01*
X269893257Y-128759568D02*
X269893257Y-131359568D01*
X273493257Y-128559568D02*
G75*
G02*
X273693257Y-128759568I-1J-200001D01*
G01*
X273693257Y-131359568D02*
G75*
G02*
X273493257Y-131559568I-200001J1D01*
G01*
X269893257Y-128759568D02*
G75*
G02*
X270093257Y-128559568I200000J0D01*
G01*
X270093257Y-131559568D02*
G75*
G02*
X269893257Y-131359568I0J200000D01*
G01*
X254643257Y-110309568D02*
X254643257Y-107709568D01*
X254443257Y-107509568D02*
X251043257Y-107509568D01*
X251043257Y-110509568D02*
X254443257Y-110509568D01*
X250843257Y-107709568D02*
X250843257Y-110309568D01*
X254443257Y-107509568D02*
G75*
G02*
X254643257Y-107709568I-1J-200001D01*
G01*
X254643257Y-110309568D02*
G75*
G02*
X254443257Y-110509568I-200001J1D01*
G01*
X250843257Y-107709568D02*
G75*
G02*
X251043257Y-107509568I200000J0D01*
G01*
X251043257Y-110509568D02*
G75*
G02*
X250843257Y-110309568I0J200000D01*
G01*
X292743257Y-98259568D02*
X292743257Y-95659568D01*
X292543257Y-95459568D02*
X289143257Y-95459568D01*
X289143257Y-98459568D02*
X292543257Y-98459568D01*
X288943257Y-95659568D02*
X288943257Y-98259568D01*
X292543257Y-95459568D02*
G75*
G02*
X292743257Y-95659568I-1J-200001D01*
G01*
X292743257Y-98259568D02*
G75*
G02*
X292543257Y-98459568I-200001J1D01*
G01*
X288943257Y-95659568D02*
G75*
G02*
X289143257Y-95459568I200000J0D01*
G01*
X289143257Y-98459568D02*
G75*
G02*
X288943257Y-98259568I0J200000D01*
G01*
X57851607Y-101332544D02*
X57851607Y-98732544D01*
X57651607Y-98532544D02*
X54251607Y-98532544D01*
X54251607Y-101532544D02*
X57651607Y-101532544D01*
X54051607Y-98732544D02*
X54051607Y-101332544D01*
X57651607Y-98532544D02*
G75*
G02*
X57851607Y-98732544I-1J-200001D01*
G01*
X57851607Y-101332544D02*
G75*
G02*
X57651607Y-101532544I-200001J1D01*
G01*
X54051607Y-98732544D02*
G75*
G02*
X54251607Y-98532544I200000J0D01*
G01*
X54251607Y-101532544D02*
G75*
G02*
X54051607Y-101332544I0J200000D01*
G01*
X216543257Y-134359568D02*
X216543257Y-131759568D01*
X216343257Y-131559568D02*
X212943257Y-131559568D01*
X212943257Y-134559568D02*
X216343257Y-134559568D01*
X212743257Y-131759568D02*
X212743257Y-134359568D01*
X216343257Y-131559568D02*
G75*
G02*
X216543257Y-131759568I-1J-200001D01*
G01*
X216543257Y-134359568D02*
G75*
G02*
X216343257Y-134559568I-200001J1D01*
G01*
X212743257Y-131759568D02*
G75*
G02*
X212943257Y-131559568I200000J0D01*
G01*
X212943257Y-134559568D02*
G75*
G02*
X212743257Y-134359568I0J200000D01*
G01*
X57851607Y-158482544D02*
X57851607Y-155882544D01*
X57651607Y-155682544D02*
X54251607Y-155682544D01*
X54251607Y-158682544D02*
X57651607Y-158682544D01*
X54051607Y-155882544D02*
X54051607Y-158482544D01*
X57651607Y-155682544D02*
G75*
G02*
X57851607Y-155882544I-1J-200001D01*
G01*
X57851607Y-158482544D02*
G75*
G02*
X57651607Y-158682544I-200001J1D01*
G01*
X54051607Y-155882544D02*
G75*
G02*
X54251607Y-155682544I200000J0D01*
G01*
X54251607Y-158682544D02*
G75*
G02*
X54051607Y-158482544I0J200000D01*
G01*
X153101607Y-134432544D02*
X153101607Y-131832544D01*
X152901607Y-131632544D02*
X149501607Y-131632544D01*
X149501607Y-134632544D02*
X152901607Y-134632544D01*
X149301607Y-131832544D02*
X149301607Y-134432544D01*
X152901607Y-131632544D02*
G75*
G02*
X153101607Y-131832544I-1J-200001D01*
G01*
X153101607Y-134432544D02*
G75*
G02*
X152901607Y-134632544I-200001J1D01*
G01*
X149301607Y-131832544D02*
G75*
G02*
X149501607Y-131632544I200000J0D01*
G01*
X149501607Y-134632544D02*
G75*
G02*
X149301607Y-134432544I0J200000D01*
G01*
X311793257Y-139359568D02*
X311793257Y-136759568D01*
X311593257Y-136559568D02*
X308193257Y-136559568D01*
X308193257Y-139559568D02*
X311593257Y-139559568D01*
X307993257Y-136759568D02*
X307993257Y-139359568D01*
X311593257Y-136559568D02*
G75*
G02*
X311793257Y-136759568I-1J-200001D01*
G01*
X311793257Y-139359568D02*
G75*
G02*
X311593257Y-139559568I-200001J1D01*
G01*
X307993257Y-136759568D02*
G75*
G02*
X308193257Y-136559568I200000J0D01*
G01*
X308193257Y-139559568D02*
G75*
G02*
X307993257Y-139359568I0J200000D01*
G01*
X292743257Y-136359568D02*
X292743257Y-133759568D01*
X292543257Y-133559568D02*
X289143257Y-133559568D01*
X289143257Y-136559568D02*
X292543257Y-136559568D01*
X288943257Y-133759568D02*
X288943257Y-136359568D01*
X292543257Y-133559568D02*
G75*
G02*
X292743257Y-133759568I-1J-200001D01*
G01*
X292743257Y-136359568D02*
G75*
G02*
X292543257Y-136559568I-200001J1D01*
G01*
X288943257Y-133759568D02*
G75*
G02*
X289143257Y-133559568I200000J0D01*
G01*
X289143257Y-136559568D02*
G75*
G02*
X288943257Y-136359568I0J200000D01*
G01*
X292743257Y-155409568D02*
X292743257Y-152809568D01*
X292543257Y-152609568D02*
X289143257Y-152609568D01*
X289143257Y-155609568D02*
X292543257Y-155609568D01*
X288943257Y-152809568D02*
X288943257Y-155409568D01*
X292543257Y-152609568D02*
G75*
G02*
X292743257Y-152809568I-1J-200001D01*
G01*
X292743257Y-155409568D02*
G75*
G02*
X292543257Y-155609568I-200001J1D01*
G01*
X288943257Y-152809568D02*
G75*
G02*
X289143257Y-152609568I200000J0D01*
G01*
X289143257Y-155609568D02*
G75*
G02*
X288943257Y-155409568I0J200000D01*
G01*
X95951607Y-150482544D02*
X95951607Y-147882544D01*
X95751607Y-147682544D02*
X92351607Y-147682544D01*
X92351607Y-150682544D02*
X95751607Y-150682544D01*
X92151607Y-147882544D02*
X92151607Y-150482544D01*
X95751607Y-147682544D02*
G75*
G02*
X95951607Y-147882544I-1J-200001D01*
G01*
X95951607Y-150482544D02*
G75*
G02*
X95751607Y-150682544I-200001J1D01*
G01*
X92151607Y-147882544D02*
G75*
G02*
X92351607Y-147682544I200000J0D01*
G01*
X92351607Y-150682544D02*
G75*
G02*
X92151607Y-150482544I0J200000D01*
G01*
X134051607Y-112382544D02*
X134051607Y-109782544D01*
X133851607Y-109582544D02*
X130451607Y-109582544D01*
X130451607Y-112582544D02*
X133851607Y-112582544D01*
X130251607Y-109782544D02*
X130251607Y-112382544D01*
X133851607Y-109582544D02*
G75*
G02*
X134051607Y-109782544I-1J-200001D01*
G01*
X134051607Y-112382544D02*
G75*
G02*
X133851607Y-112582544I-200001J1D01*
G01*
X130251607Y-109782544D02*
G75*
G02*
X130451607Y-109582544I200000J0D01*
G01*
X130451607Y-112582544D02*
G75*
G02*
X130251607Y-112382544I0J200000D01*
G01*
X194290677Y-171146350D02*
X196647077Y-170047542D01*
X196743815Y-169781757D02*
X195306913Y-166700310D01*
X192587989Y-167968165D02*
X194024891Y-171049612D01*
X195041127Y-166603572D02*
X192684727Y-167702380D01*
X196743815Y-169781757D02*
G75*
G02*
X196647077Y-170047542I-181263J-84523D01*
G01*
X194290677Y-171146350D02*
G75*
G02*
X194024891Y-171049612I-84524J181263D01*
G01*
X195041127Y-166603572D02*
G75*
G02*
X195306913Y-166700310I84524J-181262D01*
G01*
X192587989Y-167968165D02*
G75*
G02*
X192684727Y-167702380I181262J84523D01*
G01*
X95951607Y-93332544D02*
X95951607Y-90732544D01*
X95751607Y-90532544D02*
X92351607Y-90532544D01*
X92351607Y-93532544D02*
X95751607Y-93532544D01*
X92151607Y-90732544D02*
X92151607Y-93332544D01*
X95751607Y-90532544D02*
G75*
G02*
X95951607Y-90732544I-1J-200001D01*
G01*
X95951607Y-93332544D02*
G75*
G02*
X95751607Y-93532544I-200001J1D01*
G01*
X92151607Y-90732544D02*
G75*
G02*
X92351607Y-90532544I200000J0D01*
G01*
X92351607Y-93532544D02*
G75*
G02*
X92151607Y-93332544I0J200000D01*
G01*
X216543257Y-153409568D02*
X216543257Y-150809568D01*
X216343257Y-150609568D02*
X212943257Y-150609568D01*
X212943257Y-153609568D02*
X216343257Y-153609568D01*
X212743257Y-150809568D02*
X212743257Y-153409568D01*
X216343257Y-150609568D02*
G75*
G02*
X216543257Y-150809568I-1J-200001D01*
G01*
X216543257Y-153409568D02*
G75*
G02*
X216343257Y-153609568I-200001J1D01*
G01*
X212743257Y-150809568D02*
G75*
G02*
X212943257Y-150609568I200000J0D01*
G01*
X212943257Y-153609568D02*
G75*
G02*
X212743257Y-153409568I0J200000D01*
G01*
X76901607Y-117382544D02*
X76901607Y-114782544D01*
X76701607Y-114582544D02*
X73301607Y-114582544D01*
X73301607Y-117582544D02*
X76701607Y-117582544D01*
X73101607Y-114782544D02*
X73101607Y-117382544D01*
X76701607Y-114582544D02*
G75*
G02*
X76901607Y-114782544I-1J-200001D01*
G01*
X76901607Y-117382544D02*
G75*
G02*
X76701607Y-117582544I-200001J1D01*
G01*
X73101607Y-114782544D02*
G75*
G02*
X73301607Y-114582544I200000J0D01*
G01*
X73301607Y-117582544D02*
G75*
G02*
X73101607Y-117382544I0J200000D01*
G01*
X76901607Y-98332544D02*
X76901607Y-95732544D01*
X76701607Y-95532544D02*
X73301607Y-95532544D01*
X73301607Y-98532544D02*
X76701607Y-98532544D01*
X73101607Y-95732544D02*
X73101607Y-98332544D01*
X76701607Y-95532544D02*
G75*
G02*
X76901607Y-95732544I-1J-200001D01*
G01*
X76901607Y-98332544D02*
G75*
G02*
X76701607Y-98532544I-200001J1D01*
G01*
X73101607Y-95732544D02*
G75*
G02*
X73301607Y-95532544I200000J0D01*
G01*
X73301607Y-98532544D02*
G75*
G02*
X73101607Y-98332544I0J200000D01*
G01*
X216543257Y-115309568D02*
X216543257Y-112709568D01*
X216343257Y-112509568D02*
X212943257Y-112509568D01*
X212943257Y-115509568D02*
X216343257Y-115509568D01*
X212743257Y-112709568D02*
X212743257Y-115309568D01*
X216343257Y-112509568D02*
G75*
G02*
X216543257Y-112709568I-1J-200001D01*
G01*
X216543257Y-115309568D02*
G75*
G02*
X216343257Y-115509568I-200001J1D01*
G01*
X212743257Y-112709568D02*
G75*
G02*
X212943257Y-112509568I200000J0D01*
G01*
X212943257Y-115509568D02*
G75*
G02*
X212743257Y-115309568I0J200000D01*
G01*
X235593257Y-131359568D02*
X235593257Y-128759568D01*
X235393257Y-128559568D02*
X231993257Y-128559568D01*
X231993257Y-131559568D02*
X235393257Y-131559568D01*
X231793257Y-128759568D02*
X231793257Y-131359568D01*
X235393257Y-128559568D02*
G75*
G02*
X235593257Y-128759568I-1J-200001D01*
G01*
X235593257Y-131359568D02*
G75*
G02*
X235393257Y-131559568I-200001J1D01*
G01*
X231793257Y-128759568D02*
G75*
G02*
X231993257Y-128559568I200000J0D01*
G01*
X231993257Y-131559568D02*
G75*
G02*
X231793257Y-131359568I0J200000D01*
G01*
X115001607Y-148482544D02*
X115001607Y-145882544D01*
X114801607Y-145682544D02*
X111401607Y-145682544D01*
X111401607Y-148682544D02*
X114801607Y-148682544D01*
X111201607Y-145882544D02*
X111201607Y-148482544D01*
X114801607Y-145682544D02*
G75*
G02*
X115001607Y-145882544I-1J-200001D01*
G01*
X115001607Y-148482544D02*
G75*
G02*
X114801607Y-148682544I-200001J1D01*
G01*
X111201607Y-145882544D02*
G75*
G02*
X111401607Y-145682544I200000J0D01*
G01*
X111401607Y-148682544D02*
G75*
G02*
X111201607Y-148482544I0J200000D01*
G01*
X115001607Y-91332544D02*
X115001607Y-88732544D01*
X114801607Y-88532544D02*
X111401607Y-88532544D01*
X111401607Y-91532544D02*
X114801607Y-91532544D01*
X111201607Y-88732544D02*
X111201607Y-91332544D01*
X114801607Y-88532544D02*
G75*
G02*
X115001607Y-88732544I-1J-200001D01*
G01*
X115001607Y-91332544D02*
G75*
G02*
X114801607Y-91532544I-200001J1D01*
G01*
X111201607Y-88732544D02*
G75*
G02*
X111401607Y-88532544I200000J0D01*
G01*
X111401607Y-91532544D02*
G75*
G02*
X111201607Y-91332544I0J200000D01*
G01*
X264168257Y-169459568D02*
X264168257Y-166859568D01*
X263968257Y-166659568D02*
X260568257Y-166659568D01*
X260568257Y-169659568D02*
X263968257Y-169659568D01*
X260368257Y-166859568D02*
X260368257Y-169459568D01*
X263968257Y-166659568D02*
G75*
G02*
X264168257Y-166859568I-1J-200001D01*
G01*
X264168257Y-169459568D02*
G75*
G02*
X263968257Y-169659568I-200001J1D01*
G01*
X260368257Y-166859568D02*
G75*
G02*
X260568257Y-166659568I200000J0D01*
G01*
X260568257Y-169659568D02*
G75*
G02*
X260368257Y-169459568I0J200000D01*
G01*
X311793257Y-120309568D02*
X311793257Y-117709568D01*
X311593257Y-117509568D02*
X308193257Y-117509568D01*
X308193257Y-120509568D02*
X311593257Y-120509568D01*
X307993257Y-117709568D02*
X307993257Y-120309568D01*
X311593257Y-117509568D02*
G75*
G02*
X311793257Y-117709568I-1J-200001D01*
G01*
X311793257Y-120309568D02*
G75*
G02*
X311593257Y-120509568I-200001J1D01*
G01*
X307993257Y-117709568D02*
G75*
G02*
X308193257Y-117509568I200000J0D01*
G01*
X308193257Y-120509568D02*
G75*
G02*
X307993257Y-120309568I0J200000D01*
G01*
X172151607Y-143957544D02*
X172151607Y-141357544D01*
X171951607Y-141157544D02*
X168551607Y-141157544D01*
X168551607Y-144157544D02*
X171951607Y-144157544D01*
X168351607Y-141357544D02*
X168351607Y-143957544D01*
X171951607Y-141157544D02*
G75*
G02*
X172151607Y-141357544I-1J-200001D01*
G01*
X172151607Y-143957544D02*
G75*
G02*
X171951607Y-144157544I-200001J1D01*
G01*
X168351607Y-141357544D02*
G75*
G02*
X168551607Y-141157544I200000J0D01*
G01*
X168551607Y-144157544D02*
G75*
G02*
X168351607Y-143957544I0J200000D01*
G01*
X76901607Y-136432544D02*
X76901607Y-133832544D01*
X76701607Y-133632544D02*
X73301607Y-133632544D01*
X73301607Y-136632544D02*
X76701607Y-136632544D01*
X73101607Y-133832544D02*
X73101607Y-136432544D01*
X76701607Y-133632544D02*
G75*
G02*
X76901607Y-133832544I-1J-200001D01*
G01*
X76901607Y-136432544D02*
G75*
G02*
X76701607Y-136632544I-200001J1D01*
G01*
X73101607Y-133832544D02*
G75*
G02*
X73301607Y-133632544I200000J0D01*
G01*
X73301607Y-136632544D02*
G75*
G02*
X73101607Y-136432544I0J200000D01*
G01*
X153101607Y-96332544D02*
X153101607Y-93732544D01*
X152901607Y-93532544D02*
X149501607Y-93532544D01*
X149501607Y-96532544D02*
X152901607Y-96532544D01*
X149301607Y-93732544D02*
X149301607Y-96332544D01*
X152901607Y-93532544D02*
G75*
G02*
X153101607Y-93732544I-1J-200001D01*
G01*
X153101607Y-96332544D02*
G75*
G02*
X152901607Y-96532544I-200001J1D01*
G01*
X149301607Y-93732544D02*
G75*
G02*
X149501607Y-93532544I200000J0D01*
G01*
X149501607Y-96532544D02*
G75*
G02*
X149301607Y-96332544I0J200000D01*
G01*
X245118257Y-169459568D02*
X245118257Y-166859568D01*
X244918257Y-166659568D02*
X241518257Y-166659568D01*
X241518257Y-169659568D02*
X244918257Y-169659568D01*
X241318257Y-166859568D02*
X241318257Y-169459568D01*
X244918257Y-166659568D02*
G75*
G02*
X245118257Y-166859568I-1J-200001D01*
G01*
X245118257Y-169459568D02*
G75*
G02*
X244918257Y-169659568I-200001J1D01*
G01*
X241318257Y-166859568D02*
G75*
G02*
X241518257Y-166659568I200000J0D01*
G01*
X241518257Y-169659568D02*
G75*
G02*
X241318257Y-169459568I0J200000D01*
G01*
X292743257Y-117309568D02*
X292743257Y-114709568D01*
X292543257Y-114509568D02*
X289143257Y-114509568D01*
X289143257Y-117509568D02*
X292543257Y-117509568D01*
X288943257Y-114709568D02*
X288943257Y-117309568D01*
X292543257Y-114509568D02*
G75*
G02*
X292743257Y-114709568I-1J-200001D01*
G01*
X292743257Y-117309568D02*
G75*
G02*
X292543257Y-117509568I-200001J1D01*
G01*
X288943257Y-114709568D02*
G75*
G02*
X289143257Y-114509568I200000J0D01*
G01*
X289143257Y-117509568D02*
G75*
G02*
X288943257Y-117309568I0J200000D01*
G01*
X95951607Y-112382544D02*
X95951607Y-109782544D01*
X95751607Y-109582544D02*
X92351607Y-109582544D01*
X92351607Y-112582544D02*
X95751607Y-112582544D01*
X92151607Y-109782544D02*
X92151607Y-112382544D01*
X95751607Y-109582544D02*
G75*
G02*
X95951607Y-109782544I-1J-200001D01*
G01*
X95951607Y-112382544D02*
G75*
G02*
X95751607Y-112582544I-200001J1D01*
G01*
X92151607Y-109782544D02*
G75*
G02*
X92351607Y-109582544I200000J0D01*
G01*
X92351607Y-112582544D02*
G75*
G02*
X92151607Y-112382544I0J200000D01*
G01*
X235593257Y-150409568D02*
X235593257Y-147809568D01*
X235393257Y-147609568D02*
X231993257Y-147609568D01*
X231993257Y-150609568D02*
X235393257Y-150609568D01*
X231793257Y-147809568D02*
X231793257Y-150409568D01*
X235393257Y-147609568D02*
G75*
G02*
X235593257Y-147809568I-1J-200001D01*
G01*
X235593257Y-150409568D02*
G75*
G02*
X235393257Y-150609568I-200001J1D01*
G01*
X231793257Y-147809568D02*
G75*
G02*
X231993257Y-147609568I200000J0D01*
G01*
X231993257Y-150609568D02*
G75*
G02*
X231793257Y-150409568I0J200000D01*
G01*
M02*
