M48
; DRILL file {KiCad 9.0.3} date 2025-08-01T02:34:46-0400
; FORMAT={-:-/ absolute / metric / decimal}
; #@! TF.CreationDate,2025-08-01T02:34:46-04:00
; #@! TF.GenerationSoftware,Kicad,Pcbnew,9.0.3
; #@! TF.FileFunction,Plated,1,2,PTH
FMAT,2
METRIC
; #@! TA.AperFunction,Plated,PTH,ViaDrill
T1C0.400
; #@! TA.AperFunction,Plated,PTH,ComponentDrill
T2C0.750
; #@! TA.AperFunction,Plated,PTH,ComponentDrill
T3C1.000
; #@! TA.AperFunction,Plated,PTH,ComponentDrill
T4C1.092
; #@! TA.AperFunction,Plated,PTH,ComponentDrill
T5C1.400
%
G90
G05
T1
X48.213Y-94.631
X49.031Y-128.278
X49.227Y-147.328
X49.235Y-109.028
X51.645Y-155.809
X51.72Y-136.834
X51.794Y-98.66
X51.87Y-117.383
X57.776Y-140.525
X58.627Y-101.924
X58.627Y-121.202
X60.077Y-156.978
X62.459Y-179.8
X62.898Y-174.367
X62.975Y-178.944
X63.823Y-178.414
X67.263Y-95.603
X68.327Y-144.178
X68.427Y-125.028
X68.577Y-105.778
X68.726Y-156.203
X70.72Y-152.834
X70.768Y-133.887
X70.877Y-95.678
X70.931Y-114.998
X77.677Y-99.249
X77.677Y-118.339
X77.677Y-137.389
X79.177Y-154.178
X86.313Y-90.632
X86.666Y-151.287
X87.427Y-138.978
X87.552Y-100.853
X87.577Y-120.028
X89.595Y-147.908
X89.677Y-90.778
X89.745Y-109.709
X89.82Y-128.834
X96.727Y-94.078
X96.727Y-113.302
X96.727Y-132.389
X96.727Y-151.378
X99.377Y-167.078
X105.177Y-87.878
X106.427Y-99.278
X106.677Y-136.978
X106.827Y-117.828
X107.777Y-168.678
X108.677Y-88.678
X108.82Y-107.734
X108.845Y-126.809
X109.014Y-145.39
X114.477Y-153.778
X115.777Y-92.178
X115.777Y-111.339
X115.777Y-130.389
X115.777Y-149.628
X118.477Y-166.978
X124.412Y-90.053
X125.577Y-120.228
X125.827Y-138.828
X125.977Y-100.603
X126.877Y-168.478
X127.87Y-128.784
X127.877Y-90.778
X128.077Y-109.378
X128.177Y-147.378
X133.477Y-155.578
X134.777Y-151.278
X134.827Y-94.289
X134.827Y-113.339
X134.827Y-132.389
X137.477Y-170.078
X142.977Y-92.182
X142.977Y-141.878
X144.627Y-104.128
X144.677Y-123.178
X145.977Y-171.478
X146.877Y-93.678
X146.895Y-112.709
X146.945Y-131.809
X147.077Y-150.378
X153.877Y-97.289
X153.877Y-116.339
X153.877Y-135.389
X153.877Y-154.471
X156.102Y-114.103
X156.627Y-133.228
X158.977Y-92.258
X163.277Y-153.478
X165.616Y-129.012
X167.977Y-172.446
X168.977Y-155.296
X169.252Y-122.378
X172.927Y-144.778
X173.268Y-164.534
X174.945Y-121.596
X174.988Y-120.597
X176.627Y-126.128
X178.502Y-126.378
X178.577Y-151.178
X178.627Y-148.778
X178.727Y-146.428
X178.855Y-144.028
X179.127Y-107.028
X179.727Y-137.528
X180.333Y-93.028
X180.362Y-136.755
X184.868Y-118.455
X186.094Y-125.605
X192.498Y-120.705
X194.218Y-155.505
X194.318Y-163.955
X194.618Y-128.855
X194.618Y-151.605
X197.968Y-120.355
X198.268Y-144.755
X200.243Y-151.104
X200.268Y-142.305
X202.718Y-129.255
X203.118Y-147.655
X206.316Y-92.607
X206.587Y-120.823
X206.641Y-104.255
X206.641Y-123.105
X206.641Y-142.205
X207.668Y-112.355
X209.895Y-131.702
X209.949Y-112.662
X209.968Y-150.755
X210.718Y-93.255
X211.918Y-97.155
X216.268Y-156.905
X217.318Y-97.055
X217.318Y-135.005
X217.318Y-154.205
X217.368Y-115.955
X220.168Y-169.355
X225.691Y-100.855
X225.691Y-119.755
X225.691Y-138.905
X226.218Y-95.055
X228.847Y-90.588
X228.968Y-128.005
X229.243Y-109.709
X229.397Y-147.912
X234.668Y-155.955
X236.318Y-151.255
X236.368Y-94.055
X236.368Y-113.105
X236.368Y-132.355
X236.468Y-156.855
X244.618Y-99.505
X244.718Y-93.38
X244.741Y-118.105
X244.741Y-137.255
X248.016Y-126.705
X248.277Y-145.832
X248.318Y-107.709
X248.468Y-88.655
X255.368Y-92.755
X255.418Y-111.005
X255.418Y-130.155
X255.418Y-149.28
X263.193Y-139.205
X263.418Y-92.481
X263.493Y-119.755
X263.543Y-101.105
X267.364Y-128.797
X267.373Y-90.7
X267.43Y-109.777
X267.477Y-147.901
X274.468Y-93.917
X274.468Y-113.305
X274.468Y-132.105
X274.468Y-151.005
X281.218Y-153.955
X282.293Y-106.255
X282.443Y-125.655
X282.468Y-144.205
X283.318Y-95.605
X286.293Y-152.791
X286.348Y-95.67
X286.518Y-114.655
X286.668Y-133.905
X293.518Y-99.205
X293.518Y-118.355
X293.518Y-156.255
X293.568Y-137.305
X301.143Y-128.205
X301.193Y-109.655
X301.193Y-147.555
X301.968Y-100.481
X305.518Y-117.556
X305.568Y-98.705
X305.568Y-136.105
X305.568Y-155.705
X307.243Y-121.155
X312.568Y-102.305
X312.568Y-121.355
X312.568Y-159.305
X312.618Y-140.355
X314.468Y-137.255
X314.718Y-100.305
X316.983Y-151.847
T2
X170.252Y-84.278
X172.252Y-84.278
X195.593Y-84.205
X197.593Y-84.205
T3
X166.432Y-118.328
X168.972Y-118.328
X171.512Y-118.328
X174.052Y-118.328
X191.773Y-118.255
X194.313Y-118.255
X196.853Y-118.255
X199.393Y-118.255
T4
X162.632Y-85.408
X162.632Y-87.948
X162.632Y-90.488
X162.632Y-93.028
X162.632Y-95.568
X162.632Y-98.108
X162.632Y-100.648
X162.632Y-103.188
X162.632Y-105.728
X162.632Y-108.268
X162.632Y-110.808
X162.632Y-113.348
X165.172Y-115.888
X167.712Y-115.888
X170.252Y-108.268
X170.252Y-115.888
X172.792Y-108.268
X172.792Y-115.888
X175.332Y-108.268
X175.332Y-115.888
X177.872Y-85.408
X177.872Y-87.948
X177.872Y-90.488
X177.872Y-93.028
X177.872Y-95.568
X177.872Y-98.108
X177.872Y-100.648
X177.872Y-103.188
X177.872Y-105.728
X177.872Y-108.268
X177.872Y-110.808
X177.872Y-113.348
X187.973Y-85.235
X187.973Y-87.775
X187.973Y-90.315
X187.973Y-92.855
X187.973Y-95.395
X187.973Y-97.935
X187.973Y-100.475
X187.973Y-103.015
X187.973Y-105.555
X187.973Y-108.095
X187.973Y-110.635
X187.973Y-113.175
X190.513Y-115.715
X193.053Y-115.715
X195.593Y-108.095
X195.593Y-115.715
X198.133Y-108.095
X198.133Y-115.715
X200.673Y-108.095
X200.673Y-115.715
X203.213Y-85.235
X203.213Y-87.775
X203.213Y-90.315
X203.213Y-92.855
X203.213Y-95.395
X203.213Y-97.935
X203.213Y-100.475
X203.213Y-103.015
X203.213Y-105.555
X203.213Y-108.095
X203.213Y-110.635
X203.213Y-113.175
T5
X57.348Y-184.523
X65.769Y-165.806
X66.95Y-174.369
X66.95Y-187.464
X74.608Y-179.807
X76.751Y-164.837
X80.046Y-187.464
X81.227Y-196.028
X89.648Y-177.31
M30
