M48
; DRILL file {KiCad 9.0.3} date 2025-08-01T00:25:02-0400
; FORMAT={-:-/ absolute / metric / decimal}
; #@! TF.CreationDate,2025-08-01T00:25:02-04:00
; #@! TF.GenerationSoftware,Kicad,Pcbnew,9.0.3
; #@! TF.FileFunction,Plated,1,2,PTH
FMAT,2
METRIC
; #@! TA.AperFunction,Plated,PTH,ViaDrill
T1C0.400
; #@! TA.AperFunction,Plated,PTH,ComponentDrill
T2C1.000
; #@! TA.AperFunction,Plated,PTH,ComponentDrill
T3C1.092
; #@! TA.AperFunction,Plated,PTH,ComponentDrill
T4C1.400
%
G90
G05
T1
X48.213Y-94.631
X49.031Y-128.278
X49.227Y-147.328
X49.235Y-109.028
X51.645Y-155.809
X51.72Y-136.834
X51.794Y-98.66
X51.87Y-117.383
X57.776Y-140.525
X58.627Y-101.924
X58.627Y-121.202
X60.077Y-156.978
X67.263Y-95.603
X68.327Y-144.178
X68.427Y-125.028
X68.577Y-105.778
X68.726Y-156.203
X70.72Y-152.834
X70.768Y-133.887
X70.877Y-95.678
X70.931Y-114.998
X77.677Y-99.249
X77.677Y-118.339
X77.677Y-137.389
X79.177Y-154.178
X86.313Y-90.632
X86.666Y-151.287
X87.427Y-138.978
X87.552Y-100.853
X87.577Y-120.028
X89.595Y-147.908
X89.677Y-90.778
X89.745Y-109.709
X89.82Y-128.834
X96.727Y-94.078
X96.727Y-113.302
X96.727Y-132.389
X96.727Y-151.378
X99.377Y-167.078
X105.177Y-87.878
X106.427Y-99.278
X106.677Y-136.978
X106.827Y-117.828
X107.777Y-168.678
X108.677Y-88.678
X108.82Y-107.734
X108.845Y-126.809
X109.014Y-145.39
X114.477Y-153.778
X115.777Y-92.178
X115.777Y-111.339
X115.777Y-130.389
X115.777Y-149.628
X118.477Y-166.978
X124.412Y-90.053
X124.5Y-201.666
X124.939Y-196.232
X125.016Y-200.809
X125.577Y-120.228
X125.827Y-138.828
X125.864Y-200.279
X125.977Y-100.603
X126.877Y-168.478
X127.87Y-128.784
X127.877Y-90.778
X128.077Y-109.378
X128.177Y-147.378
X133.477Y-155.578
X134.777Y-151.278
X134.827Y-94.289
X134.827Y-113.339
X134.827Y-132.389
X137.477Y-170.078
X142.977Y-92.182
X142.977Y-141.878
X144.627Y-104.128
X144.677Y-123.178
X145.977Y-171.478
X146.877Y-93.678
X146.895Y-112.709
X146.945Y-131.809
X147.077Y-150.378
X153.877Y-97.289
X153.877Y-116.339
X153.877Y-135.389
X153.877Y-154.471
X156.102Y-114.103
X156.627Y-133.228
X158.977Y-92.258
X163.277Y-153.478
X165.616Y-129.012
X167.977Y-172.446
X168.977Y-155.296
X169.252Y-122.378
X172.927Y-144.778
X173.268Y-164.534
X174.945Y-121.596
X174.988Y-120.597
X176.627Y-126.128
X178.502Y-126.378
X178.577Y-151.178
X178.627Y-148.778
X178.727Y-146.428
X178.855Y-144.028
X179.127Y-107.028
X179.727Y-137.528
X180.333Y-93.028
X180.362Y-136.755
X245.252Y-118.528
X246.478Y-125.678
X252.882Y-120.778
X254.602Y-155.578
X254.702Y-164.028
X255.002Y-128.928
X255.002Y-151.678
X258.352Y-120.428
X258.652Y-144.828
X260.627Y-151.177
X260.652Y-142.378
X263.102Y-129.328
X263.502Y-147.728
X266.699Y-92.68
X266.97Y-120.896
X267.025Y-104.328
X267.025Y-123.178
X267.025Y-142.278
X268.052Y-112.428
X270.279Y-131.775
X270.332Y-112.735
X270.351Y-150.828
X271.102Y-93.328
X272.302Y-97.228
X276.652Y-156.978
X277.702Y-97.128
X277.702Y-135.078
X277.702Y-154.278
X277.752Y-116.028
X280.552Y-169.428
X286.075Y-100.928
X286.075Y-119.828
X286.075Y-138.978
X286.602Y-95.128
X289.23Y-90.661
X289.352Y-128.078
X289.627Y-109.782
X289.781Y-147.985
X295.052Y-156.028
X296.702Y-151.328
X296.752Y-94.128
X296.752Y-113.178
X296.752Y-132.428
X296.852Y-156.928
X305.002Y-99.578
X305.102Y-93.453
X305.125Y-118.178
X305.125Y-137.328
X308.399Y-126.778
X308.661Y-145.905
X308.702Y-107.782
X308.852Y-88.728
X315.752Y-92.828
X315.802Y-111.078
X315.802Y-130.228
X315.802Y-149.353
X323.577Y-139.278
X323.802Y-92.554
X323.877Y-119.828
X323.927Y-101.178
X327.748Y-128.87
X327.756Y-90.773
X327.813Y-109.85
X327.861Y-147.974
X334.852Y-93.99
X334.852Y-113.378
X334.852Y-132.178
X334.852Y-151.078
X341.602Y-154.028
X342.677Y-106.328
X342.827Y-125.728
X342.852Y-144.278
X343.702Y-95.678
X346.677Y-152.864
X346.731Y-95.743
X346.902Y-114.728
X347.052Y-133.978
X353.902Y-99.278
X353.902Y-118.428
X353.902Y-156.328
X353.952Y-137.378
X361.527Y-128.278
X361.577Y-109.728
X361.577Y-147.628
X362.352Y-100.554
X365.902Y-117.629
X365.952Y-98.778
X365.952Y-136.178
X365.952Y-155.778
X367.627Y-121.228
X372.952Y-102.378
X372.952Y-121.428
X372.952Y-159.378
X373.002Y-140.428
X374.852Y-137.328
X375.102Y-100.378
X377.366Y-151.92
T2
X166.432Y-118.328
X168.972Y-118.328
X171.512Y-118.328
X174.052Y-118.328
X252.157Y-118.328
X254.697Y-118.328
X257.237Y-118.328
X259.777Y-118.328
T3
X162.632Y-85.408
X162.632Y-87.948
X162.632Y-90.488
X162.632Y-93.028
X162.632Y-95.568
X162.632Y-98.108
X162.632Y-100.648
X162.632Y-103.188
X162.632Y-105.728
X162.632Y-108.268
X162.632Y-110.808
X162.632Y-113.348
X165.172Y-115.888
X167.712Y-115.888
X170.252Y-108.268
X170.252Y-115.888
X172.792Y-108.268
X172.792Y-115.888
X175.332Y-108.268
X175.332Y-115.888
X177.872Y-85.408
X177.872Y-87.948
X177.872Y-90.488
X177.872Y-93.028
X177.872Y-95.568
X177.872Y-98.108
X177.872Y-100.648
X177.872Y-103.188
X177.872Y-105.728
X177.872Y-108.268
X177.872Y-110.808
X177.872Y-113.348
X248.357Y-85.308
X248.357Y-87.848
X248.357Y-90.388
X248.357Y-92.928
X248.357Y-95.468
X248.357Y-98.008
X248.357Y-100.548
X248.357Y-103.088
X248.357Y-105.628
X248.357Y-108.168
X248.357Y-110.708
X248.357Y-113.248
X250.897Y-115.788
X253.437Y-115.788
X255.977Y-108.168
X255.977Y-115.788
X258.517Y-108.168
X258.517Y-115.788
X261.057Y-108.168
X261.057Y-115.788
X263.597Y-85.308
X263.597Y-87.848
X263.597Y-90.388
X263.597Y-92.928
X263.597Y-95.468
X263.597Y-98.008
X263.597Y-100.548
X263.597Y-103.088
X263.597Y-105.628
X263.597Y-108.168
X263.597Y-110.708
X263.597Y-113.248
T4
X119.389Y-206.388
X127.811Y-187.671
X128.992Y-196.234
X128.992Y-209.33
X136.649Y-201.672
X138.792Y-186.702
X142.087Y-209.33
X143.268Y-217.893
X151.69Y-199.176
M30
