G04 #@! TF.GenerationSoftware,KiCad,Pcbnew,9.0.3*
G04 #@! TF.CreationDate,2025-08-01T00:23:15-04:00*
G04 #@! TF.ProjectId,quartz58,71756172-747a-4353-982e-6b696361645f,rev?*
G04 #@! TF.SameCoordinates,Original*
G04 #@! TF.FileFunction,Copper,L2,Bot*
G04 #@! TF.FilePolarity,Positive*
%FSLAX46Y46*%
G04 Gerber Fmt 4.6, Leading zero omitted, Abs format (unit mm)*
G04 Created by KiCad (PCBNEW 9.0.3) date 2025-08-01 00:23:15*
%MOMM*%
%LPD*%
G01*
G04 APERTURE LIST*
G04 Aperture macros list*
%AMRoundRect*
0 Rectangle with rounded corners*
0 $1 Rounding radius*
0 $2 $3 $4 $5 $6 $7 $8 $9 X,Y pos of 4 corners*
0 Add a 4 corners polygon primitive as box body*
4,1,4,$2,$3,$4,$5,$6,$7,$8,$9,$2,$3,0*
0 Add four circle primitives for the rounded corners*
1,1,$1+$1,$2,$3*
1,1,$1+$1,$4,$5*
1,1,$1+$1,$6,$7*
1,1,$1+$1,$8,$9*
0 Add four rect primitives between the rounded corners*
20,1,$1+$1,$2,$3,$4,$5,0*
20,1,$1+$1,$4,$5,$6,$7,0*
20,1,$1+$1,$6,$7,$8,$9,0*
20,1,$1+$1,$8,$9,$2,$3,0*%
%AMRotRect*
0 Rectangle, with rotation*
0 The origin of the aperture is its center*
0 $1 length*
0 $2 width*
0 $3 Rotation angle, in degrees counterclockwise*
0 Add horizontal line*
21,1,$1,$2,0,0,$3*%
G04 Aperture macros list end*
G04 #@! TA.AperFunction,SMDPad,CuDef*
%ADD10RoundRect,0.250000X-1.025000X-1.000000X1.025000X-1.000000X1.025000X1.000000X-1.025000X1.000000X0*%
G04 #@! TD*
G04 #@! TA.AperFunction,ConnectorPad*
%ADD11RoundRect,0.250000X-1.025000X-1.000000X1.025000X-1.000000X1.025000X1.000000X-1.025000X1.000000X0*%
G04 #@! TD*
G04 #@! TA.AperFunction,ComponentPad*
%ADD12R,1.700000X1.700000*%
G04 #@! TD*
G04 #@! TA.AperFunction,ComponentPad*
%ADD13O,1.700000X1.700000*%
G04 #@! TD*
G04 #@! TA.AperFunction,ComponentPad*
%ADD14C,1.800000*%
G04 #@! TD*
G04 #@! TA.AperFunction,SMDPad,CuDef*
%ADD15RoundRect,0.250000X-1.339492X0.506347X-0.473124X-1.351584X1.339492X-0.506347X0.473124X1.351584X0*%
G04 #@! TD*
G04 #@! TA.AperFunction,ConnectorPad*
%ADD16RoundRect,0.250000X-1.339492X0.506347X-0.473124X-1.351584X1.339492X-0.506347X0.473124X1.351584X0*%
G04 #@! TD*
G04 #@! TA.AperFunction,SMDPad,CuDef*
%ADD17RoundRect,0.250000X0.473124X-1.351584X1.339492X0.506347X-0.473124X1.351584X-1.339492X-0.506347X0*%
G04 #@! TD*
G04 #@! TA.AperFunction,ConnectorPad*
%ADD18RoundRect,0.250000X0.473124X-1.351584X1.339492X0.506347X-0.473124X1.351584X-1.339492X-0.506347X0*%
G04 #@! TD*
G04 #@! TA.AperFunction,ComponentPad*
%ADD19C,1.752600*%
G04 #@! TD*
G04 #@! TA.AperFunction,SMDPad,CuDef*
%ADD20R,1.450000X0.820000*%
G04 #@! TD*
G04 #@! TA.AperFunction,SMDPad,CuDef*
%ADD21RoundRect,0.205000X0.520000X0.205000X-0.520000X0.205000X-0.520000X-0.205000X0.520000X-0.205000X0*%
G04 #@! TD*
G04 #@! TA.AperFunction,SMDPad,CuDef*
%ADD22R,1.000000X3.800000*%
G04 #@! TD*
G04 #@! TA.AperFunction,SMDPad,CuDef*
%ADD23R,1.500000X3.400000*%
G04 #@! TD*
G04 #@! TA.AperFunction,SMDPad,CuDef*
%ADD24RoundRect,0.225000X0.225000X0.375000X-0.225000X0.375000X-0.225000X-0.375000X0.225000X-0.375000X0*%
G04 #@! TD*
G04 #@! TA.AperFunction,SMDPad,CuDef*
%ADD25RoundRect,0.225000X-0.225000X-0.375000X0.225000X-0.375000X0.225000X0.375000X-0.225000X0.375000X0*%
G04 #@! TD*
G04 #@! TA.AperFunction,SMDPad,CuDef*
%ADD26R,0.300000X1.300000*%
G04 #@! TD*
G04 #@! TA.AperFunction,SMDPad,CuDef*
%ADD27R,1.800000X2.200000*%
G04 #@! TD*
G04 #@! TA.AperFunction,SMDPad,CuDef*
%ADD28RotRect,1.450000X0.820000X245.000000*%
G04 #@! TD*
G04 #@! TA.AperFunction,SMDPad,CuDef*
%ADD29RoundRect,0.205000X0.033968X0.557917X-0.405555X-0.384643X-0.033968X-0.557917X0.405555X0.384643X0*%
G04 #@! TD*
G04 #@! TA.AperFunction,SMDPad,CuDef*
%ADD30RotRect,1.450000X0.820000X115.000000*%
G04 #@! TD*
G04 #@! TA.AperFunction,SMDPad,CuDef*
%ADD31RoundRect,0.205000X0.405555X-0.384643X-0.033968X0.557917X-0.405555X0.384643X0.033968X-0.557917X0*%
G04 #@! TD*
G04 #@! TA.AperFunction,ViaPad*
%ADD32C,0.800000*%
G04 #@! TD*
G04 #@! TA.AperFunction,Conductor*
%ADD33C,0.250000*%
G04 #@! TD*
G04 APERTURE END LIST*
D10*
X67916607Y-146562544D03*
X71501607Y-143102544D03*
D11*
X80843607Y-144022544D03*
D10*
X83501607Y-145302544D03*
X286991607Y-122512544D03*
X290576607Y-119052544D03*
D11*
X299918607Y-119972544D03*
D10*
X302576607Y-121252544D03*
X306041607Y-101462544D03*
X309626607Y-98002544D03*
D11*
X318968607Y-98922544D03*
D10*
X321626607Y-100202544D03*
X96491607Y-160612544D03*
X100076607Y-157152544D03*
D11*
X109418607Y-158072544D03*
D10*
X112076607Y-159352544D03*
X144116607Y-144562544D03*
X147701607Y-141102544D03*
D11*
X157043607Y-142022544D03*
D10*
X159701607Y-143302544D03*
X325091607Y-141562544D03*
X328676607Y-138102544D03*
D11*
X338018607Y-139022544D03*
D10*
X340676607Y-140302544D03*
X363191607Y-92412544D03*
X366776607Y-88952544D03*
D11*
X376118607Y-89872544D03*
D10*
X378776607Y-91152544D03*
X86966607Y-103462544D03*
X90551607Y-100002544D03*
D11*
X99893607Y-100922544D03*
D10*
X102551607Y-102202544D03*
X106016607Y-139562544D03*
X109601607Y-136102544D03*
D11*
X118943607Y-137022544D03*
D10*
X121601607Y-138302544D03*
X344141607Y-108462544D03*
X347726607Y-105002544D03*
D11*
X357068607Y-105922544D03*
D10*
X359726607Y-107202544D03*
D12*
X259776607Y-118327544D03*
D13*
X257236607Y-118327544D03*
X254696607Y-118327544D03*
X252156607Y-118327544D03*
D14*
X128991571Y-196233942D03*
X128991571Y-209329562D03*
X142087191Y-209329562D03*
X136649381Y-201671752D03*
X127810701Y-187670882D03*
X119389061Y-206387992D03*
X143268061Y-217892622D03*
X151689701Y-199175512D03*
X138792071Y-186702142D03*
D10*
X325091607Y-103462544D03*
X328676607Y-100002544D03*
D11*
X338018607Y-100922544D03*
D10*
X340676607Y-102202544D03*
X48866607Y-92412544D03*
X52451607Y-88952544D03*
D11*
X61793607Y-89872544D03*
D10*
X64451607Y-91152544D03*
X86966607Y-84412544D03*
X90551607Y-80952544D03*
D11*
X99893607Y-81872544D03*
D10*
X102551607Y-83152544D03*
X115541607Y-160612544D03*
X119126607Y-157152544D03*
D11*
X128468607Y-158072544D03*
D10*
X131126607Y-159352544D03*
X306041607Y-82412544D03*
X309626607Y-78952544D03*
D11*
X318968607Y-79872544D03*
D10*
X321626607Y-81152544D03*
X48866607Y-149562544D03*
X52451607Y-146102544D03*
D11*
X61793607Y-147022544D03*
D10*
X64451607Y-148302544D03*
X325091607Y-84412544D03*
X328676607Y-80952544D03*
D11*
X338018607Y-81872544D03*
D10*
X340676607Y-83152544D03*
X363191607Y-111462544D03*
X366776607Y-108002544D03*
D11*
X376118607Y-108922544D03*
D10*
X378776607Y-110202544D03*
D15*
X258961067Y-159306396D03*
X263611979Y-161093250D03*
D16*
X266726275Y-169948786D03*
D15*
X266689521Y-172898704D03*
D10*
X344141607Y-146562544D03*
X347726607Y-143102544D03*
D11*
X357068607Y-144022544D03*
D10*
X359726607Y-145302544D03*
X306041607Y-139562544D03*
X309626607Y-136102544D03*
D11*
X318968607Y-137022544D03*
D10*
X321626607Y-138302544D03*
X125066607Y-141562544D03*
X128651607Y-138102544D03*
D11*
X137993607Y-139022544D03*
D10*
X140651607Y-140302544D03*
X125066607Y-84412544D03*
X128651607Y-80952544D03*
D11*
X137993607Y-81872544D03*
D10*
X140651607Y-83152544D03*
X125066607Y-103462544D03*
X128651607Y-100002544D03*
D11*
X137993607Y-100922544D03*
D10*
X140651607Y-102202544D03*
X267941607Y-144562544D03*
X271526607Y-141102544D03*
D11*
X280868607Y-142022544D03*
D10*
X283526607Y-143302544D03*
X67916607Y-127512544D03*
X71501607Y-124052544D03*
D11*
X80843607Y-124972544D03*
D10*
X83501607Y-126252544D03*
D17*
X161278646Y-172148777D03*
X159657907Y-167437405D03*
D18*
X164439810Y-159359486D03*
D17*
X166723204Y-157491471D03*
D10*
X144116607Y-87412544D03*
X147701607Y-83952544D03*
D11*
X157043607Y-84872544D03*
D10*
X159701607Y-86152544D03*
X86966607Y-122512544D03*
X90551607Y-119052544D03*
D11*
X99893607Y-119972544D03*
D10*
X102551607Y-121252544D03*
D19*
X250896607Y-115787544D03*
X253436607Y-115787544D03*
X255976607Y-115787544D03*
X258516607Y-115787544D03*
X261056607Y-115787544D03*
D10*
X267941607Y-125512544D03*
X271526607Y-122052544D03*
D11*
X280868607Y-122972544D03*
D10*
X283526607Y-124252544D03*
X286991607Y-84412544D03*
X290576607Y-80952544D03*
D11*
X299918607Y-81872544D03*
D10*
X302576607Y-83152544D03*
X163166607Y-135037544D03*
X166751607Y-131577544D03*
D11*
X176093607Y-132497544D03*
D10*
X178751607Y-133777544D03*
X144116607Y-106462544D03*
X147701607Y-103002544D03*
D11*
X157043607Y-103922544D03*
D10*
X159701607Y-105202544D03*
X363191607Y-149562544D03*
X366776607Y-146102544D03*
D11*
X376118607Y-147022544D03*
D10*
X378776607Y-148302544D03*
X296516607Y-160612544D03*
X300101607Y-157152544D03*
D11*
X309443607Y-158072544D03*
D10*
X312101607Y-159352544D03*
X48866607Y-130512544D03*
X52451607Y-127052544D03*
D11*
X61793607Y-127972544D03*
D10*
X64451607Y-129252544D03*
X144116607Y-125512544D03*
X147701607Y-122052544D03*
D11*
X157043607Y-122972544D03*
D10*
X159701607Y-124252544D03*
X106016607Y-82412544D03*
X109601607Y-78952544D03*
D11*
X118943607Y-79872544D03*
D10*
X121601607Y-81152544D03*
X286991607Y-103462544D03*
X290576607Y-100002544D03*
D11*
X299918607Y-100922544D03*
D10*
X302576607Y-102202544D03*
X344141607Y-127512544D03*
X347726607Y-124052544D03*
D11*
X357068607Y-124972544D03*
D10*
X359726607Y-126252544D03*
X48866607Y-111462544D03*
X52451607Y-108002544D03*
D11*
X61793607Y-108922544D03*
D10*
X64451607Y-110202544D03*
D19*
X165171607Y-115887544D03*
X167711607Y-115887544D03*
X170251607Y-115887544D03*
X172791607Y-115887544D03*
X175331607Y-115887544D03*
D10*
X306041607Y-120512544D03*
X309626607Y-117052544D03*
D11*
X318968607Y-117972544D03*
D10*
X321626607Y-119252544D03*
X106016607Y-120512544D03*
X109601607Y-117052544D03*
D11*
X118943607Y-117972544D03*
D10*
X121601607Y-119252544D03*
X86966607Y-141562544D03*
X90551607Y-138102544D03*
D11*
X99893607Y-139022544D03*
D10*
X102551607Y-140302544D03*
D12*
X174051607Y-118327544D03*
D13*
X171511607Y-118327544D03*
X168971607Y-118327544D03*
X166431607Y-118327544D03*
D10*
X277466607Y-163612544D03*
X281051607Y-160152544D03*
D11*
X290393607Y-161072544D03*
D10*
X293051607Y-162352544D03*
X267941607Y-106462544D03*
X271526607Y-103002544D03*
D11*
X280868607Y-103922544D03*
D10*
X283526607Y-105202544D03*
X286991607Y-141562544D03*
X290576607Y-138102544D03*
D11*
X299918607Y-139022544D03*
D10*
X302576607Y-140302544D03*
X67916607Y-108462544D03*
X71501607Y-105002544D03*
D11*
X80843607Y-105922544D03*
D10*
X83501607Y-107202544D03*
X248891607Y-135037544D03*
X252476607Y-131577544D03*
D11*
X261818607Y-132497544D03*
D10*
X264476607Y-133777544D03*
X325091607Y-122512544D03*
X328676607Y-119052544D03*
D11*
X338018607Y-119972544D03*
D10*
X340676607Y-121252544D03*
X67916607Y-89412544D03*
X71501607Y-85952544D03*
D11*
X80843607Y-86872544D03*
D10*
X83501607Y-88152544D03*
X315566607Y-160612544D03*
X319151607Y-157152544D03*
D11*
X328493607Y-158072544D03*
D10*
X331151607Y-159352544D03*
X125066607Y-122512544D03*
X128651607Y-119052544D03*
D11*
X137993607Y-119972544D03*
D10*
X140651607Y-121252544D03*
X267941607Y-87412544D03*
X271526607Y-83952544D03*
D11*
X280868607Y-84872544D03*
D10*
X283526607Y-86152544D03*
X363191607Y-130512544D03*
X366776607Y-127052544D03*
D11*
X376118607Y-127972544D03*
D10*
X378776607Y-129252544D03*
X344141607Y-89412544D03*
X347726607Y-85952544D03*
D11*
X357068607Y-86872544D03*
D10*
X359726607Y-88152544D03*
X106016607Y-101462544D03*
X109601607Y-98002544D03*
D11*
X118943607Y-98922544D03*
D10*
X121601607Y-100202544D03*
X134591607Y-163612544D03*
X138176607Y-160152544D03*
D11*
X147518607Y-161072544D03*
D10*
X150176607Y-162352544D03*
D20*
X334851607Y-111832544D03*
X334851607Y-110332544D03*
D21*
X329501607Y-110332544D03*
D20*
X329501607Y-111832544D03*
X134826607Y-130882544D03*
X134826607Y-129382544D03*
D21*
X129476607Y-129382544D03*
D20*
X129476607Y-130882544D03*
X77676607Y-154932544D03*
X77676607Y-153432544D03*
D21*
X72326607Y-153432544D03*
D20*
X72326607Y-154932544D03*
X315801607Y-128882544D03*
X315801607Y-127382544D03*
D21*
X310451607Y-127382544D03*
D20*
X310451607Y-128882544D03*
X106251607Y-168982544D03*
X106251607Y-167482544D03*
D21*
X100901607Y-167482544D03*
D20*
X100901607Y-168982544D03*
D22*
X171251607Y-84447544D03*
X169251607Y-84447544D03*
D23*
X166901607Y-90307544D03*
X173601607Y-90307544D03*
D20*
X144351607Y-171982544D03*
X144351607Y-170482544D03*
D21*
X139001607Y-170482544D03*
D20*
X139001607Y-171982544D03*
D24*
X159995435Y-138993114D03*
X156695435Y-138993114D03*
X83795371Y-99691605D03*
X80495371Y-99691605D03*
D20*
X58626607Y-138882544D03*
X58626607Y-137382544D03*
D21*
X53276607Y-137382544D03*
D20*
X53276607Y-138882544D03*
D25*
X290045379Y-157818234D03*
X293345379Y-157818234D03*
D24*
X64732467Y-102668170D03*
X61432467Y-102668170D03*
D20*
X153876607Y-114832544D03*
X153876607Y-113332544D03*
D21*
X148526607Y-113332544D03*
D20*
X148526607Y-114832544D03*
D24*
X140962562Y-136016549D03*
X137662562Y-136016549D03*
D25*
X280520371Y-100668186D03*
X283820371Y-100668186D03*
D24*
X164775082Y-156077544D03*
X161475082Y-156077544D03*
D20*
X334851607Y-149932544D03*
X334851607Y-148432544D03*
D21*
X329501607Y-148432544D03*
D20*
X329501607Y-149932544D03*
X334851607Y-92782544D03*
X334851607Y-91282544D03*
D21*
X329501607Y-91282544D03*
D20*
X329501607Y-92782544D03*
D25*
X280520371Y-97691621D03*
X283820371Y-97691621D03*
X375770451Y-143530722D03*
X379070451Y-143530722D03*
X299570387Y-97691621D03*
X302870387Y-97691621D03*
D20*
X115776607Y-128882544D03*
X115776607Y-127382544D03*
D21*
X110426607Y-127382544D03*
D20*
X110426607Y-128882544D03*
X134826607Y-149932544D03*
X134826607Y-148432544D03*
D21*
X129476607Y-148432544D03*
D20*
X129476607Y-149932544D03*
X96726607Y-130882544D03*
X96726607Y-129382544D03*
D21*
X91376607Y-129382544D03*
D20*
X91376607Y-130882544D03*
D25*
X337670419Y-97691621D03*
X340970419Y-97691621D03*
D20*
X296751607Y-92782544D03*
X296751607Y-91282544D03*
D21*
X291401607Y-91282544D03*
D20*
X291401607Y-92782544D03*
D24*
X121895403Y-95524414D03*
X118595403Y-95524414D03*
X121895403Y-92547849D03*
X118595403Y-92547849D03*
D26*
X254726607Y-153627544D03*
X255226607Y-153627544D03*
X255726607Y-153627544D03*
X256226607Y-153627544D03*
X256726607Y-153627544D03*
X257226607Y-153627544D03*
D27*
X252826607Y-150377544D03*
X259126607Y-150377544D03*
D20*
X115776607Y-109832544D03*
X115776607Y-108332544D03*
D21*
X110426607Y-108332544D03*
D20*
X110426607Y-109832544D03*
X258651607Y-143407544D03*
X258651607Y-141907544D03*
D21*
X253301607Y-141907544D03*
D20*
X253301607Y-143407544D03*
X315801607Y-90782544D03*
X315801607Y-89282544D03*
D21*
X310451607Y-89282544D03*
D20*
X310451607Y-90782544D03*
D28*
X172989197Y-166840527D03*
X171629735Y-166206600D03*
D29*
X169368727Y-171055347D03*
D28*
X170728189Y-171689274D03*
D20*
X153876607Y-152932544D03*
X153876607Y-151432544D03*
D21*
X148526607Y-151432544D03*
D20*
X148526607Y-152932544D03*
X287226607Y-171982544D03*
X287226607Y-170482544D03*
D21*
X281876607Y-170482544D03*
D20*
X281876607Y-171982544D03*
X277701607Y-95782544D03*
X277701607Y-94282544D03*
D21*
X272351607Y-94282544D03*
D20*
X272351607Y-95782544D03*
X125301607Y-168982544D03*
X125301607Y-167482544D03*
D21*
X119951607Y-167482544D03*
D20*
X119951607Y-168982544D03*
X134826607Y-92782544D03*
X134826607Y-91282544D03*
D21*
X129476607Y-91282544D03*
D20*
X129476607Y-92782544D03*
X58626607Y-119832544D03*
X58626607Y-118332544D03*
D21*
X53276607Y-118332544D03*
D20*
X53276607Y-119832544D03*
X372951607Y-157932544D03*
X372951607Y-156432544D03*
D21*
X367601607Y-156432544D03*
D20*
X367601607Y-157932544D03*
X315801607Y-147932544D03*
X315801607Y-146432544D03*
D21*
X310451607Y-146432544D03*
D20*
X310451607Y-147932544D03*
X296751607Y-111832544D03*
X296751607Y-110332544D03*
D21*
X291401607Y-110332544D03*
D20*
X291401607Y-111832544D03*
X372951607Y-100782544D03*
X372951607Y-99282544D03*
D21*
X367601607Y-99282544D03*
D20*
X367601607Y-100782544D03*
D24*
X112370319Y-154757968D03*
X109070319Y-154757968D03*
D25*
X299570387Y-135791653D03*
X302870387Y-135791653D03*
D24*
X64745359Y-140554157D03*
X61445359Y-140554157D03*
X64745187Y-143530722D03*
X61445187Y-143530722D03*
X140945419Y-97608016D03*
X137645419Y-97608016D03*
D20*
X334851607Y-130882544D03*
X334851607Y-129382544D03*
D21*
X329501607Y-129382544D03*
D20*
X329501607Y-130882544D03*
D24*
X102758021Y-97608016D03*
X99458021Y-97608016D03*
D20*
X315801607Y-109832544D03*
X315801607Y-108332544D03*
D21*
X310451607Y-108332544D03*
D20*
X310451607Y-109832544D03*
X353901607Y-97782544D03*
X353901607Y-96282544D03*
D21*
X348551607Y-96282544D03*
D20*
X348551607Y-97782544D03*
D25*
X375770451Y-140554157D03*
X379070451Y-140554157D03*
X280520371Y-135791653D03*
X283820371Y-135791653D03*
D24*
X121895311Y-134070876D03*
X118595311Y-134070876D03*
D20*
X58626607Y-100782544D03*
X58626607Y-99282544D03*
D21*
X53276607Y-99282544D03*
D20*
X53276607Y-100782544D03*
D25*
X375770451Y-105430690D03*
X379070451Y-105430690D03*
D20*
X277701607Y-133882544D03*
X277701607Y-132382544D03*
D21*
X272351607Y-132382544D03*
D20*
X272351607Y-133882544D03*
D19*
X263596607Y-85307544D03*
X263596607Y-87847544D03*
X263596607Y-90387544D03*
X263596607Y-92927544D03*
X263596607Y-95467544D03*
X263596607Y-98007544D03*
X263596607Y-100547544D03*
X263596607Y-103087544D03*
X263596607Y-105627544D03*
X263596607Y-108167544D03*
X263596607Y-110707544D03*
X263596607Y-113247544D03*
X248356607Y-113247544D03*
X248356607Y-110707544D03*
X248356607Y-108167544D03*
X248356607Y-105627544D03*
X248356607Y-103087544D03*
X248356607Y-100547544D03*
X248356607Y-98007544D03*
X248356607Y-95467544D03*
X248356607Y-92927544D03*
X248356607Y-90387544D03*
X248356607Y-87847544D03*
X248356607Y-85307544D03*
X261056607Y-108167544D03*
X258516607Y-108167544D03*
X255976607Y-108167544D03*
D24*
X159995279Y-135410385D03*
X156695279Y-135410385D03*
D25*
X260875042Y-157222921D03*
X264175042Y-157222921D03*
D24*
X180190323Y-144046932D03*
X176890323Y-144046932D03*
D20*
X58626607Y-157932544D03*
X58626607Y-156432544D03*
D21*
X53276607Y-156432544D03*
D20*
X53276607Y-157932544D03*
X153876607Y-133882544D03*
X153876607Y-132382544D03*
D21*
X148526607Y-132382544D03*
D20*
X148526607Y-133882544D03*
X372951607Y-138882544D03*
X372951607Y-137382544D03*
D21*
X367601607Y-137382544D03*
D20*
X367601607Y-138882544D03*
X353901607Y-135882544D03*
X353901607Y-134382544D03*
D21*
X348551607Y-134382544D03*
D20*
X348551607Y-135882544D03*
X353901607Y-154932544D03*
X353901607Y-153432544D03*
D21*
X348551607Y-153432544D03*
D20*
X348551607Y-154932544D03*
D24*
X159995435Y-100286918D03*
X156695435Y-100286918D03*
X180190323Y-146428184D03*
X176890323Y-146428184D03*
D25*
X318620403Y-134005714D03*
X321920403Y-134005714D03*
X299570387Y-94715056D03*
X302870387Y-94715056D03*
D20*
X96726607Y-149932544D03*
X96726607Y-148432544D03*
D21*
X91376607Y-148432544D03*
D20*
X91376607Y-149932544D03*
X134826607Y-111832544D03*
X134826607Y-110332544D03*
D21*
X129476607Y-110332544D03*
D20*
X129476607Y-111832544D03*
D30*
X255500025Y-171689274D03*
X256859487Y-171055347D03*
D31*
X254598479Y-166206600D03*
D30*
X253239017Y-166840527D03*
D26*
X128589384Y-198331748D03*
X128089384Y-198331748D03*
X127589384Y-198331748D03*
X127089384Y-198331748D03*
X126589384Y-198331748D03*
X126089384Y-198331748D03*
X125589384Y-198331748D03*
X125089384Y-198331748D03*
X124589384Y-198331748D03*
X124089384Y-198331748D03*
D27*
X130489384Y-201581748D03*
X122189384Y-201581748D03*
D25*
X337670419Y-94715056D03*
X340970419Y-94715056D03*
D20*
X96726607Y-92782544D03*
X96726607Y-91282544D03*
D21*
X91376607Y-91282544D03*
D20*
X91376607Y-92782544D03*
D25*
X356720435Y-137577592D03*
X360020435Y-137577592D03*
D24*
X150470287Y-157734528D03*
X147170287Y-157734528D03*
X83795203Y-141149470D03*
X80495203Y-141149470D03*
X121895311Y-130945488D03*
X118595311Y-130945488D03*
D25*
X337670419Y-132815088D03*
X340970419Y-132815088D03*
D20*
X277701607Y-152932544D03*
X277701607Y-151432544D03*
D21*
X272351607Y-151432544D03*
D20*
X272351607Y-152932544D03*
X77676607Y-116832544D03*
X77676607Y-115332544D03*
D21*
X72326607Y-115332544D03*
D20*
X72326607Y-116832544D03*
D24*
X131420303Y-154757968D03*
X128120303Y-154757968D03*
D25*
X356720435Y-102454125D03*
X360020435Y-102454125D03*
X337670419Y-135791653D03*
X340970419Y-135791653D03*
D24*
X83795203Y-137577592D03*
X80495203Y-137577592D03*
X83795371Y-102668168D03*
X80495371Y-102668168D03*
D25*
X328145411Y-155436982D03*
X331445411Y-155436982D03*
D20*
X77676607Y-97782544D03*
X77676607Y-96282544D03*
D21*
X72326607Y-96282544D03*
D20*
X72326607Y-97782544D03*
X277701607Y-114832544D03*
X277701607Y-113332544D03*
D21*
X272351607Y-113332544D03*
D20*
X272351607Y-114832544D03*
D25*
X356720435Y-140554157D03*
X360020435Y-140554157D03*
D24*
X102845327Y-135707984D03*
X99545327Y-135707984D03*
D25*
X318620403Y-131029149D03*
X321920403Y-131029149D03*
D22*
X256976607Y-84347544D03*
X254976607Y-84347544D03*
D23*
X252626607Y-90207544D03*
X259326607Y-90207544D03*
D24*
X140945419Y-94333788D03*
X137645419Y-94333788D03*
D20*
X296751607Y-130882544D03*
X296751607Y-129382544D03*
D21*
X291401607Y-129382544D03*
D20*
X291401607Y-130882544D03*
D25*
X375770451Y-102454125D03*
X379070451Y-102454125D03*
D26*
X167976607Y-153627544D03*
X168476607Y-153627544D03*
X168976607Y-153627544D03*
X169476607Y-153627544D03*
X169976607Y-153627544D03*
X170476607Y-153627544D03*
X170976607Y-153627544D03*
X171476607Y-153627544D03*
X171976607Y-153627544D03*
X172476607Y-153627544D03*
D27*
X166076607Y-150377544D03*
X174376607Y-150377544D03*
D20*
X115776607Y-147932544D03*
X115776607Y-146432544D03*
D21*
X110426607Y-146432544D03*
D20*
X110426607Y-147932544D03*
D25*
X318620403Y-95310369D03*
X321920403Y-95310369D03*
D20*
X115776607Y-90782544D03*
X115776607Y-89282544D03*
D21*
X110426607Y-89282544D03*
D20*
X110426607Y-90782544D03*
D24*
X102846419Y-132880252D03*
X99546419Y-132880252D03*
X140962562Y-132444671D03*
X137662562Y-132444671D03*
D20*
X325326607Y-168982544D03*
X325326607Y-167482544D03*
D21*
X319976607Y-167482544D03*
D20*
X319976607Y-168982544D03*
X372951607Y-119832544D03*
X372951607Y-118332544D03*
D21*
X367601607Y-118332544D03*
D20*
X367601607Y-119832544D03*
D25*
X299570387Y-132815088D03*
X302870387Y-132815088D03*
D24*
X159995435Y-97310353D03*
X156695435Y-97310353D03*
D19*
X177871607Y-85407544D03*
X177871607Y-87947544D03*
X177871607Y-90487544D03*
X177871607Y-93027544D03*
X177871607Y-95567544D03*
X177871607Y-98107544D03*
X177871607Y-100647544D03*
X177871607Y-103187544D03*
X177871607Y-105727544D03*
X177871607Y-108267544D03*
X177871607Y-110807544D03*
X177871607Y-113347544D03*
X162631607Y-113347544D03*
X162631607Y-110807544D03*
X162631607Y-108267544D03*
X162631607Y-105727544D03*
X162631607Y-103187544D03*
X162631607Y-100647544D03*
X162631607Y-98107544D03*
X162631607Y-95567544D03*
X162631607Y-93027544D03*
X162631607Y-90487544D03*
X162631607Y-87947544D03*
X162631607Y-85407544D03*
X175331607Y-108267544D03*
X172791607Y-108267544D03*
X170251607Y-108267544D03*
D20*
X172926607Y-143407544D03*
X172926607Y-141907544D03*
D21*
X167576607Y-141907544D03*
D20*
X167576607Y-143407544D03*
D24*
X180190323Y-151190688D03*
X176890323Y-151190688D03*
X64745359Y-105644728D03*
X61445359Y-105644728D03*
D20*
X77676607Y-135882544D03*
X77676607Y-134382544D03*
D21*
X72326607Y-134382544D03*
D20*
X72326607Y-135882544D03*
D25*
X280520371Y-138768218D03*
X283820371Y-138768218D03*
D20*
X153876607Y-95782544D03*
X153876607Y-94282544D03*
D21*
X148526607Y-94282544D03*
D20*
X148526607Y-95782544D03*
D24*
X102845387Y-94333788D03*
X99545387Y-94333788D03*
D20*
X306276607Y-168982544D03*
X306276607Y-167482544D03*
D21*
X300926607Y-167482544D03*
D20*
X300926607Y-168982544D03*
X353901607Y-116832544D03*
X353901607Y-115332544D03*
D21*
X348551607Y-115332544D03*
D20*
X348551607Y-116832544D03*
D24*
X180190323Y-148809436D03*
X176890323Y-148809436D03*
D20*
X96726607Y-111832544D03*
X96726607Y-110332544D03*
D21*
X91376607Y-110332544D03*
D20*
X91376607Y-111832544D03*
D25*
X261470355Y-129243210D03*
X264770355Y-129243210D03*
D24*
X166561021Y-127682167D03*
X163261021Y-127682167D03*
D25*
X356720435Y-99477560D03*
X360020435Y-99477560D03*
X309095395Y-155436982D03*
X312395395Y-155436982D03*
X318620403Y-92333804D03*
X321920403Y-92333804D03*
D20*
X296751607Y-149932544D03*
X296751607Y-148432544D03*
D21*
X291401607Y-148432544D03*
D20*
X291401607Y-149932544D03*
D32*
X178501607Y-126377544D03*
X315801607Y-149352544D03*
X153876607Y-135389124D03*
X134776607Y-151277544D03*
X77676607Y-99249020D03*
X115776607Y-130389124D03*
X96726607Y-113301544D03*
X115776607Y-111339124D03*
X277701607Y-135077544D03*
X158976607Y-92258486D03*
X134826607Y-94289124D03*
X315801607Y-111077544D03*
X277701607Y-97127544D03*
X173268181Y-164533749D03*
X168976607Y-155296194D03*
X134826607Y-132389124D03*
X107776607Y-168677544D03*
X172926607Y-144777544D03*
X296751607Y-113177544D03*
X96726607Y-151377544D03*
X96726607Y-132389124D03*
X372951607Y-159377544D03*
X153876607Y-154471252D03*
X258351607Y-120427544D03*
X296701607Y-151327544D03*
X353901607Y-99277544D03*
X153876607Y-116339124D03*
X115776607Y-149627544D03*
X180333206Y-93027544D03*
X96726607Y-94077544D03*
X353951607Y-137377544D03*
X296751607Y-132427544D03*
X315801607Y-130227544D03*
X296751607Y-94127544D03*
X77676607Y-137389124D03*
X126876607Y-168477544D03*
X169251607Y-122377544D03*
X79176607Y-154177544D03*
X372951607Y-121427544D03*
X153876607Y-97289124D03*
X277701607Y-154277544D03*
X57776404Y-140525407D03*
X373001607Y-140427544D03*
X372951607Y-102377544D03*
X77676607Y-118339124D03*
X58626607Y-101924028D03*
X334851607Y-113377544D03*
X258651607Y-144827544D03*
X60076607Y-156977544D03*
X255001607Y-151677544D03*
X334851607Y-93990056D03*
X115776607Y-92177544D03*
X145976607Y-171477544D03*
X315751607Y-92827544D03*
X134826607Y-113339124D03*
X58626607Y-121202238D03*
X334851607Y-151077544D03*
X277751607Y-116027544D03*
X353901607Y-156327544D03*
X353901607Y-118427544D03*
X334851607Y-132177544D03*
X245251607Y-118527544D03*
X178576607Y-151177544D03*
X178626607Y-148777544D03*
X174987953Y-120596905D03*
X178726607Y-146427544D03*
X174945050Y-121595987D03*
X178854607Y-144027544D03*
X163276607Y-153477544D03*
X165616155Y-129011996D03*
X346731021Y-95743107D03*
X99376607Y-167077544D03*
X51870482Y-117382999D03*
X347051607Y-133977544D03*
X51720079Y-136834072D03*
X128176607Y-147377544D03*
X308660736Y-145904505D03*
X271101607Y-93327544D03*
X89595051Y-147908234D03*
X270332322Y-112735138D03*
X308399312Y-126778419D03*
X108676607Y-88677544D03*
X346676607Y-152863886D03*
X89676607Y-90777544D03*
X327860503Y-147973956D03*
X146945078Y-131809073D03*
X70720079Y-152834072D03*
X289229997Y-90660680D03*
X327756006Y-90773334D03*
X327812918Y-109849621D03*
X308701607Y-107781544D03*
X108820079Y-107734072D03*
X365901607Y-117628544D03*
X167976607Y-172446194D03*
X127876607Y-90777544D03*
X146876607Y-93677544D03*
X109014260Y-145389891D03*
X70767562Y-133886589D03*
X346901607Y-114727544D03*
X137476607Y-170077544D03*
X147076607Y-150377544D03*
X308851607Y-88727544D03*
X127870079Y-128784072D03*
X280551607Y-169427544D03*
X51794385Y-98659766D03*
X146895079Y-112709072D03*
X365951607Y-155777544D03*
X89745079Y-109709072D03*
X270278596Y-131774607D03*
X270351330Y-150827821D03*
X289626607Y-109781544D03*
X289780790Y-147985015D03*
X327747790Y-128869783D03*
X365951607Y-98777544D03*
X89820079Y-128834072D03*
X70876607Y-95677544D03*
X108845078Y-126809073D03*
X51645078Y-155809073D03*
X365951607Y-136177544D03*
X118476607Y-166977544D03*
X254701607Y-164027544D03*
X289351607Y-128077544D03*
X70930769Y-114998382D03*
X128076607Y-109377544D03*
X263101607Y-129327544D03*
X263501607Y-147727544D03*
X272301607Y-97227544D03*
X179126607Y-107027544D03*
X49226748Y-147327685D03*
X49235215Y-109027544D03*
X49031113Y-128277544D03*
X48212559Y-94631456D03*
X68326607Y-144177544D03*
X68576607Y-105777544D03*
X67262543Y-95602544D03*
X68426607Y-125027544D03*
X68726303Y-156202543D03*
X87551607Y-100852544D03*
X87426607Y-138977544D03*
X86312527Y-90631544D03*
X86665693Y-151287260D03*
X87576607Y-120027544D03*
X106826607Y-117827544D03*
X114476607Y-153777544D03*
X106676607Y-136977544D03*
X105176607Y-87877544D03*
X106426607Y-99277544D03*
X125576607Y-120227544D03*
X124412495Y-90052544D03*
X133476607Y-155577544D03*
X125826607Y-138827544D03*
X125976607Y-100602544D03*
X142976607Y-141877544D03*
X144626607Y-104127544D03*
X144676607Y-123177544D03*
X142976607Y-92181544D03*
X361576607Y-109727544D03*
X362351607Y-100553544D03*
X361576607Y-147627544D03*
X361526607Y-128277544D03*
X343701607Y-95677544D03*
X342851607Y-144277544D03*
X341601607Y-154027544D03*
X342826607Y-125727544D03*
X342676607Y-106327544D03*
X296851607Y-156927544D03*
X323576607Y-139277544D03*
X323876607Y-119827544D03*
X323801607Y-92553544D03*
X323926607Y-101177544D03*
X305124607Y-137327544D03*
X305101607Y-93452544D03*
X295051607Y-156027544D03*
X305001607Y-99577544D03*
X305124607Y-118177544D03*
X286074607Y-138977544D03*
X286601607Y-95127544D03*
X276651607Y-156977544D03*
X286074607Y-100927544D03*
X286074607Y-119827544D03*
X252881607Y-120777544D03*
X266699309Y-92679842D03*
X255001607Y-128927544D03*
X267024607Y-142277544D03*
X267024607Y-123177544D03*
X267024607Y-104327544D03*
X254601607Y-155577544D03*
X156626607Y-133227544D03*
X156101607Y-114102544D03*
X375101607Y-100377544D03*
X367626607Y-121227544D03*
X266970050Y-120895987D03*
X268051607Y-112427544D03*
X377366177Y-151920134D03*
X374851607Y-137327544D03*
X260626606Y-151177240D03*
X260651607Y-142377544D03*
X176626607Y-126127544D03*
X180361952Y-136755313D03*
X125864384Y-200279164D03*
X124500449Y-201665511D03*
X125016099Y-200808709D03*
X124939380Y-196231750D03*
X179726607Y-137527544D03*
X246477607Y-125677544D03*
D33*
X181229307Y-103367434D02*
X180651607Y-102789734D01*
X178950607Y-124035404D02*
X179434467Y-123551544D01*
X181059206Y-92726824D02*
X180651607Y-92319225D01*
X178369616Y-84205244D02*
X171493907Y-84205244D01*
X179816535Y-123551544D02*
X179816535Y-120487616D01*
X180651607Y-86487235D02*
X178369616Y-84205244D01*
X181229307Y-114962654D02*
X181229307Y-103367434D01*
X178950607Y-125928544D02*
X178950607Y-124035404D01*
X180651607Y-92319225D02*
X180651607Y-86487235D01*
X181228607Y-114963354D02*
X181229307Y-114962654D01*
X179751607Y-120365974D02*
X181228607Y-118888974D01*
X179434467Y-123551544D02*
X179816535Y-123551544D01*
X181059206Y-93328264D02*
X181059206Y-92726824D01*
X179816535Y-120487616D02*
X179751607Y-120422688D01*
X171493907Y-84205244D02*
X171251607Y-84447544D01*
X179751607Y-120422688D02*
X179751607Y-120365974D01*
X180651607Y-93735863D02*
X181059206Y-93328264D01*
X181228607Y-118888974D02*
X181228607Y-114963354D01*
X178501607Y-126377544D02*
X178950607Y-125928544D01*
X180651607Y-102789734D02*
X180651607Y-93735863D01*
X169251607Y-122377544D02*
X170976607Y-120652544D01*
X286550607Y-173328544D02*
X287226607Y-172652544D01*
X353901607Y-97782544D02*
X353901607Y-99277544D01*
X353951607Y-135932544D02*
X353901607Y-135882544D01*
X153876607Y-133882544D02*
X153876607Y-135389124D01*
X372951607Y-100782544D02*
X372951607Y-102377544D01*
X287226607Y-172652544D02*
X287226607Y-171982544D01*
X173268181Y-164533749D02*
X172989197Y-164812733D01*
X251245720Y-168566767D02*
X251245720Y-161633431D01*
X96726607Y-149932544D02*
X96726607Y-151377544D01*
X77676607Y-154932544D02*
X78421607Y-154932544D01*
X306276607Y-168982544D02*
X309171607Y-171877544D01*
X304792265Y-172105746D02*
X287349809Y-172105746D01*
X57776404Y-140513553D02*
X58626607Y-139663350D01*
X255726607Y-152377850D02*
X255726607Y-153627544D01*
X263596607Y-92927544D02*
X268646607Y-97977544D01*
X269885018Y-175281943D02*
X271838417Y-173328544D01*
X277701607Y-152932544D02*
X277701607Y-154277544D01*
X334851607Y-149932544D02*
X334851607Y-151077544D01*
X106251607Y-168982544D02*
X107471607Y-168982544D01*
X372951607Y-159377544D02*
X372951607Y-157932544D01*
X57776404Y-140525407D02*
X57776404Y-140513553D01*
X258401607Y-120377544D02*
X258401607Y-120227544D01*
X168976607Y-155296194D02*
X168976607Y-153646194D01*
X268646607Y-97977544D02*
X276851607Y-97977544D01*
X315801607Y-90782544D02*
X315801607Y-92777544D01*
X115776607Y-109832544D02*
X115776607Y-111339124D01*
X373001607Y-140427544D02*
X373001607Y-138932544D01*
X125301607Y-168982544D02*
X126371607Y-168982544D01*
X96726607Y-92782544D02*
X96726607Y-94077544D01*
X180333206Y-93027544D02*
X177871607Y-93027544D01*
X134826607Y-151227544D02*
X134776607Y-151277544D01*
X58626607Y-101924028D02*
X58626607Y-100782544D01*
X277701607Y-135077544D02*
X277701607Y-133882544D01*
X172989197Y-164812733D02*
X172989197Y-166840527D01*
X325326607Y-171002544D02*
X325326607Y-168982544D01*
X334851607Y-130882544D02*
X334851607Y-132177544D01*
X276851607Y-97977544D02*
X277701607Y-97127544D01*
X145471607Y-171982544D02*
X145976607Y-171477544D01*
X315801607Y-109832544D02*
X315801607Y-111077544D01*
X96726607Y-130882544D02*
X96726607Y-132389124D01*
X126371607Y-168982544D02*
X126876607Y-168477544D01*
X296701607Y-151327544D02*
X296701607Y-149982544D01*
X315801607Y-128882544D02*
X315801607Y-130227544D01*
X315801607Y-147932544D02*
X315801607Y-149352544D01*
X172926607Y-143407544D02*
X172926607Y-144777544D01*
X296751607Y-113177544D02*
X296751607Y-111832544D01*
X296751607Y-92782544D02*
X296751607Y-94127544D01*
X353901607Y-116832544D02*
X353901607Y-118427544D01*
X277751607Y-116027544D02*
X277751607Y-114882544D01*
X134826607Y-92782544D02*
X134826607Y-94289124D01*
X306276607Y-168982544D02*
X306276607Y-170621404D01*
X258401607Y-120227544D02*
X259776607Y-118852544D01*
X158976607Y-92258486D02*
X155452549Y-95782544D01*
X59401607Y-157932544D02*
X58626607Y-157932544D01*
X115776607Y-147932544D02*
X115776607Y-149627544D01*
X353951607Y-137377544D02*
X353951607Y-135932544D01*
X58626607Y-121202238D02*
X58626607Y-119832544D01*
X334851607Y-92782544D02*
X334851607Y-93990056D01*
X296751607Y-132427544D02*
X296751607Y-130882544D01*
X174076607Y-119177544D02*
X174076607Y-118352544D01*
X107471607Y-168982544D02*
X107776607Y-168677544D01*
X77676607Y-97782544D02*
X77676607Y-99249020D01*
X258651607Y-143407544D02*
X258651607Y-144827544D01*
X315801607Y-92777544D02*
X315751607Y-92827544D01*
X258351607Y-120427544D02*
X258401607Y-120377544D01*
X115776607Y-90782544D02*
X115776607Y-92177544D01*
X153876607Y-152932544D02*
X153876607Y-154471252D01*
X259092694Y-175281943D02*
X269885018Y-175281943D01*
X251245720Y-161633431D02*
X255726607Y-157152544D01*
X248356607Y-87847544D02*
X251476607Y-87847544D01*
X60076607Y-156977544D02*
X60076607Y-157257544D01*
X271838417Y-173328544D02*
X286550607Y-173328544D01*
X309171607Y-171877544D02*
X324451607Y-171877544D01*
X174076607Y-118352544D02*
X174051607Y-118327544D01*
X172601607Y-120652544D02*
X174076607Y-119177544D01*
X255726607Y-157152544D02*
X255726607Y-153627544D01*
X153876607Y-114832544D02*
X153876607Y-116339124D01*
X255001607Y-151677544D02*
X255026301Y-151677544D01*
X78421607Y-154932544D02*
X79176607Y-154177544D01*
X287349809Y-172105746D02*
X287226607Y-171982544D01*
X353901607Y-154932544D02*
X353901607Y-156327544D01*
X115776607Y-128882544D02*
X115776607Y-130389124D01*
X134826607Y-111832544D02*
X134826607Y-113339124D01*
X255500025Y-171689274D02*
X254368227Y-171689274D01*
X277701607Y-97127544D02*
X277701607Y-95782544D01*
X77676607Y-135882544D02*
X77676607Y-137389124D01*
X134826607Y-149932544D02*
X134826607Y-151227544D01*
X296701607Y-149982544D02*
X296751607Y-149932544D01*
X255500025Y-171689274D02*
X259092694Y-175281943D01*
X134826607Y-130882544D02*
X134826607Y-132389124D01*
X324451607Y-171877544D02*
X325326607Y-171002544D01*
X251476607Y-87847544D02*
X254976607Y-84347544D01*
X372951607Y-121427544D02*
X372951607Y-119832544D01*
X166131607Y-84447544D02*
X162631607Y-87947544D01*
X277751607Y-114882544D02*
X277701607Y-114832544D01*
X58626607Y-139663350D02*
X58626607Y-138882544D01*
X170976607Y-120652544D02*
X172601607Y-120652544D01*
X144351607Y-171982544D02*
X145471607Y-171982544D01*
X169251607Y-84447544D02*
X166131607Y-84447544D01*
X155452549Y-95782544D02*
X153876607Y-95782544D01*
X334851607Y-111832544D02*
X334851607Y-113377544D01*
X373001607Y-138932544D02*
X372951607Y-138882544D01*
X254368227Y-171689274D02*
X251245720Y-168566767D01*
X60076607Y-157257544D02*
X59401607Y-157932544D01*
X306276607Y-170621404D02*
X304792265Y-172105746D01*
X153876607Y-95782544D02*
X153876607Y-97289124D01*
X259776607Y-118852544D02*
X259776607Y-118327544D01*
X255026301Y-151677544D02*
X255726607Y-152377850D01*
X96726607Y-111832544D02*
X96726607Y-113301544D01*
X77676607Y-116832544D02*
X77676607Y-118339124D01*
X255802607Y-82121544D02*
X256976607Y-83295544D01*
X244827607Y-86651544D02*
X249357607Y-82121544D01*
X244827607Y-118103544D02*
X244827607Y-86651544D01*
X245251607Y-118527544D02*
X244827607Y-118103544D01*
X256976607Y-83295544D02*
X256976607Y-84347544D01*
X249357607Y-82121544D02*
X255802607Y-82121544D01*
X87745116Y-95766150D02*
X100696595Y-95766150D01*
X102128957Y-94333788D02*
X102845387Y-94333788D01*
X158511664Y-98794124D02*
X159995435Y-97310353D01*
X87540358Y-95970908D02*
X87745116Y-95766150D01*
X140945419Y-94333788D02*
X145405755Y-98794124D01*
X102845387Y-94333788D02*
X103068617Y-94110558D01*
X68336255Y-101291509D02*
X66959594Y-102668170D01*
X82954814Y-99784506D02*
X81452327Y-101286993D01*
X66959594Y-102668170D02*
X64732467Y-102668170D01*
X159995435Y-97310353D02*
X160400544Y-96905244D01*
X170954307Y-96905244D02*
X177236607Y-103187544D01*
X68977810Y-101291509D02*
X68336255Y-101291509D01*
X139568419Y-95710788D02*
X140945419Y-94333788D01*
X83795371Y-99691605D02*
X87516068Y-95970908D01*
X83795371Y-99691605D02*
X83702470Y-99784506D01*
X121895403Y-92547849D02*
X125058342Y-95710788D01*
X103068617Y-94110558D02*
X120332694Y-94110558D01*
X160400544Y-96905244D02*
X170954307Y-96905244D01*
X100696595Y-95766150D02*
X102128957Y-94333788D01*
X180190323Y-151190688D02*
X178589751Y-151190688D01*
X83702470Y-99784506D02*
X82954814Y-99784506D01*
X68982326Y-101286993D02*
X68977810Y-101291509D01*
X81452327Y-101286993D02*
X68982326Y-101286993D01*
X83795203Y-99691773D02*
X83795371Y-99691605D01*
X83795203Y-100072873D02*
X83795203Y-99691773D01*
X145405755Y-98794124D02*
X158511664Y-98794124D01*
X120332694Y-94110558D02*
X121895403Y-92547849D01*
X177236607Y-103187544D02*
X177871607Y-103187544D01*
X125058342Y-95710788D02*
X139568419Y-95710788D01*
X87516068Y-95970908D02*
X87540358Y-95970908D01*
X178589751Y-151190688D02*
X178576607Y-151177544D01*
X87727168Y-96421908D02*
X87931926Y-96217150D01*
X140945419Y-97608016D02*
X142582527Y-99245124D01*
X158953641Y-99245124D02*
X159995435Y-100286918D01*
X69164620Y-101742509D02*
X69169136Y-101737993D01*
X83795203Y-102494885D02*
X83795203Y-103049438D01*
X102758021Y-97608016D02*
X105767623Y-94598414D01*
X87702878Y-96421908D02*
X87727168Y-96421908D01*
X105767623Y-94598414D02*
X120969403Y-94598414D01*
X64881126Y-105384448D02*
X68523065Y-101742509D01*
X139499191Y-96161788D02*
X140945419Y-97608016D01*
X120969403Y-94598414D02*
X121895403Y-95524414D01*
X178658499Y-148809436D02*
X178626607Y-148777544D01*
X68523065Y-101742509D02*
X69164620Y-101742509D01*
X170580687Y-97807244D02*
X176218307Y-103444864D01*
X83795371Y-102668168D02*
X83795371Y-101207618D01*
X163008907Y-99445244D02*
X164646907Y-97807244D01*
X101367155Y-96217150D02*
X102758021Y-97608016D01*
X83795371Y-101207618D02*
X84623171Y-100379818D01*
X64881126Y-106026003D02*
X64881126Y-105384448D01*
X142582527Y-99245124D02*
X158953641Y-99245124D01*
X176218307Y-104074244D02*
X177871607Y-105727544D01*
X180190323Y-148809436D02*
X178658499Y-148809436D01*
X176218307Y-103444864D02*
X176218307Y-104074244D01*
X84623171Y-99501615D02*
X87702878Y-96421908D01*
X69169136Y-101737993D02*
X83038311Y-101737993D01*
X160837109Y-99445244D02*
X163008907Y-99445244D01*
X122532777Y-96161788D02*
X139499191Y-96161788D01*
X159995435Y-100286918D02*
X160837109Y-99445244D01*
X164646907Y-97807244D02*
X170580687Y-97807244D01*
X121895403Y-95524414D02*
X122532777Y-96161788D01*
X83038311Y-101737993D02*
X83795203Y-102494885D01*
X87931926Y-96217150D02*
X101367155Y-96217150D01*
X84623171Y-100379818D02*
X84623171Y-99501615D01*
X174987953Y-120596905D02*
X174714871Y-120869987D01*
X81505748Y-139075098D02*
X83003254Y-137577592D01*
X88045992Y-134326809D02*
X88095257Y-134277544D01*
X174129307Y-116385553D02*
X174129307Y-112009844D01*
X140962562Y-132444671D02*
X145345435Y-136827544D01*
X170951987Y-126276544D02*
X162627605Y-126276544D01*
X157364417Y-136827544D02*
X158781576Y-135410385D01*
X67009893Y-139075098D02*
X81505748Y-139075098D01*
X120146923Y-132693876D02*
X121895311Y-130945488D01*
X175227607Y-120357251D02*
X175227607Y-117140844D01*
X174714871Y-120869987D02*
X174644330Y-120869987D01*
X174219050Y-121295267D02*
X174219050Y-121847291D01*
X84738727Y-137577592D02*
X87989510Y-134326809D01*
X83003254Y-137577592D02*
X83795203Y-137577592D01*
X160600607Y-128303544D02*
X160600607Y-134805057D01*
X180190323Y-146428184D02*
X178727247Y-146428184D01*
X173525607Y-122540734D02*
X173525607Y-123702924D01*
X158781576Y-135410385D02*
X159995279Y-135410385D01*
X83795203Y-137577592D02*
X84738727Y-137577592D01*
X160600607Y-134805057D02*
X159995279Y-135410385D01*
X145345435Y-136827544D02*
X157364417Y-136827544D01*
X140962562Y-133291589D02*
X140962562Y-132444671D01*
X65530834Y-140554157D02*
X67009893Y-139075098D01*
X87989510Y-134326809D02*
X88045992Y-134326809D01*
X121895311Y-130945488D02*
X121895311Y-132596248D01*
X102253290Y-133384983D02*
X102341688Y-133384983D01*
X123876607Y-134577544D02*
X139676607Y-134577544D01*
X173525607Y-123702924D02*
X170951987Y-126276544D01*
X121895311Y-132596248D02*
X123876607Y-134577544D01*
X102341688Y-133384983D02*
X102846419Y-132880252D01*
X174644330Y-120869987D02*
X174219050Y-121295267D01*
X103032795Y-132693876D02*
X120146923Y-132693876D01*
X174219050Y-121847291D02*
X173525607Y-122540734D01*
X139676607Y-134577544D02*
X140962562Y-133291589D01*
X174987953Y-120596905D02*
X175227607Y-120357251D01*
X102846419Y-132880252D02*
X103032795Y-132693876D01*
X174129307Y-112009844D02*
X177871607Y-108267544D01*
X178727247Y-146428184D02*
X178726607Y-146427544D01*
X175227607Y-117140844D02*
X174884598Y-117140844D01*
X101360729Y-134277544D02*
X102253290Y-133384983D01*
X174884598Y-117140844D02*
X174129307Y-116385553D01*
X64881126Y-140554157D02*
X65530834Y-140554157D01*
X162627605Y-126276544D02*
X160600607Y-128303544D01*
X88095257Y-134277544D02*
X101360729Y-134277544D01*
X140962562Y-136016549D02*
X140023557Y-135077544D01*
X102845327Y-135707984D02*
X105408435Y-133144876D01*
X140023557Y-135077544D02*
X122901979Y-135077544D01*
X101915152Y-134777809D02*
X102845327Y-135707984D01*
X64745359Y-143530894D02*
X64745187Y-143530722D01*
X158279865Y-137277544D02*
X158979865Y-137977544D01*
X105408435Y-133144876D02*
X120969311Y-133144876D01*
X171138797Y-126727544D02*
X173976607Y-123889734D01*
X177871607Y-110882544D02*
X177871607Y-110807544D01*
X81651127Y-139526098D02*
X83274499Y-141149470D01*
X122901979Y-135077544D02*
X121895311Y-134070876D01*
X159995435Y-138993114D02*
X158979865Y-137977544D01*
X64776607Y-141946194D02*
X67196703Y-139526098D01*
X64745187Y-143530722D02*
X64776607Y-143499302D01*
X67196703Y-139526098D02*
X81651127Y-139526098D01*
X178402856Y-114516603D02*
X178369616Y-114549844D01*
X173976607Y-123889734D02*
X173976607Y-122727544D01*
X178873995Y-144046932D02*
X178854607Y-144027544D01*
X83795203Y-139158926D02*
X88176320Y-134777809D01*
X88176320Y-134777809D02*
X101915152Y-134777809D01*
X159513586Y-137277544D02*
X161051607Y-135739523D01*
X64881126Y-144126035D02*
X64745359Y-143990268D01*
X158279865Y-137277544D02*
X159513586Y-137277544D01*
X176676607Y-112077544D02*
X177871607Y-110882544D01*
X143896630Y-136016549D02*
X145157625Y-137277544D01*
X161051607Y-135739523D02*
X161051607Y-128490352D01*
X83274499Y-141149470D02*
X83795203Y-141149470D01*
X178973607Y-117730544D02*
X178973607Y-115087354D01*
X176669307Y-112849535D02*
X176676607Y-112842235D01*
X178973607Y-115087354D02*
X178402856Y-114516603D01*
X173976607Y-122727544D02*
X178973607Y-117730544D01*
X145157625Y-137277544D02*
X158279865Y-137277544D01*
X162814415Y-126727544D02*
X171138797Y-126727544D01*
X178369616Y-114549844D02*
X177373598Y-114549844D01*
X64776607Y-143499302D02*
X64776607Y-141946194D01*
X161051607Y-128490352D02*
X162814415Y-126727544D01*
X177373598Y-114549844D02*
X176669307Y-113845553D01*
X64745359Y-143990268D02*
X64745359Y-143530894D01*
X120969311Y-133144876D02*
X121895311Y-134070876D01*
X83795203Y-141149470D02*
X83795203Y-139158926D01*
X140962562Y-136016549D02*
X143896630Y-136016549D01*
X180190323Y-144046932D02*
X178873995Y-144046932D01*
X176676607Y-112842235D02*
X176676607Y-112077544D01*
X176669307Y-113845553D02*
X176669307Y-112849535D01*
X114250743Y-152877544D02*
X129539879Y-152877544D01*
X164775082Y-155661878D02*
X164283678Y-155170474D01*
X166561021Y-128067130D02*
X166561021Y-127682167D01*
X178721756Y-114197693D02*
X178853853Y-114329786D01*
X179424607Y-114900544D02*
X179424607Y-118141736D01*
X165616155Y-129011996D02*
X166561021Y-128067130D01*
X157480554Y-157734528D02*
X150470287Y-157734528D01*
X131420303Y-154757968D02*
X147493727Y-154757968D01*
X174426607Y-124077544D02*
X171276607Y-127227544D01*
X167015644Y-127227544D02*
X166561021Y-127682167D01*
X163849082Y-154735878D02*
X160479204Y-154735878D01*
X174427607Y-123138736D02*
X174427607Y-123315770D01*
X129539879Y-152877544D02*
X131420303Y-154757968D01*
X160479204Y-154735878D02*
X157480554Y-157734528D01*
X163276607Y-154163403D02*
X164775082Y-155661878D01*
X164283678Y-155170474D02*
X164283677Y-155170474D01*
X171276607Y-127227544D02*
X167015644Y-127227544D01*
X147493727Y-154757968D02*
X150470287Y-157734528D01*
X174426607Y-123316770D02*
X174426607Y-124077544D01*
X177871607Y-113347544D02*
X178721756Y-114197693D01*
X112370319Y-154757968D02*
X114250743Y-152877544D01*
X174427607Y-123315770D02*
X174426607Y-123316770D01*
X178853853Y-114329790D02*
X179424607Y-114900544D01*
X163276607Y-153477544D02*
X163276607Y-154163403D01*
X178853853Y-114329786D02*
X178853853Y-114329790D01*
X179424607Y-118141736D02*
X174427607Y-123138736D01*
X164775082Y-156077544D02*
X164775082Y-155661878D01*
X164775082Y-155661878D02*
X163849082Y-154735878D01*
X365951607Y-136177544D02*
X366396607Y-136177544D01*
X89844241Y-147908234D02*
X90368551Y-148432544D01*
X329501607Y-91282544D02*
X328946607Y-90727544D01*
X252250607Y-142233544D02*
X252250607Y-145800544D01*
X309188775Y-146432544D02*
X308660736Y-145904505D01*
X349602607Y-157578544D02*
X347402607Y-155378544D01*
X252576607Y-141907544D02*
X252250607Y-142233544D01*
X110426607Y-108332544D02*
X109418551Y-108332544D01*
X70930769Y-114999796D02*
X71263517Y-115332544D01*
X51928868Y-117382999D02*
X52878413Y-118332544D01*
X327747790Y-128869783D02*
X328988846Y-128869783D01*
X348551607Y-153432544D02*
X347356607Y-153432544D01*
X167976607Y-172446194D02*
X169367454Y-171055347D01*
X272056607Y-94282544D02*
X271101607Y-93327544D01*
X282550916Y-169206544D02*
X296034492Y-169206544D01*
X270351330Y-150827821D02*
X271746884Y-150827821D01*
X259708607Y-92927544D02*
X248356607Y-92927544D01*
X327710216Y-90727544D02*
X327756006Y-90773334D01*
X309003437Y-127382544D02*
X308399312Y-126778419D01*
X166760492Y-141907544D02*
X166427607Y-142240429D01*
X100901607Y-167482544D02*
X99781607Y-167482544D01*
X149218647Y-150138886D02*
X148526607Y-150830926D01*
X253301607Y-141907544D02*
X252576607Y-141907544D01*
X99781607Y-167482544D02*
X99376607Y-167077544D01*
X71318551Y-153432544D02*
X70720079Y-152834072D01*
X148131607Y-151432544D02*
X147076607Y-150377544D01*
X260910907Y-91725244D02*
X259708607Y-92927544D01*
X52268549Y-156432544D02*
X51645078Y-155809073D01*
X328946607Y-90727544D02*
X327451607Y-90727544D01*
X255302607Y-148840734D02*
X254238417Y-147776544D01*
X290252607Y-150570544D02*
X290252607Y-148456832D01*
X148526607Y-150830926D02*
X148526607Y-151432544D01*
X53276607Y-137382544D02*
X52268551Y-137382544D01*
X148526607Y-113332544D02*
X147518551Y-113332544D01*
X347946607Y-114727544D02*
X348551607Y-115332544D01*
X71263517Y-134382544D02*
X70767562Y-133886589D01*
X270332322Y-112735138D02*
X271754201Y-112735138D01*
X366897607Y-117628544D02*
X367601607Y-118332544D01*
X328352607Y-148466060D02*
X327860503Y-147973956D01*
X271746884Y-150827821D02*
X272351607Y-151432544D01*
X51784431Y-98649812D02*
X51635603Y-98649812D01*
X72326607Y-96282544D02*
X71481607Y-96282544D01*
X289351607Y-128077544D02*
X290656607Y-129382544D01*
X90368551Y-148432544D02*
X91376607Y-148432544D01*
X139001607Y-170482544D02*
X137881607Y-170482544D01*
X327860503Y-147973956D02*
X329043019Y-147973956D01*
X297838417Y-152928544D02*
X292610607Y-152928544D01*
X304862456Y-145904505D02*
X297838417Y-152928544D01*
X271202607Y-151679098D02*
X270351330Y-150827821D01*
X309739492Y-150528544D02*
X309302607Y-150091659D01*
X289229997Y-90660680D02*
X290334743Y-90660680D01*
X52268551Y-137382544D02*
X51720079Y-136834072D01*
X330550139Y-152863886D02*
X328352607Y-150666354D01*
X119951607Y-167482544D02*
X118981607Y-167482544D01*
X256563797Y-155054544D02*
X257889417Y-155054544D01*
X318700607Y-166206544D02*
X319976607Y-167482544D01*
X147518549Y-132382544D02*
X146945078Y-131809073D01*
X148526607Y-132382544D02*
X147518549Y-132382544D01*
X328988846Y-128869783D02*
X329501607Y-129382544D01*
X255302607Y-149652924D02*
X255302607Y-148840734D01*
X296034492Y-169206544D02*
X298168492Y-167072544D01*
X310451607Y-146432544D02*
X309188775Y-146432544D01*
X70930769Y-114998382D02*
X70930769Y-114999796D01*
X271023309Y-93405842D02*
X265775214Y-93405842D01*
X257850227Y-152200544D02*
X255302607Y-149652924D01*
X298168492Y-167072544D02*
X300516607Y-167072544D01*
X347356607Y-153432544D02*
X346676607Y-152752544D01*
X271202607Y-153570544D02*
X271202607Y-151679098D01*
X292610607Y-152928544D02*
X290252607Y-150570544D01*
X281876607Y-170482544D02*
X281606607Y-170482544D01*
X308660736Y-145904505D02*
X304862456Y-145904505D01*
X166427607Y-142240429D02*
X166427607Y-143214659D01*
X327812918Y-109849621D02*
X329018684Y-109849621D01*
X165715722Y-143926544D02*
X163756779Y-143926544D01*
X310451607Y-89282544D02*
X309406607Y-89282544D01*
X348146607Y-133977544D02*
X348551607Y-134382544D01*
X363000607Y-157578544D02*
X349602607Y-157578544D01*
X290656607Y-129382544D02*
X291401607Y-129382544D01*
X290252607Y-148456832D02*
X289780790Y-147985015D01*
X72326607Y-134382544D02*
X71263517Y-134382544D01*
X127876607Y-90777544D02*
X128381607Y-91282544D01*
X346676607Y-152752544D02*
X346676607Y-152863886D01*
X316938417Y-150528544D02*
X309739492Y-150528544D01*
X52643875Y-98649812D02*
X51784431Y-98649812D01*
X291401607Y-110332544D02*
X290177607Y-110332544D01*
X91081607Y-91282544D02*
X90576607Y-90777544D01*
X72326607Y-153432544D02*
X71318551Y-153432544D01*
X254598479Y-164130672D02*
X254701607Y-164027544D01*
X367096607Y-98777544D02*
X367601607Y-99282544D01*
X329043019Y-147973956D02*
X329501607Y-148432544D01*
X118981607Y-167482544D02*
X118476607Y-166977544D01*
X327860503Y-147973956D02*
X319493005Y-147973956D01*
X290177607Y-110332544D02*
X289626607Y-109781544D01*
X366606607Y-156432544D02*
X365951607Y-155777544D01*
X270278596Y-131774607D02*
X271743670Y-131774607D01*
X109418549Y-127382544D02*
X108845078Y-126809073D01*
X289780790Y-147985015D02*
X288494136Y-147985015D01*
X129031607Y-110332544D02*
X128076607Y-109377544D01*
X281876607Y-169880853D02*
X282550916Y-169206544D01*
X129476607Y-129382544D02*
X128468551Y-129382544D01*
X265775214Y-93405842D02*
X264094616Y-91725244D01*
X110426607Y-127382544D02*
X109418549Y-127382544D01*
X271754201Y-112735138D02*
X272351607Y-113332544D01*
X309900607Y-107781544D02*
X310451607Y-108332544D01*
X146876607Y-93677544D02*
X147481607Y-94282544D01*
X348091442Y-95822379D02*
X348551607Y-96282544D01*
X309406607Y-89282544D02*
X308851607Y-88727544D01*
X129476607Y-110332544D02*
X129031607Y-110332544D01*
X273260607Y-155628544D02*
X271202607Y-153570544D01*
X110388954Y-146394891D02*
X110426607Y-146432544D01*
X366396607Y-136177544D02*
X367601607Y-137382544D01*
X252250607Y-145800544D02*
X253975607Y-147525544D01*
X319493005Y-147973956D02*
X316938417Y-150528544D01*
X128468551Y-129382544D02*
X127870079Y-128784072D01*
X89595051Y-147908234D02*
X89844241Y-147908234D01*
X90368551Y-110332544D02*
X89745079Y-109709072D01*
X365951607Y-98777544D02*
X367096607Y-98777544D01*
X166427607Y-143214659D02*
X165715722Y-143926544D01*
X346731021Y-95743107D02*
X346810293Y-95822379D01*
X327451607Y-90727544D02*
X327710216Y-90727544D01*
X346676607Y-152863886D02*
X330550139Y-152863886D01*
X53276607Y-156432544D02*
X52268549Y-156432544D01*
X257889417Y-155054544D02*
X258153607Y-154790354D01*
X367601607Y-156432544D02*
X366606607Y-156432544D01*
X91376607Y-110332544D02*
X90368551Y-110332544D01*
X148526607Y-151432544D02*
X148131607Y-151432544D01*
X71263517Y-115332544D02*
X72326607Y-115332544D01*
X288494136Y-147985015D02*
X280850607Y-155628544D01*
X137881607Y-170482544D02*
X137476607Y-170077544D01*
X51870482Y-117382999D02*
X51928868Y-117382999D01*
X91376607Y-91282544D02*
X91081607Y-91282544D01*
X129231607Y-148432544D02*
X128176607Y-147377544D01*
X109281607Y-89282544D02*
X108676607Y-88677544D01*
X109014260Y-145389891D02*
X110019260Y-146394891D01*
X147518551Y-113332544D02*
X146895079Y-112709072D01*
X52878413Y-118332544D02*
X53276607Y-118332544D01*
X90368551Y-129382544D02*
X89820079Y-128834072D01*
X300926607Y-167482544D02*
X300926607Y-166880853D01*
X254238417Y-147776544D02*
X254226607Y-147776544D01*
X258153607Y-154790354D02*
X258153607Y-152464734D01*
X256226607Y-153627544D02*
X256226607Y-154717354D01*
X280850607Y-155628544D02*
X273260607Y-155628544D01*
X271743670Y-131774607D02*
X272351607Y-132382544D01*
X264094616Y-91725244D02*
X260910907Y-91725244D01*
X290334743Y-90660680D02*
X290956607Y-91282544D01*
X346901607Y-114727544D02*
X347946607Y-114727544D01*
X167576607Y-141907544D02*
X166760492Y-141907544D01*
X365951607Y-155777544D02*
X364801607Y-155777544D01*
X254226607Y-147776544D02*
X253975607Y-147525544D01*
X281606607Y-170482544D02*
X280551607Y-169427544D01*
X90576607Y-90777544D02*
X89676607Y-90777544D01*
X128381607Y-91282544D02*
X128751607Y-91282544D01*
X272351607Y-94282544D02*
X272056607Y-94282544D01*
X308701607Y-107781544D02*
X309900607Y-107781544D01*
X328352607Y-150666354D02*
X328352607Y-148466060D01*
X364801607Y-155777544D02*
X363000607Y-157578544D01*
X110426607Y-89282544D02*
X109281607Y-89282544D01*
X290228319Y-148432544D02*
X289780790Y-147985015D01*
X109418551Y-108332544D02*
X108820079Y-107734072D01*
X300926607Y-166880853D02*
X301600916Y-166206544D01*
X254598479Y-166206600D02*
X254598479Y-164130672D01*
X91376607Y-129382544D02*
X90368551Y-129382544D01*
X281876607Y-170482544D02*
X281876607Y-169880853D01*
X256226607Y-154717354D02*
X256563797Y-155054544D01*
X309302607Y-146546376D02*
X308660736Y-145904505D01*
X291401607Y-148432544D02*
X290228319Y-148432544D01*
X169367454Y-171055347D02*
X169368727Y-171055347D01*
X347402607Y-155378544D02*
X347402607Y-153589886D01*
X53276607Y-99282544D02*
X52643875Y-98649812D01*
X110019260Y-146394891D02*
X110388954Y-146394891D01*
X346810293Y-95822379D02*
X348091442Y-95822379D01*
X310451607Y-127382544D02*
X309003437Y-127382544D01*
X301600916Y-166206544D02*
X318700607Y-166206544D01*
X290956607Y-91282544D02*
X291401607Y-91282544D01*
X157544437Y-150138886D02*
X149218647Y-150138886D01*
X300516607Y-167072544D02*
X300926607Y-167482544D01*
X309302607Y-150091659D02*
X309302607Y-146546376D01*
X365901607Y-117628544D02*
X366897607Y-117628544D01*
X71481607Y-96282544D02*
X70876607Y-95677544D01*
X163756779Y-143926544D02*
X157544437Y-150138886D01*
X329018684Y-109849621D02*
X329501607Y-110332544D01*
X257889417Y-152200544D02*
X257850227Y-152200544D01*
X271101607Y-93327544D02*
X271023309Y-93405842D01*
X347051607Y-133977544D02*
X348146607Y-133977544D01*
X129476607Y-148432544D02*
X129231607Y-148432544D01*
X347402607Y-153589886D02*
X346676607Y-152863886D01*
X147481607Y-94282544D02*
X148201817Y-94282544D01*
X258153607Y-152464734D02*
X257889417Y-152200544D01*
X162133598Y-89285244D02*
X163129616Y-89285244D01*
X148526607Y-95782544D02*
X148526607Y-96570196D01*
X174903607Y-85407544D02*
X177871607Y-85407544D01*
X157526607Y-97116991D02*
X160152607Y-94490991D01*
X163124262Y-89279889D02*
X165126607Y-87277544D01*
X160152607Y-94490991D02*
X160152607Y-91266235D01*
X160152607Y-91266235D02*
X162133598Y-89285244D01*
X163129616Y-89285244D02*
X163124262Y-89279889D01*
X173033607Y-87277544D02*
X174903607Y-85407544D01*
X157061027Y-98343124D02*
X157526607Y-97877544D01*
X157526607Y-97877544D02*
X157526607Y-97116991D01*
X150299535Y-98343124D02*
X157061027Y-98343124D01*
X165126607Y-87277544D02*
X173033607Y-87277544D01*
X148526607Y-96570196D02*
X150299535Y-98343124D01*
X289051607Y-95727544D02*
X298557899Y-95727544D01*
X357468091Y-99477560D02*
X356720435Y-99477560D01*
X341726494Y-96314621D02*
X346339417Y-100927544D01*
X318620403Y-92333804D02*
X320219968Y-93933369D01*
X280520371Y-97691621D02*
X282119936Y-99291186D01*
X282119936Y-99291186D02*
X285450155Y-99291186D01*
X322710854Y-94077544D02*
X323251607Y-94077544D01*
X249694307Y-99209844D02*
X248356607Y-100547544D01*
X287538530Y-97240621D02*
X289051607Y-95727544D01*
X315227663Y-95726544D02*
X318620403Y-92333804D01*
X280520371Y-97691621D02*
X279584448Y-98627544D01*
X279584448Y-98627544D02*
X268056607Y-98627544D01*
X337670419Y-94715056D02*
X337670419Y-94796356D01*
X299570387Y-95046324D02*
X300800607Y-96276544D01*
X360490417Y-100878544D02*
X358869075Y-100878544D01*
X300800607Y-96276544D02*
X307814797Y-96276544D01*
X339188684Y-96314621D02*
X341726494Y-96314621D01*
X285450155Y-99291186D02*
X287500720Y-97240621D01*
X308364797Y-95726544D02*
X315227663Y-95726544D01*
X268056607Y-98627544D02*
X267474307Y-99209844D01*
X323251607Y-94077544D02*
X323889119Y-94715056D01*
X322566679Y-93933369D02*
X322710854Y-94077544D01*
X287500720Y-97240621D02*
X287538530Y-97240621D01*
X374674319Y-103677544D02*
X363289417Y-103677544D01*
X363289417Y-103677544D02*
X360490417Y-100878544D01*
X323889119Y-94715056D02*
X337670419Y-94715056D01*
X375770451Y-102454125D02*
X375770451Y-102581412D01*
X298557899Y-95727544D02*
X299570387Y-94715056D01*
X267474307Y-99209844D02*
X249694307Y-99209844D01*
X299570387Y-94715056D02*
X299570387Y-95046324D01*
X355270451Y-100927544D02*
X356720435Y-99477560D01*
X320219968Y-93933369D02*
X322566679Y-93933369D01*
X337670419Y-94796356D02*
X339188684Y-96314621D01*
X375770451Y-102581412D02*
X374674319Y-103677544D01*
X358869075Y-100878544D02*
X357468091Y-99477560D01*
X346339417Y-100927544D02*
X355270451Y-100927544D01*
X307814797Y-96276544D02*
X308364797Y-95726544D01*
X265176274Y-100668186D02*
X263959216Y-101885244D01*
X318620403Y-95310369D02*
X319546403Y-94384369D01*
X325687121Y-97691621D02*
X337670419Y-97691621D01*
X375770451Y-105269116D02*
X374629879Y-104128544D01*
X280520371Y-100668186D02*
X281446371Y-99742186D01*
X308551607Y-96177544D02*
X308001607Y-96727544D01*
X357765748Y-102454125D02*
X356720435Y-102454125D01*
X337670419Y-97691621D02*
X338596419Y-96765621D01*
X360303607Y-101329544D02*
X358890329Y-101329544D01*
X308001607Y-96727544D02*
X300534464Y-96727544D01*
X317753228Y-96177544D02*
X308551607Y-96177544D01*
X319546403Y-94384369D02*
X322379869Y-94384369D01*
X338596419Y-96765621D02*
X341539684Y-96765621D01*
X318620403Y-95310369D02*
X317753228Y-96177544D01*
X341539684Y-96765621D02*
X347228188Y-102454125D01*
X375770451Y-105430690D02*
X375770451Y-105269116D01*
X374629879Y-104128544D02*
X363102607Y-104128544D01*
X287687530Y-97691621D02*
X299570387Y-97691621D01*
X300534464Y-96727544D02*
X299570387Y-97691621D01*
X347228188Y-102454125D02*
X356720435Y-102454125D01*
X322379869Y-94384369D02*
X325687121Y-97691621D01*
X358890329Y-101329544D02*
X357765748Y-102454125D01*
X363102607Y-104128544D02*
X360303607Y-101329544D01*
X280520371Y-100668186D02*
X265176274Y-100668186D01*
X285636965Y-99742186D02*
X287687530Y-97691621D01*
X249558907Y-101885244D02*
X248356607Y-103087544D01*
X281446371Y-99742186D02*
X285636965Y-99742186D01*
X263959216Y-101885244D02*
X249558907Y-101885244D01*
X259801607Y-116232853D02*
X259801607Y-115372235D01*
X286464797Y-137376544D02*
X282983136Y-137376544D01*
X282932136Y-137427544D02*
X282156262Y-137427544D01*
X260952607Y-117151544D02*
X260558598Y-117151544D01*
X328493417Y-132528544D02*
X329392417Y-133427544D01*
X314339970Y-133877544D02*
X314162970Y-133700544D01*
X356720435Y-137696372D02*
X356720435Y-137577592D01*
X260952607Y-118878544D02*
X260952607Y-117151544D01*
X375770451Y-140554157D02*
X373747064Y-142577544D01*
X337670419Y-132839166D02*
X339023341Y-134192088D01*
X373747064Y-142577544D02*
X365751639Y-142577544D01*
X260558598Y-117151544D02*
X260558598Y-116989844D01*
X282156262Y-137427544D02*
X280520371Y-135791653D01*
X299570387Y-132815088D02*
X298407931Y-133977544D01*
X288500688Y-135340653D02*
X286464797Y-137376544D01*
X280520371Y-135791653D02*
X280508480Y-135803544D01*
X300981843Y-134226544D02*
X299570387Y-132815088D01*
X314162970Y-133700544D02*
X312090244Y-133700544D01*
X259801607Y-115372235D02*
X250056916Y-105627544D01*
X311564244Y-134226544D02*
X311234931Y-134226544D01*
X346229586Y-139027544D02*
X355270483Y-139027544D01*
X311083931Y-134075544D02*
X308169283Y-134075544D01*
X260558598Y-116989844D02*
X259801607Y-116232853D01*
X266202607Y-131728544D02*
X266202607Y-127878544D01*
X265077607Y-126753544D02*
X265077607Y-123003544D01*
X312090244Y-133700544D02*
X311564244Y-134226544D01*
X266202607Y-127878544D02*
X265077607Y-126753544D01*
X337670419Y-132815088D02*
X337670419Y-132839166D01*
X265077607Y-123003544D02*
X260952607Y-118878544D01*
X358201607Y-139177544D02*
X356720435Y-137696372D01*
X311234931Y-134226544D02*
X311083931Y-134075544D01*
X320813797Y-132377544D02*
X320964797Y-132528544D01*
X298407931Y-133977544D02*
X289901607Y-133977544D01*
X320964797Y-132528544D02*
X328493417Y-132528544D01*
X289901607Y-133977544D02*
X288538498Y-135340653D01*
X365751639Y-142577544D02*
X362351639Y-139177544D01*
X308018283Y-134226544D02*
X300981843Y-134226544D01*
X329392417Y-133427544D02*
X337057963Y-133427544D01*
X339023341Y-134192088D02*
X341394130Y-134192088D01*
X341394130Y-134192088D02*
X346229586Y-139027544D01*
X319968798Y-132377544D02*
X320813797Y-132377544D01*
X288538498Y-135340653D02*
X288500688Y-135340653D01*
X318620403Y-131029149D02*
X315772008Y-133877544D01*
X315772008Y-133877544D02*
X314339970Y-133877544D01*
X308169283Y-134075544D02*
X308018283Y-134226544D01*
X282983136Y-137376544D02*
X282932136Y-137427544D01*
X250056916Y-105627544D02*
X248356607Y-105627544D01*
X362351639Y-139177544D02*
X358201607Y-139177544D01*
X337057963Y-133427544D02*
X337670419Y-132815088D01*
X270277607Y-135803544D02*
X266202607Y-131728544D01*
X355270483Y-139027544D02*
X356720435Y-137577592D01*
X280508480Y-135803544D02*
X270277607Y-135803544D01*
X318620403Y-131029149D02*
X319968798Y-132377544D01*
X311751054Y-134677544D02*
X311048121Y-134677544D01*
X258600607Y-118028428D02*
X258600607Y-119028544D01*
X260901607Y-127777544D02*
X264690155Y-127777544D01*
X341746419Y-135422356D02*
X346878220Y-140554157D01*
X256401607Y-121227544D02*
X256401607Y-123277544D01*
X314502160Y-134677544D02*
X313976160Y-134151544D01*
X265751607Y-132206030D02*
X266077607Y-132532030D01*
X346878220Y-140554157D02*
X356720435Y-140554157D01*
X375770451Y-143530722D02*
X364382466Y-143530722D01*
X337670419Y-135791653D02*
X338596419Y-134865653D01*
X321144403Y-134129714D02*
X321144403Y-133396248D01*
X282229272Y-138768218D02*
X280520371Y-138768218D01*
X364382466Y-143530722D02*
X360479901Y-139628157D01*
X322379869Y-133079714D02*
X322696403Y-133396248D01*
X257314307Y-116742128D02*
X258600607Y-118028428D01*
X265751607Y-128838996D02*
X265751607Y-132206030D01*
X256401607Y-123277544D02*
X260901607Y-127777544D01*
X258600607Y-119028544D02*
X256401607Y-121227544D01*
X310897121Y-134526544D02*
X308356093Y-134526544D01*
X286651607Y-137827544D02*
X283169946Y-137827544D01*
X312277054Y-134151544D02*
X311751054Y-134677544D01*
X300684496Y-134677544D02*
X299570387Y-135791653D01*
X322696403Y-134129714D02*
X336008480Y-134129714D01*
X322696403Y-133396248D02*
X322696403Y-134129714D01*
X308356093Y-134526544D02*
X308205093Y-134677544D01*
X266077607Y-134903544D02*
X269942281Y-138768218D01*
X283169946Y-137827544D02*
X282229272Y-138768218D01*
X269942281Y-138768218D02*
X280520371Y-138768218D01*
X336008480Y-134129714D02*
X337670419Y-135791653D01*
X341746419Y-135182187D02*
X341746419Y-135422356D01*
X357646435Y-139628157D02*
X356720435Y-140554157D01*
X313976160Y-134151544D02*
X312277054Y-134151544D01*
X360479901Y-139628157D02*
X357646435Y-139628157D01*
X266077607Y-132532030D02*
X266077607Y-134903544D01*
X341429885Y-134865653D02*
X341746419Y-135182187D01*
X318620403Y-134005714D02*
X317948573Y-134677544D01*
X321460937Y-133079714D02*
X322379869Y-133079714D01*
X250192316Y-108167544D02*
X257314307Y-115289535D01*
X308205093Y-134677544D02*
X300684496Y-134677544D01*
X318744403Y-134129714D02*
X321144403Y-134129714D01*
X311048121Y-134677544D02*
X310897121Y-134526544D01*
X264690155Y-127777544D02*
X265751607Y-128838996D01*
X257314307Y-115289535D02*
X257314307Y-116742128D01*
X317948573Y-134677544D02*
X314502160Y-134677544D01*
X321144403Y-133396248D02*
X321460937Y-133079714D01*
X299570387Y-135791653D02*
X288687498Y-135791653D01*
X288687498Y-135791653D02*
X286651607Y-137827544D01*
X318620403Y-134005714D02*
X318744403Y-134129714D01*
X248356607Y-108167544D02*
X250192316Y-108167544D01*
X338596419Y-134865653D02*
X341429885Y-134865653D01*
X308859957Y-155201544D02*
X309095395Y-155436982D01*
X255951607Y-117462853D02*
X254638907Y-116150153D01*
X254638907Y-116150153D02*
X254638907Y-115289535D01*
X281037417Y-156079544D02*
X273073797Y-156079544D01*
X290045379Y-157818234D02*
X289450066Y-157818234D01*
X261470355Y-129243210D02*
X255951607Y-123724462D01*
X250056916Y-110707544D02*
X248356607Y-110707544D01*
X290640692Y-157818234D02*
X293257382Y-155201544D01*
X263501607Y-154596356D02*
X263501607Y-147727544D01*
X261554689Y-129327544D02*
X261470355Y-129243210D01*
X290045379Y-157818234D02*
X290640692Y-157818234D01*
X293257382Y-155201544D02*
X308859957Y-155201544D01*
X272371797Y-155377544D02*
X262720419Y-155377544D01*
X281739417Y-155377544D02*
X281037417Y-156079544D01*
X262720419Y-155377544D02*
X260875042Y-157222921D01*
X255951607Y-123724462D02*
X255951607Y-117462853D01*
X287009376Y-155377544D02*
X281739417Y-155377544D01*
X328145411Y-155436982D02*
X327219411Y-154510982D01*
X260875042Y-157222921D02*
X263501607Y-154596356D01*
X254638907Y-115289535D02*
X250056916Y-110707544D01*
X263101607Y-129327544D02*
X261554689Y-129327544D01*
X310021395Y-154510982D02*
X309095395Y-155436982D01*
X289450066Y-157818234D02*
X287009376Y-155377544D01*
X273073797Y-156079544D02*
X272371797Y-155377544D01*
X327219411Y-154510982D02*
X310021395Y-154510982D01*
X272351607Y-95782544D02*
X272351607Y-97177544D01*
X272351607Y-97177544D02*
X272301607Y-97227544D01*
X179126607Y-107027544D02*
X179126607Y-106977544D01*
X178369616Y-109469844D02*
X179126607Y-108712853D01*
X177508998Y-109469844D02*
X178369616Y-109469844D01*
X179126607Y-106977544D02*
X179176607Y-106927544D01*
X175331607Y-111647235D02*
X177508998Y-109469844D01*
X179126607Y-108712853D02*
X179126607Y-107027544D01*
X175331607Y-115887544D02*
X175331607Y-111647235D01*
X247951605Y-127977544D02*
X248001607Y-127977544D01*
X256726607Y-153627544D02*
X256726607Y-152352544D01*
X254052607Y-149678544D02*
X254052607Y-148951544D01*
X256726607Y-152352544D02*
X254052607Y-149678544D01*
X248001607Y-120819428D02*
X248001607Y-127977544D01*
X246299607Y-129629542D02*
X247951605Y-127977544D01*
X254052607Y-148951544D02*
X249275607Y-148951544D01*
X253436607Y-115787544D02*
X253033491Y-115787544D01*
X253033491Y-115787544D02*
X248001607Y-120819428D01*
X249275607Y-148951544D02*
X246299607Y-145975544D01*
X246299607Y-145975544D02*
X246299607Y-129629542D01*
X254851607Y-149027544D02*
X254051607Y-148227544D01*
X248976989Y-129552162D02*
X252156607Y-126372544D01*
X247014797Y-129552162D02*
X248976989Y-129552162D01*
X257226607Y-152214734D02*
X254851607Y-149839734D01*
X257226607Y-153627544D02*
X257226607Y-152214734D01*
X254051607Y-148227544D02*
X254039797Y-148227544D01*
X254039797Y-148227544D02*
X253788797Y-147976544D01*
X246750607Y-129816352D02*
X247014797Y-129552162D01*
X246750607Y-145788734D02*
X246750607Y-129816352D01*
X253788797Y-147976544D02*
X248938417Y-147976544D01*
X254851607Y-149839734D02*
X254851607Y-149027544D01*
X248938417Y-147976544D02*
X246750607Y-145788734D01*
X252156607Y-126372544D02*
X252156607Y-118327544D01*
X75689797Y-119226544D02*
X78889797Y-119226544D01*
X52326607Y-88952544D02*
X52451607Y-88952544D01*
X52451607Y-108002544D02*
X52326607Y-108002544D01*
X88839797Y-114026544D02*
X107827607Y-114026544D01*
X117276607Y-113377544D02*
X118523607Y-114624544D01*
X158388798Y-117527543D02*
X158751607Y-117164734D01*
X161429307Y-104424844D02*
X161626607Y-104227544D01*
X145373847Y-117573544D02*
X149130607Y-117573544D01*
X161626607Y-104192544D02*
X162631607Y-103187544D01*
X149176607Y-117527544D02*
X158388798Y-117527543D01*
X48991607Y-130512544D02*
X48866607Y-130512544D01*
X52326607Y-108002544D02*
X48866607Y-111462544D01*
X149130607Y-117573544D02*
X149176607Y-117527544D01*
X57027607Y-122476544D02*
X72439797Y-122476544D01*
X52451607Y-127052544D02*
X57027607Y-122476544D01*
X160602607Y-107958425D02*
X161429307Y-107131725D01*
X48212559Y-93066592D02*
X52326607Y-88952544D01*
X52451607Y-146102544D02*
X52326607Y-146102544D01*
X48866607Y-147687826D02*
X49226748Y-147327685D01*
X108476607Y-113377544D02*
X117276607Y-113377544D01*
X52326607Y-146102544D02*
X48866607Y-149562544D01*
X158751607Y-110877544D02*
X160600607Y-109028544D01*
X161429307Y-107131725D02*
X161429307Y-104424844D01*
X72439797Y-122476544D02*
X75689797Y-119226544D01*
X86689797Y-116176544D02*
X88839797Y-114026544D01*
X78889797Y-119226544D02*
X81939797Y-116176544D01*
X160600607Y-108419477D02*
X160602607Y-108417477D01*
X81939797Y-116176544D02*
X86689797Y-116176544D01*
X49235215Y-109027544D02*
X49218805Y-109043954D01*
X142424847Y-114624544D02*
X145373847Y-117573544D01*
X118523607Y-114624544D02*
X142424847Y-114624544D01*
X48212559Y-94631456D02*
X48212559Y-93066592D01*
X52451607Y-127052544D02*
X48991607Y-130512544D01*
X49031113Y-128277544D02*
X49031113Y-130348038D01*
X160602607Y-108417477D02*
X160602607Y-107958425D01*
X48866607Y-109250345D02*
X48866607Y-111462544D01*
X161626607Y-104227544D02*
X161626607Y-104192544D01*
X49031113Y-130348038D02*
X48866607Y-130512544D01*
X49218805Y-109043954D02*
X49072998Y-109043954D01*
X49072998Y-109043954D02*
X48866607Y-109250345D01*
X160600607Y-109028544D02*
X160600607Y-108419477D01*
X158751607Y-117164734D02*
X158751607Y-110877544D01*
X107827607Y-114026544D02*
X108476607Y-113377544D01*
X48866607Y-149562544D02*
X48866607Y-147687826D01*
X161051607Y-109215354D02*
X159202607Y-111064354D01*
X158575611Y-117978543D02*
X158575608Y-117978543D01*
X96491607Y-160612544D02*
X96616607Y-160612544D01*
X67916607Y-106831608D02*
X67916607Y-108462544D01*
X108014417Y-114477544D02*
X89026607Y-114477544D01*
X67916607Y-127283540D02*
X67916607Y-127512544D01*
X68326607Y-144177544D02*
X68326607Y-144713760D01*
X68326607Y-144713760D02*
X67916607Y-145123760D01*
X68726303Y-156202543D02*
X68901304Y-156377544D01*
X67262543Y-95602544D02*
X67262543Y-90066608D01*
X71501607Y-105002544D02*
X71376607Y-105002544D01*
X68576607Y-105777544D02*
X68576607Y-106171608D01*
X68901304Y-156377544D02*
X92256607Y-156377544D01*
X82126607Y-116627544D02*
X79076607Y-119677544D01*
X118336797Y-115075544D02*
X117089797Y-113828544D01*
X162133598Y-107065244D02*
X161053607Y-108145235D01*
X96616607Y-160612544D02*
X100076607Y-157152544D01*
X162631607Y-105286030D02*
X162631607Y-105727544D01*
X117089797Y-113828544D02*
X108663417Y-113828544D01*
X162631607Y-107065244D02*
X162133598Y-107065244D01*
X159202607Y-111064354D02*
X159202607Y-117351544D01*
X71501607Y-124052544D02*
X71829355Y-124052544D01*
X67262543Y-126191608D02*
X67262543Y-126629476D01*
X161053607Y-108604287D02*
X161051607Y-108606287D01*
X67916607Y-145123760D02*
X67916607Y-146562544D01*
X158575608Y-117978543D02*
X158529607Y-118024544D01*
X108663417Y-113828544D02*
X108014417Y-114477544D01*
X68426607Y-125027544D02*
X67262543Y-126191608D01*
X79076607Y-119677544D02*
X75876607Y-119677544D01*
X159202607Y-117351544D02*
X158575611Y-117978543D01*
X86876607Y-116627544D02*
X82126607Y-116627544D01*
X68576607Y-106171608D02*
X67916607Y-106831608D01*
X67916607Y-127512544D02*
X68041607Y-127512544D01*
X71376607Y-105002544D02*
X67916607Y-108462544D01*
X145187037Y-118024544D02*
X142238037Y-115075544D01*
X71376607Y-85952544D02*
X71501607Y-85952544D01*
X75876607Y-119677544D02*
X71501607Y-124052544D01*
X68041607Y-127512544D02*
X71501607Y-124052544D01*
X158529607Y-118024544D02*
X145187037Y-118024544D01*
X92256607Y-156377544D02*
X96491607Y-160612544D01*
X142238037Y-115075544D02*
X118336797Y-115075544D01*
X161051607Y-108606287D02*
X161051607Y-109215354D01*
X161053607Y-108145235D02*
X161053607Y-108604287D01*
X71501607Y-143102544D02*
X71376607Y-143102544D01*
X89026607Y-114477544D02*
X86876607Y-116627544D01*
X71829355Y-124052544D02*
X72620351Y-124843540D01*
X71376607Y-143102544D02*
X67916607Y-146562544D01*
X162631607Y-105727544D02*
X162631607Y-107065244D01*
X67262543Y-126629476D02*
X67916607Y-127283540D01*
X67262543Y-90066608D02*
X71376607Y-85952544D01*
X87975703Y-100976640D02*
X87975703Y-101958448D01*
X86312527Y-140041624D02*
X86312527Y-140908464D01*
X87426607Y-138977544D02*
X87026607Y-139377544D01*
X94675607Y-114928544D02*
X108201227Y-114928544D01*
X145000227Y-118475544D02*
X158716417Y-118475544D01*
X86966607Y-122512544D02*
X87091607Y-122512544D01*
X142051227Y-115526544D02*
X145000227Y-118475544D01*
X87091607Y-141562544D02*
X90551607Y-138102544D01*
X87551607Y-100852544D02*
X87851607Y-100852544D01*
X108202607Y-152103544D02*
X105626607Y-152103544D01*
X86312527Y-90631544D02*
X86312527Y-85066624D01*
X86976607Y-139377544D02*
X86312527Y-140041624D01*
X90551607Y-100002544D02*
X90426607Y-100002544D01*
X87576607Y-120027544D02*
X86312527Y-121291624D01*
X87502607Y-152103544D02*
X86676607Y-151277544D01*
X87851607Y-100852544D02*
X87975703Y-100976640D01*
X87026607Y-139377544D02*
X86976607Y-139377544D01*
X108201227Y-114928544D02*
X108850227Y-114279544D01*
X86312527Y-85066624D02*
X90426607Y-80952544D01*
X86312527Y-121858464D02*
X86966607Y-122512544D01*
X105626607Y-152103544D02*
X87502607Y-152103544D01*
X162631607Y-108273164D02*
X162631607Y-108267544D01*
X86312527Y-140908464D02*
X86966607Y-141562544D01*
X116902987Y-114279544D02*
X118149987Y-115526544D01*
X115541607Y-160612544D02*
X115666607Y-160612544D01*
X86966607Y-141562544D02*
X87091607Y-141562544D01*
X158762419Y-118429542D02*
X158762423Y-118429542D01*
X86312527Y-121291624D02*
X86312527Y-121858464D01*
X108850227Y-114279544D02*
X116902987Y-114279544D01*
X115666607Y-160612544D02*
X119126607Y-157152544D01*
X86966607Y-102967544D02*
X86966607Y-103462544D01*
X87975703Y-101958448D02*
X86966607Y-102967544D01*
X158716417Y-118475544D02*
X158762419Y-118429542D01*
X90426607Y-100002544D02*
X86966607Y-103462544D01*
X90551607Y-119052544D02*
X94675607Y-114928544D01*
X158762423Y-118429542D02*
X159653607Y-117538354D01*
X90426607Y-80952544D02*
X90551607Y-80952544D01*
X87091607Y-122512544D02*
X90551607Y-119052544D01*
X115541607Y-159442544D02*
X108202607Y-152103544D01*
X115541607Y-160612544D02*
X115541607Y-159442544D01*
X118149987Y-115526544D02*
X142051227Y-115526544D01*
X159653607Y-117538354D02*
X159653607Y-111251164D01*
X159653607Y-111251164D02*
X162631607Y-108273164D01*
X160615037Y-110927544D02*
X162511607Y-110927544D01*
X106426607Y-99607544D02*
X106016607Y-100017544D01*
X160104607Y-117725164D02*
X160104607Y-111437974D01*
X160104607Y-111437974D02*
X160615037Y-110927544D01*
X109601607Y-117052544D02*
X111923607Y-114730544D01*
X134591607Y-163612544D02*
X134716607Y-163612544D01*
X158949235Y-118880541D02*
X160104607Y-117725164D01*
X144813417Y-118926544D02*
X158903227Y-118926544D01*
X106426607Y-99277544D02*
X106426607Y-99607544D01*
X111923607Y-114730544D02*
X116629607Y-114730544D01*
X109476607Y-78952544D02*
X109601607Y-78952544D01*
X105176607Y-83252544D02*
X109476607Y-78952544D01*
X158949230Y-118880541D02*
X158949235Y-118880541D01*
X158903227Y-118926544D02*
X158949230Y-118880541D01*
X106016607Y-137637544D02*
X106016607Y-139562544D01*
X162511607Y-110927544D02*
X162631607Y-110807544D01*
X106826607Y-117827544D02*
X106826607Y-118107544D01*
X128525345Y-153777544D02*
X134591607Y-159843806D01*
X116629607Y-114730544D02*
X117876607Y-115977544D01*
X134716607Y-163612544D02*
X138176607Y-160152544D01*
X109601607Y-117052544D02*
X109476607Y-117052544D01*
X109476607Y-117052544D02*
X106016607Y-120512544D01*
X106016607Y-100017544D02*
X106016607Y-101462544D01*
X109476607Y-136102544D02*
X106016607Y-139562544D01*
X109601607Y-136102544D02*
X109476607Y-136102544D01*
X106676607Y-136977544D02*
X106016607Y-137637544D01*
X114476607Y-153777544D02*
X128525345Y-153777544D01*
X105176607Y-87877544D02*
X105176607Y-83252544D01*
X141864417Y-115977544D02*
X144813417Y-118926544D01*
X106141607Y-101462544D02*
X106016607Y-101462544D01*
X134591607Y-159843806D02*
X134591607Y-163612544D01*
X117876607Y-115977544D02*
X141864417Y-115977544D01*
X106826607Y-118107544D02*
X106016607Y-118917544D01*
X106016607Y-118917544D02*
X106016607Y-120512544D01*
X109601607Y-98002544D02*
X106141607Y-101462544D01*
X124412495Y-85066656D02*
X128526607Y-80952544D01*
X159657907Y-170528038D02*
X159657907Y-167437405D01*
X160555607Y-115423544D02*
X162631607Y-113347544D01*
X133476607Y-155577544D02*
X146576607Y-155577544D01*
X128651607Y-138102544D02*
X125191607Y-141562544D01*
X159136047Y-119331540D02*
X160555607Y-117911974D01*
X144626607Y-119377544D02*
X159090037Y-119377544D01*
X125066607Y-122512544D02*
X125191607Y-122512544D01*
X161278646Y-172148777D02*
X159657907Y-170528038D01*
X141677607Y-116428544D02*
X144626607Y-119377544D01*
X125826607Y-138827544D02*
X125776607Y-138877544D01*
X125191607Y-141562544D02*
X125066607Y-141562544D01*
X125776607Y-138877544D02*
X125776607Y-139421656D01*
X125191607Y-122512544D02*
X128651607Y-119052544D01*
X126170719Y-100927544D02*
X125066607Y-102031656D01*
X125066607Y-121131656D02*
X125066607Y-122512544D01*
X159090037Y-119377544D02*
X159136040Y-119331541D01*
X125066607Y-102031656D02*
X125066607Y-103462544D01*
X125576607Y-120621656D02*
X125066607Y-121131656D01*
X128526607Y-80952544D02*
X128651607Y-80952544D01*
X125776607Y-139421656D02*
X125066607Y-140131656D01*
X124412495Y-90052544D02*
X124412495Y-85066656D01*
X125976607Y-100677544D02*
X126170719Y-100871656D01*
X125191607Y-103462544D02*
X128651607Y-100002544D01*
X160555607Y-117911974D02*
X160555607Y-115423544D01*
X125576607Y-120227544D02*
X125576607Y-120621656D01*
X126170719Y-100871656D02*
X126170719Y-100927544D01*
X125066607Y-103462544D02*
X125191607Y-103462544D01*
X131275607Y-116428544D02*
X141677607Y-116428544D01*
X158436468Y-167437405D02*
X159657907Y-167437405D01*
X125976607Y-100602544D02*
X125976607Y-100677544D01*
X128651607Y-119052544D02*
X131275607Y-116428544D01*
X159136040Y-119331541D02*
X159136047Y-119331540D01*
X146576607Y-155577544D02*
X158436468Y-167437405D01*
X125066607Y-140131656D02*
X125066607Y-141562544D01*
X159276847Y-119828544D02*
X159322850Y-119782541D01*
X144116607Y-125512544D02*
X144241607Y-125512544D01*
X144126607Y-123727544D02*
X144126607Y-124607544D01*
X149925607Y-119828544D02*
X159276847Y-119828544D01*
X144626607Y-105207544D02*
X144116607Y-105717544D01*
X147701607Y-122052544D02*
X149925607Y-119828544D01*
X147701607Y-141102544D02*
X146031607Y-141102544D01*
X163926607Y-101942544D02*
X162631607Y-100647544D01*
X161006607Y-118098784D02*
X161006607Y-115610354D01*
X144626607Y-104127544D02*
X144626607Y-105207544D01*
X163166607Y-135037544D02*
X163291607Y-135037544D01*
X163926607Y-113777544D02*
X163926607Y-101942544D01*
X144241607Y-106462544D02*
X147701607Y-103002544D01*
X163166607Y-135037544D02*
X163166607Y-137207408D01*
X144676607Y-123177544D02*
X144126607Y-123727544D01*
X146031607Y-141102544D02*
X144116607Y-143017544D01*
X144126607Y-124607544D02*
X144116607Y-124617544D01*
X161006607Y-115610354D02*
X162039417Y-114577544D01*
X142976607Y-92181544D02*
X144226607Y-90931544D01*
X144116607Y-124617544D02*
X144116607Y-125512544D01*
X163126607Y-114577544D02*
X163926607Y-113777544D01*
X160454901Y-139919114D02*
X159006901Y-139919114D01*
X144116607Y-106462544D02*
X144241607Y-106462544D01*
X150737037Y-138067114D02*
X147701607Y-141102544D01*
X159322859Y-119782539D02*
X161006607Y-118098784D01*
X162039417Y-114577544D02*
X163126607Y-114577544D01*
X144226607Y-87427544D02*
X147701607Y-83952544D01*
X144116607Y-105717544D02*
X144116607Y-106462544D01*
X157154901Y-138067114D02*
X150737037Y-138067114D01*
X144226607Y-90931544D02*
X144226607Y-87427544D01*
X144116607Y-143017544D02*
X142976607Y-141877544D01*
X159322850Y-119782541D02*
X159322859Y-119782539D01*
X159006901Y-139919114D02*
X157154901Y-138067114D01*
X144241607Y-125512544D02*
X147701607Y-122052544D01*
X163291607Y-135037544D02*
X166751607Y-131577544D01*
X144116607Y-144562544D02*
X144116607Y-143017544D01*
X163166607Y-137207408D02*
X160454901Y-139919114D01*
X330338492Y-115977544D02*
X327788492Y-113427544D01*
X363191607Y-92412544D02*
X363316607Y-92412544D01*
X266301607Y-112090659D02*
X266301607Y-105792544D01*
X363191607Y-99713544D02*
X362351607Y-100553544D01*
X363316607Y-130512544D02*
X366776607Y-127052544D01*
X271601607Y-117177544D02*
X271388492Y-117177544D01*
X271652607Y-117228544D02*
X271601607Y-117177544D01*
X361001607Y-121277544D02*
X349551607Y-121277544D01*
X271388492Y-117177544D02*
X266301607Y-112090659D01*
X363191607Y-130512544D02*
X363316607Y-130512544D01*
X361576607Y-147947544D02*
X363191607Y-149562544D01*
X303700607Y-114378544D02*
X290152607Y-114378544D01*
X366776607Y-146102544D02*
X366651607Y-146102544D01*
X349551607Y-121277544D02*
X344251607Y-115977544D01*
X324800607Y-112278544D02*
X307002607Y-112278544D01*
X366651607Y-108002544D02*
X363191607Y-111462544D01*
X307002607Y-112278544D02*
X306401607Y-111677544D01*
X366651607Y-146102544D02*
X363191607Y-149562544D01*
X327788492Y-113427544D02*
X326451607Y-113427544D01*
X306401607Y-111677544D02*
X303700607Y-114378544D01*
X366776607Y-127052544D02*
X361001607Y-121277544D01*
X363191607Y-92412544D02*
X363191607Y-99713544D01*
X266301607Y-105792544D02*
X263915512Y-103406449D01*
X289651607Y-113877544D02*
X286300607Y-117228544D01*
X325051607Y-112027544D02*
X324800607Y-112278544D01*
X326451607Y-113427544D02*
X325051607Y-112027544D01*
X361576607Y-109727544D02*
X361576607Y-109847544D01*
X361526607Y-128277544D02*
X361526607Y-128847544D01*
X361576607Y-109847544D02*
X363191607Y-111462544D01*
X361526607Y-128847544D02*
X363191607Y-130512544D01*
X366776607Y-108002544D02*
X366651607Y-108002544D01*
X290152607Y-114378544D02*
X289651607Y-113877544D01*
X363316607Y-92412544D02*
X366776607Y-88952544D01*
X361576607Y-147627544D02*
X361576607Y-147947544D01*
X344251607Y-115977544D02*
X330338492Y-115977544D01*
X286300607Y-117228544D02*
X271652607Y-117228544D01*
X263596607Y-105627544D02*
X265850607Y-107881544D01*
X344266607Y-89412544D02*
X347726607Y-85952544D01*
X265850607Y-107881544D02*
X265850607Y-112277469D01*
X320952607Y-155351544D02*
X319151607Y-157152544D01*
X315691607Y-160612544D02*
X319151607Y-157152544D01*
X306751607Y-112927544D02*
X324951607Y-112927544D01*
X347726607Y-105002544D02*
X347601607Y-105002544D01*
X343701607Y-95677544D02*
X344141607Y-95237544D01*
X342676607Y-106327544D02*
X343451607Y-106327544D01*
X342851607Y-144277544D02*
X342851607Y-145272544D01*
X289451607Y-115027544D02*
X304451607Y-115027544D01*
X315566607Y-160612544D02*
X315691607Y-160612544D01*
X344141607Y-107017544D02*
X344141607Y-108462544D01*
X343451607Y-106327544D02*
X344141607Y-107017544D01*
X306651607Y-112827544D02*
X306751607Y-112927544D01*
X344141607Y-95237544D02*
X344141607Y-89412544D01*
X341601607Y-154027544D02*
X341451607Y-154177544D01*
X286751607Y-117727544D02*
X289451607Y-115027544D01*
X344141607Y-146562544D02*
X344266607Y-146562544D01*
X327801607Y-114177544D02*
X330052607Y-116428544D01*
X271300682Y-117727544D02*
X286751607Y-117727544D01*
X344141607Y-127512544D02*
X344266607Y-127512544D01*
X327685945Y-156362982D02*
X326674507Y-155351544D01*
X304451607Y-115027544D02*
X306651607Y-112827544D01*
X344141607Y-89412544D02*
X344266607Y-89412544D01*
X342851607Y-145272544D02*
X344141607Y-146562544D01*
X326674507Y-155351544D02*
X320952607Y-155351544D01*
X331319383Y-154177544D02*
X329133945Y-156362982D01*
X344266607Y-127512544D02*
X347726607Y-124052544D01*
X340102607Y-116428544D02*
X347726607Y-124052544D01*
X347601607Y-105002544D02*
X344141607Y-108462544D01*
X326201607Y-114177544D02*
X327801607Y-114177544D01*
X342826607Y-125727544D02*
X342826607Y-126197544D01*
X324951607Y-112927544D02*
X326201607Y-114177544D01*
X342826607Y-126197544D02*
X344141607Y-127512544D01*
X330052607Y-116428544D02*
X340102607Y-116428544D01*
X329133945Y-156362982D02*
X327685945Y-156362982D01*
X344266607Y-146562544D02*
X347726607Y-143102544D01*
X265850607Y-112277469D02*
X271300682Y-117727544D01*
X341451607Y-154177544D02*
X331319383Y-154177544D01*
X325216607Y-141562544D02*
X328676607Y-138102544D01*
X297076607Y-157152544D02*
X296851607Y-156927544D01*
X323301607Y-113677544D02*
X307101607Y-113677544D01*
X328551607Y-100002544D02*
X325091607Y-103462544D01*
X265351607Y-109922544D02*
X263596607Y-108167544D01*
X287401607Y-118177544D02*
X270851608Y-118177544D01*
X328676607Y-119052544D02*
X323301607Y-113677544D01*
X323876607Y-119827544D02*
X325091607Y-121042544D01*
X270851608Y-118177544D02*
X265351607Y-112677543D01*
X325091607Y-121042544D02*
X325091607Y-122512544D01*
X323926607Y-101177544D02*
X323926607Y-102297544D01*
X325216607Y-84412544D02*
X328676607Y-80952544D01*
X296641607Y-160612544D02*
X300101607Y-157152544D01*
X325091607Y-141562544D02*
X325216607Y-141562544D01*
X325216607Y-122512544D02*
X328676607Y-119052544D01*
X328676607Y-100002544D02*
X328551607Y-100002544D01*
X325091607Y-91263544D02*
X323801607Y-92553544D01*
X325091607Y-84412544D02*
X325216607Y-84412544D01*
X265351607Y-112677543D02*
X265351607Y-109922544D01*
X325091607Y-122512544D02*
X325216607Y-122512544D01*
X300101607Y-157152544D02*
X297076607Y-157152544D01*
X307101607Y-113677544D02*
X305101607Y-115677544D01*
X323576607Y-139277544D02*
X323576607Y-140047544D01*
X305101607Y-115677544D02*
X289901607Y-115677544D01*
X296516607Y-160612544D02*
X296641607Y-160612544D01*
X323926607Y-102297544D02*
X325091607Y-103462544D01*
X325091607Y-84412544D02*
X325091607Y-91263544D01*
X289901607Y-115677544D02*
X287401607Y-118177544D01*
X323576607Y-140047544D02*
X325091607Y-141562544D01*
X305124607Y-138645544D02*
X306041607Y-139562544D01*
X287539417Y-118677544D02*
X288965417Y-117251544D01*
X289193223Y-158351544D02*
X289585913Y-158744234D01*
X306166607Y-82412544D02*
X309626607Y-78952544D01*
X305124607Y-137327544D02*
X305124607Y-138645544D01*
X264900607Y-112011544D02*
X264900607Y-112864353D01*
X306041607Y-82412544D02*
X306166607Y-82412544D01*
X305001607Y-100422544D02*
X306041607Y-101462544D01*
X281051607Y-160152544D02*
X280926607Y-160152544D01*
X306166607Y-139562544D02*
X309626607Y-136102544D01*
X263596607Y-110707544D02*
X264900607Y-112011544D01*
X306041607Y-92512544D02*
X305101607Y-93452544D01*
X305124607Y-118177544D02*
X306041607Y-119094544D01*
X270713798Y-118677544D02*
X287539417Y-118677544D01*
X264900607Y-112864353D02*
X270713798Y-118677544D01*
X288965417Y-117251544D02*
X304198607Y-117251544D01*
X306041607Y-101462544D02*
X306166607Y-101462544D01*
X282852607Y-158351544D02*
X289193223Y-158351544D01*
X280926607Y-160152544D02*
X277466607Y-163612544D01*
X306166607Y-120512544D02*
X309626607Y-117052544D01*
X281051607Y-160152544D02*
X282852607Y-158351544D01*
X306041607Y-119094544D02*
X306041607Y-120512544D01*
X306041607Y-139562544D02*
X306166607Y-139562544D01*
X306041607Y-120512544D02*
X306166607Y-120512544D01*
X305001607Y-99577544D02*
X305001607Y-100422544D01*
X306041607Y-82412544D02*
X306041607Y-92512544D01*
X293750603Y-156027544D02*
X295051607Y-156027544D01*
X289585913Y-158744234D02*
X291033913Y-158744234D01*
X306166607Y-101462544D02*
X309626607Y-98002544D01*
X304198607Y-117251544D02*
X305124607Y-118177544D01*
X291033913Y-158744234D02*
X293750603Y-156027544D01*
X276551607Y-156877544D02*
X276651607Y-156977544D01*
X286074607Y-138977544D02*
X286991607Y-139894544D01*
X286991607Y-101844544D02*
X286991607Y-103462544D01*
X286991607Y-139894544D02*
X286991607Y-141562544D01*
X286991607Y-94737544D02*
X286601607Y-95127544D01*
X273233987Y-156877544D02*
X276351607Y-156877544D01*
X287116607Y-103462544D02*
X290576607Y-100002544D01*
X287116607Y-84412544D02*
X290576607Y-80952544D01*
X261825125Y-159306396D02*
X258961067Y-159306396D01*
X276351607Y-156877544D02*
X276551607Y-156877544D01*
X288783607Y-138102544D02*
X286991607Y-139894544D01*
X286991607Y-84412544D02*
X286991607Y-94737544D01*
X269926607Y-119577544D02*
X263596607Y-113247544D01*
X290451607Y-119052544D02*
X286991607Y-122512544D01*
X290576607Y-138102544D02*
X288783607Y-138102544D01*
X286991607Y-103462544D02*
X287116607Y-103462544D01*
X286991607Y-84412544D02*
X287116607Y-84412544D01*
X263551607Y-156227544D02*
X272583987Y-156227544D01*
X258961067Y-159306396D02*
X260472755Y-159306396D01*
X260472755Y-159306396D02*
X263551607Y-156227544D01*
X290576607Y-119052544D02*
X290451607Y-119052544D01*
X286074607Y-119827544D02*
X286074607Y-120200544D01*
X286074607Y-120200544D02*
X286991607Y-121117544D01*
X286991607Y-121117544D02*
X286991607Y-122512544D01*
X272583987Y-156227544D02*
X273233987Y-156877544D01*
X286074607Y-100927544D02*
X286991607Y-101844544D01*
X286074607Y-119827544D02*
X271151607Y-119827544D01*
X270901607Y-119577544D02*
X269926607Y-119577544D01*
X271151607Y-119827544D02*
X270901607Y-119577544D01*
X263611979Y-161093250D02*
X261825125Y-159306396D01*
X255001607Y-127627544D02*
X255001607Y-128927544D01*
X267941607Y-125512544D02*
X268066607Y-125512544D01*
X267941607Y-124094544D02*
X267941607Y-125512544D01*
X252476607Y-131577544D02*
X252351607Y-131577544D01*
X267941607Y-144562544D02*
X268066607Y-144562544D01*
X267024607Y-104327544D02*
X267024607Y-105545544D01*
X268066607Y-144562544D02*
X271526607Y-141102544D01*
X252476607Y-131577544D02*
X252476607Y-131452544D01*
X271526607Y-83952544D02*
X271401607Y-83952544D01*
X267024607Y-123177544D02*
X267941607Y-124094544D01*
X267024607Y-143645544D02*
X267941607Y-144562544D01*
X267024607Y-142277544D02*
X267024607Y-143645544D01*
X271401607Y-83952544D02*
X267941607Y-87412544D01*
X249558907Y-114449844D02*
X248356607Y-113247544D01*
X252881607Y-125507544D02*
X255001607Y-127627544D01*
X271526607Y-103002544D02*
X271401607Y-103002544D01*
X267024607Y-105545544D02*
X267941607Y-106462544D01*
X266699309Y-92679842D02*
X267941607Y-91437544D01*
X268066607Y-125512544D02*
X271526607Y-122052544D01*
X252351607Y-131577544D02*
X248891607Y-135037544D01*
X271401607Y-103002544D02*
X267941607Y-106462544D01*
X267941607Y-91437544D02*
X267941607Y-87412544D01*
X252476607Y-131452544D02*
X255001607Y-128927544D01*
X252881607Y-120777544D02*
X252881607Y-125507544D01*
X247202607Y-127926544D02*
X247202607Y-113793853D01*
X254726607Y-153627544D02*
X253313797Y-153627544D01*
X247154307Y-99209844D02*
X248356607Y-98007544D01*
X245726607Y-129402544D02*
X247202607Y-127926544D01*
X247202607Y-113793853D02*
X247154307Y-113745553D01*
X245726607Y-146040354D02*
X245726607Y-129402544D01*
X247154307Y-113745553D02*
X247154307Y-99209844D01*
X253313797Y-153627544D02*
X245726607Y-146040354D01*
X63852160Y-91152544D02*
X62182883Y-89483267D01*
X64451607Y-91152544D02*
X63852160Y-91152544D01*
X62135056Y-102668170D02*
X63640027Y-101163199D01*
X63640027Y-91152544D02*
X64451607Y-91152544D01*
X63640027Y-101163199D02*
X63640027Y-91152544D01*
X61432467Y-102668170D02*
X62135056Y-102668170D01*
X255226607Y-154799043D02*
X255226607Y-153627544D01*
X254601607Y-155577544D02*
X254601607Y-155424043D01*
X254601607Y-155424043D02*
X255226607Y-154799043D01*
X180326607Y-103740354D02*
X178563797Y-101977544D01*
X169025607Y-150021574D02*
X172567637Y-146479544D01*
X180827607Y-135264354D02*
X180827607Y-132328544D01*
X169025607Y-150028544D02*
X169025607Y-150021574D01*
X168476607Y-153646194D02*
X168476607Y-150577544D01*
X180326607Y-118515354D02*
X180326607Y-103740354D01*
X175662954Y-126515917D02*
X175662954Y-126203701D01*
X175662954Y-126203701D02*
X175436954Y-125977701D01*
X175436954Y-123405007D02*
X180326607Y-118515354D01*
X175436954Y-125977701D02*
X175436954Y-123405007D01*
X176664417Y-101977544D02*
X171141117Y-96454244D01*
X177539797Y-129040734D02*
X177539797Y-128392760D01*
X172567637Y-146479544D02*
X173526947Y-146479544D01*
X178563797Y-101977544D02*
X176664417Y-101977544D01*
X180827607Y-132328544D02*
X177539797Y-129040734D01*
X163518307Y-96454244D02*
X162631607Y-95567544D01*
X171141117Y-96454244D02*
X163518307Y-96454244D01*
X168476607Y-150577544D02*
X169025607Y-150028544D01*
X174879607Y-141212354D02*
X180827607Y-135264354D01*
X173526947Y-146479544D02*
X174879607Y-145126884D01*
X174879607Y-145126884D02*
X174879607Y-141212354D01*
X177539797Y-128392760D02*
X175662954Y-126515917D01*
X179875607Y-118328544D02*
X174985954Y-123218197D01*
X176669307Y-103258054D02*
X176669307Y-103685553D01*
X173340137Y-146028544D02*
X172375607Y-146028544D01*
X179875607Y-106031235D02*
X179875607Y-118328544D01*
X180376607Y-135077544D02*
X174428607Y-141025544D01*
X167976607Y-150427544D02*
X167976607Y-153646194D01*
X176669307Y-103685553D02*
X177373598Y-104389844D01*
X177088797Y-129227544D02*
X178026607Y-130165354D01*
X178026607Y-130177544D02*
X180376607Y-132527544D01*
X178026607Y-130165354D02*
X178026607Y-130177544D01*
X178234216Y-104389844D02*
X179875607Y-106031235D01*
X177373598Y-104389844D02*
X178234216Y-104389844D01*
X174985954Y-123218197D02*
X174985954Y-126164511D01*
X162631607Y-98107544D02*
X163382907Y-97356244D01*
X172375607Y-146028544D02*
X167976607Y-150427544D01*
X180376607Y-132527544D02*
X180376607Y-135077544D01*
X174985954Y-126164511D02*
X175211954Y-126390511D01*
X174428607Y-144940074D02*
X173340137Y-146028544D01*
X175211954Y-126702727D02*
X177088797Y-128579570D01*
X175211954Y-126390511D02*
X175211954Y-126702727D01*
X174428607Y-141025544D02*
X174428607Y-144940074D01*
X170767497Y-97356244D02*
X176669307Y-103258054D01*
X163382907Y-97356244D02*
X170767497Y-97356244D01*
X177088797Y-128579570D02*
X177088797Y-129227544D01*
X61445359Y-108007876D02*
X61445359Y-106161770D01*
X64451607Y-110202544D02*
X63640027Y-110202544D01*
X64451607Y-110202544D02*
X63852160Y-110202544D01*
X61445359Y-106161770D02*
X61581126Y-106026003D01*
X63852160Y-110202544D02*
X62182883Y-108533267D01*
X62588607Y-127177544D02*
X62182883Y-127583268D01*
X64451607Y-137683676D02*
X61581126Y-140554157D01*
X64451607Y-129252544D02*
X62588607Y-127389544D01*
X64451607Y-129252544D02*
X63640027Y-129252544D01*
X64451607Y-129252544D02*
X64451607Y-137683676D01*
X62588607Y-127389544D02*
X62588607Y-127177544D01*
X61445359Y-144261802D02*
X61445359Y-146107876D01*
X63852160Y-148302544D02*
X62182883Y-146633267D01*
X61445187Y-144261630D02*
X61445359Y-144261802D01*
X61445187Y-143530722D02*
X61445187Y-144261630D01*
X63640027Y-148302544D02*
X64451607Y-148302544D01*
X64451607Y-148302544D02*
X63852160Y-148302544D01*
X83501607Y-97780682D02*
X81590684Y-99691605D01*
X83501607Y-88152544D02*
X83501607Y-97780682D01*
X83501607Y-88152544D02*
X82690027Y-88152544D01*
X82902160Y-88152544D02*
X81232883Y-86483267D01*
X81590684Y-99691605D02*
X80495371Y-99691605D01*
X83501607Y-88152544D02*
X82902160Y-88152544D01*
X80495371Y-102668168D02*
X80495371Y-105007888D01*
X82902160Y-107202544D02*
X81232883Y-105533267D01*
X82690027Y-107202544D02*
X83501607Y-107202544D01*
X83501607Y-107202544D02*
X82902160Y-107202544D01*
X83501607Y-134571188D02*
X80495203Y-137577592D01*
X83501607Y-126252544D02*
X82902160Y-126252544D01*
X83501607Y-126252544D02*
X82690027Y-126252544D01*
X82902160Y-126252544D02*
X81232883Y-124583267D01*
X83501607Y-126252544D02*
X83501607Y-134571188D01*
X82902160Y-145302544D02*
X81232883Y-143633267D01*
X83501607Y-145302544D02*
X82902160Y-145302544D01*
X82690027Y-145302544D02*
X83501607Y-145302544D01*
X80495203Y-141149470D02*
X80495203Y-143107720D01*
X112076607Y-159352544D02*
X111477160Y-159352544D01*
X111265027Y-159352544D02*
X112076607Y-159352544D01*
X111477160Y-159352544D02*
X109807883Y-157683267D01*
X109070319Y-154757968D02*
X109070319Y-157157836D01*
X99545387Y-94333788D02*
X100822111Y-94333788D01*
X102551607Y-83152544D02*
X101952160Y-83152544D01*
X101952160Y-83152544D02*
X100282883Y-81483267D01*
X102551607Y-92604292D02*
X102551607Y-83152544D01*
X100822111Y-94333788D02*
X102551607Y-92604292D01*
X101952160Y-102202544D02*
X100282883Y-100533267D01*
X102551607Y-102202544D02*
X101740027Y-102202544D01*
X99458021Y-99920538D02*
X99458021Y-97608016D01*
X102551607Y-102202544D02*
X101952160Y-102202544D01*
X102551607Y-121252544D02*
X101740027Y-121252544D01*
X102551607Y-121252544D02*
X101952160Y-121252544D01*
X102551607Y-121252544D02*
X102551607Y-129875064D01*
X101952160Y-121252544D02*
X100282883Y-119583267D01*
X102551607Y-129875064D02*
X99546419Y-132880252D01*
X99545327Y-135707984D02*
X99545327Y-138107844D01*
X102551607Y-140302544D02*
X101952160Y-140302544D01*
X101740027Y-140302544D02*
X102551607Y-140302544D01*
X101952160Y-140302544D02*
X100282883Y-138633267D01*
X130527160Y-159352544D02*
X128857883Y-157683267D01*
X128120303Y-157157820D02*
X128120303Y-154757968D01*
X131126607Y-159352544D02*
X130527160Y-159352544D01*
X131126607Y-159352544D02*
X130315027Y-159352544D01*
X121601607Y-81152544D02*
X121002160Y-81152544D01*
X121601607Y-81152544D02*
X121601607Y-89541645D01*
X121601607Y-89541645D02*
X118595403Y-92547849D01*
X121601607Y-81152544D02*
X120790027Y-81152544D01*
X121002160Y-81152544D02*
X119332883Y-79483267D01*
X121601607Y-100202544D02*
X120790027Y-100202544D01*
X118595403Y-98007920D02*
X118595403Y-95524414D01*
X121601607Y-100202544D02*
X121002160Y-100202544D01*
X121002160Y-100202544D02*
X119332883Y-98533267D01*
X121601607Y-119252544D02*
X121002160Y-119252544D01*
X121601607Y-119252544D02*
X120790027Y-119252544D01*
X118595311Y-130647973D02*
X118595311Y-130945488D01*
X121002160Y-119252544D02*
X119332883Y-117583267D01*
X121601607Y-127641677D02*
X118595311Y-130647973D01*
X121601607Y-119252544D02*
X121601607Y-127641677D01*
X120790027Y-138302544D02*
X121601607Y-138302544D01*
X118595311Y-134070876D02*
X118595311Y-136107828D01*
X121002160Y-138302544D02*
X119332883Y-136633267D01*
X121601607Y-138302544D02*
X121002160Y-138302544D01*
X149365027Y-162352544D02*
X150176607Y-162352544D01*
X149577160Y-162352544D02*
X147907883Y-160683267D01*
X147170287Y-157734528D02*
X147170287Y-160157804D01*
X150176607Y-162352544D02*
X149577160Y-162352544D01*
X140651607Y-83152544D02*
X139840027Y-83152544D01*
X140052160Y-83152544D02*
X138382883Y-81483267D01*
X137658199Y-94333788D02*
X140651607Y-91340380D01*
X137645419Y-94333788D02*
X137658199Y-94333788D01*
X140651607Y-91340380D02*
X140651607Y-83152544D01*
X140651607Y-83152544D02*
X140052160Y-83152544D01*
X140052160Y-102202544D02*
X138382883Y-100533267D01*
X140651607Y-102202544D02*
X140052160Y-102202544D01*
X137645419Y-100007936D02*
X137645419Y-97608016D01*
X140651607Y-102202544D02*
X139840027Y-102202544D01*
X140651607Y-121252544D02*
X140052160Y-121252544D01*
X140651607Y-129455626D02*
X140651607Y-121252544D01*
X140052160Y-121252544D02*
X138382883Y-119583267D01*
X140651607Y-121252544D02*
X139840027Y-121252544D01*
X137662562Y-132444671D02*
X140651607Y-129455626D01*
X139840027Y-140302544D02*
X140651607Y-140302544D01*
X140052160Y-140302544D02*
X138382883Y-138633267D01*
X137662562Y-136016549D02*
X137662562Y-138125079D01*
X140651607Y-140302544D02*
X140052160Y-140302544D01*
X165515565Y-157491471D02*
X166723204Y-157491471D01*
X161475082Y-156077544D02*
X161890748Y-156077544D01*
X164043680Y-158963356D02*
X165515565Y-157491471D01*
X163304675Y-157491471D02*
X163304675Y-158224351D01*
X163304675Y-158224351D02*
X164043680Y-158963356D01*
X161890748Y-156077544D02*
X163304675Y-157491471D01*
X156695435Y-97310353D02*
X159701607Y-94304181D01*
X159102160Y-86152544D02*
X157432883Y-84483267D01*
X159701607Y-94304181D02*
X159701607Y-86152544D01*
X159701607Y-86152544D02*
X159102160Y-86152544D01*
X159701607Y-86152544D02*
X158890027Y-86152544D01*
X156695435Y-102795819D02*
X159102160Y-105202544D01*
X156695435Y-100286918D02*
X156695435Y-102795819D01*
X159102160Y-105202544D02*
X159701607Y-105202544D01*
X160151607Y-124702544D02*
X159701607Y-124252544D01*
X156695279Y-135410385D02*
X158143766Y-135410385D01*
X160149607Y-127083866D02*
X160151607Y-127081866D01*
X159701607Y-124252544D02*
X159102160Y-124252544D01*
X159102160Y-124252544D02*
X157432883Y-122583267D01*
X159701607Y-124252544D02*
X159701607Y-124477544D01*
X159701607Y-124252544D02*
X158890027Y-124252544D01*
X158143766Y-135410385D02*
X160149607Y-133404544D01*
X160151607Y-127081866D02*
X160151607Y-124702544D01*
X160149607Y-133404544D02*
X160149607Y-127083866D01*
X158890027Y-143302544D02*
X159701607Y-143302544D01*
X156695435Y-138993114D02*
X156695435Y-141107952D01*
X159102160Y-143302544D02*
X157432883Y-141633267D01*
X159701607Y-143302544D02*
X159102160Y-143302544D01*
X178751607Y-133777544D02*
X178152160Y-133777544D01*
X169376607Y-129627544D02*
X169227607Y-129776544D01*
X165355398Y-129776544D02*
X163261021Y-127682167D01*
X174002160Y-129627544D02*
X169376607Y-129627544D01*
X169227607Y-129776544D02*
X165355398Y-129776544D01*
X178152160Y-133777544D02*
X174002160Y-129627544D01*
X177940027Y-133777544D02*
X178751607Y-133777544D01*
X173511693Y-148748918D02*
X175381331Y-148748918D01*
X171476607Y-150784004D02*
X173511693Y-148748918D01*
X171476607Y-153646194D02*
X171476607Y-150784004D01*
X175381331Y-148748918D02*
X176890323Y-150257910D01*
X176890323Y-150257910D02*
X176890323Y-151190688D01*
X170976607Y-150646194D02*
X170976607Y-153646194D01*
X176585981Y-149006134D02*
X176585981Y-148936918D01*
X176585981Y-148936918D02*
X175946981Y-148297918D01*
X175946981Y-148297918D02*
X173324883Y-148297918D01*
X173324883Y-148297918D02*
X170976607Y-150646194D01*
X174045043Y-147846918D02*
X173138073Y-147846918D01*
X172521539Y-148451262D02*
X170476607Y-150496194D01*
X176585981Y-146624882D02*
X176389283Y-146428184D01*
X176389283Y-146428184D02*
X175491737Y-146428184D01*
X174059417Y-147832544D02*
X174045043Y-147846918D01*
X172533729Y-148451262D02*
X172521539Y-148451262D01*
X173138073Y-147846918D02*
X172533729Y-148451262D01*
X174087377Y-147832544D02*
X174059417Y-147832544D01*
X175491737Y-146428184D02*
X174087377Y-147832544D01*
X170476607Y-150496194D02*
X170476607Y-153646194D01*
X172951263Y-147395918D02*
X172937715Y-147409466D01*
X169976607Y-150346194D02*
X169976607Y-153646194D01*
X173900567Y-147381544D02*
X173872607Y-147381544D01*
X176585981Y-144243630D02*
X176585981Y-144696130D01*
X172913335Y-147409466D02*
X169976607Y-150346194D01*
X172937715Y-147409466D02*
X172913335Y-147409466D01*
X173858233Y-147395918D02*
X172951263Y-147395918D01*
X173872607Y-147381544D02*
X173858233Y-147395918D01*
X176585981Y-144696130D02*
X173900567Y-147381544D01*
X142675887Y-92907544D02*
X145115173Y-92907544D01*
X142250607Y-92482264D02*
X142675887Y-92907544D01*
X145139381Y-92931752D02*
X153339381Y-92931752D01*
X129476607Y-92782544D02*
X129476607Y-93593620D01*
X131142775Y-95259788D02*
X138146065Y-95259788D01*
X129476607Y-93593620D02*
X131142775Y-95259788D01*
X141224101Y-92181752D02*
X142250607Y-92181752D01*
X145115173Y-92907544D02*
X145139381Y-92931752D01*
X138146065Y-95259788D02*
X141224101Y-92181752D01*
X142250607Y-92181752D02*
X142250607Y-92482264D01*
X153876607Y-93468978D02*
X153876607Y-94282544D01*
X153339381Y-92931752D02*
X153876607Y-93468978D01*
X112204083Y-93659558D02*
X119398228Y-93659558D01*
X134193678Y-89906544D02*
X134826607Y-90539473D01*
X119398228Y-93659558D02*
X122280242Y-90777544D01*
X134826607Y-90539473D02*
X134826607Y-91282544D01*
X125676607Y-90777544D02*
X126547607Y-89906544D01*
X122280242Y-90777544D02*
X125676607Y-90777544D01*
X110426607Y-90782544D02*
X110426607Y-91882082D01*
X110426607Y-91882082D02*
X112204083Y-93659558D01*
X126547607Y-89906544D02*
X134193678Y-89906544D01*
X100533921Y-95259788D02*
X107907319Y-87886390D01*
X115123423Y-87886390D02*
X115776607Y-88539574D01*
X92001066Y-95259788D02*
X100533921Y-95259788D01*
X115776607Y-88539574D02*
X115776607Y-89282544D01*
X107907319Y-87886390D02*
X115123423Y-87886390D01*
X91376607Y-92782544D02*
X91376607Y-94635329D01*
X91376607Y-94635329D02*
X92001066Y-95259788D01*
X87676607Y-95196849D02*
X87676607Y-91277544D01*
X72326607Y-97782544D02*
X72326607Y-99993162D01*
X83358800Y-98742710D02*
X84106456Y-98742710D01*
X96726607Y-90539473D02*
X96726607Y-91282544D01*
X72326607Y-99993162D02*
X73169438Y-100835993D01*
X87676607Y-91277544D02*
X89047607Y-89906544D01*
X96093678Y-89906544D02*
X96726607Y-90539473D01*
X81265517Y-100835993D02*
X83358800Y-98742710D01*
X84106456Y-98742710D02*
X87329258Y-95519908D01*
X87353548Y-95519908D02*
X87676607Y-95196849D01*
X89047607Y-89906544D02*
X96093678Y-89906544D01*
X87329258Y-95519908D02*
X87353548Y-95519908D01*
X73169438Y-100835993D02*
X81265517Y-100835993D01*
X54496347Y-103594170D02*
X61891933Y-103594170D01*
X77676607Y-95539473D02*
X77676607Y-96282544D01*
X61891933Y-103594170D02*
X62208467Y-103277636D01*
X53276607Y-102374430D02*
X54496347Y-103594170D01*
X77038880Y-94901746D02*
X77676607Y-95539473D01*
X53276607Y-100782544D02*
X53276607Y-102374430D01*
X62208467Y-103277636D02*
X62208467Y-103232569D01*
X62208467Y-103232569D02*
X70539290Y-94901746D01*
X70539290Y-94901746D02*
X77038880Y-94901746D01*
X47265607Y-113803429D02*
X53276607Y-119814429D01*
X58626607Y-98539473D02*
X57993678Y-97906544D01*
X57993678Y-97906544D02*
X51485903Y-97906544D01*
X51485903Y-97906544D02*
X48510215Y-100882232D01*
X58626607Y-99282544D02*
X58626607Y-98539473D01*
X47265607Y-110217030D02*
X47265607Y-113803429D01*
X53276607Y-119814429D02*
X53276607Y-119832544D01*
X48510215Y-108972422D02*
X47265607Y-110217030D01*
X48510215Y-100882232D02*
X48510215Y-108972422D01*
X156101607Y-114102544D02*
X155331607Y-113332544D01*
X156626607Y-133227544D02*
X154651607Y-135202544D01*
X154551607Y-136352544D02*
X149301607Y-136352544D01*
X154651607Y-135202544D02*
X154651607Y-136252544D01*
X149301607Y-136352544D02*
X148526607Y-135577544D01*
X155331607Y-113332544D02*
X153876607Y-113332544D01*
X148526607Y-135577544D02*
X148526607Y-133882544D01*
X154651607Y-136252544D02*
X154551607Y-136352544D01*
X145714492Y-115328544D02*
X146688722Y-115328544D01*
X146688722Y-115328544D02*
X147184722Y-114832544D01*
X134826607Y-110332544D02*
X140731607Y-110332544D01*
X140731607Y-110332544D02*
X145025607Y-114626544D01*
X145025607Y-114626544D02*
X145025607Y-114639659D01*
X147184722Y-114832544D02*
X148526607Y-114832544D01*
X145025607Y-114639659D02*
X145714492Y-115328544D01*
X129476607Y-111814429D02*
X129476607Y-111832544D01*
X115776607Y-108332544D02*
X125994722Y-108332544D01*
X125994722Y-108332544D02*
X129476607Y-111814429D01*
X109926607Y-110332544D02*
X110426607Y-109832544D01*
X96726607Y-110332544D02*
X109926607Y-110332544D01*
X86534722Y-115332544D02*
X90034722Y-111832544D01*
X90034722Y-111832544D02*
X91376607Y-111832544D01*
X77676607Y-115332544D02*
X86534722Y-115332544D01*
X70826607Y-118332544D02*
X72326607Y-116832544D01*
X58626607Y-118332544D02*
X70826607Y-118332544D01*
X137727607Y-134126544D02*
X140867761Y-130986390D01*
X130976607Y-134126544D02*
X137727607Y-134126544D01*
X153223524Y-130986390D02*
X153876607Y-131639473D01*
X153876607Y-131639473D02*
X153876607Y-132382544D01*
X129476607Y-130882544D02*
X129476607Y-132626544D01*
X140867761Y-130986390D02*
X153223524Y-130986390D01*
X129476607Y-132626544D02*
X130976607Y-134126544D01*
X123448789Y-128006544D02*
X134193678Y-128006544D01*
X110426607Y-131327544D02*
X110970551Y-131871488D01*
X110426607Y-128882544D02*
X110426607Y-131327544D01*
X119583845Y-131871488D02*
X123448789Y-128006544D01*
X134826607Y-128639473D02*
X134826607Y-129382544D01*
X110970551Y-131871488D02*
X119583845Y-131871488D01*
X134193678Y-128006544D02*
X134826607Y-128639473D01*
X93225607Y-133826544D02*
X100514661Y-133826544D01*
X108354815Y-125986390D02*
X115123524Y-125986390D01*
X100514661Y-133826544D02*
X108354815Y-125986390D01*
X91376607Y-131977544D02*
X93225607Y-133826544D01*
X115123524Y-125986390D02*
X115776607Y-126639473D01*
X115776607Y-126639473D02*
X115776607Y-127382544D01*
X91376607Y-130882544D02*
X91376607Y-131977544D01*
X96726607Y-128639473D02*
X96726607Y-129382544D01*
X87876607Y-133496194D02*
X87875607Y-133495194D01*
X72326607Y-135882544D02*
X72326607Y-136753692D01*
X72326607Y-136753692D02*
X74197013Y-138624098D01*
X74197013Y-138624098D02*
X81318938Y-138624098D01*
X85026917Y-136651592D02*
X87876607Y-133801902D01*
X81318938Y-138624098D02*
X83291444Y-136651592D01*
X87876607Y-133801902D02*
X87876607Y-133496194D01*
X87875607Y-133495194D02*
X87875607Y-129715429D01*
X87875607Y-129715429D02*
X89584492Y-128006544D01*
X89584492Y-128006544D02*
X96093678Y-128006544D01*
X96093678Y-128006544D02*
X96726607Y-128639473D01*
X83291444Y-136651592D02*
X85026917Y-136651592D01*
X68825607Y-134715429D02*
X69514492Y-134026544D01*
X53276607Y-140920860D02*
X53835904Y-141480157D01*
X62085682Y-141480157D02*
X68825607Y-134740232D01*
X69514492Y-134026544D02*
X69539295Y-134026544D01*
X70579449Y-132986390D02*
X77023524Y-132986390D01*
X77676607Y-133639473D02*
X77676607Y-134382544D01*
X68825607Y-134740232D02*
X68825607Y-134715429D01*
X53276607Y-138882544D02*
X53276607Y-140920860D01*
X53835904Y-141480157D02*
X62085682Y-141480157D01*
X77023524Y-132986390D02*
X77676607Y-133639473D01*
X69539295Y-134026544D02*
X70579449Y-132986390D01*
X57993678Y-136006544D02*
X58626607Y-136639473D01*
X49776607Y-156764429D02*
X49776607Y-153527544D01*
X51934722Y-157932544D02*
X51438722Y-158428544D01*
X53276607Y-157932544D02*
X51934722Y-157932544D01*
X49775607Y-156765429D02*
X49776607Y-156764429D01*
X51438722Y-158428544D02*
X50464492Y-158428544D01*
X49775607Y-157739659D02*
X49775607Y-156765429D01*
X50464492Y-158428544D02*
X49775607Y-157739659D01*
X47265607Y-148263520D02*
X49776607Y-145752520D01*
X49776607Y-153527544D02*
X47265607Y-151016544D01*
X49776607Y-145752520D02*
X49776607Y-137714429D01*
X58626607Y-136639473D02*
X58626607Y-137382544D01*
X49776607Y-137714429D02*
X51484492Y-136006544D01*
X51484492Y-136006544D02*
X57993678Y-136006544D01*
X47265607Y-151016544D02*
X47265607Y-148263520D01*
X156888589Y-151432544D02*
X163943589Y-144377544D01*
X166872532Y-143407544D02*
X167576607Y-143407544D01*
X153876607Y-151432544D02*
X156888589Y-151432544D01*
X163943589Y-144377544D02*
X165902532Y-144377544D01*
X165902532Y-144377544D02*
X166872532Y-143407544D01*
X148526607Y-152914429D02*
X148526607Y-152932544D01*
X134826607Y-148432544D02*
X144044722Y-148432544D01*
X144044722Y-148432544D02*
X148526607Y-152914429D01*
X115776607Y-146432544D02*
X125994722Y-146432544D01*
X125994722Y-146432544D02*
X129476607Y-149914429D01*
X129476607Y-149914429D02*
X129476607Y-149932544D01*
X96726607Y-148432544D02*
X109926607Y-148432544D01*
X109926607Y-148432544D02*
X110426607Y-147932544D01*
X90831607Y-150477544D02*
X91376607Y-149932544D01*
X77676607Y-153432544D02*
X78099107Y-153432544D01*
X78099107Y-153432544D02*
X81054107Y-150477544D01*
X81054107Y-150477544D02*
X90831607Y-150477544D01*
X59581607Y-155477544D02*
X71781607Y-155477544D01*
X71781607Y-155477544D02*
X72326607Y-154932544D01*
X58626607Y-156432544D02*
X59581607Y-155477544D01*
X173977607Y-142671544D02*
X173213607Y-141907544D01*
X167426607Y-154777544D02*
X167426607Y-150339734D01*
X173993181Y-169933032D02*
X173993181Y-161344118D01*
X167426607Y-150339734D02*
X172188797Y-145577544D01*
X170728189Y-171689274D02*
X170962370Y-171923455D01*
X173993181Y-161344118D02*
X167426607Y-154777544D01*
X173153327Y-145577544D02*
X173977607Y-144753264D01*
X172188797Y-145577544D02*
X173153327Y-145577544D01*
X173213607Y-141907544D02*
X172926607Y-141907544D01*
X172926607Y-141907544D02*
X173241607Y-141907544D01*
X170962370Y-171923455D02*
X172002758Y-171923455D01*
X173977607Y-144753264D02*
X173977607Y-142671544D01*
X172002758Y-171923455D02*
X173993181Y-169933032D01*
X139001607Y-172902544D02*
X139395257Y-173296194D01*
X170429541Y-165898080D02*
X171321215Y-165898080D01*
X160376607Y-174246194D02*
X162426607Y-174246194D01*
X159426607Y-173296194D02*
X160376607Y-174246194D01*
X164926607Y-173296194D02*
X168636815Y-169585986D01*
X168636815Y-169369044D02*
X169867419Y-166730003D01*
X169867419Y-166730003D02*
X169867419Y-166460202D01*
X171321215Y-165898080D02*
X171629735Y-166206600D01*
X169867419Y-166460202D02*
X170429541Y-165898080D01*
X163376607Y-173296194D02*
X164926607Y-173296194D01*
X168636815Y-169585986D02*
X168636815Y-169369044D01*
X162426607Y-174246194D02*
X163376607Y-173296194D01*
X139001607Y-171982544D02*
X139001607Y-172902544D01*
X139395257Y-173296194D02*
X159426607Y-173296194D01*
X144351607Y-169739473D02*
X144351607Y-170482544D01*
X127516257Y-169106544D02*
X143718678Y-169106544D01*
X143718678Y-169106544D02*
X144351607Y-169739473D01*
X119951607Y-170296194D02*
X126326607Y-170296194D01*
X126326607Y-170296194D02*
X127516257Y-169106544D01*
X119951607Y-168982544D02*
X119951607Y-170296194D01*
X118159492Y-166106544D02*
X124668678Y-166106544D01*
X101321492Y-170358544D02*
X113907492Y-170358544D01*
X125301607Y-166739473D02*
X125301607Y-167482544D01*
X100901607Y-168982544D02*
X100901607Y-169938659D01*
X113907492Y-170358544D02*
X118159492Y-166106544D01*
X124668678Y-166106544D02*
X125301607Y-166739473D01*
X100901607Y-169938659D02*
X101321492Y-170358544D01*
X282927160Y-86152544D02*
X281257883Y-84483267D01*
X283526607Y-86152544D02*
X282927160Y-86152544D01*
X283526607Y-86152544D02*
X283526607Y-97397857D01*
X283526607Y-97397857D02*
X283820371Y-97691621D01*
X282715027Y-105202544D02*
X281151817Y-103639334D01*
X283820371Y-100668186D02*
X283820371Y-100970780D01*
X283820371Y-100970780D02*
X281151817Y-103639334D01*
X283526607Y-105202544D02*
X282715027Y-105202544D01*
X283820371Y-135791653D02*
X283820371Y-124546308D01*
X283526607Y-124252544D02*
X282927160Y-124252544D01*
X282927160Y-124252544D02*
X281257883Y-122583267D01*
X283820371Y-124546308D02*
X283526607Y-124252544D01*
X283526607Y-143302544D02*
X282927160Y-143302544D01*
X282927160Y-143302544D02*
X281257883Y-141633267D01*
X283820371Y-139070779D02*
X281257883Y-141633267D01*
X283820371Y-138768218D02*
X283820371Y-139070779D01*
X264770355Y-129243210D02*
X264770355Y-129545796D01*
X264770355Y-129545796D02*
X262101817Y-132214334D01*
X263665027Y-133777544D02*
X262101817Y-132214334D01*
X264476607Y-133777544D02*
X263665027Y-133777544D01*
X301765027Y-83152544D02*
X300201817Y-81589334D01*
X302576607Y-83152544D02*
X301765027Y-83152544D01*
X302870387Y-94715056D02*
X302870387Y-83446324D01*
X302870387Y-83446324D02*
X302576607Y-83152544D01*
X302870387Y-97970764D02*
X300201817Y-100639334D01*
X302870387Y-97691621D02*
X302870387Y-97970764D01*
X302576607Y-102202544D02*
X301765027Y-102202544D01*
X301765027Y-102202544D02*
X300201817Y-100639334D01*
X302576607Y-121252544D02*
X301977160Y-121252544D01*
X301977160Y-121252544D02*
X300307883Y-119583267D01*
X302870387Y-132815088D02*
X302870387Y-121546324D01*
X302870387Y-121546324D02*
X302576607Y-121252544D01*
X302870387Y-135791653D02*
X302870387Y-136070764D01*
X302576607Y-140302544D02*
X301977159Y-140302544D01*
X301977159Y-140302544D02*
X300307883Y-138633268D01*
X302870387Y-136070764D02*
X300307883Y-138633268D01*
X264175042Y-157222921D02*
X267261356Y-160309235D01*
X267261356Y-160309235D02*
X267261356Y-172326869D01*
X267261356Y-172326869D02*
X266689521Y-172898704D01*
X321027160Y-81152544D02*
X319357883Y-79483267D01*
X321626607Y-81152544D02*
X321027160Y-81152544D01*
X321920403Y-81446340D02*
X321920403Y-92333804D01*
X321626607Y-81152544D02*
X321920403Y-81446340D01*
X319077944Y-98253329D02*
X321027159Y-100202544D01*
X321920403Y-95310369D02*
X321920403Y-95410871D01*
X321920403Y-95410871D02*
X319077944Y-98253329D01*
X321027159Y-100202544D02*
X321626607Y-100202544D01*
X321626607Y-119252544D02*
X321027160Y-119252544D01*
X321920403Y-131029149D02*
X321920403Y-119546340D01*
X321920403Y-119546340D02*
X321626607Y-119252544D01*
X321027160Y-119252544D02*
X319357883Y-117583267D01*
X321920403Y-134070748D02*
X319357883Y-136633268D01*
X321920403Y-134005714D02*
X321920403Y-134070748D01*
X321626607Y-138302544D02*
X321027159Y-138302544D01*
X321027159Y-138302544D02*
X319357883Y-136633268D01*
X293051607Y-162352544D02*
X292452160Y-162352544D01*
X293052603Y-158111010D02*
X293052603Y-158413547D01*
X293345379Y-157818234D02*
X293052603Y-158111010D01*
X293051607Y-162352544D02*
X293051607Y-158112006D01*
X293345379Y-162058772D02*
X293051607Y-162352544D01*
X293051607Y-158112006D02*
X293345379Y-157818234D01*
X292452160Y-162352544D02*
X290782883Y-160683267D01*
X340970419Y-83446356D02*
X340676607Y-83152544D01*
X340077160Y-83152544D02*
X338407883Y-81483267D01*
X340970419Y-94715056D02*
X340970419Y-83446356D01*
X340676607Y-83152544D02*
X340077160Y-83152544D01*
X340676607Y-102202544D02*
X340077159Y-102202544D01*
X340970419Y-97691621D02*
X340970419Y-97970732D01*
X340970419Y-97970732D02*
X338407883Y-100533268D01*
X340077159Y-102202544D02*
X338407883Y-100533268D01*
X340676607Y-121252544D02*
X340077160Y-121252544D01*
X340970419Y-121546356D02*
X340676607Y-121252544D01*
X340970419Y-132815088D02*
X340970419Y-121546356D01*
X340077160Y-121252544D02*
X338407883Y-119583267D01*
X338927607Y-138553544D02*
X338487607Y-138553544D01*
X340970419Y-135791653D02*
X340970419Y-136510732D01*
X340970419Y-136510732D02*
X338927607Y-138553544D01*
X340676607Y-140302544D02*
X338927607Y-138553544D01*
X338487607Y-138553544D02*
X338407883Y-138633268D01*
X311502160Y-159352544D02*
X309832883Y-157683267D01*
X312101607Y-159352544D02*
X311502160Y-159352544D01*
X312395395Y-159058756D02*
X312101607Y-159352544D01*
X312079168Y-155436982D02*
X309832883Y-157683267D01*
X312395395Y-155436982D02*
X312079168Y-155436982D01*
X359726607Y-88152544D02*
X359127160Y-88152544D01*
X359127160Y-88152544D02*
X357457883Y-86483267D01*
X360020435Y-99477560D02*
X360020435Y-88446372D01*
X360020435Y-88446372D02*
X359726607Y-88152544D01*
X359941712Y-102532848D02*
X359941712Y-103049438D01*
X359127160Y-107202544D02*
X359726607Y-107202544D01*
X360020435Y-106908716D02*
X359726607Y-107202544D01*
X359941712Y-103049438D02*
X357457883Y-105533267D01*
X360020435Y-102454125D02*
X359941712Y-102532848D01*
X357457883Y-105533267D02*
X359127160Y-107202544D01*
X359127160Y-126252544D02*
X357457883Y-124583267D01*
X359726607Y-126252544D02*
X359127160Y-126252544D01*
X360020435Y-137577592D02*
X360020435Y-126546372D01*
X360020435Y-126546372D02*
X359726607Y-126252544D01*
X357457883Y-143633267D02*
X359127160Y-145302544D01*
X359941680Y-140632912D02*
X359941680Y-141149470D01*
X360020435Y-140554157D02*
X359941680Y-140632912D01*
X359127160Y-145302544D02*
X359726607Y-145302544D01*
X359941680Y-141149470D02*
X357457883Y-143633267D01*
X331151607Y-159352544D02*
X330552160Y-159352544D01*
X330552160Y-159352544D02*
X328882883Y-157683267D01*
X331445411Y-155436982D02*
X331129168Y-155436982D01*
X331151607Y-159352544D02*
X331445411Y-159058740D01*
X331129168Y-155436982D02*
X328882883Y-157683267D01*
X378776607Y-91152544D02*
X378177160Y-91152544D01*
X378776607Y-102160281D02*
X379070451Y-102454125D01*
X378177160Y-91152544D02*
X376507883Y-89483267D01*
X378776607Y-91152544D02*
X378776607Y-102160281D01*
X378177159Y-110202544D02*
X376507883Y-108533268D01*
X379070451Y-105970700D02*
X376507883Y-108533268D01*
X379070451Y-105430690D02*
X379070451Y-105970700D01*
X378776607Y-110202544D02*
X378177159Y-110202544D01*
X378776607Y-129252544D02*
X379070451Y-129546388D01*
X378776607Y-129252544D02*
X378177160Y-129252544D01*
X378177160Y-129252544D02*
X376507883Y-127583267D01*
X379070451Y-140554157D02*
X379070451Y-129546388D01*
X378177160Y-148302544D02*
X376507883Y-146633267D01*
X378776607Y-148302544D02*
X378177160Y-148302544D01*
X379070451Y-143530722D02*
X379070451Y-144070699D01*
X379070451Y-144070699D02*
X376507883Y-146633267D01*
X279025828Y-94282544D02*
X277701607Y-94282544D01*
X291086607Y-92782544D02*
X285251530Y-98617621D01*
X285251530Y-98617621D02*
X283360905Y-98617621D01*
X283360905Y-98617621D02*
X279025828Y-94282544D01*
X291401607Y-92782544D02*
X291086607Y-92782544D01*
X310451607Y-90782544D02*
X305593095Y-95641056D01*
X297751607Y-91282544D02*
X296751607Y-91282544D01*
X302110119Y-95641056D02*
X297751607Y-91282544D01*
X305593095Y-95641056D02*
X302110119Y-95641056D01*
X316954609Y-89282544D02*
X315801607Y-89282544D01*
X329501607Y-92782544D02*
X329005607Y-93278544D01*
X320950609Y-93278544D02*
X316954609Y-89282544D01*
X329005607Y-93278544D02*
X320950609Y-93278544D01*
X348055607Y-98278544D02*
X344328227Y-98278544D01*
X344328227Y-98278544D02*
X341690739Y-95641056D01*
X340510953Y-95641056D02*
X336152441Y-91282544D01*
X341690739Y-95641056D02*
X340510953Y-95641056D01*
X336152441Y-91282544D02*
X334851607Y-91282544D01*
X348551607Y-97782544D02*
X348055607Y-98278544D01*
X367105607Y-101278544D02*
X361528227Y-101278544D01*
X361528227Y-101278544D02*
X360677227Y-100427544D01*
X360677227Y-100427544D02*
X359055885Y-100427544D01*
X367601607Y-100782544D02*
X367105607Y-101278544D01*
X359055885Y-100427544D02*
X354910885Y-96282544D01*
X354910885Y-96282544D02*
X353901607Y-96282544D01*
X367626607Y-120902544D02*
X367601607Y-120877544D01*
X374006607Y-99282544D02*
X375101607Y-100377544D01*
X372951607Y-99282544D02*
X374006607Y-99282544D01*
X367601607Y-120877544D02*
X367601607Y-119832544D01*
X367626607Y-121227544D02*
X367626607Y-120902544D01*
X277701607Y-112672544D02*
X277701607Y-113332544D01*
X267760093Y-128177544D02*
X266298607Y-126716058D01*
X266298607Y-126716058D02*
X266298607Y-121567430D01*
X270513722Y-134378544D02*
X269539492Y-134378544D01*
X268051607Y-112427544D02*
X268470013Y-112009138D01*
X268638983Y-133478035D02*
X268638983Y-129040168D01*
X272351607Y-133882544D02*
X271009722Y-133882544D01*
X268470013Y-112009138D02*
X277038201Y-112009138D01*
X271009722Y-133882544D02*
X270513722Y-134378544D01*
X269539492Y-134378544D02*
X268638983Y-133478035D01*
X266298607Y-121567430D02*
X266970050Y-120895987D01*
X277038201Y-112009138D02*
X277701607Y-112672544D01*
X267776359Y-128177544D02*
X267760093Y-128177544D01*
X268638983Y-129040168D02*
X267776359Y-128177544D01*
X277351607Y-116777544D02*
X276551607Y-115977544D01*
X272351607Y-115477544D02*
X272351607Y-114832544D01*
X296751607Y-110332544D02*
X296751607Y-109730901D01*
X287622607Y-109056544D02*
X279901607Y-116777544D01*
X296077250Y-109056544D02*
X287622607Y-109056544D01*
X279901607Y-116777544D02*
X277351607Y-116777544D01*
X272851607Y-115977544D02*
X272351607Y-115477544D01*
X276551607Y-115977544D02*
X272851607Y-115977544D01*
X296751607Y-109730901D02*
X296077250Y-109056544D01*
X296351607Y-113927544D02*
X295601607Y-113177544D01*
X299401607Y-113927544D02*
X296351607Y-113927544D01*
X306272607Y-107056544D02*
X299401607Y-113927544D01*
X291401607Y-112527544D02*
X291401607Y-111832544D01*
X315801607Y-108332544D02*
X315801607Y-107672544D01*
X315185607Y-107056544D02*
X306272607Y-107056544D01*
X292051607Y-113177544D02*
X291401607Y-112527544D01*
X315801607Y-107672544D02*
X315185607Y-107056544D01*
X295601607Y-113177544D02*
X292051607Y-113177544D01*
X310851607Y-111027544D02*
X310451607Y-110627544D01*
X315401607Y-111827544D02*
X314601607Y-111027544D01*
X310451607Y-110627544D02*
X310451607Y-109832544D01*
X314601607Y-111027544D02*
X310851607Y-111027544D01*
X334851607Y-110332544D02*
X334851607Y-109672544D01*
X316951607Y-111827544D02*
X315401607Y-111827544D01*
X334851607Y-109672544D02*
X334235607Y-109056544D01*
X319722607Y-109056544D02*
X316951607Y-111827544D01*
X334235607Y-109056544D02*
X319722607Y-109056544D01*
X347328327Y-114127544D02*
X347202327Y-114001544D01*
X347202327Y-114001544D02*
X346600887Y-114001544D01*
X329501607Y-112877544D02*
X329501607Y-111832544D01*
X353901607Y-115332544D02*
X353901607Y-114677544D01*
X353901607Y-114677544D02*
X353351607Y-114127544D01*
X353351607Y-114127544D02*
X347328327Y-114127544D01*
X346600887Y-114001544D02*
X346474887Y-114127544D01*
X334501607Y-114127544D02*
X333551607Y-113177544D01*
X329801607Y-113177544D02*
X329501607Y-112877544D01*
X333551607Y-113177544D02*
X329801607Y-113177544D01*
X346474887Y-114127544D02*
X334501607Y-114127544D01*
X360275607Y-116903544D02*
X356751607Y-120427544D01*
X372182607Y-116903544D02*
X360275607Y-116903544D01*
X372951607Y-118332544D02*
X372951607Y-117672544D01*
X351451607Y-120427544D02*
X348551607Y-117527544D01*
X348551607Y-117527544D02*
X348551607Y-116832544D01*
X372951607Y-117672544D02*
X372182607Y-116903544D01*
X356751607Y-120427544D02*
X351451607Y-120427544D01*
X281296371Y-135182187D02*
X281296371Y-135929843D01*
X280979837Y-134865653D02*
X281296371Y-135182187D01*
X281296371Y-135929843D02*
X282144072Y-136777544D01*
X285506607Y-136777544D02*
X291401607Y-130882544D01*
X278056607Y-132382544D02*
X280539716Y-134865653D01*
X282144072Y-136777544D02*
X285506607Y-136777544D01*
X277701607Y-132382544D02*
X278056607Y-132382544D01*
X280539716Y-134865653D02*
X280979837Y-134865653D01*
X296751607Y-129382544D02*
X296756607Y-129377544D01*
X300029853Y-131889088D02*
X300346387Y-132205622D01*
X297751607Y-129377544D02*
X298020607Y-129646544D01*
X298020607Y-129646544D02*
X298020607Y-130146544D01*
X301168653Y-133775544D02*
X305558607Y-133775544D01*
X305558607Y-133775544D02*
X310451607Y-128882544D01*
X299763151Y-131889088D02*
X300029853Y-131889088D01*
X296756607Y-129377544D02*
X297751607Y-129377544D01*
X298020607Y-130146544D02*
X299763151Y-131889088D01*
X300346387Y-132953278D02*
X301168653Y-133775544D01*
X300346387Y-132205622D02*
X300346387Y-132953278D01*
X328306607Y-132077544D02*
X329501607Y-130882544D01*
X321151607Y-132077544D02*
X328306607Y-132077544D01*
X316456607Y-127382544D02*
X321151607Y-132077544D01*
X315801607Y-127382544D02*
X316456607Y-127382544D01*
X337358151Y-131889088D02*
X338129885Y-131889088D01*
X345802607Y-136378544D02*
X345851607Y-136427544D01*
X345050607Y-135689659D02*
X345739492Y-136378544D01*
X340497409Y-133727544D02*
X340510953Y-133741088D01*
X348551607Y-135864429D02*
X348551607Y-135882544D01*
X347988492Y-136427544D02*
X348551607Y-135864429D01*
X334851607Y-129382544D02*
X335615607Y-130146544D01*
X335615607Y-130146544D02*
X335902607Y-130146544D01*
X338446419Y-132205622D02*
X338446419Y-132977356D01*
X345739492Y-136378544D02*
X345802607Y-136378544D01*
X343165151Y-133741088D02*
X345050607Y-135626544D01*
X335902607Y-130433544D02*
X337358151Y-131889088D01*
X339196607Y-133727544D02*
X340497409Y-133727544D01*
X345851607Y-136427544D02*
X347988492Y-136427544D01*
X345050607Y-135626544D02*
X345050607Y-135689659D01*
X335902607Y-130146544D02*
X335902607Y-130433544D01*
X338446419Y-132977356D02*
X339196607Y-133727544D01*
X340510953Y-133741088D02*
X343165151Y-133741088D01*
X338129885Y-131889088D02*
X338446419Y-132205622D01*
X362315497Y-138503592D02*
X359031901Y-138503592D01*
X359031901Y-138503592D02*
X354910853Y-134382544D01*
X367038492Y-139427544D02*
X363239449Y-139427544D01*
X367601607Y-138882544D02*
X367601607Y-138864429D01*
X367601607Y-138864429D02*
X367038492Y-139427544D01*
X363239449Y-139427544D02*
X362315497Y-138503592D01*
X354910853Y-134382544D02*
X353901607Y-134382544D01*
X373271607Y-137377544D02*
X373266607Y-137382544D01*
X373266607Y-137382544D02*
X372951607Y-137382544D01*
X373028327Y-160327544D02*
X377366177Y-155989694D01*
X367801607Y-160327544D02*
X373028327Y-160327544D01*
X367105607Y-159631544D02*
X367801607Y-160327544D01*
X374801607Y-137377544D02*
X373271607Y-137377544D01*
X367601607Y-157932544D02*
X367105607Y-158428544D01*
X367105607Y-158428544D02*
X367105607Y-159631544D01*
X377366177Y-155989694D02*
X377366177Y-151920134D01*
X374851607Y-137327544D02*
X374801607Y-137377544D01*
X273824973Y-150003544D02*
X272248973Y-148427544D01*
X273827607Y-150003544D02*
X273824973Y-150003544D01*
X253851607Y-145777544D02*
X253301607Y-145227544D01*
X273980607Y-150156544D02*
X273827607Y-150003544D01*
X277085607Y-150156544D02*
X273980607Y-150156544D01*
X272248973Y-148427544D02*
X266901607Y-148427544D01*
X277701607Y-151432544D02*
X277701607Y-150772544D01*
X264251607Y-145777544D02*
X253851607Y-145777544D01*
X253301607Y-145227544D02*
X253301607Y-143407544D01*
X266901607Y-148427544D02*
X264251607Y-145777544D01*
X277701607Y-150772544D02*
X277085607Y-150156544D01*
X296751607Y-148432544D02*
X296751607Y-147772544D01*
X272351607Y-153777544D02*
X272351607Y-152932544D01*
X279701607Y-155177544D02*
X273751607Y-155177544D01*
X296751607Y-147772544D02*
X296135607Y-147156544D01*
X296135607Y-147156544D02*
X287722607Y-147156544D01*
X273751607Y-155177544D02*
X272351607Y-153777544D01*
X287722607Y-147156544D02*
X279701607Y-155177544D01*
X315801607Y-145772544D02*
X315185607Y-145156544D01*
X291401607Y-150827544D02*
X291401607Y-149932544D01*
X297651607Y-152477544D02*
X293051607Y-152477544D01*
X315801607Y-146432544D02*
X315801607Y-145772544D01*
X304972607Y-145156544D02*
X297651607Y-152477544D01*
X315185607Y-145156544D02*
X304972607Y-145156544D01*
X293051607Y-152477544D02*
X291401607Y-150827544D01*
X311551607Y-150077544D02*
X310451607Y-148977544D01*
X319690265Y-147138886D02*
X316751607Y-150077544D01*
X334851607Y-147772544D02*
X334217949Y-147138886D01*
X310451607Y-148977544D02*
X310451607Y-147932544D01*
X334217949Y-147138886D02*
X319690265Y-147138886D01*
X334851607Y-148432544D02*
X334851607Y-147772544D01*
X316751607Y-150077544D02*
X311551607Y-150077544D01*
X353267949Y-152138886D02*
X330462949Y-152138886D01*
X330462949Y-152138886D02*
X329501607Y-151177544D01*
X353901607Y-152772544D02*
X353267949Y-152138886D01*
X353901607Y-153432544D02*
X353901607Y-152772544D01*
X329501607Y-151177544D02*
X329501607Y-149932544D01*
X357975607Y-155003544D02*
X355851607Y-157127544D01*
X355851607Y-157127544D02*
X352999887Y-157127544D01*
X348551607Y-155627544D02*
X348551607Y-154932544D01*
X372124250Y-155003544D02*
X357975607Y-155003544D01*
X352999887Y-157127544D02*
X352799887Y-156927544D01*
X372951607Y-155830901D02*
X372124250Y-155003544D01*
X352799887Y-156927544D02*
X349851607Y-156927544D01*
X372951607Y-156432544D02*
X372951607Y-155830901D01*
X349851607Y-156927544D02*
X348551607Y-155627544D01*
X260151607Y-141877544D02*
X258681607Y-141877544D01*
X260626606Y-154502545D02*
X251696720Y-163432431D01*
X251696720Y-165298230D02*
X253239017Y-166840527D01*
X260626606Y-151177240D02*
X260626606Y-154502545D01*
X251696720Y-163432431D02*
X251696720Y-165298230D01*
X258681607Y-141877544D02*
X258651607Y-141907544D01*
X260651607Y-142377544D02*
X260151607Y-141877544D01*
X256859487Y-171055347D02*
X260635083Y-174830943D01*
X271651607Y-172877544D02*
X280981607Y-172877544D01*
X269698208Y-174830943D02*
X271651607Y-172877544D01*
X260635083Y-174830943D02*
X269698208Y-174830943D01*
X280981607Y-172877544D02*
X281876607Y-171982544D01*
X299426607Y-170482544D02*
X300926607Y-168982544D01*
X287226607Y-170482544D02*
X299426607Y-170482544D01*
X318138722Y-167126544D02*
X319976607Y-168964429D01*
X306632607Y-167126544D02*
X318138722Y-167126544D01*
X306276607Y-167482544D02*
X306632607Y-167126544D01*
X319976607Y-168964429D02*
X319976607Y-168982544D01*
X180503327Y-137777544D02*
X180003327Y-138277544D01*
X174844283Y-154622194D02*
X172000607Y-154622194D01*
X177856607Y-100647544D02*
X177871607Y-100647544D01*
X176626607Y-126127544D02*
X176462260Y-126291891D01*
X179090037Y-138277544D02*
X175883322Y-141484259D01*
X177850607Y-143451544D02*
X177850607Y-151615870D01*
X180503327Y-136896688D02*
X180503327Y-137777544D01*
X180777607Y-114776544D02*
X180778307Y-114775844D01*
X171976607Y-154598194D02*
X171976607Y-153646194D01*
X176388954Y-126291891D02*
X175887954Y-125790891D01*
X175887954Y-123591817D02*
X180777607Y-118702164D01*
X180361952Y-136755313D02*
X180503327Y-136896688D01*
X176462260Y-126291891D02*
X176388954Y-126291891D01*
X175883322Y-141484259D02*
X177850607Y-143451544D01*
X177850607Y-151615870D02*
X174844283Y-154622194D01*
X172000607Y-154622194D02*
X171976607Y-154598194D01*
X180777607Y-118702164D02*
X180777607Y-114776544D01*
X180778307Y-114775844D02*
X180778307Y-103554244D01*
X175887954Y-125790891D02*
X175887954Y-123591817D01*
X180778307Y-103554244D02*
X177871607Y-100647544D01*
X180003327Y-138277544D02*
X179090037Y-138277544D01*
X126089384Y-198731748D02*
X126089384Y-195015117D01*
X127810701Y-193293800D02*
X127810701Y-187670882D01*
X126089384Y-195015117D02*
X127810701Y-193293800D01*
X125669599Y-200084379D02*
X125669599Y-200061969D01*
X125589384Y-199981754D02*
X125589384Y-198731748D01*
X125669599Y-200061969D02*
X125589384Y-199981754D01*
X125864384Y-200279164D02*
X125669599Y-200084379D01*
X120803274Y-206387991D02*
X119389061Y-206387991D01*
X126589384Y-198731748D02*
X126589384Y-200601881D01*
X126589384Y-200601881D02*
X120803274Y-206387991D01*
X124500449Y-201665511D02*
X124209096Y-201374158D01*
X124209096Y-201374158D02*
X124209096Y-199962034D01*
X124589384Y-199581746D02*
X124589384Y-198731748D01*
X124209096Y-199962034D02*
X124589384Y-199581746D01*
X125016099Y-200808709D02*
X125040384Y-200784424D01*
X125089384Y-199683748D02*
X125089384Y-198731748D01*
X125040384Y-199732748D02*
X125089384Y-199683748D01*
X125040384Y-200784424D02*
X125040384Y-199732748D01*
X127089384Y-203128158D02*
X141853848Y-217892622D01*
X141853848Y-217892622D02*
X143268061Y-217892622D01*
X127089384Y-198731748D02*
X127089384Y-203128158D01*
X128463188Y-194907942D02*
X136668988Y-186702142D01*
X128442323Y-194907942D02*
X128463188Y-194907942D01*
X128089384Y-198731748D02*
X128089384Y-197478809D01*
X136668988Y-186702142D02*
X138792071Y-186702142D01*
X127665571Y-197057941D02*
X127665571Y-195684694D01*
X128086439Y-197478809D02*
X127665571Y-197057941D01*
X128089384Y-197478809D02*
X128086439Y-197478809D01*
X127665571Y-195684694D02*
X128442323Y-194907942D01*
X127589384Y-198731748D02*
X127589384Y-201733748D01*
X129263384Y-203407748D02*
X147457466Y-203407748D01*
X127589384Y-201733748D02*
X129263384Y-203407748D01*
X147457466Y-203407748D02*
X151689701Y-199175513D01*
X124089380Y-197081750D02*
X124089380Y-197881742D01*
X124089384Y-197881746D02*
X124089384Y-198731748D01*
X124089380Y-197881742D02*
X124089384Y-197881746D01*
X124939380Y-196231750D02*
X124089380Y-197081750D01*
X169476607Y-150208384D02*
X169476607Y-153646194D01*
X175330607Y-145313694D02*
X173713757Y-146930544D01*
X175330607Y-141399164D02*
X175330607Y-145313694D01*
X172754447Y-146930544D02*
X169476607Y-150208384D01*
X179726607Y-137527544D02*
X179202227Y-137527544D01*
X179202227Y-137527544D02*
X175330607Y-141399164D01*
X173713757Y-146930544D02*
X172754447Y-146930544D01*
X245552327Y-117801544D02*
X245403307Y-117801544D01*
X245977607Y-118226824D02*
X245552327Y-117801544D01*
X245403307Y-88260844D02*
X248356607Y-85307544D01*
X245552327Y-119253544D02*
X245977607Y-118828264D01*
X245550607Y-124750544D02*
X245550607Y-124035404D01*
X245550607Y-124035404D02*
X245403307Y-123888104D01*
X245977607Y-118828264D02*
X245977607Y-118226824D01*
X245403307Y-119253544D02*
X245552327Y-119253544D01*
X245403307Y-117801544D02*
X245403307Y-88260844D01*
X246477607Y-125677544D02*
X245550607Y-124750544D01*
X245403307Y-123888104D02*
X245403307Y-119253544D01*
M02*
