M48
; DRILL file {KiCad 9.0.3} date 2025-08-04T01:31:14-0400
; FORMAT={-:-/ absolute / metric / decimal}
; #@! TF.CreationDate,2025-08-04T01:31:14-04:00
; #@! TF.GenerationSoftware,Kicad,Pcbnew,9.0.3
; #@! TF.FileFunction,Plated,1,2,PTH
FMAT,2
METRIC
; #@! TA.AperFunction,Plated,PTH,ViaDrill
T1C0.400
; #@! TA.AperFunction,Plated,PTH,ComponentDrill
T2C0.750
; #@! TA.AperFunction,Plated,PTH,ComponentDrill
T3C1.000
; #@! TA.AperFunction,Plated,PTH,ComponentDrill
T4C1.092
; #@! TA.AperFunction,Plated,PTH,ComponentDrill
T5C1.400
%
G90
G05
T1
X64.792Y-180.172
X65.231Y-174.739
X65.308Y-179.316
X66.156Y-178.786
X67.262Y-106.507
X67.262Y-125.557
X67.262Y-144.178
X67.263Y-97.578
X85.552Y-93.41
X86.852Y-101.128
X86.952Y-138.878
X87.302Y-120.178
X104.767Y-91.029
X104.781Y-99.378
X104.952Y-118.413
X105.614Y-137.715
X114.477Y-153.778
X124.413Y-93.41
X125.008Y-101.149
X125.008Y-139.249
X125.577Y-120.228
X133.477Y-155.578
X142.977Y-91.029
X143.463Y-104.128
X143.463Y-123.178
X144.058Y-142.121
X163.277Y-153.478
X165.152Y-99.128
X165.616Y-129.012
X167.502Y-152.228
X168.234Y-151.547
X172.044Y-100.37
X173.752Y-102.428
X175.493Y-121.492
X175.776Y-122.451
X176.252Y-94.578
X176.291Y-139.1
X176.6Y-140.079
X177.548Y-126.078
X178.502Y-126.378
X178.577Y-151.178
X178.627Y-148.778
X178.727Y-146.428
X178.855Y-144.028
X179.451Y-139.103
X179.877Y-90.435
X179.877Y-91.435
X179.952Y-123.028
X180.176Y-138.323
X185.467Y-118.528
X185.992Y-126.178
X187.159Y-131.415
X188.117Y-131.128
X188.267Y-117.578
X193.097Y-120.778
X194.434Y-152.239
X195.217Y-128.928
X195.593Y-149.162
X195.847Y-150.632
X201.767Y-99.278
X205.542Y-115.104
X206.618Y-129.877
X206.915Y-92.68
X207.24Y-104.328
X207.24Y-123.178
X207.24Y-142.278
X209.117Y-114.678
X223.577Y-156.103
X225.958Y-92.815
X226.553Y-101.149
X226.553Y-120.199
X226.553Y-139.249
X227.149Y-156.514
X243.817Y-156.514
X245.603Y-91.029
X245.603Y-99.363
X245.603Y-118.413
X245.603Y-137.464
X264.653Y-92.815
X264.653Y-101.149
X264.653Y-120.199
X264.653Y-139.249
X283.703Y-93.41
X284.299Y-106.507
X284.299Y-125.557
X284.299Y-144.607
X302.456Y-100.852
X303.349Y-109.484
X303.407Y-128.534
X303.407Y-147.584
T2
X170.252Y-84.278
X172.252Y-84.278
X194.192Y-84.278
X196.192Y-84.278
T3
X166.432Y-118.328
X168.972Y-118.328
X171.512Y-118.328
X174.052Y-118.328
X192.372Y-118.328
X194.912Y-118.328
X197.452Y-118.328
X199.992Y-118.328
T4
X162.632Y-85.408
X162.632Y-87.948
X162.632Y-90.488
X162.632Y-93.028
X162.632Y-95.568
X162.632Y-98.108
X162.632Y-100.648
X162.632Y-103.188
X162.632Y-105.728
X162.632Y-108.268
X162.632Y-110.808
X162.632Y-113.348
X165.172Y-115.888
X167.712Y-115.888
X170.252Y-108.268
X170.252Y-115.888
X172.792Y-108.268
X172.792Y-115.888
X175.332Y-108.268
X175.332Y-115.888
X177.872Y-85.408
X177.872Y-87.948
X177.872Y-90.488
X177.872Y-93.028
X177.872Y-95.568
X177.872Y-98.108
X177.872Y-100.648
X177.872Y-103.188
X177.872Y-105.728
X177.872Y-108.268
X177.872Y-110.808
X177.872Y-113.348
X188.572Y-85.308
X188.572Y-87.848
X188.572Y-90.388
X188.572Y-92.928
X188.572Y-95.468
X188.572Y-98.008
X188.572Y-100.548
X188.572Y-103.088
X188.572Y-105.628
X188.572Y-108.168
X188.572Y-110.708
X188.572Y-113.248
X191.112Y-115.788
X193.652Y-115.788
X196.192Y-108.168
X196.192Y-115.788
X198.732Y-108.168
X198.732Y-115.788
X201.272Y-108.168
X201.272Y-115.788
X203.812Y-85.308
X203.812Y-87.848
X203.812Y-90.388
X203.812Y-92.928
X203.812Y-95.468
X203.812Y-98.008
X203.812Y-100.548
X203.812Y-103.088
X203.812Y-105.628
X203.812Y-108.168
X203.812Y-110.708
X203.812Y-113.248
T5
X59.68Y-184.895
X68.102Y-166.178
X69.283Y-174.741
X69.283Y-187.836
X76.941Y-180.179
X79.084Y-165.209
X82.379Y-187.836
X83.559Y-196.4
X91.981Y-177.682
M30
