G04 #@! TF.GenerationSoftware,KiCad,Pcbnew,9.0.3*
G04 #@! TF.CreationDate,2025-08-04T01:31:07-04:00*
G04 #@! TF.ProjectId,quartz58,71756172-747a-4353-982e-6b696361645f,rev?*
G04 #@! TF.SameCoordinates,Original*
G04 #@! TF.FileFunction,Paste,Bot*
G04 #@! TF.FilePolarity,Positive*
%FSLAX46Y46*%
G04 Gerber Fmt 4.6, Leading zero omitted, Abs format (unit mm)*
G04 Created by KiCad (PCBNEW 9.0.3) date 2025-08-04 01:31:07*
%MOMM*%
%LPD*%
G01*
G04 APERTURE LIST*
G04 Aperture macros list*
%AMRoundRect*
0 Rectangle with rounded corners*
0 $1 Rounding radius*
0 $2 $3 $4 $5 $6 $7 $8 $9 X,Y pos of 4 corners*
0 Add a 4 corners polygon primitive as box body*
4,1,4,$2,$3,$4,$5,$6,$7,$8,$9,$2,$3,0*
0 Add four circle primitives for the rounded corners*
1,1,$1+$1,$2,$3*
1,1,$1+$1,$4,$5*
1,1,$1+$1,$6,$7*
1,1,$1+$1,$8,$9*
0 Add four rect primitives between the rounded corners*
20,1,$1+$1,$2,$3,$4,$5,0*
20,1,$1+$1,$4,$5,$6,$7,0*
20,1,$1+$1,$6,$7,$8,$9,0*
20,1,$1+$1,$8,$9,$2,$3,0*%
G04 Aperture macros list end*
%ADD10RoundRect,0.250000X1.025000X1.000000X-1.025000X1.000000X-1.025000X-1.000000X1.025000X-1.000000X0*%
%ADD11RoundRect,0.250000X-1.025000X-1.000000X1.025000X-1.000000X1.025000X1.000000X-1.025000X1.000000X0*%
%ADD12RoundRect,0.250000X1.339492X-0.506347X0.473124X1.351584X-1.339492X0.506347X-0.473124X-1.351584X0*%
%ADD13RoundRect,0.250000X-1.339492X0.506347X-0.473124X-1.351584X1.339492X-0.506347X0.473124X1.351584X0*%
%ADD14RoundRect,0.250000X-0.473124X1.351584X-1.339492X-0.506347X0.473124X-1.351584X1.339492X0.506347X0*%
%ADD15RoundRect,0.250000X0.473124X-1.351584X1.339492X0.506347X-0.473124X1.351584X-1.339492X-0.506347X0*%
%ADD16RoundRect,0.225000X0.225000X0.375000X-0.225000X0.375000X-0.225000X-0.375000X0.225000X-0.375000X0*%
%ADD17RoundRect,0.225000X-0.225000X-0.375000X0.225000X-0.375000X0.225000X0.375000X-0.225000X0.375000X0*%
%ADD18R,0.300000X1.300000*%
%ADD19R,1.800000X2.200000*%
G04 #@! TA.AperFunction,Profile*
%ADD20C,0.150000*%
G04 #@! TD*
G04 #@! TA.AperFunction,Profile*
%ADD21C,0.200000*%
G04 #@! TD*
G04 #@! TA.AperFunction,Profile*
%ADD22C,0.100000*%
G04 #@! TD*
G04 APERTURE END LIST*
D10*
X47451607Y-98752544D03*
D11*
X48866607Y-92412544D03*
D10*
X59451607Y-100952544D03*
D11*
X61793607Y-89872544D03*
D10*
X225792257Y-128852544D03*
D11*
X227207257Y-122512544D03*
D10*
X237792257Y-131052544D03*
D11*
X240134257Y-119972544D03*
D10*
X244842257Y-107802544D03*
D11*
X246257257Y-101462544D03*
D10*
X256842257Y-110002544D03*
D11*
X259184257Y-98922544D03*
D10*
X95076607Y-166952544D03*
D11*
X96491607Y-160612544D03*
D10*
X107076607Y-169152544D03*
D11*
X109418607Y-158072544D03*
D10*
X142701607Y-150902544D03*
D11*
X144116607Y-144562544D03*
D10*
X154701607Y-153102544D03*
D11*
X157043607Y-142022544D03*
D10*
X263892257Y-147902544D03*
D11*
X265307257Y-141562544D03*
D10*
X275892257Y-150102544D03*
D11*
X278234257Y-139022544D03*
D10*
X301992257Y-98752544D03*
D11*
X303407257Y-92412544D03*
D10*
X313992257Y-100952544D03*
D11*
X316334257Y-89872544D03*
D10*
X85551607Y-109802544D03*
D11*
X86966607Y-103462544D03*
D10*
X97551607Y-112002544D03*
D11*
X99893607Y-100922544D03*
D10*
X104601607Y-145902544D03*
D11*
X106016607Y-139562544D03*
D10*
X116601607Y-148102544D03*
D11*
X118943607Y-137022544D03*
D10*
X282942257Y-114802544D03*
D11*
X284357257Y-108462544D03*
D10*
X294942257Y-117002544D03*
D11*
X297284257Y-105922544D03*
D10*
X263892257Y-109802544D03*
D11*
X265307257Y-103462544D03*
D10*
X275892257Y-112002544D03*
D11*
X278234257Y-100922544D03*
D10*
X85551607Y-90752544D03*
D11*
X86966607Y-84412544D03*
D10*
X97551607Y-92952544D03*
D11*
X99893607Y-81872544D03*
D10*
X114126607Y-166952544D03*
D11*
X115541607Y-160612544D03*
D10*
X126126607Y-169152544D03*
D11*
X128468607Y-158072544D03*
D10*
X244842257Y-88752544D03*
D11*
X246257257Y-82412544D03*
D10*
X256842257Y-90952544D03*
D11*
X259184257Y-79872544D03*
D10*
X47451607Y-155902544D03*
D11*
X48866607Y-149562544D03*
D10*
X59451607Y-158102544D03*
D11*
X61793607Y-147022544D03*
D10*
X263892257Y-90752544D03*
D11*
X265307257Y-84412544D03*
D10*
X275892257Y-92952544D03*
D11*
X278234257Y-81872544D03*
D12*
X192832721Y-160703370D03*
D13*
X199176717Y-159306396D03*
D12*
X195910263Y-172508824D03*
D13*
X206941925Y-169948786D03*
D10*
X282942257Y-152902544D03*
D11*
X284357257Y-146562544D03*
D10*
X294942257Y-155102544D03*
D11*
X297284257Y-144022544D03*
D10*
X244842257Y-145902544D03*
D11*
X246257257Y-139562544D03*
D10*
X256842257Y-148102544D03*
D11*
X259184257Y-137022544D03*
D10*
X123651607Y-147902544D03*
D11*
X125066607Y-141562544D03*
D10*
X135651607Y-150102544D03*
D11*
X137993607Y-139022544D03*
D10*
X123651607Y-90752544D03*
D11*
X125066607Y-84412544D03*
D10*
X135651607Y-92952544D03*
D11*
X137993607Y-81872544D03*
D10*
X123651607Y-109802544D03*
D11*
X125066607Y-103462544D03*
D10*
X135651607Y-112002544D03*
D11*
X137993607Y-100922544D03*
D10*
X206742257Y-150902544D03*
D11*
X208157257Y-144562544D03*
D10*
X218742257Y-153102544D03*
D11*
X221084257Y-142022544D03*
D10*
X66501607Y-133852544D03*
D11*
X67916607Y-127512544D03*
D10*
X78501607Y-136052544D03*
D11*
X80843607Y-124972544D03*
D14*
X166426632Y-176110603D03*
D15*
X161278646Y-172148777D03*
D14*
X173491929Y-166164669D03*
D15*
X164439810Y-159359486D03*
D10*
X142701607Y-93752544D03*
D11*
X144116607Y-87412544D03*
D10*
X154701607Y-95952544D03*
D11*
X157043607Y-84872544D03*
D10*
X85551607Y-128852544D03*
D11*
X86966607Y-122512544D03*
D10*
X97551607Y-131052544D03*
D11*
X99893607Y-119972544D03*
D10*
X225792257Y-90752544D03*
D11*
X227207257Y-84412544D03*
D10*
X237792257Y-92952544D03*
D11*
X240134257Y-81872544D03*
D10*
X161751607Y-141377544D03*
D11*
X163166607Y-135037544D03*
D10*
X173751607Y-143577544D03*
D11*
X176093607Y-132497544D03*
D10*
X142701607Y-112802544D03*
D11*
X144116607Y-106462544D03*
D10*
X154701607Y-115002544D03*
D11*
X157043607Y-103922544D03*
D10*
X301992257Y-155902544D03*
D11*
X303407257Y-149562544D03*
D10*
X313992257Y-158102544D03*
D11*
X316334257Y-147022544D03*
D10*
X235317257Y-166952544D03*
D11*
X236732257Y-160612544D03*
D10*
X247317257Y-169152544D03*
D11*
X249659257Y-158072544D03*
D10*
X47451607Y-136852544D03*
D11*
X48866607Y-130512544D03*
D10*
X59451607Y-139052544D03*
D11*
X61793607Y-127972544D03*
D10*
X142701607Y-131852544D03*
D11*
X144116607Y-125512544D03*
D10*
X154701607Y-134052544D03*
D11*
X157043607Y-122972544D03*
D10*
X104601607Y-88752544D03*
D11*
X106016607Y-82412544D03*
D10*
X116601607Y-90952544D03*
D11*
X118943607Y-79872544D03*
D10*
X225792257Y-109802544D03*
D11*
X227207257Y-103462544D03*
D10*
X237792257Y-112002544D03*
D11*
X240134257Y-100922544D03*
D10*
X282942257Y-133852544D03*
D11*
X284357257Y-127512544D03*
D10*
X294942257Y-136052544D03*
D11*
X297284257Y-124972544D03*
D10*
X47451607Y-117802544D03*
D11*
X48866607Y-111462544D03*
D10*
X59451607Y-120002544D03*
D11*
X61793607Y-108922544D03*
D10*
X244842257Y-126852544D03*
D11*
X246257257Y-120512544D03*
D10*
X256842257Y-129052544D03*
D11*
X259184257Y-117972544D03*
D10*
X104601607Y-126852544D03*
D11*
X106016607Y-120512544D03*
D10*
X116601607Y-129052544D03*
D11*
X118943607Y-117972544D03*
D10*
X85551607Y-147902544D03*
D11*
X86966607Y-141562544D03*
D10*
X97551607Y-150102544D03*
D11*
X99893607Y-139022544D03*
D10*
X216267257Y-169952544D03*
D11*
X217682257Y-163612544D03*
D10*
X228267257Y-172152544D03*
D11*
X230609257Y-161072544D03*
D10*
X225792257Y-147902544D03*
D11*
X227207257Y-141562544D03*
D10*
X237792257Y-150102544D03*
D11*
X240134257Y-139022544D03*
D10*
X187692257Y-141377544D03*
D11*
X189107257Y-135037544D03*
D10*
X199692257Y-143577544D03*
D11*
X202034257Y-132497544D03*
D10*
X263892257Y-128852544D03*
D11*
X265307257Y-122512544D03*
D10*
X275892257Y-131052544D03*
D11*
X278234257Y-119972544D03*
D10*
X66501607Y-95752544D03*
D11*
X67916607Y-89412544D03*
D10*
X78501607Y-97952544D03*
D11*
X80843607Y-86872544D03*
D10*
X254367257Y-166952544D03*
D11*
X255782257Y-160612544D03*
D10*
X266367257Y-169152544D03*
D11*
X268709257Y-158072544D03*
D10*
X123651607Y-128852544D03*
D11*
X125066607Y-122512544D03*
D10*
X135651607Y-131052544D03*
D11*
X137993607Y-119972544D03*
D10*
X206742257Y-93752544D03*
D11*
X208157257Y-87412544D03*
D10*
X218742257Y-95952544D03*
D11*
X221084257Y-84872544D03*
D10*
X301992257Y-136852544D03*
D11*
X303407257Y-130512544D03*
D10*
X313992257Y-139052544D03*
D11*
X316334257Y-127972544D03*
D10*
X104601607Y-107802544D03*
D11*
X106016607Y-101462544D03*
D10*
X116601607Y-110002544D03*
D11*
X118943607Y-98922544D03*
D10*
X133176607Y-169952544D03*
D11*
X134591607Y-163612544D03*
D10*
X145176607Y-172152544D03*
D11*
X147518607Y-161072544D03*
D10*
X66501607Y-114802544D03*
D11*
X67916607Y-108462544D03*
D10*
X78501607Y-117002544D03*
D11*
X80843607Y-105922544D03*
D10*
X66501607Y-152902544D03*
D11*
X67916607Y-146562544D03*
D10*
X78501607Y-155102544D03*
D11*
X80843607Y-144022544D03*
D10*
X301992257Y-117802544D03*
D11*
X303407257Y-111462544D03*
D10*
X313992257Y-120002544D03*
D11*
X316334257Y-108922544D03*
D10*
X282942257Y-95752544D03*
D11*
X284357257Y-89412544D03*
D10*
X294942257Y-97952544D03*
D11*
X297284257Y-86872544D03*
D10*
X206742257Y-131852544D03*
D11*
X208157257Y-125512544D03*
D10*
X218742257Y-134052544D03*
D11*
X221084257Y-122972544D03*
D10*
X206742257Y-112802544D03*
D11*
X208157257Y-106462544D03*
D10*
X218742257Y-115002544D03*
D11*
X221084257Y-103922544D03*
D16*
X159995435Y-138993114D03*
X156695435Y-138993114D03*
X83782821Y-99675031D03*
X80482821Y-99675031D03*
D17*
X230261029Y-157818234D03*
X233561029Y-157818234D03*
D16*
X64745267Y-102935361D03*
X61445267Y-102935361D03*
X140350018Y-136016549D03*
X137050018Y-136016549D03*
D17*
X220736021Y-100668186D03*
X224036021Y-100668186D03*
D16*
X164775082Y-156077544D03*
X161475082Y-156077544D03*
D17*
X220736021Y-97691621D03*
X224036021Y-97691621D03*
X315986101Y-143530722D03*
X319286101Y-143530722D03*
X239786037Y-97691621D03*
X243086037Y-97691621D03*
X276695523Y-97691621D03*
X279995523Y-97691621D03*
D16*
X121895403Y-95524414D03*
X118595403Y-95524414D03*
X121895315Y-92815040D03*
X118595315Y-92815040D03*
D18*
X194942257Y-153627544D03*
X195442257Y-153627544D03*
X195942257Y-153627544D03*
X196442257Y-153627544D03*
X196942257Y-153627544D03*
X197442257Y-153627544D03*
D19*
X193042257Y-150377544D03*
X199342257Y-150377544D03*
D16*
X112370319Y-154757968D03*
X109070319Y-154757968D03*
D17*
X239786037Y-135791653D03*
X243086037Y-135791653D03*
D16*
X64745359Y-140554157D03*
X61445359Y-140554157D03*
X64745187Y-143530722D03*
X61445187Y-143530722D03*
X140350018Y-97608016D03*
X137050018Y-97608016D03*
X102758021Y-97608016D03*
X99458021Y-97608016D03*
D17*
X315986101Y-140554157D03*
X319286101Y-140554157D03*
X220736021Y-135791653D03*
X224036021Y-135791653D03*
D16*
X121895311Y-134070876D03*
X118595311Y-134070876D03*
D17*
X315986101Y-105430690D03*
X319286101Y-105430690D03*
D16*
X159995279Y-135410385D03*
X156695279Y-135410385D03*
D17*
X201090692Y-157222921D03*
X204390692Y-157222921D03*
D16*
X180190323Y-144046932D03*
X176890323Y-144046932D03*
X159995435Y-100286918D03*
X156695435Y-100286918D03*
X180190323Y-146428184D03*
X176890323Y-146428184D03*
D17*
X258240820Y-134005714D03*
X261540820Y-134005714D03*
X239786037Y-94715056D03*
X243086037Y-94715056D03*
D18*
X68880819Y-176838628D03*
X68380819Y-176838628D03*
X67880819Y-176838628D03*
X67380819Y-176838628D03*
X66880819Y-176838628D03*
X66380819Y-176838628D03*
X65880819Y-176838628D03*
X65380819Y-176838628D03*
X64880819Y-176838628D03*
X64380819Y-176838628D03*
D19*
X70780819Y-180088628D03*
X62480819Y-180088628D03*
D17*
X276793590Y-95187882D03*
X280093590Y-95187882D03*
X296340852Y-138654141D03*
X299640852Y-138654141D03*
D16*
X150470287Y-157734528D03*
X147170287Y-157734528D03*
X83795203Y-141149470D03*
X80495203Y-141149470D03*
X121895311Y-130945488D03*
X118595311Y-130945488D03*
D17*
X276695523Y-133742748D03*
X279995523Y-133742748D03*
D16*
X131420303Y-154757968D03*
X128120303Y-154757968D03*
D17*
X296340852Y-102935361D03*
X299640852Y-102935361D03*
X276695523Y-136123996D03*
X279995523Y-136123996D03*
D16*
X83795203Y-137577592D03*
X80495203Y-137577592D03*
X83795371Y-102668168D03*
X80495371Y-102668168D03*
D17*
X268361141Y-154727592D03*
X271661141Y-154727592D03*
X296340852Y-141035393D03*
X299640852Y-141035393D03*
D16*
X102845327Y-135707984D03*
X99545327Y-135707984D03*
D17*
X258240820Y-131510385D03*
X261540820Y-131510385D03*
D16*
X140350018Y-95196292D03*
X137050018Y-95196292D03*
D17*
X315986101Y-102935361D03*
X319286101Y-102935361D03*
D18*
X167976607Y-153627544D03*
X168476607Y-153627544D03*
X168976607Y-153627544D03*
X169476607Y-153627544D03*
X169976607Y-153627544D03*
X170476607Y-153627544D03*
X170976607Y-153627544D03*
X171476607Y-153627544D03*
X171976607Y-153627544D03*
X172476607Y-153627544D03*
D19*
X166076607Y-150377544D03*
X174376607Y-150377544D03*
D17*
X258240820Y-95791605D03*
X261540820Y-95791605D03*
D16*
X102846419Y-132880252D03*
X99546419Y-132880252D03*
X140350018Y-133296324D03*
X137050018Y-133296324D03*
D17*
X239786037Y-132815088D03*
X243086037Y-132815088D03*
D16*
X159995435Y-97310353D03*
X156695435Y-97310353D03*
X180190323Y-151190688D03*
X176890323Y-151190688D03*
X64745359Y-105644728D03*
X61445359Y-105644728D03*
D17*
X220736021Y-138768218D03*
X224036021Y-138768218D03*
D16*
X102845299Y-94600979D03*
X99545299Y-94600979D03*
X180190323Y-148809436D03*
X176890323Y-148809436D03*
D17*
X201686005Y-129243210D03*
X204986005Y-129243210D03*
D16*
X166561021Y-127682167D03*
X163261021Y-127682167D03*
D17*
X296340852Y-100554109D03*
X299640852Y-100554109D03*
X249311045Y-155436982D03*
X252611045Y-155436982D03*
X258240820Y-93410353D03*
X261540820Y-93410353D03*
D20*
X151581850Y-176177544D02*
X132151607Y-176177544D01*
X103076607Y-76427544D02*
X103076607Y-75427544D01*
X168958035Y-184228503D02*
X151793159Y-176224390D01*
X103576607Y-74927544D02*
X122626607Y-74927544D01*
X181776606Y-157811695D02*
G75*
G02*
X181729765Y-158023010I-499606J-105D01*
G01*
X234792257Y-175677544D02*
G75*
G02*
X234292257Y-176177507I-500007J44D01*
G01*
X181276607Y-79927544D02*
G75*
G02*
X181776556Y-80427544I-7J-499956D01*
G01*
X123626607Y-76927544D02*
X141676607Y-76927544D01*
X281917257Y-76927544D02*
X263867257Y-76927544D01*
D21*
X57580816Y-169414122D02*
G75*
G02*
X60689800Y-168178492I1800019J42D01*
G01*
D20*
X272892257Y-172677544D02*
G75*
G02*
X272392257Y-173177507I-500007J44D01*
G01*
X272892257Y-172677544D02*
X272892257Y-162627544D01*
X242817257Y-76927544D02*
X224767257Y-76927544D01*
X84026607Y-77427544D02*
G75*
G02*
X84526607Y-76927507I499993J44D01*
G01*
X272892257Y-162627544D02*
G75*
G02*
X273392257Y-162127507I499993J44D01*
G01*
X93551607Y-172677544D02*
X93551607Y-162627544D01*
X94051607Y-173177544D02*
G75*
G02*
X93551556Y-172677544I-7J500044D01*
G01*
X184714104Y-158023007D02*
X196821367Y-183986662D01*
D21*
X63321126Y-168172862D02*
G75*
G02*
X63329709Y-194412579I12509689J-13115768D01*
G01*
D20*
X151581850Y-176177544D02*
G75*
G02*
X151793164Y-176224379I-50J-500356D01*
G01*
X169622497Y-183986661D02*
G75*
G02*
X168958020Y-184228535I-453197J211361D01*
G01*
X122626607Y-74927544D02*
G75*
G02*
X123126556Y-75427544I-7J-499956D01*
G01*
X65476607Y-81927544D02*
X83526607Y-81927544D01*
X301467257Y-84427544D02*
X301467257Y-82427544D01*
X132151607Y-176177544D02*
G75*
G02*
X131651556Y-175677544I-7J500044D01*
G01*
X320517257Y-161627544D02*
X320517257Y-85427544D01*
X142676607Y-79927544D02*
G75*
G02*
X142176556Y-79427544I-7J500044D01*
G01*
X142676607Y-79927544D02*
X181276607Y-79927544D01*
X197485830Y-184228503D02*
G75*
G02*
X196821382Y-183986655I-211280J453203D01*
G01*
D21*
X60480816Y-193163142D02*
G75*
G02*
X58280816Y-193163142I-1100000J0D01*
G01*
X58280816Y-193163142D02*
G75*
G02*
X60480816Y-193163142I1100000J0D01*
G01*
D20*
X142176607Y-77427544D02*
X142176607Y-79427544D01*
X214650705Y-176224390D02*
G75*
G02*
X214862014Y-176177544I211145J-452410D01*
G01*
X263867257Y-76927544D02*
G75*
G02*
X263367206Y-76427544I-7J500044D01*
G01*
X84526607Y-76927544D02*
X102576607Y-76927544D01*
X262867257Y-74927544D02*
G75*
G02*
X263367206Y-75427544I-7J-499956D01*
G01*
X46426607Y-84927544D02*
X64476607Y-84927544D01*
X320017257Y-84927544D02*
X301967257Y-84927544D01*
X273392257Y-162127544D02*
X320017257Y-162127544D01*
X131151607Y-173177544D02*
X94051607Y-173177544D01*
X282917257Y-81927544D02*
G75*
G02*
X282417206Y-81427544I-7J500044D01*
G01*
X262867257Y-74927544D02*
X243817257Y-74927544D01*
X320017257Y-84927544D02*
G75*
G02*
X320517206Y-85427544I-7J-499956D01*
G01*
D21*
X60480816Y-169414122D02*
G75*
G02*
X58280816Y-169414122I-1100000J0D01*
G01*
X58280816Y-169414122D02*
G75*
G02*
X60480816Y-169414122I1100000J0D01*
G01*
D20*
X282417257Y-81427544D02*
X282417257Y-77427544D01*
X46426607Y-162127544D02*
G75*
G02*
X45926556Y-161627544I-7J500044D01*
G01*
X64976607Y-84427544D02*
G75*
G02*
X64476607Y-84927507I-500007J44D01*
G01*
X223767257Y-79927544D02*
X185167257Y-79927544D01*
X214862014Y-176177544D02*
X234292257Y-176177544D01*
D21*
X60655499Y-194434050D02*
G75*
G02*
X63329671Y-194412559I1348036J-1351830D01*
G01*
D20*
X224267257Y-77427544D02*
X224267257Y-79427544D01*
X131651607Y-175677544D02*
X131651607Y-173677544D01*
X243317257Y-75427544D02*
G75*
G02*
X243817257Y-74927507I499993J44D01*
G01*
X123126607Y-75427544D02*
X123126607Y-76427544D01*
X181729760Y-158023007D02*
X169622497Y-183986662D01*
X234792257Y-173677544D02*
G75*
G02*
X235292257Y-173177507I499993J44D01*
G01*
X300967257Y-81927544D02*
G75*
G02*
X301467206Y-82427544I-7J-499956D01*
G01*
X84026607Y-81427544D02*
G75*
G02*
X83526607Y-81927507I-500007J44D01*
G01*
X263367257Y-76427544D02*
X263367257Y-75427544D01*
D21*
X60652221Y-194437329D02*
G75*
G02*
X57580869Y-193163149I-1271386J1274149D01*
G01*
D20*
X184714105Y-158023007D02*
G75*
G02*
X184667259Y-157811695I453145J211307D01*
G01*
X224267257Y-79427544D02*
G75*
G02*
X223767257Y-79927507I-500007J44D01*
G01*
X64976607Y-84427544D02*
X64976607Y-82427544D01*
X181776607Y-80427544D02*
X181776607Y-157811695D01*
X45926607Y-85427544D02*
G75*
G02*
X46426607Y-84927507I499993J44D01*
G01*
D21*
X63321126Y-168172861D02*
G75*
G02*
X60692967Y-168179525I-1317591J1381481D01*
G01*
D20*
X234792257Y-175677544D02*
X234792257Y-173677544D01*
X281917257Y-76927544D02*
G75*
G02*
X282417206Y-77427544I-7J-499956D01*
G01*
X301967257Y-84927544D02*
G75*
G02*
X301467206Y-84427544I-7J500044D01*
G01*
X45926607Y-161627544D02*
X45926607Y-85427544D01*
X320517257Y-161627544D02*
G75*
G02*
X320017257Y-162127507I-500007J44D01*
G01*
X184667257Y-80427544D02*
X184667257Y-157811695D01*
X141676607Y-76927544D02*
G75*
G02*
X142176556Y-77427544I-7J-499956D01*
G01*
X224267257Y-77427544D02*
G75*
G02*
X224767257Y-76927507I499993J44D01*
G01*
X64976607Y-82427544D02*
G75*
G02*
X65476607Y-81927507I499993J44D01*
G01*
X123626607Y-76927544D02*
G75*
G02*
X123126556Y-76427544I-7J500044D01*
G01*
X93051607Y-162127544D02*
X46426607Y-162127544D01*
X184667257Y-80427544D02*
G75*
G02*
X185167257Y-79927507I499993J44D01*
G01*
X243317257Y-76427544D02*
G75*
G02*
X242817257Y-76927507I-500007J44D01*
G01*
X103076607Y-75427544D02*
G75*
G02*
X103576607Y-74927507I499993J44D01*
G01*
X93051607Y-162127544D02*
G75*
G02*
X93551556Y-162627544I-7J-499956D01*
G01*
X103076607Y-76427544D02*
G75*
G02*
X102576607Y-76927507I-500007J44D01*
G01*
X300967257Y-81927544D02*
X282917257Y-81927544D01*
D21*
X57580816Y-169414122D02*
X57580816Y-193163142D01*
D20*
X84026607Y-81427544D02*
X84026607Y-77427544D01*
X131151607Y-173177544D02*
G75*
G02*
X131651556Y-173677544I-7J-499956D01*
G01*
X197485829Y-184228503D02*
X214650705Y-176224390D01*
X243317257Y-75427544D02*
X243317257Y-76427544D01*
X235292257Y-173177544D02*
X272392257Y-173177544D01*
D21*
X51401607Y-94952544D02*
G75*
G02*
X49501607Y-94952544I-950000J0D01*
G01*
X49501607Y-94952544D02*
G75*
G02*
X51401607Y-94952544I950000J0D01*
G01*
X62401607Y-94952544D02*
G75*
G02*
X60501607Y-94952544I-950000J0D01*
G01*
X60501607Y-94952544D02*
G75*
G02*
X62401607Y-94952544I950000J0D01*
G01*
X229742257Y-125052544D02*
G75*
G02*
X227842257Y-125052544I-950000J0D01*
G01*
X227842257Y-125052544D02*
G75*
G02*
X229742257Y-125052544I950000J0D01*
G01*
X240742257Y-125052544D02*
G75*
G02*
X238842257Y-125052544I-950000J0D01*
G01*
X238842257Y-125052544D02*
G75*
G02*
X240742257Y-125052544I950000J0D01*
G01*
X248792257Y-104002544D02*
G75*
G02*
X246892257Y-104002544I-950000J0D01*
G01*
X246892257Y-104002544D02*
G75*
G02*
X248792257Y-104002544I950000J0D01*
G01*
X259792257Y-104002544D02*
G75*
G02*
X257892257Y-104002544I-950000J0D01*
G01*
X257892257Y-104002544D02*
G75*
G02*
X259792257Y-104002544I950000J0D01*
G01*
X99026607Y-163152544D02*
G75*
G02*
X97126607Y-163152544I-950000J0D01*
G01*
X97126607Y-163152544D02*
G75*
G02*
X99026607Y-163152544I950000J0D01*
G01*
X110026607Y-163152544D02*
G75*
G02*
X108126607Y-163152544I-950000J0D01*
G01*
X108126607Y-163152544D02*
G75*
G02*
X110026607Y-163152544I950000J0D01*
G01*
X146651607Y-147102544D02*
G75*
G02*
X144751607Y-147102544I-950000J0D01*
G01*
X144751607Y-147102544D02*
G75*
G02*
X146651607Y-147102544I950000J0D01*
G01*
X157651607Y-147102544D02*
G75*
G02*
X155751607Y-147102544I-950000J0D01*
G01*
X155751607Y-147102544D02*
G75*
G02*
X157651607Y-147102544I950000J0D01*
G01*
X267842257Y-144102544D02*
G75*
G02*
X265942257Y-144102544I-950000J0D01*
G01*
X265942257Y-144102544D02*
G75*
G02*
X267842257Y-144102544I950000J0D01*
G01*
X278842257Y-144102544D02*
G75*
G02*
X276942257Y-144102544I-950000J0D01*
G01*
X276942257Y-144102544D02*
G75*
G02*
X278842257Y-144102544I950000J0D01*
G01*
X305942257Y-94952544D02*
G75*
G02*
X304042257Y-94952544I-950000J0D01*
G01*
X304042257Y-94952544D02*
G75*
G02*
X305942257Y-94952544I950000J0D01*
G01*
X316942257Y-94952544D02*
G75*
G02*
X315042257Y-94952544I-950000J0D01*
G01*
X315042257Y-94952544D02*
G75*
G02*
X316942257Y-94952544I950000J0D01*
G01*
X89501607Y-106002544D02*
G75*
G02*
X87601607Y-106002544I-950000J0D01*
G01*
X87601607Y-106002544D02*
G75*
G02*
X89501607Y-106002544I950000J0D01*
G01*
X100501607Y-106002544D02*
G75*
G02*
X98601607Y-106002544I-950000J0D01*
G01*
X98601607Y-106002544D02*
G75*
G02*
X100501607Y-106002544I950000J0D01*
G01*
X108551607Y-142102544D02*
G75*
G02*
X106651607Y-142102544I-950000J0D01*
G01*
X106651607Y-142102544D02*
G75*
G02*
X108551607Y-142102544I950000J0D01*
G01*
X119551607Y-142102544D02*
G75*
G02*
X117651607Y-142102544I-950000J0D01*
G01*
X117651607Y-142102544D02*
G75*
G02*
X119551607Y-142102544I950000J0D01*
G01*
X286892257Y-111002544D02*
G75*
G02*
X284992257Y-111002544I-950000J0D01*
G01*
X284992257Y-111002544D02*
G75*
G02*
X286892257Y-111002544I950000J0D01*
G01*
X297892257Y-111002544D02*
G75*
G02*
X295992257Y-111002544I-950000J0D01*
G01*
X295992257Y-111002544D02*
G75*
G02*
X297892257Y-111002544I950000J0D01*
G01*
X267842257Y-106002544D02*
G75*
G02*
X265942257Y-106002544I-950000J0D01*
G01*
X265942257Y-106002544D02*
G75*
G02*
X267842257Y-106002544I950000J0D01*
G01*
X278842257Y-106002544D02*
G75*
G02*
X276942257Y-106002544I-950000J0D01*
G01*
X276942257Y-106002544D02*
G75*
G02*
X278842257Y-106002544I950000J0D01*
G01*
X89501607Y-86952544D02*
G75*
G02*
X87601607Y-86952544I-950000J0D01*
G01*
X87601607Y-86952544D02*
G75*
G02*
X89501607Y-86952544I950000J0D01*
G01*
X100501607Y-86952544D02*
G75*
G02*
X98601607Y-86952544I-950000J0D01*
G01*
X98601607Y-86952544D02*
G75*
G02*
X100501607Y-86952544I950000J0D01*
G01*
X118076607Y-163152544D02*
G75*
G02*
X116176607Y-163152544I-950000J0D01*
G01*
X116176607Y-163152544D02*
G75*
G02*
X118076607Y-163152544I950000J0D01*
G01*
X129076607Y-163152544D02*
G75*
G02*
X127176607Y-163152544I-950000J0D01*
G01*
X127176607Y-163152544D02*
G75*
G02*
X129076607Y-163152544I950000J0D01*
G01*
X248792257Y-84952544D02*
G75*
G02*
X246892257Y-84952544I-950000J0D01*
G01*
X246892257Y-84952544D02*
G75*
G02*
X248792257Y-84952544I950000J0D01*
G01*
X259792257Y-84952544D02*
G75*
G02*
X257892257Y-84952544I-950000J0D01*
G01*
X257892257Y-84952544D02*
G75*
G02*
X259792257Y-84952544I950000J0D01*
G01*
X51401607Y-152102544D02*
G75*
G02*
X49501607Y-152102544I-950000J0D01*
G01*
X49501607Y-152102544D02*
G75*
G02*
X51401607Y-152102544I950000J0D01*
G01*
X62401607Y-152102544D02*
G75*
G02*
X60501607Y-152102544I-950000J0D01*
G01*
X60501607Y-152102544D02*
G75*
G02*
X62401607Y-152102544I950000J0D01*
G01*
X267842257Y-86952544D02*
G75*
G02*
X265942257Y-86952544I-950000J0D01*
G01*
X265942257Y-86952544D02*
G75*
G02*
X267842257Y-86952544I950000J0D01*
G01*
X278842257Y-86952544D02*
G75*
G02*
X276942257Y-86952544I-950000J0D01*
G01*
X276942257Y-86952544D02*
G75*
G02*
X278842257Y-86952544I950000J0D01*
G01*
X198494545Y-161816344D02*
G75*
G02*
X196594547Y-161816344I-949999J0D01*
G01*
X196594547Y-161816344D02*
G75*
G02*
X198494545Y-161816344I949999J0D01*
G01*
X203143346Y-171785730D02*
G75*
G02*
X201243346Y-171785730I-950000J0D01*
G01*
X201243346Y-171785730D02*
G75*
G02*
X203143346Y-171785730I950000J0D01*
G01*
X286892257Y-149102544D02*
G75*
G02*
X284992257Y-149102544I-950000J0D01*
G01*
X284992257Y-149102544D02*
G75*
G02*
X286892257Y-149102544I950000J0D01*
G01*
X297892257Y-149102544D02*
G75*
G02*
X295992257Y-149102544I-950000J0D01*
G01*
X295992257Y-149102544D02*
G75*
G02*
X297892257Y-149102544I950000J0D01*
G01*
X248792257Y-142102544D02*
G75*
G02*
X246892257Y-142102544I-950000J0D01*
G01*
X246892257Y-142102544D02*
G75*
G02*
X248792257Y-142102544I950000J0D01*
G01*
X259792257Y-142102544D02*
G75*
G02*
X257892257Y-142102544I-950000J0D01*
G01*
X257892257Y-142102544D02*
G75*
G02*
X259792257Y-142102544I950000J0D01*
G01*
X127601607Y-144102544D02*
G75*
G02*
X125701607Y-144102544I-950000J0D01*
G01*
X125701607Y-144102544D02*
G75*
G02*
X127601607Y-144102544I950000J0D01*
G01*
X138601607Y-144102544D02*
G75*
G02*
X136701607Y-144102544I-950000J0D01*
G01*
X136701607Y-144102544D02*
G75*
G02*
X138601607Y-144102544I950000J0D01*
G01*
X127601607Y-86952544D02*
G75*
G02*
X125701607Y-86952544I-950000J0D01*
G01*
X125701607Y-86952544D02*
G75*
G02*
X127601607Y-86952544I950000J0D01*
G01*
X138601607Y-86952544D02*
G75*
G02*
X136701607Y-86952544I-950000J0D01*
G01*
X136701607Y-86952544D02*
G75*
G02*
X138601607Y-86952544I950000J0D01*
G01*
X127601607Y-106002544D02*
G75*
G02*
X125701607Y-106002544I-950000J0D01*
G01*
X125701607Y-106002544D02*
G75*
G02*
X127601607Y-106002544I950000J0D01*
G01*
X138601607Y-106002544D02*
G75*
G02*
X136701607Y-106002544I-950000J0D01*
G01*
X136701607Y-106002544D02*
G75*
G02*
X138601607Y-106002544I950000J0D01*
G01*
X210692257Y-147102544D02*
G75*
G02*
X208792257Y-147102544I-950000J0D01*
G01*
X208792257Y-147102544D02*
G75*
G02*
X210692257Y-147102544I950000J0D01*
G01*
X221692257Y-147102544D02*
G75*
G02*
X219792257Y-147102544I-950000J0D01*
G01*
X219792257Y-147102544D02*
G75*
G02*
X221692257Y-147102544I950000J0D01*
G01*
X70451607Y-130052544D02*
G75*
G02*
X68551607Y-130052544I-950000J0D01*
G01*
X68551607Y-130052544D02*
G75*
G02*
X70451607Y-130052544I950000J0D01*
G01*
X81451607Y-130052544D02*
G75*
G02*
X79551607Y-130052544I-950000J0D01*
G01*
X79551607Y-130052544D02*
G75*
G02*
X81451607Y-130052544I950000J0D01*
G01*
X165200519Y-171785730D02*
G75*
G02*
X163300517Y-171785730I-950001J0D01*
G01*
X163300517Y-171785730D02*
G75*
G02*
X165200519Y-171785730I950001J0D01*
G01*
X169849318Y-161816344D02*
G75*
G02*
X167949318Y-161816344I-950000J0D01*
G01*
X167949318Y-161816344D02*
G75*
G02*
X169849318Y-161816344I950000J0D01*
G01*
X146651607Y-89952544D02*
G75*
G02*
X144751607Y-89952544I-950000J0D01*
G01*
X144751607Y-89952544D02*
G75*
G02*
X146651607Y-89952544I950000J0D01*
G01*
X157651607Y-89952544D02*
G75*
G02*
X155751607Y-89952544I-950000J0D01*
G01*
X155751607Y-89952544D02*
G75*
G02*
X157651607Y-89952544I950000J0D01*
G01*
X89501607Y-125052544D02*
G75*
G02*
X87601607Y-125052544I-950000J0D01*
G01*
X87601607Y-125052544D02*
G75*
G02*
X89501607Y-125052544I950000J0D01*
G01*
X100501607Y-125052544D02*
G75*
G02*
X98601607Y-125052544I-950000J0D01*
G01*
X98601607Y-125052544D02*
G75*
G02*
X100501607Y-125052544I950000J0D01*
G01*
X229742257Y-86952544D02*
G75*
G02*
X227842257Y-86952544I-950000J0D01*
G01*
X227842257Y-86952544D02*
G75*
G02*
X229742257Y-86952544I950000J0D01*
G01*
X240742257Y-86952544D02*
G75*
G02*
X238842257Y-86952544I-950000J0D01*
G01*
X238842257Y-86952544D02*
G75*
G02*
X240742257Y-86952544I950000J0D01*
G01*
X165701607Y-137577544D02*
G75*
G02*
X163801607Y-137577544I-950000J0D01*
G01*
X163801607Y-137577544D02*
G75*
G02*
X165701607Y-137577544I950000J0D01*
G01*
X176701607Y-137577544D02*
G75*
G02*
X174801607Y-137577544I-950000J0D01*
G01*
X174801607Y-137577544D02*
G75*
G02*
X176701607Y-137577544I950000J0D01*
G01*
X146651607Y-109002544D02*
G75*
G02*
X144751607Y-109002544I-950000J0D01*
G01*
X144751607Y-109002544D02*
G75*
G02*
X146651607Y-109002544I950000J0D01*
G01*
X157651607Y-109002544D02*
G75*
G02*
X155751607Y-109002544I-950000J0D01*
G01*
X155751607Y-109002544D02*
G75*
G02*
X157651607Y-109002544I950000J0D01*
G01*
X305942257Y-152102544D02*
G75*
G02*
X304042257Y-152102544I-950000J0D01*
G01*
X304042257Y-152102544D02*
G75*
G02*
X305942257Y-152102544I950000J0D01*
G01*
X316942257Y-152102544D02*
G75*
G02*
X315042257Y-152102544I-950000J0D01*
G01*
X315042257Y-152102544D02*
G75*
G02*
X316942257Y-152102544I950000J0D01*
G01*
X239267257Y-163152544D02*
G75*
G02*
X237367257Y-163152544I-950000J0D01*
G01*
X237367257Y-163152544D02*
G75*
G02*
X239267257Y-163152544I950000J0D01*
G01*
X250267257Y-163152544D02*
G75*
G02*
X248367257Y-163152544I-950000J0D01*
G01*
X248367257Y-163152544D02*
G75*
G02*
X250267257Y-163152544I950000J0D01*
G01*
X51401607Y-133052544D02*
G75*
G02*
X49501607Y-133052544I-950000J0D01*
G01*
X49501607Y-133052544D02*
G75*
G02*
X51401607Y-133052544I950000J0D01*
G01*
X62401607Y-133052544D02*
G75*
G02*
X60501607Y-133052544I-950000J0D01*
G01*
X60501607Y-133052544D02*
G75*
G02*
X62401607Y-133052544I950000J0D01*
G01*
X146651607Y-128052544D02*
G75*
G02*
X144751607Y-128052544I-950000J0D01*
G01*
X144751607Y-128052544D02*
G75*
G02*
X146651607Y-128052544I950000J0D01*
G01*
X157651607Y-128052544D02*
G75*
G02*
X155751607Y-128052544I-950000J0D01*
G01*
X155751607Y-128052544D02*
G75*
G02*
X157651607Y-128052544I950000J0D01*
G01*
X108551607Y-84952544D02*
G75*
G02*
X106651607Y-84952544I-950000J0D01*
G01*
X106651607Y-84952544D02*
G75*
G02*
X108551607Y-84952544I950000J0D01*
G01*
X119551607Y-84952544D02*
G75*
G02*
X117651607Y-84952544I-950000J0D01*
G01*
X117651607Y-84952544D02*
G75*
G02*
X119551607Y-84952544I950000J0D01*
G01*
X229742257Y-106002544D02*
G75*
G02*
X227842257Y-106002544I-950000J0D01*
G01*
X227842257Y-106002544D02*
G75*
G02*
X229742257Y-106002544I950000J0D01*
G01*
X240742257Y-106002544D02*
G75*
G02*
X238842257Y-106002544I-950000J0D01*
G01*
X238842257Y-106002544D02*
G75*
G02*
X240742257Y-106002544I950000J0D01*
G01*
X286892257Y-130052544D02*
G75*
G02*
X284992257Y-130052544I-950000J0D01*
G01*
X284992257Y-130052544D02*
G75*
G02*
X286892257Y-130052544I950000J0D01*
G01*
X297892257Y-130052544D02*
G75*
G02*
X295992257Y-130052544I-950000J0D01*
G01*
X295992257Y-130052544D02*
G75*
G02*
X297892257Y-130052544I950000J0D01*
G01*
X51401607Y-114002544D02*
G75*
G02*
X49501607Y-114002544I-950000J0D01*
G01*
X49501607Y-114002544D02*
G75*
G02*
X51401607Y-114002544I950000J0D01*
G01*
X62401607Y-114002544D02*
G75*
G02*
X60501607Y-114002544I-950000J0D01*
G01*
X60501607Y-114002544D02*
G75*
G02*
X62401607Y-114002544I950000J0D01*
G01*
X248792257Y-123052544D02*
G75*
G02*
X246892257Y-123052544I-950000J0D01*
G01*
X246892257Y-123052544D02*
G75*
G02*
X248792257Y-123052544I950000J0D01*
G01*
X259792257Y-123052544D02*
G75*
G02*
X257892257Y-123052544I-950000J0D01*
G01*
X257892257Y-123052544D02*
G75*
G02*
X259792257Y-123052544I950000J0D01*
G01*
X108551607Y-123052544D02*
G75*
G02*
X106651607Y-123052544I-950000J0D01*
G01*
X106651607Y-123052544D02*
G75*
G02*
X108551607Y-123052544I950000J0D01*
G01*
X119551607Y-123052544D02*
G75*
G02*
X117651607Y-123052544I-950000J0D01*
G01*
X117651607Y-123052544D02*
G75*
G02*
X119551607Y-123052544I950000J0D01*
G01*
X89501607Y-144102544D02*
G75*
G02*
X87601607Y-144102544I-950000J0D01*
G01*
X87601607Y-144102544D02*
G75*
G02*
X89501607Y-144102544I950000J0D01*
G01*
X100501607Y-144102544D02*
G75*
G02*
X98601607Y-144102544I-950000J0D01*
G01*
X98601607Y-144102544D02*
G75*
G02*
X100501607Y-144102544I950000J0D01*
G01*
X220217257Y-166152544D02*
G75*
G02*
X218317257Y-166152544I-950000J0D01*
G01*
X218317257Y-166152544D02*
G75*
G02*
X220217257Y-166152544I950000J0D01*
G01*
X231217257Y-166152544D02*
G75*
G02*
X229317257Y-166152544I-950000J0D01*
G01*
X229317257Y-166152544D02*
G75*
G02*
X231217257Y-166152544I950000J0D01*
G01*
X229742257Y-144102544D02*
G75*
G02*
X227842257Y-144102544I-950000J0D01*
G01*
X227842257Y-144102544D02*
G75*
G02*
X229742257Y-144102544I950000J0D01*
G01*
X240742257Y-144102544D02*
G75*
G02*
X238842257Y-144102544I-950000J0D01*
G01*
X238842257Y-144102544D02*
G75*
G02*
X240742257Y-144102544I950000J0D01*
G01*
X191642257Y-137577544D02*
G75*
G02*
X189742257Y-137577544I-950000J0D01*
G01*
X189742257Y-137577544D02*
G75*
G02*
X191642257Y-137577544I950000J0D01*
G01*
X202642257Y-137577544D02*
G75*
G02*
X200742257Y-137577544I-950000J0D01*
G01*
X200742257Y-137577544D02*
G75*
G02*
X202642257Y-137577544I950000J0D01*
G01*
X267842257Y-125052544D02*
G75*
G02*
X265942257Y-125052544I-950000J0D01*
G01*
X265942257Y-125052544D02*
G75*
G02*
X267842257Y-125052544I950000J0D01*
G01*
X278842257Y-125052544D02*
G75*
G02*
X276942257Y-125052544I-950000J0D01*
G01*
X276942257Y-125052544D02*
G75*
G02*
X278842257Y-125052544I950000J0D01*
G01*
X70451607Y-91952544D02*
G75*
G02*
X68551607Y-91952544I-950000J0D01*
G01*
X68551607Y-91952544D02*
G75*
G02*
X70451607Y-91952544I950000J0D01*
G01*
X81451607Y-91952544D02*
G75*
G02*
X79551607Y-91952544I-950000J0D01*
G01*
X79551607Y-91952544D02*
G75*
G02*
X81451607Y-91952544I950000J0D01*
G01*
X258317257Y-163152544D02*
G75*
G02*
X256417257Y-163152544I-950000J0D01*
G01*
X256417257Y-163152544D02*
G75*
G02*
X258317257Y-163152544I950000J0D01*
G01*
X269317257Y-163152544D02*
G75*
G02*
X267417257Y-163152544I-950000J0D01*
G01*
X267417257Y-163152544D02*
G75*
G02*
X269317257Y-163152544I950000J0D01*
G01*
X127601607Y-125052544D02*
G75*
G02*
X125701607Y-125052544I-950000J0D01*
G01*
X125701607Y-125052544D02*
G75*
G02*
X127601607Y-125052544I950000J0D01*
G01*
X138601607Y-125052544D02*
G75*
G02*
X136701607Y-125052544I-950000J0D01*
G01*
X136701607Y-125052544D02*
G75*
G02*
X138601607Y-125052544I950000J0D01*
G01*
X210692257Y-89952544D02*
G75*
G02*
X208792257Y-89952544I-950000J0D01*
G01*
X208792257Y-89952544D02*
G75*
G02*
X210692257Y-89952544I950000J0D01*
G01*
X221692257Y-89952544D02*
G75*
G02*
X219792257Y-89952544I-950000J0D01*
G01*
X219792257Y-89952544D02*
G75*
G02*
X221692257Y-89952544I950000J0D01*
G01*
X305942257Y-133052544D02*
G75*
G02*
X304042257Y-133052544I-950000J0D01*
G01*
X304042257Y-133052544D02*
G75*
G02*
X305942257Y-133052544I950000J0D01*
G01*
X316942257Y-133052544D02*
G75*
G02*
X315042257Y-133052544I-950000J0D01*
G01*
X315042257Y-133052544D02*
G75*
G02*
X316942257Y-133052544I950000J0D01*
G01*
X108551607Y-104002544D02*
G75*
G02*
X106651607Y-104002544I-950000J0D01*
G01*
X106651607Y-104002544D02*
G75*
G02*
X108551607Y-104002544I950000J0D01*
G01*
X119551607Y-104002544D02*
G75*
G02*
X117651607Y-104002544I-950000J0D01*
G01*
X117651607Y-104002544D02*
G75*
G02*
X119551607Y-104002544I950000J0D01*
G01*
X137126607Y-166152544D02*
G75*
G02*
X135226607Y-166152544I-950000J0D01*
G01*
X135226607Y-166152544D02*
G75*
G02*
X137126607Y-166152544I950000J0D01*
G01*
X148126607Y-166152544D02*
G75*
G02*
X146226607Y-166152544I-950000J0D01*
G01*
X146226607Y-166152544D02*
G75*
G02*
X148126607Y-166152544I950000J0D01*
G01*
X70451607Y-111002544D02*
G75*
G02*
X68551607Y-111002544I-950000J0D01*
G01*
X68551607Y-111002544D02*
G75*
G02*
X70451607Y-111002544I950000J0D01*
G01*
X81451607Y-111002544D02*
G75*
G02*
X79551607Y-111002544I-950000J0D01*
G01*
X79551607Y-111002544D02*
G75*
G02*
X81451607Y-111002544I950000J0D01*
G01*
X70451607Y-149102544D02*
G75*
G02*
X68551607Y-149102544I-950000J0D01*
G01*
X68551607Y-149102544D02*
G75*
G02*
X70451607Y-149102544I950000J0D01*
G01*
X81451607Y-149102544D02*
G75*
G02*
X79551607Y-149102544I-950000J0D01*
G01*
X79551607Y-149102544D02*
G75*
G02*
X81451607Y-149102544I950000J0D01*
G01*
X305942257Y-114002544D02*
G75*
G02*
X304042257Y-114002544I-950000J0D01*
G01*
X304042257Y-114002544D02*
G75*
G02*
X305942257Y-114002544I950000J0D01*
G01*
X316942257Y-114002544D02*
G75*
G02*
X315042257Y-114002544I-950000J0D01*
G01*
X315042257Y-114002544D02*
G75*
G02*
X316942257Y-114002544I950000J0D01*
G01*
X286892257Y-91952544D02*
G75*
G02*
X284992257Y-91952544I-950000J0D01*
G01*
X284992257Y-91952544D02*
G75*
G02*
X286892257Y-91952544I950000J0D01*
G01*
X297892257Y-91952544D02*
G75*
G02*
X295992257Y-91952544I-950000J0D01*
G01*
X295992257Y-91952544D02*
G75*
G02*
X297892257Y-91952544I950000J0D01*
G01*
X210692257Y-128052544D02*
G75*
G02*
X208792257Y-128052544I-950000J0D01*
G01*
X208792257Y-128052544D02*
G75*
G02*
X210692257Y-128052544I950000J0D01*
G01*
X221692257Y-128052544D02*
G75*
G02*
X219792257Y-128052544I-950000J0D01*
G01*
X219792257Y-128052544D02*
G75*
G02*
X221692257Y-128052544I950000J0D01*
G01*
X210692257Y-109002544D02*
G75*
G02*
X208792257Y-109002544I-950000J0D01*
G01*
X208792257Y-109002544D02*
G75*
G02*
X210692257Y-109002544I950000J0D01*
G01*
X221692257Y-109002544D02*
G75*
G02*
X219792257Y-109002544I-950000J0D01*
G01*
X219792257Y-109002544D02*
G75*
G02*
X221692257Y-109002544I950000J0D01*
G01*
D22*
X67524216Y-170682032D02*
G75*
G02*
X62924216Y-170682032I-2300000J0D01*
G01*
X62924216Y-170682032D02*
G75*
G02*
X67524216Y-170682032I2300000J0D01*
G01*
X67524216Y-191895232D02*
G75*
G02*
X62924216Y-191895232I-2300000J0D01*
G01*
X62924216Y-191895232D02*
G75*
G02*
X67524216Y-191895232I2300000J0D01*
G01*
X73448836Y-178106652D02*
G75*
G02*
X71848836Y-178106652I-800000J0D01*
G01*
X71848836Y-178106652D02*
G75*
G02*
X73448836Y-178106652I800000J0D01*
G01*
X79812796Y-184470612D02*
G75*
G02*
X78212796Y-184470612I-800000J0D01*
G01*
X78212796Y-184470612D02*
G75*
G02*
X79812796Y-184470612I800000J0D01*
G01*
X88737416Y-170682032D02*
G75*
G02*
X84137416Y-170682032I-2300000J0D01*
G01*
X84137416Y-170682032D02*
G75*
G02*
X88737416Y-170682032I2300000J0D01*
G01*
X88737416Y-191895232D02*
G75*
G02*
X84137416Y-191895232I-2300000J0D01*
G01*
X84137416Y-191895232D02*
G75*
G02*
X88737416Y-191895232I2300000J0D01*
G01*
X167226607Y-137796194D02*
X173226607Y-137796194D01*
X173226607Y-139796194D01*
X167226607Y-139796194D01*
X167226607Y-137796194D01*
D21*
X163951607Y-124521684D02*
G75*
G02*
X161751607Y-124521684I-1100000J0D01*
G01*
X161751607Y-124521684D02*
G75*
G02*
X163951607Y-124521684I1100000J0D01*
G01*
X163951607Y-148270704D02*
G75*
G02*
X161751607Y-148270704I-1100000J0D01*
G01*
X161751607Y-148270704D02*
G75*
G02*
X163951607Y-148270704I1100000J0D01*
G01*
D22*
X163951607Y-117852544D02*
G75*
G02*
X161551607Y-117852544I-1200000J0D01*
G01*
X161551607Y-117852544D02*
G75*
G02*
X163951607Y-117852544I1200000J0D01*
G01*
X194192257Y-137777544D02*
X198192257Y-137777544D01*
X198192257Y-139777544D01*
X194192257Y-139777544D01*
X194192257Y-137777544D01*
X191032257Y-143677544D02*
G75*
G02*
X188832257Y-143677544I-1100000J0D01*
G01*
X188832257Y-143677544D02*
G75*
G02*
X191032257Y-143677544I1100000J0D01*
G01*
X201492257Y-121677544D02*
G75*
G02*
X199292257Y-121677544I-1100000J0D01*
G01*
X199292257Y-121677544D02*
G75*
G02*
X201492257Y-121677544I1100000J0D01*
G01*
X204892257Y-117852544D02*
G75*
G02*
X202492257Y-117852544I-1200000J0D01*
G01*
X202492257Y-117852544D02*
G75*
G02*
X204892257Y-117852544I1200000J0D01*
G01*
M02*
