G04 #@! TF.GenerationSoftware,KiCad,Pcbnew,9.0.3*
G04 #@! TF.CreationDate,2025-08-01T16:01:12-04:00*
G04 #@! TF.ProjectId,quartz58,71756172-747a-4353-982e-6b696361645f,rev?*
G04 #@! TF.SameCoordinates,Original*
G04 #@! TF.FileFunction,Profile,NP*
%FSLAX46Y46*%
G04 Gerber Fmt 4.6, Leading zero omitted, Abs format (unit mm)*
G04 Created by KiCad (PCBNEW 9.0.3) date 2025-08-01 16:01:12*
%MOMM*%
%LPD*%
G01*
G04 APERTURE LIST*
G04 #@! TA.AperFunction,Profile*
%ADD10C,0.150000*%
G04 #@! TD*
G04 #@! TA.AperFunction,Profile*
%ADD11C,0.200000*%
G04 #@! TD*
G04 #@! TA.AperFunction,Profile*
%ADD12C,0.050000*%
G04 #@! TD*
G04 #@! TA.AperFunction,Profile*
%ADD13C,0.100000*%
G04 #@! TD*
G04 #@! TA.AperFunction,Profile*
%ADD14C,0.120000*%
G04 #@! TD*
G04 APERTURE END LIST*
D10*
X186348957Y-157573007D02*
G75*
G02*
X186302111Y-157361695I453145J211307D01*
G01*
X225902109Y-78977544D02*
G75*
G02*
X225402109Y-79477607I-500107J44D01*
G01*
X236427109Y-175227544D02*
G75*
G02*
X235927109Y-175727607I-500107J44D01*
G01*
X283552109Y-76477544D02*
X265502109Y-76477544D01*
X274527109Y-172227544D02*
G75*
G02*
X274027109Y-172727607I-500107J44D01*
G01*
X274527109Y-172227544D02*
X274527109Y-162177544D01*
X244452109Y-76477544D02*
X226402109Y-76477544D01*
X274527109Y-162177544D02*
G75*
G02*
X275027109Y-161677607I499893J44D01*
G01*
X186348956Y-157573007D02*
X198456219Y-183536662D01*
X303102109Y-83977544D02*
X303102109Y-81977544D01*
X322152109Y-161177544D02*
X322152109Y-84977544D01*
X199120682Y-183778503D02*
G75*
G02*
X198456234Y-183536655I-211280J453203D01*
G01*
X216285557Y-175774390D02*
G75*
G02*
X216496866Y-175727544I211145J-452410D01*
G01*
X265502109Y-76477544D02*
G75*
G02*
X265002158Y-75977544I-7J499944D01*
G01*
X264502109Y-74477544D02*
G75*
G02*
X265002158Y-74977544I-7J-500056D01*
G01*
X321652109Y-84477544D02*
X303602109Y-84477544D01*
X275027109Y-161677544D02*
X321652109Y-161677544D01*
X284552109Y-81477544D02*
G75*
G02*
X284052158Y-80977544I-7J499944D01*
G01*
X264502109Y-74477544D02*
X245452109Y-74477544D01*
X321652109Y-84477544D02*
G75*
G02*
X322152158Y-84977544I-7J-500056D01*
G01*
X284052109Y-80977544D02*
X284052109Y-76977544D01*
X225402109Y-79477544D02*
X186802109Y-79477544D01*
X216496866Y-175727544D02*
X235927109Y-175727544D01*
X225902109Y-76977544D02*
X225902109Y-78977544D01*
X244952109Y-74977544D02*
G75*
G02*
X245452109Y-74477607I499893J44D01*
G01*
X236427109Y-173227544D02*
G75*
G02*
X236927109Y-172727607I499893J44D01*
G01*
X302602109Y-81477544D02*
G75*
G02*
X303102158Y-81977544I-7J-500056D01*
G01*
X265002109Y-75977544D02*
X265002109Y-74977544D01*
X236427109Y-175227544D02*
X236427109Y-173227544D01*
X283552109Y-76477544D02*
G75*
G02*
X284052158Y-76977544I-7J-500056D01*
G01*
X303602109Y-84477544D02*
G75*
G02*
X303102158Y-83977544I-7J499944D01*
G01*
X322152109Y-161177544D02*
G75*
G02*
X321652109Y-161677607I-500107J44D01*
G01*
X186302109Y-79977544D02*
X186302109Y-157361695D01*
X225902109Y-76977544D02*
G75*
G02*
X226402109Y-76477607I499893J44D01*
G01*
X186302109Y-79977544D02*
G75*
G02*
X186802109Y-79477607I499893J44D01*
G01*
X244952109Y-75977544D02*
G75*
G02*
X244452109Y-76477607I-500107J44D01*
G01*
X302602109Y-81477544D02*
X284552109Y-81477544D01*
X199120681Y-183778503D02*
X216285557Y-175774390D01*
X244952109Y-74977544D02*
X244952109Y-75977544D01*
X236927109Y-172727544D02*
X274027109Y-172727544D01*
D11*
X57678796Y-170155224D02*
G75*
G02*
X60787780Y-168919594I1800019J42D01*
G01*
X60578796Y-193904244D02*
G75*
G02*
X58378796Y-193904244I-1100000J0D01*
G01*
X58378796Y-193904244D02*
G75*
G02*
X60578796Y-193904244I1100000J0D01*
G01*
X60578796Y-170155224D02*
G75*
G02*
X58378796Y-170155224I-1100000J0D01*
G01*
X58378796Y-170155224D02*
G75*
G02*
X60578796Y-170155224I1100000J0D01*
G01*
X60753479Y-195175152D02*
G75*
G02*
X63427651Y-195153661I1348036J-1351830D01*
G01*
X60750201Y-195178431D02*
G75*
G02*
X57678849Y-193904251I-1271386J1274149D01*
G01*
X63419106Y-168913963D02*
G75*
G02*
X60790947Y-168920627I-1317591J1381481D01*
G01*
X57678796Y-170155224D02*
X57678796Y-193904244D01*
X63419106Y-168913964D02*
G75*
G02*
X63427689Y-195153681I12509689J-13115768D01*
G01*
D10*
X169622497Y-183986661D02*
G75*
G02*
X168958020Y-184228535I-453197J211361D01*
G01*
X151581850Y-176177544D02*
X132151607Y-176177544D01*
X103076607Y-76427544D02*
X103076607Y-75427544D01*
X168958035Y-184228503D02*
X151793159Y-176224390D01*
X103576607Y-74927544D02*
X122626607Y-74927544D01*
X181776606Y-157811695D02*
G75*
G02*
X181729765Y-158023010I-499606J-105D01*
G01*
X181276607Y-79927544D02*
G75*
G02*
X181776556Y-80427544I-7J-499956D01*
G01*
X123626607Y-76927544D02*
X141676607Y-76927544D01*
X84026607Y-77427544D02*
G75*
G02*
X84526607Y-76927507I499993J44D01*
G01*
X93551607Y-172677544D02*
X93551607Y-162627544D01*
X94051607Y-173177544D02*
G75*
G02*
X93551556Y-172677544I-7J500044D01*
G01*
X151581850Y-176177544D02*
G75*
G02*
X151793164Y-176224379I-50J-500356D01*
G01*
X122626607Y-74927544D02*
G75*
G02*
X123126556Y-75427544I-7J-499956D01*
G01*
X65476607Y-81927544D02*
X83526607Y-81927544D01*
X132151607Y-176177544D02*
G75*
G02*
X131651556Y-175677544I-7J500044D01*
G01*
X142676607Y-79927544D02*
G75*
G02*
X142176556Y-79427544I-7J500044D01*
G01*
X142676607Y-79927544D02*
X181276607Y-79927544D01*
X142176607Y-77427544D02*
X142176607Y-79427544D01*
X84526607Y-76927544D02*
X102576607Y-76927544D01*
X46426607Y-84927544D02*
X64476607Y-84927544D01*
X131151607Y-173177544D02*
X94051607Y-173177544D01*
X46426607Y-162127544D02*
G75*
G02*
X45926556Y-161627544I-7J500044D01*
G01*
X64976607Y-84427544D02*
G75*
G02*
X64476607Y-84927507I-500007J44D01*
G01*
X131651607Y-175677544D02*
X131651607Y-173677544D01*
X123126607Y-75427544D02*
X123126607Y-76427544D01*
X181729760Y-158023007D02*
X169622497Y-183986662D01*
X84026607Y-81427544D02*
G75*
G02*
X83526607Y-81927507I-500007J44D01*
G01*
X64976607Y-84427544D02*
X64976607Y-82427544D01*
X181776607Y-80427544D02*
X181776607Y-157811695D01*
X45926607Y-85427544D02*
G75*
G02*
X46426607Y-84927507I499993J44D01*
G01*
X45926607Y-161627544D02*
X45926607Y-85427544D01*
X141676607Y-76927544D02*
G75*
G02*
X142176556Y-77427544I-7J-499956D01*
G01*
X64976607Y-82427544D02*
G75*
G02*
X65476607Y-81927507I499993J44D01*
G01*
X123626607Y-76927544D02*
G75*
G02*
X123126556Y-76427544I-7J500044D01*
G01*
X93051607Y-162127544D02*
X46426607Y-162127544D01*
X103076607Y-75427544D02*
G75*
G02*
X103576607Y-74927507I499993J44D01*
G01*
X93051607Y-162127544D02*
G75*
G02*
X93551556Y-162627544I-7J-499956D01*
G01*
X103076607Y-76427544D02*
G75*
G02*
X102576607Y-76927507I-500007J44D01*
G01*
X84026607Y-81427544D02*
X84026607Y-77427544D01*
X131151607Y-173177544D02*
G75*
G02*
X131651556Y-173677544I-7J-499956D01*
G01*
D12*
X269477109Y-86502544D02*
G75*
G02*
X267577109Y-86502544I-950000J0D01*
G01*
X267577109Y-86502544D02*
G75*
G02*
X269477109Y-86502544I950000J0D01*
G01*
D13*
X275552109Y-80602544D02*
G75*
G02*
X272502109Y-80602544I-1525000J0D01*
G01*
X272502109Y-80602544D02*
G75*
G02*
X275552109Y-80602544I1525000J0D01*
G01*
X280552109Y-82702544D02*
G75*
G02*
X277502109Y-82702544I-1525000J0D01*
G01*
X277502109Y-82702544D02*
G75*
G02*
X280552109Y-82702544I1525000J0D01*
G01*
D12*
X280477109Y-86502544D02*
G75*
G02*
X278577109Y-86502544I-950000J0D01*
G01*
X278577109Y-86502544D02*
G75*
G02*
X280477109Y-86502544I950000J0D01*
G01*
X307577109Y-113552544D02*
G75*
G02*
X305677109Y-113552544I-950000J0D01*
G01*
X305677109Y-113552544D02*
G75*
G02*
X307577109Y-113552544I950000J0D01*
G01*
D13*
X313652109Y-107652544D02*
G75*
G02*
X310602109Y-107652544I-1525000J0D01*
G01*
X310602109Y-107652544D02*
G75*
G02*
X313652109Y-107652544I1525000J0D01*
G01*
X318652109Y-109752544D02*
G75*
G02*
X315602109Y-109752544I-1525000J0D01*
G01*
X315602109Y-109752544D02*
G75*
G02*
X318652109Y-109752544I1525000J0D01*
G01*
D12*
X318577109Y-113552544D02*
G75*
G02*
X316677109Y-113552544I-950000J0D01*
G01*
X316677109Y-113552544D02*
G75*
G02*
X318577109Y-113552544I950000J0D01*
G01*
X200129398Y-161366344D02*
G75*
G02*
X198229398Y-161366344I-950000J0D01*
G01*
X198229398Y-161366344D02*
G75*
G02*
X200129398Y-161366344I950000J0D01*
G01*
X204778198Y-171335730D02*
G75*
G02*
X202878198Y-171335730I-950000J0D01*
G01*
X202878198Y-171335730D02*
G75*
G02*
X204778198Y-171335730I950000J0D01*
G01*
D13*
X208376015Y-163857589D02*
G75*
G02*
X205326013Y-163857589I-1525001J0D01*
G01*
X205326013Y-163857589D02*
G75*
G02*
X208376015Y-163857589I1525001J0D01*
G01*
X208585859Y-169276627D02*
G75*
G02*
X205535859Y-169276627I-1525000J0D01*
G01*
X205535859Y-169276627D02*
G75*
G02*
X208585859Y-169276627I1525000J0D01*
G01*
D12*
X288527109Y-148652544D02*
G75*
G02*
X286627109Y-148652544I-950000J0D01*
G01*
X286627109Y-148652544D02*
G75*
G02*
X288527109Y-148652544I950000J0D01*
G01*
D13*
X294602109Y-142752544D02*
G75*
G02*
X291552109Y-142752544I-1525000J0D01*
G01*
X291552109Y-142752544D02*
G75*
G02*
X294602109Y-142752544I1525000J0D01*
G01*
X299602109Y-144852544D02*
G75*
G02*
X296552109Y-144852544I-1525000J0D01*
G01*
X296552109Y-144852544D02*
G75*
G02*
X299602109Y-144852544I1525000J0D01*
G01*
D12*
X299527109Y-148652544D02*
G75*
G02*
X297627109Y-148652544I-950000J0D01*
G01*
X297627109Y-148652544D02*
G75*
G02*
X299527109Y-148652544I950000J0D01*
G01*
X250427109Y-141652544D02*
G75*
G02*
X248527109Y-141652544I-950000J0D01*
G01*
X248527109Y-141652544D02*
G75*
G02*
X250427109Y-141652544I950000J0D01*
G01*
D13*
X256502109Y-135752544D02*
G75*
G02*
X253452109Y-135752544I-1525000J0D01*
G01*
X253452109Y-135752544D02*
G75*
G02*
X256502109Y-135752544I1525000J0D01*
G01*
X261502109Y-137852544D02*
G75*
G02*
X258452109Y-137852544I-1525000J0D01*
G01*
X258452109Y-137852544D02*
G75*
G02*
X261502109Y-137852544I1525000J0D01*
G01*
D12*
X261427109Y-141652544D02*
G75*
G02*
X259527109Y-141652544I-950000J0D01*
G01*
X259527109Y-141652544D02*
G75*
G02*
X261427109Y-141652544I950000J0D01*
G01*
X212327109Y-146652544D02*
G75*
G02*
X210427109Y-146652544I-950000J0D01*
G01*
X210427109Y-146652544D02*
G75*
G02*
X212327109Y-146652544I950000J0D01*
G01*
D13*
X218402109Y-140752544D02*
G75*
G02*
X215352109Y-140752544I-1525000J0D01*
G01*
X215352109Y-140752544D02*
G75*
G02*
X218402109Y-140752544I1525000J0D01*
G01*
X223402109Y-142852544D02*
G75*
G02*
X220352109Y-142852544I-1525000J0D01*
G01*
X220352109Y-142852544D02*
G75*
G02*
X223402109Y-142852544I1525000J0D01*
G01*
D12*
X223327109Y-146652544D02*
G75*
G02*
X221427109Y-146652544I-950000J0D01*
G01*
X221427109Y-146652544D02*
G75*
G02*
X223327109Y-146652544I950000J0D01*
G01*
X212327109Y-127602544D02*
G75*
G02*
X210427109Y-127602544I-950000J0D01*
G01*
X210427109Y-127602544D02*
G75*
G02*
X212327109Y-127602544I950000J0D01*
G01*
D13*
X218402109Y-121702544D02*
G75*
G02*
X215352109Y-121702544I-1525000J0D01*
G01*
X215352109Y-121702544D02*
G75*
G02*
X218402109Y-121702544I1525000J0D01*
G01*
X223402109Y-123802544D02*
G75*
G02*
X220352109Y-123802544I-1525000J0D01*
G01*
X220352109Y-123802544D02*
G75*
G02*
X223402109Y-123802544I1525000J0D01*
G01*
D12*
X223327109Y-127602544D02*
G75*
G02*
X221427109Y-127602544I-950000J0D01*
G01*
X221427109Y-127602544D02*
G75*
G02*
X223327109Y-127602544I950000J0D01*
G01*
X231377109Y-86502544D02*
G75*
G02*
X229477109Y-86502544I-950000J0D01*
G01*
X229477109Y-86502544D02*
G75*
G02*
X231377109Y-86502544I950000J0D01*
G01*
D13*
X237452109Y-80602544D02*
G75*
G02*
X234402109Y-80602544I-1525000J0D01*
G01*
X234402109Y-80602544D02*
G75*
G02*
X237452109Y-80602544I1525000J0D01*
G01*
X242452109Y-82702544D02*
G75*
G02*
X239402109Y-82702544I-1525000J0D01*
G01*
X239402109Y-82702544D02*
G75*
G02*
X242452109Y-82702544I1525000J0D01*
G01*
D12*
X242377109Y-86502544D02*
G75*
G02*
X240477109Y-86502544I-950000J0D01*
G01*
X240477109Y-86502544D02*
G75*
G02*
X242377109Y-86502544I950000J0D01*
G01*
X259952109Y-162702544D02*
G75*
G02*
X258052109Y-162702544I-950000J0D01*
G01*
X258052109Y-162702544D02*
G75*
G02*
X259952109Y-162702544I950000J0D01*
G01*
D13*
X266027109Y-156802544D02*
G75*
G02*
X262977109Y-156802544I-1525000J0D01*
G01*
X262977109Y-156802544D02*
G75*
G02*
X266027109Y-156802544I1525000J0D01*
G01*
X271027109Y-158902544D02*
G75*
G02*
X267977109Y-158902544I-1525000J0D01*
G01*
X267977109Y-158902544D02*
G75*
G02*
X271027109Y-158902544I1525000J0D01*
G01*
D12*
X270952109Y-162702544D02*
G75*
G02*
X269052109Y-162702544I-950000J0D01*
G01*
X269052109Y-162702544D02*
G75*
G02*
X270952109Y-162702544I950000J0D01*
G01*
X212327109Y-89502544D02*
G75*
G02*
X210427109Y-89502544I-950000J0D01*
G01*
X210427109Y-89502544D02*
G75*
G02*
X212327109Y-89502544I950000J0D01*
G01*
D13*
X218402109Y-83602544D02*
G75*
G02*
X215352109Y-83602544I-1525000J0D01*
G01*
X215352109Y-83602544D02*
G75*
G02*
X218402109Y-83602544I1525000J0D01*
G01*
X223402109Y-85702544D02*
G75*
G02*
X220352109Y-85702544I-1525000J0D01*
G01*
X220352109Y-85702544D02*
G75*
G02*
X223402109Y-85702544I1525000J0D01*
G01*
D12*
X223327109Y-89502544D02*
G75*
G02*
X221427109Y-89502544I-950000J0D01*
G01*
X221427109Y-89502544D02*
G75*
G02*
X223327109Y-89502544I950000J0D01*
G01*
X307577109Y-132602544D02*
G75*
G02*
X305677109Y-132602544I-950000J0D01*
G01*
X305677109Y-132602544D02*
G75*
G02*
X307577109Y-132602544I950000J0D01*
G01*
D13*
X313652109Y-126702544D02*
G75*
G02*
X310602109Y-126702544I-1525000J0D01*
G01*
X310602109Y-126702544D02*
G75*
G02*
X313652109Y-126702544I1525000J0D01*
G01*
X318652109Y-128802544D02*
G75*
G02*
X315602109Y-128802544I-1525000J0D01*
G01*
X315602109Y-128802544D02*
G75*
G02*
X318652109Y-128802544I1525000J0D01*
G01*
D12*
X318577109Y-132602544D02*
G75*
G02*
X316677109Y-132602544I-950000J0D01*
G01*
X316677109Y-132602544D02*
G75*
G02*
X318577109Y-132602544I950000J0D01*
G01*
X288527109Y-91502544D02*
G75*
G02*
X286627109Y-91502544I-950000J0D01*
G01*
X286627109Y-91502544D02*
G75*
G02*
X288527109Y-91502544I950000J0D01*
G01*
D13*
X294602109Y-85602544D02*
G75*
G02*
X291552109Y-85602544I-1525000J0D01*
G01*
X291552109Y-85602544D02*
G75*
G02*
X294602109Y-85602544I1525000J0D01*
G01*
X299602109Y-87702544D02*
G75*
G02*
X296552109Y-87702544I-1525000J0D01*
G01*
X296552109Y-87702544D02*
G75*
G02*
X299602109Y-87702544I1525000J0D01*
G01*
D12*
X299527109Y-91502544D02*
G75*
G02*
X297627109Y-91502544I-950000J0D01*
G01*
X297627109Y-91502544D02*
G75*
G02*
X299527109Y-91502544I950000J0D01*
G01*
D14*
X272127109Y-109332544D02*
X272127109Y-111932544D01*
X272327109Y-112132544D02*
X275727109Y-112132544D01*
X275727109Y-109132544D02*
X272327109Y-109132544D01*
X275927109Y-111932544D02*
X275927109Y-109332544D01*
X272127109Y-109332544D02*
G75*
G02*
X272327109Y-109132544I200000J0D01*
G01*
X272327109Y-112132544D02*
G75*
G02*
X272127109Y-111932544I0J200000D01*
G01*
X275727109Y-109132544D02*
G75*
G02*
X275927109Y-109332544I-1J-200001D01*
G01*
X275927109Y-111932544D02*
G75*
G02*
X275727109Y-112132544I-200001J1D01*
G01*
X253077109Y-126382544D02*
X253077109Y-128982544D01*
X253277109Y-129182544D02*
X256677109Y-129182544D01*
X256677109Y-126182544D02*
X253277109Y-126182544D01*
X256877109Y-128982544D02*
X256877109Y-126382544D01*
X253077109Y-126382544D02*
G75*
G02*
X253277109Y-126182544I200000J0D01*
G01*
X253277109Y-129182544D02*
G75*
G02*
X253077109Y-128982544I0J200000D01*
G01*
X256677109Y-126182544D02*
G75*
G02*
X256877109Y-126382544I-1J-200001D01*
G01*
X256877109Y-128982544D02*
G75*
G02*
X256677109Y-129182544I-200001J1D01*
G01*
X272127109Y-147432544D02*
X272127109Y-150032544D01*
X272327109Y-150232544D02*
X275727109Y-150232544D01*
X275727109Y-147232544D02*
X272327109Y-147232544D01*
X275927109Y-150032544D02*
X275927109Y-147432544D01*
X272127109Y-147432544D02*
G75*
G02*
X272327109Y-147232544I200000J0D01*
G01*
X272327109Y-150232544D02*
G75*
G02*
X272127109Y-150032544I0J200000D01*
G01*
X275727109Y-147232544D02*
G75*
G02*
X275927109Y-147432544I-1J-200001D01*
G01*
X275927109Y-150032544D02*
G75*
G02*
X275727109Y-150232544I-200001J1D01*
G01*
X272127109Y-90282544D02*
X272127109Y-92882544D01*
X272327109Y-93082544D02*
X275727109Y-93082544D01*
X275727109Y-90082544D02*
X272327109Y-90082544D01*
X275927109Y-92882544D02*
X275927109Y-90282544D01*
X272127109Y-90282544D02*
G75*
G02*
X272327109Y-90082544I200000J0D01*
G01*
X272327109Y-93082544D02*
G75*
G02*
X272127109Y-92882544I0J200000D01*
G01*
X275727109Y-90082544D02*
G75*
G02*
X275927109Y-90282544I-1J-200001D01*
G01*
X275927109Y-92882544D02*
G75*
G02*
X275727109Y-93082544I-200001J1D01*
G01*
X234027109Y-90282544D02*
X234027109Y-92882544D01*
X234227109Y-93082544D02*
X237627109Y-93082544D01*
X237627109Y-90082544D02*
X234227109Y-90082544D01*
X237827109Y-92882544D02*
X237827109Y-90282544D01*
X234027109Y-90282544D02*
G75*
G02*
X234227109Y-90082544I200000J0D01*
G01*
X234227109Y-93082544D02*
G75*
G02*
X234027109Y-92882544I0J200000D01*
G01*
X237627109Y-90082544D02*
G75*
G02*
X237827109Y-90282544I-1J-200001D01*
G01*
X237827109Y-92882544D02*
G75*
G02*
X237627109Y-93082544I-200001J1D01*
G01*
X195927109Y-140907544D02*
X195927109Y-143507544D01*
X196127109Y-143707544D02*
X199527109Y-143707544D01*
X199527109Y-140707544D02*
X196127109Y-140707544D01*
X199727109Y-143507544D02*
X199727109Y-140907544D01*
X195927109Y-140907544D02*
G75*
G02*
X196127109Y-140707544I200000J0D01*
G01*
X196127109Y-143707544D02*
G75*
G02*
X195927109Y-143507544I0J200000D01*
G01*
X199527109Y-140707544D02*
G75*
G02*
X199727109Y-140907544I-1J-200001D01*
G01*
X199727109Y-143507544D02*
G75*
G02*
X199527109Y-143707544I-200001J1D01*
G01*
D12*
X307577109Y-151652544D02*
G75*
G02*
X305677109Y-151652544I-950000J0D01*
G01*
X305677109Y-151652544D02*
G75*
G02*
X307577109Y-151652544I950000J0D01*
G01*
D13*
X313652109Y-145752544D02*
G75*
G02*
X310602109Y-145752544I-1525000J0D01*
G01*
X310602109Y-145752544D02*
G75*
G02*
X313652109Y-145752544I1525000J0D01*
G01*
X318652109Y-147852544D02*
G75*
G02*
X315602109Y-147852544I-1525000J0D01*
G01*
X315602109Y-147852544D02*
G75*
G02*
X318652109Y-147852544I1525000J0D01*
G01*
D12*
X318577109Y-151652544D02*
G75*
G02*
X316677109Y-151652544I-950000J0D01*
G01*
X316677109Y-151652544D02*
G75*
G02*
X318577109Y-151652544I950000J0D01*
G01*
X240902109Y-162702544D02*
G75*
G02*
X239002109Y-162702544I-950000J0D01*
G01*
X239002109Y-162702544D02*
G75*
G02*
X240902109Y-162702544I950000J0D01*
G01*
D13*
X246977109Y-156802544D02*
G75*
G02*
X243927109Y-156802544I-1525000J0D01*
G01*
X243927109Y-156802544D02*
G75*
G02*
X246977109Y-156802544I1525000J0D01*
G01*
X251977109Y-158902544D02*
G75*
G02*
X248927109Y-158902544I-1525000J0D01*
G01*
X248927109Y-158902544D02*
G75*
G02*
X251977109Y-158902544I1525000J0D01*
G01*
D12*
X251902109Y-162702544D02*
G75*
G02*
X250002109Y-162702544I-950000J0D01*
G01*
X250002109Y-162702544D02*
G75*
G02*
X251902109Y-162702544I950000J0D01*
G01*
X231377109Y-105552544D02*
G75*
G02*
X229477109Y-105552544I-950000J0D01*
G01*
X229477109Y-105552544D02*
G75*
G02*
X231377109Y-105552544I950000J0D01*
G01*
D13*
X237452109Y-99652544D02*
G75*
G02*
X234402109Y-99652544I-1525000J0D01*
G01*
X234402109Y-99652544D02*
G75*
G02*
X237452109Y-99652544I1525000J0D01*
G01*
X242452109Y-101752544D02*
G75*
G02*
X239402109Y-101752544I-1525000J0D01*
G01*
X239402109Y-101752544D02*
G75*
G02*
X242452109Y-101752544I1525000J0D01*
G01*
D12*
X242377109Y-105552544D02*
G75*
G02*
X240477109Y-105552544I-950000J0D01*
G01*
X240477109Y-105552544D02*
G75*
G02*
X242377109Y-105552544I950000J0D01*
G01*
X288527109Y-129602544D02*
G75*
G02*
X286627109Y-129602544I-950000J0D01*
G01*
X286627109Y-129602544D02*
G75*
G02*
X288527109Y-129602544I950000J0D01*
G01*
D13*
X294602109Y-123702544D02*
G75*
G02*
X291552109Y-123702544I-1525000J0D01*
G01*
X291552109Y-123702544D02*
G75*
G02*
X294602109Y-123702544I1525000J0D01*
G01*
X299602109Y-125802544D02*
G75*
G02*
X296552109Y-125802544I-1525000J0D01*
G01*
X296552109Y-125802544D02*
G75*
G02*
X299602109Y-125802544I1525000J0D01*
G01*
D12*
X299527109Y-129602544D02*
G75*
G02*
X297627109Y-129602544I-950000J0D01*
G01*
X297627109Y-129602544D02*
G75*
G02*
X299527109Y-129602544I950000J0D01*
G01*
X307577109Y-94502544D02*
G75*
G02*
X305677109Y-94502544I-950000J0D01*
G01*
X305677109Y-94502544D02*
G75*
G02*
X307577109Y-94502544I950000J0D01*
G01*
D13*
X313652109Y-88602544D02*
G75*
G02*
X310602109Y-88602544I-1525000J0D01*
G01*
X310602109Y-88602544D02*
G75*
G02*
X313652109Y-88602544I1525000J0D01*
G01*
X318652109Y-90702544D02*
G75*
G02*
X315602109Y-90702544I-1525000J0D01*
G01*
X315602109Y-90702544D02*
G75*
G02*
X318652109Y-90702544I1525000J0D01*
G01*
D12*
X318577109Y-94502544D02*
G75*
G02*
X316677109Y-94502544I-950000J0D01*
G01*
X316677109Y-94502544D02*
G75*
G02*
X318577109Y-94502544I950000J0D01*
G01*
X269477109Y-143652544D02*
G75*
G02*
X267577109Y-143652544I-950000J0D01*
G01*
X267577109Y-143652544D02*
G75*
G02*
X269477109Y-143652544I950000J0D01*
G01*
D13*
X275552109Y-137752544D02*
G75*
G02*
X272502109Y-137752544I-1525000J0D01*
G01*
X272502109Y-137752544D02*
G75*
G02*
X275552109Y-137752544I1525000J0D01*
G01*
X280552109Y-139852544D02*
G75*
G02*
X277502109Y-139852544I-1525000J0D01*
G01*
X277502109Y-139852544D02*
G75*
G02*
X280552109Y-139852544I1525000J0D01*
G01*
D12*
X280477109Y-143652544D02*
G75*
G02*
X278577109Y-143652544I-950000J0D01*
G01*
X278577109Y-143652544D02*
G75*
G02*
X280477109Y-143652544I950000J0D01*
G01*
X250427109Y-84502544D02*
G75*
G02*
X248527109Y-84502544I-950000J0D01*
G01*
X248527109Y-84502544D02*
G75*
G02*
X250427109Y-84502544I950000J0D01*
G01*
D13*
X256502109Y-78602544D02*
G75*
G02*
X253452109Y-78602544I-1525000J0D01*
G01*
X253452109Y-78602544D02*
G75*
G02*
X256502109Y-78602544I1525000J0D01*
G01*
X261502109Y-80702544D02*
G75*
G02*
X258452109Y-80702544I-1525000J0D01*
G01*
X258452109Y-80702544D02*
G75*
G02*
X261502109Y-80702544I1525000J0D01*
G01*
D12*
X261427109Y-84502544D02*
G75*
G02*
X259527109Y-84502544I-950000J0D01*
G01*
X259527109Y-84502544D02*
G75*
G02*
X261427109Y-84502544I950000J0D01*
G01*
X250427109Y-122602544D02*
G75*
G02*
X248527109Y-122602544I-950000J0D01*
G01*
X248527109Y-122602544D02*
G75*
G02*
X250427109Y-122602544I950000J0D01*
G01*
D13*
X256502109Y-116702544D02*
G75*
G02*
X253452109Y-116702544I-1525000J0D01*
G01*
X253452109Y-116702544D02*
G75*
G02*
X256502109Y-116702544I1525000J0D01*
G01*
X261502109Y-118802544D02*
G75*
G02*
X258452109Y-118802544I-1525000J0D01*
G01*
X258452109Y-118802544D02*
G75*
G02*
X261502109Y-118802544I1525000J0D01*
G01*
D12*
X261427109Y-122602544D02*
G75*
G02*
X259527109Y-122602544I-950000J0D01*
G01*
X259527109Y-122602544D02*
G75*
G02*
X261427109Y-122602544I950000J0D01*
G01*
X221852109Y-165702544D02*
G75*
G02*
X219952109Y-165702544I-950000J0D01*
G01*
X219952109Y-165702544D02*
G75*
G02*
X221852109Y-165702544I950000J0D01*
G01*
D13*
X227927109Y-159802544D02*
G75*
G02*
X224877109Y-159802544I-1525000J0D01*
G01*
X224877109Y-159802544D02*
G75*
G02*
X227927109Y-159802544I1525000J0D01*
G01*
X232927109Y-161902544D02*
G75*
G02*
X229877109Y-161902544I-1525000J0D01*
G01*
X229877109Y-161902544D02*
G75*
G02*
X232927109Y-161902544I1525000J0D01*
G01*
D12*
X232852109Y-165702544D02*
G75*
G02*
X230952109Y-165702544I-950000J0D01*
G01*
X230952109Y-165702544D02*
G75*
G02*
X232852109Y-165702544I950000J0D01*
G01*
X212327109Y-108552544D02*
G75*
G02*
X210427109Y-108552544I-950000J0D01*
G01*
X210427109Y-108552544D02*
G75*
G02*
X212327109Y-108552544I950000J0D01*
G01*
D13*
X218402109Y-102652544D02*
G75*
G02*
X215352109Y-102652544I-1525000J0D01*
G01*
X215352109Y-102652544D02*
G75*
G02*
X218402109Y-102652544I1525000J0D01*
G01*
X223402109Y-104752544D02*
G75*
G02*
X220352109Y-104752544I-1525000J0D01*
G01*
X220352109Y-104752544D02*
G75*
G02*
X223402109Y-104752544I1525000J0D01*
G01*
D12*
X223327109Y-108552544D02*
G75*
G02*
X221427109Y-108552544I-950000J0D01*
G01*
X221427109Y-108552544D02*
G75*
G02*
X223327109Y-108552544I950000J0D01*
G01*
X231377109Y-143652544D02*
G75*
G02*
X229477109Y-143652544I-950000J0D01*
G01*
X229477109Y-143652544D02*
G75*
G02*
X231377109Y-143652544I950000J0D01*
G01*
D13*
X237452109Y-137752544D02*
G75*
G02*
X234402109Y-137752544I-1525000J0D01*
G01*
X234402109Y-137752544D02*
G75*
G02*
X237452109Y-137752544I1525000J0D01*
G01*
X242452109Y-139852544D02*
G75*
G02*
X239402109Y-139852544I-1525000J0D01*
G01*
X239402109Y-139852544D02*
G75*
G02*
X242452109Y-139852544I1525000J0D01*
G01*
D12*
X242377109Y-143652544D02*
G75*
G02*
X240477109Y-143652544I-950000J0D01*
G01*
X240477109Y-143652544D02*
G75*
G02*
X242377109Y-143652544I950000J0D01*
G01*
X193277109Y-137127544D02*
G75*
G02*
X191377109Y-137127544I-950000J0D01*
G01*
X191377109Y-137127544D02*
G75*
G02*
X193277109Y-137127544I950000J0D01*
G01*
D13*
X199352109Y-131227544D02*
G75*
G02*
X196302109Y-131227544I-1525000J0D01*
G01*
X196302109Y-131227544D02*
G75*
G02*
X199352109Y-131227544I1525000J0D01*
G01*
X204352109Y-133327544D02*
G75*
G02*
X201302109Y-133327544I-1525000J0D01*
G01*
X201302109Y-133327544D02*
G75*
G02*
X204352109Y-133327544I1525000J0D01*
G01*
D12*
X204277109Y-137127544D02*
G75*
G02*
X202377109Y-137127544I-950000J0D01*
G01*
X202377109Y-137127544D02*
G75*
G02*
X204277109Y-137127544I950000J0D01*
G01*
X269477109Y-124602544D02*
G75*
G02*
X267577109Y-124602544I-950000J0D01*
G01*
X267577109Y-124602544D02*
G75*
G02*
X269477109Y-124602544I950000J0D01*
G01*
D13*
X275552109Y-118702544D02*
G75*
G02*
X272502109Y-118702544I-1525000J0D01*
G01*
X272502109Y-118702544D02*
G75*
G02*
X275552109Y-118702544I1525000J0D01*
G01*
X280552109Y-120802544D02*
G75*
G02*
X277502109Y-120802544I-1525000J0D01*
G01*
X277502109Y-120802544D02*
G75*
G02*
X280552109Y-120802544I1525000J0D01*
G01*
D12*
X280477109Y-124602544D02*
G75*
G02*
X278577109Y-124602544I-950000J0D01*
G01*
X278577109Y-124602544D02*
G75*
G02*
X280477109Y-124602544I950000J0D01*
G01*
X231377109Y-124602544D02*
G75*
G02*
X229477109Y-124602544I-950000J0D01*
G01*
X229477109Y-124602544D02*
G75*
G02*
X231377109Y-124602544I950000J0D01*
G01*
D13*
X237452109Y-118702544D02*
G75*
G02*
X234402109Y-118702544I-1525000J0D01*
G01*
X234402109Y-118702544D02*
G75*
G02*
X237452109Y-118702544I1525000J0D01*
G01*
X242452109Y-120802544D02*
G75*
G02*
X239402109Y-120802544I-1525000J0D01*
G01*
X239402109Y-120802544D02*
G75*
G02*
X242452109Y-120802544I1525000J0D01*
G01*
D12*
X242377109Y-124602544D02*
G75*
G02*
X240477109Y-124602544I-950000J0D01*
G01*
X240477109Y-124602544D02*
G75*
G02*
X242377109Y-124602544I950000J0D01*
G01*
X250427109Y-103552544D02*
G75*
G02*
X248527109Y-103552544I-950000J0D01*
G01*
X248527109Y-103552544D02*
G75*
G02*
X250427109Y-103552544I950000J0D01*
G01*
D13*
X256502109Y-97652544D02*
G75*
G02*
X253452109Y-97652544I-1525000J0D01*
G01*
X253452109Y-97652544D02*
G75*
G02*
X256502109Y-97652544I1525000J0D01*
G01*
X261502109Y-99752544D02*
G75*
G02*
X258452109Y-99752544I-1525000J0D01*
G01*
X258452109Y-99752544D02*
G75*
G02*
X261502109Y-99752544I1525000J0D01*
G01*
D12*
X261427109Y-103552544D02*
G75*
G02*
X259527109Y-103552544I-950000J0D01*
G01*
X259527109Y-103552544D02*
G75*
G02*
X261427109Y-103552544I950000J0D01*
G01*
D14*
X253077109Y-88282544D02*
X253077109Y-90882544D01*
X253277109Y-91082544D02*
X256677109Y-91082544D01*
X256677109Y-88082544D02*
X253277109Y-88082544D01*
X256877109Y-90882544D02*
X256877109Y-88282544D01*
X253077109Y-88282544D02*
G75*
G02*
X253277109Y-88082544I200000J0D01*
G01*
X253277109Y-91082544D02*
G75*
G02*
X253077109Y-90882544I0J200000D01*
G01*
X256677109Y-88082544D02*
G75*
G02*
X256877109Y-88282544I-1J-200001D01*
G01*
X256877109Y-90882544D02*
G75*
G02*
X256677109Y-91082544I-200001J1D01*
G01*
X224502109Y-169482544D02*
X224502109Y-172082544D01*
X224702109Y-172282544D02*
X228102109Y-172282544D01*
X228102109Y-169282544D02*
X224702109Y-169282544D01*
X228302109Y-172082544D02*
X228302109Y-169482544D01*
X224502109Y-169482544D02*
G75*
G02*
X224702109Y-169282544I200000J0D01*
G01*
X224702109Y-172282544D02*
G75*
G02*
X224502109Y-172082544I0J200000D01*
G01*
X228102109Y-169282544D02*
G75*
G02*
X228302109Y-169482544I-1J-200001D01*
G01*
X228302109Y-172082544D02*
G75*
G02*
X228102109Y-172282544I-200001J1D01*
G01*
X214977109Y-93282544D02*
X214977109Y-95882544D01*
X215177109Y-96082544D02*
X218577109Y-96082544D01*
X218577109Y-93082544D02*
X215177109Y-93082544D01*
X218777109Y-95882544D02*
X218777109Y-93282544D01*
X214977109Y-93282544D02*
G75*
G02*
X215177109Y-93082544I200000J0D01*
G01*
X215177109Y-96082544D02*
G75*
G02*
X214977109Y-95882544I0J200000D01*
G01*
X218577109Y-93082544D02*
G75*
G02*
X218777109Y-93282544I-1J-200001D01*
G01*
X218777109Y-95882544D02*
G75*
G02*
X218577109Y-96082544I-200001J1D01*
G01*
X310227109Y-155432544D02*
X310227109Y-158032544D01*
X310427109Y-158232544D02*
X313827109Y-158232544D01*
X313827109Y-155232544D02*
X310427109Y-155232544D01*
X314027109Y-158032544D02*
X314027109Y-155432544D01*
X310227109Y-155432544D02*
G75*
G02*
X310427109Y-155232544I200000J0D01*
G01*
X310427109Y-158232544D02*
G75*
G02*
X310227109Y-158032544I0J200000D01*
G01*
X313827109Y-155232544D02*
G75*
G02*
X314027109Y-155432544I-1J-200001D01*
G01*
X314027109Y-158032544D02*
G75*
G02*
X313827109Y-158232544I-200001J1D01*
G01*
X253077109Y-145432544D02*
X253077109Y-148032544D01*
X253277109Y-148232544D02*
X256677109Y-148232544D01*
X256677109Y-145232544D02*
X253277109Y-145232544D01*
X256877109Y-148032544D02*
X256877109Y-145432544D01*
X253077109Y-145432544D02*
G75*
G02*
X253277109Y-145232544I200000J0D01*
G01*
X253277109Y-148232544D02*
G75*
G02*
X253077109Y-148032544I0J200000D01*
G01*
X256677109Y-145232544D02*
G75*
G02*
X256877109Y-145432544I-1J-200001D01*
G01*
X256877109Y-148032544D02*
G75*
G02*
X256677109Y-148232544I-200001J1D01*
G01*
X234027109Y-109332544D02*
X234027109Y-111932544D01*
X234227109Y-112132544D02*
X237627109Y-112132544D01*
X237627109Y-109132544D02*
X234227109Y-109132544D01*
X237827109Y-111932544D02*
X237827109Y-109332544D01*
X234027109Y-109332544D02*
G75*
G02*
X234227109Y-109132544I200000J0D01*
G01*
X234227109Y-112132544D02*
G75*
G02*
X234027109Y-111932544I0J200000D01*
G01*
X237627109Y-109132544D02*
G75*
G02*
X237827109Y-109332544I-1J-200001D01*
G01*
X237827109Y-111932544D02*
G75*
G02*
X237627109Y-112132544I-200001J1D01*
G01*
X310227109Y-98282544D02*
X310227109Y-100882544D01*
X310427109Y-101082544D02*
X313827109Y-101082544D01*
X313827109Y-98082544D02*
X310427109Y-98082544D01*
X314027109Y-100882544D02*
X314027109Y-98282544D01*
X310227109Y-98282544D02*
G75*
G02*
X310427109Y-98082544I200000J0D01*
G01*
X310427109Y-101082544D02*
G75*
G02*
X310227109Y-100882544I0J200000D01*
G01*
X313827109Y-98082544D02*
G75*
G02*
X314027109Y-98282544I-1J-200001D01*
G01*
X314027109Y-100882544D02*
G75*
G02*
X313827109Y-101082544I-200001J1D01*
G01*
D13*
X206527109Y-117402544D02*
G75*
G02*
X204127109Y-117402544I-1200000J0D01*
G01*
X204127109Y-117402544D02*
G75*
G02*
X206527109Y-117402544I1200000J0D01*
G01*
D14*
X272127109Y-128382544D02*
X272127109Y-130982544D01*
X272327109Y-131182544D02*
X275727109Y-131182544D01*
X275727109Y-128182544D02*
X272327109Y-128182544D01*
X275927109Y-130982544D02*
X275927109Y-128382544D01*
X272127109Y-128382544D02*
G75*
G02*
X272327109Y-128182544I200000J0D01*
G01*
X272327109Y-131182544D02*
G75*
G02*
X272127109Y-130982544I0J200000D01*
G01*
X275727109Y-128182544D02*
G75*
G02*
X275927109Y-128382544I-1J-200001D01*
G01*
X275927109Y-130982544D02*
G75*
G02*
X275727109Y-131182544I-200001J1D01*
G01*
X253077109Y-107332544D02*
X253077109Y-109932544D01*
X253277109Y-110132544D02*
X256677109Y-110132544D01*
X256677109Y-107132544D02*
X253277109Y-107132544D01*
X256877109Y-109932544D02*
X256877109Y-107332544D01*
X253077109Y-107332544D02*
G75*
G02*
X253277109Y-107132544I200000J0D01*
G01*
X253277109Y-110132544D02*
G75*
G02*
X253077109Y-109932544I0J200000D01*
G01*
X256677109Y-107132544D02*
G75*
G02*
X256877109Y-107332544I-1J-200001D01*
G01*
X256877109Y-109932544D02*
G75*
G02*
X256677109Y-110132544I-200001J1D01*
G01*
X291177109Y-95282544D02*
X291177109Y-97882544D01*
X291377109Y-98082544D02*
X294777109Y-98082544D01*
X294777109Y-95082544D02*
X291377109Y-95082544D01*
X294977109Y-97882544D02*
X294977109Y-95282544D01*
X291177109Y-95282544D02*
G75*
G02*
X291377109Y-95082544I200000J0D01*
G01*
X291377109Y-98082544D02*
G75*
G02*
X291177109Y-97882544I0J200000D01*
G01*
X294777109Y-95082544D02*
G75*
G02*
X294977109Y-95282544I-1J-200001D01*
G01*
X294977109Y-97882544D02*
G75*
G02*
X294777109Y-98082544I-200001J1D01*
G01*
X214977109Y-131382544D02*
X214977109Y-133982544D01*
X215177109Y-134182544D02*
X218577109Y-134182544D01*
X218577109Y-131182544D02*
X215177109Y-131182544D01*
X218777109Y-133982544D02*
X218777109Y-131382544D01*
X214977109Y-131382544D02*
G75*
G02*
X215177109Y-131182544I200000J0D01*
G01*
X215177109Y-134182544D02*
G75*
G02*
X214977109Y-133982544I0J200000D01*
G01*
X218577109Y-131182544D02*
G75*
G02*
X218777109Y-131382544I-1J-200001D01*
G01*
X218777109Y-133982544D02*
G75*
G02*
X218577109Y-134182544I-200001J1D01*
G01*
X310227109Y-136382544D02*
X310227109Y-138982544D01*
X310427109Y-139182544D02*
X313827109Y-139182544D01*
X313827109Y-136182544D02*
X310427109Y-136182544D01*
X314027109Y-138982544D02*
X314027109Y-136382544D01*
X310227109Y-136382544D02*
G75*
G02*
X310427109Y-136182544I200000J0D01*
G01*
X310427109Y-139182544D02*
G75*
G02*
X310227109Y-138982544I0J200000D01*
G01*
X313827109Y-136182544D02*
G75*
G02*
X314027109Y-136382544I-1J-200001D01*
G01*
X314027109Y-138982544D02*
G75*
G02*
X313827109Y-139182544I-200001J1D01*
G01*
X291177109Y-133382544D02*
X291177109Y-135982544D01*
X291377109Y-136182544D02*
X294777109Y-136182544D01*
X294777109Y-133182544D02*
X291377109Y-133182544D01*
X294977109Y-135982544D02*
X294977109Y-133382544D01*
X291177109Y-133382544D02*
G75*
G02*
X291377109Y-133182544I200000J0D01*
G01*
X291377109Y-136182544D02*
G75*
G02*
X291177109Y-135982544I0J200000D01*
G01*
X294777109Y-133182544D02*
G75*
G02*
X294977109Y-133382544I-1J-200001D01*
G01*
X294977109Y-135982544D02*
G75*
G02*
X294777109Y-136182544I-200001J1D01*
G01*
X291177109Y-152432544D02*
X291177109Y-155032544D01*
X291377109Y-155232544D02*
X294777109Y-155232544D01*
X294777109Y-152232544D02*
X291377109Y-152232544D01*
X294977109Y-155032544D02*
X294977109Y-152432544D01*
X291177109Y-152432544D02*
G75*
G02*
X291377109Y-152232544I200000J0D01*
G01*
X291377109Y-155232544D02*
G75*
G02*
X291177109Y-155032544I0J200000D01*
G01*
X294777109Y-152232544D02*
G75*
G02*
X294977109Y-152432544I-1J-200001D01*
G01*
X294977109Y-155032544D02*
G75*
G02*
X294777109Y-155232544I-200001J1D01*
G01*
X194821841Y-167591141D02*
X196258743Y-170672588D01*
X196524529Y-170769326D02*
X198880929Y-169670518D01*
X197274979Y-166226548D02*
X194918579Y-167325356D01*
X198977667Y-169404733D02*
X197540765Y-166323286D01*
X194821841Y-167591141D02*
G75*
G02*
X194918579Y-167325356I181262J84523D01*
G01*
X196524529Y-170769326D02*
G75*
G02*
X196258744Y-170672587I-84523J181262D01*
G01*
X197274979Y-166226548D02*
G75*
G02*
X197540765Y-166323286I84524J-181262D01*
G01*
X198977667Y-169404733D02*
G75*
G02*
X198880929Y-169670518I-181263J-84523D01*
G01*
D12*
X288527109Y-110552544D02*
G75*
G02*
X286627109Y-110552544I-950000J0D01*
G01*
X286627109Y-110552544D02*
G75*
G02*
X288527109Y-110552544I950000J0D01*
G01*
D13*
X294602109Y-104652544D02*
G75*
G02*
X291552109Y-104652544I-1525000J0D01*
G01*
X291552109Y-104652544D02*
G75*
G02*
X294602109Y-104652544I1525000J0D01*
G01*
X299602109Y-106752544D02*
G75*
G02*
X296552109Y-106752544I-1525000J0D01*
G01*
X296552109Y-106752544D02*
G75*
G02*
X299602109Y-106752544I1525000J0D01*
G01*
D12*
X299527109Y-110552544D02*
G75*
G02*
X297627109Y-110552544I-950000J0D01*
G01*
X297627109Y-110552544D02*
G75*
G02*
X299527109Y-110552544I950000J0D01*
G01*
X269477109Y-105552544D02*
G75*
G02*
X267577109Y-105552544I-950000J0D01*
G01*
X267577109Y-105552544D02*
G75*
G02*
X269477109Y-105552544I950000J0D01*
G01*
D13*
X275552109Y-99652544D02*
G75*
G02*
X272502109Y-99652544I-1525000J0D01*
G01*
X272502109Y-99652544D02*
G75*
G02*
X275552109Y-99652544I1525000J0D01*
G01*
X280552109Y-101752544D02*
G75*
G02*
X277502109Y-101752544I-1525000J0D01*
G01*
X277502109Y-101752544D02*
G75*
G02*
X280552109Y-101752544I1525000J0D01*
G01*
D12*
X280477109Y-105552544D02*
G75*
G02*
X278577109Y-105552544I-950000J0D01*
G01*
X278577109Y-105552544D02*
G75*
G02*
X280477109Y-105552544I950000J0D01*
G01*
D14*
X214977109Y-150432544D02*
X214977109Y-153032544D01*
X215177109Y-153232544D02*
X218577109Y-153232544D01*
X218577109Y-150232544D02*
X215177109Y-150232544D01*
X218777109Y-153032544D02*
X218777109Y-150432544D01*
X214977109Y-150432544D02*
G75*
G02*
X215177109Y-150232544I200000J0D01*
G01*
X215177109Y-153232544D02*
G75*
G02*
X214977109Y-153032544I0J200000D01*
G01*
X218577109Y-150232544D02*
G75*
G02*
X218777109Y-150432544I-1J-200001D01*
G01*
X218777109Y-153032544D02*
G75*
G02*
X218577109Y-153232544I-200001J1D01*
G01*
X214977109Y-112332544D02*
X214977109Y-114932544D01*
X215177109Y-115132544D02*
X218577109Y-115132544D01*
X218577109Y-112132544D02*
X215177109Y-112132544D01*
X218777109Y-114932544D02*
X218777109Y-112332544D01*
X214977109Y-112332544D02*
G75*
G02*
X215177109Y-112132544I200000J0D01*
G01*
X215177109Y-115132544D02*
G75*
G02*
X214977109Y-114932544I0J200000D01*
G01*
X218577109Y-112132544D02*
G75*
G02*
X218777109Y-112332544I-1J-200001D01*
G01*
X218777109Y-114932544D02*
G75*
G02*
X218577109Y-115132544I-200001J1D01*
G01*
X234027109Y-128382544D02*
X234027109Y-130982544D01*
X234227109Y-131182544D02*
X237627109Y-131182544D01*
X237627109Y-128182544D02*
X234227109Y-128182544D01*
X237827109Y-130982544D02*
X237827109Y-128382544D01*
X234027109Y-128382544D02*
G75*
G02*
X234227109Y-128182544I200000J0D01*
G01*
X234227109Y-131182544D02*
G75*
G02*
X234027109Y-130982544I0J200000D01*
G01*
X237627109Y-128182544D02*
G75*
G02*
X237827109Y-128382544I-1J-200001D01*
G01*
X237827109Y-130982544D02*
G75*
G02*
X237627109Y-131182544I-200001J1D01*
G01*
X262602109Y-166482544D02*
X262602109Y-169082544D01*
X262802109Y-169282544D02*
X266202109Y-169282544D01*
X266202109Y-166282544D02*
X262802109Y-166282544D01*
X266402109Y-169082544D02*
X266402109Y-166482544D01*
X262602109Y-166482544D02*
G75*
G02*
X262802109Y-166282544I200000J0D01*
G01*
X262802109Y-169282544D02*
G75*
G02*
X262602109Y-169082544I0J200000D01*
G01*
X266202109Y-166282544D02*
G75*
G02*
X266402109Y-166482544I-1J-200001D01*
G01*
X266402109Y-169082544D02*
G75*
G02*
X266202109Y-169282544I-200001J1D01*
G01*
X310227109Y-117332544D02*
X310227109Y-119932544D01*
X310427109Y-120132544D02*
X313827109Y-120132544D01*
X313827109Y-117132544D02*
X310427109Y-117132544D01*
X314027109Y-119932544D02*
X314027109Y-117332544D01*
X310227109Y-117332544D02*
G75*
G02*
X310427109Y-117132544I200000J0D01*
G01*
X310427109Y-120132544D02*
G75*
G02*
X310227109Y-119932544I0J200000D01*
G01*
X313827109Y-117132544D02*
G75*
G02*
X314027109Y-117332544I-1J-200001D01*
G01*
X314027109Y-119932544D02*
G75*
G02*
X313827109Y-120132544I-200001J1D01*
G01*
X243552109Y-166482544D02*
X243552109Y-169082544D01*
X243752109Y-169282544D02*
X247152109Y-169282544D01*
X247152109Y-166282544D02*
X243752109Y-166282544D01*
X247352109Y-169082544D02*
X247352109Y-166482544D01*
X243552109Y-166482544D02*
G75*
G02*
X243752109Y-166282544I200000J0D01*
G01*
X243752109Y-169282544D02*
G75*
G02*
X243552109Y-169082544I0J200000D01*
G01*
X247152109Y-166282544D02*
G75*
G02*
X247352109Y-166482544I-1J-200001D01*
G01*
X247352109Y-169082544D02*
G75*
G02*
X247152109Y-169282544I-200001J1D01*
G01*
X291177109Y-114332544D02*
X291177109Y-116932544D01*
X291377109Y-117132544D02*
X294777109Y-117132544D01*
X294777109Y-114132544D02*
X291377109Y-114132544D01*
X294977109Y-116932544D02*
X294977109Y-114332544D01*
X291177109Y-114332544D02*
G75*
G02*
X291377109Y-114132544I200000J0D01*
G01*
X291377109Y-117132544D02*
G75*
G02*
X291177109Y-116932544I0J200000D01*
G01*
X294777109Y-114132544D02*
G75*
G02*
X294977109Y-114332544I-1J-200001D01*
G01*
X294977109Y-116932544D02*
G75*
G02*
X294777109Y-117132544I-200001J1D01*
G01*
X234027109Y-147432544D02*
X234027109Y-150032544D01*
X234227109Y-150232544D02*
X237627109Y-150232544D01*
X237627109Y-147232544D02*
X234227109Y-147232544D01*
X237827109Y-150032544D02*
X237827109Y-147432544D01*
X234027109Y-147432544D02*
G75*
G02*
X234227109Y-147232544I200000J0D01*
G01*
X234227109Y-150232544D02*
G75*
G02*
X234027109Y-150032544I0J200000D01*
G01*
X237627109Y-147232544D02*
G75*
G02*
X237827109Y-147432544I-1J-200001D01*
G01*
X237827109Y-150032544D02*
G75*
G02*
X237627109Y-150232544I-200001J1D01*
G01*
D13*
X67622196Y-171423134D02*
G75*
G02*
X63022196Y-171423134I-2300000J0D01*
G01*
X63022196Y-171423134D02*
G75*
G02*
X67622196Y-171423134I2300000J0D01*
G01*
X67622196Y-192636334D02*
G75*
G02*
X63022196Y-192636334I-2300000J0D01*
G01*
X63022196Y-192636334D02*
G75*
G02*
X67622196Y-192636334I2300000J0D01*
G01*
X73546816Y-178847754D02*
G75*
G02*
X71946816Y-178847754I-800000J0D01*
G01*
X71946816Y-178847754D02*
G75*
G02*
X73546816Y-178847754I800000J0D01*
G01*
X79910776Y-185211714D02*
G75*
G02*
X78310776Y-185211714I-800000J0D01*
G01*
X78310776Y-185211714D02*
G75*
G02*
X79910776Y-185211714I800000J0D01*
G01*
X88835396Y-171423134D02*
G75*
G02*
X84235396Y-171423134I-2300000J0D01*
G01*
X84235396Y-171423134D02*
G75*
G02*
X88835396Y-171423134I2300000J0D01*
G01*
X88835396Y-192636334D02*
G75*
G02*
X84235396Y-192636334I-2300000J0D01*
G01*
X84235396Y-192636334D02*
G75*
G02*
X88835396Y-192636334I2300000J0D01*
G01*
D12*
X70451607Y-149102544D02*
G75*
G02*
X68551607Y-149102544I-950000J0D01*
G01*
X68551607Y-149102544D02*
G75*
G02*
X70451607Y-149102544I950000J0D01*
G01*
D13*
X76526607Y-143202544D02*
G75*
G02*
X73476607Y-143202544I-1525000J0D01*
G01*
X73476607Y-143202544D02*
G75*
G02*
X76526607Y-143202544I1525000J0D01*
G01*
X81526607Y-145302544D02*
G75*
G02*
X78476607Y-145302544I-1525000J0D01*
G01*
X78476607Y-145302544D02*
G75*
G02*
X81526607Y-145302544I1525000J0D01*
G01*
D12*
X81451607Y-149102544D02*
G75*
G02*
X79551607Y-149102544I-950000J0D01*
G01*
X79551607Y-149102544D02*
G75*
G02*
X81451607Y-149102544I950000J0D01*
G01*
X99026607Y-163152544D02*
G75*
G02*
X97126607Y-163152544I-950000J0D01*
G01*
X97126607Y-163152544D02*
G75*
G02*
X99026607Y-163152544I950000J0D01*
G01*
D13*
X105101607Y-157252544D02*
G75*
G02*
X102051607Y-157252544I-1525000J0D01*
G01*
X102051607Y-157252544D02*
G75*
G02*
X105101607Y-157252544I1525000J0D01*
G01*
X110101607Y-159352544D02*
G75*
G02*
X107051607Y-159352544I-1525000J0D01*
G01*
X107051607Y-159352544D02*
G75*
G02*
X110101607Y-159352544I1525000J0D01*
G01*
D12*
X110026607Y-163152544D02*
G75*
G02*
X108126607Y-163152544I-950000J0D01*
G01*
X108126607Y-163152544D02*
G75*
G02*
X110026607Y-163152544I950000J0D01*
G01*
X146651607Y-147102544D02*
G75*
G02*
X144751607Y-147102544I-950000J0D01*
G01*
X144751607Y-147102544D02*
G75*
G02*
X146651607Y-147102544I950000J0D01*
G01*
D13*
X152726607Y-141202544D02*
G75*
G02*
X149676607Y-141202544I-1525000J0D01*
G01*
X149676607Y-141202544D02*
G75*
G02*
X152726607Y-141202544I1525000J0D01*
G01*
X157726607Y-143302544D02*
G75*
G02*
X154676607Y-143302544I-1525000J0D01*
G01*
X154676607Y-143302544D02*
G75*
G02*
X157726607Y-143302544I1525000J0D01*
G01*
D12*
X157651607Y-147102544D02*
G75*
G02*
X155751607Y-147102544I-950000J0D01*
G01*
X155751607Y-147102544D02*
G75*
G02*
X157651607Y-147102544I950000J0D01*
G01*
X89501607Y-106002544D02*
G75*
G02*
X87601607Y-106002544I-950000J0D01*
G01*
X87601607Y-106002544D02*
G75*
G02*
X89501607Y-106002544I950000J0D01*
G01*
D13*
X95576607Y-100102544D02*
G75*
G02*
X92526607Y-100102544I-1525000J0D01*
G01*
X92526607Y-100102544D02*
G75*
G02*
X95576607Y-100102544I1525000J0D01*
G01*
X100576607Y-102202544D02*
G75*
G02*
X97526607Y-102202544I-1525000J0D01*
G01*
X97526607Y-102202544D02*
G75*
G02*
X100576607Y-102202544I1525000J0D01*
G01*
D12*
X100501607Y-106002544D02*
G75*
G02*
X98601607Y-106002544I-950000J0D01*
G01*
X98601607Y-106002544D02*
G75*
G02*
X100501607Y-106002544I950000J0D01*
G01*
X108551607Y-142102544D02*
G75*
G02*
X106651607Y-142102544I-950000J0D01*
G01*
X106651607Y-142102544D02*
G75*
G02*
X108551607Y-142102544I950000J0D01*
G01*
D13*
X114626607Y-136202544D02*
G75*
G02*
X111576607Y-136202544I-1525000J0D01*
G01*
X111576607Y-136202544D02*
G75*
G02*
X114626607Y-136202544I1525000J0D01*
G01*
X119626607Y-138302544D02*
G75*
G02*
X116576607Y-138302544I-1525000J0D01*
G01*
X116576607Y-138302544D02*
G75*
G02*
X119626607Y-138302544I1525000J0D01*
G01*
D12*
X119551607Y-142102544D02*
G75*
G02*
X117651607Y-142102544I-950000J0D01*
G01*
X117651607Y-142102544D02*
G75*
G02*
X119551607Y-142102544I950000J0D01*
G01*
X51401607Y-94952544D02*
G75*
G02*
X49501607Y-94952544I-950000J0D01*
G01*
X49501607Y-94952544D02*
G75*
G02*
X51401607Y-94952544I950000J0D01*
G01*
D13*
X57476607Y-89052544D02*
G75*
G02*
X54426607Y-89052544I-1525000J0D01*
G01*
X54426607Y-89052544D02*
G75*
G02*
X57476607Y-89052544I1525000J0D01*
G01*
X62476607Y-91152544D02*
G75*
G02*
X59426607Y-91152544I-1525000J0D01*
G01*
X59426607Y-91152544D02*
G75*
G02*
X62476607Y-91152544I1525000J0D01*
G01*
D12*
X62401607Y-94952544D02*
G75*
G02*
X60501607Y-94952544I-950000J0D01*
G01*
X60501607Y-94952544D02*
G75*
G02*
X62401607Y-94952544I950000J0D01*
G01*
X89501607Y-86952544D02*
G75*
G02*
X87601607Y-86952544I-950000J0D01*
G01*
X87601607Y-86952544D02*
G75*
G02*
X89501607Y-86952544I950000J0D01*
G01*
D13*
X95576607Y-81052544D02*
G75*
G02*
X92526607Y-81052544I-1525000J0D01*
G01*
X92526607Y-81052544D02*
G75*
G02*
X95576607Y-81052544I1525000J0D01*
G01*
X100576607Y-83152544D02*
G75*
G02*
X97526607Y-83152544I-1525000J0D01*
G01*
X97526607Y-83152544D02*
G75*
G02*
X100576607Y-83152544I1525000J0D01*
G01*
D12*
X100501607Y-86952544D02*
G75*
G02*
X98601607Y-86952544I-950000J0D01*
G01*
X98601607Y-86952544D02*
G75*
G02*
X100501607Y-86952544I950000J0D01*
G01*
X118076607Y-163152544D02*
G75*
G02*
X116176607Y-163152544I-950000J0D01*
G01*
X116176607Y-163152544D02*
G75*
G02*
X118076607Y-163152544I950000J0D01*
G01*
D13*
X124151607Y-157252544D02*
G75*
G02*
X121101607Y-157252544I-1525000J0D01*
G01*
X121101607Y-157252544D02*
G75*
G02*
X124151607Y-157252544I1525000J0D01*
G01*
X129151607Y-159352544D02*
G75*
G02*
X126101607Y-159352544I-1525000J0D01*
G01*
X126101607Y-159352544D02*
G75*
G02*
X129151607Y-159352544I1525000J0D01*
G01*
D12*
X129076607Y-163152544D02*
G75*
G02*
X127176607Y-163152544I-950000J0D01*
G01*
X127176607Y-163152544D02*
G75*
G02*
X129076607Y-163152544I950000J0D01*
G01*
X51401607Y-152102544D02*
G75*
G02*
X49501607Y-152102544I-950000J0D01*
G01*
X49501607Y-152102544D02*
G75*
G02*
X51401607Y-152102544I950000J0D01*
G01*
D13*
X57476607Y-146202544D02*
G75*
G02*
X54426607Y-146202544I-1525000J0D01*
G01*
X54426607Y-146202544D02*
G75*
G02*
X57476607Y-146202544I1525000J0D01*
G01*
X62476607Y-148302544D02*
G75*
G02*
X59426607Y-148302544I-1525000J0D01*
G01*
X59426607Y-148302544D02*
G75*
G02*
X62476607Y-148302544I1525000J0D01*
G01*
D12*
X62401607Y-152102544D02*
G75*
G02*
X60501607Y-152102544I-950000J0D01*
G01*
X60501607Y-152102544D02*
G75*
G02*
X62401607Y-152102544I950000J0D01*
G01*
X127601607Y-144102544D02*
G75*
G02*
X125701607Y-144102544I-950000J0D01*
G01*
X125701607Y-144102544D02*
G75*
G02*
X127601607Y-144102544I950000J0D01*
G01*
D13*
X133676607Y-138202544D02*
G75*
G02*
X130626607Y-138202544I-1525000J0D01*
G01*
X130626607Y-138202544D02*
G75*
G02*
X133676607Y-138202544I1525000J0D01*
G01*
X138676607Y-140302544D02*
G75*
G02*
X135626607Y-140302544I-1525000J0D01*
G01*
X135626607Y-140302544D02*
G75*
G02*
X138676607Y-140302544I1525000J0D01*
G01*
D12*
X138601607Y-144102544D02*
G75*
G02*
X136701607Y-144102544I-950000J0D01*
G01*
X136701607Y-144102544D02*
G75*
G02*
X138601607Y-144102544I950000J0D01*
G01*
X127601607Y-86952544D02*
G75*
G02*
X125701607Y-86952544I-950000J0D01*
G01*
X125701607Y-86952544D02*
G75*
G02*
X127601607Y-86952544I950000J0D01*
G01*
D13*
X133676607Y-81052544D02*
G75*
G02*
X130626607Y-81052544I-1525000J0D01*
G01*
X130626607Y-81052544D02*
G75*
G02*
X133676607Y-81052544I1525000J0D01*
G01*
X138676607Y-83152544D02*
G75*
G02*
X135626607Y-83152544I-1525000J0D01*
G01*
X135626607Y-83152544D02*
G75*
G02*
X138676607Y-83152544I1525000J0D01*
G01*
D12*
X138601607Y-86952544D02*
G75*
G02*
X136701607Y-86952544I-950000J0D01*
G01*
X136701607Y-86952544D02*
G75*
G02*
X138601607Y-86952544I950000J0D01*
G01*
X127601607Y-106002544D02*
G75*
G02*
X125701607Y-106002544I-950000J0D01*
G01*
X125701607Y-106002544D02*
G75*
G02*
X127601607Y-106002544I950000J0D01*
G01*
D13*
X133676607Y-100102544D02*
G75*
G02*
X130626607Y-100102544I-1525000J0D01*
G01*
X130626607Y-100102544D02*
G75*
G02*
X133676607Y-100102544I1525000J0D01*
G01*
X138676607Y-102202544D02*
G75*
G02*
X135626607Y-102202544I-1525000J0D01*
G01*
X135626607Y-102202544D02*
G75*
G02*
X138676607Y-102202544I1525000J0D01*
G01*
D12*
X138601607Y-106002544D02*
G75*
G02*
X136701607Y-106002544I-950000J0D01*
G01*
X136701607Y-106002544D02*
G75*
G02*
X138601607Y-106002544I950000J0D01*
G01*
X70451607Y-130052544D02*
G75*
G02*
X68551607Y-130052544I-950000J0D01*
G01*
X68551607Y-130052544D02*
G75*
G02*
X70451607Y-130052544I950000J0D01*
G01*
D13*
X76526607Y-124152544D02*
G75*
G02*
X73476607Y-124152544I-1525000J0D01*
G01*
X73476607Y-124152544D02*
G75*
G02*
X76526607Y-124152544I1525000J0D01*
G01*
X81526607Y-126252544D02*
G75*
G02*
X78476607Y-126252544I-1525000J0D01*
G01*
X78476607Y-126252544D02*
G75*
G02*
X81526607Y-126252544I1525000J0D01*
G01*
D12*
X81451607Y-130052544D02*
G75*
G02*
X79551607Y-130052544I-950000J0D01*
G01*
X79551607Y-130052544D02*
G75*
G02*
X81451607Y-130052544I950000J0D01*
G01*
D13*
X162752702Y-164307589D02*
G75*
G02*
X159702702Y-164307589I-1525000J0D01*
G01*
X159702702Y-164307589D02*
G75*
G02*
X162752702Y-164307589I1525000J0D01*
G01*
D12*
X165200518Y-171785730D02*
G75*
G02*
X163300518Y-171785730I-950000J0D01*
G01*
X163300518Y-171785730D02*
G75*
G02*
X165200518Y-171785730I950000J0D01*
G01*
D13*
X166769041Y-160663549D02*
G75*
G02*
X163719039Y-160663549I-1525001J0D01*
G01*
X163719039Y-160663549D02*
G75*
G02*
X166769041Y-160663549I1525001J0D01*
G01*
D12*
X169849318Y-161816344D02*
G75*
G02*
X167949318Y-161816344I-950000J0D01*
G01*
X167949318Y-161816344D02*
G75*
G02*
X169849318Y-161816344I950000J0D01*
G01*
X146651607Y-89952544D02*
G75*
G02*
X144751607Y-89952544I-950000J0D01*
G01*
X144751607Y-89952544D02*
G75*
G02*
X146651607Y-89952544I950000J0D01*
G01*
D13*
X152726607Y-84052544D02*
G75*
G02*
X149676607Y-84052544I-1525000J0D01*
G01*
X149676607Y-84052544D02*
G75*
G02*
X152726607Y-84052544I1525000J0D01*
G01*
X157726607Y-86152544D02*
G75*
G02*
X154676607Y-86152544I-1525000J0D01*
G01*
X154676607Y-86152544D02*
G75*
G02*
X157726607Y-86152544I1525000J0D01*
G01*
D12*
X157651607Y-89952544D02*
G75*
G02*
X155751607Y-89952544I-950000J0D01*
G01*
X155751607Y-89952544D02*
G75*
G02*
X157651607Y-89952544I950000J0D01*
G01*
X89501607Y-125052544D02*
G75*
G02*
X87601607Y-125052544I-950000J0D01*
G01*
X87601607Y-125052544D02*
G75*
G02*
X89501607Y-125052544I950000J0D01*
G01*
D13*
X95576607Y-119152544D02*
G75*
G02*
X92526607Y-119152544I-1525000J0D01*
G01*
X92526607Y-119152544D02*
G75*
G02*
X95576607Y-119152544I1525000J0D01*
G01*
X100576607Y-121252544D02*
G75*
G02*
X97526607Y-121252544I-1525000J0D01*
G01*
X97526607Y-121252544D02*
G75*
G02*
X100576607Y-121252544I1525000J0D01*
G01*
D12*
X100501607Y-125052544D02*
G75*
G02*
X98601607Y-125052544I-950000J0D01*
G01*
X98601607Y-125052544D02*
G75*
G02*
X100501607Y-125052544I950000J0D01*
G01*
X165701607Y-137577544D02*
G75*
G02*
X163801607Y-137577544I-950000J0D01*
G01*
X163801607Y-137577544D02*
G75*
G02*
X165701607Y-137577544I950000J0D01*
G01*
D13*
X171776607Y-131677544D02*
G75*
G02*
X168726607Y-131677544I-1525000J0D01*
G01*
X168726607Y-131677544D02*
G75*
G02*
X171776607Y-131677544I1525000J0D01*
G01*
X176776607Y-133777544D02*
G75*
G02*
X173726607Y-133777544I-1525000J0D01*
G01*
X173726607Y-133777544D02*
G75*
G02*
X176776607Y-133777544I1525000J0D01*
G01*
D12*
X176701607Y-137577544D02*
G75*
G02*
X174801607Y-137577544I-950000J0D01*
G01*
X174801607Y-137577544D02*
G75*
G02*
X176701607Y-137577544I950000J0D01*
G01*
X146651607Y-109002544D02*
G75*
G02*
X144751607Y-109002544I-950000J0D01*
G01*
X144751607Y-109002544D02*
G75*
G02*
X146651607Y-109002544I950000J0D01*
G01*
D13*
X152726607Y-103102544D02*
G75*
G02*
X149676607Y-103102544I-1525000J0D01*
G01*
X149676607Y-103102544D02*
G75*
G02*
X152726607Y-103102544I1525000J0D01*
G01*
X157726607Y-105202544D02*
G75*
G02*
X154676607Y-105202544I-1525000J0D01*
G01*
X154676607Y-105202544D02*
G75*
G02*
X157726607Y-105202544I1525000J0D01*
G01*
D12*
X157651607Y-109002544D02*
G75*
G02*
X155751607Y-109002544I-950000J0D01*
G01*
X155751607Y-109002544D02*
G75*
G02*
X157651607Y-109002544I950000J0D01*
G01*
D13*
X167226607Y-137796194D02*
X173226607Y-137796194D01*
X173226607Y-139796194D01*
X167226607Y-139796194D01*
X167226607Y-137796194D01*
D11*
X163951607Y-124521684D02*
G75*
G02*
X161751607Y-124521684I-1100000J0D01*
G01*
X161751607Y-124521684D02*
G75*
G02*
X163951607Y-124521684I1100000J0D01*
G01*
X163951607Y-148270704D02*
G75*
G02*
X161751607Y-148270704I-1100000J0D01*
G01*
X161751607Y-148270704D02*
G75*
G02*
X163951607Y-148270704I1100000J0D01*
G01*
D12*
X51401607Y-133052544D02*
G75*
G02*
X49501607Y-133052544I-950000J0D01*
G01*
X49501607Y-133052544D02*
G75*
G02*
X51401607Y-133052544I950000J0D01*
G01*
D13*
X57476607Y-127152544D02*
G75*
G02*
X54426607Y-127152544I-1525000J0D01*
G01*
X54426607Y-127152544D02*
G75*
G02*
X57476607Y-127152544I1525000J0D01*
G01*
X62476607Y-129252544D02*
G75*
G02*
X59426607Y-129252544I-1525000J0D01*
G01*
X59426607Y-129252544D02*
G75*
G02*
X62476607Y-129252544I1525000J0D01*
G01*
D12*
X62401607Y-133052544D02*
G75*
G02*
X60501607Y-133052544I-950000J0D01*
G01*
X60501607Y-133052544D02*
G75*
G02*
X62401607Y-133052544I950000J0D01*
G01*
X146651607Y-128052544D02*
G75*
G02*
X144751607Y-128052544I-950000J0D01*
G01*
X144751607Y-128052544D02*
G75*
G02*
X146651607Y-128052544I950000J0D01*
G01*
D13*
X152726607Y-122152544D02*
G75*
G02*
X149676607Y-122152544I-1525000J0D01*
G01*
X149676607Y-122152544D02*
G75*
G02*
X152726607Y-122152544I1525000J0D01*
G01*
X157726607Y-124252544D02*
G75*
G02*
X154676607Y-124252544I-1525000J0D01*
G01*
X154676607Y-124252544D02*
G75*
G02*
X157726607Y-124252544I1525000J0D01*
G01*
D12*
X157651607Y-128052544D02*
G75*
G02*
X155751607Y-128052544I-950000J0D01*
G01*
X155751607Y-128052544D02*
G75*
G02*
X157651607Y-128052544I950000J0D01*
G01*
X108551607Y-84952544D02*
G75*
G02*
X106651607Y-84952544I-950000J0D01*
G01*
X106651607Y-84952544D02*
G75*
G02*
X108551607Y-84952544I950000J0D01*
G01*
D13*
X114626607Y-79052544D02*
G75*
G02*
X111576607Y-79052544I-1525000J0D01*
G01*
X111576607Y-79052544D02*
G75*
G02*
X114626607Y-79052544I1525000J0D01*
G01*
X119626607Y-81152544D02*
G75*
G02*
X116576607Y-81152544I-1525000J0D01*
G01*
X116576607Y-81152544D02*
G75*
G02*
X119626607Y-81152544I1525000J0D01*
G01*
D12*
X119551607Y-84952544D02*
G75*
G02*
X117651607Y-84952544I-950000J0D01*
G01*
X117651607Y-84952544D02*
G75*
G02*
X119551607Y-84952544I950000J0D01*
G01*
D13*
X163951607Y-117852544D02*
G75*
G02*
X161551607Y-117852544I-1200000J0D01*
G01*
X161551607Y-117852544D02*
G75*
G02*
X163951607Y-117852544I1200000J0D01*
G01*
D12*
X51401607Y-114002544D02*
G75*
G02*
X49501607Y-114002544I-950000J0D01*
G01*
X49501607Y-114002544D02*
G75*
G02*
X51401607Y-114002544I950000J0D01*
G01*
D13*
X57476607Y-108102544D02*
G75*
G02*
X54426607Y-108102544I-1525000J0D01*
G01*
X54426607Y-108102544D02*
G75*
G02*
X57476607Y-108102544I1525000J0D01*
G01*
X62476607Y-110202544D02*
G75*
G02*
X59426607Y-110202544I-1525000J0D01*
G01*
X59426607Y-110202544D02*
G75*
G02*
X62476607Y-110202544I1525000J0D01*
G01*
D12*
X62401607Y-114002544D02*
G75*
G02*
X60501607Y-114002544I-950000J0D01*
G01*
X60501607Y-114002544D02*
G75*
G02*
X62401607Y-114002544I950000J0D01*
G01*
D13*
X195827109Y-137327544D02*
X199827109Y-137327544D01*
X199827109Y-139327544D01*
X195827109Y-139327544D01*
X195827109Y-137327544D01*
X192667109Y-143227544D02*
G75*
G02*
X190467109Y-143227544I-1100000J0D01*
G01*
X190467109Y-143227544D02*
G75*
G02*
X192667109Y-143227544I1100000J0D01*
G01*
X203127109Y-121227544D02*
G75*
G02*
X200927109Y-121227544I-1100000J0D01*
G01*
X200927109Y-121227544D02*
G75*
G02*
X203127109Y-121227544I1100000J0D01*
G01*
D12*
X108551607Y-123052544D02*
G75*
G02*
X106651607Y-123052544I-950000J0D01*
G01*
X106651607Y-123052544D02*
G75*
G02*
X108551607Y-123052544I950000J0D01*
G01*
D13*
X114626607Y-117152544D02*
G75*
G02*
X111576607Y-117152544I-1525000J0D01*
G01*
X111576607Y-117152544D02*
G75*
G02*
X114626607Y-117152544I1525000J0D01*
G01*
X119626607Y-119252544D02*
G75*
G02*
X116576607Y-119252544I-1525000J0D01*
G01*
X116576607Y-119252544D02*
G75*
G02*
X119626607Y-119252544I1525000J0D01*
G01*
D12*
X119551607Y-123052544D02*
G75*
G02*
X117651607Y-123052544I-950000J0D01*
G01*
X117651607Y-123052544D02*
G75*
G02*
X119551607Y-123052544I950000J0D01*
G01*
X89501607Y-144102544D02*
G75*
G02*
X87601607Y-144102544I-950000J0D01*
G01*
X87601607Y-144102544D02*
G75*
G02*
X89501607Y-144102544I950000J0D01*
G01*
D13*
X95576607Y-138202544D02*
G75*
G02*
X92526607Y-138202544I-1525000J0D01*
G01*
X92526607Y-138202544D02*
G75*
G02*
X95576607Y-138202544I1525000J0D01*
G01*
X100576607Y-140302544D02*
G75*
G02*
X97526607Y-140302544I-1525000J0D01*
G01*
X97526607Y-140302544D02*
G75*
G02*
X100576607Y-140302544I1525000J0D01*
G01*
D12*
X100501607Y-144102544D02*
G75*
G02*
X98601607Y-144102544I-950000J0D01*
G01*
X98601607Y-144102544D02*
G75*
G02*
X100501607Y-144102544I950000J0D01*
G01*
X70451607Y-111002544D02*
G75*
G02*
X68551607Y-111002544I-950000J0D01*
G01*
X68551607Y-111002544D02*
G75*
G02*
X70451607Y-111002544I950000J0D01*
G01*
D13*
X76526607Y-105102544D02*
G75*
G02*
X73476607Y-105102544I-1525000J0D01*
G01*
X73476607Y-105102544D02*
G75*
G02*
X76526607Y-105102544I1525000J0D01*
G01*
X81526607Y-107202544D02*
G75*
G02*
X78476607Y-107202544I-1525000J0D01*
G01*
X78476607Y-107202544D02*
G75*
G02*
X81526607Y-107202544I1525000J0D01*
G01*
D12*
X81451607Y-111002544D02*
G75*
G02*
X79551607Y-111002544I-950000J0D01*
G01*
X79551607Y-111002544D02*
G75*
G02*
X81451607Y-111002544I950000J0D01*
G01*
X70451607Y-91952544D02*
G75*
G02*
X68551607Y-91952544I-950000J0D01*
G01*
X68551607Y-91952544D02*
G75*
G02*
X70451607Y-91952544I950000J0D01*
G01*
D13*
X76526607Y-86052544D02*
G75*
G02*
X73476607Y-86052544I-1525000J0D01*
G01*
X73476607Y-86052544D02*
G75*
G02*
X76526607Y-86052544I1525000J0D01*
G01*
X81526607Y-88152544D02*
G75*
G02*
X78476607Y-88152544I-1525000J0D01*
G01*
X78476607Y-88152544D02*
G75*
G02*
X81526607Y-88152544I1525000J0D01*
G01*
D12*
X81451607Y-91952544D02*
G75*
G02*
X79551607Y-91952544I-950000J0D01*
G01*
X79551607Y-91952544D02*
G75*
G02*
X81451607Y-91952544I950000J0D01*
G01*
X127601607Y-125052544D02*
G75*
G02*
X125701607Y-125052544I-950000J0D01*
G01*
X125701607Y-125052544D02*
G75*
G02*
X127601607Y-125052544I950000J0D01*
G01*
D13*
X133676607Y-119152544D02*
G75*
G02*
X130626607Y-119152544I-1525000J0D01*
G01*
X130626607Y-119152544D02*
G75*
G02*
X133676607Y-119152544I1525000J0D01*
G01*
X138676607Y-121252544D02*
G75*
G02*
X135626607Y-121252544I-1525000J0D01*
G01*
X135626607Y-121252544D02*
G75*
G02*
X138676607Y-121252544I1525000J0D01*
G01*
D12*
X138601607Y-125052544D02*
G75*
G02*
X136701607Y-125052544I-950000J0D01*
G01*
X136701607Y-125052544D02*
G75*
G02*
X138601607Y-125052544I950000J0D01*
G01*
X108551607Y-104002544D02*
G75*
G02*
X106651607Y-104002544I-950000J0D01*
G01*
X106651607Y-104002544D02*
G75*
G02*
X108551607Y-104002544I950000J0D01*
G01*
D13*
X114626607Y-98102544D02*
G75*
G02*
X111576607Y-98102544I-1525000J0D01*
G01*
X111576607Y-98102544D02*
G75*
G02*
X114626607Y-98102544I1525000J0D01*
G01*
X119626607Y-100202544D02*
G75*
G02*
X116576607Y-100202544I-1525000J0D01*
G01*
X116576607Y-100202544D02*
G75*
G02*
X119626607Y-100202544I1525000J0D01*
G01*
D12*
X119551607Y-104002544D02*
G75*
G02*
X117651607Y-104002544I-950000J0D01*
G01*
X117651607Y-104002544D02*
G75*
G02*
X119551607Y-104002544I950000J0D01*
G01*
X137126607Y-166152544D02*
G75*
G02*
X135226607Y-166152544I-950000J0D01*
G01*
X135226607Y-166152544D02*
G75*
G02*
X137126607Y-166152544I950000J0D01*
G01*
D13*
X143201607Y-160252544D02*
G75*
G02*
X140151607Y-160252544I-1525000J0D01*
G01*
X140151607Y-160252544D02*
G75*
G02*
X143201607Y-160252544I1525000J0D01*
G01*
X148201607Y-162352544D02*
G75*
G02*
X145151607Y-162352544I-1525000J0D01*
G01*
X145151607Y-162352544D02*
G75*
G02*
X148201607Y-162352544I1525000J0D01*
G01*
D12*
X148126607Y-166152544D02*
G75*
G02*
X146226607Y-166152544I-950000J0D01*
G01*
X146226607Y-166152544D02*
G75*
G02*
X148126607Y-166152544I950000J0D01*
G01*
D14*
X130251607Y-128832544D02*
X130251607Y-131432544D01*
X130451607Y-131632544D02*
X133851607Y-131632544D01*
X133851607Y-128632544D02*
X130451607Y-128632544D01*
X134051607Y-131432544D02*
X134051607Y-128832544D01*
X130251607Y-128832544D02*
G75*
G02*
X130451607Y-128632544I200000J0D01*
G01*
X130451607Y-131632544D02*
G75*
G02*
X130251607Y-131432544I0J200000D01*
G01*
X133851607Y-128632544D02*
G75*
G02*
X134051607Y-128832544I-1J-200001D01*
G01*
X134051607Y-131432544D02*
G75*
G02*
X133851607Y-131632544I-200001J1D01*
G01*
X73101607Y-152882544D02*
X73101607Y-155482544D01*
X73301607Y-155682544D02*
X76701607Y-155682544D01*
X76701607Y-152682544D02*
X73301607Y-152682544D01*
X76901607Y-155482544D02*
X76901607Y-152882544D01*
X73101607Y-152882544D02*
G75*
G02*
X73301607Y-152682544I200000J0D01*
G01*
X73301607Y-155682544D02*
G75*
G02*
X73101607Y-155482544I0J200000D01*
G01*
X76701607Y-152682544D02*
G75*
G02*
X76901607Y-152882544I-1J-200001D01*
G01*
X76901607Y-155482544D02*
G75*
G02*
X76701607Y-155682544I-200001J1D01*
G01*
X101676607Y-166932544D02*
X101676607Y-169532544D01*
X101876607Y-169732544D02*
X105276607Y-169732544D01*
X105276607Y-166732544D02*
X101876607Y-166732544D01*
X105476607Y-169532544D02*
X105476607Y-166932544D01*
X101676607Y-166932544D02*
G75*
G02*
X101876607Y-166732544I200000J0D01*
G01*
X101876607Y-169732544D02*
G75*
G02*
X101676607Y-169532544I0J200000D01*
G01*
X105276607Y-166732544D02*
G75*
G02*
X105476607Y-166932544I-1J-200001D01*
G01*
X105476607Y-169532544D02*
G75*
G02*
X105276607Y-169732544I-200001J1D01*
G01*
X139776607Y-169932544D02*
X139776607Y-172532544D01*
X139976607Y-172732544D02*
X143376607Y-172732544D01*
X143376607Y-169732544D02*
X139976607Y-169732544D01*
X143576607Y-172532544D02*
X143576607Y-169932544D01*
X139776607Y-169932544D02*
G75*
G02*
X139976607Y-169732544I200000J0D01*
G01*
X139976607Y-172732544D02*
G75*
G02*
X139776607Y-172532544I0J200000D01*
G01*
X143376607Y-169732544D02*
G75*
G02*
X143576607Y-169932544I-1J-200001D01*
G01*
X143576607Y-172532544D02*
G75*
G02*
X143376607Y-172732544I-200001J1D01*
G01*
X54051607Y-136832544D02*
X54051607Y-139432544D01*
X54251607Y-139632544D02*
X57651607Y-139632544D01*
X57651607Y-136632544D02*
X54251607Y-136632544D01*
X57851607Y-139432544D02*
X57851607Y-136832544D01*
X54051607Y-136832544D02*
G75*
G02*
X54251607Y-136632544I200000J0D01*
G01*
X54251607Y-139632544D02*
G75*
G02*
X54051607Y-139432544I0J200000D01*
G01*
X57651607Y-136632544D02*
G75*
G02*
X57851607Y-136832544I-1J-200001D01*
G01*
X57851607Y-139432544D02*
G75*
G02*
X57651607Y-139632544I-200001J1D01*
G01*
X149301607Y-112782544D02*
X149301607Y-115382544D01*
X149501607Y-115582544D02*
X152901607Y-115582544D01*
X152901607Y-112582544D02*
X149501607Y-112582544D01*
X153101607Y-115382544D02*
X153101607Y-112782544D01*
X149301607Y-112782544D02*
G75*
G02*
X149501607Y-112582544I200000J0D01*
G01*
X149501607Y-115582544D02*
G75*
G02*
X149301607Y-115382544I0J200000D01*
G01*
X152901607Y-112582544D02*
G75*
G02*
X153101607Y-112782544I-1J-200001D01*
G01*
X153101607Y-115382544D02*
G75*
G02*
X152901607Y-115582544I-200001J1D01*
G01*
X111201607Y-126832544D02*
X111201607Y-129432544D01*
X111401607Y-129632544D02*
X114801607Y-129632544D01*
X114801607Y-126632544D02*
X111401607Y-126632544D01*
X115001607Y-129432544D02*
X115001607Y-126832544D01*
X111201607Y-126832544D02*
G75*
G02*
X111401607Y-126632544I200000J0D01*
G01*
X111401607Y-129632544D02*
G75*
G02*
X111201607Y-129432544I0J200000D01*
G01*
X114801607Y-126632544D02*
G75*
G02*
X115001607Y-126832544I-1J-200001D01*
G01*
X115001607Y-129432544D02*
G75*
G02*
X114801607Y-129632544I-200001J1D01*
G01*
X130251607Y-147882544D02*
X130251607Y-150482544D01*
X130451607Y-150682544D02*
X133851607Y-150682544D01*
X133851607Y-147682544D02*
X130451607Y-147682544D01*
X134051607Y-150482544D02*
X134051607Y-147882544D01*
X130251607Y-147882544D02*
G75*
G02*
X130451607Y-147682544I200000J0D01*
G01*
X130451607Y-150682544D02*
G75*
G02*
X130251607Y-150482544I0J200000D01*
G01*
X133851607Y-147682544D02*
G75*
G02*
X134051607Y-147882544I-1J-200001D01*
G01*
X134051607Y-150482544D02*
G75*
G02*
X133851607Y-150682544I-200001J1D01*
G01*
X92151607Y-128832544D02*
X92151607Y-131432544D01*
X92351607Y-131632544D02*
X95751607Y-131632544D01*
X95751607Y-128632544D02*
X92351607Y-128632544D01*
X95951607Y-131432544D02*
X95951607Y-128832544D01*
X92151607Y-128832544D02*
G75*
G02*
X92351607Y-128632544I200000J0D01*
G01*
X92351607Y-131632544D02*
G75*
G02*
X92151607Y-131432544I0J200000D01*
G01*
X95751607Y-128632544D02*
G75*
G02*
X95951607Y-128832544I-1J-200001D01*
G01*
X95951607Y-131432544D02*
G75*
G02*
X95751607Y-131632544I-200001J1D01*
G01*
X111201607Y-107782544D02*
X111201607Y-110382544D01*
X111401607Y-110582544D02*
X114801607Y-110582544D01*
X114801607Y-107582544D02*
X111401607Y-107582544D01*
X115001607Y-110382544D02*
X115001607Y-107782544D01*
X111201607Y-107782544D02*
G75*
G02*
X111401607Y-107582544I200000J0D01*
G01*
X111401607Y-110582544D02*
G75*
G02*
X111201607Y-110382544I0J200000D01*
G01*
X114801607Y-107582544D02*
G75*
G02*
X115001607Y-107782544I-1J-200001D01*
G01*
X115001607Y-110382544D02*
G75*
G02*
X114801607Y-110582544I-200001J1D01*
G01*
X169197787Y-170120518D02*
X171554187Y-171219326D01*
X170537951Y-166773286D02*
X169101049Y-169854733D01*
X171819973Y-171122588D02*
X173256875Y-168041141D01*
X173160137Y-167775356D02*
X170803737Y-166676548D01*
X169197787Y-170120518D02*
G75*
G02*
X169101049Y-169854733I84524J181262D01*
G01*
X170537951Y-166773286D02*
G75*
G02*
X170803738Y-166676547I181263J-84524D01*
G01*
X171819973Y-171122588D02*
G75*
G02*
X171554187Y-171219326I-181262J84524D01*
G01*
X173160137Y-167775356D02*
G75*
G02*
X173256875Y-168041141I-84525J-181262D01*
G01*
X149301607Y-150882544D02*
X149301607Y-153482544D01*
X149501607Y-153682544D02*
X152901607Y-153682544D01*
X152901607Y-150682544D02*
X149501607Y-150682544D01*
X153101607Y-153482544D02*
X153101607Y-150882544D01*
X149301607Y-150882544D02*
G75*
G02*
X149501607Y-150682544I200000J0D01*
G01*
X149501607Y-153682544D02*
G75*
G02*
X149301607Y-153482544I0J200000D01*
G01*
X152901607Y-150682544D02*
G75*
G02*
X153101607Y-150882544I-1J-200001D01*
G01*
X153101607Y-153482544D02*
G75*
G02*
X152901607Y-153682544I-200001J1D01*
G01*
X120726607Y-166932544D02*
X120726607Y-169532544D01*
X120926607Y-169732544D02*
X124326607Y-169732544D01*
X124326607Y-166732544D02*
X120926607Y-166732544D01*
X124526607Y-169532544D02*
X124526607Y-166932544D01*
X120726607Y-166932544D02*
G75*
G02*
X120926607Y-166732544I200000J0D01*
G01*
X120926607Y-169732544D02*
G75*
G02*
X120726607Y-169532544I0J200000D01*
G01*
X124326607Y-166732544D02*
G75*
G02*
X124526607Y-166932544I-1J-200001D01*
G01*
X124526607Y-169532544D02*
G75*
G02*
X124326607Y-169732544I-200001J1D01*
G01*
X130251607Y-90732544D02*
X130251607Y-93332544D01*
X130451607Y-93532544D02*
X133851607Y-93532544D01*
X133851607Y-90532544D02*
X130451607Y-90532544D01*
X134051607Y-93332544D02*
X134051607Y-90732544D01*
X130251607Y-90732544D02*
G75*
G02*
X130451607Y-90532544I200000J0D01*
G01*
X130451607Y-93532544D02*
G75*
G02*
X130251607Y-93332544I0J200000D01*
G01*
X133851607Y-90532544D02*
G75*
G02*
X134051607Y-90732544I-1J-200001D01*
G01*
X134051607Y-93332544D02*
G75*
G02*
X133851607Y-93532544I-200001J1D01*
G01*
X54051607Y-117782544D02*
X54051607Y-120382544D01*
X54251607Y-120582544D02*
X57651607Y-120582544D01*
X57651607Y-117582544D02*
X54251607Y-117582544D01*
X57851607Y-120382544D02*
X57851607Y-117782544D01*
X54051607Y-117782544D02*
G75*
G02*
X54251607Y-117582544I200000J0D01*
G01*
X54251607Y-120582544D02*
G75*
G02*
X54051607Y-120382544I0J200000D01*
G01*
X57651607Y-117582544D02*
G75*
G02*
X57851607Y-117782544I-1J-200001D01*
G01*
X57851607Y-120382544D02*
G75*
G02*
X57651607Y-120582544I-200001J1D01*
G01*
X54051607Y-98732544D02*
X54051607Y-101332544D01*
X54251607Y-101532544D02*
X57651607Y-101532544D01*
X57651607Y-98532544D02*
X54251607Y-98532544D01*
X57851607Y-101332544D02*
X57851607Y-98732544D01*
X54051607Y-98732544D02*
G75*
G02*
X54251607Y-98532544I200000J0D01*
G01*
X54251607Y-101532544D02*
G75*
G02*
X54051607Y-101332544I0J200000D01*
G01*
X57651607Y-98532544D02*
G75*
G02*
X57851607Y-98732544I-1J-200001D01*
G01*
X57851607Y-101332544D02*
G75*
G02*
X57651607Y-101532544I-200001J1D01*
G01*
X54051607Y-155882544D02*
X54051607Y-158482544D01*
X54251607Y-158682544D02*
X57651607Y-158682544D01*
X57651607Y-155682544D02*
X54251607Y-155682544D01*
X57851607Y-158482544D02*
X57851607Y-155882544D01*
X54051607Y-155882544D02*
G75*
G02*
X54251607Y-155682544I200000J0D01*
G01*
X54251607Y-158682544D02*
G75*
G02*
X54051607Y-158482544I0J200000D01*
G01*
X57651607Y-155682544D02*
G75*
G02*
X57851607Y-155882544I-1J-200001D01*
G01*
X57851607Y-158482544D02*
G75*
G02*
X57651607Y-158682544I-200001J1D01*
G01*
X149301607Y-131832544D02*
X149301607Y-134432544D01*
X149501607Y-134632544D02*
X152901607Y-134632544D01*
X152901607Y-131632544D02*
X149501607Y-131632544D01*
X153101607Y-134432544D02*
X153101607Y-131832544D01*
X149301607Y-131832544D02*
G75*
G02*
X149501607Y-131632544I200000J0D01*
G01*
X149501607Y-134632544D02*
G75*
G02*
X149301607Y-134432544I0J200000D01*
G01*
X152901607Y-131632544D02*
G75*
G02*
X153101607Y-131832544I-1J-200001D01*
G01*
X153101607Y-134432544D02*
G75*
G02*
X152901607Y-134632544I-200001J1D01*
G01*
X92151607Y-147882544D02*
X92151607Y-150482544D01*
X92351607Y-150682544D02*
X95751607Y-150682544D01*
X95751607Y-147682544D02*
X92351607Y-147682544D01*
X95951607Y-150482544D02*
X95951607Y-147882544D01*
X92151607Y-147882544D02*
G75*
G02*
X92351607Y-147682544I200000J0D01*
G01*
X92351607Y-150682544D02*
G75*
G02*
X92151607Y-150482544I0J200000D01*
G01*
X95751607Y-147682544D02*
G75*
G02*
X95951607Y-147882544I-1J-200001D01*
G01*
X95951607Y-150482544D02*
G75*
G02*
X95751607Y-150682544I-200001J1D01*
G01*
X130251607Y-109782544D02*
X130251607Y-112382544D01*
X130451607Y-112582544D02*
X133851607Y-112582544D01*
X133851607Y-109582544D02*
X130451607Y-109582544D01*
X134051607Y-112382544D02*
X134051607Y-109782544D01*
X130251607Y-109782544D02*
G75*
G02*
X130451607Y-109582544I200000J0D01*
G01*
X130451607Y-112582544D02*
G75*
G02*
X130251607Y-112382544I0J200000D01*
G01*
X133851607Y-109582544D02*
G75*
G02*
X134051607Y-109782544I-1J-200001D01*
G01*
X134051607Y-112382544D02*
G75*
G02*
X133851607Y-112582544I-200001J1D01*
G01*
X92151607Y-90732544D02*
X92151607Y-93332544D01*
X92351607Y-93532544D02*
X95751607Y-93532544D01*
X95751607Y-90532544D02*
X92351607Y-90532544D01*
X95951607Y-93332544D02*
X95951607Y-90732544D01*
X92151607Y-90732544D02*
G75*
G02*
X92351607Y-90532544I200000J0D01*
G01*
X92351607Y-93532544D02*
G75*
G02*
X92151607Y-93332544I0J200000D01*
G01*
X95751607Y-90532544D02*
G75*
G02*
X95951607Y-90732544I-1J-200001D01*
G01*
X95951607Y-93332544D02*
G75*
G02*
X95751607Y-93532544I-200001J1D01*
G01*
X73101607Y-114782544D02*
X73101607Y-117382544D01*
X73301607Y-117582544D02*
X76701607Y-117582544D01*
X76701607Y-114582544D02*
X73301607Y-114582544D01*
X76901607Y-117382544D02*
X76901607Y-114782544D01*
X73101607Y-114782544D02*
G75*
G02*
X73301607Y-114582544I200000J0D01*
G01*
X73301607Y-117582544D02*
G75*
G02*
X73101607Y-117382544I0J200000D01*
G01*
X76701607Y-114582544D02*
G75*
G02*
X76901607Y-114782544I-1J-200001D01*
G01*
X76901607Y-117382544D02*
G75*
G02*
X76701607Y-117582544I-200001J1D01*
G01*
X73101607Y-95732544D02*
X73101607Y-98332544D01*
X73301607Y-98532544D02*
X76701607Y-98532544D01*
X76701607Y-95532544D02*
X73301607Y-95532544D01*
X76901607Y-98332544D02*
X76901607Y-95732544D01*
X73101607Y-95732544D02*
G75*
G02*
X73301607Y-95532544I200000J0D01*
G01*
X73301607Y-98532544D02*
G75*
G02*
X73101607Y-98332544I0J200000D01*
G01*
X76701607Y-95532544D02*
G75*
G02*
X76901607Y-95732544I-1J-200001D01*
G01*
X76901607Y-98332544D02*
G75*
G02*
X76701607Y-98532544I-200001J1D01*
G01*
X111201607Y-145882544D02*
X111201607Y-148482544D01*
X111401607Y-148682544D02*
X114801607Y-148682544D01*
X114801607Y-145682544D02*
X111401607Y-145682544D01*
X115001607Y-148482544D02*
X115001607Y-145882544D01*
X111201607Y-145882544D02*
G75*
G02*
X111401607Y-145682544I200000J0D01*
G01*
X111401607Y-148682544D02*
G75*
G02*
X111201607Y-148482544I0J200000D01*
G01*
X114801607Y-145682544D02*
G75*
G02*
X115001607Y-145882544I-1J-200001D01*
G01*
X115001607Y-148482544D02*
G75*
G02*
X114801607Y-148682544I-200001J1D01*
G01*
X111201607Y-88732544D02*
X111201607Y-91332544D01*
X111401607Y-91532544D02*
X114801607Y-91532544D01*
X114801607Y-88532544D02*
X111401607Y-88532544D01*
X115001607Y-91332544D02*
X115001607Y-88732544D01*
X111201607Y-88732544D02*
G75*
G02*
X111401607Y-88532544I200000J0D01*
G01*
X111401607Y-91532544D02*
G75*
G02*
X111201607Y-91332544I0J200000D01*
G01*
X114801607Y-88532544D02*
G75*
G02*
X115001607Y-88732544I-1J-200001D01*
G01*
X115001607Y-91332544D02*
G75*
G02*
X114801607Y-91532544I-200001J1D01*
G01*
X168351607Y-141357544D02*
X168351607Y-143957544D01*
X168551607Y-144157544D02*
X171951607Y-144157544D01*
X171951607Y-141157544D02*
X168551607Y-141157544D01*
X172151607Y-143957544D02*
X172151607Y-141357544D01*
X168351607Y-141357544D02*
G75*
G02*
X168551607Y-141157544I200000J0D01*
G01*
X168551607Y-144157544D02*
G75*
G02*
X168351607Y-143957544I0J200000D01*
G01*
X171951607Y-141157544D02*
G75*
G02*
X172151607Y-141357544I-1J-200001D01*
G01*
X172151607Y-143957544D02*
G75*
G02*
X171951607Y-144157544I-200001J1D01*
G01*
X73101607Y-133832544D02*
X73101607Y-136432544D01*
X73301607Y-136632544D02*
X76701607Y-136632544D01*
X76701607Y-133632544D02*
X73301607Y-133632544D01*
X76901607Y-136432544D02*
X76901607Y-133832544D01*
X73101607Y-133832544D02*
G75*
G02*
X73301607Y-133632544I200000J0D01*
G01*
X73301607Y-136632544D02*
G75*
G02*
X73101607Y-136432544I0J200000D01*
G01*
X76701607Y-133632544D02*
G75*
G02*
X76901607Y-133832544I-1J-200001D01*
G01*
X76901607Y-136432544D02*
G75*
G02*
X76701607Y-136632544I-200001J1D01*
G01*
X149301607Y-93732544D02*
X149301607Y-96332544D01*
X149501607Y-96532544D02*
X152901607Y-96532544D01*
X152901607Y-93532544D02*
X149501607Y-93532544D01*
X153101607Y-96332544D02*
X153101607Y-93732544D01*
X149301607Y-93732544D02*
G75*
G02*
X149501607Y-93532544I200000J0D01*
G01*
X149501607Y-96532544D02*
G75*
G02*
X149301607Y-96332544I0J200000D01*
G01*
X152901607Y-93532544D02*
G75*
G02*
X153101607Y-93732544I-1J-200001D01*
G01*
X153101607Y-96332544D02*
G75*
G02*
X152901607Y-96532544I-200001J1D01*
G01*
X92151607Y-109782544D02*
X92151607Y-112382544D01*
X92351607Y-112582544D02*
X95751607Y-112582544D01*
X95751607Y-109582544D02*
X92351607Y-109582544D01*
X95951607Y-112382544D02*
X95951607Y-109782544D01*
X92151607Y-109782544D02*
G75*
G02*
X92351607Y-109582544I200000J0D01*
G01*
X92351607Y-112582544D02*
G75*
G02*
X92151607Y-112382544I0J200000D01*
G01*
X95751607Y-109582544D02*
G75*
G02*
X95951607Y-109782544I-1J-200001D01*
G01*
X95951607Y-112382544D02*
G75*
G02*
X95751607Y-112582544I-200001J1D01*
G01*
M02*
