G04 #@! TF.GenerationSoftware,KiCad,Pcbnew,9.0.3*
G04 #@! TF.CreationDate,2025-08-06T01:59:05-04:00*
G04 #@! TF.ProjectId,quartz58,71756172-747a-4353-982e-6b696361645f,rev?*
G04 #@! TF.SameCoordinates,Original*
G04 #@! TF.FileFunction,Legend,Top*
G04 #@! TF.FilePolarity,Positive*
%FSLAX46Y46*%
G04 Gerber Fmt 4.6, Leading zero omitted, Abs format (unit mm)*
G04 Created by KiCad (PCBNEW 9.0.3) date 2025-08-06 01:59:05*
%MOMM*%
%LPD*%
G01*
G04 APERTURE LIST*
%ADD10C,0.100000*%
%ADD11C,0.150000*%
%ADD12C,0.127000*%
%ADD13C,0.200000*%
%ADD14C,0.120000*%
%ADD15C,0.152400*%
%ADD16C,0.381000*%
%ADD17C,1.752600*%
G04 #@! TA.AperFunction,Profile*
%ADD18C,0.150000*%
G04 #@! TD*
G04 #@! TA.AperFunction,Profile*
%ADD19C,0.100000*%
G04 #@! TD*
G04 #@! TA.AperFunction,Profile*
%ADD20C,0.200000*%
G04 #@! TD*
G04 APERTURE END LIST*
D10*
X136229856Y-218148142D02*
X135896523Y-218148142D01*
X135753666Y-217624332D02*
X136229856Y-217624332D01*
X136229856Y-217624332D02*
X136229856Y-218624332D01*
X136229856Y-218624332D02*
X135753666Y-218624332D01*
X134801285Y-217624332D02*
X135372713Y-217624332D01*
X135086999Y-217624332D02*
X135086999Y-218624332D01*
X135086999Y-218624332D02*
X135182237Y-218481475D01*
X135182237Y-218481475D02*
X135277475Y-218386237D01*
X135277475Y-218386237D02*
X135372713Y-218338618D01*
D11*
X252882560Y-113635696D02*
X252882560Y-114302363D01*
X252882560Y-113730934D02*
X252930179Y-113683315D01*
X252930179Y-113683315D02*
X253025417Y-113635696D01*
X253025417Y-113635696D02*
X253168274Y-113635696D01*
X253168274Y-113635696D02*
X253263512Y-113683315D01*
X253263512Y-113683315D02*
X253311131Y-113778553D01*
X253311131Y-113778553D02*
X253311131Y-114302363D01*
X253787322Y-114302363D02*
X253787322Y-113635696D01*
X253787322Y-113302363D02*
X253739703Y-113349982D01*
X253739703Y-113349982D02*
X253787322Y-113397601D01*
X253787322Y-113397601D02*
X253834941Y-113349982D01*
X253834941Y-113349982D02*
X253787322Y-113302363D01*
X253787322Y-113302363D02*
X253787322Y-113397601D01*
X254692083Y-114254744D02*
X254596845Y-114302363D01*
X254596845Y-114302363D02*
X254406369Y-114302363D01*
X254406369Y-114302363D02*
X254311131Y-114254744D01*
X254311131Y-114254744D02*
X254263512Y-114207124D01*
X254263512Y-114207124D02*
X254215893Y-114111886D01*
X254215893Y-114111886D02*
X254215893Y-113826172D01*
X254215893Y-113826172D02*
X254263512Y-113730934D01*
X254263512Y-113730934D02*
X254311131Y-113683315D01*
X254311131Y-113683315D02*
X254406369Y-113635696D01*
X254406369Y-113635696D02*
X254596845Y-113635696D01*
X254596845Y-113635696D02*
X254692083Y-113683315D01*
X255501607Y-114254744D02*
X255406369Y-114302363D01*
X255406369Y-114302363D02*
X255215893Y-114302363D01*
X255215893Y-114302363D02*
X255120655Y-114254744D01*
X255120655Y-114254744D02*
X255073036Y-114159505D01*
X255073036Y-114159505D02*
X255073036Y-113778553D01*
X255073036Y-113778553D02*
X255120655Y-113683315D01*
X255120655Y-113683315D02*
X255215893Y-113635696D01*
X255215893Y-113635696D02*
X255406369Y-113635696D01*
X255406369Y-113635696D02*
X255501607Y-113683315D01*
X255501607Y-113683315D02*
X255549226Y-113778553D01*
X255549226Y-113778553D02*
X255549226Y-113873791D01*
X255549226Y-113873791D02*
X255073036Y-113969029D01*
X255977798Y-114207124D02*
X256025417Y-114254744D01*
X256025417Y-114254744D02*
X255977798Y-114302363D01*
X255977798Y-114302363D02*
X255930179Y-114254744D01*
X255930179Y-114254744D02*
X255977798Y-114207124D01*
X255977798Y-114207124D02*
X255977798Y-114302363D01*
X255977798Y-113921410D02*
X255930179Y-113349982D01*
X255930179Y-113349982D02*
X255977798Y-113302363D01*
X255977798Y-113302363D02*
X256025417Y-113349982D01*
X256025417Y-113349982D02*
X255977798Y-113921410D01*
X255977798Y-113921410D02*
X255977798Y-113302363D01*
X256358750Y-113635696D02*
X256596845Y-114302363D01*
X256596845Y-114302363D02*
X256834940Y-113635696D01*
X257215893Y-114302363D02*
X257215893Y-113635696D01*
X257215893Y-113302363D02*
X257168274Y-113349982D01*
X257168274Y-113349982D02*
X257215893Y-113397601D01*
X257215893Y-113397601D02*
X257263512Y-113349982D01*
X257263512Y-113349982D02*
X257215893Y-113302363D01*
X257215893Y-113302363D02*
X257215893Y-113397601D01*
X258073035Y-114254744D02*
X257977797Y-114302363D01*
X257977797Y-114302363D02*
X257787321Y-114302363D01*
X257787321Y-114302363D02*
X257692083Y-114254744D01*
X257692083Y-114254744D02*
X257644464Y-114159505D01*
X257644464Y-114159505D02*
X257644464Y-113778553D01*
X257644464Y-113778553D02*
X257692083Y-113683315D01*
X257692083Y-113683315D02*
X257787321Y-113635696D01*
X257787321Y-113635696D02*
X257977797Y-113635696D01*
X257977797Y-113635696D02*
X258073035Y-113683315D01*
X258073035Y-113683315D02*
X258120654Y-113778553D01*
X258120654Y-113778553D02*
X258120654Y-113873791D01*
X258120654Y-113873791D02*
X257644464Y-113969029D01*
X258453988Y-113635696D02*
X258644464Y-114302363D01*
X258644464Y-114302363D02*
X258834940Y-113826172D01*
X258834940Y-113826172D02*
X259025416Y-114302363D01*
X259025416Y-114302363D02*
X259215892Y-113635696D01*
X261416187Y-118519085D02*
X261463807Y-118566704D01*
X261463807Y-118566704D02*
X261511426Y-118709561D01*
X261511426Y-118709561D02*
X261511426Y-118804799D01*
X261511426Y-118804799D02*
X261463807Y-118947656D01*
X261463807Y-118947656D02*
X261368568Y-119042894D01*
X261368568Y-119042894D02*
X261273330Y-119090513D01*
X261273330Y-119090513D02*
X261082854Y-119138132D01*
X261082854Y-119138132D02*
X260939997Y-119138132D01*
X260939997Y-119138132D02*
X260749521Y-119090513D01*
X260749521Y-119090513D02*
X260654283Y-119042894D01*
X260654283Y-119042894D02*
X260559045Y-118947656D01*
X260559045Y-118947656D02*
X260511426Y-118804799D01*
X260511426Y-118804799D02*
X260511426Y-118709561D01*
X260511426Y-118709561D02*
X260559045Y-118566704D01*
X260559045Y-118566704D02*
X260606664Y-118519085D01*
X261463807Y-118138132D02*
X261511426Y-117995275D01*
X261511426Y-117995275D02*
X261511426Y-117757180D01*
X261511426Y-117757180D02*
X261463807Y-117661942D01*
X261463807Y-117661942D02*
X261416187Y-117614323D01*
X261416187Y-117614323D02*
X261320949Y-117566704D01*
X261320949Y-117566704D02*
X261225711Y-117566704D01*
X261225711Y-117566704D02*
X261130473Y-117614323D01*
X261130473Y-117614323D02*
X261082854Y-117661942D01*
X261082854Y-117661942D02*
X261035235Y-117757180D01*
X261035235Y-117757180D02*
X260987616Y-117947656D01*
X260987616Y-117947656D02*
X260939997Y-118042894D01*
X260939997Y-118042894D02*
X260892378Y-118090513D01*
X260892378Y-118090513D02*
X260797140Y-118138132D01*
X260797140Y-118138132D02*
X260701902Y-118138132D01*
X260701902Y-118138132D02*
X260606664Y-118090513D01*
X260606664Y-118090513D02*
X260559045Y-118042894D01*
X260559045Y-118042894D02*
X260511426Y-117947656D01*
X260511426Y-117947656D02*
X260511426Y-117709561D01*
X260511426Y-117709561D02*
X260559045Y-117566704D01*
X251351426Y-120757179D02*
X250351426Y-120757179D01*
X250351426Y-120757179D02*
X251065711Y-120423846D01*
X251065711Y-120423846D02*
X250351426Y-120090513D01*
X250351426Y-120090513D02*
X251351426Y-120090513D01*
X250351426Y-119423846D02*
X250351426Y-119233370D01*
X250351426Y-119233370D02*
X250399045Y-119138132D01*
X250399045Y-119138132D02*
X250494283Y-119042894D01*
X250494283Y-119042894D02*
X250684759Y-118995275D01*
X250684759Y-118995275D02*
X251018092Y-118995275D01*
X251018092Y-118995275D02*
X251208568Y-119042894D01*
X251208568Y-119042894D02*
X251303807Y-119138132D01*
X251303807Y-119138132D02*
X251351426Y-119233370D01*
X251351426Y-119233370D02*
X251351426Y-119423846D01*
X251351426Y-119423846D02*
X251303807Y-119519084D01*
X251303807Y-119519084D02*
X251208568Y-119614322D01*
X251208568Y-119614322D02*
X251018092Y-119661941D01*
X251018092Y-119661941D02*
X250684759Y-119661941D01*
X250684759Y-119661941D02*
X250494283Y-119614322D01*
X250494283Y-119614322D02*
X250399045Y-119519084D01*
X250399045Y-119519084D02*
X250351426Y-119423846D01*
X251303807Y-118614322D02*
X251351426Y-118471465D01*
X251351426Y-118471465D02*
X251351426Y-118233370D01*
X251351426Y-118233370D02*
X251303807Y-118138132D01*
X251303807Y-118138132D02*
X251256187Y-118090513D01*
X251256187Y-118090513D02*
X251160949Y-118042894D01*
X251160949Y-118042894D02*
X251065711Y-118042894D01*
X251065711Y-118042894D02*
X250970473Y-118090513D01*
X250970473Y-118090513D02*
X250922854Y-118138132D01*
X250922854Y-118138132D02*
X250875235Y-118233370D01*
X250875235Y-118233370D02*
X250827616Y-118423846D01*
X250827616Y-118423846D02*
X250779997Y-118519084D01*
X250779997Y-118519084D02*
X250732378Y-118566703D01*
X250732378Y-118566703D02*
X250637140Y-118614322D01*
X250637140Y-118614322D02*
X250541902Y-118614322D01*
X250541902Y-118614322D02*
X250446664Y-118566703D01*
X250446664Y-118566703D02*
X250399045Y-118519084D01*
X250399045Y-118519084D02*
X250351426Y-118423846D01*
X250351426Y-118423846D02*
X250351426Y-118185751D01*
X250351426Y-118185751D02*
X250399045Y-118042894D01*
X251351426Y-117614322D02*
X250351426Y-117614322D01*
X255431426Y-120138132D02*
X256431426Y-119804799D01*
X256431426Y-119804799D02*
X255431426Y-119471466D01*
X256336187Y-118566704D02*
X256383807Y-118614323D01*
X256383807Y-118614323D02*
X256431426Y-118757180D01*
X256431426Y-118757180D02*
X256431426Y-118852418D01*
X256431426Y-118852418D02*
X256383807Y-118995275D01*
X256383807Y-118995275D02*
X256288568Y-119090513D01*
X256288568Y-119090513D02*
X256193330Y-119138132D01*
X256193330Y-119138132D02*
X256002854Y-119185751D01*
X256002854Y-119185751D02*
X255859997Y-119185751D01*
X255859997Y-119185751D02*
X255669521Y-119138132D01*
X255669521Y-119138132D02*
X255574283Y-119090513D01*
X255574283Y-119090513D02*
X255479045Y-118995275D01*
X255479045Y-118995275D02*
X255431426Y-118852418D01*
X255431426Y-118852418D02*
X255431426Y-118757180D01*
X255431426Y-118757180D02*
X255479045Y-118614323D01*
X255479045Y-118614323D02*
X255526664Y-118566704D01*
X256336187Y-117566704D02*
X256383807Y-117614323D01*
X256383807Y-117614323D02*
X256431426Y-117757180D01*
X256431426Y-117757180D02*
X256431426Y-117852418D01*
X256431426Y-117852418D02*
X256383807Y-117995275D01*
X256383807Y-117995275D02*
X256288568Y-118090513D01*
X256288568Y-118090513D02*
X256193330Y-118138132D01*
X256193330Y-118138132D02*
X256002854Y-118185751D01*
X256002854Y-118185751D02*
X255859997Y-118185751D01*
X255859997Y-118185751D02*
X255669521Y-118138132D01*
X255669521Y-118138132D02*
X255574283Y-118090513D01*
X255574283Y-118090513D02*
X255479045Y-117995275D01*
X255479045Y-117995275D02*
X255431426Y-117852418D01*
X255431426Y-117852418D02*
X255431426Y-117757180D01*
X255431426Y-117757180D02*
X255479045Y-117614323D01*
X255479045Y-117614323D02*
X255526664Y-117566704D01*
X258019045Y-119661942D02*
X257971426Y-119757180D01*
X257971426Y-119757180D02*
X257971426Y-119900037D01*
X257971426Y-119900037D02*
X258019045Y-120042894D01*
X258019045Y-120042894D02*
X258114283Y-120138132D01*
X258114283Y-120138132D02*
X258209521Y-120185751D01*
X258209521Y-120185751D02*
X258399997Y-120233370D01*
X258399997Y-120233370D02*
X258542854Y-120233370D01*
X258542854Y-120233370D02*
X258733330Y-120185751D01*
X258733330Y-120185751D02*
X258828568Y-120138132D01*
X258828568Y-120138132D02*
X258923807Y-120042894D01*
X258923807Y-120042894D02*
X258971426Y-119900037D01*
X258971426Y-119900037D02*
X258971426Y-119804799D01*
X258971426Y-119804799D02*
X258923807Y-119661942D01*
X258923807Y-119661942D02*
X258876187Y-119614323D01*
X258876187Y-119614323D02*
X258542854Y-119614323D01*
X258542854Y-119614323D02*
X258542854Y-119804799D01*
X258971426Y-119185751D02*
X257971426Y-119185751D01*
X257971426Y-119185751D02*
X258971426Y-118614323D01*
X258971426Y-118614323D02*
X257971426Y-118614323D01*
X258971426Y-118138132D02*
X257971426Y-118138132D01*
X257971426Y-118138132D02*
X257971426Y-117900037D01*
X257971426Y-117900037D02*
X258019045Y-117757180D01*
X258019045Y-117757180D02*
X258114283Y-117661942D01*
X258114283Y-117661942D02*
X258209521Y-117614323D01*
X258209521Y-117614323D02*
X258399997Y-117566704D01*
X258399997Y-117566704D02*
X258542854Y-117566704D01*
X258542854Y-117566704D02*
X258733330Y-117614323D01*
X258733330Y-117614323D02*
X258828568Y-117661942D01*
X258828568Y-117661942D02*
X258923807Y-117757180D01*
X258923807Y-117757180D02*
X258971426Y-117900037D01*
X258971426Y-117900037D02*
X258971426Y-118138132D01*
X253843807Y-120138132D02*
X253891426Y-119995275D01*
X253891426Y-119995275D02*
X253891426Y-119757180D01*
X253891426Y-119757180D02*
X253843807Y-119661942D01*
X253843807Y-119661942D02*
X253796187Y-119614323D01*
X253796187Y-119614323D02*
X253700949Y-119566704D01*
X253700949Y-119566704D02*
X253605711Y-119566704D01*
X253605711Y-119566704D02*
X253510473Y-119614323D01*
X253510473Y-119614323D02*
X253462854Y-119661942D01*
X253462854Y-119661942D02*
X253415235Y-119757180D01*
X253415235Y-119757180D02*
X253367616Y-119947656D01*
X253367616Y-119947656D02*
X253319997Y-120042894D01*
X253319997Y-120042894D02*
X253272378Y-120090513D01*
X253272378Y-120090513D02*
X253177140Y-120138132D01*
X253177140Y-120138132D02*
X253081902Y-120138132D01*
X253081902Y-120138132D02*
X252986664Y-120090513D01*
X252986664Y-120090513D02*
X252939045Y-120042894D01*
X252939045Y-120042894D02*
X252891426Y-119947656D01*
X252891426Y-119947656D02*
X252891426Y-119709561D01*
X252891426Y-119709561D02*
X252939045Y-119566704D01*
X253796187Y-118566704D02*
X253843807Y-118614323D01*
X253843807Y-118614323D02*
X253891426Y-118757180D01*
X253891426Y-118757180D02*
X253891426Y-118852418D01*
X253891426Y-118852418D02*
X253843807Y-118995275D01*
X253843807Y-118995275D02*
X253748568Y-119090513D01*
X253748568Y-119090513D02*
X253653330Y-119138132D01*
X253653330Y-119138132D02*
X253462854Y-119185751D01*
X253462854Y-119185751D02*
X253319997Y-119185751D01*
X253319997Y-119185751D02*
X253129521Y-119138132D01*
X253129521Y-119138132D02*
X253034283Y-119090513D01*
X253034283Y-119090513D02*
X252939045Y-118995275D01*
X252939045Y-118995275D02*
X252891426Y-118852418D01*
X252891426Y-118852418D02*
X252891426Y-118757180D01*
X252891426Y-118757180D02*
X252939045Y-118614323D01*
X252939045Y-118614323D02*
X252986664Y-118566704D01*
X253891426Y-118138132D02*
X252891426Y-118138132D01*
X253891426Y-117566704D02*
X253319997Y-117995275D01*
X252891426Y-117566704D02*
X253462854Y-118138132D01*
X167132560Y-113635696D02*
X167132560Y-114302363D01*
X167132560Y-113730934D02*
X167180179Y-113683315D01*
X167180179Y-113683315D02*
X167275417Y-113635696D01*
X167275417Y-113635696D02*
X167418274Y-113635696D01*
X167418274Y-113635696D02*
X167513512Y-113683315D01*
X167513512Y-113683315D02*
X167561131Y-113778553D01*
X167561131Y-113778553D02*
X167561131Y-114302363D01*
X168037322Y-114302363D02*
X168037322Y-113635696D01*
X168037322Y-113302363D02*
X167989703Y-113349982D01*
X167989703Y-113349982D02*
X168037322Y-113397601D01*
X168037322Y-113397601D02*
X168084941Y-113349982D01*
X168084941Y-113349982D02*
X168037322Y-113302363D01*
X168037322Y-113302363D02*
X168037322Y-113397601D01*
X168942083Y-114254744D02*
X168846845Y-114302363D01*
X168846845Y-114302363D02*
X168656369Y-114302363D01*
X168656369Y-114302363D02*
X168561131Y-114254744D01*
X168561131Y-114254744D02*
X168513512Y-114207124D01*
X168513512Y-114207124D02*
X168465893Y-114111886D01*
X168465893Y-114111886D02*
X168465893Y-113826172D01*
X168465893Y-113826172D02*
X168513512Y-113730934D01*
X168513512Y-113730934D02*
X168561131Y-113683315D01*
X168561131Y-113683315D02*
X168656369Y-113635696D01*
X168656369Y-113635696D02*
X168846845Y-113635696D01*
X168846845Y-113635696D02*
X168942083Y-113683315D01*
X169751607Y-114254744D02*
X169656369Y-114302363D01*
X169656369Y-114302363D02*
X169465893Y-114302363D01*
X169465893Y-114302363D02*
X169370655Y-114254744D01*
X169370655Y-114254744D02*
X169323036Y-114159505D01*
X169323036Y-114159505D02*
X169323036Y-113778553D01*
X169323036Y-113778553D02*
X169370655Y-113683315D01*
X169370655Y-113683315D02*
X169465893Y-113635696D01*
X169465893Y-113635696D02*
X169656369Y-113635696D01*
X169656369Y-113635696D02*
X169751607Y-113683315D01*
X169751607Y-113683315D02*
X169799226Y-113778553D01*
X169799226Y-113778553D02*
X169799226Y-113873791D01*
X169799226Y-113873791D02*
X169323036Y-113969029D01*
X170227798Y-114207124D02*
X170275417Y-114254744D01*
X170275417Y-114254744D02*
X170227798Y-114302363D01*
X170227798Y-114302363D02*
X170180179Y-114254744D01*
X170180179Y-114254744D02*
X170227798Y-114207124D01*
X170227798Y-114207124D02*
X170227798Y-114302363D01*
X170227798Y-113921410D02*
X170180179Y-113349982D01*
X170180179Y-113349982D02*
X170227798Y-113302363D01*
X170227798Y-113302363D02*
X170275417Y-113349982D01*
X170275417Y-113349982D02*
X170227798Y-113921410D01*
X170227798Y-113921410D02*
X170227798Y-113302363D01*
X170608750Y-113635696D02*
X170846845Y-114302363D01*
X170846845Y-114302363D02*
X171084940Y-113635696D01*
X171465893Y-114302363D02*
X171465893Y-113635696D01*
X171465893Y-113302363D02*
X171418274Y-113349982D01*
X171418274Y-113349982D02*
X171465893Y-113397601D01*
X171465893Y-113397601D02*
X171513512Y-113349982D01*
X171513512Y-113349982D02*
X171465893Y-113302363D01*
X171465893Y-113302363D02*
X171465893Y-113397601D01*
X172323035Y-114254744D02*
X172227797Y-114302363D01*
X172227797Y-114302363D02*
X172037321Y-114302363D01*
X172037321Y-114302363D02*
X171942083Y-114254744D01*
X171942083Y-114254744D02*
X171894464Y-114159505D01*
X171894464Y-114159505D02*
X171894464Y-113778553D01*
X171894464Y-113778553D02*
X171942083Y-113683315D01*
X171942083Y-113683315D02*
X172037321Y-113635696D01*
X172037321Y-113635696D02*
X172227797Y-113635696D01*
X172227797Y-113635696D02*
X172323035Y-113683315D01*
X172323035Y-113683315D02*
X172370654Y-113778553D01*
X172370654Y-113778553D02*
X172370654Y-113873791D01*
X172370654Y-113873791D02*
X171894464Y-113969029D01*
X172703988Y-113635696D02*
X172894464Y-114302363D01*
X172894464Y-114302363D02*
X173084940Y-113826172D01*
X173084940Y-113826172D02*
X173275416Y-114302363D01*
X173275416Y-114302363D02*
X173465892Y-113635696D01*
X175691187Y-118619085D02*
X175738807Y-118666704D01*
X175738807Y-118666704D02*
X175786426Y-118809561D01*
X175786426Y-118809561D02*
X175786426Y-118904799D01*
X175786426Y-118904799D02*
X175738807Y-119047656D01*
X175738807Y-119047656D02*
X175643568Y-119142894D01*
X175643568Y-119142894D02*
X175548330Y-119190513D01*
X175548330Y-119190513D02*
X175357854Y-119238132D01*
X175357854Y-119238132D02*
X175214997Y-119238132D01*
X175214997Y-119238132D02*
X175024521Y-119190513D01*
X175024521Y-119190513D02*
X174929283Y-119142894D01*
X174929283Y-119142894D02*
X174834045Y-119047656D01*
X174834045Y-119047656D02*
X174786426Y-118904799D01*
X174786426Y-118904799D02*
X174786426Y-118809561D01*
X174786426Y-118809561D02*
X174834045Y-118666704D01*
X174834045Y-118666704D02*
X174881664Y-118619085D01*
X175738807Y-118238132D02*
X175786426Y-118095275D01*
X175786426Y-118095275D02*
X175786426Y-117857180D01*
X175786426Y-117857180D02*
X175738807Y-117761942D01*
X175738807Y-117761942D02*
X175691187Y-117714323D01*
X175691187Y-117714323D02*
X175595949Y-117666704D01*
X175595949Y-117666704D02*
X175500711Y-117666704D01*
X175500711Y-117666704D02*
X175405473Y-117714323D01*
X175405473Y-117714323D02*
X175357854Y-117761942D01*
X175357854Y-117761942D02*
X175310235Y-117857180D01*
X175310235Y-117857180D02*
X175262616Y-118047656D01*
X175262616Y-118047656D02*
X175214997Y-118142894D01*
X175214997Y-118142894D02*
X175167378Y-118190513D01*
X175167378Y-118190513D02*
X175072140Y-118238132D01*
X175072140Y-118238132D02*
X174976902Y-118238132D01*
X174976902Y-118238132D02*
X174881664Y-118190513D01*
X174881664Y-118190513D02*
X174834045Y-118142894D01*
X174834045Y-118142894D02*
X174786426Y-118047656D01*
X174786426Y-118047656D02*
X174786426Y-117809561D01*
X174786426Y-117809561D02*
X174834045Y-117666704D01*
X165626426Y-120857179D02*
X164626426Y-120857179D01*
X164626426Y-120857179D02*
X165340711Y-120523846D01*
X165340711Y-120523846D02*
X164626426Y-120190513D01*
X164626426Y-120190513D02*
X165626426Y-120190513D01*
X164626426Y-119523846D02*
X164626426Y-119333370D01*
X164626426Y-119333370D02*
X164674045Y-119238132D01*
X164674045Y-119238132D02*
X164769283Y-119142894D01*
X164769283Y-119142894D02*
X164959759Y-119095275D01*
X164959759Y-119095275D02*
X165293092Y-119095275D01*
X165293092Y-119095275D02*
X165483568Y-119142894D01*
X165483568Y-119142894D02*
X165578807Y-119238132D01*
X165578807Y-119238132D02*
X165626426Y-119333370D01*
X165626426Y-119333370D02*
X165626426Y-119523846D01*
X165626426Y-119523846D02*
X165578807Y-119619084D01*
X165578807Y-119619084D02*
X165483568Y-119714322D01*
X165483568Y-119714322D02*
X165293092Y-119761941D01*
X165293092Y-119761941D02*
X164959759Y-119761941D01*
X164959759Y-119761941D02*
X164769283Y-119714322D01*
X164769283Y-119714322D02*
X164674045Y-119619084D01*
X164674045Y-119619084D02*
X164626426Y-119523846D01*
X165578807Y-118714322D02*
X165626426Y-118571465D01*
X165626426Y-118571465D02*
X165626426Y-118333370D01*
X165626426Y-118333370D02*
X165578807Y-118238132D01*
X165578807Y-118238132D02*
X165531187Y-118190513D01*
X165531187Y-118190513D02*
X165435949Y-118142894D01*
X165435949Y-118142894D02*
X165340711Y-118142894D01*
X165340711Y-118142894D02*
X165245473Y-118190513D01*
X165245473Y-118190513D02*
X165197854Y-118238132D01*
X165197854Y-118238132D02*
X165150235Y-118333370D01*
X165150235Y-118333370D02*
X165102616Y-118523846D01*
X165102616Y-118523846D02*
X165054997Y-118619084D01*
X165054997Y-118619084D02*
X165007378Y-118666703D01*
X165007378Y-118666703D02*
X164912140Y-118714322D01*
X164912140Y-118714322D02*
X164816902Y-118714322D01*
X164816902Y-118714322D02*
X164721664Y-118666703D01*
X164721664Y-118666703D02*
X164674045Y-118619084D01*
X164674045Y-118619084D02*
X164626426Y-118523846D01*
X164626426Y-118523846D02*
X164626426Y-118285751D01*
X164626426Y-118285751D02*
X164674045Y-118142894D01*
X165626426Y-117714322D02*
X164626426Y-117714322D01*
X169706426Y-120238132D02*
X170706426Y-119904799D01*
X170706426Y-119904799D02*
X169706426Y-119571466D01*
X170611187Y-118666704D02*
X170658807Y-118714323D01*
X170658807Y-118714323D02*
X170706426Y-118857180D01*
X170706426Y-118857180D02*
X170706426Y-118952418D01*
X170706426Y-118952418D02*
X170658807Y-119095275D01*
X170658807Y-119095275D02*
X170563568Y-119190513D01*
X170563568Y-119190513D02*
X170468330Y-119238132D01*
X170468330Y-119238132D02*
X170277854Y-119285751D01*
X170277854Y-119285751D02*
X170134997Y-119285751D01*
X170134997Y-119285751D02*
X169944521Y-119238132D01*
X169944521Y-119238132D02*
X169849283Y-119190513D01*
X169849283Y-119190513D02*
X169754045Y-119095275D01*
X169754045Y-119095275D02*
X169706426Y-118952418D01*
X169706426Y-118952418D02*
X169706426Y-118857180D01*
X169706426Y-118857180D02*
X169754045Y-118714323D01*
X169754045Y-118714323D02*
X169801664Y-118666704D01*
X170611187Y-117666704D02*
X170658807Y-117714323D01*
X170658807Y-117714323D02*
X170706426Y-117857180D01*
X170706426Y-117857180D02*
X170706426Y-117952418D01*
X170706426Y-117952418D02*
X170658807Y-118095275D01*
X170658807Y-118095275D02*
X170563568Y-118190513D01*
X170563568Y-118190513D02*
X170468330Y-118238132D01*
X170468330Y-118238132D02*
X170277854Y-118285751D01*
X170277854Y-118285751D02*
X170134997Y-118285751D01*
X170134997Y-118285751D02*
X169944521Y-118238132D01*
X169944521Y-118238132D02*
X169849283Y-118190513D01*
X169849283Y-118190513D02*
X169754045Y-118095275D01*
X169754045Y-118095275D02*
X169706426Y-117952418D01*
X169706426Y-117952418D02*
X169706426Y-117857180D01*
X169706426Y-117857180D02*
X169754045Y-117714323D01*
X169754045Y-117714323D02*
X169801664Y-117666704D01*
X172294045Y-119761942D02*
X172246426Y-119857180D01*
X172246426Y-119857180D02*
X172246426Y-120000037D01*
X172246426Y-120000037D02*
X172294045Y-120142894D01*
X172294045Y-120142894D02*
X172389283Y-120238132D01*
X172389283Y-120238132D02*
X172484521Y-120285751D01*
X172484521Y-120285751D02*
X172674997Y-120333370D01*
X172674997Y-120333370D02*
X172817854Y-120333370D01*
X172817854Y-120333370D02*
X173008330Y-120285751D01*
X173008330Y-120285751D02*
X173103568Y-120238132D01*
X173103568Y-120238132D02*
X173198807Y-120142894D01*
X173198807Y-120142894D02*
X173246426Y-120000037D01*
X173246426Y-120000037D02*
X173246426Y-119904799D01*
X173246426Y-119904799D02*
X173198807Y-119761942D01*
X173198807Y-119761942D02*
X173151187Y-119714323D01*
X173151187Y-119714323D02*
X172817854Y-119714323D01*
X172817854Y-119714323D02*
X172817854Y-119904799D01*
X173246426Y-119285751D02*
X172246426Y-119285751D01*
X172246426Y-119285751D02*
X173246426Y-118714323D01*
X173246426Y-118714323D02*
X172246426Y-118714323D01*
X173246426Y-118238132D02*
X172246426Y-118238132D01*
X172246426Y-118238132D02*
X172246426Y-118000037D01*
X172246426Y-118000037D02*
X172294045Y-117857180D01*
X172294045Y-117857180D02*
X172389283Y-117761942D01*
X172389283Y-117761942D02*
X172484521Y-117714323D01*
X172484521Y-117714323D02*
X172674997Y-117666704D01*
X172674997Y-117666704D02*
X172817854Y-117666704D01*
X172817854Y-117666704D02*
X173008330Y-117714323D01*
X173008330Y-117714323D02*
X173103568Y-117761942D01*
X173103568Y-117761942D02*
X173198807Y-117857180D01*
X173198807Y-117857180D02*
X173246426Y-118000037D01*
X173246426Y-118000037D02*
X173246426Y-118238132D01*
X168118807Y-120238132D02*
X168166426Y-120095275D01*
X168166426Y-120095275D02*
X168166426Y-119857180D01*
X168166426Y-119857180D02*
X168118807Y-119761942D01*
X168118807Y-119761942D02*
X168071187Y-119714323D01*
X168071187Y-119714323D02*
X167975949Y-119666704D01*
X167975949Y-119666704D02*
X167880711Y-119666704D01*
X167880711Y-119666704D02*
X167785473Y-119714323D01*
X167785473Y-119714323D02*
X167737854Y-119761942D01*
X167737854Y-119761942D02*
X167690235Y-119857180D01*
X167690235Y-119857180D02*
X167642616Y-120047656D01*
X167642616Y-120047656D02*
X167594997Y-120142894D01*
X167594997Y-120142894D02*
X167547378Y-120190513D01*
X167547378Y-120190513D02*
X167452140Y-120238132D01*
X167452140Y-120238132D02*
X167356902Y-120238132D01*
X167356902Y-120238132D02*
X167261664Y-120190513D01*
X167261664Y-120190513D02*
X167214045Y-120142894D01*
X167214045Y-120142894D02*
X167166426Y-120047656D01*
X167166426Y-120047656D02*
X167166426Y-119809561D01*
X167166426Y-119809561D02*
X167214045Y-119666704D01*
X168071187Y-118666704D02*
X168118807Y-118714323D01*
X168118807Y-118714323D02*
X168166426Y-118857180D01*
X168166426Y-118857180D02*
X168166426Y-118952418D01*
X168166426Y-118952418D02*
X168118807Y-119095275D01*
X168118807Y-119095275D02*
X168023568Y-119190513D01*
X168023568Y-119190513D02*
X167928330Y-119238132D01*
X167928330Y-119238132D02*
X167737854Y-119285751D01*
X167737854Y-119285751D02*
X167594997Y-119285751D01*
X167594997Y-119285751D02*
X167404521Y-119238132D01*
X167404521Y-119238132D02*
X167309283Y-119190513D01*
X167309283Y-119190513D02*
X167214045Y-119095275D01*
X167214045Y-119095275D02*
X167166426Y-118952418D01*
X167166426Y-118952418D02*
X167166426Y-118857180D01*
X167166426Y-118857180D02*
X167214045Y-118714323D01*
X167214045Y-118714323D02*
X167261664Y-118666704D01*
X168166426Y-118238132D02*
X167166426Y-118238132D01*
X168166426Y-117666704D02*
X167594997Y-118095275D01*
X167166426Y-117666704D02*
X167737854Y-118238132D01*
X180158807Y-119810876D02*
X180206426Y-119668019D01*
X180206426Y-119668019D02*
X180206426Y-119429924D01*
X180206426Y-119429924D02*
X180158807Y-119334686D01*
X180158807Y-119334686D02*
X180111187Y-119287067D01*
X180111187Y-119287067D02*
X180015949Y-119239448D01*
X180015949Y-119239448D02*
X179920711Y-119239448D01*
X179920711Y-119239448D02*
X179825473Y-119287067D01*
X179825473Y-119287067D02*
X179777854Y-119334686D01*
X179777854Y-119334686D02*
X179730235Y-119429924D01*
X179730235Y-119429924D02*
X179682616Y-119620400D01*
X179682616Y-119620400D02*
X179634997Y-119715638D01*
X179634997Y-119715638D02*
X179587378Y-119763257D01*
X179587378Y-119763257D02*
X179492140Y-119810876D01*
X179492140Y-119810876D02*
X179396902Y-119810876D01*
X179396902Y-119810876D02*
X179301664Y-119763257D01*
X179301664Y-119763257D02*
X179254045Y-119715638D01*
X179254045Y-119715638D02*
X179206426Y-119620400D01*
X179206426Y-119620400D02*
X179206426Y-119382305D01*
X179206426Y-119382305D02*
X179254045Y-119239448D01*
X179206426Y-118906114D02*
X180206426Y-118668019D01*
X180206426Y-118668019D02*
X179492140Y-118477543D01*
X179492140Y-118477543D02*
X180206426Y-118287067D01*
X180206426Y-118287067D02*
X179206426Y-118048972D01*
X179301664Y-117715638D02*
X179254045Y-117668019D01*
X179254045Y-117668019D02*
X179206426Y-117572781D01*
X179206426Y-117572781D02*
X179206426Y-117334686D01*
X179206426Y-117334686D02*
X179254045Y-117239448D01*
X179254045Y-117239448D02*
X179301664Y-117191829D01*
X179301664Y-117191829D02*
X179396902Y-117144210D01*
X179396902Y-117144210D02*
X179492140Y-117144210D01*
X179492140Y-117144210D02*
X179634997Y-117191829D01*
X179634997Y-117191829D02*
X180206426Y-117763257D01*
X180206426Y-117763257D02*
X180206426Y-117144210D01*
X246069407Y-117044211D02*
X246021787Y-117187068D01*
X246021787Y-117187068D02*
X246021787Y-117425163D01*
X246021787Y-117425163D02*
X246069407Y-117520401D01*
X246069407Y-117520401D02*
X246117026Y-117568020D01*
X246117026Y-117568020D02*
X246212264Y-117615639D01*
X246212264Y-117615639D02*
X246307502Y-117615639D01*
X246307502Y-117615639D02*
X246402740Y-117568020D01*
X246402740Y-117568020D02*
X246450359Y-117520401D01*
X246450359Y-117520401D02*
X246497978Y-117425163D01*
X246497978Y-117425163D02*
X246545597Y-117234687D01*
X246545597Y-117234687D02*
X246593216Y-117139449D01*
X246593216Y-117139449D02*
X246640835Y-117091830D01*
X246640835Y-117091830D02*
X246736073Y-117044211D01*
X246736073Y-117044211D02*
X246831311Y-117044211D01*
X246831311Y-117044211D02*
X246926549Y-117091830D01*
X246926549Y-117091830D02*
X246974168Y-117139449D01*
X246974168Y-117139449D02*
X247021787Y-117234687D01*
X247021787Y-117234687D02*
X247021787Y-117472782D01*
X247021787Y-117472782D02*
X246974168Y-117615639D01*
X247021787Y-117948973D02*
X246021787Y-118187068D01*
X246021787Y-118187068D02*
X246736073Y-118377544D01*
X246736073Y-118377544D02*
X246021787Y-118568020D01*
X246021787Y-118568020D02*
X247021787Y-118806116D01*
X246688454Y-119615639D02*
X246021787Y-119615639D01*
X247069407Y-119377544D02*
X246355121Y-119139449D01*
X246355121Y-119139449D02*
X246355121Y-119758496D01*
X260713797Y-87339839D02*
X260789987Y-87339839D01*
X260789987Y-87339839D02*
X260866178Y-87377934D01*
X260866178Y-87377934D02*
X260904273Y-87416029D01*
X260904273Y-87416029D02*
X260942368Y-87492220D01*
X260942368Y-87492220D02*
X260980463Y-87644601D01*
X260980463Y-87644601D02*
X260980463Y-87835077D01*
X260980463Y-87835077D02*
X260942368Y-87987458D01*
X260942368Y-87987458D02*
X260904273Y-88063648D01*
X260904273Y-88063648D02*
X260866178Y-88101744D01*
X260866178Y-88101744D02*
X260789987Y-88139839D01*
X260789987Y-88139839D02*
X260713797Y-88139839D01*
X260713797Y-88139839D02*
X260637606Y-88101744D01*
X260637606Y-88101744D02*
X260599511Y-88063648D01*
X260599511Y-88063648D02*
X260561416Y-87987458D01*
X260561416Y-87987458D02*
X260523320Y-87835077D01*
X260523320Y-87835077D02*
X260523320Y-87644601D01*
X260523320Y-87644601D02*
X260561416Y-87492220D01*
X260561416Y-87492220D02*
X260599511Y-87416029D01*
X260599511Y-87416029D02*
X260637606Y-87377934D01*
X260637606Y-87377934D02*
X260713797Y-87339839D01*
X261475702Y-87339839D02*
X261551892Y-87339839D01*
X261551892Y-87339839D02*
X261628083Y-87377934D01*
X261628083Y-87377934D02*
X261666178Y-87416029D01*
X261666178Y-87416029D02*
X261704273Y-87492220D01*
X261704273Y-87492220D02*
X261742368Y-87644601D01*
X261742368Y-87644601D02*
X261742368Y-87835077D01*
X261742368Y-87835077D02*
X261704273Y-87987458D01*
X261704273Y-87987458D02*
X261666178Y-88063648D01*
X261666178Y-88063648D02*
X261628083Y-88101744D01*
X261628083Y-88101744D02*
X261551892Y-88139839D01*
X261551892Y-88139839D02*
X261475702Y-88139839D01*
X261475702Y-88139839D02*
X261399511Y-88101744D01*
X261399511Y-88101744D02*
X261361416Y-88063648D01*
X261361416Y-88063648D02*
X261323321Y-87987458D01*
X261323321Y-87987458D02*
X261285225Y-87835077D01*
X261285225Y-87835077D02*
X261285225Y-87644601D01*
X261285225Y-87644601D02*
X261323321Y-87492220D01*
X261323321Y-87492220D02*
X261361416Y-87416029D01*
X261361416Y-87416029D02*
X261399511Y-87377934D01*
X261399511Y-87377934D02*
X261475702Y-87339839D01*
X262199511Y-87682696D02*
X262123321Y-87644601D01*
X262123321Y-87644601D02*
X262085226Y-87606505D01*
X262085226Y-87606505D02*
X262047130Y-87530315D01*
X262047130Y-87530315D02*
X262047130Y-87492220D01*
X262047130Y-87492220D02*
X262085226Y-87416029D01*
X262085226Y-87416029D02*
X262123321Y-87377934D01*
X262123321Y-87377934D02*
X262199511Y-87339839D01*
X262199511Y-87339839D02*
X262351892Y-87339839D01*
X262351892Y-87339839D02*
X262428083Y-87377934D01*
X262428083Y-87377934D02*
X262466178Y-87416029D01*
X262466178Y-87416029D02*
X262504273Y-87492220D01*
X262504273Y-87492220D02*
X262504273Y-87530315D01*
X262504273Y-87530315D02*
X262466178Y-87606505D01*
X262466178Y-87606505D02*
X262428083Y-87644601D01*
X262428083Y-87644601D02*
X262351892Y-87682696D01*
X262351892Y-87682696D02*
X262199511Y-87682696D01*
X262199511Y-87682696D02*
X262123321Y-87720791D01*
X262123321Y-87720791D02*
X262085226Y-87758886D01*
X262085226Y-87758886D02*
X262047130Y-87835077D01*
X262047130Y-87835077D02*
X262047130Y-87987458D01*
X262047130Y-87987458D02*
X262085226Y-88063648D01*
X262085226Y-88063648D02*
X262123321Y-88101744D01*
X262123321Y-88101744D02*
X262199511Y-88139839D01*
X262199511Y-88139839D02*
X262351892Y-88139839D01*
X262351892Y-88139839D02*
X262428083Y-88101744D01*
X262428083Y-88101744D02*
X262466178Y-88063648D01*
X262466178Y-88063648D02*
X262504273Y-87987458D01*
X262504273Y-87987458D02*
X262504273Y-87835077D01*
X262504273Y-87835077D02*
X262466178Y-87758886D01*
X262466178Y-87758886D02*
X262428083Y-87720791D01*
X262428083Y-87720791D02*
X262351892Y-87682696D01*
X249372749Y-92489839D02*
X249639416Y-93289839D01*
X249639416Y-93289839D02*
X249906082Y-92489839D01*
X250629892Y-93213648D02*
X250591796Y-93251744D01*
X250591796Y-93251744D02*
X250477511Y-93289839D01*
X250477511Y-93289839D02*
X250401320Y-93289839D01*
X250401320Y-93289839D02*
X250287034Y-93251744D01*
X250287034Y-93251744D02*
X250210844Y-93175553D01*
X250210844Y-93175553D02*
X250172749Y-93099363D01*
X250172749Y-93099363D02*
X250134653Y-92946982D01*
X250134653Y-92946982D02*
X250134653Y-92832696D01*
X250134653Y-92832696D02*
X250172749Y-92680315D01*
X250172749Y-92680315D02*
X250210844Y-92604124D01*
X250210844Y-92604124D02*
X250287034Y-92527934D01*
X250287034Y-92527934D02*
X250401320Y-92489839D01*
X250401320Y-92489839D02*
X250477511Y-92489839D01*
X250477511Y-92489839D02*
X250591796Y-92527934D01*
X250591796Y-92527934D02*
X250629892Y-92566029D01*
X251429892Y-93213648D02*
X251391796Y-93251744D01*
X251391796Y-93251744D02*
X251277511Y-93289839D01*
X251277511Y-93289839D02*
X251201320Y-93289839D01*
X251201320Y-93289839D02*
X251087034Y-93251744D01*
X251087034Y-93251744D02*
X251010844Y-93175553D01*
X251010844Y-93175553D02*
X250972749Y-93099363D01*
X250972749Y-93099363D02*
X250934653Y-92946982D01*
X250934653Y-92946982D02*
X250934653Y-92832696D01*
X250934653Y-92832696D02*
X250972749Y-92680315D01*
X250972749Y-92680315D02*
X251010844Y-92604124D01*
X251010844Y-92604124D02*
X251087034Y-92527934D01*
X251087034Y-92527934D02*
X251201320Y-92489839D01*
X251201320Y-92489839D02*
X251277511Y-92489839D01*
X251277511Y-92489839D02*
X251391796Y-92527934D01*
X251391796Y-92527934D02*
X251429892Y-92566029D01*
X260980463Y-111069839D02*
X260523320Y-111069839D01*
X260751892Y-111069839D02*
X260751892Y-110269839D01*
X260751892Y-110269839D02*
X260675701Y-110384124D01*
X260675701Y-110384124D02*
X260599511Y-110460315D01*
X260599511Y-110460315D02*
X260523320Y-110498410D01*
X261475702Y-110269839D02*
X261551892Y-110269839D01*
X261551892Y-110269839D02*
X261628083Y-110307934D01*
X261628083Y-110307934D02*
X261666178Y-110346029D01*
X261666178Y-110346029D02*
X261704273Y-110422220D01*
X261704273Y-110422220D02*
X261742368Y-110574601D01*
X261742368Y-110574601D02*
X261742368Y-110765077D01*
X261742368Y-110765077D02*
X261704273Y-110917458D01*
X261704273Y-110917458D02*
X261666178Y-110993648D01*
X261666178Y-110993648D02*
X261628083Y-111031744D01*
X261628083Y-111031744D02*
X261551892Y-111069839D01*
X261551892Y-111069839D02*
X261475702Y-111069839D01*
X261475702Y-111069839D02*
X261399511Y-111031744D01*
X261399511Y-111031744D02*
X261361416Y-110993648D01*
X261361416Y-110993648D02*
X261323321Y-110917458D01*
X261323321Y-110917458D02*
X261285225Y-110765077D01*
X261285225Y-110765077D02*
X261285225Y-110574601D01*
X261285225Y-110574601D02*
X261323321Y-110422220D01*
X261323321Y-110422220D02*
X261361416Y-110346029D01*
X261361416Y-110346029D02*
X261399511Y-110307934D01*
X261399511Y-110307934D02*
X261475702Y-110269839D01*
X262428083Y-110536505D02*
X262428083Y-111069839D01*
X262237607Y-110231744D02*
X262047130Y-110803172D01*
X262047130Y-110803172D02*
X262542369Y-110803172D01*
X249950511Y-85669839D02*
X249683844Y-85288886D01*
X249493368Y-85669839D02*
X249493368Y-84869839D01*
X249493368Y-84869839D02*
X249798130Y-84869839D01*
X249798130Y-84869839D02*
X249874320Y-84907934D01*
X249874320Y-84907934D02*
X249912415Y-84946029D01*
X249912415Y-84946029D02*
X249950511Y-85022220D01*
X249950511Y-85022220D02*
X249950511Y-85136505D01*
X249950511Y-85136505D02*
X249912415Y-85212696D01*
X249912415Y-85212696D02*
X249874320Y-85250791D01*
X249874320Y-85250791D02*
X249798130Y-85288886D01*
X249798130Y-85288886D02*
X249493368Y-85288886D01*
X250255272Y-85441267D02*
X250636225Y-85441267D01*
X250179082Y-85669839D02*
X250445749Y-84869839D01*
X250445749Y-84869839D02*
X250712415Y-85669839D01*
X250902891Y-84869839D02*
X251093367Y-85669839D01*
X251093367Y-85669839D02*
X251245748Y-85098410D01*
X251245748Y-85098410D02*
X251398129Y-85669839D01*
X251398129Y-85669839D02*
X251588606Y-84869839D01*
X249906082Y-103449839D02*
X249448939Y-103449839D01*
X249677511Y-103449839D02*
X249677511Y-102649839D01*
X249677511Y-102649839D02*
X249601320Y-102764124D01*
X249601320Y-102764124D02*
X249525130Y-102840315D01*
X249525130Y-102840315D02*
X249448939Y-102878410D01*
X250667987Y-103449839D02*
X250210844Y-103449839D01*
X250439416Y-103449839D02*
X250439416Y-102649839D01*
X250439416Y-102649839D02*
X250363225Y-102764124D01*
X250363225Y-102764124D02*
X250287035Y-102840315D01*
X250287035Y-102840315D02*
X250210844Y-102878410D01*
X251391797Y-102649839D02*
X251010845Y-102649839D01*
X251010845Y-102649839D02*
X250972749Y-103030791D01*
X250972749Y-103030791D02*
X251010845Y-102992696D01*
X251010845Y-102992696D02*
X251087035Y-102954601D01*
X251087035Y-102954601D02*
X251277511Y-102954601D01*
X251277511Y-102954601D02*
X251353702Y-102992696D01*
X251353702Y-102992696D02*
X251391797Y-103030791D01*
X251391797Y-103030791D02*
X251429892Y-103106982D01*
X251429892Y-103106982D02*
X251429892Y-103297458D01*
X251429892Y-103297458D02*
X251391797Y-103373648D01*
X251391797Y-103373648D02*
X251353702Y-103411744D01*
X251353702Y-103411744D02*
X251277511Y-103449839D01*
X251277511Y-103449839D02*
X251087035Y-103449839D01*
X251087035Y-103449839D02*
X251010845Y-103411744D01*
X251010845Y-103411744D02*
X250972749Y-103373648D01*
X260828083Y-89987934D02*
X260751893Y-89949839D01*
X260751893Y-89949839D02*
X260637607Y-89949839D01*
X260637607Y-89949839D02*
X260523321Y-89987934D01*
X260523321Y-89987934D02*
X260447131Y-90064124D01*
X260447131Y-90064124D02*
X260409036Y-90140315D01*
X260409036Y-90140315D02*
X260370940Y-90292696D01*
X260370940Y-90292696D02*
X260370940Y-90406982D01*
X260370940Y-90406982D02*
X260409036Y-90559363D01*
X260409036Y-90559363D02*
X260447131Y-90635553D01*
X260447131Y-90635553D02*
X260523321Y-90711744D01*
X260523321Y-90711744D02*
X260637607Y-90749839D01*
X260637607Y-90749839D02*
X260713798Y-90749839D01*
X260713798Y-90749839D02*
X260828083Y-90711744D01*
X260828083Y-90711744D02*
X260866179Y-90673648D01*
X260866179Y-90673648D02*
X260866179Y-90406982D01*
X260866179Y-90406982D02*
X260713798Y-90406982D01*
X261209036Y-90749839D02*
X261209036Y-89949839D01*
X261209036Y-89949839D02*
X261666179Y-90749839D01*
X261666179Y-90749839D02*
X261666179Y-89949839D01*
X262047131Y-90749839D02*
X262047131Y-89949839D01*
X262047131Y-89949839D02*
X262237607Y-89949839D01*
X262237607Y-89949839D02*
X262351893Y-89987934D01*
X262351893Y-89987934D02*
X262428083Y-90064124D01*
X262428083Y-90064124D02*
X262466178Y-90140315D01*
X262466178Y-90140315D02*
X262504274Y-90292696D01*
X262504274Y-90292696D02*
X262504274Y-90406982D01*
X262504274Y-90406982D02*
X262466178Y-90559363D01*
X262466178Y-90559363D02*
X262428083Y-90635553D01*
X262428083Y-90635553D02*
X262351893Y-90711744D01*
X262351893Y-90711744D02*
X262237607Y-90749839D01*
X262237607Y-90749839D02*
X262047131Y-90749839D01*
X260713797Y-95029839D02*
X260789987Y-95029839D01*
X260789987Y-95029839D02*
X260866178Y-95067934D01*
X260866178Y-95067934D02*
X260904273Y-95106029D01*
X260904273Y-95106029D02*
X260942368Y-95182220D01*
X260942368Y-95182220D02*
X260980463Y-95334601D01*
X260980463Y-95334601D02*
X260980463Y-95525077D01*
X260980463Y-95525077D02*
X260942368Y-95677458D01*
X260942368Y-95677458D02*
X260904273Y-95753648D01*
X260904273Y-95753648D02*
X260866178Y-95791744D01*
X260866178Y-95791744D02*
X260789987Y-95829839D01*
X260789987Y-95829839D02*
X260713797Y-95829839D01*
X260713797Y-95829839D02*
X260637606Y-95791744D01*
X260637606Y-95791744D02*
X260599511Y-95753648D01*
X260599511Y-95753648D02*
X260561416Y-95677458D01*
X260561416Y-95677458D02*
X260523320Y-95525077D01*
X260523320Y-95525077D02*
X260523320Y-95334601D01*
X260523320Y-95334601D02*
X260561416Y-95182220D01*
X260561416Y-95182220D02*
X260599511Y-95106029D01*
X260599511Y-95106029D02*
X260637606Y-95067934D01*
X260637606Y-95067934D02*
X260713797Y-95029839D01*
X261742368Y-95829839D02*
X261285225Y-95829839D01*
X261513797Y-95829839D02*
X261513797Y-95029839D01*
X261513797Y-95029839D02*
X261437606Y-95144124D01*
X261437606Y-95144124D02*
X261361416Y-95220315D01*
X261361416Y-95220315D02*
X261285225Y-95258410D01*
X262009035Y-95029839D02*
X262542369Y-95029839D01*
X262542369Y-95029839D02*
X262199511Y-95829839D01*
X260713797Y-102639839D02*
X260789987Y-102639839D01*
X260789987Y-102639839D02*
X260866178Y-102677934D01*
X260866178Y-102677934D02*
X260904273Y-102716029D01*
X260904273Y-102716029D02*
X260942368Y-102792220D01*
X260942368Y-102792220D02*
X260980463Y-102944601D01*
X260980463Y-102944601D02*
X260980463Y-103135077D01*
X260980463Y-103135077D02*
X260942368Y-103287458D01*
X260942368Y-103287458D02*
X260904273Y-103363648D01*
X260904273Y-103363648D02*
X260866178Y-103401744D01*
X260866178Y-103401744D02*
X260789987Y-103439839D01*
X260789987Y-103439839D02*
X260713797Y-103439839D01*
X260713797Y-103439839D02*
X260637606Y-103401744D01*
X260637606Y-103401744D02*
X260599511Y-103363648D01*
X260599511Y-103363648D02*
X260561416Y-103287458D01*
X260561416Y-103287458D02*
X260523320Y-103135077D01*
X260523320Y-103135077D02*
X260523320Y-102944601D01*
X260523320Y-102944601D02*
X260561416Y-102792220D01*
X260561416Y-102792220D02*
X260599511Y-102716029D01*
X260599511Y-102716029D02*
X260637606Y-102677934D01*
X260637606Y-102677934D02*
X260713797Y-102639839D01*
X261285225Y-102716029D02*
X261323321Y-102677934D01*
X261323321Y-102677934D02*
X261399511Y-102639839D01*
X261399511Y-102639839D02*
X261589987Y-102639839D01*
X261589987Y-102639839D02*
X261666178Y-102677934D01*
X261666178Y-102677934D02*
X261704273Y-102716029D01*
X261704273Y-102716029D02*
X261742368Y-102792220D01*
X261742368Y-102792220D02*
X261742368Y-102868410D01*
X261742368Y-102868410D02*
X261704273Y-102982696D01*
X261704273Y-102982696D02*
X261247130Y-103439839D01*
X261247130Y-103439839D02*
X261742368Y-103439839D01*
X262428083Y-102906505D02*
X262428083Y-103439839D01*
X262237607Y-102601744D02*
X262047130Y-103173172D01*
X262047130Y-103173172D02*
X262542369Y-103173172D01*
X249906082Y-105989839D02*
X249448939Y-105989839D01*
X249677511Y-105989839D02*
X249677511Y-105189839D01*
X249677511Y-105189839D02*
X249601320Y-105304124D01*
X249601320Y-105304124D02*
X249525130Y-105380315D01*
X249525130Y-105380315D02*
X249448939Y-105418410D01*
X250667987Y-105989839D02*
X250210844Y-105989839D01*
X250439416Y-105989839D02*
X250439416Y-105189839D01*
X250439416Y-105189839D02*
X250363225Y-105304124D01*
X250363225Y-105304124D02*
X250287035Y-105380315D01*
X250287035Y-105380315D02*
X250210844Y-105418410D01*
X250934654Y-105189839D02*
X251429892Y-105189839D01*
X251429892Y-105189839D02*
X251163226Y-105494601D01*
X251163226Y-105494601D02*
X251277511Y-105494601D01*
X251277511Y-105494601D02*
X251353702Y-105532696D01*
X251353702Y-105532696D02*
X251391797Y-105570791D01*
X251391797Y-105570791D02*
X251429892Y-105646982D01*
X251429892Y-105646982D02*
X251429892Y-105837458D01*
X251429892Y-105837458D02*
X251391797Y-105913648D01*
X251391797Y-105913648D02*
X251353702Y-105951744D01*
X251353702Y-105951744D02*
X251277511Y-105989839D01*
X251277511Y-105989839D02*
X251048940Y-105989839D01*
X251048940Y-105989839D02*
X250972749Y-105951744D01*
X250972749Y-105951744D02*
X250934654Y-105913648D01*
X249950512Y-90749839D02*
X249683845Y-90368886D01*
X249493369Y-90749839D02*
X249493369Y-89949839D01*
X249493369Y-89949839D02*
X249798131Y-89949839D01*
X249798131Y-89949839D02*
X249874321Y-89987934D01*
X249874321Y-89987934D02*
X249912416Y-90026029D01*
X249912416Y-90026029D02*
X249950512Y-90102220D01*
X249950512Y-90102220D02*
X249950512Y-90216505D01*
X249950512Y-90216505D02*
X249912416Y-90292696D01*
X249912416Y-90292696D02*
X249874321Y-90330791D01*
X249874321Y-90330791D02*
X249798131Y-90368886D01*
X249798131Y-90368886D02*
X249493369Y-90368886D01*
X250255273Y-90711744D02*
X250369559Y-90749839D01*
X250369559Y-90749839D02*
X250560035Y-90749839D01*
X250560035Y-90749839D02*
X250636226Y-90711744D01*
X250636226Y-90711744D02*
X250674321Y-90673648D01*
X250674321Y-90673648D02*
X250712416Y-90597458D01*
X250712416Y-90597458D02*
X250712416Y-90521267D01*
X250712416Y-90521267D02*
X250674321Y-90445077D01*
X250674321Y-90445077D02*
X250636226Y-90406982D01*
X250636226Y-90406982D02*
X250560035Y-90368886D01*
X250560035Y-90368886D02*
X250407654Y-90330791D01*
X250407654Y-90330791D02*
X250331464Y-90292696D01*
X250331464Y-90292696D02*
X250293369Y-90254601D01*
X250293369Y-90254601D02*
X250255273Y-90178410D01*
X250255273Y-90178410D02*
X250255273Y-90102220D01*
X250255273Y-90102220D02*
X250293369Y-90026029D01*
X250293369Y-90026029D02*
X250331464Y-89987934D01*
X250331464Y-89987934D02*
X250407654Y-89949839D01*
X250407654Y-89949839D02*
X250598131Y-89949839D01*
X250598131Y-89949839D02*
X250712416Y-89987934D01*
X250940988Y-89949839D02*
X251398131Y-89949839D01*
X251169559Y-90749839D02*
X251169559Y-89949839D01*
X260980463Y-105989839D02*
X260523320Y-105989839D01*
X260751892Y-105989839D02*
X260751892Y-105189839D01*
X260751892Y-105189839D02*
X260675701Y-105304124D01*
X260675701Y-105304124D02*
X260599511Y-105380315D01*
X260599511Y-105380315D02*
X260523320Y-105418410D01*
X261475702Y-105189839D02*
X261551892Y-105189839D01*
X261551892Y-105189839D02*
X261628083Y-105227934D01*
X261628083Y-105227934D02*
X261666178Y-105266029D01*
X261666178Y-105266029D02*
X261704273Y-105342220D01*
X261704273Y-105342220D02*
X261742368Y-105494601D01*
X261742368Y-105494601D02*
X261742368Y-105685077D01*
X261742368Y-105685077D02*
X261704273Y-105837458D01*
X261704273Y-105837458D02*
X261666178Y-105913648D01*
X261666178Y-105913648D02*
X261628083Y-105951744D01*
X261628083Y-105951744D02*
X261551892Y-105989839D01*
X261551892Y-105989839D02*
X261475702Y-105989839D01*
X261475702Y-105989839D02*
X261399511Y-105951744D01*
X261399511Y-105951744D02*
X261361416Y-105913648D01*
X261361416Y-105913648D02*
X261323321Y-105837458D01*
X261323321Y-105837458D02*
X261285225Y-105685077D01*
X261285225Y-105685077D02*
X261285225Y-105494601D01*
X261285225Y-105494601D02*
X261323321Y-105342220D01*
X261323321Y-105342220D02*
X261361416Y-105266029D01*
X261361416Y-105266029D02*
X261399511Y-105227934D01*
X261399511Y-105227934D02*
X261475702Y-105189839D01*
X262237607Y-105189839D02*
X262313797Y-105189839D01*
X262313797Y-105189839D02*
X262389988Y-105227934D01*
X262389988Y-105227934D02*
X262428083Y-105266029D01*
X262428083Y-105266029D02*
X262466178Y-105342220D01*
X262466178Y-105342220D02*
X262504273Y-105494601D01*
X262504273Y-105494601D02*
X262504273Y-105685077D01*
X262504273Y-105685077D02*
X262466178Y-105837458D01*
X262466178Y-105837458D02*
X262428083Y-105913648D01*
X262428083Y-105913648D02*
X262389988Y-105951744D01*
X262389988Y-105951744D02*
X262313797Y-105989839D01*
X262313797Y-105989839D02*
X262237607Y-105989839D01*
X262237607Y-105989839D02*
X262161416Y-105951744D01*
X262161416Y-105951744D02*
X262123321Y-105913648D01*
X262123321Y-105913648D02*
X262085226Y-105837458D01*
X262085226Y-105837458D02*
X262047130Y-105685077D01*
X262047130Y-105685077D02*
X262047130Y-105494601D01*
X262047130Y-105494601D02*
X262085226Y-105342220D01*
X262085226Y-105342220D02*
X262123321Y-105266029D01*
X262123321Y-105266029D02*
X262161416Y-105227934D01*
X262161416Y-105227934D02*
X262237607Y-105189839D01*
X249906082Y-108529839D02*
X249448939Y-108529839D01*
X249677511Y-108529839D02*
X249677511Y-107729839D01*
X249677511Y-107729839D02*
X249601320Y-107844124D01*
X249601320Y-107844124D02*
X249525130Y-107920315D01*
X249525130Y-107920315D02*
X249448939Y-107958410D01*
X250667987Y-108529839D02*
X250210844Y-108529839D01*
X250439416Y-108529839D02*
X250439416Y-107729839D01*
X250439416Y-107729839D02*
X250363225Y-107844124D01*
X250363225Y-107844124D02*
X250287035Y-107920315D01*
X250287035Y-107920315D02*
X250210844Y-107958410D01*
X251429892Y-108529839D02*
X250972749Y-108529839D01*
X251201321Y-108529839D02*
X251201321Y-107729839D01*
X251201321Y-107729839D02*
X251125130Y-107844124D01*
X251125130Y-107844124D02*
X251048940Y-107920315D01*
X251048940Y-107920315D02*
X250972749Y-107958410D01*
X249639416Y-110269839D02*
X249715606Y-110269839D01*
X249715606Y-110269839D02*
X249791797Y-110307934D01*
X249791797Y-110307934D02*
X249829892Y-110346029D01*
X249829892Y-110346029D02*
X249867987Y-110422220D01*
X249867987Y-110422220D02*
X249906082Y-110574601D01*
X249906082Y-110574601D02*
X249906082Y-110765077D01*
X249906082Y-110765077D02*
X249867987Y-110917458D01*
X249867987Y-110917458D02*
X249829892Y-110993648D01*
X249829892Y-110993648D02*
X249791797Y-111031744D01*
X249791797Y-111031744D02*
X249715606Y-111069839D01*
X249715606Y-111069839D02*
X249639416Y-111069839D01*
X249639416Y-111069839D02*
X249563225Y-111031744D01*
X249563225Y-111031744D02*
X249525130Y-110993648D01*
X249525130Y-110993648D02*
X249487035Y-110917458D01*
X249487035Y-110917458D02*
X249448939Y-110765077D01*
X249448939Y-110765077D02*
X249448939Y-110574601D01*
X249448939Y-110574601D02*
X249487035Y-110422220D01*
X249487035Y-110422220D02*
X249525130Y-110346029D01*
X249525130Y-110346029D02*
X249563225Y-110307934D01*
X249563225Y-110307934D02*
X249639416Y-110269839D01*
X250667987Y-111069839D02*
X250210844Y-111069839D01*
X250439416Y-111069839D02*
X250439416Y-110269839D01*
X250439416Y-110269839D02*
X250363225Y-110384124D01*
X250363225Y-110384124D02*
X250287035Y-110460315D01*
X250287035Y-110460315D02*
X250210844Y-110498410D01*
X251163226Y-110269839D02*
X251239416Y-110269839D01*
X251239416Y-110269839D02*
X251315607Y-110307934D01*
X251315607Y-110307934D02*
X251353702Y-110346029D01*
X251353702Y-110346029D02*
X251391797Y-110422220D01*
X251391797Y-110422220D02*
X251429892Y-110574601D01*
X251429892Y-110574601D02*
X251429892Y-110765077D01*
X251429892Y-110765077D02*
X251391797Y-110917458D01*
X251391797Y-110917458D02*
X251353702Y-110993648D01*
X251353702Y-110993648D02*
X251315607Y-111031744D01*
X251315607Y-111031744D02*
X251239416Y-111069839D01*
X251239416Y-111069839D02*
X251163226Y-111069839D01*
X251163226Y-111069839D02*
X251087035Y-111031744D01*
X251087035Y-111031744D02*
X251048940Y-110993648D01*
X251048940Y-110993648D02*
X251010845Y-110917458D01*
X251010845Y-110917458D02*
X250972749Y-110765077D01*
X250972749Y-110765077D02*
X250972749Y-110574601D01*
X250972749Y-110574601D02*
X251010845Y-110422220D01*
X251010845Y-110422220D02*
X251048940Y-110346029D01*
X251048940Y-110346029D02*
X251087035Y-110307934D01*
X251087035Y-110307934D02*
X251163226Y-110269839D01*
X260713797Y-97639839D02*
X260789987Y-97639839D01*
X260789987Y-97639839D02*
X260866178Y-97677934D01*
X260866178Y-97677934D02*
X260904273Y-97716029D01*
X260904273Y-97716029D02*
X260942368Y-97792220D01*
X260942368Y-97792220D02*
X260980463Y-97944601D01*
X260980463Y-97944601D02*
X260980463Y-98135077D01*
X260980463Y-98135077D02*
X260942368Y-98287458D01*
X260942368Y-98287458D02*
X260904273Y-98363648D01*
X260904273Y-98363648D02*
X260866178Y-98401744D01*
X260866178Y-98401744D02*
X260789987Y-98439839D01*
X260789987Y-98439839D02*
X260713797Y-98439839D01*
X260713797Y-98439839D02*
X260637606Y-98401744D01*
X260637606Y-98401744D02*
X260599511Y-98363648D01*
X260599511Y-98363648D02*
X260561416Y-98287458D01*
X260561416Y-98287458D02*
X260523320Y-98135077D01*
X260523320Y-98135077D02*
X260523320Y-97944601D01*
X260523320Y-97944601D02*
X260561416Y-97792220D01*
X260561416Y-97792220D02*
X260599511Y-97716029D01*
X260599511Y-97716029D02*
X260637606Y-97677934D01*
X260637606Y-97677934D02*
X260713797Y-97639839D01*
X261285225Y-97716029D02*
X261323321Y-97677934D01*
X261323321Y-97677934D02*
X261399511Y-97639839D01*
X261399511Y-97639839D02*
X261589987Y-97639839D01*
X261589987Y-97639839D02*
X261666178Y-97677934D01*
X261666178Y-97677934D02*
X261704273Y-97716029D01*
X261704273Y-97716029D02*
X261742368Y-97792220D01*
X261742368Y-97792220D02*
X261742368Y-97868410D01*
X261742368Y-97868410D02*
X261704273Y-97982696D01*
X261704273Y-97982696D02*
X261247130Y-98439839D01*
X261247130Y-98439839D02*
X261742368Y-98439839D01*
X262237607Y-97639839D02*
X262313797Y-97639839D01*
X262313797Y-97639839D02*
X262389988Y-97677934D01*
X262389988Y-97677934D02*
X262428083Y-97716029D01*
X262428083Y-97716029D02*
X262466178Y-97792220D01*
X262466178Y-97792220D02*
X262504273Y-97944601D01*
X262504273Y-97944601D02*
X262504273Y-98135077D01*
X262504273Y-98135077D02*
X262466178Y-98287458D01*
X262466178Y-98287458D02*
X262428083Y-98363648D01*
X262428083Y-98363648D02*
X262389988Y-98401744D01*
X262389988Y-98401744D02*
X262313797Y-98439839D01*
X262313797Y-98439839D02*
X262237607Y-98439839D01*
X262237607Y-98439839D02*
X262161416Y-98401744D01*
X262161416Y-98401744D02*
X262123321Y-98363648D01*
X262123321Y-98363648D02*
X262085226Y-98287458D01*
X262085226Y-98287458D02*
X262047130Y-98135077D01*
X262047130Y-98135077D02*
X262047130Y-97944601D01*
X262047130Y-97944601D02*
X262085226Y-97792220D01*
X262085226Y-97792220D02*
X262123321Y-97716029D01*
X262123321Y-97716029D02*
X262161416Y-97677934D01*
X262161416Y-97677934D02*
X262237607Y-97639839D01*
X260713797Y-100139839D02*
X260789987Y-100139839D01*
X260789987Y-100139839D02*
X260866178Y-100177934D01*
X260866178Y-100177934D02*
X260904273Y-100216029D01*
X260904273Y-100216029D02*
X260942368Y-100292220D01*
X260942368Y-100292220D02*
X260980463Y-100444601D01*
X260980463Y-100444601D02*
X260980463Y-100635077D01*
X260980463Y-100635077D02*
X260942368Y-100787458D01*
X260942368Y-100787458D02*
X260904273Y-100863648D01*
X260904273Y-100863648D02*
X260866178Y-100901744D01*
X260866178Y-100901744D02*
X260789987Y-100939839D01*
X260789987Y-100939839D02*
X260713797Y-100939839D01*
X260713797Y-100939839D02*
X260637606Y-100901744D01*
X260637606Y-100901744D02*
X260599511Y-100863648D01*
X260599511Y-100863648D02*
X260561416Y-100787458D01*
X260561416Y-100787458D02*
X260523320Y-100635077D01*
X260523320Y-100635077D02*
X260523320Y-100444601D01*
X260523320Y-100444601D02*
X260561416Y-100292220D01*
X260561416Y-100292220D02*
X260599511Y-100216029D01*
X260599511Y-100216029D02*
X260637606Y-100177934D01*
X260637606Y-100177934D02*
X260713797Y-100139839D01*
X261285225Y-100216029D02*
X261323321Y-100177934D01*
X261323321Y-100177934D02*
X261399511Y-100139839D01*
X261399511Y-100139839D02*
X261589987Y-100139839D01*
X261589987Y-100139839D02*
X261666178Y-100177934D01*
X261666178Y-100177934D02*
X261704273Y-100216029D01*
X261704273Y-100216029D02*
X261742368Y-100292220D01*
X261742368Y-100292220D02*
X261742368Y-100368410D01*
X261742368Y-100368410D02*
X261704273Y-100482696D01*
X261704273Y-100482696D02*
X261247130Y-100939839D01*
X261247130Y-100939839D02*
X261742368Y-100939839D01*
X262047130Y-100216029D02*
X262085226Y-100177934D01*
X262085226Y-100177934D02*
X262161416Y-100139839D01*
X262161416Y-100139839D02*
X262351892Y-100139839D01*
X262351892Y-100139839D02*
X262428083Y-100177934D01*
X262428083Y-100177934D02*
X262466178Y-100216029D01*
X262466178Y-100216029D02*
X262504273Y-100292220D01*
X262504273Y-100292220D02*
X262504273Y-100368410D01*
X262504273Y-100368410D02*
X262466178Y-100482696D01*
X262466178Y-100482696D02*
X262009035Y-100939839D01*
X262009035Y-100939839D02*
X262504273Y-100939839D01*
X249639416Y-95029839D02*
X249715606Y-95029839D01*
X249715606Y-95029839D02*
X249791797Y-95067934D01*
X249791797Y-95067934D02*
X249829892Y-95106029D01*
X249829892Y-95106029D02*
X249867987Y-95182220D01*
X249867987Y-95182220D02*
X249906082Y-95334601D01*
X249906082Y-95334601D02*
X249906082Y-95525077D01*
X249906082Y-95525077D02*
X249867987Y-95677458D01*
X249867987Y-95677458D02*
X249829892Y-95753648D01*
X249829892Y-95753648D02*
X249791797Y-95791744D01*
X249791797Y-95791744D02*
X249715606Y-95829839D01*
X249715606Y-95829839D02*
X249639416Y-95829839D01*
X249639416Y-95829839D02*
X249563225Y-95791744D01*
X249563225Y-95791744D02*
X249525130Y-95753648D01*
X249525130Y-95753648D02*
X249487035Y-95677458D01*
X249487035Y-95677458D02*
X249448939Y-95525077D01*
X249448939Y-95525077D02*
X249448939Y-95334601D01*
X249448939Y-95334601D02*
X249487035Y-95182220D01*
X249487035Y-95182220D02*
X249525130Y-95106029D01*
X249525130Y-95106029D02*
X249563225Y-95067934D01*
X249563225Y-95067934D02*
X249639416Y-95029839D01*
X250172749Y-95029839D02*
X250667987Y-95029839D01*
X250667987Y-95029839D02*
X250401321Y-95334601D01*
X250401321Y-95334601D02*
X250515606Y-95334601D01*
X250515606Y-95334601D02*
X250591797Y-95372696D01*
X250591797Y-95372696D02*
X250629892Y-95410791D01*
X250629892Y-95410791D02*
X250667987Y-95486982D01*
X250667987Y-95486982D02*
X250667987Y-95677458D01*
X250667987Y-95677458D02*
X250629892Y-95753648D01*
X250629892Y-95753648D02*
X250591797Y-95791744D01*
X250591797Y-95791744D02*
X250515606Y-95829839D01*
X250515606Y-95829839D02*
X250287035Y-95829839D01*
X250287035Y-95829839D02*
X250210844Y-95791744D01*
X250210844Y-95791744D02*
X250172749Y-95753648D01*
X251429892Y-95829839D02*
X250972749Y-95829839D01*
X251201321Y-95829839D02*
X251201321Y-95029839D01*
X251201321Y-95029839D02*
X251125130Y-95144124D01*
X251125130Y-95144124D02*
X251048940Y-95220315D01*
X251048940Y-95220315D02*
X250972749Y-95258410D01*
X260828083Y-92527934D02*
X260751893Y-92489839D01*
X260751893Y-92489839D02*
X260637607Y-92489839D01*
X260637607Y-92489839D02*
X260523321Y-92527934D01*
X260523321Y-92527934D02*
X260447131Y-92604124D01*
X260447131Y-92604124D02*
X260409036Y-92680315D01*
X260409036Y-92680315D02*
X260370940Y-92832696D01*
X260370940Y-92832696D02*
X260370940Y-92946982D01*
X260370940Y-92946982D02*
X260409036Y-93099363D01*
X260409036Y-93099363D02*
X260447131Y-93175553D01*
X260447131Y-93175553D02*
X260523321Y-93251744D01*
X260523321Y-93251744D02*
X260637607Y-93289839D01*
X260637607Y-93289839D02*
X260713798Y-93289839D01*
X260713798Y-93289839D02*
X260828083Y-93251744D01*
X260828083Y-93251744D02*
X260866179Y-93213648D01*
X260866179Y-93213648D02*
X260866179Y-92946982D01*
X260866179Y-92946982D02*
X260713798Y-92946982D01*
X261209036Y-93289839D02*
X261209036Y-92489839D01*
X261209036Y-92489839D02*
X261666179Y-93289839D01*
X261666179Y-93289839D02*
X261666179Y-92489839D01*
X262047131Y-93289839D02*
X262047131Y-92489839D01*
X262047131Y-92489839D02*
X262237607Y-92489839D01*
X262237607Y-92489839D02*
X262351893Y-92527934D01*
X262351893Y-92527934D02*
X262428083Y-92604124D01*
X262428083Y-92604124D02*
X262466178Y-92680315D01*
X262466178Y-92680315D02*
X262504274Y-92832696D01*
X262504274Y-92832696D02*
X262504274Y-92946982D01*
X262504274Y-92946982D02*
X262466178Y-93099363D01*
X262466178Y-93099363D02*
X262428083Y-93175553D01*
X262428083Y-93175553D02*
X262351893Y-93251744D01*
X262351893Y-93251744D02*
X262237607Y-93289839D01*
X262237607Y-93289839D02*
X262047131Y-93289839D01*
X249639416Y-100109839D02*
X249715606Y-100109839D01*
X249715606Y-100109839D02*
X249791797Y-100147934D01*
X249791797Y-100147934D02*
X249829892Y-100186029D01*
X249829892Y-100186029D02*
X249867987Y-100262220D01*
X249867987Y-100262220D02*
X249906082Y-100414601D01*
X249906082Y-100414601D02*
X249906082Y-100605077D01*
X249906082Y-100605077D02*
X249867987Y-100757458D01*
X249867987Y-100757458D02*
X249829892Y-100833648D01*
X249829892Y-100833648D02*
X249791797Y-100871744D01*
X249791797Y-100871744D02*
X249715606Y-100909839D01*
X249715606Y-100909839D02*
X249639416Y-100909839D01*
X249639416Y-100909839D02*
X249563225Y-100871744D01*
X249563225Y-100871744D02*
X249525130Y-100833648D01*
X249525130Y-100833648D02*
X249487035Y-100757458D01*
X249487035Y-100757458D02*
X249448939Y-100605077D01*
X249448939Y-100605077D02*
X249448939Y-100414601D01*
X249448939Y-100414601D02*
X249487035Y-100262220D01*
X249487035Y-100262220D02*
X249525130Y-100186029D01*
X249525130Y-100186029D02*
X249563225Y-100147934D01*
X249563225Y-100147934D02*
X249639416Y-100109839D01*
X250401321Y-100109839D02*
X250477511Y-100109839D01*
X250477511Y-100109839D02*
X250553702Y-100147934D01*
X250553702Y-100147934D02*
X250591797Y-100186029D01*
X250591797Y-100186029D02*
X250629892Y-100262220D01*
X250629892Y-100262220D02*
X250667987Y-100414601D01*
X250667987Y-100414601D02*
X250667987Y-100605077D01*
X250667987Y-100605077D02*
X250629892Y-100757458D01*
X250629892Y-100757458D02*
X250591797Y-100833648D01*
X250591797Y-100833648D02*
X250553702Y-100871744D01*
X250553702Y-100871744D02*
X250477511Y-100909839D01*
X250477511Y-100909839D02*
X250401321Y-100909839D01*
X250401321Y-100909839D02*
X250325130Y-100871744D01*
X250325130Y-100871744D02*
X250287035Y-100833648D01*
X250287035Y-100833648D02*
X250248940Y-100757458D01*
X250248940Y-100757458D02*
X250210844Y-100605077D01*
X250210844Y-100605077D02*
X250210844Y-100414601D01*
X250210844Y-100414601D02*
X250248940Y-100262220D01*
X250248940Y-100262220D02*
X250287035Y-100186029D01*
X250287035Y-100186029D02*
X250325130Y-100147934D01*
X250325130Y-100147934D02*
X250401321Y-100109839D01*
X250972749Y-100186029D02*
X251010845Y-100147934D01*
X251010845Y-100147934D02*
X251087035Y-100109839D01*
X251087035Y-100109839D02*
X251277511Y-100109839D01*
X251277511Y-100109839D02*
X251353702Y-100147934D01*
X251353702Y-100147934D02*
X251391797Y-100186029D01*
X251391797Y-100186029D02*
X251429892Y-100262220D01*
X251429892Y-100262220D02*
X251429892Y-100338410D01*
X251429892Y-100338410D02*
X251391797Y-100452696D01*
X251391797Y-100452696D02*
X250934654Y-100909839D01*
X250934654Y-100909839D02*
X251429892Y-100909839D01*
X249639416Y-97569839D02*
X249715606Y-97569839D01*
X249715606Y-97569839D02*
X249791797Y-97607934D01*
X249791797Y-97607934D02*
X249829892Y-97646029D01*
X249829892Y-97646029D02*
X249867987Y-97722220D01*
X249867987Y-97722220D02*
X249906082Y-97874601D01*
X249906082Y-97874601D02*
X249906082Y-98065077D01*
X249906082Y-98065077D02*
X249867987Y-98217458D01*
X249867987Y-98217458D02*
X249829892Y-98293648D01*
X249829892Y-98293648D02*
X249791797Y-98331744D01*
X249791797Y-98331744D02*
X249715606Y-98369839D01*
X249715606Y-98369839D02*
X249639416Y-98369839D01*
X249639416Y-98369839D02*
X249563225Y-98331744D01*
X249563225Y-98331744D02*
X249525130Y-98293648D01*
X249525130Y-98293648D02*
X249487035Y-98217458D01*
X249487035Y-98217458D02*
X249448939Y-98065077D01*
X249448939Y-98065077D02*
X249448939Y-97874601D01*
X249448939Y-97874601D02*
X249487035Y-97722220D01*
X249487035Y-97722220D02*
X249525130Y-97646029D01*
X249525130Y-97646029D02*
X249563225Y-97607934D01*
X249563225Y-97607934D02*
X249639416Y-97569839D01*
X250210844Y-97646029D02*
X250248940Y-97607934D01*
X250248940Y-97607934D02*
X250325130Y-97569839D01*
X250325130Y-97569839D02*
X250515606Y-97569839D01*
X250515606Y-97569839D02*
X250591797Y-97607934D01*
X250591797Y-97607934D02*
X250629892Y-97646029D01*
X250629892Y-97646029D02*
X250667987Y-97722220D01*
X250667987Y-97722220D02*
X250667987Y-97798410D01*
X250667987Y-97798410D02*
X250629892Y-97912696D01*
X250629892Y-97912696D02*
X250172749Y-98369839D01*
X250172749Y-98369839D02*
X250667987Y-98369839D01*
X251048940Y-98369839D02*
X251201321Y-98369839D01*
X251201321Y-98369839D02*
X251277511Y-98331744D01*
X251277511Y-98331744D02*
X251315607Y-98293648D01*
X251315607Y-98293648D02*
X251391797Y-98179363D01*
X251391797Y-98179363D02*
X251429892Y-98026982D01*
X251429892Y-98026982D02*
X251429892Y-97722220D01*
X251429892Y-97722220D02*
X251391797Y-97646029D01*
X251391797Y-97646029D02*
X251353702Y-97607934D01*
X251353702Y-97607934D02*
X251277511Y-97569839D01*
X251277511Y-97569839D02*
X251125130Y-97569839D01*
X251125130Y-97569839D02*
X251048940Y-97607934D01*
X251048940Y-97607934D02*
X251010845Y-97646029D01*
X251010845Y-97646029D02*
X250972749Y-97722220D01*
X250972749Y-97722220D02*
X250972749Y-97912696D01*
X250972749Y-97912696D02*
X251010845Y-97988886D01*
X251010845Y-97988886D02*
X251048940Y-98026982D01*
X251048940Y-98026982D02*
X251125130Y-98065077D01*
X251125130Y-98065077D02*
X251277511Y-98065077D01*
X251277511Y-98065077D02*
X251353702Y-98026982D01*
X251353702Y-98026982D02*
X251391797Y-97988886D01*
X251391797Y-97988886D02*
X251429892Y-97912696D01*
X249912416Y-87447934D02*
X249836226Y-87409839D01*
X249836226Y-87409839D02*
X249721940Y-87409839D01*
X249721940Y-87409839D02*
X249607654Y-87447934D01*
X249607654Y-87447934D02*
X249531464Y-87524124D01*
X249531464Y-87524124D02*
X249493369Y-87600315D01*
X249493369Y-87600315D02*
X249455273Y-87752696D01*
X249455273Y-87752696D02*
X249455273Y-87866982D01*
X249455273Y-87866982D02*
X249493369Y-88019363D01*
X249493369Y-88019363D02*
X249531464Y-88095553D01*
X249531464Y-88095553D02*
X249607654Y-88171744D01*
X249607654Y-88171744D02*
X249721940Y-88209839D01*
X249721940Y-88209839D02*
X249798131Y-88209839D01*
X249798131Y-88209839D02*
X249912416Y-88171744D01*
X249912416Y-88171744D02*
X249950512Y-88133648D01*
X249950512Y-88133648D02*
X249950512Y-87866982D01*
X249950512Y-87866982D02*
X249798131Y-87866982D01*
X250293369Y-88209839D02*
X250293369Y-87409839D01*
X250293369Y-87409839D02*
X250750512Y-88209839D01*
X250750512Y-88209839D02*
X250750512Y-87409839D01*
X251131464Y-88209839D02*
X251131464Y-87409839D01*
X251131464Y-87409839D02*
X251321940Y-87409839D01*
X251321940Y-87409839D02*
X251436226Y-87447934D01*
X251436226Y-87447934D02*
X251512416Y-87524124D01*
X251512416Y-87524124D02*
X251550511Y-87600315D01*
X251550511Y-87600315D02*
X251588607Y-87752696D01*
X251588607Y-87752696D02*
X251588607Y-87866982D01*
X251588607Y-87866982D02*
X251550511Y-88019363D01*
X251550511Y-88019363D02*
X251512416Y-88095553D01*
X251512416Y-88095553D02*
X251436226Y-88171744D01*
X251436226Y-88171744D02*
X251321940Y-88209839D01*
X251321940Y-88209839D02*
X251131464Y-88209839D01*
X260713797Y-84869839D02*
X260789987Y-84869839D01*
X260789987Y-84869839D02*
X260866178Y-84907934D01*
X260866178Y-84907934D02*
X260904273Y-84946029D01*
X260904273Y-84946029D02*
X260942368Y-85022220D01*
X260942368Y-85022220D02*
X260980463Y-85174601D01*
X260980463Y-85174601D02*
X260980463Y-85365077D01*
X260980463Y-85365077D02*
X260942368Y-85517458D01*
X260942368Y-85517458D02*
X260904273Y-85593648D01*
X260904273Y-85593648D02*
X260866178Y-85631744D01*
X260866178Y-85631744D02*
X260789987Y-85669839D01*
X260789987Y-85669839D02*
X260713797Y-85669839D01*
X260713797Y-85669839D02*
X260637606Y-85631744D01*
X260637606Y-85631744D02*
X260599511Y-85593648D01*
X260599511Y-85593648D02*
X260561416Y-85517458D01*
X260561416Y-85517458D02*
X260523320Y-85365077D01*
X260523320Y-85365077D02*
X260523320Y-85174601D01*
X260523320Y-85174601D02*
X260561416Y-85022220D01*
X260561416Y-85022220D02*
X260599511Y-84946029D01*
X260599511Y-84946029D02*
X260637606Y-84907934D01*
X260637606Y-84907934D02*
X260713797Y-84869839D01*
X261475702Y-84869839D02*
X261551892Y-84869839D01*
X261551892Y-84869839D02*
X261628083Y-84907934D01*
X261628083Y-84907934D02*
X261666178Y-84946029D01*
X261666178Y-84946029D02*
X261704273Y-85022220D01*
X261704273Y-85022220D02*
X261742368Y-85174601D01*
X261742368Y-85174601D02*
X261742368Y-85365077D01*
X261742368Y-85365077D02*
X261704273Y-85517458D01*
X261704273Y-85517458D02*
X261666178Y-85593648D01*
X261666178Y-85593648D02*
X261628083Y-85631744D01*
X261628083Y-85631744D02*
X261551892Y-85669839D01*
X261551892Y-85669839D02*
X261475702Y-85669839D01*
X261475702Y-85669839D02*
X261399511Y-85631744D01*
X261399511Y-85631744D02*
X261361416Y-85593648D01*
X261361416Y-85593648D02*
X261323321Y-85517458D01*
X261323321Y-85517458D02*
X261285225Y-85365077D01*
X261285225Y-85365077D02*
X261285225Y-85174601D01*
X261285225Y-85174601D02*
X261323321Y-85022220D01*
X261323321Y-85022220D02*
X261361416Y-84946029D01*
X261361416Y-84946029D02*
X261399511Y-84907934D01*
X261399511Y-84907934D02*
X261475702Y-84869839D01*
X262428083Y-84869839D02*
X262275702Y-84869839D01*
X262275702Y-84869839D02*
X262199511Y-84907934D01*
X262199511Y-84907934D02*
X262161416Y-84946029D01*
X262161416Y-84946029D02*
X262085226Y-85060315D01*
X262085226Y-85060315D02*
X262047130Y-85212696D01*
X262047130Y-85212696D02*
X262047130Y-85517458D01*
X262047130Y-85517458D02*
X262085226Y-85593648D01*
X262085226Y-85593648D02*
X262123321Y-85631744D01*
X262123321Y-85631744D02*
X262199511Y-85669839D01*
X262199511Y-85669839D02*
X262351892Y-85669839D01*
X262351892Y-85669839D02*
X262428083Y-85631744D01*
X262428083Y-85631744D02*
X262466178Y-85593648D01*
X262466178Y-85593648D02*
X262504273Y-85517458D01*
X262504273Y-85517458D02*
X262504273Y-85326982D01*
X262504273Y-85326982D02*
X262466178Y-85250791D01*
X262466178Y-85250791D02*
X262428083Y-85212696D01*
X262428083Y-85212696D02*
X262351892Y-85174601D01*
X262351892Y-85174601D02*
X262199511Y-85174601D01*
X262199511Y-85174601D02*
X262123321Y-85212696D01*
X262123321Y-85212696D02*
X262085226Y-85250791D01*
X262085226Y-85250791D02*
X262047130Y-85326982D01*
X174988797Y-87439839D02*
X175064987Y-87439839D01*
X175064987Y-87439839D02*
X175141178Y-87477934D01*
X175141178Y-87477934D02*
X175179273Y-87516029D01*
X175179273Y-87516029D02*
X175217368Y-87592220D01*
X175217368Y-87592220D02*
X175255463Y-87744601D01*
X175255463Y-87744601D02*
X175255463Y-87935077D01*
X175255463Y-87935077D02*
X175217368Y-88087458D01*
X175217368Y-88087458D02*
X175179273Y-88163648D01*
X175179273Y-88163648D02*
X175141178Y-88201744D01*
X175141178Y-88201744D02*
X175064987Y-88239839D01*
X175064987Y-88239839D02*
X174988797Y-88239839D01*
X174988797Y-88239839D02*
X174912606Y-88201744D01*
X174912606Y-88201744D02*
X174874511Y-88163648D01*
X174874511Y-88163648D02*
X174836416Y-88087458D01*
X174836416Y-88087458D02*
X174798320Y-87935077D01*
X174798320Y-87935077D02*
X174798320Y-87744601D01*
X174798320Y-87744601D02*
X174836416Y-87592220D01*
X174836416Y-87592220D02*
X174874511Y-87516029D01*
X174874511Y-87516029D02*
X174912606Y-87477934D01*
X174912606Y-87477934D02*
X174988797Y-87439839D01*
X175750702Y-87439839D02*
X175826892Y-87439839D01*
X175826892Y-87439839D02*
X175903083Y-87477934D01*
X175903083Y-87477934D02*
X175941178Y-87516029D01*
X175941178Y-87516029D02*
X175979273Y-87592220D01*
X175979273Y-87592220D02*
X176017368Y-87744601D01*
X176017368Y-87744601D02*
X176017368Y-87935077D01*
X176017368Y-87935077D02*
X175979273Y-88087458D01*
X175979273Y-88087458D02*
X175941178Y-88163648D01*
X175941178Y-88163648D02*
X175903083Y-88201744D01*
X175903083Y-88201744D02*
X175826892Y-88239839D01*
X175826892Y-88239839D02*
X175750702Y-88239839D01*
X175750702Y-88239839D02*
X175674511Y-88201744D01*
X175674511Y-88201744D02*
X175636416Y-88163648D01*
X175636416Y-88163648D02*
X175598321Y-88087458D01*
X175598321Y-88087458D02*
X175560225Y-87935077D01*
X175560225Y-87935077D02*
X175560225Y-87744601D01*
X175560225Y-87744601D02*
X175598321Y-87592220D01*
X175598321Y-87592220D02*
X175636416Y-87516029D01*
X175636416Y-87516029D02*
X175674511Y-87477934D01*
X175674511Y-87477934D02*
X175750702Y-87439839D01*
X176474511Y-87782696D02*
X176398321Y-87744601D01*
X176398321Y-87744601D02*
X176360226Y-87706505D01*
X176360226Y-87706505D02*
X176322130Y-87630315D01*
X176322130Y-87630315D02*
X176322130Y-87592220D01*
X176322130Y-87592220D02*
X176360226Y-87516029D01*
X176360226Y-87516029D02*
X176398321Y-87477934D01*
X176398321Y-87477934D02*
X176474511Y-87439839D01*
X176474511Y-87439839D02*
X176626892Y-87439839D01*
X176626892Y-87439839D02*
X176703083Y-87477934D01*
X176703083Y-87477934D02*
X176741178Y-87516029D01*
X176741178Y-87516029D02*
X176779273Y-87592220D01*
X176779273Y-87592220D02*
X176779273Y-87630315D01*
X176779273Y-87630315D02*
X176741178Y-87706505D01*
X176741178Y-87706505D02*
X176703083Y-87744601D01*
X176703083Y-87744601D02*
X176626892Y-87782696D01*
X176626892Y-87782696D02*
X176474511Y-87782696D01*
X176474511Y-87782696D02*
X176398321Y-87820791D01*
X176398321Y-87820791D02*
X176360226Y-87858886D01*
X176360226Y-87858886D02*
X176322130Y-87935077D01*
X176322130Y-87935077D02*
X176322130Y-88087458D01*
X176322130Y-88087458D02*
X176360226Y-88163648D01*
X176360226Y-88163648D02*
X176398321Y-88201744D01*
X176398321Y-88201744D02*
X176474511Y-88239839D01*
X176474511Y-88239839D02*
X176626892Y-88239839D01*
X176626892Y-88239839D02*
X176703083Y-88201744D01*
X176703083Y-88201744D02*
X176741178Y-88163648D01*
X176741178Y-88163648D02*
X176779273Y-88087458D01*
X176779273Y-88087458D02*
X176779273Y-87935077D01*
X176779273Y-87935077D02*
X176741178Y-87858886D01*
X176741178Y-87858886D02*
X176703083Y-87820791D01*
X176703083Y-87820791D02*
X176626892Y-87782696D01*
X163647749Y-92589839D02*
X163914416Y-93389839D01*
X163914416Y-93389839D02*
X164181082Y-92589839D01*
X164904892Y-93313648D02*
X164866796Y-93351744D01*
X164866796Y-93351744D02*
X164752511Y-93389839D01*
X164752511Y-93389839D02*
X164676320Y-93389839D01*
X164676320Y-93389839D02*
X164562034Y-93351744D01*
X164562034Y-93351744D02*
X164485844Y-93275553D01*
X164485844Y-93275553D02*
X164447749Y-93199363D01*
X164447749Y-93199363D02*
X164409653Y-93046982D01*
X164409653Y-93046982D02*
X164409653Y-92932696D01*
X164409653Y-92932696D02*
X164447749Y-92780315D01*
X164447749Y-92780315D02*
X164485844Y-92704124D01*
X164485844Y-92704124D02*
X164562034Y-92627934D01*
X164562034Y-92627934D02*
X164676320Y-92589839D01*
X164676320Y-92589839D02*
X164752511Y-92589839D01*
X164752511Y-92589839D02*
X164866796Y-92627934D01*
X164866796Y-92627934D02*
X164904892Y-92666029D01*
X165704892Y-93313648D02*
X165666796Y-93351744D01*
X165666796Y-93351744D02*
X165552511Y-93389839D01*
X165552511Y-93389839D02*
X165476320Y-93389839D01*
X165476320Y-93389839D02*
X165362034Y-93351744D01*
X165362034Y-93351744D02*
X165285844Y-93275553D01*
X165285844Y-93275553D02*
X165247749Y-93199363D01*
X165247749Y-93199363D02*
X165209653Y-93046982D01*
X165209653Y-93046982D02*
X165209653Y-92932696D01*
X165209653Y-92932696D02*
X165247749Y-92780315D01*
X165247749Y-92780315D02*
X165285844Y-92704124D01*
X165285844Y-92704124D02*
X165362034Y-92627934D01*
X165362034Y-92627934D02*
X165476320Y-92589839D01*
X165476320Y-92589839D02*
X165552511Y-92589839D01*
X165552511Y-92589839D02*
X165666796Y-92627934D01*
X165666796Y-92627934D02*
X165704892Y-92666029D01*
X175255463Y-111169839D02*
X174798320Y-111169839D01*
X175026892Y-111169839D02*
X175026892Y-110369839D01*
X175026892Y-110369839D02*
X174950701Y-110484124D01*
X174950701Y-110484124D02*
X174874511Y-110560315D01*
X174874511Y-110560315D02*
X174798320Y-110598410D01*
X175750702Y-110369839D02*
X175826892Y-110369839D01*
X175826892Y-110369839D02*
X175903083Y-110407934D01*
X175903083Y-110407934D02*
X175941178Y-110446029D01*
X175941178Y-110446029D02*
X175979273Y-110522220D01*
X175979273Y-110522220D02*
X176017368Y-110674601D01*
X176017368Y-110674601D02*
X176017368Y-110865077D01*
X176017368Y-110865077D02*
X175979273Y-111017458D01*
X175979273Y-111017458D02*
X175941178Y-111093648D01*
X175941178Y-111093648D02*
X175903083Y-111131744D01*
X175903083Y-111131744D02*
X175826892Y-111169839D01*
X175826892Y-111169839D02*
X175750702Y-111169839D01*
X175750702Y-111169839D02*
X175674511Y-111131744D01*
X175674511Y-111131744D02*
X175636416Y-111093648D01*
X175636416Y-111093648D02*
X175598321Y-111017458D01*
X175598321Y-111017458D02*
X175560225Y-110865077D01*
X175560225Y-110865077D02*
X175560225Y-110674601D01*
X175560225Y-110674601D02*
X175598321Y-110522220D01*
X175598321Y-110522220D02*
X175636416Y-110446029D01*
X175636416Y-110446029D02*
X175674511Y-110407934D01*
X175674511Y-110407934D02*
X175750702Y-110369839D01*
X176703083Y-110636505D02*
X176703083Y-111169839D01*
X176512607Y-110331744D02*
X176322130Y-110903172D01*
X176322130Y-110903172D02*
X176817369Y-110903172D01*
X164225511Y-85769839D02*
X163958844Y-85388886D01*
X163768368Y-85769839D02*
X163768368Y-84969839D01*
X163768368Y-84969839D02*
X164073130Y-84969839D01*
X164073130Y-84969839D02*
X164149320Y-85007934D01*
X164149320Y-85007934D02*
X164187415Y-85046029D01*
X164187415Y-85046029D02*
X164225511Y-85122220D01*
X164225511Y-85122220D02*
X164225511Y-85236505D01*
X164225511Y-85236505D02*
X164187415Y-85312696D01*
X164187415Y-85312696D02*
X164149320Y-85350791D01*
X164149320Y-85350791D02*
X164073130Y-85388886D01*
X164073130Y-85388886D02*
X163768368Y-85388886D01*
X164530272Y-85541267D02*
X164911225Y-85541267D01*
X164454082Y-85769839D02*
X164720749Y-84969839D01*
X164720749Y-84969839D02*
X164987415Y-85769839D01*
X165177891Y-84969839D02*
X165368367Y-85769839D01*
X165368367Y-85769839D02*
X165520748Y-85198410D01*
X165520748Y-85198410D02*
X165673129Y-85769839D01*
X165673129Y-85769839D02*
X165863606Y-84969839D01*
X164181082Y-103549839D02*
X163723939Y-103549839D01*
X163952511Y-103549839D02*
X163952511Y-102749839D01*
X163952511Y-102749839D02*
X163876320Y-102864124D01*
X163876320Y-102864124D02*
X163800130Y-102940315D01*
X163800130Y-102940315D02*
X163723939Y-102978410D01*
X164942987Y-103549839D02*
X164485844Y-103549839D01*
X164714416Y-103549839D02*
X164714416Y-102749839D01*
X164714416Y-102749839D02*
X164638225Y-102864124D01*
X164638225Y-102864124D02*
X164562035Y-102940315D01*
X164562035Y-102940315D02*
X164485844Y-102978410D01*
X165666797Y-102749839D02*
X165285845Y-102749839D01*
X165285845Y-102749839D02*
X165247749Y-103130791D01*
X165247749Y-103130791D02*
X165285845Y-103092696D01*
X165285845Y-103092696D02*
X165362035Y-103054601D01*
X165362035Y-103054601D02*
X165552511Y-103054601D01*
X165552511Y-103054601D02*
X165628702Y-103092696D01*
X165628702Y-103092696D02*
X165666797Y-103130791D01*
X165666797Y-103130791D02*
X165704892Y-103206982D01*
X165704892Y-103206982D02*
X165704892Y-103397458D01*
X165704892Y-103397458D02*
X165666797Y-103473648D01*
X165666797Y-103473648D02*
X165628702Y-103511744D01*
X165628702Y-103511744D02*
X165552511Y-103549839D01*
X165552511Y-103549839D02*
X165362035Y-103549839D01*
X165362035Y-103549839D02*
X165285845Y-103511744D01*
X165285845Y-103511744D02*
X165247749Y-103473648D01*
X175103083Y-90087934D02*
X175026893Y-90049839D01*
X175026893Y-90049839D02*
X174912607Y-90049839D01*
X174912607Y-90049839D02*
X174798321Y-90087934D01*
X174798321Y-90087934D02*
X174722131Y-90164124D01*
X174722131Y-90164124D02*
X174684036Y-90240315D01*
X174684036Y-90240315D02*
X174645940Y-90392696D01*
X174645940Y-90392696D02*
X174645940Y-90506982D01*
X174645940Y-90506982D02*
X174684036Y-90659363D01*
X174684036Y-90659363D02*
X174722131Y-90735553D01*
X174722131Y-90735553D02*
X174798321Y-90811744D01*
X174798321Y-90811744D02*
X174912607Y-90849839D01*
X174912607Y-90849839D02*
X174988798Y-90849839D01*
X174988798Y-90849839D02*
X175103083Y-90811744D01*
X175103083Y-90811744D02*
X175141179Y-90773648D01*
X175141179Y-90773648D02*
X175141179Y-90506982D01*
X175141179Y-90506982D02*
X174988798Y-90506982D01*
X175484036Y-90849839D02*
X175484036Y-90049839D01*
X175484036Y-90049839D02*
X175941179Y-90849839D01*
X175941179Y-90849839D02*
X175941179Y-90049839D01*
X176322131Y-90849839D02*
X176322131Y-90049839D01*
X176322131Y-90049839D02*
X176512607Y-90049839D01*
X176512607Y-90049839D02*
X176626893Y-90087934D01*
X176626893Y-90087934D02*
X176703083Y-90164124D01*
X176703083Y-90164124D02*
X176741178Y-90240315D01*
X176741178Y-90240315D02*
X176779274Y-90392696D01*
X176779274Y-90392696D02*
X176779274Y-90506982D01*
X176779274Y-90506982D02*
X176741178Y-90659363D01*
X176741178Y-90659363D02*
X176703083Y-90735553D01*
X176703083Y-90735553D02*
X176626893Y-90811744D01*
X176626893Y-90811744D02*
X176512607Y-90849839D01*
X176512607Y-90849839D02*
X176322131Y-90849839D01*
X174988797Y-95129839D02*
X175064987Y-95129839D01*
X175064987Y-95129839D02*
X175141178Y-95167934D01*
X175141178Y-95167934D02*
X175179273Y-95206029D01*
X175179273Y-95206029D02*
X175217368Y-95282220D01*
X175217368Y-95282220D02*
X175255463Y-95434601D01*
X175255463Y-95434601D02*
X175255463Y-95625077D01*
X175255463Y-95625077D02*
X175217368Y-95777458D01*
X175217368Y-95777458D02*
X175179273Y-95853648D01*
X175179273Y-95853648D02*
X175141178Y-95891744D01*
X175141178Y-95891744D02*
X175064987Y-95929839D01*
X175064987Y-95929839D02*
X174988797Y-95929839D01*
X174988797Y-95929839D02*
X174912606Y-95891744D01*
X174912606Y-95891744D02*
X174874511Y-95853648D01*
X174874511Y-95853648D02*
X174836416Y-95777458D01*
X174836416Y-95777458D02*
X174798320Y-95625077D01*
X174798320Y-95625077D02*
X174798320Y-95434601D01*
X174798320Y-95434601D02*
X174836416Y-95282220D01*
X174836416Y-95282220D02*
X174874511Y-95206029D01*
X174874511Y-95206029D02*
X174912606Y-95167934D01*
X174912606Y-95167934D02*
X174988797Y-95129839D01*
X176017368Y-95929839D02*
X175560225Y-95929839D01*
X175788797Y-95929839D02*
X175788797Y-95129839D01*
X175788797Y-95129839D02*
X175712606Y-95244124D01*
X175712606Y-95244124D02*
X175636416Y-95320315D01*
X175636416Y-95320315D02*
X175560225Y-95358410D01*
X176284035Y-95129839D02*
X176817369Y-95129839D01*
X176817369Y-95129839D02*
X176474511Y-95929839D01*
X174988797Y-102739839D02*
X175064987Y-102739839D01*
X175064987Y-102739839D02*
X175141178Y-102777934D01*
X175141178Y-102777934D02*
X175179273Y-102816029D01*
X175179273Y-102816029D02*
X175217368Y-102892220D01*
X175217368Y-102892220D02*
X175255463Y-103044601D01*
X175255463Y-103044601D02*
X175255463Y-103235077D01*
X175255463Y-103235077D02*
X175217368Y-103387458D01*
X175217368Y-103387458D02*
X175179273Y-103463648D01*
X175179273Y-103463648D02*
X175141178Y-103501744D01*
X175141178Y-103501744D02*
X175064987Y-103539839D01*
X175064987Y-103539839D02*
X174988797Y-103539839D01*
X174988797Y-103539839D02*
X174912606Y-103501744D01*
X174912606Y-103501744D02*
X174874511Y-103463648D01*
X174874511Y-103463648D02*
X174836416Y-103387458D01*
X174836416Y-103387458D02*
X174798320Y-103235077D01*
X174798320Y-103235077D02*
X174798320Y-103044601D01*
X174798320Y-103044601D02*
X174836416Y-102892220D01*
X174836416Y-102892220D02*
X174874511Y-102816029D01*
X174874511Y-102816029D02*
X174912606Y-102777934D01*
X174912606Y-102777934D02*
X174988797Y-102739839D01*
X175560225Y-102816029D02*
X175598321Y-102777934D01*
X175598321Y-102777934D02*
X175674511Y-102739839D01*
X175674511Y-102739839D02*
X175864987Y-102739839D01*
X175864987Y-102739839D02*
X175941178Y-102777934D01*
X175941178Y-102777934D02*
X175979273Y-102816029D01*
X175979273Y-102816029D02*
X176017368Y-102892220D01*
X176017368Y-102892220D02*
X176017368Y-102968410D01*
X176017368Y-102968410D02*
X175979273Y-103082696D01*
X175979273Y-103082696D02*
X175522130Y-103539839D01*
X175522130Y-103539839D02*
X176017368Y-103539839D01*
X176703083Y-103006505D02*
X176703083Y-103539839D01*
X176512607Y-102701744D02*
X176322130Y-103273172D01*
X176322130Y-103273172D02*
X176817369Y-103273172D01*
X164181082Y-106089839D02*
X163723939Y-106089839D01*
X163952511Y-106089839D02*
X163952511Y-105289839D01*
X163952511Y-105289839D02*
X163876320Y-105404124D01*
X163876320Y-105404124D02*
X163800130Y-105480315D01*
X163800130Y-105480315D02*
X163723939Y-105518410D01*
X164942987Y-106089839D02*
X164485844Y-106089839D01*
X164714416Y-106089839D02*
X164714416Y-105289839D01*
X164714416Y-105289839D02*
X164638225Y-105404124D01*
X164638225Y-105404124D02*
X164562035Y-105480315D01*
X164562035Y-105480315D02*
X164485844Y-105518410D01*
X165209654Y-105289839D02*
X165704892Y-105289839D01*
X165704892Y-105289839D02*
X165438226Y-105594601D01*
X165438226Y-105594601D02*
X165552511Y-105594601D01*
X165552511Y-105594601D02*
X165628702Y-105632696D01*
X165628702Y-105632696D02*
X165666797Y-105670791D01*
X165666797Y-105670791D02*
X165704892Y-105746982D01*
X165704892Y-105746982D02*
X165704892Y-105937458D01*
X165704892Y-105937458D02*
X165666797Y-106013648D01*
X165666797Y-106013648D02*
X165628702Y-106051744D01*
X165628702Y-106051744D02*
X165552511Y-106089839D01*
X165552511Y-106089839D02*
X165323940Y-106089839D01*
X165323940Y-106089839D02*
X165247749Y-106051744D01*
X165247749Y-106051744D02*
X165209654Y-106013648D01*
X164225512Y-90849839D02*
X163958845Y-90468886D01*
X163768369Y-90849839D02*
X163768369Y-90049839D01*
X163768369Y-90049839D02*
X164073131Y-90049839D01*
X164073131Y-90049839D02*
X164149321Y-90087934D01*
X164149321Y-90087934D02*
X164187416Y-90126029D01*
X164187416Y-90126029D02*
X164225512Y-90202220D01*
X164225512Y-90202220D02*
X164225512Y-90316505D01*
X164225512Y-90316505D02*
X164187416Y-90392696D01*
X164187416Y-90392696D02*
X164149321Y-90430791D01*
X164149321Y-90430791D02*
X164073131Y-90468886D01*
X164073131Y-90468886D02*
X163768369Y-90468886D01*
X164530273Y-90811744D02*
X164644559Y-90849839D01*
X164644559Y-90849839D02*
X164835035Y-90849839D01*
X164835035Y-90849839D02*
X164911226Y-90811744D01*
X164911226Y-90811744D02*
X164949321Y-90773648D01*
X164949321Y-90773648D02*
X164987416Y-90697458D01*
X164987416Y-90697458D02*
X164987416Y-90621267D01*
X164987416Y-90621267D02*
X164949321Y-90545077D01*
X164949321Y-90545077D02*
X164911226Y-90506982D01*
X164911226Y-90506982D02*
X164835035Y-90468886D01*
X164835035Y-90468886D02*
X164682654Y-90430791D01*
X164682654Y-90430791D02*
X164606464Y-90392696D01*
X164606464Y-90392696D02*
X164568369Y-90354601D01*
X164568369Y-90354601D02*
X164530273Y-90278410D01*
X164530273Y-90278410D02*
X164530273Y-90202220D01*
X164530273Y-90202220D02*
X164568369Y-90126029D01*
X164568369Y-90126029D02*
X164606464Y-90087934D01*
X164606464Y-90087934D02*
X164682654Y-90049839D01*
X164682654Y-90049839D02*
X164873131Y-90049839D01*
X164873131Y-90049839D02*
X164987416Y-90087934D01*
X165215988Y-90049839D02*
X165673131Y-90049839D01*
X165444559Y-90849839D02*
X165444559Y-90049839D01*
X175255463Y-106089839D02*
X174798320Y-106089839D01*
X175026892Y-106089839D02*
X175026892Y-105289839D01*
X175026892Y-105289839D02*
X174950701Y-105404124D01*
X174950701Y-105404124D02*
X174874511Y-105480315D01*
X174874511Y-105480315D02*
X174798320Y-105518410D01*
X175750702Y-105289839D02*
X175826892Y-105289839D01*
X175826892Y-105289839D02*
X175903083Y-105327934D01*
X175903083Y-105327934D02*
X175941178Y-105366029D01*
X175941178Y-105366029D02*
X175979273Y-105442220D01*
X175979273Y-105442220D02*
X176017368Y-105594601D01*
X176017368Y-105594601D02*
X176017368Y-105785077D01*
X176017368Y-105785077D02*
X175979273Y-105937458D01*
X175979273Y-105937458D02*
X175941178Y-106013648D01*
X175941178Y-106013648D02*
X175903083Y-106051744D01*
X175903083Y-106051744D02*
X175826892Y-106089839D01*
X175826892Y-106089839D02*
X175750702Y-106089839D01*
X175750702Y-106089839D02*
X175674511Y-106051744D01*
X175674511Y-106051744D02*
X175636416Y-106013648D01*
X175636416Y-106013648D02*
X175598321Y-105937458D01*
X175598321Y-105937458D02*
X175560225Y-105785077D01*
X175560225Y-105785077D02*
X175560225Y-105594601D01*
X175560225Y-105594601D02*
X175598321Y-105442220D01*
X175598321Y-105442220D02*
X175636416Y-105366029D01*
X175636416Y-105366029D02*
X175674511Y-105327934D01*
X175674511Y-105327934D02*
X175750702Y-105289839D01*
X176512607Y-105289839D02*
X176588797Y-105289839D01*
X176588797Y-105289839D02*
X176664988Y-105327934D01*
X176664988Y-105327934D02*
X176703083Y-105366029D01*
X176703083Y-105366029D02*
X176741178Y-105442220D01*
X176741178Y-105442220D02*
X176779273Y-105594601D01*
X176779273Y-105594601D02*
X176779273Y-105785077D01*
X176779273Y-105785077D02*
X176741178Y-105937458D01*
X176741178Y-105937458D02*
X176703083Y-106013648D01*
X176703083Y-106013648D02*
X176664988Y-106051744D01*
X176664988Y-106051744D02*
X176588797Y-106089839D01*
X176588797Y-106089839D02*
X176512607Y-106089839D01*
X176512607Y-106089839D02*
X176436416Y-106051744D01*
X176436416Y-106051744D02*
X176398321Y-106013648D01*
X176398321Y-106013648D02*
X176360226Y-105937458D01*
X176360226Y-105937458D02*
X176322130Y-105785077D01*
X176322130Y-105785077D02*
X176322130Y-105594601D01*
X176322130Y-105594601D02*
X176360226Y-105442220D01*
X176360226Y-105442220D02*
X176398321Y-105366029D01*
X176398321Y-105366029D02*
X176436416Y-105327934D01*
X176436416Y-105327934D02*
X176512607Y-105289839D01*
X164181082Y-108629839D02*
X163723939Y-108629839D01*
X163952511Y-108629839D02*
X163952511Y-107829839D01*
X163952511Y-107829839D02*
X163876320Y-107944124D01*
X163876320Y-107944124D02*
X163800130Y-108020315D01*
X163800130Y-108020315D02*
X163723939Y-108058410D01*
X164942987Y-108629839D02*
X164485844Y-108629839D01*
X164714416Y-108629839D02*
X164714416Y-107829839D01*
X164714416Y-107829839D02*
X164638225Y-107944124D01*
X164638225Y-107944124D02*
X164562035Y-108020315D01*
X164562035Y-108020315D02*
X164485844Y-108058410D01*
X165704892Y-108629839D02*
X165247749Y-108629839D01*
X165476321Y-108629839D02*
X165476321Y-107829839D01*
X165476321Y-107829839D02*
X165400130Y-107944124D01*
X165400130Y-107944124D02*
X165323940Y-108020315D01*
X165323940Y-108020315D02*
X165247749Y-108058410D01*
X163914416Y-110369839D02*
X163990606Y-110369839D01*
X163990606Y-110369839D02*
X164066797Y-110407934D01*
X164066797Y-110407934D02*
X164104892Y-110446029D01*
X164104892Y-110446029D02*
X164142987Y-110522220D01*
X164142987Y-110522220D02*
X164181082Y-110674601D01*
X164181082Y-110674601D02*
X164181082Y-110865077D01*
X164181082Y-110865077D02*
X164142987Y-111017458D01*
X164142987Y-111017458D02*
X164104892Y-111093648D01*
X164104892Y-111093648D02*
X164066797Y-111131744D01*
X164066797Y-111131744D02*
X163990606Y-111169839D01*
X163990606Y-111169839D02*
X163914416Y-111169839D01*
X163914416Y-111169839D02*
X163838225Y-111131744D01*
X163838225Y-111131744D02*
X163800130Y-111093648D01*
X163800130Y-111093648D02*
X163762035Y-111017458D01*
X163762035Y-111017458D02*
X163723939Y-110865077D01*
X163723939Y-110865077D02*
X163723939Y-110674601D01*
X163723939Y-110674601D02*
X163762035Y-110522220D01*
X163762035Y-110522220D02*
X163800130Y-110446029D01*
X163800130Y-110446029D02*
X163838225Y-110407934D01*
X163838225Y-110407934D02*
X163914416Y-110369839D01*
X164942987Y-111169839D02*
X164485844Y-111169839D01*
X164714416Y-111169839D02*
X164714416Y-110369839D01*
X164714416Y-110369839D02*
X164638225Y-110484124D01*
X164638225Y-110484124D02*
X164562035Y-110560315D01*
X164562035Y-110560315D02*
X164485844Y-110598410D01*
X165438226Y-110369839D02*
X165514416Y-110369839D01*
X165514416Y-110369839D02*
X165590607Y-110407934D01*
X165590607Y-110407934D02*
X165628702Y-110446029D01*
X165628702Y-110446029D02*
X165666797Y-110522220D01*
X165666797Y-110522220D02*
X165704892Y-110674601D01*
X165704892Y-110674601D02*
X165704892Y-110865077D01*
X165704892Y-110865077D02*
X165666797Y-111017458D01*
X165666797Y-111017458D02*
X165628702Y-111093648D01*
X165628702Y-111093648D02*
X165590607Y-111131744D01*
X165590607Y-111131744D02*
X165514416Y-111169839D01*
X165514416Y-111169839D02*
X165438226Y-111169839D01*
X165438226Y-111169839D02*
X165362035Y-111131744D01*
X165362035Y-111131744D02*
X165323940Y-111093648D01*
X165323940Y-111093648D02*
X165285845Y-111017458D01*
X165285845Y-111017458D02*
X165247749Y-110865077D01*
X165247749Y-110865077D02*
X165247749Y-110674601D01*
X165247749Y-110674601D02*
X165285845Y-110522220D01*
X165285845Y-110522220D02*
X165323940Y-110446029D01*
X165323940Y-110446029D02*
X165362035Y-110407934D01*
X165362035Y-110407934D02*
X165438226Y-110369839D01*
X174988797Y-97739839D02*
X175064987Y-97739839D01*
X175064987Y-97739839D02*
X175141178Y-97777934D01*
X175141178Y-97777934D02*
X175179273Y-97816029D01*
X175179273Y-97816029D02*
X175217368Y-97892220D01*
X175217368Y-97892220D02*
X175255463Y-98044601D01*
X175255463Y-98044601D02*
X175255463Y-98235077D01*
X175255463Y-98235077D02*
X175217368Y-98387458D01*
X175217368Y-98387458D02*
X175179273Y-98463648D01*
X175179273Y-98463648D02*
X175141178Y-98501744D01*
X175141178Y-98501744D02*
X175064987Y-98539839D01*
X175064987Y-98539839D02*
X174988797Y-98539839D01*
X174988797Y-98539839D02*
X174912606Y-98501744D01*
X174912606Y-98501744D02*
X174874511Y-98463648D01*
X174874511Y-98463648D02*
X174836416Y-98387458D01*
X174836416Y-98387458D02*
X174798320Y-98235077D01*
X174798320Y-98235077D02*
X174798320Y-98044601D01*
X174798320Y-98044601D02*
X174836416Y-97892220D01*
X174836416Y-97892220D02*
X174874511Y-97816029D01*
X174874511Y-97816029D02*
X174912606Y-97777934D01*
X174912606Y-97777934D02*
X174988797Y-97739839D01*
X175560225Y-97816029D02*
X175598321Y-97777934D01*
X175598321Y-97777934D02*
X175674511Y-97739839D01*
X175674511Y-97739839D02*
X175864987Y-97739839D01*
X175864987Y-97739839D02*
X175941178Y-97777934D01*
X175941178Y-97777934D02*
X175979273Y-97816029D01*
X175979273Y-97816029D02*
X176017368Y-97892220D01*
X176017368Y-97892220D02*
X176017368Y-97968410D01*
X176017368Y-97968410D02*
X175979273Y-98082696D01*
X175979273Y-98082696D02*
X175522130Y-98539839D01*
X175522130Y-98539839D02*
X176017368Y-98539839D01*
X176512607Y-97739839D02*
X176588797Y-97739839D01*
X176588797Y-97739839D02*
X176664988Y-97777934D01*
X176664988Y-97777934D02*
X176703083Y-97816029D01*
X176703083Y-97816029D02*
X176741178Y-97892220D01*
X176741178Y-97892220D02*
X176779273Y-98044601D01*
X176779273Y-98044601D02*
X176779273Y-98235077D01*
X176779273Y-98235077D02*
X176741178Y-98387458D01*
X176741178Y-98387458D02*
X176703083Y-98463648D01*
X176703083Y-98463648D02*
X176664988Y-98501744D01*
X176664988Y-98501744D02*
X176588797Y-98539839D01*
X176588797Y-98539839D02*
X176512607Y-98539839D01*
X176512607Y-98539839D02*
X176436416Y-98501744D01*
X176436416Y-98501744D02*
X176398321Y-98463648D01*
X176398321Y-98463648D02*
X176360226Y-98387458D01*
X176360226Y-98387458D02*
X176322130Y-98235077D01*
X176322130Y-98235077D02*
X176322130Y-98044601D01*
X176322130Y-98044601D02*
X176360226Y-97892220D01*
X176360226Y-97892220D02*
X176398321Y-97816029D01*
X176398321Y-97816029D02*
X176436416Y-97777934D01*
X176436416Y-97777934D02*
X176512607Y-97739839D01*
X174988797Y-100239839D02*
X175064987Y-100239839D01*
X175064987Y-100239839D02*
X175141178Y-100277934D01*
X175141178Y-100277934D02*
X175179273Y-100316029D01*
X175179273Y-100316029D02*
X175217368Y-100392220D01*
X175217368Y-100392220D02*
X175255463Y-100544601D01*
X175255463Y-100544601D02*
X175255463Y-100735077D01*
X175255463Y-100735077D02*
X175217368Y-100887458D01*
X175217368Y-100887458D02*
X175179273Y-100963648D01*
X175179273Y-100963648D02*
X175141178Y-101001744D01*
X175141178Y-101001744D02*
X175064987Y-101039839D01*
X175064987Y-101039839D02*
X174988797Y-101039839D01*
X174988797Y-101039839D02*
X174912606Y-101001744D01*
X174912606Y-101001744D02*
X174874511Y-100963648D01*
X174874511Y-100963648D02*
X174836416Y-100887458D01*
X174836416Y-100887458D02*
X174798320Y-100735077D01*
X174798320Y-100735077D02*
X174798320Y-100544601D01*
X174798320Y-100544601D02*
X174836416Y-100392220D01*
X174836416Y-100392220D02*
X174874511Y-100316029D01*
X174874511Y-100316029D02*
X174912606Y-100277934D01*
X174912606Y-100277934D02*
X174988797Y-100239839D01*
X175560225Y-100316029D02*
X175598321Y-100277934D01*
X175598321Y-100277934D02*
X175674511Y-100239839D01*
X175674511Y-100239839D02*
X175864987Y-100239839D01*
X175864987Y-100239839D02*
X175941178Y-100277934D01*
X175941178Y-100277934D02*
X175979273Y-100316029D01*
X175979273Y-100316029D02*
X176017368Y-100392220D01*
X176017368Y-100392220D02*
X176017368Y-100468410D01*
X176017368Y-100468410D02*
X175979273Y-100582696D01*
X175979273Y-100582696D02*
X175522130Y-101039839D01*
X175522130Y-101039839D02*
X176017368Y-101039839D01*
X176322130Y-100316029D02*
X176360226Y-100277934D01*
X176360226Y-100277934D02*
X176436416Y-100239839D01*
X176436416Y-100239839D02*
X176626892Y-100239839D01*
X176626892Y-100239839D02*
X176703083Y-100277934D01*
X176703083Y-100277934D02*
X176741178Y-100316029D01*
X176741178Y-100316029D02*
X176779273Y-100392220D01*
X176779273Y-100392220D02*
X176779273Y-100468410D01*
X176779273Y-100468410D02*
X176741178Y-100582696D01*
X176741178Y-100582696D02*
X176284035Y-101039839D01*
X176284035Y-101039839D02*
X176779273Y-101039839D01*
X163914416Y-95129839D02*
X163990606Y-95129839D01*
X163990606Y-95129839D02*
X164066797Y-95167934D01*
X164066797Y-95167934D02*
X164104892Y-95206029D01*
X164104892Y-95206029D02*
X164142987Y-95282220D01*
X164142987Y-95282220D02*
X164181082Y-95434601D01*
X164181082Y-95434601D02*
X164181082Y-95625077D01*
X164181082Y-95625077D02*
X164142987Y-95777458D01*
X164142987Y-95777458D02*
X164104892Y-95853648D01*
X164104892Y-95853648D02*
X164066797Y-95891744D01*
X164066797Y-95891744D02*
X163990606Y-95929839D01*
X163990606Y-95929839D02*
X163914416Y-95929839D01*
X163914416Y-95929839D02*
X163838225Y-95891744D01*
X163838225Y-95891744D02*
X163800130Y-95853648D01*
X163800130Y-95853648D02*
X163762035Y-95777458D01*
X163762035Y-95777458D02*
X163723939Y-95625077D01*
X163723939Y-95625077D02*
X163723939Y-95434601D01*
X163723939Y-95434601D02*
X163762035Y-95282220D01*
X163762035Y-95282220D02*
X163800130Y-95206029D01*
X163800130Y-95206029D02*
X163838225Y-95167934D01*
X163838225Y-95167934D02*
X163914416Y-95129839D01*
X164447749Y-95129839D02*
X164942987Y-95129839D01*
X164942987Y-95129839D02*
X164676321Y-95434601D01*
X164676321Y-95434601D02*
X164790606Y-95434601D01*
X164790606Y-95434601D02*
X164866797Y-95472696D01*
X164866797Y-95472696D02*
X164904892Y-95510791D01*
X164904892Y-95510791D02*
X164942987Y-95586982D01*
X164942987Y-95586982D02*
X164942987Y-95777458D01*
X164942987Y-95777458D02*
X164904892Y-95853648D01*
X164904892Y-95853648D02*
X164866797Y-95891744D01*
X164866797Y-95891744D02*
X164790606Y-95929839D01*
X164790606Y-95929839D02*
X164562035Y-95929839D01*
X164562035Y-95929839D02*
X164485844Y-95891744D01*
X164485844Y-95891744D02*
X164447749Y-95853648D01*
X165704892Y-95929839D02*
X165247749Y-95929839D01*
X165476321Y-95929839D02*
X165476321Y-95129839D01*
X165476321Y-95129839D02*
X165400130Y-95244124D01*
X165400130Y-95244124D02*
X165323940Y-95320315D01*
X165323940Y-95320315D02*
X165247749Y-95358410D01*
X175103083Y-92627934D02*
X175026893Y-92589839D01*
X175026893Y-92589839D02*
X174912607Y-92589839D01*
X174912607Y-92589839D02*
X174798321Y-92627934D01*
X174798321Y-92627934D02*
X174722131Y-92704124D01*
X174722131Y-92704124D02*
X174684036Y-92780315D01*
X174684036Y-92780315D02*
X174645940Y-92932696D01*
X174645940Y-92932696D02*
X174645940Y-93046982D01*
X174645940Y-93046982D02*
X174684036Y-93199363D01*
X174684036Y-93199363D02*
X174722131Y-93275553D01*
X174722131Y-93275553D02*
X174798321Y-93351744D01*
X174798321Y-93351744D02*
X174912607Y-93389839D01*
X174912607Y-93389839D02*
X174988798Y-93389839D01*
X174988798Y-93389839D02*
X175103083Y-93351744D01*
X175103083Y-93351744D02*
X175141179Y-93313648D01*
X175141179Y-93313648D02*
X175141179Y-93046982D01*
X175141179Y-93046982D02*
X174988798Y-93046982D01*
X175484036Y-93389839D02*
X175484036Y-92589839D01*
X175484036Y-92589839D02*
X175941179Y-93389839D01*
X175941179Y-93389839D02*
X175941179Y-92589839D01*
X176322131Y-93389839D02*
X176322131Y-92589839D01*
X176322131Y-92589839D02*
X176512607Y-92589839D01*
X176512607Y-92589839D02*
X176626893Y-92627934D01*
X176626893Y-92627934D02*
X176703083Y-92704124D01*
X176703083Y-92704124D02*
X176741178Y-92780315D01*
X176741178Y-92780315D02*
X176779274Y-92932696D01*
X176779274Y-92932696D02*
X176779274Y-93046982D01*
X176779274Y-93046982D02*
X176741178Y-93199363D01*
X176741178Y-93199363D02*
X176703083Y-93275553D01*
X176703083Y-93275553D02*
X176626893Y-93351744D01*
X176626893Y-93351744D02*
X176512607Y-93389839D01*
X176512607Y-93389839D02*
X176322131Y-93389839D01*
X163914416Y-100209839D02*
X163990606Y-100209839D01*
X163990606Y-100209839D02*
X164066797Y-100247934D01*
X164066797Y-100247934D02*
X164104892Y-100286029D01*
X164104892Y-100286029D02*
X164142987Y-100362220D01*
X164142987Y-100362220D02*
X164181082Y-100514601D01*
X164181082Y-100514601D02*
X164181082Y-100705077D01*
X164181082Y-100705077D02*
X164142987Y-100857458D01*
X164142987Y-100857458D02*
X164104892Y-100933648D01*
X164104892Y-100933648D02*
X164066797Y-100971744D01*
X164066797Y-100971744D02*
X163990606Y-101009839D01*
X163990606Y-101009839D02*
X163914416Y-101009839D01*
X163914416Y-101009839D02*
X163838225Y-100971744D01*
X163838225Y-100971744D02*
X163800130Y-100933648D01*
X163800130Y-100933648D02*
X163762035Y-100857458D01*
X163762035Y-100857458D02*
X163723939Y-100705077D01*
X163723939Y-100705077D02*
X163723939Y-100514601D01*
X163723939Y-100514601D02*
X163762035Y-100362220D01*
X163762035Y-100362220D02*
X163800130Y-100286029D01*
X163800130Y-100286029D02*
X163838225Y-100247934D01*
X163838225Y-100247934D02*
X163914416Y-100209839D01*
X164676321Y-100209839D02*
X164752511Y-100209839D01*
X164752511Y-100209839D02*
X164828702Y-100247934D01*
X164828702Y-100247934D02*
X164866797Y-100286029D01*
X164866797Y-100286029D02*
X164904892Y-100362220D01*
X164904892Y-100362220D02*
X164942987Y-100514601D01*
X164942987Y-100514601D02*
X164942987Y-100705077D01*
X164942987Y-100705077D02*
X164904892Y-100857458D01*
X164904892Y-100857458D02*
X164866797Y-100933648D01*
X164866797Y-100933648D02*
X164828702Y-100971744D01*
X164828702Y-100971744D02*
X164752511Y-101009839D01*
X164752511Y-101009839D02*
X164676321Y-101009839D01*
X164676321Y-101009839D02*
X164600130Y-100971744D01*
X164600130Y-100971744D02*
X164562035Y-100933648D01*
X164562035Y-100933648D02*
X164523940Y-100857458D01*
X164523940Y-100857458D02*
X164485844Y-100705077D01*
X164485844Y-100705077D02*
X164485844Y-100514601D01*
X164485844Y-100514601D02*
X164523940Y-100362220D01*
X164523940Y-100362220D02*
X164562035Y-100286029D01*
X164562035Y-100286029D02*
X164600130Y-100247934D01*
X164600130Y-100247934D02*
X164676321Y-100209839D01*
X165247749Y-100286029D02*
X165285845Y-100247934D01*
X165285845Y-100247934D02*
X165362035Y-100209839D01*
X165362035Y-100209839D02*
X165552511Y-100209839D01*
X165552511Y-100209839D02*
X165628702Y-100247934D01*
X165628702Y-100247934D02*
X165666797Y-100286029D01*
X165666797Y-100286029D02*
X165704892Y-100362220D01*
X165704892Y-100362220D02*
X165704892Y-100438410D01*
X165704892Y-100438410D02*
X165666797Y-100552696D01*
X165666797Y-100552696D02*
X165209654Y-101009839D01*
X165209654Y-101009839D02*
X165704892Y-101009839D01*
X163914416Y-97669839D02*
X163990606Y-97669839D01*
X163990606Y-97669839D02*
X164066797Y-97707934D01*
X164066797Y-97707934D02*
X164104892Y-97746029D01*
X164104892Y-97746029D02*
X164142987Y-97822220D01*
X164142987Y-97822220D02*
X164181082Y-97974601D01*
X164181082Y-97974601D02*
X164181082Y-98165077D01*
X164181082Y-98165077D02*
X164142987Y-98317458D01*
X164142987Y-98317458D02*
X164104892Y-98393648D01*
X164104892Y-98393648D02*
X164066797Y-98431744D01*
X164066797Y-98431744D02*
X163990606Y-98469839D01*
X163990606Y-98469839D02*
X163914416Y-98469839D01*
X163914416Y-98469839D02*
X163838225Y-98431744D01*
X163838225Y-98431744D02*
X163800130Y-98393648D01*
X163800130Y-98393648D02*
X163762035Y-98317458D01*
X163762035Y-98317458D02*
X163723939Y-98165077D01*
X163723939Y-98165077D02*
X163723939Y-97974601D01*
X163723939Y-97974601D02*
X163762035Y-97822220D01*
X163762035Y-97822220D02*
X163800130Y-97746029D01*
X163800130Y-97746029D02*
X163838225Y-97707934D01*
X163838225Y-97707934D02*
X163914416Y-97669839D01*
X164485844Y-97746029D02*
X164523940Y-97707934D01*
X164523940Y-97707934D02*
X164600130Y-97669839D01*
X164600130Y-97669839D02*
X164790606Y-97669839D01*
X164790606Y-97669839D02*
X164866797Y-97707934D01*
X164866797Y-97707934D02*
X164904892Y-97746029D01*
X164904892Y-97746029D02*
X164942987Y-97822220D01*
X164942987Y-97822220D02*
X164942987Y-97898410D01*
X164942987Y-97898410D02*
X164904892Y-98012696D01*
X164904892Y-98012696D02*
X164447749Y-98469839D01*
X164447749Y-98469839D02*
X164942987Y-98469839D01*
X165323940Y-98469839D02*
X165476321Y-98469839D01*
X165476321Y-98469839D02*
X165552511Y-98431744D01*
X165552511Y-98431744D02*
X165590607Y-98393648D01*
X165590607Y-98393648D02*
X165666797Y-98279363D01*
X165666797Y-98279363D02*
X165704892Y-98126982D01*
X165704892Y-98126982D02*
X165704892Y-97822220D01*
X165704892Y-97822220D02*
X165666797Y-97746029D01*
X165666797Y-97746029D02*
X165628702Y-97707934D01*
X165628702Y-97707934D02*
X165552511Y-97669839D01*
X165552511Y-97669839D02*
X165400130Y-97669839D01*
X165400130Y-97669839D02*
X165323940Y-97707934D01*
X165323940Y-97707934D02*
X165285845Y-97746029D01*
X165285845Y-97746029D02*
X165247749Y-97822220D01*
X165247749Y-97822220D02*
X165247749Y-98012696D01*
X165247749Y-98012696D02*
X165285845Y-98088886D01*
X165285845Y-98088886D02*
X165323940Y-98126982D01*
X165323940Y-98126982D02*
X165400130Y-98165077D01*
X165400130Y-98165077D02*
X165552511Y-98165077D01*
X165552511Y-98165077D02*
X165628702Y-98126982D01*
X165628702Y-98126982D02*
X165666797Y-98088886D01*
X165666797Y-98088886D02*
X165704892Y-98012696D01*
X164187416Y-87547934D02*
X164111226Y-87509839D01*
X164111226Y-87509839D02*
X163996940Y-87509839D01*
X163996940Y-87509839D02*
X163882654Y-87547934D01*
X163882654Y-87547934D02*
X163806464Y-87624124D01*
X163806464Y-87624124D02*
X163768369Y-87700315D01*
X163768369Y-87700315D02*
X163730273Y-87852696D01*
X163730273Y-87852696D02*
X163730273Y-87966982D01*
X163730273Y-87966982D02*
X163768369Y-88119363D01*
X163768369Y-88119363D02*
X163806464Y-88195553D01*
X163806464Y-88195553D02*
X163882654Y-88271744D01*
X163882654Y-88271744D02*
X163996940Y-88309839D01*
X163996940Y-88309839D02*
X164073131Y-88309839D01*
X164073131Y-88309839D02*
X164187416Y-88271744D01*
X164187416Y-88271744D02*
X164225512Y-88233648D01*
X164225512Y-88233648D02*
X164225512Y-87966982D01*
X164225512Y-87966982D02*
X164073131Y-87966982D01*
X164568369Y-88309839D02*
X164568369Y-87509839D01*
X164568369Y-87509839D02*
X165025512Y-88309839D01*
X165025512Y-88309839D02*
X165025512Y-87509839D01*
X165406464Y-88309839D02*
X165406464Y-87509839D01*
X165406464Y-87509839D02*
X165596940Y-87509839D01*
X165596940Y-87509839D02*
X165711226Y-87547934D01*
X165711226Y-87547934D02*
X165787416Y-87624124D01*
X165787416Y-87624124D02*
X165825511Y-87700315D01*
X165825511Y-87700315D02*
X165863607Y-87852696D01*
X165863607Y-87852696D02*
X165863607Y-87966982D01*
X165863607Y-87966982D02*
X165825511Y-88119363D01*
X165825511Y-88119363D02*
X165787416Y-88195553D01*
X165787416Y-88195553D02*
X165711226Y-88271744D01*
X165711226Y-88271744D02*
X165596940Y-88309839D01*
X165596940Y-88309839D02*
X165406464Y-88309839D01*
X174988797Y-84969839D02*
X175064987Y-84969839D01*
X175064987Y-84969839D02*
X175141178Y-85007934D01*
X175141178Y-85007934D02*
X175179273Y-85046029D01*
X175179273Y-85046029D02*
X175217368Y-85122220D01*
X175217368Y-85122220D02*
X175255463Y-85274601D01*
X175255463Y-85274601D02*
X175255463Y-85465077D01*
X175255463Y-85465077D02*
X175217368Y-85617458D01*
X175217368Y-85617458D02*
X175179273Y-85693648D01*
X175179273Y-85693648D02*
X175141178Y-85731744D01*
X175141178Y-85731744D02*
X175064987Y-85769839D01*
X175064987Y-85769839D02*
X174988797Y-85769839D01*
X174988797Y-85769839D02*
X174912606Y-85731744D01*
X174912606Y-85731744D02*
X174874511Y-85693648D01*
X174874511Y-85693648D02*
X174836416Y-85617458D01*
X174836416Y-85617458D02*
X174798320Y-85465077D01*
X174798320Y-85465077D02*
X174798320Y-85274601D01*
X174798320Y-85274601D02*
X174836416Y-85122220D01*
X174836416Y-85122220D02*
X174874511Y-85046029D01*
X174874511Y-85046029D02*
X174912606Y-85007934D01*
X174912606Y-85007934D02*
X174988797Y-84969839D01*
X175750702Y-84969839D02*
X175826892Y-84969839D01*
X175826892Y-84969839D02*
X175903083Y-85007934D01*
X175903083Y-85007934D02*
X175941178Y-85046029D01*
X175941178Y-85046029D02*
X175979273Y-85122220D01*
X175979273Y-85122220D02*
X176017368Y-85274601D01*
X176017368Y-85274601D02*
X176017368Y-85465077D01*
X176017368Y-85465077D02*
X175979273Y-85617458D01*
X175979273Y-85617458D02*
X175941178Y-85693648D01*
X175941178Y-85693648D02*
X175903083Y-85731744D01*
X175903083Y-85731744D02*
X175826892Y-85769839D01*
X175826892Y-85769839D02*
X175750702Y-85769839D01*
X175750702Y-85769839D02*
X175674511Y-85731744D01*
X175674511Y-85731744D02*
X175636416Y-85693648D01*
X175636416Y-85693648D02*
X175598321Y-85617458D01*
X175598321Y-85617458D02*
X175560225Y-85465077D01*
X175560225Y-85465077D02*
X175560225Y-85274601D01*
X175560225Y-85274601D02*
X175598321Y-85122220D01*
X175598321Y-85122220D02*
X175636416Y-85046029D01*
X175636416Y-85046029D02*
X175674511Y-85007934D01*
X175674511Y-85007934D02*
X175750702Y-84969839D01*
X176703083Y-84969839D02*
X176550702Y-84969839D01*
X176550702Y-84969839D02*
X176474511Y-85007934D01*
X176474511Y-85007934D02*
X176436416Y-85046029D01*
X176436416Y-85046029D02*
X176360226Y-85160315D01*
X176360226Y-85160315D02*
X176322130Y-85312696D01*
X176322130Y-85312696D02*
X176322130Y-85617458D01*
X176322130Y-85617458D02*
X176360226Y-85693648D01*
X176360226Y-85693648D02*
X176398321Y-85731744D01*
X176398321Y-85731744D02*
X176474511Y-85769839D01*
X176474511Y-85769839D02*
X176626892Y-85769839D01*
X176626892Y-85769839D02*
X176703083Y-85731744D01*
X176703083Y-85731744D02*
X176741178Y-85693648D01*
X176741178Y-85693648D02*
X176779273Y-85617458D01*
X176779273Y-85617458D02*
X176779273Y-85426982D01*
X176779273Y-85426982D02*
X176741178Y-85350791D01*
X176741178Y-85350791D02*
X176703083Y-85312696D01*
X176703083Y-85312696D02*
X176626892Y-85274601D01*
X176626892Y-85274601D02*
X176474511Y-85274601D01*
X176474511Y-85274601D02*
X176398321Y-85312696D01*
X176398321Y-85312696D02*
X176360226Y-85350791D01*
X176360226Y-85350791D02*
X176322130Y-85426982D01*
D12*
X181301607Y-123747544D02*
X181301607Y-129407544D01*
D13*
X177001607Y-128827544D02*
G75*
G02*
X176801607Y-128827544I-100000J0D01*
G01*
X176801607Y-128827544D02*
G75*
G02*
X177001607Y-128827544I100000J0D01*
G01*
D12*
X178701607Y-128157544D02*
X178701607Y-126497544D01*
X178701607Y-125157544D02*
X178701607Y-124997544D01*
X180381607Y-129927544D02*
X179621607Y-129927544D01*
X180381607Y-123227544D02*
X179621607Y-123227544D01*
D10*
X150099991Y-202781752D02*
X148039381Y-202031752D01*
X148039381Y-203531752D02*
X150099991Y-202781752D01*
X148039381Y-202031752D02*
X148039381Y-203531752D01*
X136289381Y-215281752D02*
X134789381Y-215281752D01*
X136289381Y-190281752D02*
X135539381Y-188221142D01*
X135539381Y-217342362D02*
X136289381Y-215281752D01*
X135539381Y-188221142D02*
X134789381Y-190281752D01*
X134789381Y-215281752D02*
X135539381Y-217342362D01*
X134789381Y-190281752D02*
X136289381Y-190281752D01*
X123039381Y-203531752D02*
X123039381Y-202031752D01*
X123039381Y-202031752D02*
X120978771Y-202781752D01*
X120978771Y-202781752D02*
X123039381Y-203531752D01*
X139539381Y-202781752D02*
G75*
G02*
X131539381Y-202781752I-4000000J0D01*
G01*
X131539381Y-202781752D02*
G75*
G02*
X139539381Y-202781752I4000000J0D01*
G01*
X146989381Y-202781752D02*
G75*
G02*
X124089381Y-202781752I-11450000J0D01*
G01*
X124089381Y-202781752D02*
G75*
G02*
X146989381Y-202781752I11450000J0D01*
G01*
D14*
X249626607Y-114737544D02*
X262326607Y-114737544D01*
X262326607Y-117277544D01*
X249626607Y-117277544D01*
X249626607Y-114737544D01*
X163901607Y-114837544D02*
X176601607Y-114837544D01*
X176601607Y-117377544D01*
X163901607Y-117377544D01*
X163901607Y-114837544D01*
D15*
X181631207Y-120954044D02*
X181631207Y-116001044D01*
X181631207Y-116001044D02*
X181289948Y-116001044D01*
X177872007Y-116001044D02*
X177872007Y-120954044D01*
X177872007Y-120954044D02*
X178213266Y-120954044D01*
X179589946Y-120954044D02*
X179913268Y-120954044D01*
X181289948Y-120954044D02*
X181631207Y-120954044D01*
X179913268Y-116001044D02*
X179589946Y-116001044D01*
X178213266Y-116001044D02*
X177872007Y-116001044D01*
D12*
X244926607Y-129307544D02*
X244926607Y-123647544D01*
D13*
X249426607Y-124227544D02*
G75*
G02*
X249226607Y-124227544I-100000J0D01*
G01*
X249226607Y-124227544D02*
G75*
G02*
X249426607Y-124227544I100000J0D01*
G01*
D12*
X247526607Y-124897544D02*
X247526607Y-126557544D01*
X247526607Y-127897544D02*
X247526607Y-128057544D01*
X245846607Y-123127544D02*
X246606607Y-123127544D01*
X245846607Y-129827544D02*
X246606607Y-129827544D01*
D15*
X244597007Y-115901044D02*
X244597007Y-120854044D01*
X244597007Y-120854044D02*
X244938266Y-120854044D01*
X248356207Y-120854044D02*
X248356207Y-115901044D01*
X248356207Y-115901044D02*
X248014948Y-115901044D01*
X246638268Y-115901044D02*
X246314946Y-115901044D01*
X244938266Y-115901044D02*
X244597007Y-115901044D01*
X246314946Y-120854044D02*
X246638268Y-120854044D01*
X248014948Y-120854044D02*
X248356207Y-120854044D01*
D16*
X247086607Y-81497544D02*
X264866607Y-81497544D01*
X264866607Y-81497544D02*
X264866607Y-114517544D01*
X247086607Y-114517544D02*
X247086607Y-81497544D01*
X264866607Y-114517544D02*
X247086607Y-114517544D01*
X161361607Y-81597544D02*
X179141607Y-81597544D01*
X179141607Y-81597544D02*
X179141607Y-114617544D01*
X161361607Y-114617544D02*
X161361607Y-81597544D01*
X179141607Y-114617544D02*
X161361607Y-114617544D01*
D17*
X263596607Y-85307544D03*
X263596607Y-87847544D03*
X263596607Y-90387544D03*
X263596607Y-92927544D03*
X263596607Y-95467544D03*
X263596607Y-98007544D03*
X263596607Y-100547544D03*
X263596607Y-103087544D03*
X263596607Y-105627544D03*
X263596607Y-108167544D03*
X263596607Y-110707544D03*
X263596607Y-113247544D03*
X248356607Y-113247544D03*
X248356607Y-110707544D03*
X248356607Y-108167544D03*
X248356607Y-105627544D03*
X248356607Y-103087544D03*
X248356607Y-100547544D03*
X248356607Y-98007544D03*
X248356607Y-95467544D03*
X248356607Y-92927544D03*
X248356607Y-90387544D03*
X248356607Y-87847544D03*
X248356607Y-85307544D03*
X261056607Y-108167544D03*
X258516607Y-108167544D03*
X255976607Y-108167544D03*
X177871607Y-85407544D03*
X177871607Y-87947544D03*
X177871607Y-90487544D03*
X177871607Y-93027544D03*
X177871607Y-95567544D03*
X177871607Y-98107544D03*
X177871607Y-100647544D03*
X177871607Y-103187544D03*
X177871607Y-105727544D03*
X177871607Y-108267544D03*
X177871607Y-110807544D03*
X177871607Y-113347544D03*
X162631607Y-113347544D03*
X162631607Y-110807544D03*
X162631607Y-108267544D03*
X162631607Y-105727544D03*
X162631607Y-103187544D03*
X162631607Y-100647544D03*
X162631607Y-98107544D03*
X162631607Y-95567544D03*
X162631607Y-93027544D03*
X162631607Y-90487544D03*
X162631607Y-87947544D03*
X162631607Y-85407544D03*
X175331607Y-108267544D03*
X172791607Y-108267544D03*
X170251607Y-108267544D03*
D18*
X151581850Y-176177544D02*
X132151607Y-176177544D01*
X103076607Y-76427544D02*
X103076607Y-75427544D01*
X168958035Y-184228503D02*
X151793159Y-176224390D01*
X103576607Y-74927544D02*
X122626607Y-74927544D01*
X181776606Y-157811695D02*
G75*
G02*
X181729765Y-158023010I-499606J-105D01*
G01*
X294576607Y-175677544D02*
G75*
G02*
X294076607Y-176177607I-500107J44D01*
G01*
X181276607Y-79927544D02*
G75*
G02*
X181776556Y-80427544I-7J-499956D01*
G01*
X123626607Y-76927544D02*
X141676607Y-76927544D01*
X341701607Y-76927544D02*
X323651607Y-76927544D01*
D19*
X117351881Y-191582162D02*
G75*
G02*
X119151881Y-189782181I1800019J-38D01*
G01*
D18*
X332676607Y-172677544D02*
G75*
G02*
X332176607Y-173177607I-500107J44D01*
G01*
X332676607Y-172677544D02*
X332676607Y-162627544D01*
X302601607Y-76927544D02*
X284551607Y-76927544D01*
X84026607Y-77427544D02*
G75*
G02*
X84526607Y-76927507I499993J44D01*
G01*
X332676607Y-162627544D02*
G75*
G02*
X333176607Y-162127607I499893J44D01*
G01*
X93551607Y-172677544D02*
X93551607Y-162627544D01*
X94051607Y-173177544D02*
G75*
G02*
X93551556Y-172677544I-7J500044D01*
G01*
X244498454Y-158023007D02*
X256605717Y-183986662D01*
D19*
X125211941Y-187886792D02*
G75*
G02*
X125211943Y-217676709I10327439J-14894958D01*
G01*
D18*
X151581850Y-176177544D02*
G75*
G02*
X151793164Y-176224379I-50J-500356D01*
G01*
X169622497Y-183986661D02*
G75*
G02*
X168958020Y-184228535I-453197J211361D01*
G01*
X122626607Y-74927544D02*
G75*
G02*
X123126556Y-75427544I-7J-499956D01*
G01*
X65476607Y-81927544D02*
X83526607Y-81927544D01*
X361251607Y-84427544D02*
X361251607Y-82427544D01*
X132151607Y-176177544D02*
G75*
G02*
X131651556Y-175677544I-7J500044D01*
G01*
X380301607Y-161627544D02*
X380301607Y-85427544D01*
X142676607Y-79927544D02*
G75*
G02*
X142176556Y-79427544I-7J500044D01*
G01*
X142676607Y-79927544D02*
X181276607Y-79927544D01*
X257270180Y-184228503D02*
G75*
G02*
X256605732Y-183986655I-211280J453203D01*
G01*
D20*
X120251881Y-213981342D02*
G75*
G02*
X118051881Y-213981342I-1100000J0D01*
G01*
X118051881Y-213981342D02*
G75*
G02*
X120251881Y-213981342I1100000J0D01*
G01*
D18*
X142176607Y-77427544D02*
X142176607Y-79427544D01*
X274435055Y-176224390D02*
G75*
G02*
X274646364Y-176177544I211145J-452410D01*
G01*
X323651607Y-76927544D02*
G75*
G02*
X323151656Y-76427544I-7J499944D01*
G01*
X84526607Y-76927544D02*
X102576607Y-76927544D01*
X322651607Y-74927544D02*
G75*
G02*
X323151656Y-75427544I-7J-500056D01*
G01*
X46426607Y-84927544D02*
X64476607Y-84927544D01*
X379801607Y-84927544D02*
X361751607Y-84927544D01*
X333176607Y-162127544D02*
X379801607Y-162127544D01*
X131151607Y-173177544D02*
X94051607Y-173177544D01*
X342701607Y-81927544D02*
G75*
G02*
X342201656Y-81427544I-7J499944D01*
G01*
X322651607Y-74927544D02*
X303601607Y-74927544D01*
X379801607Y-84927544D02*
G75*
G02*
X380301656Y-85427544I-7J-500056D01*
G01*
D20*
X120251881Y-191582162D02*
G75*
G02*
X118051881Y-191582162I-1100000J0D01*
G01*
X118051881Y-191582162D02*
G75*
G02*
X120251881Y-191582162I1100000J0D01*
G01*
D18*
X342201607Y-81427544D02*
X342201607Y-77427544D01*
X46426607Y-162127544D02*
G75*
G02*
X45926556Y-161627544I-7J500044D01*
G01*
X64976607Y-84427544D02*
G75*
G02*
X64476607Y-84927507I-500007J44D01*
G01*
X283551607Y-79927544D02*
X244951607Y-79927544D01*
X274646364Y-176177544D02*
X294076607Y-176177544D01*
D19*
X121151881Y-215781342D02*
G75*
G02*
X123568364Y-216537128I19J-4240958D01*
G01*
D18*
X284051607Y-77427544D02*
X284051607Y-79427544D01*
X131651607Y-175677544D02*
X131651607Y-173677544D01*
X303101607Y-75427544D02*
G75*
G02*
X303601607Y-74927607I499893J44D01*
G01*
X123126607Y-75427544D02*
X123126607Y-76427544D01*
X181729760Y-158023007D02*
X169622497Y-183986662D01*
X294576607Y-173677544D02*
G75*
G02*
X295076607Y-173177607I499893J44D01*
G01*
D19*
X123568361Y-216537148D02*
X125211941Y-217676707D01*
X119151881Y-189782162D02*
X121161559Y-189782162D01*
D18*
X360751607Y-81927544D02*
G75*
G02*
X361251656Y-82427544I-7J-500056D01*
G01*
X84026607Y-81427544D02*
G75*
G02*
X83526607Y-81927507I-500007J44D01*
G01*
X323151607Y-76427544D02*
X323151607Y-75427544D01*
D19*
X119151881Y-215781342D02*
G75*
G02*
X117351858Y-213981342I19J1800042D01*
G01*
D18*
X244498455Y-158023007D02*
G75*
G02*
X244451609Y-157811695I453145J211307D01*
G01*
X284051607Y-79427544D02*
G75*
G02*
X283551607Y-79927607I-500107J44D01*
G01*
X64976607Y-84427544D02*
X64976607Y-82427544D01*
X181776607Y-80427544D02*
X181776607Y-157811695D01*
X45926607Y-85427544D02*
G75*
G02*
X46426607Y-84927507I499993J44D01*
G01*
D19*
X123568361Y-189026372D02*
G75*
G02*
X121151881Y-189782174I-2416461J3485072D01*
G01*
D18*
X294576607Y-175677544D02*
X294576607Y-173677544D01*
X341701607Y-76927544D02*
G75*
G02*
X342201656Y-77427544I-7J-500056D01*
G01*
X361751607Y-84927544D02*
G75*
G02*
X361251656Y-84427544I-7J499944D01*
G01*
X45926607Y-161627544D02*
X45926607Y-85427544D01*
X380301607Y-161627544D02*
G75*
G02*
X379801607Y-162127607I-500107J44D01*
G01*
X244451607Y-80427544D02*
X244451607Y-157811695D01*
X141676607Y-76927544D02*
G75*
G02*
X142176556Y-77427544I-7J-499956D01*
G01*
X284051607Y-77427544D02*
G75*
G02*
X284551607Y-76927607I499893J44D01*
G01*
X64976607Y-82427544D02*
G75*
G02*
X65476607Y-81927507I499993J44D01*
G01*
X123626607Y-76927544D02*
G75*
G02*
X123126556Y-76427544I-7J500044D01*
G01*
X93051607Y-162127544D02*
X46426607Y-162127544D01*
X244451607Y-80427544D02*
G75*
G02*
X244951607Y-79927607I499893J44D01*
G01*
X303101607Y-76427544D02*
G75*
G02*
X302601607Y-76927607I-500107J44D01*
G01*
X103076607Y-75427544D02*
G75*
G02*
X103576607Y-74927507I499993J44D01*
G01*
D19*
X119151881Y-215781342D02*
X121151900Y-215781342D01*
X125211941Y-187886792D02*
X123568361Y-189026371D01*
D18*
X93051607Y-162127544D02*
G75*
G02*
X93551556Y-162627544I-7J-499956D01*
G01*
X103076607Y-76427544D02*
G75*
G02*
X102576607Y-76927507I-500007J44D01*
G01*
X360751607Y-81927544D02*
X342701607Y-81927544D01*
D19*
X117351881Y-191582200D02*
X117351881Y-213990399D01*
D18*
X84026607Y-81427544D02*
X84026607Y-77427544D01*
X131151607Y-173177544D02*
G75*
G02*
X131651556Y-173677544I-7J-499956D01*
G01*
X257270179Y-184228503D02*
X274435055Y-176224390D01*
X303101607Y-75427544D02*
X303101607Y-76427544D01*
X295076607Y-173177544D02*
X332176607Y-173177544D01*
D20*
X70451607Y-149102544D02*
G75*
G02*
X68551607Y-149102544I-950000J0D01*
G01*
X68551607Y-149102544D02*
G75*
G02*
X70451607Y-149102544I950000J0D01*
G01*
X81451607Y-149102544D02*
G75*
G02*
X79551607Y-149102544I-950000J0D01*
G01*
X79551607Y-149102544D02*
G75*
G02*
X81451607Y-149102544I950000J0D01*
G01*
X289526607Y-125052544D02*
G75*
G02*
X287626607Y-125052544I-950000J0D01*
G01*
X287626607Y-125052544D02*
G75*
G02*
X289526607Y-125052544I950000J0D01*
G01*
X300526607Y-125052544D02*
G75*
G02*
X298626607Y-125052544I-950000J0D01*
G01*
X298626607Y-125052544D02*
G75*
G02*
X300526607Y-125052544I950000J0D01*
G01*
X308576607Y-104002544D02*
G75*
G02*
X306676607Y-104002544I-950000J0D01*
G01*
X306676607Y-104002544D02*
G75*
G02*
X308576607Y-104002544I950000J0D01*
G01*
X319576607Y-104002544D02*
G75*
G02*
X317676607Y-104002544I-950000J0D01*
G01*
X317676607Y-104002544D02*
G75*
G02*
X319576607Y-104002544I950000J0D01*
G01*
X99026607Y-163152544D02*
G75*
G02*
X97126607Y-163152544I-950000J0D01*
G01*
X97126607Y-163152544D02*
G75*
G02*
X99026607Y-163152544I950000J0D01*
G01*
X110026607Y-163152544D02*
G75*
G02*
X108126607Y-163152544I-950000J0D01*
G01*
X108126607Y-163152544D02*
G75*
G02*
X110026607Y-163152544I950000J0D01*
G01*
X146651607Y-147102544D02*
G75*
G02*
X144751607Y-147102544I-950000J0D01*
G01*
X144751607Y-147102544D02*
G75*
G02*
X146651607Y-147102544I950000J0D01*
G01*
X157651607Y-147102544D02*
G75*
G02*
X155751607Y-147102544I-950000J0D01*
G01*
X155751607Y-147102544D02*
G75*
G02*
X157651607Y-147102544I950000J0D01*
G01*
X327626607Y-144102544D02*
G75*
G02*
X325726607Y-144102544I-950000J0D01*
G01*
X325726607Y-144102544D02*
G75*
G02*
X327626607Y-144102544I950000J0D01*
G01*
X338626607Y-144102544D02*
G75*
G02*
X336726607Y-144102544I-950000J0D01*
G01*
X336726607Y-144102544D02*
G75*
G02*
X338626607Y-144102544I950000J0D01*
G01*
X365726607Y-94952544D02*
G75*
G02*
X363826607Y-94952544I-950000J0D01*
G01*
X363826607Y-94952544D02*
G75*
G02*
X365726607Y-94952544I950000J0D01*
G01*
X376726607Y-94952544D02*
G75*
G02*
X374826607Y-94952544I-950000J0D01*
G01*
X374826607Y-94952544D02*
G75*
G02*
X376726607Y-94952544I950000J0D01*
G01*
X89501607Y-106002544D02*
G75*
G02*
X87601607Y-106002544I-950000J0D01*
G01*
X87601607Y-106002544D02*
G75*
G02*
X89501607Y-106002544I950000J0D01*
G01*
X100501607Y-106002544D02*
G75*
G02*
X98601607Y-106002544I-950000J0D01*
G01*
X98601607Y-106002544D02*
G75*
G02*
X100501607Y-106002544I950000J0D01*
G01*
X108551607Y-142102544D02*
G75*
G02*
X106651607Y-142102544I-950000J0D01*
G01*
X106651607Y-142102544D02*
G75*
G02*
X108551607Y-142102544I950000J0D01*
G01*
X119551607Y-142102544D02*
G75*
G02*
X117651607Y-142102544I-950000J0D01*
G01*
X117651607Y-142102544D02*
G75*
G02*
X119551607Y-142102544I950000J0D01*
G01*
X346676607Y-111002544D02*
G75*
G02*
X344776607Y-111002544I-950000J0D01*
G01*
X344776607Y-111002544D02*
G75*
G02*
X346676607Y-111002544I950000J0D01*
G01*
X357676607Y-111002544D02*
G75*
G02*
X355776607Y-111002544I-950000J0D01*
G01*
X355776607Y-111002544D02*
G75*
G02*
X357676607Y-111002544I950000J0D01*
G01*
D19*
X148445981Y-213388352D02*
G75*
G02*
X143845981Y-213388352I-2300000J0D01*
G01*
X143845981Y-213388352D02*
G75*
G02*
X148445981Y-213388352I2300000J0D01*
G01*
X148445981Y-192175152D02*
G75*
G02*
X143845981Y-192175152I-2300000J0D01*
G01*
X143845981Y-192175152D02*
G75*
G02*
X148445981Y-192175152I2300000J0D01*
G01*
X139521361Y-205963732D02*
G75*
G02*
X137921361Y-205963732I-800000J0D01*
G01*
X137921361Y-205963732D02*
G75*
G02*
X139521361Y-205963732I800000J0D01*
G01*
X133157401Y-199599772D02*
G75*
G02*
X131557401Y-199599772I-800000J0D01*
G01*
X131557401Y-199599772D02*
G75*
G02*
X133157401Y-199599772I800000J0D01*
G01*
X127232781Y-213388352D02*
G75*
G02*
X122632781Y-213388352I-2300000J0D01*
G01*
X122632781Y-213388352D02*
G75*
G02*
X127232781Y-213388352I2300000J0D01*
G01*
X127232781Y-192175152D02*
G75*
G02*
X122632781Y-192175152I-2300000J0D01*
G01*
X122632781Y-192175152D02*
G75*
G02*
X127232781Y-192175152I2300000J0D01*
G01*
D20*
X327626607Y-106002544D02*
G75*
G02*
X325726607Y-106002544I-950000J0D01*
G01*
X325726607Y-106002544D02*
G75*
G02*
X327626607Y-106002544I950000J0D01*
G01*
X338626607Y-106002544D02*
G75*
G02*
X336726607Y-106002544I-950000J0D01*
G01*
X336726607Y-106002544D02*
G75*
G02*
X338626607Y-106002544I950000J0D01*
G01*
X51401607Y-94952544D02*
G75*
G02*
X49501607Y-94952544I-950000J0D01*
G01*
X49501607Y-94952544D02*
G75*
G02*
X51401607Y-94952544I950000J0D01*
G01*
X62401607Y-94952544D02*
G75*
G02*
X60501607Y-94952544I-950000J0D01*
G01*
X60501607Y-94952544D02*
G75*
G02*
X62401607Y-94952544I950000J0D01*
G01*
X89501607Y-86952544D02*
G75*
G02*
X87601607Y-86952544I-950000J0D01*
G01*
X87601607Y-86952544D02*
G75*
G02*
X89501607Y-86952544I950000J0D01*
G01*
X100501607Y-86952544D02*
G75*
G02*
X98601607Y-86952544I-950000J0D01*
G01*
X98601607Y-86952544D02*
G75*
G02*
X100501607Y-86952544I950000J0D01*
G01*
X118076607Y-163152544D02*
G75*
G02*
X116176607Y-163152544I-950000J0D01*
G01*
X116176607Y-163152544D02*
G75*
G02*
X118076607Y-163152544I950000J0D01*
G01*
X129076607Y-163152544D02*
G75*
G02*
X127176607Y-163152544I-950000J0D01*
G01*
X127176607Y-163152544D02*
G75*
G02*
X129076607Y-163152544I950000J0D01*
G01*
X308576607Y-84952544D02*
G75*
G02*
X306676607Y-84952544I-950000J0D01*
G01*
X306676607Y-84952544D02*
G75*
G02*
X308576607Y-84952544I950000J0D01*
G01*
X319576607Y-84952544D02*
G75*
G02*
X317676607Y-84952544I-950000J0D01*
G01*
X317676607Y-84952544D02*
G75*
G02*
X319576607Y-84952544I950000J0D01*
G01*
X51401607Y-152102544D02*
G75*
G02*
X49501607Y-152102544I-950000J0D01*
G01*
X49501607Y-152102544D02*
G75*
G02*
X51401607Y-152102544I950000J0D01*
G01*
X62401607Y-152102544D02*
G75*
G02*
X60501607Y-152102544I-950000J0D01*
G01*
X60501607Y-152102544D02*
G75*
G02*
X62401607Y-152102544I950000J0D01*
G01*
X327626607Y-86952544D02*
G75*
G02*
X325726607Y-86952544I-950000J0D01*
G01*
X325726607Y-86952544D02*
G75*
G02*
X327626607Y-86952544I950000J0D01*
G01*
X338626607Y-86952544D02*
G75*
G02*
X336726607Y-86952544I-950000J0D01*
G01*
X336726607Y-86952544D02*
G75*
G02*
X338626607Y-86952544I950000J0D01*
G01*
X365726607Y-114002544D02*
G75*
G02*
X363826607Y-114002544I-950000J0D01*
G01*
X363826607Y-114002544D02*
G75*
G02*
X365726607Y-114002544I950000J0D01*
G01*
X376726607Y-114002544D02*
G75*
G02*
X374826607Y-114002544I-950000J0D01*
G01*
X374826607Y-114002544D02*
G75*
G02*
X376726607Y-114002544I950000J0D01*
G01*
X258278895Y-161816344D02*
G75*
G02*
X256378897Y-161816344I-949999J0D01*
G01*
X256378897Y-161816344D02*
G75*
G02*
X258278895Y-161816344I949999J0D01*
G01*
X262927696Y-171785730D02*
G75*
G02*
X261027696Y-171785730I-950000J0D01*
G01*
X261027696Y-171785730D02*
G75*
G02*
X262927696Y-171785730I950000J0D01*
G01*
X346676607Y-149102544D02*
G75*
G02*
X344776607Y-149102544I-950000J0D01*
G01*
X344776607Y-149102544D02*
G75*
G02*
X346676607Y-149102544I950000J0D01*
G01*
X357676607Y-149102544D02*
G75*
G02*
X355776607Y-149102544I-950000J0D01*
G01*
X355776607Y-149102544D02*
G75*
G02*
X357676607Y-149102544I950000J0D01*
G01*
X308576607Y-142102544D02*
G75*
G02*
X306676607Y-142102544I-950000J0D01*
G01*
X306676607Y-142102544D02*
G75*
G02*
X308576607Y-142102544I950000J0D01*
G01*
X319576607Y-142102544D02*
G75*
G02*
X317676607Y-142102544I-950000J0D01*
G01*
X317676607Y-142102544D02*
G75*
G02*
X319576607Y-142102544I950000J0D01*
G01*
X127601607Y-144102544D02*
G75*
G02*
X125701607Y-144102544I-950000J0D01*
G01*
X125701607Y-144102544D02*
G75*
G02*
X127601607Y-144102544I950000J0D01*
G01*
X138601607Y-144102544D02*
G75*
G02*
X136701607Y-144102544I-950000J0D01*
G01*
X136701607Y-144102544D02*
G75*
G02*
X138601607Y-144102544I950000J0D01*
G01*
X127601607Y-86952544D02*
G75*
G02*
X125701607Y-86952544I-950000J0D01*
G01*
X125701607Y-86952544D02*
G75*
G02*
X127601607Y-86952544I950000J0D01*
G01*
X138601607Y-86952544D02*
G75*
G02*
X136701607Y-86952544I-950000J0D01*
G01*
X136701607Y-86952544D02*
G75*
G02*
X138601607Y-86952544I950000J0D01*
G01*
X127601607Y-106002544D02*
G75*
G02*
X125701607Y-106002544I-950000J0D01*
G01*
X125701607Y-106002544D02*
G75*
G02*
X127601607Y-106002544I950000J0D01*
G01*
X138601607Y-106002544D02*
G75*
G02*
X136701607Y-106002544I-950000J0D01*
G01*
X136701607Y-106002544D02*
G75*
G02*
X138601607Y-106002544I950000J0D01*
G01*
X270476607Y-147102544D02*
G75*
G02*
X268576607Y-147102544I-950000J0D01*
G01*
X268576607Y-147102544D02*
G75*
G02*
X270476607Y-147102544I950000J0D01*
G01*
X281476607Y-147102544D02*
G75*
G02*
X279576607Y-147102544I-950000J0D01*
G01*
X279576607Y-147102544D02*
G75*
G02*
X281476607Y-147102544I950000J0D01*
G01*
X70451607Y-130052544D02*
G75*
G02*
X68551607Y-130052544I-950000J0D01*
G01*
X68551607Y-130052544D02*
G75*
G02*
X70451607Y-130052544I950000J0D01*
G01*
X81451607Y-130052544D02*
G75*
G02*
X79551607Y-130052544I-950000J0D01*
G01*
X79551607Y-130052544D02*
G75*
G02*
X81451607Y-130052544I950000J0D01*
G01*
X165200519Y-171785730D02*
G75*
G02*
X163300517Y-171785730I-950001J0D01*
G01*
X163300517Y-171785730D02*
G75*
G02*
X165200519Y-171785730I950001J0D01*
G01*
X169849318Y-161816344D02*
G75*
G02*
X167949318Y-161816344I-950000J0D01*
G01*
X167949318Y-161816344D02*
G75*
G02*
X169849318Y-161816344I950000J0D01*
G01*
X146651607Y-89952544D02*
G75*
G02*
X144751607Y-89952544I-950000J0D01*
G01*
X144751607Y-89952544D02*
G75*
G02*
X146651607Y-89952544I950000J0D01*
G01*
X157651607Y-89952544D02*
G75*
G02*
X155751607Y-89952544I-950000J0D01*
G01*
X155751607Y-89952544D02*
G75*
G02*
X157651607Y-89952544I950000J0D01*
G01*
X89501607Y-125052544D02*
G75*
G02*
X87601607Y-125052544I-950000J0D01*
G01*
X87601607Y-125052544D02*
G75*
G02*
X89501607Y-125052544I950000J0D01*
G01*
X100501607Y-125052544D02*
G75*
G02*
X98601607Y-125052544I-950000J0D01*
G01*
X98601607Y-125052544D02*
G75*
G02*
X100501607Y-125052544I950000J0D01*
G01*
X270476607Y-128052544D02*
G75*
G02*
X268576607Y-128052544I-950000J0D01*
G01*
X268576607Y-128052544D02*
G75*
G02*
X270476607Y-128052544I950000J0D01*
G01*
X281476607Y-128052544D02*
G75*
G02*
X279576607Y-128052544I-950000J0D01*
G01*
X279576607Y-128052544D02*
G75*
G02*
X281476607Y-128052544I950000J0D01*
G01*
X289526607Y-86952544D02*
G75*
G02*
X287626607Y-86952544I-950000J0D01*
G01*
X287626607Y-86952544D02*
G75*
G02*
X289526607Y-86952544I950000J0D01*
G01*
X300526607Y-86952544D02*
G75*
G02*
X298626607Y-86952544I-950000J0D01*
G01*
X298626607Y-86952544D02*
G75*
G02*
X300526607Y-86952544I950000J0D01*
G01*
X165701607Y-137577544D02*
G75*
G02*
X163801607Y-137577544I-950000J0D01*
G01*
X163801607Y-137577544D02*
G75*
G02*
X165701607Y-137577544I950000J0D01*
G01*
X176701607Y-137577544D02*
G75*
G02*
X174801607Y-137577544I-950000J0D01*
G01*
X174801607Y-137577544D02*
G75*
G02*
X176701607Y-137577544I950000J0D01*
G01*
X146651607Y-109002544D02*
G75*
G02*
X144751607Y-109002544I-950000J0D01*
G01*
X144751607Y-109002544D02*
G75*
G02*
X146651607Y-109002544I950000J0D01*
G01*
X157651607Y-109002544D02*
G75*
G02*
X155751607Y-109002544I-950000J0D01*
G01*
X155751607Y-109002544D02*
G75*
G02*
X157651607Y-109002544I950000J0D01*
G01*
X365726607Y-152102544D02*
G75*
G02*
X363826607Y-152102544I-950000J0D01*
G01*
X363826607Y-152102544D02*
G75*
G02*
X365726607Y-152102544I950000J0D01*
G01*
X376726607Y-152102544D02*
G75*
G02*
X374826607Y-152102544I-950000J0D01*
G01*
X374826607Y-152102544D02*
G75*
G02*
X376726607Y-152102544I950000J0D01*
G01*
X299051607Y-163152544D02*
G75*
G02*
X297151607Y-163152544I-950000J0D01*
G01*
X297151607Y-163152544D02*
G75*
G02*
X299051607Y-163152544I950000J0D01*
G01*
X310051607Y-163152544D02*
G75*
G02*
X308151607Y-163152544I-950000J0D01*
G01*
X308151607Y-163152544D02*
G75*
G02*
X310051607Y-163152544I950000J0D01*
G01*
D19*
X167252107Y-138027134D02*
X173252107Y-138027134D01*
X173252107Y-140027134D01*
X167252107Y-140027134D01*
X167252107Y-138027134D01*
D20*
X163776607Y-125427544D02*
G75*
G02*
X161576607Y-125427544I-1100000J0D01*
G01*
X161576607Y-125427544D02*
G75*
G02*
X163776607Y-125427544I1100000J0D01*
G01*
X163776607Y-147826724D02*
G75*
G02*
X161576607Y-147826724I-1100000J0D01*
G01*
X161576607Y-147826724D02*
G75*
G02*
X163776607Y-147826724I1100000J0D01*
G01*
X51401607Y-133052544D02*
G75*
G02*
X49501607Y-133052544I-950000J0D01*
G01*
X49501607Y-133052544D02*
G75*
G02*
X51401607Y-133052544I950000J0D01*
G01*
X62401607Y-133052544D02*
G75*
G02*
X60501607Y-133052544I-950000J0D01*
G01*
X60501607Y-133052544D02*
G75*
G02*
X62401607Y-133052544I950000J0D01*
G01*
X146651607Y-128052544D02*
G75*
G02*
X144751607Y-128052544I-950000J0D01*
G01*
X144751607Y-128052544D02*
G75*
G02*
X146651607Y-128052544I950000J0D01*
G01*
X157651607Y-128052544D02*
G75*
G02*
X155751607Y-128052544I-950000J0D01*
G01*
X155751607Y-128052544D02*
G75*
G02*
X157651607Y-128052544I950000J0D01*
G01*
X108551607Y-84952544D02*
G75*
G02*
X106651607Y-84952544I-950000J0D01*
G01*
X106651607Y-84952544D02*
G75*
G02*
X108551607Y-84952544I950000J0D01*
G01*
X119551607Y-84952544D02*
G75*
G02*
X117651607Y-84952544I-950000J0D01*
G01*
X117651607Y-84952544D02*
G75*
G02*
X119551607Y-84952544I950000J0D01*
G01*
D19*
X163776607Y-118359634D02*
G75*
G02*
X161576607Y-118359634I-1100000J0D01*
G01*
X161576607Y-118359634D02*
G75*
G02*
X163776607Y-118359634I1100000J0D01*
G01*
X166768217Y-121457544D02*
G75*
G02*
X164568217Y-121457544I-1100000J0D01*
G01*
X164568217Y-121457544D02*
G75*
G02*
X166768217Y-121457544I1100000J0D01*
G01*
D20*
X289526607Y-106002544D02*
G75*
G02*
X287626607Y-106002544I-950000J0D01*
G01*
X287626607Y-106002544D02*
G75*
G02*
X289526607Y-106002544I950000J0D01*
G01*
X300526607Y-106002544D02*
G75*
G02*
X298626607Y-106002544I-950000J0D01*
G01*
X298626607Y-106002544D02*
G75*
G02*
X300526607Y-106002544I950000J0D01*
G01*
X346676607Y-130052544D02*
G75*
G02*
X344776607Y-130052544I-950000J0D01*
G01*
X344776607Y-130052544D02*
G75*
G02*
X346676607Y-130052544I950000J0D01*
G01*
X357676607Y-130052544D02*
G75*
G02*
X355776607Y-130052544I-950000J0D01*
G01*
X355776607Y-130052544D02*
G75*
G02*
X357676607Y-130052544I950000J0D01*
G01*
X51401607Y-114002544D02*
G75*
G02*
X49501607Y-114002544I-950000J0D01*
G01*
X49501607Y-114002544D02*
G75*
G02*
X51401607Y-114002544I950000J0D01*
G01*
X62401607Y-114002544D02*
G75*
G02*
X60501607Y-114002544I-950000J0D01*
G01*
X60501607Y-114002544D02*
G75*
G02*
X62401607Y-114002544I950000J0D01*
G01*
X308576607Y-123052544D02*
G75*
G02*
X306676607Y-123052544I-950000J0D01*
G01*
X306676607Y-123052544D02*
G75*
G02*
X308576607Y-123052544I950000J0D01*
G01*
X319576607Y-123052544D02*
G75*
G02*
X317676607Y-123052544I-950000J0D01*
G01*
X317676607Y-123052544D02*
G75*
G02*
X319576607Y-123052544I950000J0D01*
G01*
D19*
X253976607Y-137777544D02*
X257976607Y-137777544D01*
X257976607Y-139777544D01*
X253976607Y-139777544D01*
X253976607Y-137777544D01*
X250816607Y-143677544D02*
G75*
G02*
X248616607Y-143677544I-1100000J0D01*
G01*
X248616607Y-143677544D02*
G75*
G02*
X250816607Y-143677544I1100000J0D01*
G01*
D20*
X108551607Y-123052544D02*
G75*
G02*
X106651607Y-123052544I-950000J0D01*
G01*
X106651607Y-123052544D02*
G75*
G02*
X108551607Y-123052544I950000J0D01*
G01*
X119551607Y-123052544D02*
G75*
G02*
X117651607Y-123052544I-950000J0D01*
G01*
X117651607Y-123052544D02*
G75*
G02*
X119551607Y-123052544I950000J0D01*
G01*
X89501607Y-144102544D02*
G75*
G02*
X87601607Y-144102544I-950000J0D01*
G01*
X87601607Y-144102544D02*
G75*
G02*
X89501607Y-144102544I950000J0D01*
G01*
X100501607Y-144102544D02*
G75*
G02*
X98601607Y-144102544I-950000J0D01*
G01*
X98601607Y-144102544D02*
G75*
G02*
X100501607Y-144102544I950000J0D01*
G01*
X280001607Y-166152544D02*
G75*
G02*
X278101607Y-166152544I-950000J0D01*
G01*
X278101607Y-166152544D02*
G75*
G02*
X280001607Y-166152544I950000J0D01*
G01*
X291001607Y-166152544D02*
G75*
G02*
X289101607Y-166152544I-950000J0D01*
G01*
X289101607Y-166152544D02*
G75*
G02*
X291001607Y-166152544I950000J0D01*
G01*
X270476607Y-109002544D02*
G75*
G02*
X268576607Y-109002544I-950000J0D01*
G01*
X268576607Y-109002544D02*
G75*
G02*
X270476607Y-109002544I950000J0D01*
G01*
X281476607Y-109002544D02*
G75*
G02*
X279576607Y-109002544I-950000J0D01*
G01*
X279576607Y-109002544D02*
G75*
G02*
X281476607Y-109002544I950000J0D01*
G01*
X289526607Y-144102544D02*
G75*
G02*
X287626607Y-144102544I-950000J0D01*
G01*
X287626607Y-144102544D02*
G75*
G02*
X289526607Y-144102544I950000J0D01*
G01*
X300526607Y-144102544D02*
G75*
G02*
X298626607Y-144102544I-950000J0D01*
G01*
X298626607Y-144102544D02*
G75*
G02*
X300526607Y-144102544I950000J0D01*
G01*
X70451607Y-111002544D02*
G75*
G02*
X68551607Y-111002544I-950000J0D01*
G01*
X68551607Y-111002544D02*
G75*
G02*
X70451607Y-111002544I950000J0D01*
G01*
X81451607Y-111002544D02*
G75*
G02*
X79551607Y-111002544I-950000J0D01*
G01*
X79551607Y-111002544D02*
G75*
G02*
X81451607Y-111002544I950000J0D01*
G01*
X251426607Y-137577544D02*
G75*
G02*
X249526607Y-137577544I-950000J0D01*
G01*
X249526607Y-137577544D02*
G75*
G02*
X251426607Y-137577544I950000J0D01*
G01*
X262426607Y-137577544D02*
G75*
G02*
X260526607Y-137577544I-950000J0D01*
G01*
X260526607Y-137577544D02*
G75*
G02*
X262426607Y-137577544I950000J0D01*
G01*
X327626607Y-125052544D02*
G75*
G02*
X325726607Y-125052544I-950000J0D01*
G01*
X325726607Y-125052544D02*
G75*
G02*
X327626607Y-125052544I950000J0D01*
G01*
X338626607Y-125052544D02*
G75*
G02*
X336726607Y-125052544I-950000J0D01*
G01*
X336726607Y-125052544D02*
G75*
G02*
X338626607Y-125052544I950000J0D01*
G01*
X70451607Y-91952544D02*
G75*
G02*
X68551607Y-91952544I-950000J0D01*
G01*
X68551607Y-91952544D02*
G75*
G02*
X70451607Y-91952544I950000J0D01*
G01*
X81451607Y-91952544D02*
G75*
G02*
X79551607Y-91952544I-950000J0D01*
G01*
X79551607Y-91952544D02*
G75*
G02*
X81451607Y-91952544I950000J0D01*
G01*
X318101607Y-163152544D02*
G75*
G02*
X316201607Y-163152544I-950000J0D01*
G01*
X316201607Y-163152544D02*
G75*
G02*
X318101607Y-163152544I950000J0D01*
G01*
X329101607Y-163152544D02*
G75*
G02*
X327201607Y-163152544I-950000J0D01*
G01*
X327201607Y-163152544D02*
G75*
G02*
X329101607Y-163152544I950000J0D01*
G01*
X127601607Y-125052544D02*
G75*
G02*
X125701607Y-125052544I-950000J0D01*
G01*
X125701607Y-125052544D02*
G75*
G02*
X127601607Y-125052544I950000J0D01*
G01*
X138601607Y-125052544D02*
G75*
G02*
X136701607Y-125052544I-950000J0D01*
G01*
X136701607Y-125052544D02*
G75*
G02*
X138601607Y-125052544I950000J0D01*
G01*
X270476607Y-89952544D02*
G75*
G02*
X268576607Y-89952544I-950000J0D01*
G01*
X268576607Y-89952544D02*
G75*
G02*
X270476607Y-89952544I950000J0D01*
G01*
X281476607Y-89952544D02*
G75*
G02*
X279576607Y-89952544I-950000J0D01*
G01*
X279576607Y-89952544D02*
G75*
G02*
X281476607Y-89952544I950000J0D01*
G01*
X365726607Y-133052544D02*
G75*
G02*
X363826607Y-133052544I-950000J0D01*
G01*
X363826607Y-133052544D02*
G75*
G02*
X365726607Y-133052544I950000J0D01*
G01*
X376726607Y-133052544D02*
G75*
G02*
X374826607Y-133052544I-950000J0D01*
G01*
X374826607Y-133052544D02*
G75*
G02*
X376726607Y-133052544I950000J0D01*
G01*
X346676607Y-91952544D02*
G75*
G02*
X344776607Y-91952544I-950000J0D01*
G01*
X344776607Y-91952544D02*
G75*
G02*
X346676607Y-91952544I950000J0D01*
G01*
X357676607Y-91952544D02*
G75*
G02*
X355776607Y-91952544I-950000J0D01*
G01*
X355776607Y-91952544D02*
G75*
G02*
X357676607Y-91952544I950000J0D01*
G01*
X108551607Y-104002544D02*
G75*
G02*
X106651607Y-104002544I-950000J0D01*
G01*
X106651607Y-104002544D02*
G75*
G02*
X108551607Y-104002544I950000J0D01*
G01*
X119551607Y-104002544D02*
G75*
G02*
X117651607Y-104002544I-950000J0D01*
G01*
X117651607Y-104002544D02*
G75*
G02*
X119551607Y-104002544I950000J0D01*
G01*
X137126607Y-166152544D02*
G75*
G02*
X135226607Y-166152544I-950000J0D01*
G01*
X135226607Y-166152544D02*
G75*
G02*
X137126607Y-166152544I950000J0D01*
G01*
X148126607Y-166152544D02*
G75*
G02*
X146226607Y-166152544I-950000J0D01*
G01*
X146226607Y-166152544D02*
G75*
G02*
X148126607Y-166152544I950000J0D01*
G01*
D19*
X264651607Y-118259634D02*
G75*
G02*
X262451607Y-118259634I-1100000J0D01*
G01*
X262451607Y-118259634D02*
G75*
G02*
X264651607Y-118259634I1100000J0D01*
G01*
X261659997Y-121357544D02*
G75*
G02*
X259459997Y-121357544I-1100000J0D01*
G01*
X259459997Y-121357544D02*
G75*
G02*
X261659997Y-121357544I1100000J0D01*
G01*
M02*
