G04 #@! TF.GenerationSoftware,KiCad,Pcbnew,9.0.3*
G04 #@! TF.CreationDate,2025-08-01T00:23:15-04:00*
G04 #@! TF.ProjectId,quartz58,71756172-747a-4353-982e-6b696361645f,rev?*
G04 #@! TF.SameCoordinates,Original*
G04 #@! TF.FileFunction,Soldermask,Top*
G04 #@! TF.FilePolarity,Negative*
%FSLAX46Y46*%
G04 Gerber Fmt 4.6, Leading zero omitted, Abs format (unit mm)*
G04 Created by KiCad (PCBNEW 9.0.3) date 2025-08-01 00:23:15*
%MOMM*%
%LPD*%
G01*
G04 APERTURE LIST*
G04 Aperture macros list*
%AMRoundRect*
0 Rectangle with rounded corners*
0 $1 Rounding radius*
0 $2 $3 $4 $5 $6 $7 $8 $9 X,Y pos of 4 corners*
0 Add a 4 corners polygon primitive as box body*
4,1,4,$2,$3,$4,$5,$6,$7,$8,$9,$2,$3,0*
0 Add four circle primitives for the rounded corners*
1,1,$1+$1,$2,$3*
1,1,$1+$1,$4,$5*
1,1,$1+$1,$6,$7*
1,1,$1+$1,$8,$9*
0 Add four rect primitives between the rounded corners*
20,1,$1+$1,$2,$3,$4,$5,0*
20,1,$1+$1,$4,$5,$6,$7,0*
20,1,$1+$1,$6,$7,$8,$9,0*
20,1,$1+$1,$8,$9,$2,$3,0*%
G04 Aperture macros list end*
%ADD10C,1.750000*%
%ADD11C,1.700000*%
%ADD12C,3.150000*%
%ADD13C,5.150000*%
%ADD14C,1.000000*%
%ADD15RoundRect,0.102000X0.750000X-0.350000X0.750000X0.350000X-0.750000X0.350000X-0.750000X-0.350000X0*%
%ADD16RoundRect,0.102000X0.400000X-0.500000X0.400000X0.500000X-0.400000X0.500000X-0.400000X-0.500000X0*%
%ADD17RoundRect,0.050000X-0.850000X0.850000X-0.850000X-0.850000X0.850000X-0.850000X0.850000X0.850000X0*%
%ADD18O,1.800000X1.800000*%
%ADD19C,1.900000*%
%ADD20C,1.852600*%
%ADD21RoundRect,0.050000X0.355600X-0.774700X0.355600X0.774700X-0.355600X0.774700X-0.355600X-0.774700X0*%
%ADD22RoundRect,0.102000X-0.750000X0.350000X-0.750000X-0.350000X0.750000X-0.350000X0.750000X0.350000X0*%
%ADD23RoundRect,0.102000X-0.400000X0.500000X-0.400000X-0.500000X0.400000X-0.500000X0.400000X0.500000X0*%
%ADD24RoundRect,0.050000X-0.355600X0.774700X-0.355600X-0.774700X0.355600X-0.774700X0.355600X0.774700X0*%
G04 APERTURE END LIST*
D10*
X69921607Y-149102544D03*
D11*
X70001607Y-154252544D03*
D12*
X71191607Y-146562544D03*
D13*
X75001607Y-149102544D03*
D12*
X77541607Y-144022544D03*
D10*
X80081607Y-149102544D03*
X288996607Y-125052544D03*
D11*
X289076607Y-130202544D03*
D12*
X290266607Y-122512544D03*
D13*
X294076607Y-125052544D03*
D12*
X296616607Y-119972544D03*
D10*
X299156607Y-125052544D03*
X308046607Y-104002544D03*
D11*
X308126607Y-109152544D03*
D12*
X309316607Y-101462544D03*
D13*
X313126607Y-104002544D03*
D12*
X315666607Y-98922544D03*
D10*
X318206607Y-104002544D03*
X98496607Y-163152544D03*
D11*
X98576607Y-168302544D03*
D12*
X99766607Y-160612544D03*
D13*
X103576607Y-163152544D03*
D12*
X106116607Y-158072544D03*
D10*
X108656607Y-163152544D03*
X146121607Y-147102544D03*
D11*
X146201607Y-152252544D03*
D12*
X147391607Y-144562544D03*
D13*
X151201607Y-147102544D03*
D12*
X153741607Y-142022544D03*
D10*
X156281607Y-147102544D03*
D14*
X179851607Y-127377544D03*
X179851607Y-124377544D03*
D15*
X178101607Y-128127544D03*
X178101607Y-125127544D03*
X178101607Y-123627544D03*
D16*
X178751607Y-129527544D03*
X178751607Y-122227544D03*
X180951607Y-129527544D03*
X180951607Y-122227544D03*
D10*
X327096607Y-144102544D03*
D11*
X327176607Y-149252544D03*
D12*
X328366607Y-141562544D03*
D13*
X332176607Y-144102544D03*
D12*
X334716607Y-139022544D03*
D10*
X337256607Y-144102544D03*
X365196607Y-94952544D03*
D11*
X365276607Y-100102544D03*
D12*
X366466607Y-92412544D03*
D13*
X370276607Y-94952544D03*
D12*
X372816607Y-89872544D03*
D10*
X375356607Y-94952544D03*
X88971607Y-106002544D03*
D11*
X89051607Y-111152544D03*
D12*
X90241607Y-103462544D03*
D13*
X94051607Y-106002544D03*
D12*
X96591607Y-100922544D03*
D10*
X99131607Y-106002544D03*
X108021607Y-142102544D03*
D11*
X108101607Y-147252544D03*
D12*
X109291607Y-139562544D03*
D13*
X113101607Y-142102544D03*
D12*
X115641607Y-137022544D03*
D10*
X118181607Y-142102544D03*
X346146607Y-111002544D03*
D11*
X346226607Y-116152544D03*
D12*
X347416607Y-108462544D03*
D13*
X351226607Y-111002544D03*
D12*
X353766607Y-105922544D03*
D10*
X356306607Y-111002544D03*
D17*
X259776607Y-118327544D03*
D18*
X257236607Y-118327544D03*
X254696607Y-118327544D03*
X252156607Y-118327544D03*
D19*
X128991571Y-196233942D03*
X128991571Y-209329562D03*
X142087191Y-209329562D03*
X136649381Y-201671752D03*
X127810701Y-187670882D03*
X119389061Y-206387992D03*
X143268061Y-217892622D03*
X151689701Y-199175512D03*
X138792071Y-186702142D03*
D10*
X327096607Y-106002544D03*
D11*
X327176607Y-111152544D03*
D12*
X328366607Y-103462544D03*
D13*
X332176607Y-106002544D03*
D12*
X334716607Y-100922544D03*
D10*
X337256607Y-106002544D03*
X50871607Y-94952544D03*
D11*
X50951607Y-100102544D03*
D12*
X52141607Y-92412544D03*
D13*
X55951607Y-94952544D03*
D12*
X58491607Y-89872544D03*
D10*
X61031607Y-94952544D03*
X88971607Y-86952544D03*
D11*
X89051607Y-92102544D03*
D12*
X90241607Y-84412544D03*
D13*
X94051607Y-86952544D03*
D12*
X96591607Y-81872544D03*
D10*
X99131607Y-86952544D03*
X117546607Y-163152544D03*
D11*
X117626607Y-168302544D03*
D12*
X118816607Y-160612544D03*
D13*
X122626607Y-163152544D03*
D12*
X125166607Y-158072544D03*
D10*
X127706607Y-163152544D03*
X308046607Y-84952544D03*
D11*
X308126607Y-90102544D03*
D12*
X309316607Y-82412544D03*
D13*
X313126607Y-84952544D03*
D12*
X315666607Y-79872544D03*
D10*
X318206607Y-84952544D03*
X50871607Y-152102544D03*
D11*
X50951607Y-157252544D03*
D12*
X52141607Y-149562544D03*
D13*
X55951607Y-152102544D03*
D12*
X58491607Y-147022544D03*
D10*
X61031607Y-152102544D03*
X327096607Y-86952544D03*
D11*
X327176607Y-92102544D03*
D12*
X328366607Y-84412544D03*
D13*
X332176607Y-86952544D03*
D12*
X334716607Y-81872544D03*
D10*
X337256607Y-86952544D03*
X365196607Y-114002544D03*
D11*
X365276607Y-119152544D03*
D12*
X366466607Y-111462544D03*
D13*
X370276607Y-114002544D03*
D12*
X372816607Y-108922544D03*
D10*
X375356607Y-114002544D03*
X257506395Y-162196993D03*
D11*
X252872720Y-164445982D03*
D12*
X260345142Y-162274554D03*
D13*
X259653296Y-166801037D03*
D12*
X265330790Y-166956158D03*
D10*
X261800197Y-171405081D03*
X346146607Y-149102544D03*
D11*
X346226607Y-154252544D03*
D12*
X347416607Y-146562544D03*
D13*
X351226607Y-149102544D03*
D12*
X353766607Y-144022544D03*
D10*
X356306607Y-149102544D03*
X308046607Y-142102544D03*
D11*
X308126607Y-147252544D03*
D12*
X309316607Y-139562544D03*
D13*
X313126607Y-142102544D03*
D12*
X315666607Y-137022544D03*
D10*
X318206607Y-142102544D03*
X127071607Y-144102544D03*
D11*
X127151607Y-149252544D03*
D12*
X128341607Y-141562544D03*
D13*
X132151607Y-144102544D03*
D12*
X134691607Y-139022544D03*
D10*
X137231607Y-144102544D03*
X127071607Y-86952544D03*
D11*
X127151607Y-92102544D03*
D12*
X128341607Y-84412544D03*
D13*
X132151607Y-86952544D03*
D12*
X134691607Y-81872544D03*
D10*
X137231607Y-86952544D03*
X127071607Y-106002544D03*
D11*
X127151607Y-111152544D03*
D12*
X128341607Y-103462544D03*
D13*
X132151607Y-106002544D03*
D12*
X134691607Y-100922544D03*
D10*
X137231607Y-106002544D03*
X269946607Y-147102544D03*
D11*
X270026607Y-152252544D03*
D12*
X271216607Y-144562544D03*
D13*
X275026607Y-147102544D03*
D12*
X277566607Y-142022544D03*
D10*
X280106607Y-147102544D03*
X69921607Y-130052544D03*
D11*
X70001607Y-135202544D03*
D12*
X71191607Y-127512544D03*
D13*
X75001607Y-130052544D03*
D12*
X77541607Y-124972544D03*
D10*
X80081607Y-130052544D03*
X164428017Y-171405081D03*
D11*
X169129312Y-173509060D03*
D12*
X162662721Y-169180619D03*
D13*
X166574918Y-166801037D03*
D12*
X163044325Y-162352114D03*
D10*
X168721819Y-162196993D03*
X146121607Y-89952544D03*
D11*
X146201607Y-95102544D03*
D12*
X147391607Y-87412544D03*
D13*
X151201607Y-89952544D03*
D12*
X153741607Y-84872544D03*
D10*
X156281607Y-89952544D03*
X88971607Y-125052544D03*
D11*
X89051607Y-130202544D03*
D12*
X90241607Y-122512544D03*
D13*
X94051607Y-125052544D03*
D12*
X96591607Y-119972544D03*
D10*
X99131607Y-125052544D03*
D20*
X250896607Y-115787544D03*
X253436607Y-115787544D03*
X255976607Y-115787544D03*
X258516607Y-115787544D03*
X261056607Y-115787544D03*
D10*
X269946607Y-128052544D03*
D11*
X270026607Y-133202544D03*
D12*
X271216607Y-125512544D03*
D13*
X275026607Y-128052544D03*
D12*
X277566607Y-122972544D03*
D10*
X280106607Y-128052544D03*
X288996607Y-86952544D03*
D11*
X289076607Y-92102544D03*
D12*
X290266607Y-84412544D03*
D13*
X294076607Y-86952544D03*
D12*
X296616607Y-81872544D03*
D10*
X299156607Y-86952544D03*
X165171607Y-137577544D03*
D11*
X165251607Y-142727544D03*
D12*
X166441607Y-135037544D03*
D13*
X170251607Y-137577544D03*
D12*
X172791607Y-132497544D03*
D10*
X175331607Y-137577544D03*
X146121607Y-109002544D03*
D11*
X146201607Y-114152544D03*
D12*
X147391607Y-106462544D03*
D13*
X151201607Y-109002544D03*
D12*
X153741607Y-103922544D03*
D10*
X156281607Y-109002544D03*
X365196607Y-152102544D03*
D11*
X365276607Y-157252544D03*
D12*
X366466607Y-149562544D03*
D13*
X370276607Y-152102544D03*
D12*
X372816607Y-147022544D03*
D10*
X375356607Y-152102544D03*
X298521607Y-163152544D03*
D11*
X298601607Y-168302544D03*
D12*
X299791607Y-160612544D03*
D13*
X303601607Y-163152544D03*
D12*
X306141607Y-158072544D03*
D10*
X308681607Y-163152544D03*
X50871607Y-133052544D03*
D11*
X50951607Y-138202544D03*
D12*
X52141607Y-130512544D03*
D13*
X55951607Y-133052544D03*
D12*
X58491607Y-127972544D03*
D10*
X61031607Y-133052544D03*
X146121607Y-128052544D03*
D11*
X146201607Y-133202544D03*
D12*
X147391607Y-125512544D03*
D13*
X151201607Y-128052544D03*
D12*
X153741607Y-122972544D03*
D10*
X156281607Y-128052544D03*
X108021607Y-84952544D03*
D11*
X108101607Y-90102544D03*
D12*
X109291607Y-82412544D03*
D13*
X113101607Y-84952544D03*
D12*
X115641607Y-79872544D03*
D10*
X118181607Y-84952544D03*
X288996607Y-106002544D03*
D11*
X289076607Y-111152544D03*
D12*
X290266607Y-103462544D03*
D13*
X294076607Y-106002544D03*
D12*
X296616607Y-100922544D03*
D10*
X299156607Y-106002544D03*
X346146607Y-130052544D03*
D11*
X346226607Y-135202544D03*
D12*
X347416607Y-127512544D03*
D13*
X351226607Y-130052544D03*
D12*
X353766607Y-124972544D03*
D10*
X356306607Y-130052544D03*
X50871607Y-114002544D03*
D11*
X50951607Y-119152544D03*
D12*
X52141607Y-111462544D03*
D13*
X55951607Y-114002544D03*
D12*
X58491607Y-108922544D03*
D10*
X61031607Y-114002544D03*
D20*
X165171607Y-115887544D03*
X167711607Y-115887544D03*
X170251607Y-115887544D03*
X172791607Y-115887544D03*
X175331607Y-115887544D03*
D10*
X308046607Y-123052544D03*
D11*
X308126607Y-128202544D03*
D12*
X309316607Y-120512544D03*
D13*
X313126607Y-123052544D03*
D12*
X315666607Y-117972544D03*
D10*
X318206607Y-123052544D03*
D21*
X178851606Y-120406444D03*
X180551608Y-120406444D03*
X180551608Y-115148644D03*
X178851606Y-115148644D03*
D10*
X108021607Y-123052544D03*
D11*
X108101607Y-128202544D03*
D12*
X109291607Y-120512544D03*
D13*
X113101607Y-123052544D03*
D12*
X115641607Y-117972544D03*
D10*
X118181607Y-123052544D03*
X88971607Y-144102544D03*
D11*
X89051607Y-149252544D03*
D12*
X90241607Y-141562544D03*
D13*
X94051607Y-144102544D03*
D12*
X96591607Y-139022544D03*
D10*
X99131607Y-144102544D03*
D17*
X174051607Y-118327544D03*
D18*
X171511607Y-118327544D03*
X168971607Y-118327544D03*
X166431607Y-118327544D03*
D10*
X279471607Y-166152544D03*
D11*
X279551607Y-171302544D03*
D12*
X280741607Y-163612544D03*
D13*
X284551607Y-166152544D03*
D12*
X287091607Y-161072544D03*
D10*
X289631607Y-166152544D03*
X269946607Y-109002544D03*
D11*
X270026607Y-114152544D03*
D12*
X271216607Y-106462544D03*
D13*
X275026607Y-109002544D03*
D12*
X277566607Y-103922544D03*
D10*
X280106607Y-109002544D03*
D14*
X246376607Y-124377544D03*
X246376607Y-127377544D03*
D22*
X248126607Y-123627544D03*
X248126607Y-126627544D03*
X248126607Y-128127544D03*
D23*
X247476607Y-122227544D03*
X247476607Y-129527544D03*
X245276607Y-122227544D03*
X245276607Y-129527544D03*
D10*
X288996607Y-144102544D03*
D11*
X289076607Y-149252544D03*
D12*
X290266607Y-141562544D03*
D13*
X294076607Y-144102544D03*
D12*
X296616607Y-139022544D03*
D10*
X299156607Y-144102544D03*
X69921607Y-111002544D03*
D11*
X70001607Y-116152544D03*
D12*
X71191607Y-108462544D03*
D13*
X75001607Y-111002544D03*
D12*
X77541607Y-105922544D03*
D10*
X80081607Y-111002544D03*
X250896607Y-137577544D03*
D11*
X250976607Y-142727544D03*
D12*
X252166607Y-135037544D03*
D13*
X255976607Y-137577544D03*
D12*
X258516607Y-132497544D03*
D10*
X261056607Y-137577544D03*
X327096607Y-125052544D03*
D11*
X327176607Y-130202544D03*
D12*
X328366607Y-122512544D03*
D13*
X332176607Y-125052544D03*
D12*
X334716607Y-119972544D03*
D10*
X337256607Y-125052544D03*
X69921607Y-91952544D03*
D11*
X70001607Y-97102544D03*
D12*
X71191607Y-89412544D03*
D13*
X75001607Y-91952544D03*
D12*
X77541607Y-86872544D03*
D10*
X80081607Y-91952544D03*
X317571607Y-163152544D03*
D11*
X317651607Y-168302544D03*
D12*
X318841607Y-160612544D03*
D13*
X322651607Y-163152544D03*
D12*
X325191607Y-158072544D03*
D10*
X327731607Y-163152544D03*
X127071607Y-125052544D03*
D11*
X127151607Y-130202544D03*
D12*
X128341607Y-122512544D03*
D13*
X132151607Y-125052544D03*
D12*
X134691607Y-119972544D03*
D10*
X137231607Y-125052544D03*
X269946607Y-89952544D03*
D11*
X270026607Y-95102544D03*
D12*
X271216607Y-87412544D03*
D13*
X275026607Y-89952544D03*
D12*
X277566607Y-84872544D03*
D10*
X280106607Y-89952544D03*
D24*
X247376608Y-115148644D03*
X245676606Y-115148644D03*
X245676606Y-120406444D03*
X247376608Y-120406444D03*
D10*
X365196607Y-133052544D03*
D11*
X365276607Y-138202544D03*
D12*
X366466607Y-130512544D03*
D13*
X370276607Y-133052544D03*
D12*
X372816607Y-127972544D03*
D10*
X375356607Y-133052544D03*
X346146607Y-91952544D03*
D11*
X346226607Y-97102544D03*
D12*
X347416607Y-89412544D03*
D13*
X351226607Y-91952544D03*
D12*
X353766607Y-86872544D03*
D10*
X356306607Y-91952544D03*
X108021607Y-104002544D03*
D11*
X108101607Y-109152544D03*
D12*
X109291607Y-101462544D03*
D13*
X113101607Y-104002544D03*
D12*
X115641607Y-98922544D03*
D10*
X118181607Y-104002544D03*
X136596607Y-166152544D03*
D11*
X136676607Y-171302544D03*
D12*
X137866607Y-163612544D03*
D13*
X141676607Y-166152544D03*
D12*
X144216607Y-161072544D03*
D10*
X146756607Y-166152544D03*
D20*
X263596607Y-85307544D03*
X263596607Y-87847544D03*
X263596607Y-90387544D03*
X263596607Y-92927544D03*
X263596607Y-95467544D03*
X263596607Y-98007544D03*
X263596607Y-100547544D03*
X263596607Y-103087544D03*
X263596607Y-105627544D03*
X263596607Y-108167544D03*
X263596607Y-110707544D03*
X263596607Y-113247544D03*
X248356607Y-113247544D03*
X248356607Y-110707544D03*
X248356607Y-108167544D03*
X248356607Y-105627544D03*
X248356607Y-103087544D03*
X248356607Y-100547544D03*
X248356607Y-98007544D03*
X248356607Y-95467544D03*
X248356607Y-92927544D03*
X248356607Y-90387544D03*
X248356607Y-87847544D03*
X248356607Y-85307544D03*
X261056607Y-108167544D03*
X258516607Y-108167544D03*
X255976607Y-108167544D03*
X177871607Y-85407544D03*
X177871607Y-87947544D03*
X177871607Y-90487544D03*
X177871607Y-93027544D03*
X177871607Y-95567544D03*
X177871607Y-98107544D03*
X177871607Y-100647544D03*
X177871607Y-103187544D03*
X177871607Y-105727544D03*
X177871607Y-108267544D03*
X177871607Y-110807544D03*
X177871607Y-113347544D03*
X162631607Y-113347544D03*
X162631607Y-110807544D03*
X162631607Y-108267544D03*
X162631607Y-105727544D03*
X162631607Y-103187544D03*
X162631607Y-100647544D03*
X162631607Y-98107544D03*
X162631607Y-95567544D03*
X162631607Y-93027544D03*
X162631607Y-90487544D03*
X162631607Y-87947544D03*
X162631607Y-85407544D03*
X175331607Y-108267544D03*
X172791607Y-108267544D03*
X170251607Y-108267544D03*
M02*
