M48
; DRILL file {KiCad 9.0.3} date 2025-08-06T01:59:07-0400
; FORMAT={-:-/ absolute / metric / decimal}
; #@! TF.CreationDate,2025-08-06T01:59:07-04:00
; #@! TF.GenerationSoftware,Kicad,Pcbnew,9.0.3
; #@! TF.FileFunction,Plated,1,2,PTH
FMAT,2
METRIC
; #@! TA.AperFunction,Plated,PTH,ViaDrill
T1C0.400
; #@! TA.AperFunction,Plated,PTH,ComponentDrill
T2C0.750
; #@! TA.AperFunction,Plated,PTH,ComponentDrill
T3C1.000
; #@! TA.AperFunction,Plated,PTH,ComponentDrill
T4C1.092
; #@! TA.AperFunction,Plated,PTH,ComponentDrill
T5C1.400
%
G90
G05
T1
X67.262Y-106.507
X67.262Y-125.557
X67.262Y-144.178
X67.263Y-97.578
X85.552Y-93.41
X86.852Y-101.128
X86.952Y-138.878
X87.302Y-120.178
X105.227Y-91.028
X105.877Y-99.528
X105.927Y-118.528
X105.927Y-137.715
X114.477Y-153.778
X124.413Y-93.41
X124.5Y-201.666
X124.939Y-196.232
X125.008Y-101.578
X125.008Y-139.249
X125.016Y-200.809
X125.027Y-120.528
X126.224Y-199.942
X133.477Y-155.578
X142.977Y-91.029
X143.977Y-104.228
X143.977Y-123.428
X143.977Y-142.628
X163.277Y-153.478
X165.152Y-99.128
X165.587Y-128.982
X167.502Y-152.228
X168.234Y-151.547
X172.044Y-100.37
X173.712Y-102.615
X175.493Y-121.492
X175.776Y-122.451
X176.252Y-94.578
X176.291Y-139.1
X176.6Y-140.079
X177.548Y-126.828
X178.577Y-151.178
X178.627Y-148.778
X178.727Y-146.428
X178.752Y-127.178
X178.855Y-144.028
X179.451Y-139.103
X179.877Y-90.435
X179.877Y-91.435
X179.952Y-123.028
X180.176Y-138.323
X245.252Y-118.528
X245.776Y-126.974
X246.943Y-132.278
X247.902Y-131.428
X248.077Y-118.378
X249.614Y-120.065
X251.327Y-120.228
X252.888Y-128.808
X254.218Y-152.239
X255.378Y-149.162
X255.632Y-150.632
X261.552Y-99.278
X265.327Y-115.104
X266.402Y-129.877
X266.699Y-92.68
X267.025Y-104.328
X267.025Y-123.178
X267.025Y-142.278
X268.902Y-114.678
X283.361Y-156.103
X285.742Y-92.815
X286.338Y-101.149
X286.338Y-120.199
X286.338Y-139.249
X286.933Y-156.514
X303.602Y-156.514
X305.388Y-91.029
X305.388Y-99.363
X305.388Y-118.413
X305.388Y-137.464
X324.438Y-92.815
X324.438Y-101.149
X324.438Y-120.199
X324.438Y-139.249
X343.488Y-93.41
X344.083Y-106.507
X344.083Y-125.557
X344.083Y-144.607
X362.24Y-100.852
X363.133Y-109.484
X363.192Y-128.534
X363.192Y-147.584
T2
X170.252Y-84.278
X172.252Y-84.278
X253.977Y-84.278
X255.977Y-84.278
T3
X166.432Y-118.658
X168.972Y-118.658
X171.512Y-118.658
X174.052Y-118.658
X252.157Y-118.558
X254.697Y-118.558
X257.237Y-118.558
X259.777Y-118.558
T4
X162.632Y-85.408
X162.632Y-87.948
X162.632Y-90.488
X162.632Y-93.028
X162.632Y-95.568
X162.632Y-98.108
X162.632Y-100.648
X162.632Y-103.188
X162.632Y-105.728
X162.632Y-108.268
X162.632Y-110.808
X162.632Y-113.348
X165.172Y-116.108
X167.712Y-116.108
X170.252Y-108.268
X170.252Y-116.108
X172.792Y-108.268
X172.792Y-116.108
X175.332Y-108.268
X175.332Y-116.108
X177.872Y-85.408
X177.872Y-87.948
X177.872Y-90.488
X177.872Y-93.028
X177.872Y-95.568
X177.872Y-98.108
X177.872Y-100.648
X177.872Y-103.188
X177.872Y-105.728
X177.872Y-108.268
X177.872Y-110.808
X177.872Y-113.348
X248.357Y-85.308
X248.357Y-87.848
X248.357Y-90.388
X248.357Y-92.928
X248.357Y-95.468
X248.357Y-98.008
X248.357Y-100.548
X248.357Y-103.088
X248.357Y-105.628
X248.357Y-108.168
X248.357Y-110.708
X248.357Y-113.248
X250.897Y-116.008
X253.437Y-116.008
X255.977Y-108.168
X255.977Y-116.008
X258.517Y-108.168
X258.517Y-116.008
X261.057Y-108.168
X261.057Y-116.008
X263.597Y-85.308
X263.597Y-87.848
X263.597Y-90.388
X263.597Y-92.928
X263.597Y-95.468
X263.597Y-98.008
X263.597Y-100.548
X263.597Y-103.088
X263.597Y-105.628
X263.597Y-108.168
X263.597Y-110.708
X263.597Y-113.248
T5
X119.389Y-206.388
X127.811Y-187.671
X128.992Y-196.234
X128.992Y-209.33
X136.649Y-201.672
X138.792Y-186.702
X142.087Y-209.33
X143.268Y-217.893
X151.69Y-199.176
M30
