G04 #@! TF.GenerationSoftware,KiCad,Pcbnew,9.0.3*
G04 #@! TF.CreationDate,2025-08-01T02:34:43-04:00*
G04 #@! TF.ProjectId,quartz58,71756172-747a-4353-982e-6b696361645f,rev?*
G04 #@! TF.SameCoordinates,Original*
G04 #@! TF.FileFunction,Paste,Top*
G04 #@! TF.FilePolarity,Positive*
%FSLAX46Y46*%
G04 Gerber Fmt 4.6, Leading zero omitted, Abs format (unit mm)*
G04 Created by KiCad (PCBNEW 9.0.3) date 2025-08-01 02:34:43*
%MOMM*%
%LPD*%
G01*
G04 APERTURE LIST*
%ADD10R,1.500000X0.700000*%
%ADD11R,0.800000X1.000000*%
%ADD12R,0.711200X1.549400*%
G04 #@! TA.AperFunction,Profile*
%ADD13C,0.150000*%
G04 #@! TD*
G04 #@! TA.AperFunction,Profile*
%ADD14C,0.200000*%
G04 #@! TD*
G04 #@! TA.AperFunction,Profile*
%ADD15C,0.050000*%
G04 #@! TD*
G04 #@! TA.AperFunction,Profile*
%ADD16C,0.100000*%
G04 #@! TD*
G04 #@! TA.AperFunction,Profile*
%ADD17C,0.120000*%
G04 #@! TD*
G04 APERTURE END LIST*
D10*
X178101607Y-128127544D03*
X178101607Y-125127544D03*
X178101607Y-123627544D03*
D11*
X178751607Y-129527544D03*
X178751607Y-122227544D03*
X180951607Y-129527544D03*
X180951607Y-122227544D03*
D12*
X178851606Y-120406444D03*
X180551608Y-120406444D03*
X180551608Y-115148644D03*
X178851606Y-115148644D03*
D10*
X187743257Y-123554568D03*
X187743257Y-126554568D03*
X187743257Y-128054568D03*
D11*
X187093257Y-122154568D03*
X187093257Y-129454568D03*
X184893257Y-122154568D03*
X184893257Y-129454568D03*
D12*
X186993258Y-115075668D03*
X185293256Y-115075668D03*
X185293256Y-120333468D03*
X186993258Y-120333468D03*
D13*
X151581850Y-176177544D02*
X132151607Y-176177544D01*
X103076607Y-76427544D02*
X103076607Y-75427544D01*
X168958035Y-184228503D02*
X151793159Y-176224390D01*
X103576607Y-74927544D02*
X122626607Y-74927544D01*
X181776606Y-157811695D02*
G75*
G02*
X181729765Y-158023010I-499606J-105D01*
G01*
X234193257Y-175604568D02*
G75*
G02*
X233693257Y-176104531I-500007J44D01*
G01*
X181276607Y-79927544D02*
G75*
G02*
X181776556Y-80427544I-7J-499956D01*
G01*
X123626607Y-76927544D02*
X141676607Y-76927544D01*
X281318257Y-76854568D02*
X263268257Y-76854568D01*
D14*
X55247927Y-169042164D02*
G75*
G02*
X58356911Y-167806534I1800019J42D01*
G01*
D13*
X272293257Y-172604568D02*
G75*
G02*
X271793257Y-173104531I-500007J44D01*
G01*
X272293257Y-172604568D02*
X272293257Y-162554568D01*
X242218257Y-76854568D02*
X224168257Y-76854568D01*
X84026607Y-77427544D02*
G75*
G02*
X84526607Y-76927507I499993J44D01*
G01*
X272293257Y-162554568D02*
G75*
G02*
X272793257Y-162054531I499993J44D01*
G01*
X93551607Y-172677544D02*
X93551607Y-162627544D01*
X94051607Y-173177544D02*
G75*
G02*
X93551556Y-172677544I-7J500044D01*
G01*
X184115104Y-157950031D02*
X196222367Y-183913686D01*
D14*
X60988237Y-167800904D02*
G75*
G02*
X60996820Y-194040621I12509689J-13115768D01*
G01*
D13*
X151581850Y-176177544D02*
G75*
G02*
X151793164Y-176224379I-50J-500356D01*
G01*
X169622497Y-183986661D02*
G75*
G02*
X168958020Y-184228535I-453197J211361D01*
G01*
X122626607Y-74927544D02*
G75*
G02*
X123126556Y-75427544I-7J-499956D01*
G01*
X65476607Y-81927544D02*
X83526607Y-81927544D01*
X300868257Y-84354568D02*
X300868257Y-82354568D01*
X132151607Y-176177544D02*
G75*
G02*
X131651556Y-175677544I-7J500044D01*
G01*
X319918257Y-161554568D02*
X319918257Y-85354568D01*
X142676607Y-79927544D02*
G75*
G02*
X142176556Y-79427544I-7J500044D01*
G01*
X142676607Y-79927544D02*
X181276607Y-79927544D01*
X196886830Y-184155527D02*
G75*
G02*
X196222382Y-183913679I-211280J453203D01*
G01*
D14*
X58147927Y-192791184D02*
G75*
G02*
X55947927Y-192791184I-1100000J0D01*
G01*
X55947927Y-192791184D02*
G75*
G02*
X58147927Y-192791184I1100000J0D01*
G01*
D13*
X142176607Y-77427544D02*
X142176607Y-79427544D01*
X214051705Y-176151414D02*
G75*
G02*
X214263014Y-176104568I211145J-452410D01*
G01*
X263268257Y-76854568D02*
G75*
G02*
X262768206Y-76354568I-7J500044D01*
G01*
X84526607Y-76927544D02*
X102576607Y-76927544D01*
X262268257Y-74854568D02*
G75*
G02*
X262768206Y-75354568I-7J-499956D01*
G01*
X46426607Y-84927544D02*
X64476607Y-84927544D01*
X319418257Y-84854568D02*
X301368257Y-84854568D01*
X272793257Y-162054568D02*
X319418257Y-162054568D01*
X131151607Y-173177544D02*
X94051607Y-173177544D01*
X282318257Y-81854568D02*
G75*
G02*
X281818206Y-81354568I-7J500044D01*
G01*
X262268257Y-74854568D02*
X243218257Y-74854568D01*
X319418257Y-84854568D02*
G75*
G02*
X319918206Y-85354568I-7J-499956D01*
G01*
D14*
X58147927Y-169042164D02*
G75*
G02*
X55947927Y-169042164I-1100000J0D01*
G01*
X55947927Y-169042164D02*
G75*
G02*
X58147927Y-169042164I1100000J0D01*
G01*
D13*
X281818257Y-81354568D02*
X281818257Y-77354568D01*
X46426607Y-162127544D02*
G75*
G02*
X45926556Y-161627544I-7J500044D01*
G01*
X64976607Y-84427544D02*
G75*
G02*
X64476607Y-84927507I-500007J44D01*
G01*
X223168257Y-79854568D02*
X184568257Y-79854568D01*
X214263014Y-176104568D02*
X233693257Y-176104568D01*
D14*
X58322610Y-194062092D02*
G75*
G02*
X60996782Y-194040601I1348036J-1351830D01*
G01*
D13*
X223668257Y-77354568D02*
X223668257Y-79354568D01*
X131651607Y-175677544D02*
X131651607Y-173677544D01*
X242718257Y-75354568D02*
G75*
G02*
X243218257Y-74854531I499993J44D01*
G01*
X123126607Y-75427544D02*
X123126607Y-76427544D01*
X181729760Y-158023007D02*
X169622497Y-183986662D01*
X234193257Y-173604568D02*
G75*
G02*
X234693257Y-173104531I499993J44D01*
G01*
X300368257Y-81854568D02*
G75*
G02*
X300868206Y-82354568I-7J-499956D01*
G01*
X84026607Y-81427544D02*
G75*
G02*
X83526607Y-81927507I-500007J44D01*
G01*
X262768257Y-76354568D02*
X262768257Y-75354568D01*
D14*
X58319332Y-194065371D02*
G75*
G02*
X55247980Y-192791191I-1271386J1274149D01*
G01*
D13*
X184115105Y-157950031D02*
G75*
G02*
X184068259Y-157738719I453145J211307D01*
G01*
X223668257Y-79354568D02*
G75*
G02*
X223168257Y-79854531I-500007J44D01*
G01*
X64976607Y-84427544D02*
X64976607Y-82427544D01*
X181776607Y-80427544D02*
X181776607Y-157811695D01*
X45926607Y-85427544D02*
G75*
G02*
X46426607Y-84927507I499993J44D01*
G01*
D14*
X60988237Y-167800903D02*
G75*
G02*
X58360078Y-167807567I-1317591J1381481D01*
G01*
D13*
X234193257Y-175604568D02*
X234193257Y-173604568D01*
X281318257Y-76854568D02*
G75*
G02*
X281818206Y-77354568I-7J-499956D01*
G01*
X301368257Y-84854568D02*
G75*
G02*
X300868206Y-84354568I-7J500044D01*
G01*
X45926607Y-161627544D02*
X45926607Y-85427544D01*
X319918257Y-161554568D02*
G75*
G02*
X319418257Y-162054531I-500007J44D01*
G01*
X184068257Y-80354568D02*
X184068257Y-157738719D01*
X141676607Y-76927544D02*
G75*
G02*
X142176556Y-77427544I-7J-499956D01*
G01*
X223668257Y-77354568D02*
G75*
G02*
X224168257Y-76854531I499993J44D01*
G01*
X64976607Y-82427544D02*
G75*
G02*
X65476607Y-81927507I499993J44D01*
G01*
X123626607Y-76927544D02*
G75*
G02*
X123126556Y-76427544I-7J500044D01*
G01*
X93051607Y-162127544D02*
X46426607Y-162127544D01*
X184068257Y-80354568D02*
G75*
G02*
X184568257Y-79854531I499993J44D01*
G01*
X242718257Y-76354568D02*
G75*
G02*
X242218257Y-76854531I-500007J44D01*
G01*
X103076607Y-75427544D02*
G75*
G02*
X103576607Y-74927507I499993J44D01*
G01*
X93051607Y-162127544D02*
G75*
G02*
X93551556Y-162627544I-7J-499956D01*
G01*
X103076607Y-76427544D02*
G75*
G02*
X102576607Y-76927507I-500007J44D01*
G01*
X300368257Y-81854568D02*
X282318257Y-81854568D01*
D14*
X55247927Y-169042164D02*
X55247927Y-192791184D01*
D13*
X84026607Y-81427544D02*
X84026607Y-77427544D01*
X131151607Y-173177544D02*
G75*
G02*
X131651556Y-173677544I-7J-499956D01*
G01*
X196886829Y-184155527D02*
X214051705Y-176151414D01*
X242718257Y-75354568D02*
X242718257Y-76354568D01*
X234693257Y-173104568D02*
X271793257Y-173104568D01*
D15*
X70451607Y-149102544D02*
G75*
G02*
X68551607Y-149102544I-950000J0D01*
G01*
X68551607Y-149102544D02*
G75*
G02*
X70451607Y-149102544I950000J0D01*
G01*
D16*
X76526607Y-143202544D02*
G75*
G02*
X73476607Y-143202544I-1525000J0D01*
G01*
X73476607Y-143202544D02*
G75*
G02*
X76526607Y-143202544I1525000J0D01*
G01*
X81526607Y-145302544D02*
G75*
G02*
X78476607Y-145302544I-1525000J0D01*
G01*
X78476607Y-145302544D02*
G75*
G02*
X81526607Y-145302544I1525000J0D01*
G01*
D15*
X81451607Y-149102544D02*
G75*
G02*
X79551607Y-149102544I-950000J0D01*
G01*
X79551607Y-149102544D02*
G75*
G02*
X81451607Y-149102544I950000J0D01*
G01*
X229143257Y-124979568D02*
G75*
G02*
X227243257Y-124979568I-950000J0D01*
G01*
X227243257Y-124979568D02*
G75*
G02*
X229143257Y-124979568I950000J0D01*
G01*
D16*
X235218257Y-119079568D02*
G75*
G02*
X232168257Y-119079568I-1525000J0D01*
G01*
X232168257Y-119079568D02*
G75*
G02*
X235218257Y-119079568I1525000J0D01*
G01*
X240218257Y-121179568D02*
G75*
G02*
X237168257Y-121179568I-1525000J0D01*
G01*
X237168257Y-121179568D02*
G75*
G02*
X240218257Y-121179568I1525000J0D01*
G01*
D15*
X240143257Y-124979568D02*
G75*
G02*
X238243257Y-124979568I-950000J0D01*
G01*
X238243257Y-124979568D02*
G75*
G02*
X240143257Y-124979568I950000J0D01*
G01*
X248193257Y-103929568D02*
G75*
G02*
X246293257Y-103929568I-950000J0D01*
G01*
X246293257Y-103929568D02*
G75*
G02*
X248193257Y-103929568I950000J0D01*
G01*
D16*
X254268257Y-98029568D02*
G75*
G02*
X251218257Y-98029568I-1525000J0D01*
G01*
X251218257Y-98029568D02*
G75*
G02*
X254268257Y-98029568I1525000J0D01*
G01*
X259268257Y-100129568D02*
G75*
G02*
X256218257Y-100129568I-1525000J0D01*
G01*
X256218257Y-100129568D02*
G75*
G02*
X259268257Y-100129568I1525000J0D01*
G01*
D15*
X259193257Y-103929568D02*
G75*
G02*
X257293257Y-103929568I-950000J0D01*
G01*
X257293257Y-103929568D02*
G75*
G02*
X259193257Y-103929568I950000J0D01*
G01*
X99026607Y-163152544D02*
G75*
G02*
X97126607Y-163152544I-950000J0D01*
G01*
X97126607Y-163152544D02*
G75*
G02*
X99026607Y-163152544I950000J0D01*
G01*
D16*
X105101607Y-157252544D02*
G75*
G02*
X102051607Y-157252544I-1525000J0D01*
G01*
X102051607Y-157252544D02*
G75*
G02*
X105101607Y-157252544I1525000J0D01*
G01*
X110101607Y-159352544D02*
G75*
G02*
X107051607Y-159352544I-1525000J0D01*
G01*
X107051607Y-159352544D02*
G75*
G02*
X110101607Y-159352544I1525000J0D01*
G01*
D15*
X110026607Y-163152544D02*
G75*
G02*
X108126607Y-163152544I-950000J0D01*
G01*
X108126607Y-163152544D02*
G75*
G02*
X110026607Y-163152544I950000J0D01*
G01*
X146651607Y-147102544D02*
G75*
G02*
X144751607Y-147102544I-950000J0D01*
G01*
X144751607Y-147102544D02*
G75*
G02*
X146651607Y-147102544I950000J0D01*
G01*
D16*
X152726607Y-141202544D02*
G75*
G02*
X149676607Y-141202544I-1525000J0D01*
G01*
X149676607Y-141202544D02*
G75*
G02*
X152726607Y-141202544I1525000J0D01*
G01*
X157726607Y-143302544D02*
G75*
G02*
X154676607Y-143302544I-1525000J0D01*
G01*
X154676607Y-143302544D02*
G75*
G02*
X157726607Y-143302544I1525000J0D01*
G01*
D15*
X157651607Y-147102544D02*
G75*
G02*
X155751607Y-147102544I-950000J0D01*
G01*
X155751607Y-147102544D02*
G75*
G02*
X157651607Y-147102544I950000J0D01*
G01*
X267243257Y-144029568D02*
G75*
G02*
X265343257Y-144029568I-950000J0D01*
G01*
X265343257Y-144029568D02*
G75*
G02*
X267243257Y-144029568I950000J0D01*
G01*
D16*
X273318257Y-138129568D02*
G75*
G02*
X270268257Y-138129568I-1525000J0D01*
G01*
X270268257Y-138129568D02*
G75*
G02*
X273318257Y-138129568I1525000J0D01*
G01*
X278318257Y-140229568D02*
G75*
G02*
X275268257Y-140229568I-1525000J0D01*
G01*
X275268257Y-140229568D02*
G75*
G02*
X278318257Y-140229568I1525000J0D01*
G01*
D15*
X278243257Y-144029568D02*
G75*
G02*
X276343257Y-144029568I-950000J0D01*
G01*
X276343257Y-144029568D02*
G75*
G02*
X278243257Y-144029568I950000J0D01*
G01*
X305343257Y-94879568D02*
G75*
G02*
X303443257Y-94879568I-950000J0D01*
G01*
X303443257Y-94879568D02*
G75*
G02*
X305343257Y-94879568I950000J0D01*
G01*
D16*
X311418257Y-88979568D02*
G75*
G02*
X308368257Y-88979568I-1525000J0D01*
G01*
X308368257Y-88979568D02*
G75*
G02*
X311418257Y-88979568I1525000J0D01*
G01*
X316418257Y-91079568D02*
G75*
G02*
X313368257Y-91079568I-1525000J0D01*
G01*
X313368257Y-91079568D02*
G75*
G02*
X316418257Y-91079568I1525000J0D01*
G01*
D15*
X316343257Y-94879568D02*
G75*
G02*
X314443257Y-94879568I-950000J0D01*
G01*
X314443257Y-94879568D02*
G75*
G02*
X316343257Y-94879568I950000J0D01*
G01*
X89501607Y-106002544D02*
G75*
G02*
X87601607Y-106002544I-950000J0D01*
G01*
X87601607Y-106002544D02*
G75*
G02*
X89501607Y-106002544I950000J0D01*
G01*
D16*
X95576607Y-100102544D02*
G75*
G02*
X92526607Y-100102544I-1525000J0D01*
G01*
X92526607Y-100102544D02*
G75*
G02*
X95576607Y-100102544I1525000J0D01*
G01*
X100576607Y-102202544D02*
G75*
G02*
X97526607Y-102202544I-1525000J0D01*
G01*
X97526607Y-102202544D02*
G75*
G02*
X100576607Y-102202544I1525000J0D01*
G01*
D15*
X100501607Y-106002544D02*
G75*
G02*
X98601607Y-106002544I-950000J0D01*
G01*
X98601607Y-106002544D02*
G75*
G02*
X100501607Y-106002544I950000J0D01*
G01*
X108551607Y-142102544D02*
G75*
G02*
X106651607Y-142102544I-950000J0D01*
G01*
X106651607Y-142102544D02*
G75*
G02*
X108551607Y-142102544I950000J0D01*
G01*
D16*
X114626607Y-136202544D02*
G75*
G02*
X111576607Y-136202544I-1525000J0D01*
G01*
X111576607Y-136202544D02*
G75*
G02*
X114626607Y-136202544I1525000J0D01*
G01*
X119626607Y-138302544D02*
G75*
G02*
X116576607Y-138302544I-1525000J0D01*
G01*
X116576607Y-138302544D02*
G75*
G02*
X119626607Y-138302544I1525000J0D01*
G01*
D15*
X119551607Y-142102544D02*
G75*
G02*
X117651607Y-142102544I-950000J0D01*
G01*
X117651607Y-142102544D02*
G75*
G02*
X119551607Y-142102544I950000J0D01*
G01*
X286293257Y-110929568D02*
G75*
G02*
X284393257Y-110929568I-950000J0D01*
G01*
X284393257Y-110929568D02*
G75*
G02*
X286293257Y-110929568I950000J0D01*
G01*
D16*
X292368257Y-105029568D02*
G75*
G02*
X289318257Y-105029568I-1525000J0D01*
G01*
X289318257Y-105029568D02*
G75*
G02*
X292368257Y-105029568I1525000J0D01*
G01*
X297368257Y-107129568D02*
G75*
G02*
X294318257Y-107129568I-1525000J0D01*
G01*
X294318257Y-107129568D02*
G75*
G02*
X297368257Y-107129568I1525000J0D01*
G01*
D15*
X297293257Y-110929568D02*
G75*
G02*
X295393257Y-110929568I-950000J0D01*
G01*
X295393257Y-110929568D02*
G75*
G02*
X297293257Y-110929568I950000J0D01*
G01*
D16*
X86404527Y-191523274D02*
G75*
G02*
X81804527Y-191523274I-2300000J0D01*
G01*
X81804527Y-191523274D02*
G75*
G02*
X86404527Y-191523274I2300000J0D01*
G01*
X86404527Y-170310074D02*
G75*
G02*
X81804527Y-170310074I-2300000J0D01*
G01*
X81804527Y-170310074D02*
G75*
G02*
X86404527Y-170310074I2300000J0D01*
G01*
X77479907Y-184098654D02*
G75*
G02*
X75879907Y-184098654I-800000J0D01*
G01*
X75879907Y-184098654D02*
G75*
G02*
X77479907Y-184098654I800000J0D01*
G01*
X71115947Y-177734694D02*
G75*
G02*
X69515947Y-177734694I-800000J0D01*
G01*
X69515947Y-177734694D02*
G75*
G02*
X71115947Y-177734694I800000J0D01*
G01*
X65191327Y-191523274D02*
G75*
G02*
X60591327Y-191523274I-2300000J0D01*
G01*
X60591327Y-191523274D02*
G75*
G02*
X65191327Y-191523274I2300000J0D01*
G01*
X65191327Y-170310074D02*
G75*
G02*
X60591327Y-170310074I-2300000J0D01*
G01*
X60591327Y-170310074D02*
G75*
G02*
X65191327Y-170310074I2300000J0D01*
G01*
D15*
X267243257Y-105929568D02*
G75*
G02*
X265343257Y-105929568I-950000J0D01*
G01*
X265343257Y-105929568D02*
G75*
G02*
X267243257Y-105929568I950000J0D01*
G01*
D16*
X273318257Y-100029568D02*
G75*
G02*
X270268257Y-100029568I-1525000J0D01*
G01*
X270268257Y-100029568D02*
G75*
G02*
X273318257Y-100029568I1525000J0D01*
G01*
X278318257Y-102129568D02*
G75*
G02*
X275268257Y-102129568I-1525000J0D01*
G01*
X275268257Y-102129568D02*
G75*
G02*
X278318257Y-102129568I1525000J0D01*
G01*
D15*
X278243257Y-105929568D02*
G75*
G02*
X276343257Y-105929568I-950000J0D01*
G01*
X276343257Y-105929568D02*
G75*
G02*
X278243257Y-105929568I950000J0D01*
G01*
X51401607Y-94952544D02*
G75*
G02*
X49501607Y-94952544I-950000J0D01*
G01*
X49501607Y-94952544D02*
G75*
G02*
X51401607Y-94952544I950000J0D01*
G01*
D16*
X57476607Y-89052544D02*
G75*
G02*
X54426607Y-89052544I-1525000J0D01*
G01*
X54426607Y-89052544D02*
G75*
G02*
X57476607Y-89052544I1525000J0D01*
G01*
X62476607Y-91152544D02*
G75*
G02*
X59426607Y-91152544I-1525000J0D01*
G01*
X59426607Y-91152544D02*
G75*
G02*
X62476607Y-91152544I1525000J0D01*
G01*
D15*
X62401607Y-94952544D02*
G75*
G02*
X60501607Y-94952544I-950000J0D01*
G01*
X60501607Y-94952544D02*
G75*
G02*
X62401607Y-94952544I950000J0D01*
G01*
X89501607Y-86952544D02*
G75*
G02*
X87601607Y-86952544I-950000J0D01*
G01*
X87601607Y-86952544D02*
G75*
G02*
X89501607Y-86952544I950000J0D01*
G01*
D16*
X95576607Y-81052544D02*
G75*
G02*
X92526607Y-81052544I-1525000J0D01*
G01*
X92526607Y-81052544D02*
G75*
G02*
X95576607Y-81052544I1525000J0D01*
G01*
X100576607Y-83152544D02*
G75*
G02*
X97526607Y-83152544I-1525000J0D01*
G01*
X97526607Y-83152544D02*
G75*
G02*
X100576607Y-83152544I1525000J0D01*
G01*
D15*
X100501607Y-86952544D02*
G75*
G02*
X98601607Y-86952544I-950000J0D01*
G01*
X98601607Y-86952544D02*
G75*
G02*
X100501607Y-86952544I950000J0D01*
G01*
X118076607Y-163152544D02*
G75*
G02*
X116176607Y-163152544I-950000J0D01*
G01*
X116176607Y-163152544D02*
G75*
G02*
X118076607Y-163152544I950000J0D01*
G01*
D16*
X124151607Y-157252544D02*
G75*
G02*
X121101607Y-157252544I-1525000J0D01*
G01*
X121101607Y-157252544D02*
G75*
G02*
X124151607Y-157252544I1525000J0D01*
G01*
X129151607Y-159352544D02*
G75*
G02*
X126101607Y-159352544I-1525000J0D01*
G01*
X126101607Y-159352544D02*
G75*
G02*
X129151607Y-159352544I1525000J0D01*
G01*
D15*
X129076607Y-163152544D02*
G75*
G02*
X127176607Y-163152544I-950000J0D01*
G01*
X127176607Y-163152544D02*
G75*
G02*
X129076607Y-163152544I950000J0D01*
G01*
X248193257Y-84879568D02*
G75*
G02*
X246293257Y-84879568I-950000J0D01*
G01*
X246293257Y-84879568D02*
G75*
G02*
X248193257Y-84879568I950000J0D01*
G01*
D16*
X254268257Y-78979568D02*
G75*
G02*
X251218257Y-78979568I-1525000J0D01*
G01*
X251218257Y-78979568D02*
G75*
G02*
X254268257Y-78979568I1525000J0D01*
G01*
X259268257Y-81079568D02*
G75*
G02*
X256218257Y-81079568I-1525000J0D01*
G01*
X256218257Y-81079568D02*
G75*
G02*
X259268257Y-81079568I1525000J0D01*
G01*
D15*
X259193257Y-84879568D02*
G75*
G02*
X257293257Y-84879568I-950000J0D01*
G01*
X257293257Y-84879568D02*
G75*
G02*
X259193257Y-84879568I950000J0D01*
G01*
X51401607Y-152102544D02*
G75*
G02*
X49501607Y-152102544I-950000J0D01*
G01*
X49501607Y-152102544D02*
G75*
G02*
X51401607Y-152102544I950000J0D01*
G01*
D16*
X57476607Y-146202544D02*
G75*
G02*
X54426607Y-146202544I-1525000J0D01*
G01*
X54426607Y-146202544D02*
G75*
G02*
X57476607Y-146202544I1525000J0D01*
G01*
X62476607Y-148302544D02*
G75*
G02*
X59426607Y-148302544I-1525000J0D01*
G01*
X59426607Y-148302544D02*
G75*
G02*
X62476607Y-148302544I1525000J0D01*
G01*
D15*
X62401607Y-152102544D02*
G75*
G02*
X60501607Y-152102544I-950000J0D01*
G01*
X60501607Y-152102544D02*
G75*
G02*
X62401607Y-152102544I950000J0D01*
G01*
X267243257Y-86879568D02*
G75*
G02*
X265343257Y-86879568I-950000J0D01*
G01*
X265343257Y-86879568D02*
G75*
G02*
X267243257Y-86879568I950000J0D01*
G01*
D16*
X273318257Y-80979568D02*
G75*
G02*
X270268257Y-80979568I-1525000J0D01*
G01*
X270268257Y-80979568D02*
G75*
G02*
X273318257Y-80979568I1525000J0D01*
G01*
X278318257Y-83079568D02*
G75*
G02*
X275268257Y-83079568I-1525000J0D01*
G01*
X275268257Y-83079568D02*
G75*
G02*
X278318257Y-83079568I1525000J0D01*
G01*
D15*
X278243257Y-86879568D02*
G75*
G02*
X276343257Y-86879568I-950000J0D01*
G01*
X276343257Y-86879568D02*
G75*
G02*
X278243257Y-86879568I950000J0D01*
G01*
X305343257Y-113929568D02*
G75*
G02*
X303443257Y-113929568I-950000J0D01*
G01*
X303443257Y-113929568D02*
G75*
G02*
X305343257Y-113929568I950000J0D01*
G01*
D16*
X311418257Y-108029568D02*
G75*
G02*
X308368257Y-108029568I-1525000J0D01*
G01*
X308368257Y-108029568D02*
G75*
G02*
X311418257Y-108029568I1525000J0D01*
G01*
X316418257Y-110129568D02*
G75*
G02*
X313368257Y-110129568I-1525000J0D01*
G01*
X313368257Y-110129568D02*
G75*
G02*
X316418257Y-110129568I1525000J0D01*
G01*
D15*
X316343257Y-113929568D02*
G75*
G02*
X314443257Y-113929568I-950000J0D01*
G01*
X314443257Y-113929568D02*
G75*
G02*
X316343257Y-113929568I950000J0D01*
G01*
X197895546Y-161743368D02*
G75*
G02*
X195995546Y-161743368I-950000J0D01*
G01*
X195995546Y-161743368D02*
G75*
G02*
X197895546Y-161743368I950000J0D01*
G01*
D16*
X206142163Y-164234613D02*
G75*
G02*
X203092161Y-164234613I-1525001J0D01*
G01*
X203092161Y-164234613D02*
G75*
G02*
X206142163Y-164234613I1525001J0D01*
G01*
X206352007Y-169653651D02*
G75*
G02*
X203302007Y-169653651I-1525000J0D01*
G01*
X203302007Y-169653651D02*
G75*
G02*
X206352007Y-169653651I1525000J0D01*
G01*
D15*
X202544346Y-171712754D02*
G75*
G02*
X200644346Y-171712754I-950000J0D01*
G01*
X200644346Y-171712754D02*
G75*
G02*
X202544346Y-171712754I950000J0D01*
G01*
X286293257Y-149029568D02*
G75*
G02*
X284393257Y-149029568I-950000J0D01*
G01*
X284393257Y-149029568D02*
G75*
G02*
X286293257Y-149029568I950000J0D01*
G01*
D16*
X292368257Y-143129568D02*
G75*
G02*
X289318257Y-143129568I-1525000J0D01*
G01*
X289318257Y-143129568D02*
G75*
G02*
X292368257Y-143129568I1525000J0D01*
G01*
X297368257Y-145229568D02*
G75*
G02*
X294318257Y-145229568I-1525000J0D01*
G01*
X294318257Y-145229568D02*
G75*
G02*
X297368257Y-145229568I1525000J0D01*
G01*
D15*
X297293257Y-149029568D02*
G75*
G02*
X295393257Y-149029568I-950000J0D01*
G01*
X295393257Y-149029568D02*
G75*
G02*
X297293257Y-149029568I950000J0D01*
G01*
X248193257Y-142029568D02*
G75*
G02*
X246293257Y-142029568I-950000J0D01*
G01*
X246293257Y-142029568D02*
G75*
G02*
X248193257Y-142029568I950000J0D01*
G01*
D16*
X254268257Y-136129568D02*
G75*
G02*
X251218257Y-136129568I-1525000J0D01*
G01*
X251218257Y-136129568D02*
G75*
G02*
X254268257Y-136129568I1525000J0D01*
G01*
X259268257Y-138229568D02*
G75*
G02*
X256218257Y-138229568I-1525000J0D01*
G01*
X256218257Y-138229568D02*
G75*
G02*
X259268257Y-138229568I1525000J0D01*
G01*
D15*
X259193257Y-142029568D02*
G75*
G02*
X257293257Y-142029568I-950000J0D01*
G01*
X257293257Y-142029568D02*
G75*
G02*
X259193257Y-142029568I950000J0D01*
G01*
X127601607Y-144102544D02*
G75*
G02*
X125701607Y-144102544I-950000J0D01*
G01*
X125701607Y-144102544D02*
G75*
G02*
X127601607Y-144102544I950000J0D01*
G01*
D16*
X133676607Y-138202544D02*
G75*
G02*
X130626607Y-138202544I-1525000J0D01*
G01*
X130626607Y-138202544D02*
G75*
G02*
X133676607Y-138202544I1525000J0D01*
G01*
X138676607Y-140302544D02*
G75*
G02*
X135626607Y-140302544I-1525000J0D01*
G01*
X135626607Y-140302544D02*
G75*
G02*
X138676607Y-140302544I1525000J0D01*
G01*
D15*
X138601607Y-144102544D02*
G75*
G02*
X136701607Y-144102544I-950000J0D01*
G01*
X136701607Y-144102544D02*
G75*
G02*
X138601607Y-144102544I950000J0D01*
G01*
X127601607Y-86952544D02*
G75*
G02*
X125701607Y-86952544I-950000J0D01*
G01*
X125701607Y-86952544D02*
G75*
G02*
X127601607Y-86952544I950000J0D01*
G01*
D16*
X133676607Y-81052544D02*
G75*
G02*
X130626607Y-81052544I-1525000J0D01*
G01*
X130626607Y-81052544D02*
G75*
G02*
X133676607Y-81052544I1525000J0D01*
G01*
X138676607Y-83152544D02*
G75*
G02*
X135626607Y-83152544I-1525000J0D01*
G01*
X135626607Y-83152544D02*
G75*
G02*
X138676607Y-83152544I1525000J0D01*
G01*
D15*
X138601607Y-86952544D02*
G75*
G02*
X136701607Y-86952544I-950000J0D01*
G01*
X136701607Y-86952544D02*
G75*
G02*
X138601607Y-86952544I950000J0D01*
G01*
X127601607Y-106002544D02*
G75*
G02*
X125701607Y-106002544I-950000J0D01*
G01*
X125701607Y-106002544D02*
G75*
G02*
X127601607Y-106002544I950000J0D01*
G01*
D16*
X133676607Y-100102544D02*
G75*
G02*
X130626607Y-100102544I-1525000J0D01*
G01*
X130626607Y-100102544D02*
G75*
G02*
X133676607Y-100102544I1525000J0D01*
G01*
X138676607Y-102202544D02*
G75*
G02*
X135626607Y-102202544I-1525000J0D01*
G01*
X135626607Y-102202544D02*
G75*
G02*
X138676607Y-102202544I1525000J0D01*
G01*
D15*
X138601607Y-106002544D02*
G75*
G02*
X136701607Y-106002544I-950000J0D01*
G01*
X136701607Y-106002544D02*
G75*
G02*
X138601607Y-106002544I950000J0D01*
G01*
X210093257Y-147029568D02*
G75*
G02*
X208193257Y-147029568I-950000J0D01*
G01*
X208193257Y-147029568D02*
G75*
G02*
X210093257Y-147029568I950000J0D01*
G01*
D16*
X216168257Y-141129568D02*
G75*
G02*
X213118257Y-141129568I-1525000J0D01*
G01*
X213118257Y-141129568D02*
G75*
G02*
X216168257Y-141129568I1525000J0D01*
G01*
X221168257Y-143229568D02*
G75*
G02*
X218118257Y-143229568I-1525000J0D01*
G01*
X218118257Y-143229568D02*
G75*
G02*
X221168257Y-143229568I1525000J0D01*
G01*
D15*
X221093257Y-147029568D02*
G75*
G02*
X219193257Y-147029568I-950000J0D01*
G01*
X219193257Y-147029568D02*
G75*
G02*
X221093257Y-147029568I950000J0D01*
G01*
X70451607Y-130052544D02*
G75*
G02*
X68551607Y-130052544I-950000J0D01*
G01*
X68551607Y-130052544D02*
G75*
G02*
X70451607Y-130052544I950000J0D01*
G01*
D16*
X76526607Y-124152544D02*
G75*
G02*
X73476607Y-124152544I-1525000J0D01*
G01*
X73476607Y-124152544D02*
G75*
G02*
X76526607Y-124152544I1525000J0D01*
G01*
X81526607Y-126252544D02*
G75*
G02*
X78476607Y-126252544I-1525000J0D01*
G01*
X78476607Y-126252544D02*
G75*
G02*
X81526607Y-126252544I1525000J0D01*
G01*
D15*
X81451607Y-130052544D02*
G75*
G02*
X79551607Y-130052544I-950000J0D01*
G01*
X79551607Y-130052544D02*
G75*
G02*
X81451607Y-130052544I950000J0D01*
G01*
X165200518Y-171785730D02*
G75*
G02*
X163300518Y-171785730I-950000J0D01*
G01*
X163300518Y-171785730D02*
G75*
G02*
X165200518Y-171785730I950000J0D01*
G01*
D16*
X162752702Y-164307589D02*
G75*
G02*
X159702702Y-164307589I-1525000J0D01*
G01*
X159702702Y-164307589D02*
G75*
G02*
X162752702Y-164307589I1525000J0D01*
G01*
X166769041Y-160663549D02*
G75*
G02*
X163719039Y-160663549I-1525001J0D01*
G01*
X163719039Y-160663549D02*
G75*
G02*
X166769041Y-160663549I1525001J0D01*
G01*
D15*
X169849318Y-161816344D02*
G75*
G02*
X167949318Y-161816344I-950000J0D01*
G01*
X167949318Y-161816344D02*
G75*
G02*
X169849318Y-161816344I950000J0D01*
G01*
X146651607Y-89952544D02*
G75*
G02*
X144751607Y-89952544I-950000J0D01*
G01*
X144751607Y-89952544D02*
G75*
G02*
X146651607Y-89952544I950000J0D01*
G01*
D16*
X152726607Y-84052544D02*
G75*
G02*
X149676607Y-84052544I-1525000J0D01*
G01*
X149676607Y-84052544D02*
G75*
G02*
X152726607Y-84052544I1525000J0D01*
G01*
X157726607Y-86152544D02*
G75*
G02*
X154676607Y-86152544I-1525000J0D01*
G01*
X154676607Y-86152544D02*
G75*
G02*
X157726607Y-86152544I1525000J0D01*
G01*
D15*
X157651607Y-89952544D02*
G75*
G02*
X155751607Y-89952544I-950000J0D01*
G01*
X155751607Y-89952544D02*
G75*
G02*
X157651607Y-89952544I950000J0D01*
G01*
X89501607Y-125052544D02*
G75*
G02*
X87601607Y-125052544I-950000J0D01*
G01*
X87601607Y-125052544D02*
G75*
G02*
X89501607Y-125052544I950000J0D01*
G01*
D16*
X95576607Y-119152544D02*
G75*
G02*
X92526607Y-119152544I-1525000J0D01*
G01*
X92526607Y-119152544D02*
G75*
G02*
X95576607Y-119152544I1525000J0D01*
G01*
X100576607Y-121252544D02*
G75*
G02*
X97526607Y-121252544I-1525000J0D01*
G01*
X97526607Y-121252544D02*
G75*
G02*
X100576607Y-121252544I1525000J0D01*
G01*
D15*
X100501607Y-125052544D02*
G75*
G02*
X98601607Y-125052544I-950000J0D01*
G01*
X98601607Y-125052544D02*
G75*
G02*
X100501607Y-125052544I950000J0D01*
G01*
X210093257Y-127979568D02*
G75*
G02*
X208193257Y-127979568I-950000J0D01*
G01*
X208193257Y-127979568D02*
G75*
G02*
X210093257Y-127979568I950000J0D01*
G01*
D16*
X216168257Y-122079568D02*
G75*
G02*
X213118257Y-122079568I-1525000J0D01*
G01*
X213118257Y-122079568D02*
G75*
G02*
X216168257Y-122079568I1525000J0D01*
G01*
X221168257Y-124179568D02*
G75*
G02*
X218118257Y-124179568I-1525000J0D01*
G01*
X218118257Y-124179568D02*
G75*
G02*
X221168257Y-124179568I1525000J0D01*
G01*
D15*
X221093257Y-127979568D02*
G75*
G02*
X219193257Y-127979568I-950000J0D01*
G01*
X219193257Y-127979568D02*
G75*
G02*
X221093257Y-127979568I950000J0D01*
G01*
X229143257Y-86879568D02*
G75*
G02*
X227243257Y-86879568I-950000J0D01*
G01*
X227243257Y-86879568D02*
G75*
G02*
X229143257Y-86879568I950000J0D01*
G01*
D16*
X235218257Y-80979568D02*
G75*
G02*
X232168257Y-80979568I-1525000J0D01*
G01*
X232168257Y-80979568D02*
G75*
G02*
X235218257Y-80979568I1525000J0D01*
G01*
X240218257Y-83079568D02*
G75*
G02*
X237168257Y-83079568I-1525000J0D01*
G01*
X237168257Y-83079568D02*
G75*
G02*
X240218257Y-83079568I1525000J0D01*
G01*
D15*
X240143257Y-86879568D02*
G75*
G02*
X238243257Y-86879568I-950000J0D01*
G01*
X238243257Y-86879568D02*
G75*
G02*
X240143257Y-86879568I950000J0D01*
G01*
X165701607Y-137577544D02*
G75*
G02*
X163801607Y-137577544I-950000J0D01*
G01*
X163801607Y-137577544D02*
G75*
G02*
X165701607Y-137577544I950000J0D01*
G01*
D16*
X171776607Y-131677544D02*
G75*
G02*
X168726607Y-131677544I-1525000J0D01*
G01*
X168726607Y-131677544D02*
G75*
G02*
X171776607Y-131677544I1525000J0D01*
G01*
X176776607Y-133777544D02*
G75*
G02*
X173726607Y-133777544I-1525000J0D01*
G01*
X173726607Y-133777544D02*
G75*
G02*
X176776607Y-133777544I1525000J0D01*
G01*
D15*
X176701607Y-137577544D02*
G75*
G02*
X174801607Y-137577544I-950000J0D01*
G01*
X174801607Y-137577544D02*
G75*
G02*
X176701607Y-137577544I950000J0D01*
G01*
X146651607Y-109002544D02*
G75*
G02*
X144751607Y-109002544I-950000J0D01*
G01*
X144751607Y-109002544D02*
G75*
G02*
X146651607Y-109002544I950000J0D01*
G01*
D16*
X152726607Y-103102544D02*
G75*
G02*
X149676607Y-103102544I-1525000J0D01*
G01*
X149676607Y-103102544D02*
G75*
G02*
X152726607Y-103102544I1525000J0D01*
G01*
X157726607Y-105202544D02*
G75*
G02*
X154676607Y-105202544I-1525000J0D01*
G01*
X154676607Y-105202544D02*
G75*
G02*
X157726607Y-105202544I1525000J0D01*
G01*
D15*
X157651607Y-109002544D02*
G75*
G02*
X155751607Y-109002544I-950000J0D01*
G01*
X155751607Y-109002544D02*
G75*
G02*
X157651607Y-109002544I950000J0D01*
G01*
X305343257Y-152029568D02*
G75*
G02*
X303443257Y-152029568I-950000J0D01*
G01*
X303443257Y-152029568D02*
G75*
G02*
X305343257Y-152029568I950000J0D01*
G01*
D16*
X311418257Y-146129568D02*
G75*
G02*
X308368257Y-146129568I-1525000J0D01*
G01*
X308368257Y-146129568D02*
G75*
G02*
X311418257Y-146129568I1525000J0D01*
G01*
X316418257Y-148229568D02*
G75*
G02*
X313368257Y-148229568I-1525000J0D01*
G01*
X313368257Y-148229568D02*
G75*
G02*
X316418257Y-148229568I1525000J0D01*
G01*
D15*
X316343257Y-152029568D02*
G75*
G02*
X314443257Y-152029568I-950000J0D01*
G01*
X314443257Y-152029568D02*
G75*
G02*
X316343257Y-152029568I950000J0D01*
G01*
X238668257Y-163079568D02*
G75*
G02*
X236768257Y-163079568I-950000J0D01*
G01*
X236768257Y-163079568D02*
G75*
G02*
X238668257Y-163079568I950000J0D01*
G01*
D16*
X244743257Y-157179568D02*
G75*
G02*
X241693257Y-157179568I-1525000J0D01*
G01*
X241693257Y-157179568D02*
G75*
G02*
X244743257Y-157179568I1525000J0D01*
G01*
X249743257Y-159279568D02*
G75*
G02*
X246693257Y-159279568I-1525000J0D01*
G01*
X246693257Y-159279568D02*
G75*
G02*
X249743257Y-159279568I1525000J0D01*
G01*
D15*
X249668257Y-163079568D02*
G75*
G02*
X247768257Y-163079568I-950000J0D01*
G01*
X247768257Y-163079568D02*
G75*
G02*
X249668257Y-163079568I950000J0D01*
G01*
D16*
X167226607Y-137796194D02*
X173226607Y-137796194D01*
X173226607Y-139796194D01*
X167226607Y-139796194D01*
X167226607Y-137796194D01*
D14*
X163951607Y-124521684D02*
G75*
G02*
X161751607Y-124521684I-1100000J0D01*
G01*
X161751607Y-124521684D02*
G75*
G02*
X163951607Y-124521684I1100000J0D01*
G01*
X163951607Y-148270704D02*
G75*
G02*
X161751607Y-148270704I-1100000J0D01*
G01*
X161751607Y-148270704D02*
G75*
G02*
X163951607Y-148270704I1100000J0D01*
G01*
D15*
X51401607Y-133052544D02*
G75*
G02*
X49501607Y-133052544I-950000J0D01*
G01*
X49501607Y-133052544D02*
G75*
G02*
X51401607Y-133052544I950000J0D01*
G01*
D16*
X57476607Y-127152544D02*
G75*
G02*
X54426607Y-127152544I-1525000J0D01*
G01*
X54426607Y-127152544D02*
G75*
G02*
X57476607Y-127152544I1525000J0D01*
G01*
X62476607Y-129252544D02*
G75*
G02*
X59426607Y-129252544I-1525000J0D01*
G01*
X59426607Y-129252544D02*
G75*
G02*
X62476607Y-129252544I1525000J0D01*
G01*
D15*
X62401607Y-133052544D02*
G75*
G02*
X60501607Y-133052544I-950000J0D01*
G01*
X60501607Y-133052544D02*
G75*
G02*
X62401607Y-133052544I950000J0D01*
G01*
X146651607Y-128052544D02*
G75*
G02*
X144751607Y-128052544I-950000J0D01*
G01*
X144751607Y-128052544D02*
G75*
G02*
X146651607Y-128052544I950000J0D01*
G01*
D16*
X152726607Y-122152544D02*
G75*
G02*
X149676607Y-122152544I-1525000J0D01*
G01*
X149676607Y-122152544D02*
G75*
G02*
X152726607Y-122152544I1525000J0D01*
G01*
X157726607Y-124252544D02*
G75*
G02*
X154676607Y-124252544I-1525000J0D01*
G01*
X154676607Y-124252544D02*
G75*
G02*
X157726607Y-124252544I1525000J0D01*
G01*
D15*
X157651607Y-128052544D02*
G75*
G02*
X155751607Y-128052544I-950000J0D01*
G01*
X155751607Y-128052544D02*
G75*
G02*
X157651607Y-128052544I950000J0D01*
G01*
X108551607Y-84952544D02*
G75*
G02*
X106651607Y-84952544I-950000J0D01*
G01*
X106651607Y-84952544D02*
G75*
G02*
X108551607Y-84952544I950000J0D01*
G01*
D16*
X114626607Y-79052544D02*
G75*
G02*
X111576607Y-79052544I-1525000J0D01*
G01*
X111576607Y-79052544D02*
G75*
G02*
X114626607Y-79052544I1525000J0D01*
G01*
X119626607Y-81152544D02*
G75*
G02*
X116576607Y-81152544I-1525000J0D01*
G01*
X116576607Y-81152544D02*
G75*
G02*
X119626607Y-81152544I1525000J0D01*
G01*
D15*
X119551607Y-84952544D02*
G75*
G02*
X117651607Y-84952544I-950000J0D01*
G01*
X117651607Y-84952544D02*
G75*
G02*
X119551607Y-84952544I950000J0D01*
G01*
D16*
X163951607Y-117852544D02*
G75*
G02*
X161551607Y-117852544I-1200000J0D01*
G01*
X161551607Y-117852544D02*
G75*
G02*
X163951607Y-117852544I1200000J0D01*
G01*
D15*
X229143257Y-105929568D02*
G75*
G02*
X227243257Y-105929568I-950000J0D01*
G01*
X227243257Y-105929568D02*
G75*
G02*
X229143257Y-105929568I950000J0D01*
G01*
D16*
X235218257Y-100029568D02*
G75*
G02*
X232168257Y-100029568I-1525000J0D01*
G01*
X232168257Y-100029568D02*
G75*
G02*
X235218257Y-100029568I1525000J0D01*
G01*
X240218257Y-102129568D02*
G75*
G02*
X237168257Y-102129568I-1525000J0D01*
G01*
X237168257Y-102129568D02*
G75*
G02*
X240218257Y-102129568I1525000J0D01*
G01*
D15*
X240143257Y-105929568D02*
G75*
G02*
X238243257Y-105929568I-950000J0D01*
G01*
X238243257Y-105929568D02*
G75*
G02*
X240143257Y-105929568I950000J0D01*
G01*
X286293257Y-129979568D02*
G75*
G02*
X284393257Y-129979568I-950000J0D01*
G01*
X284393257Y-129979568D02*
G75*
G02*
X286293257Y-129979568I950000J0D01*
G01*
D16*
X292368257Y-124079568D02*
G75*
G02*
X289318257Y-124079568I-1525000J0D01*
G01*
X289318257Y-124079568D02*
G75*
G02*
X292368257Y-124079568I1525000J0D01*
G01*
X297368257Y-126179568D02*
G75*
G02*
X294318257Y-126179568I-1525000J0D01*
G01*
X294318257Y-126179568D02*
G75*
G02*
X297368257Y-126179568I1525000J0D01*
G01*
D15*
X297293257Y-129979568D02*
G75*
G02*
X295393257Y-129979568I-950000J0D01*
G01*
X295393257Y-129979568D02*
G75*
G02*
X297293257Y-129979568I950000J0D01*
G01*
X51401607Y-114002544D02*
G75*
G02*
X49501607Y-114002544I-950000J0D01*
G01*
X49501607Y-114002544D02*
G75*
G02*
X51401607Y-114002544I950000J0D01*
G01*
D16*
X57476607Y-108102544D02*
G75*
G02*
X54426607Y-108102544I-1525000J0D01*
G01*
X54426607Y-108102544D02*
G75*
G02*
X57476607Y-108102544I1525000J0D01*
G01*
X62476607Y-110202544D02*
G75*
G02*
X59426607Y-110202544I-1525000J0D01*
G01*
X59426607Y-110202544D02*
G75*
G02*
X62476607Y-110202544I1525000J0D01*
G01*
D15*
X62401607Y-114002544D02*
G75*
G02*
X60501607Y-114002544I-950000J0D01*
G01*
X60501607Y-114002544D02*
G75*
G02*
X62401607Y-114002544I950000J0D01*
G01*
X248193257Y-122979568D02*
G75*
G02*
X246293257Y-122979568I-950000J0D01*
G01*
X246293257Y-122979568D02*
G75*
G02*
X248193257Y-122979568I950000J0D01*
G01*
D16*
X254268257Y-117079568D02*
G75*
G02*
X251218257Y-117079568I-1525000J0D01*
G01*
X251218257Y-117079568D02*
G75*
G02*
X254268257Y-117079568I1525000J0D01*
G01*
X259268257Y-119179568D02*
G75*
G02*
X256218257Y-119179568I-1525000J0D01*
G01*
X256218257Y-119179568D02*
G75*
G02*
X259268257Y-119179568I1525000J0D01*
G01*
D15*
X259193257Y-122979568D02*
G75*
G02*
X257293257Y-122979568I-950000J0D01*
G01*
X257293257Y-122979568D02*
G75*
G02*
X259193257Y-122979568I950000J0D01*
G01*
D16*
X253976607Y-137777544D02*
X257976607Y-137777544D01*
X257976607Y-139777544D01*
X253976607Y-139777544D01*
X253976607Y-137777544D01*
X250816607Y-143677544D02*
G75*
G02*
X248616607Y-143677544I-1100000J0D01*
G01*
X248616607Y-143677544D02*
G75*
G02*
X250816607Y-143677544I1100000J0D01*
G01*
X261276607Y-121677544D02*
G75*
G02*
X259076607Y-121677544I-1100000J0D01*
G01*
X259076607Y-121677544D02*
G75*
G02*
X261276607Y-121677544I1100000J0D01*
G01*
D15*
X108551607Y-123052544D02*
G75*
G02*
X106651607Y-123052544I-950000J0D01*
G01*
X106651607Y-123052544D02*
G75*
G02*
X108551607Y-123052544I950000J0D01*
G01*
D16*
X114626607Y-117152544D02*
G75*
G02*
X111576607Y-117152544I-1525000J0D01*
G01*
X111576607Y-117152544D02*
G75*
G02*
X114626607Y-117152544I1525000J0D01*
G01*
X119626607Y-119252544D02*
G75*
G02*
X116576607Y-119252544I-1525000J0D01*
G01*
X116576607Y-119252544D02*
G75*
G02*
X119626607Y-119252544I1525000J0D01*
G01*
D15*
X119551607Y-123052544D02*
G75*
G02*
X117651607Y-123052544I-950000J0D01*
G01*
X117651607Y-123052544D02*
G75*
G02*
X119551607Y-123052544I950000J0D01*
G01*
X89501607Y-144102544D02*
G75*
G02*
X87601607Y-144102544I-950000J0D01*
G01*
X87601607Y-144102544D02*
G75*
G02*
X89501607Y-144102544I950000J0D01*
G01*
D16*
X95576607Y-138202544D02*
G75*
G02*
X92526607Y-138202544I-1525000J0D01*
G01*
X92526607Y-138202544D02*
G75*
G02*
X95576607Y-138202544I1525000J0D01*
G01*
X100576607Y-140302544D02*
G75*
G02*
X97526607Y-140302544I-1525000J0D01*
G01*
X97526607Y-140302544D02*
G75*
G02*
X100576607Y-140302544I1525000J0D01*
G01*
D15*
X100501607Y-144102544D02*
G75*
G02*
X98601607Y-144102544I-950000J0D01*
G01*
X98601607Y-144102544D02*
G75*
G02*
X100501607Y-144102544I950000J0D01*
G01*
X219618257Y-166079568D02*
G75*
G02*
X217718257Y-166079568I-950000J0D01*
G01*
X217718257Y-166079568D02*
G75*
G02*
X219618257Y-166079568I950000J0D01*
G01*
D16*
X225693257Y-160179568D02*
G75*
G02*
X222643257Y-160179568I-1525000J0D01*
G01*
X222643257Y-160179568D02*
G75*
G02*
X225693257Y-160179568I1525000J0D01*
G01*
X230693257Y-162279568D02*
G75*
G02*
X227643257Y-162279568I-1525000J0D01*
G01*
X227643257Y-162279568D02*
G75*
G02*
X230693257Y-162279568I1525000J0D01*
G01*
D15*
X230618257Y-166079568D02*
G75*
G02*
X228718257Y-166079568I-950000J0D01*
G01*
X228718257Y-166079568D02*
G75*
G02*
X230618257Y-166079568I950000J0D01*
G01*
X210093257Y-108929568D02*
G75*
G02*
X208193257Y-108929568I-950000J0D01*
G01*
X208193257Y-108929568D02*
G75*
G02*
X210093257Y-108929568I950000J0D01*
G01*
D16*
X216168257Y-103029568D02*
G75*
G02*
X213118257Y-103029568I-1525000J0D01*
G01*
X213118257Y-103029568D02*
G75*
G02*
X216168257Y-103029568I1525000J0D01*
G01*
X221168257Y-105129568D02*
G75*
G02*
X218118257Y-105129568I-1525000J0D01*
G01*
X218118257Y-105129568D02*
G75*
G02*
X221168257Y-105129568I1525000J0D01*
G01*
D15*
X221093257Y-108929568D02*
G75*
G02*
X219193257Y-108929568I-950000J0D01*
G01*
X219193257Y-108929568D02*
G75*
G02*
X221093257Y-108929568I950000J0D01*
G01*
X229143257Y-144029568D02*
G75*
G02*
X227243257Y-144029568I-950000J0D01*
G01*
X227243257Y-144029568D02*
G75*
G02*
X229143257Y-144029568I950000J0D01*
G01*
D16*
X235218257Y-138129568D02*
G75*
G02*
X232168257Y-138129568I-1525000J0D01*
G01*
X232168257Y-138129568D02*
G75*
G02*
X235218257Y-138129568I1525000J0D01*
G01*
X240218257Y-140229568D02*
G75*
G02*
X237168257Y-140229568I-1525000J0D01*
G01*
X237168257Y-140229568D02*
G75*
G02*
X240218257Y-140229568I1525000J0D01*
G01*
D15*
X240143257Y-144029568D02*
G75*
G02*
X238243257Y-144029568I-950000J0D01*
G01*
X238243257Y-144029568D02*
G75*
G02*
X240143257Y-144029568I950000J0D01*
G01*
X70451607Y-111002544D02*
G75*
G02*
X68551607Y-111002544I-950000J0D01*
G01*
X68551607Y-111002544D02*
G75*
G02*
X70451607Y-111002544I950000J0D01*
G01*
D16*
X76526607Y-105102544D02*
G75*
G02*
X73476607Y-105102544I-1525000J0D01*
G01*
X73476607Y-105102544D02*
G75*
G02*
X76526607Y-105102544I1525000J0D01*
G01*
X81526607Y-107202544D02*
G75*
G02*
X78476607Y-107202544I-1525000J0D01*
G01*
X78476607Y-107202544D02*
G75*
G02*
X81526607Y-107202544I1525000J0D01*
G01*
D15*
X81451607Y-111002544D02*
G75*
G02*
X79551607Y-111002544I-950000J0D01*
G01*
X79551607Y-111002544D02*
G75*
G02*
X81451607Y-111002544I950000J0D01*
G01*
X191043257Y-137504568D02*
G75*
G02*
X189143257Y-137504568I-950000J0D01*
G01*
X189143257Y-137504568D02*
G75*
G02*
X191043257Y-137504568I950000J0D01*
G01*
D16*
X197118257Y-131604568D02*
G75*
G02*
X194068257Y-131604568I-1525000J0D01*
G01*
X194068257Y-131604568D02*
G75*
G02*
X197118257Y-131604568I1525000J0D01*
G01*
X202118257Y-133704568D02*
G75*
G02*
X199068257Y-133704568I-1525000J0D01*
G01*
X199068257Y-133704568D02*
G75*
G02*
X202118257Y-133704568I1525000J0D01*
G01*
D15*
X202043257Y-137504568D02*
G75*
G02*
X200143257Y-137504568I-950000J0D01*
G01*
X200143257Y-137504568D02*
G75*
G02*
X202043257Y-137504568I950000J0D01*
G01*
X267243257Y-124979568D02*
G75*
G02*
X265343257Y-124979568I-950000J0D01*
G01*
X265343257Y-124979568D02*
G75*
G02*
X267243257Y-124979568I950000J0D01*
G01*
D16*
X273318257Y-119079568D02*
G75*
G02*
X270268257Y-119079568I-1525000J0D01*
G01*
X270268257Y-119079568D02*
G75*
G02*
X273318257Y-119079568I1525000J0D01*
G01*
X278318257Y-121179568D02*
G75*
G02*
X275268257Y-121179568I-1525000J0D01*
G01*
X275268257Y-121179568D02*
G75*
G02*
X278318257Y-121179568I1525000J0D01*
G01*
D15*
X278243257Y-124979568D02*
G75*
G02*
X276343257Y-124979568I-950000J0D01*
G01*
X276343257Y-124979568D02*
G75*
G02*
X278243257Y-124979568I950000J0D01*
G01*
X70451607Y-91952544D02*
G75*
G02*
X68551607Y-91952544I-950000J0D01*
G01*
X68551607Y-91952544D02*
G75*
G02*
X70451607Y-91952544I950000J0D01*
G01*
D16*
X76526607Y-86052544D02*
G75*
G02*
X73476607Y-86052544I-1525000J0D01*
G01*
X73476607Y-86052544D02*
G75*
G02*
X76526607Y-86052544I1525000J0D01*
G01*
X81526607Y-88152544D02*
G75*
G02*
X78476607Y-88152544I-1525000J0D01*
G01*
X78476607Y-88152544D02*
G75*
G02*
X81526607Y-88152544I1525000J0D01*
G01*
D15*
X81451607Y-91952544D02*
G75*
G02*
X79551607Y-91952544I-950000J0D01*
G01*
X79551607Y-91952544D02*
G75*
G02*
X81451607Y-91952544I950000J0D01*
G01*
X257718257Y-163079568D02*
G75*
G02*
X255818257Y-163079568I-950000J0D01*
G01*
X255818257Y-163079568D02*
G75*
G02*
X257718257Y-163079568I950000J0D01*
G01*
D16*
X263793257Y-157179568D02*
G75*
G02*
X260743257Y-157179568I-1525000J0D01*
G01*
X260743257Y-157179568D02*
G75*
G02*
X263793257Y-157179568I1525000J0D01*
G01*
X268793257Y-159279568D02*
G75*
G02*
X265743257Y-159279568I-1525000J0D01*
G01*
X265743257Y-159279568D02*
G75*
G02*
X268793257Y-159279568I1525000J0D01*
G01*
D15*
X268718257Y-163079568D02*
G75*
G02*
X266818257Y-163079568I-950000J0D01*
G01*
X266818257Y-163079568D02*
G75*
G02*
X268718257Y-163079568I950000J0D01*
G01*
X127601607Y-125052544D02*
G75*
G02*
X125701607Y-125052544I-950000J0D01*
G01*
X125701607Y-125052544D02*
G75*
G02*
X127601607Y-125052544I950000J0D01*
G01*
D16*
X133676607Y-119152544D02*
G75*
G02*
X130626607Y-119152544I-1525000J0D01*
G01*
X130626607Y-119152544D02*
G75*
G02*
X133676607Y-119152544I1525000J0D01*
G01*
X138676607Y-121252544D02*
G75*
G02*
X135626607Y-121252544I-1525000J0D01*
G01*
X135626607Y-121252544D02*
G75*
G02*
X138676607Y-121252544I1525000J0D01*
G01*
D15*
X138601607Y-125052544D02*
G75*
G02*
X136701607Y-125052544I-950000J0D01*
G01*
X136701607Y-125052544D02*
G75*
G02*
X138601607Y-125052544I950000J0D01*
G01*
X210093257Y-89879568D02*
G75*
G02*
X208193257Y-89879568I-950000J0D01*
G01*
X208193257Y-89879568D02*
G75*
G02*
X210093257Y-89879568I950000J0D01*
G01*
D16*
X216168257Y-83979568D02*
G75*
G02*
X213118257Y-83979568I-1525000J0D01*
G01*
X213118257Y-83979568D02*
G75*
G02*
X216168257Y-83979568I1525000J0D01*
G01*
X221168257Y-86079568D02*
G75*
G02*
X218118257Y-86079568I-1525000J0D01*
G01*
X218118257Y-86079568D02*
G75*
G02*
X221168257Y-86079568I1525000J0D01*
G01*
D15*
X221093257Y-89879568D02*
G75*
G02*
X219193257Y-89879568I-950000J0D01*
G01*
X219193257Y-89879568D02*
G75*
G02*
X221093257Y-89879568I950000J0D01*
G01*
X305343257Y-132979568D02*
G75*
G02*
X303443257Y-132979568I-950000J0D01*
G01*
X303443257Y-132979568D02*
G75*
G02*
X305343257Y-132979568I950000J0D01*
G01*
D16*
X311418257Y-127079568D02*
G75*
G02*
X308368257Y-127079568I-1525000J0D01*
G01*
X308368257Y-127079568D02*
G75*
G02*
X311418257Y-127079568I1525000J0D01*
G01*
X316418257Y-129179568D02*
G75*
G02*
X313368257Y-129179568I-1525000J0D01*
G01*
X313368257Y-129179568D02*
G75*
G02*
X316418257Y-129179568I1525000J0D01*
G01*
D15*
X316343257Y-132979568D02*
G75*
G02*
X314443257Y-132979568I-950000J0D01*
G01*
X314443257Y-132979568D02*
G75*
G02*
X316343257Y-132979568I950000J0D01*
G01*
X286293257Y-91879568D02*
G75*
G02*
X284393257Y-91879568I-950000J0D01*
G01*
X284393257Y-91879568D02*
G75*
G02*
X286293257Y-91879568I950000J0D01*
G01*
D16*
X292368257Y-85979568D02*
G75*
G02*
X289318257Y-85979568I-1525000J0D01*
G01*
X289318257Y-85979568D02*
G75*
G02*
X292368257Y-85979568I1525000J0D01*
G01*
X297368257Y-88079568D02*
G75*
G02*
X294318257Y-88079568I-1525000J0D01*
G01*
X294318257Y-88079568D02*
G75*
G02*
X297368257Y-88079568I1525000J0D01*
G01*
D15*
X297293257Y-91879568D02*
G75*
G02*
X295393257Y-91879568I-950000J0D01*
G01*
X295393257Y-91879568D02*
G75*
G02*
X297293257Y-91879568I950000J0D01*
G01*
X108551607Y-104002544D02*
G75*
G02*
X106651607Y-104002544I-950000J0D01*
G01*
X106651607Y-104002544D02*
G75*
G02*
X108551607Y-104002544I950000J0D01*
G01*
D16*
X114626607Y-98102544D02*
G75*
G02*
X111576607Y-98102544I-1525000J0D01*
G01*
X111576607Y-98102544D02*
G75*
G02*
X114626607Y-98102544I1525000J0D01*
G01*
X119626607Y-100202544D02*
G75*
G02*
X116576607Y-100202544I-1525000J0D01*
G01*
X116576607Y-100202544D02*
G75*
G02*
X119626607Y-100202544I1525000J0D01*
G01*
D15*
X119551607Y-104002544D02*
G75*
G02*
X117651607Y-104002544I-950000J0D01*
G01*
X117651607Y-104002544D02*
G75*
G02*
X119551607Y-104002544I950000J0D01*
G01*
X137126607Y-166152544D02*
G75*
G02*
X135226607Y-166152544I-950000J0D01*
G01*
X135226607Y-166152544D02*
G75*
G02*
X137126607Y-166152544I950000J0D01*
G01*
D16*
X143201607Y-160252544D02*
G75*
G02*
X140151607Y-160252544I-1525000J0D01*
G01*
X140151607Y-160252544D02*
G75*
G02*
X143201607Y-160252544I1525000J0D01*
G01*
X148201607Y-162352544D02*
G75*
G02*
X145151607Y-162352544I-1525000J0D01*
G01*
X145151607Y-162352544D02*
G75*
G02*
X148201607Y-162352544I1525000J0D01*
G01*
D15*
X148126607Y-166152544D02*
G75*
G02*
X146226607Y-166152544I-950000J0D01*
G01*
X146226607Y-166152544D02*
G75*
G02*
X148126607Y-166152544I950000J0D01*
G01*
D17*
X273693257Y-112309568D02*
X273693257Y-109709568D01*
X273493257Y-109509568D02*
X270093257Y-109509568D01*
X270093257Y-112509568D02*
X273493257Y-112509568D01*
X269893257Y-109709568D02*
X269893257Y-112309568D01*
X273493257Y-109509568D02*
G75*
G02*
X273693257Y-109709568I-1J-200001D01*
G01*
X273693257Y-112309568D02*
G75*
G02*
X273493257Y-112509568I-200001J1D01*
G01*
X269893257Y-109709568D02*
G75*
G02*
X270093257Y-109509568I200000J0D01*
G01*
X270093257Y-112509568D02*
G75*
G02*
X269893257Y-112309568I0J200000D01*
G01*
X134051607Y-131432544D02*
X134051607Y-128832544D01*
X133851607Y-128632544D02*
X130451607Y-128632544D01*
X130451607Y-131632544D02*
X133851607Y-131632544D01*
X130251607Y-128832544D02*
X130251607Y-131432544D01*
X133851607Y-128632544D02*
G75*
G02*
X134051607Y-128832544I-1J-200001D01*
G01*
X134051607Y-131432544D02*
G75*
G02*
X133851607Y-131632544I-200001J1D01*
G01*
X130251607Y-128832544D02*
G75*
G02*
X130451607Y-128632544I200000J0D01*
G01*
X130451607Y-131632544D02*
G75*
G02*
X130251607Y-131432544I0J200000D01*
G01*
X76901607Y-155482544D02*
X76901607Y-152882544D01*
X76701607Y-152682544D02*
X73301607Y-152682544D01*
X73301607Y-155682544D02*
X76701607Y-155682544D01*
X73101607Y-152882544D02*
X73101607Y-155482544D01*
X76701607Y-152682544D02*
G75*
G02*
X76901607Y-152882544I-1J-200001D01*
G01*
X76901607Y-155482544D02*
G75*
G02*
X76701607Y-155682544I-200001J1D01*
G01*
X73101607Y-152882544D02*
G75*
G02*
X73301607Y-152682544I200000J0D01*
G01*
X73301607Y-155682544D02*
G75*
G02*
X73101607Y-155482544I0J200000D01*
G01*
X254643257Y-129359568D02*
X254643257Y-126759568D01*
X254443257Y-126559568D02*
X251043257Y-126559568D01*
X251043257Y-129559568D02*
X254443257Y-129559568D01*
X250843257Y-126759568D02*
X250843257Y-129359568D01*
X254443257Y-126559568D02*
G75*
G02*
X254643257Y-126759568I-1J-200001D01*
G01*
X254643257Y-129359568D02*
G75*
G02*
X254443257Y-129559568I-200001J1D01*
G01*
X250843257Y-126759568D02*
G75*
G02*
X251043257Y-126559568I200000J0D01*
G01*
X251043257Y-129559568D02*
G75*
G02*
X250843257Y-129359568I0J200000D01*
G01*
X105476607Y-169532544D02*
X105476607Y-166932544D01*
X105276607Y-166732544D02*
X101876607Y-166732544D01*
X101876607Y-169732544D02*
X105276607Y-169732544D01*
X101676607Y-166932544D02*
X101676607Y-169532544D01*
X105276607Y-166732544D02*
G75*
G02*
X105476607Y-166932544I-1J-200001D01*
G01*
X105476607Y-169532544D02*
G75*
G02*
X105276607Y-169732544I-200001J1D01*
G01*
X101676607Y-166932544D02*
G75*
G02*
X101876607Y-166732544I200000J0D01*
G01*
X101876607Y-169732544D02*
G75*
G02*
X101676607Y-169532544I0J200000D01*
G01*
X143576607Y-172532544D02*
X143576607Y-169932544D01*
X143376607Y-169732544D02*
X139976607Y-169732544D01*
X139976607Y-172732544D02*
X143376607Y-172732544D01*
X139776607Y-169932544D02*
X139776607Y-172532544D01*
X143376607Y-169732544D02*
G75*
G02*
X143576607Y-169932544I-1J-200001D01*
G01*
X143576607Y-172532544D02*
G75*
G02*
X143376607Y-172732544I-200001J1D01*
G01*
X139776607Y-169932544D02*
G75*
G02*
X139976607Y-169732544I200000J0D01*
G01*
X139976607Y-172732544D02*
G75*
G02*
X139776607Y-172532544I0J200000D01*
G01*
X57851607Y-139432544D02*
X57851607Y-136832544D01*
X57651607Y-136632544D02*
X54251607Y-136632544D01*
X54251607Y-139632544D02*
X57651607Y-139632544D01*
X54051607Y-136832544D02*
X54051607Y-139432544D01*
X57651607Y-136632544D02*
G75*
G02*
X57851607Y-136832544I-1J-200001D01*
G01*
X57851607Y-139432544D02*
G75*
G02*
X57651607Y-139632544I-200001J1D01*
G01*
X54051607Y-136832544D02*
G75*
G02*
X54251607Y-136632544I200000J0D01*
G01*
X54251607Y-139632544D02*
G75*
G02*
X54051607Y-139432544I0J200000D01*
G01*
X153101607Y-115382544D02*
X153101607Y-112782544D01*
X152901607Y-112582544D02*
X149501607Y-112582544D01*
X149501607Y-115582544D02*
X152901607Y-115582544D01*
X149301607Y-112782544D02*
X149301607Y-115382544D01*
X152901607Y-112582544D02*
G75*
G02*
X153101607Y-112782544I-1J-200001D01*
G01*
X153101607Y-115382544D02*
G75*
G02*
X152901607Y-115582544I-200001J1D01*
G01*
X149301607Y-112782544D02*
G75*
G02*
X149501607Y-112582544I200000J0D01*
G01*
X149501607Y-115582544D02*
G75*
G02*
X149301607Y-115382544I0J200000D01*
G01*
X273693257Y-150409568D02*
X273693257Y-147809568D01*
X273493257Y-147609568D02*
X270093257Y-147609568D01*
X270093257Y-150609568D02*
X273493257Y-150609568D01*
X269893257Y-147809568D02*
X269893257Y-150409568D01*
X273493257Y-147609568D02*
G75*
G02*
X273693257Y-147809568I-1J-200001D01*
G01*
X273693257Y-150409568D02*
G75*
G02*
X273493257Y-150609568I-200001J1D01*
G01*
X269893257Y-147809568D02*
G75*
G02*
X270093257Y-147609568I200000J0D01*
G01*
X270093257Y-150609568D02*
G75*
G02*
X269893257Y-150409568I0J200000D01*
G01*
X273693257Y-93259568D02*
X273693257Y-90659568D01*
X273493257Y-90459568D02*
X270093257Y-90459568D01*
X270093257Y-93459568D02*
X273493257Y-93459568D01*
X269893257Y-90659568D02*
X269893257Y-93259568D01*
X273493257Y-90459568D02*
G75*
G02*
X273693257Y-90659568I-1J-200001D01*
G01*
X273693257Y-93259568D02*
G75*
G02*
X273493257Y-93459568I-200001J1D01*
G01*
X269893257Y-90659568D02*
G75*
G02*
X270093257Y-90459568I200000J0D01*
G01*
X270093257Y-93459568D02*
G75*
G02*
X269893257Y-93259568I0J200000D01*
G01*
X115001607Y-129432544D02*
X115001607Y-126832544D01*
X114801607Y-126632544D02*
X111401607Y-126632544D01*
X111401607Y-129632544D02*
X114801607Y-129632544D01*
X111201607Y-126832544D02*
X111201607Y-129432544D01*
X114801607Y-126632544D02*
G75*
G02*
X115001607Y-126832544I-1J-200001D01*
G01*
X115001607Y-129432544D02*
G75*
G02*
X114801607Y-129632544I-200001J1D01*
G01*
X111201607Y-126832544D02*
G75*
G02*
X111401607Y-126632544I200000J0D01*
G01*
X111401607Y-129632544D02*
G75*
G02*
X111201607Y-129432544I0J200000D01*
G01*
X134051607Y-150482544D02*
X134051607Y-147882544D01*
X133851607Y-147682544D02*
X130451607Y-147682544D01*
X130451607Y-150682544D02*
X133851607Y-150682544D01*
X130251607Y-147882544D02*
X130251607Y-150482544D01*
X133851607Y-147682544D02*
G75*
G02*
X134051607Y-147882544I-1J-200001D01*
G01*
X134051607Y-150482544D02*
G75*
G02*
X133851607Y-150682544I-200001J1D01*
G01*
X130251607Y-147882544D02*
G75*
G02*
X130451607Y-147682544I200000J0D01*
G01*
X130451607Y-150682544D02*
G75*
G02*
X130251607Y-150482544I0J200000D01*
G01*
X95951607Y-131432544D02*
X95951607Y-128832544D01*
X95751607Y-128632544D02*
X92351607Y-128632544D01*
X92351607Y-131632544D02*
X95751607Y-131632544D01*
X92151607Y-128832544D02*
X92151607Y-131432544D01*
X95751607Y-128632544D02*
G75*
G02*
X95951607Y-128832544I-1J-200001D01*
G01*
X95951607Y-131432544D02*
G75*
G02*
X95751607Y-131632544I-200001J1D01*
G01*
X92151607Y-128832544D02*
G75*
G02*
X92351607Y-128632544I200000J0D01*
G01*
X92351607Y-131632544D02*
G75*
G02*
X92151607Y-131432544I0J200000D01*
G01*
X235593257Y-93259568D02*
X235593257Y-90659568D01*
X235393257Y-90459568D02*
X231993257Y-90459568D01*
X231993257Y-93459568D02*
X235393257Y-93459568D01*
X231793257Y-90659568D02*
X231793257Y-93259568D01*
X235393257Y-90459568D02*
G75*
G02*
X235593257Y-90659568I-1J-200001D01*
G01*
X235593257Y-93259568D02*
G75*
G02*
X235393257Y-93459568I-200001J1D01*
G01*
X231793257Y-90659568D02*
G75*
G02*
X231993257Y-90459568I200000J0D01*
G01*
X231993257Y-93459568D02*
G75*
G02*
X231793257Y-93259568I0J200000D01*
G01*
X115001607Y-110382544D02*
X115001607Y-107782544D01*
X114801607Y-107582544D02*
X111401607Y-107582544D01*
X111401607Y-110582544D02*
X114801607Y-110582544D01*
X111201607Y-107782544D02*
X111201607Y-110382544D01*
X114801607Y-107582544D02*
G75*
G02*
X115001607Y-107782544I-1J-200001D01*
G01*
X115001607Y-110382544D02*
G75*
G02*
X114801607Y-110582544I-200001J1D01*
G01*
X111201607Y-107782544D02*
G75*
G02*
X111401607Y-107582544I200000J0D01*
G01*
X111401607Y-110582544D02*
G75*
G02*
X111201607Y-110382544I0J200000D01*
G01*
X197493257Y-143884568D02*
X197493257Y-141284568D01*
X197293257Y-141084568D02*
X193893257Y-141084568D01*
X193893257Y-144084568D02*
X197293257Y-144084568D01*
X193693257Y-141284568D02*
X193693257Y-143884568D01*
X197293257Y-141084568D02*
G75*
G02*
X197493257Y-141284568I-1J-200001D01*
G01*
X197493257Y-143884568D02*
G75*
G02*
X197293257Y-144084568I-200001J1D01*
G01*
X193693257Y-141284568D02*
G75*
G02*
X193893257Y-141084568I200000J0D01*
G01*
X193893257Y-144084568D02*
G75*
G02*
X193693257Y-143884568I0J200000D01*
G01*
X254643257Y-91259568D02*
X254643257Y-88659568D01*
X254443257Y-88459568D02*
X251043257Y-88459568D01*
X251043257Y-91459568D02*
X254443257Y-91459568D01*
X250843257Y-88659568D02*
X250843257Y-91259568D01*
X254443257Y-88459568D02*
G75*
G02*
X254643257Y-88659568I-1J-200001D01*
G01*
X254643257Y-91259568D02*
G75*
G02*
X254443257Y-91459568I-200001J1D01*
G01*
X250843257Y-88659568D02*
G75*
G02*
X251043257Y-88459568I200000J0D01*
G01*
X251043257Y-91459568D02*
G75*
G02*
X250843257Y-91259568I0J200000D01*
G01*
X173160137Y-167775356D02*
X170803737Y-166676548D01*
X170537951Y-166773286D02*
X169101049Y-169854733D01*
X171819973Y-171122588D02*
X173256875Y-168041141D01*
X169197787Y-170120518D02*
X171554187Y-171219326D01*
X170537951Y-166773286D02*
G75*
G02*
X170803737Y-166676548I181262J-84525D01*
G01*
X173160137Y-167775356D02*
G75*
G02*
X173256875Y-168041141I-84525J-181262D01*
G01*
X169197787Y-170120518D02*
G75*
G02*
X169101049Y-169854733I84524J181262D01*
G01*
X171819973Y-171122588D02*
G75*
G02*
X171554187Y-171219326I-181262J84524D01*
G01*
X153101607Y-153482544D02*
X153101607Y-150882544D01*
X152901607Y-150682544D02*
X149501607Y-150682544D01*
X149501607Y-153682544D02*
X152901607Y-153682544D01*
X149301607Y-150882544D02*
X149301607Y-153482544D01*
X152901607Y-150682544D02*
G75*
G02*
X153101607Y-150882544I-1J-200001D01*
G01*
X153101607Y-153482544D02*
G75*
G02*
X152901607Y-153682544I-200001J1D01*
G01*
X149301607Y-150882544D02*
G75*
G02*
X149501607Y-150682544I200000J0D01*
G01*
X149501607Y-153682544D02*
G75*
G02*
X149301607Y-153482544I0J200000D01*
G01*
X226068257Y-172459568D02*
X226068257Y-169859568D01*
X225868257Y-169659568D02*
X222468257Y-169659568D01*
X222468257Y-172659568D02*
X225868257Y-172659568D01*
X222268257Y-169859568D02*
X222268257Y-172459568D01*
X225868257Y-169659568D02*
G75*
G02*
X226068257Y-169859568I-1J-200001D01*
G01*
X226068257Y-172459568D02*
G75*
G02*
X225868257Y-172659568I-200001J1D01*
G01*
X222268257Y-169859568D02*
G75*
G02*
X222468257Y-169659568I200000J0D01*
G01*
X222468257Y-172659568D02*
G75*
G02*
X222268257Y-172459568I0J200000D01*
G01*
X216543257Y-96259568D02*
X216543257Y-93659568D01*
X216343257Y-93459568D02*
X212943257Y-93459568D01*
X212943257Y-96459568D02*
X216343257Y-96459568D01*
X212743257Y-93659568D02*
X212743257Y-96259568D01*
X216343257Y-93459568D02*
G75*
G02*
X216543257Y-93659568I-1J-200001D01*
G01*
X216543257Y-96259568D02*
G75*
G02*
X216343257Y-96459568I-200001J1D01*
G01*
X212743257Y-93659568D02*
G75*
G02*
X212943257Y-93459568I200000J0D01*
G01*
X212943257Y-96459568D02*
G75*
G02*
X212743257Y-96259568I0J200000D01*
G01*
X124526607Y-169532544D02*
X124526607Y-166932544D01*
X124326607Y-166732544D02*
X120926607Y-166732544D01*
X120926607Y-169732544D02*
X124326607Y-169732544D01*
X120726607Y-166932544D02*
X120726607Y-169532544D01*
X124326607Y-166732544D02*
G75*
G02*
X124526607Y-166932544I-1J-200001D01*
G01*
X124526607Y-169532544D02*
G75*
G02*
X124326607Y-169732544I-200001J1D01*
G01*
X120726607Y-166932544D02*
G75*
G02*
X120926607Y-166732544I200000J0D01*
G01*
X120926607Y-169732544D02*
G75*
G02*
X120726607Y-169532544I0J200000D01*
G01*
X134051607Y-93332544D02*
X134051607Y-90732544D01*
X133851607Y-90532544D02*
X130451607Y-90532544D01*
X130451607Y-93532544D02*
X133851607Y-93532544D01*
X130251607Y-90732544D02*
X130251607Y-93332544D01*
X133851607Y-90532544D02*
G75*
G02*
X134051607Y-90732544I-1J-200001D01*
G01*
X134051607Y-93332544D02*
G75*
G02*
X133851607Y-93532544I-200001J1D01*
G01*
X130251607Y-90732544D02*
G75*
G02*
X130451607Y-90532544I200000J0D01*
G01*
X130451607Y-93532544D02*
G75*
G02*
X130251607Y-93332544I0J200000D01*
G01*
X57851607Y-120382544D02*
X57851607Y-117782544D01*
X57651607Y-117582544D02*
X54251607Y-117582544D01*
X54251607Y-120582544D02*
X57651607Y-120582544D01*
X54051607Y-117782544D02*
X54051607Y-120382544D01*
X57651607Y-117582544D02*
G75*
G02*
X57851607Y-117782544I-1J-200001D01*
G01*
X57851607Y-120382544D02*
G75*
G02*
X57651607Y-120582544I-200001J1D01*
G01*
X54051607Y-117782544D02*
G75*
G02*
X54251607Y-117582544I200000J0D01*
G01*
X54251607Y-120582544D02*
G75*
G02*
X54051607Y-120382544I0J200000D01*
G01*
X311793257Y-158409568D02*
X311793257Y-155809568D01*
X311593257Y-155609568D02*
X308193257Y-155609568D01*
X308193257Y-158609568D02*
X311593257Y-158609568D01*
X307993257Y-155809568D02*
X307993257Y-158409568D01*
X311593257Y-155609568D02*
G75*
G02*
X311793257Y-155809568I-1J-200001D01*
G01*
X311793257Y-158409568D02*
G75*
G02*
X311593257Y-158609568I-200001J1D01*
G01*
X307993257Y-155809568D02*
G75*
G02*
X308193257Y-155609568I200000J0D01*
G01*
X308193257Y-158609568D02*
G75*
G02*
X307993257Y-158409568I0J200000D01*
G01*
X254643257Y-148409568D02*
X254643257Y-145809568D01*
X254443257Y-145609568D02*
X251043257Y-145609568D01*
X251043257Y-148609568D02*
X254443257Y-148609568D01*
X250843257Y-145809568D02*
X250843257Y-148409568D01*
X254443257Y-145609568D02*
G75*
G02*
X254643257Y-145809568I-1J-200001D01*
G01*
X254643257Y-148409568D02*
G75*
G02*
X254443257Y-148609568I-200001J1D01*
G01*
X250843257Y-145809568D02*
G75*
G02*
X251043257Y-145609568I200000J0D01*
G01*
X251043257Y-148609568D02*
G75*
G02*
X250843257Y-148409568I0J200000D01*
G01*
X235593257Y-112309568D02*
X235593257Y-109709568D01*
X235393257Y-109509568D02*
X231993257Y-109509568D01*
X231993257Y-112509568D02*
X235393257Y-112509568D01*
X231793257Y-109709568D02*
X231793257Y-112309568D01*
X235393257Y-109509568D02*
G75*
G02*
X235593257Y-109709568I-1J-200001D01*
G01*
X235593257Y-112309568D02*
G75*
G02*
X235393257Y-112509568I-200001J1D01*
G01*
X231793257Y-109709568D02*
G75*
G02*
X231993257Y-109509568I200000J0D01*
G01*
X231993257Y-112509568D02*
G75*
G02*
X231793257Y-112309568I0J200000D01*
G01*
X311793257Y-101259568D02*
X311793257Y-98659568D01*
X311593257Y-98459568D02*
X308193257Y-98459568D01*
X308193257Y-101459568D02*
X311593257Y-101459568D01*
X307993257Y-98659568D02*
X307993257Y-101259568D01*
X311593257Y-98459568D02*
G75*
G02*
X311793257Y-98659568I-1J-200001D01*
G01*
X311793257Y-101259568D02*
G75*
G02*
X311593257Y-101459568I-200001J1D01*
G01*
X307993257Y-98659568D02*
G75*
G02*
X308193257Y-98459568I200000J0D01*
G01*
X308193257Y-101459568D02*
G75*
G02*
X307993257Y-101259568I0J200000D01*
G01*
D16*
X204293257Y-117779568D02*
G75*
G02*
X201893257Y-117779568I-1200000J0D01*
G01*
X201893257Y-117779568D02*
G75*
G02*
X204293257Y-117779568I1200000J0D01*
G01*
D17*
X273693257Y-131359568D02*
X273693257Y-128759568D01*
X273493257Y-128559568D02*
X270093257Y-128559568D01*
X270093257Y-131559568D02*
X273493257Y-131559568D01*
X269893257Y-128759568D02*
X269893257Y-131359568D01*
X273493257Y-128559568D02*
G75*
G02*
X273693257Y-128759568I-1J-200001D01*
G01*
X273693257Y-131359568D02*
G75*
G02*
X273493257Y-131559568I-200001J1D01*
G01*
X269893257Y-128759568D02*
G75*
G02*
X270093257Y-128559568I200000J0D01*
G01*
X270093257Y-131559568D02*
G75*
G02*
X269893257Y-131359568I0J200000D01*
G01*
X254643257Y-110309568D02*
X254643257Y-107709568D01*
X254443257Y-107509568D02*
X251043257Y-107509568D01*
X251043257Y-110509568D02*
X254443257Y-110509568D01*
X250843257Y-107709568D02*
X250843257Y-110309568D01*
X254443257Y-107509568D02*
G75*
G02*
X254643257Y-107709568I-1J-200001D01*
G01*
X254643257Y-110309568D02*
G75*
G02*
X254443257Y-110509568I-200001J1D01*
G01*
X250843257Y-107709568D02*
G75*
G02*
X251043257Y-107509568I200000J0D01*
G01*
X251043257Y-110509568D02*
G75*
G02*
X250843257Y-110309568I0J200000D01*
G01*
X292743257Y-98259568D02*
X292743257Y-95659568D01*
X292543257Y-95459568D02*
X289143257Y-95459568D01*
X289143257Y-98459568D02*
X292543257Y-98459568D01*
X288943257Y-95659568D02*
X288943257Y-98259568D01*
X292543257Y-95459568D02*
G75*
G02*
X292743257Y-95659568I-1J-200001D01*
G01*
X292743257Y-98259568D02*
G75*
G02*
X292543257Y-98459568I-200001J1D01*
G01*
X288943257Y-95659568D02*
G75*
G02*
X289143257Y-95459568I200000J0D01*
G01*
X289143257Y-98459568D02*
G75*
G02*
X288943257Y-98259568I0J200000D01*
G01*
X57851607Y-101332544D02*
X57851607Y-98732544D01*
X57651607Y-98532544D02*
X54251607Y-98532544D01*
X54251607Y-101532544D02*
X57651607Y-101532544D01*
X54051607Y-98732544D02*
X54051607Y-101332544D01*
X57651607Y-98532544D02*
G75*
G02*
X57851607Y-98732544I-1J-200001D01*
G01*
X57851607Y-101332544D02*
G75*
G02*
X57651607Y-101532544I-200001J1D01*
G01*
X54051607Y-98732544D02*
G75*
G02*
X54251607Y-98532544I200000J0D01*
G01*
X54251607Y-101532544D02*
G75*
G02*
X54051607Y-101332544I0J200000D01*
G01*
X216543257Y-134359568D02*
X216543257Y-131759568D01*
X216343257Y-131559568D02*
X212943257Y-131559568D01*
X212943257Y-134559568D02*
X216343257Y-134559568D01*
X212743257Y-131759568D02*
X212743257Y-134359568D01*
X216343257Y-131559568D02*
G75*
G02*
X216543257Y-131759568I-1J-200001D01*
G01*
X216543257Y-134359568D02*
G75*
G02*
X216343257Y-134559568I-200001J1D01*
G01*
X212743257Y-131759568D02*
G75*
G02*
X212943257Y-131559568I200000J0D01*
G01*
X212943257Y-134559568D02*
G75*
G02*
X212743257Y-134359568I0J200000D01*
G01*
X57851607Y-158482544D02*
X57851607Y-155882544D01*
X57651607Y-155682544D02*
X54251607Y-155682544D01*
X54251607Y-158682544D02*
X57651607Y-158682544D01*
X54051607Y-155882544D02*
X54051607Y-158482544D01*
X57651607Y-155682544D02*
G75*
G02*
X57851607Y-155882544I-1J-200001D01*
G01*
X57851607Y-158482544D02*
G75*
G02*
X57651607Y-158682544I-200001J1D01*
G01*
X54051607Y-155882544D02*
G75*
G02*
X54251607Y-155682544I200000J0D01*
G01*
X54251607Y-158682544D02*
G75*
G02*
X54051607Y-158482544I0J200000D01*
G01*
X153101607Y-134432544D02*
X153101607Y-131832544D01*
X152901607Y-131632544D02*
X149501607Y-131632544D01*
X149501607Y-134632544D02*
X152901607Y-134632544D01*
X149301607Y-131832544D02*
X149301607Y-134432544D01*
X152901607Y-131632544D02*
G75*
G02*
X153101607Y-131832544I-1J-200001D01*
G01*
X153101607Y-134432544D02*
G75*
G02*
X152901607Y-134632544I-200001J1D01*
G01*
X149301607Y-131832544D02*
G75*
G02*
X149501607Y-131632544I200000J0D01*
G01*
X149501607Y-134632544D02*
G75*
G02*
X149301607Y-134432544I0J200000D01*
G01*
X311793257Y-139359568D02*
X311793257Y-136759568D01*
X311593257Y-136559568D02*
X308193257Y-136559568D01*
X308193257Y-139559568D02*
X311593257Y-139559568D01*
X307993257Y-136759568D02*
X307993257Y-139359568D01*
X311593257Y-136559568D02*
G75*
G02*
X311793257Y-136759568I-1J-200001D01*
G01*
X311793257Y-139359568D02*
G75*
G02*
X311593257Y-139559568I-200001J1D01*
G01*
X307993257Y-136759568D02*
G75*
G02*
X308193257Y-136559568I200000J0D01*
G01*
X308193257Y-139559568D02*
G75*
G02*
X307993257Y-139359568I0J200000D01*
G01*
X292743257Y-136359568D02*
X292743257Y-133759568D01*
X292543257Y-133559568D02*
X289143257Y-133559568D01*
X289143257Y-136559568D02*
X292543257Y-136559568D01*
X288943257Y-133759568D02*
X288943257Y-136359568D01*
X292543257Y-133559568D02*
G75*
G02*
X292743257Y-133759568I-1J-200001D01*
G01*
X292743257Y-136359568D02*
G75*
G02*
X292543257Y-136559568I-200001J1D01*
G01*
X288943257Y-133759568D02*
G75*
G02*
X289143257Y-133559568I200000J0D01*
G01*
X289143257Y-136559568D02*
G75*
G02*
X288943257Y-136359568I0J200000D01*
G01*
X292743257Y-155409568D02*
X292743257Y-152809568D01*
X292543257Y-152609568D02*
X289143257Y-152609568D01*
X289143257Y-155609568D02*
X292543257Y-155609568D01*
X288943257Y-152809568D02*
X288943257Y-155409568D01*
X292543257Y-152609568D02*
G75*
G02*
X292743257Y-152809568I-1J-200001D01*
G01*
X292743257Y-155409568D02*
G75*
G02*
X292543257Y-155609568I-200001J1D01*
G01*
X288943257Y-152809568D02*
G75*
G02*
X289143257Y-152609568I200000J0D01*
G01*
X289143257Y-155609568D02*
G75*
G02*
X288943257Y-155409568I0J200000D01*
G01*
X95951607Y-150482544D02*
X95951607Y-147882544D01*
X95751607Y-147682544D02*
X92351607Y-147682544D01*
X92351607Y-150682544D02*
X95751607Y-150682544D01*
X92151607Y-147882544D02*
X92151607Y-150482544D01*
X95751607Y-147682544D02*
G75*
G02*
X95951607Y-147882544I-1J-200001D01*
G01*
X95951607Y-150482544D02*
G75*
G02*
X95751607Y-150682544I-200001J1D01*
G01*
X92151607Y-147882544D02*
G75*
G02*
X92351607Y-147682544I200000J0D01*
G01*
X92351607Y-150682544D02*
G75*
G02*
X92151607Y-150482544I0J200000D01*
G01*
X134051607Y-112382544D02*
X134051607Y-109782544D01*
X133851607Y-109582544D02*
X130451607Y-109582544D01*
X130451607Y-112582544D02*
X133851607Y-112582544D01*
X130251607Y-109782544D02*
X130251607Y-112382544D01*
X133851607Y-109582544D02*
G75*
G02*
X134051607Y-109782544I-1J-200001D01*
G01*
X134051607Y-112382544D02*
G75*
G02*
X133851607Y-112582544I-200001J1D01*
G01*
X130251607Y-109782544D02*
G75*
G02*
X130451607Y-109582544I200000J0D01*
G01*
X130451607Y-112582544D02*
G75*
G02*
X130251607Y-112382544I0J200000D01*
G01*
X194290677Y-171146350D02*
X196647077Y-170047542D01*
X196743815Y-169781757D02*
X195306913Y-166700310D01*
X192587989Y-167968165D02*
X194024891Y-171049612D01*
X195041127Y-166603572D02*
X192684727Y-167702380D01*
X196743815Y-169781757D02*
G75*
G02*
X196647077Y-170047542I-181263J-84523D01*
G01*
X194290677Y-171146350D02*
G75*
G02*
X194024891Y-171049612I-84524J181263D01*
G01*
X195041127Y-166603572D02*
G75*
G02*
X195306913Y-166700310I84524J-181262D01*
G01*
X192587989Y-167968165D02*
G75*
G02*
X192684727Y-167702380I181262J84523D01*
G01*
X95951607Y-93332544D02*
X95951607Y-90732544D01*
X95751607Y-90532544D02*
X92351607Y-90532544D01*
X92351607Y-93532544D02*
X95751607Y-93532544D01*
X92151607Y-90732544D02*
X92151607Y-93332544D01*
X95751607Y-90532544D02*
G75*
G02*
X95951607Y-90732544I-1J-200001D01*
G01*
X95951607Y-93332544D02*
G75*
G02*
X95751607Y-93532544I-200001J1D01*
G01*
X92151607Y-90732544D02*
G75*
G02*
X92351607Y-90532544I200000J0D01*
G01*
X92351607Y-93532544D02*
G75*
G02*
X92151607Y-93332544I0J200000D01*
G01*
X216543257Y-153409568D02*
X216543257Y-150809568D01*
X216343257Y-150609568D02*
X212943257Y-150609568D01*
X212943257Y-153609568D02*
X216343257Y-153609568D01*
X212743257Y-150809568D02*
X212743257Y-153409568D01*
X216343257Y-150609568D02*
G75*
G02*
X216543257Y-150809568I-1J-200001D01*
G01*
X216543257Y-153409568D02*
G75*
G02*
X216343257Y-153609568I-200001J1D01*
G01*
X212743257Y-150809568D02*
G75*
G02*
X212943257Y-150609568I200000J0D01*
G01*
X212943257Y-153609568D02*
G75*
G02*
X212743257Y-153409568I0J200000D01*
G01*
X76901607Y-117382544D02*
X76901607Y-114782544D01*
X76701607Y-114582544D02*
X73301607Y-114582544D01*
X73301607Y-117582544D02*
X76701607Y-117582544D01*
X73101607Y-114782544D02*
X73101607Y-117382544D01*
X76701607Y-114582544D02*
G75*
G02*
X76901607Y-114782544I-1J-200001D01*
G01*
X76901607Y-117382544D02*
G75*
G02*
X76701607Y-117582544I-200001J1D01*
G01*
X73101607Y-114782544D02*
G75*
G02*
X73301607Y-114582544I200000J0D01*
G01*
X73301607Y-117582544D02*
G75*
G02*
X73101607Y-117382544I0J200000D01*
G01*
X76901607Y-98332544D02*
X76901607Y-95732544D01*
X76701607Y-95532544D02*
X73301607Y-95532544D01*
X73301607Y-98532544D02*
X76701607Y-98532544D01*
X73101607Y-95732544D02*
X73101607Y-98332544D01*
X76701607Y-95532544D02*
G75*
G02*
X76901607Y-95732544I-1J-200001D01*
G01*
X76901607Y-98332544D02*
G75*
G02*
X76701607Y-98532544I-200001J1D01*
G01*
X73101607Y-95732544D02*
G75*
G02*
X73301607Y-95532544I200000J0D01*
G01*
X73301607Y-98532544D02*
G75*
G02*
X73101607Y-98332544I0J200000D01*
G01*
X216543257Y-115309568D02*
X216543257Y-112709568D01*
X216343257Y-112509568D02*
X212943257Y-112509568D01*
X212943257Y-115509568D02*
X216343257Y-115509568D01*
X212743257Y-112709568D02*
X212743257Y-115309568D01*
X216343257Y-112509568D02*
G75*
G02*
X216543257Y-112709568I-1J-200001D01*
G01*
X216543257Y-115309568D02*
G75*
G02*
X216343257Y-115509568I-200001J1D01*
G01*
X212743257Y-112709568D02*
G75*
G02*
X212943257Y-112509568I200000J0D01*
G01*
X212943257Y-115509568D02*
G75*
G02*
X212743257Y-115309568I0J200000D01*
G01*
X235593257Y-131359568D02*
X235593257Y-128759568D01*
X235393257Y-128559568D02*
X231993257Y-128559568D01*
X231993257Y-131559568D02*
X235393257Y-131559568D01*
X231793257Y-128759568D02*
X231793257Y-131359568D01*
X235393257Y-128559568D02*
G75*
G02*
X235593257Y-128759568I-1J-200001D01*
G01*
X235593257Y-131359568D02*
G75*
G02*
X235393257Y-131559568I-200001J1D01*
G01*
X231793257Y-128759568D02*
G75*
G02*
X231993257Y-128559568I200000J0D01*
G01*
X231993257Y-131559568D02*
G75*
G02*
X231793257Y-131359568I0J200000D01*
G01*
X115001607Y-148482544D02*
X115001607Y-145882544D01*
X114801607Y-145682544D02*
X111401607Y-145682544D01*
X111401607Y-148682544D02*
X114801607Y-148682544D01*
X111201607Y-145882544D02*
X111201607Y-148482544D01*
X114801607Y-145682544D02*
G75*
G02*
X115001607Y-145882544I-1J-200001D01*
G01*
X115001607Y-148482544D02*
G75*
G02*
X114801607Y-148682544I-200001J1D01*
G01*
X111201607Y-145882544D02*
G75*
G02*
X111401607Y-145682544I200000J0D01*
G01*
X111401607Y-148682544D02*
G75*
G02*
X111201607Y-148482544I0J200000D01*
G01*
X115001607Y-91332544D02*
X115001607Y-88732544D01*
X114801607Y-88532544D02*
X111401607Y-88532544D01*
X111401607Y-91532544D02*
X114801607Y-91532544D01*
X111201607Y-88732544D02*
X111201607Y-91332544D01*
X114801607Y-88532544D02*
G75*
G02*
X115001607Y-88732544I-1J-200001D01*
G01*
X115001607Y-91332544D02*
G75*
G02*
X114801607Y-91532544I-200001J1D01*
G01*
X111201607Y-88732544D02*
G75*
G02*
X111401607Y-88532544I200000J0D01*
G01*
X111401607Y-91532544D02*
G75*
G02*
X111201607Y-91332544I0J200000D01*
G01*
X264168257Y-169459568D02*
X264168257Y-166859568D01*
X263968257Y-166659568D02*
X260568257Y-166659568D01*
X260568257Y-169659568D02*
X263968257Y-169659568D01*
X260368257Y-166859568D02*
X260368257Y-169459568D01*
X263968257Y-166659568D02*
G75*
G02*
X264168257Y-166859568I-1J-200001D01*
G01*
X264168257Y-169459568D02*
G75*
G02*
X263968257Y-169659568I-200001J1D01*
G01*
X260368257Y-166859568D02*
G75*
G02*
X260568257Y-166659568I200000J0D01*
G01*
X260568257Y-169659568D02*
G75*
G02*
X260368257Y-169459568I0J200000D01*
G01*
X311793257Y-120309568D02*
X311793257Y-117709568D01*
X311593257Y-117509568D02*
X308193257Y-117509568D01*
X308193257Y-120509568D02*
X311593257Y-120509568D01*
X307993257Y-117709568D02*
X307993257Y-120309568D01*
X311593257Y-117509568D02*
G75*
G02*
X311793257Y-117709568I-1J-200001D01*
G01*
X311793257Y-120309568D02*
G75*
G02*
X311593257Y-120509568I-200001J1D01*
G01*
X307993257Y-117709568D02*
G75*
G02*
X308193257Y-117509568I200000J0D01*
G01*
X308193257Y-120509568D02*
G75*
G02*
X307993257Y-120309568I0J200000D01*
G01*
X172151607Y-143957544D02*
X172151607Y-141357544D01*
X171951607Y-141157544D02*
X168551607Y-141157544D01*
X168551607Y-144157544D02*
X171951607Y-144157544D01*
X168351607Y-141357544D02*
X168351607Y-143957544D01*
X171951607Y-141157544D02*
G75*
G02*
X172151607Y-141357544I-1J-200001D01*
G01*
X172151607Y-143957544D02*
G75*
G02*
X171951607Y-144157544I-200001J1D01*
G01*
X168351607Y-141357544D02*
G75*
G02*
X168551607Y-141157544I200000J0D01*
G01*
X168551607Y-144157544D02*
G75*
G02*
X168351607Y-143957544I0J200000D01*
G01*
X76901607Y-136432544D02*
X76901607Y-133832544D01*
X76701607Y-133632544D02*
X73301607Y-133632544D01*
X73301607Y-136632544D02*
X76701607Y-136632544D01*
X73101607Y-133832544D02*
X73101607Y-136432544D01*
X76701607Y-133632544D02*
G75*
G02*
X76901607Y-133832544I-1J-200001D01*
G01*
X76901607Y-136432544D02*
G75*
G02*
X76701607Y-136632544I-200001J1D01*
G01*
X73101607Y-133832544D02*
G75*
G02*
X73301607Y-133632544I200000J0D01*
G01*
X73301607Y-136632544D02*
G75*
G02*
X73101607Y-136432544I0J200000D01*
G01*
X153101607Y-96332544D02*
X153101607Y-93732544D01*
X152901607Y-93532544D02*
X149501607Y-93532544D01*
X149501607Y-96532544D02*
X152901607Y-96532544D01*
X149301607Y-93732544D02*
X149301607Y-96332544D01*
X152901607Y-93532544D02*
G75*
G02*
X153101607Y-93732544I-1J-200001D01*
G01*
X153101607Y-96332544D02*
G75*
G02*
X152901607Y-96532544I-200001J1D01*
G01*
X149301607Y-93732544D02*
G75*
G02*
X149501607Y-93532544I200000J0D01*
G01*
X149501607Y-96532544D02*
G75*
G02*
X149301607Y-96332544I0J200000D01*
G01*
X245118257Y-169459568D02*
X245118257Y-166859568D01*
X244918257Y-166659568D02*
X241518257Y-166659568D01*
X241518257Y-169659568D02*
X244918257Y-169659568D01*
X241318257Y-166859568D02*
X241318257Y-169459568D01*
X244918257Y-166659568D02*
G75*
G02*
X245118257Y-166859568I-1J-200001D01*
G01*
X245118257Y-169459568D02*
G75*
G02*
X244918257Y-169659568I-200001J1D01*
G01*
X241318257Y-166859568D02*
G75*
G02*
X241518257Y-166659568I200000J0D01*
G01*
X241518257Y-169659568D02*
G75*
G02*
X241318257Y-169459568I0J200000D01*
G01*
X292743257Y-117309568D02*
X292743257Y-114709568D01*
X292543257Y-114509568D02*
X289143257Y-114509568D01*
X289143257Y-117509568D02*
X292543257Y-117509568D01*
X288943257Y-114709568D02*
X288943257Y-117309568D01*
X292543257Y-114509568D02*
G75*
G02*
X292743257Y-114709568I-1J-200001D01*
G01*
X292743257Y-117309568D02*
G75*
G02*
X292543257Y-117509568I-200001J1D01*
G01*
X288943257Y-114709568D02*
G75*
G02*
X289143257Y-114509568I200000J0D01*
G01*
X289143257Y-117509568D02*
G75*
G02*
X288943257Y-117309568I0J200000D01*
G01*
X95951607Y-112382544D02*
X95951607Y-109782544D01*
X95751607Y-109582544D02*
X92351607Y-109582544D01*
X92351607Y-112582544D02*
X95751607Y-112582544D01*
X92151607Y-109782544D02*
X92151607Y-112382544D01*
X95751607Y-109582544D02*
G75*
G02*
X95951607Y-109782544I-1J-200001D01*
G01*
X95951607Y-112382544D02*
G75*
G02*
X95751607Y-112582544I-200001J1D01*
G01*
X92151607Y-109782544D02*
G75*
G02*
X92351607Y-109582544I200000J0D01*
G01*
X92351607Y-112582544D02*
G75*
G02*
X92151607Y-112382544I0J200000D01*
G01*
X235593257Y-150409568D02*
X235593257Y-147809568D01*
X235393257Y-147609568D02*
X231993257Y-147609568D01*
X231993257Y-150609568D02*
X235393257Y-150609568D01*
X231793257Y-147809568D02*
X231793257Y-150409568D01*
X235393257Y-147609568D02*
G75*
G02*
X235593257Y-147809568I-1J-200001D01*
G01*
X235593257Y-150409568D02*
G75*
G02*
X235393257Y-150609568I-200001J1D01*
G01*
X231793257Y-147809568D02*
G75*
G02*
X231993257Y-147609568I200000J0D01*
G01*
X231993257Y-150609568D02*
G75*
G02*
X231793257Y-150409568I0J200000D01*
G01*
M02*
