G04 #@! TF.GenerationSoftware,KiCad,Pcbnew,9.0.3*
G04 #@! TF.CreationDate,2025-08-01T16:01:12-04:00*
G04 #@! TF.ProjectId,quartz58,71756172-747a-4353-982e-6b696361645f,rev?*
G04 #@! TF.SameCoordinates,Original*
G04 #@! TF.FileFunction,Legend,Top*
G04 #@! TF.FilePolarity,Positive*
%FSLAX46Y46*%
G04 Gerber Fmt 4.6, Leading zero omitted, Abs format (unit mm)*
G04 Created by KiCad (PCBNEW 9.0.3) date 2025-08-01 16:01:12*
%MOMM*%
%LPD*%
G01*
G04 APERTURE LIST*
%ADD10C,0.150000*%
%ADD11C,0.100000*%
%ADD12C,0.120000*%
%ADD13C,0.152400*%
%ADD14C,0.127000*%
%ADD15C,0.200000*%
%ADD16C,0.381000*%
%ADD17C,1.752600*%
G04 #@! TA.AperFunction,Profile*
%ADD18C,0.150000*%
G04 #@! TD*
G04 #@! TA.AperFunction,Profile*
%ADD19C,0.200000*%
G04 #@! TD*
G04 #@! TA.AperFunction,Profile*
%ADD20C,0.050000*%
G04 #@! TD*
G04 #@! TA.AperFunction,Profile*
%ADD21C,0.100000*%
G04 #@! TD*
G04 #@! TA.AperFunction,Profile*
%ADD22C,0.120000*%
G04 #@! TD*
G04 APERTURE END LIST*
D10*
X194733062Y-112965696D02*
X194733062Y-113632363D01*
X194733062Y-113060934D02*
X194780681Y-113013315D01*
X194780681Y-113013315D02*
X194875919Y-112965696D01*
X194875919Y-112965696D02*
X195018776Y-112965696D01*
X195018776Y-112965696D02*
X195114014Y-113013315D01*
X195114014Y-113013315D02*
X195161633Y-113108553D01*
X195161633Y-113108553D02*
X195161633Y-113632363D01*
X195637824Y-113632363D02*
X195637824Y-112965696D01*
X195637824Y-112632363D02*
X195590205Y-112679982D01*
X195590205Y-112679982D02*
X195637824Y-112727601D01*
X195637824Y-112727601D02*
X195685443Y-112679982D01*
X195685443Y-112679982D02*
X195637824Y-112632363D01*
X195637824Y-112632363D02*
X195637824Y-112727601D01*
X196542585Y-113584744D02*
X196447347Y-113632363D01*
X196447347Y-113632363D02*
X196256871Y-113632363D01*
X196256871Y-113632363D02*
X196161633Y-113584744D01*
X196161633Y-113584744D02*
X196114014Y-113537124D01*
X196114014Y-113537124D02*
X196066395Y-113441886D01*
X196066395Y-113441886D02*
X196066395Y-113156172D01*
X196066395Y-113156172D02*
X196114014Y-113060934D01*
X196114014Y-113060934D02*
X196161633Y-113013315D01*
X196161633Y-113013315D02*
X196256871Y-112965696D01*
X196256871Y-112965696D02*
X196447347Y-112965696D01*
X196447347Y-112965696D02*
X196542585Y-113013315D01*
X197352109Y-113584744D02*
X197256871Y-113632363D01*
X197256871Y-113632363D02*
X197066395Y-113632363D01*
X197066395Y-113632363D02*
X196971157Y-113584744D01*
X196971157Y-113584744D02*
X196923538Y-113489505D01*
X196923538Y-113489505D02*
X196923538Y-113108553D01*
X196923538Y-113108553D02*
X196971157Y-113013315D01*
X196971157Y-113013315D02*
X197066395Y-112965696D01*
X197066395Y-112965696D02*
X197256871Y-112965696D01*
X197256871Y-112965696D02*
X197352109Y-113013315D01*
X197352109Y-113013315D02*
X197399728Y-113108553D01*
X197399728Y-113108553D02*
X197399728Y-113203791D01*
X197399728Y-113203791D02*
X196923538Y-113299029D01*
X197828300Y-113537124D02*
X197875919Y-113584744D01*
X197875919Y-113584744D02*
X197828300Y-113632363D01*
X197828300Y-113632363D02*
X197780681Y-113584744D01*
X197780681Y-113584744D02*
X197828300Y-113537124D01*
X197828300Y-113537124D02*
X197828300Y-113632363D01*
X197828300Y-113251410D02*
X197780681Y-112679982D01*
X197780681Y-112679982D02*
X197828300Y-112632363D01*
X197828300Y-112632363D02*
X197875919Y-112679982D01*
X197875919Y-112679982D02*
X197828300Y-113251410D01*
X197828300Y-113251410D02*
X197828300Y-112632363D01*
X198209252Y-112965696D02*
X198447347Y-113632363D01*
X198447347Y-113632363D02*
X198685442Y-112965696D01*
X199066395Y-113632363D02*
X199066395Y-112965696D01*
X199066395Y-112632363D02*
X199018776Y-112679982D01*
X199018776Y-112679982D02*
X199066395Y-112727601D01*
X199066395Y-112727601D02*
X199114014Y-112679982D01*
X199114014Y-112679982D02*
X199066395Y-112632363D01*
X199066395Y-112632363D02*
X199066395Y-112727601D01*
X199923537Y-113584744D02*
X199828299Y-113632363D01*
X199828299Y-113632363D02*
X199637823Y-113632363D01*
X199637823Y-113632363D02*
X199542585Y-113584744D01*
X199542585Y-113584744D02*
X199494966Y-113489505D01*
X199494966Y-113489505D02*
X199494966Y-113108553D01*
X199494966Y-113108553D02*
X199542585Y-113013315D01*
X199542585Y-113013315D02*
X199637823Y-112965696D01*
X199637823Y-112965696D02*
X199828299Y-112965696D01*
X199828299Y-112965696D02*
X199923537Y-113013315D01*
X199923537Y-113013315D02*
X199971156Y-113108553D01*
X199971156Y-113108553D02*
X199971156Y-113203791D01*
X199971156Y-113203791D02*
X199494966Y-113299029D01*
X200304490Y-112965696D02*
X200494966Y-113632363D01*
X200494966Y-113632363D02*
X200685442Y-113156172D01*
X200685442Y-113156172D02*
X200875918Y-113632363D01*
X200875918Y-113632363D02*
X201066394Y-112965696D01*
X193201928Y-120087179D02*
X192201928Y-120087179D01*
X192201928Y-120087179D02*
X192916213Y-119753846D01*
X192916213Y-119753846D02*
X192201928Y-119420513D01*
X192201928Y-119420513D02*
X193201928Y-119420513D01*
X192201928Y-118753846D02*
X192201928Y-118563370D01*
X192201928Y-118563370D02*
X192249547Y-118468132D01*
X192249547Y-118468132D02*
X192344785Y-118372894D01*
X192344785Y-118372894D02*
X192535261Y-118325275D01*
X192535261Y-118325275D02*
X192868594Y-118325275D01*
X192868594Y-118325275D02*
X193059070Y-118372894D01*
X193059070Y-118372894D02*
X193154309Y-118468132D01*
X193154309Y-118468132D02*
X193201928Y-118563370D01*
X193201928Y-118563370D02*
X193201928Y-118753846D01*
X193201928Y-118753846D02*
X193154309Y-118849084D01*
X193154309Y-118849084D02*
X193059070Y-118944322D01*
X193059070Y-118944322D02*
X192868594Y-118991941D01*
X192868594Y-118991941D02*
X192535261Y-118991941D01*
X192535261Y-118991941D02*
X192344785Y-118944322D01*
X192344785Y-118944322D02*
X192249547Y-118849084D01*
X192249547Y-118849084D02*
X192201928Y-118753846D01*
X193154309Y-117944322D02*
X193201928Y-117801465D01*
X193201928Y-117801465D02*
X193201928Y-117563370D01*
X193201928Y-117563370D02*
X193154309Y-117468132D01*
X193154309Y-117468132D02*
X193106689Y-117420513D01*
X193106689Y-117420513D02*
X193011451Y-117372894D01*
X193011451Y-117372894D02*
X192916213Y-117372894D01*
X192916213Y-117372894D02*
X192820975Y-117420513D01*
X192820975Y-117420513D02*
X192773356Y-117468132D01*
X192773356Y-117468132D02*
X192725737Y-117563370D01*
X192725737Y-117563370D02*
X192678118Y-117753846D01*
X192678118Y-117753846D02*
X192630499Y-117849084D01*
X192630499Y-117849084D02*
X192582880Y-117896703D01*
X192582880Y-117896703D02*
X192487642Y-117944322D01*
X192487642Y-117944322D02*
X192392404Y-117944322D01*
X192392404Y-117944322D02*
X192297166Y-117896703D01*
X192297166Y-117896703D02*
X192249547Y-117849084D01*
X192249547Y-117849084D02*
X192201928Y-117753846D01*
X192201928Y-117753846D02*
X192201928Y-117515751D01*
X192201928Y-117515751D02*
X192249547Y-117372894D01*
X193201928Y-116944322D02*
X192201928Y-116944322D01*
X203266689Y-117849085D02*
X203314309Y-117896704D01*
X203314309Y-117896704D02*
X203361928Y-118039561D01*
X203361928Y-118039561D02*
X203361928Y-118134799D01*
X203361928Y-118134799D02*
X203314309Y-118277656D01*
X203314309Y-118277656D02*
X203219070Y-118372894D01*
X203219070Y-118372894D02*
X203123832Y-118420513D01*
X203123832Y-118420513D02*
X202933356Y-118468132D01*
X202933356Y-118468132D02*
X202790499Y-118468132D01*
X202790499Y-118468132D02*
X202600023Y-118420513D01*
X202600023Y-118420513D02*
X202504785Y-118372894D01*
X202504785Y-118372894D02*
X202409547Y-118277656D01*
X202409547Y-118277656D02*
X202361928Y-118134799D01*
X202361928Y-118134799D02*
X202361928Y-118039561D01*
X202361928Y-118039561D02*
X202409547Y-117896704D01*
X202409547Y-117896704D02*
X202457166Y-117849085D01*
X203314309Y-117468132D02*
X203361928Y-117325275D01*
X203361928Y-117325275D02*
X203361928Y-117087180D01*
X203361928Y-117087180D02*
X203314309Y-116991942D01*
X203314309Y-116991942D02*
X203266689Y-116944323D01*
X203266689Y-116944323D02*
X203171451Y-116896704D01*
X203171451Y-116896704D02*
X203076213Y-116896704D01*
X203076213Y-116896704D02*
X202980975Y-116944323D01*
X202980975Y-116944323D02*
X202933356Y-116991942D01*
X202933356Y-116991942D02*
X202885737Y-117087180D01*
X202885737Y-117087180D02*
X202838118Y-117277656D01*
X202838118Y-117277656D02*
X202790499Y-117372894D01*
X202790499Y-117372894D02*
X202742880Y-117420513D01*
X202742880Y-117420513D02*
X202647642Y-117468132D01*
X202647642Y-117468132D02*
X202552404Y-117468132D01*
X202552404Y-117468132D02*
X202457166Y-117420513D01*
X202457166Y-117420513D02*
X202409547Y-117372894D01*
X202409547Y-117372894D02*
X202361928Y-117277656D01*
X202361928Y-117277656D02*
X202361928Y-117039561D01*
X202361928Y-117039561D02*
X202409547Y-116896704D01*
X199869547Y-118991942D02*
X199821928Y-119087180D01*
X199821928Y-119087180D02*
X199821928Y-119230037D01*
X199821928Y-119230037D02*
X199869547Y-119372894D01*
X199869547Y-119372894D02*
X199964785Y-119468132D01*
X199964785Y-119468132D02*
X200060023Y-119515751D01*
X200060023Y-119515751D02*
X200250499Y-119563370D01*
X200250499Y-119563370D02*
X200393356Y-119563370D01*
X200393356Y-119563370D02*
X200583832Y-119515751D01*
X200583832Y-119515751D02*
X200679070Y-119468132D01*
X200679070Y-119468132D02*
X200774309Y-119372894D01*
X200774309Y-119372894D02*
X200821928Y-119230037D01*
X200821928Y-119230037D02*
X200821928Y-119134799D01*
X200821928Y-119134799D02*
X200774309Y-118991942D01*
X200774309Y-118991942D02*
X200726689Y-118944323D01*
X200726689Y-118944323D02*
X200393356Y-118944323D01*
X200393356Y-118944323D02*
X200393356Y-119134799D01*
X200821928Y-118515751D02*
X199821928Y-118515751D01*
X199821928Y-118515751D02*
X200821928Y-117944323D01*
X200821928Y-117944323D02*
X199821928Y-117944323D01*
X200821928Y-117468132D02*
X199821928Y-117468132D01*
X199821928Y-117468132D02*
X199821928Y-117230037D01*
X199821928Y-117230037D02*
X199869547Y-117087180D01*
X199869547Y-117087180D02*
X199964785Y-116991942D01*
X199964785Y-116991942D02*
X200060023Y-116944323D01*
X200060023Y-116944323D02*
X200250499Y-116896704D01*
X200250499Y-116896704D02*
X200393356Y-116896704D01*
X200393356Y-116896704D02*
X200583832Y-116944323D01*
X200583832Y-116944323D02*
X200679070Y-116991942D01*
X200679070Y-116991942D02*
X200774309Y-117087180D01*
X200774309Y-117087180D02*
X200821928Y-117230037D01*
X200821928Y-117230037D02*
X200821928Y-117468132D01*
X195694309Y-119468132D02*
X195741928Y-119325275D01*
X195741928Y-119325275D02*
X195741928Y-119087180D01*
X195741928Y-119087180D02*
X195694309Y-118991942D01*
X195694309Y-118991942D02*
X195646689Y-118944323D01*
X195646689Y-118944323D02*
X195551451Y-118896704D01*
X195551451Y-118896704D02*
X195456213Y-118896704D01*
X195456213Y-118896704D02*
X195360975Y-118944323D01*
X195360975Y-118944323D02*
X195313356Y-118991942D01*
X195313356Y-118991942D02*
X195265737Y-119087180D01*
X195265737Y-119087180D02*
X195218118Y-119277656D01*
X195218118Y-119277656D02*
X195170499Y-119372894D01*
X195170499Y-119372894D02*
X195122880Y-119420513D01*
X195122880Y-119420513D02*
X195027642Y-119468132D01*
X195027642Y-119468132D02*
X194932404Y-119468132D01*
X194932404Y-119468132D02*
X194837166Y-119420513D01*
X194837166Y-119420513D02*
X194789547Y-119372894D01*
X194789547Y-119372894D02*
X194741928Y-119277656D01*
X194741928Y-119277656D02*
X194741928Y-119039561D01*
X194741928Y-119039561D02*
X194789547Y-118896704D01*
X195646689Y-117896704D02*
X195694309Y-117944323D01*
X195694309Y-117944323D02*
X195741928Y-118087180D01*
X195741928Y-118087180D02*
X195741928Y-118182418D01*
X195741928Y-118182418D02*
X195694309Y-118325275D01*
X195694309Y-118325275D02*
X195599070Y-118420513D01*
X195599070Y-118420513D02*
X195503832Y-118468132D01*
X195503832Y-118468132D02*
X195313356Y-118515751D01*
X195313356Y-118515751D02*
X195170499Y-118515751D01*
X195170499Y-118515751D02*
X194980023Y-118468132D01*
X194980023Y-118468132D02*
X194884785Y-118420513D01*
X194884785Y-118420513D02*
X194789547Y-118325275D01*
X194789547Y-118325275D02*
X194741928Y-118182418D01*
X194741928Y-118182418D02*
X194741928Y-118087180D01*
X194741928Y-118087180D02*
X194789547Y-117944323D01*
X194789547Y-117944323D02*
X194837166Y-117896704D01*
X195741928Y-117468132D02*
X194741928Y-117468132D01*
X195741928Y-116896704D02*
X195170499Y-117325275D01*
X194741928Y-116896704D02*
X195313356Y-117468132D01*
X197281928Y-119468132D02*
X198281928Y-119134799D01*
X198281928Y-119134799D02*
X197281928Y-118801466D01*
X198186689Y-117896704D02*
X198234309Y-117944323D01*
X198234309Y-117944323D02*
X198281928Y-118087180D01*
X198281928Y-118087180D02*
X198281928Y-118182418D01*
X198281928Y-118182418D02*
X198234309Y-118325275D01*
X198234309Y-118325275D02*
X198139070Y-118420513D01*
X198139070Y-118420513D02*
X198043832Y-118468132D01*
X198043832Y-118468132D02*
X197853356Y-118515751D01*
X197853356Y-118515751D02*
X197710499Y-118515751D01*
X197710499Y-118515751D02*
X197520023Y-118468132D01*
X197520023Y-118468132D02*
X197424785Y-118420513D01*
X197424785Y-118420513D02*
X197329547Y-118325275D01*
X197329547Y-118325275D02*
X197281928Y-118182418D01*
X197281928Y-118182418D02*
X197281928Y-118087180D01*
X197281928Y-118087180D02*
X197329547Y-117944323D01*
X197329547Y-117944323D02*
X197377166Y-117896704D01*
X198186689Y-116896704D02*
X198234309Y-116944323D01*
X198234309Y-116944323D02*
X198281928Y-117087180D01*
X198281928Y-117087180D02*
X198281928Y-117182418D01*
X198281928Y-117182418D02*
X198234309Y-117325275D01*
X198234309Y-117325275D02*
X198139070Y-117420513D01*
X198139070Y-117420513D02*
X198043832Y-117468132D01*
X198043832Y-117468132D02*
X197853356Y-117515751D01*
X197853356Y-117515751D02*
X197710499Y-117515751D01*
X197710499Y-117515751D02*
X197520023Y-117468132D01*
X197520023Y-117468132D02*
X197424785Y-117420513D01*
X197424785Y-117420513D02*
X197329547Y-117325275D01*
X197329547Y-117325275D02*
X197281928Y-117182418D01*
X197281928Y-117182418D02*
X197281928Y-117087180D01*
X197281928Y-117087180D02*
X197329547Y-116944323D01*
X197329547Y-116944323D02*
X197377166Y-116896704D01*
X187969909Y-115994211D02*
X187922289Y-116137068D01*
X187922289Y-116137068D02*
X187922289Y-116375163D01*
X187922289Y-116375163D02*
X187969909Y-116470401D01*
X187969909Y-116470401D02*
X188017528Y-116518020D01*
X188017528Y-116518020D02*
X188112766Y-116565639D01*
X188112766Y-116565639D02*
X188208004Y-116565639D01*
X188208004Y-116565639D02*
X188303242Y-116518020D01*
X188303242Y-116518020D02*
X188350861Y-116470401D01*
X188350861Y-116470401D02*
X188398480Y-116375163D01*
X188398480Y-116375163D02*
X188446099Y-116184687D01*
X188446099Y-116184687D02*
X188493718Y-116089449D01*
X188493718Y-116089449D02*
X188541337Y-116041830D01*
X188541337Y-116041830D02*
X188636575Y-115994211D01*
X188636575Y-115994211D02*
X188731813Y-115994211D01*
X188731813Y-115994211D02*
X188827051Y-116041830D01*
X188827051Y-116041830D02*
X188874670Y-116089449D01*
X188874670Y-116089449D02*
X188922289Y-116184687D01*
X188922289Y-116184687D02*
X188922289Y-116422782D01*
X188922289Y-116422782D02*
X188874670Y-116565639D01*
X188922289Y-116898973D02*
X187922289Y-117137068D01*
X187922289Y-117137068D02*
X188636575Y-117327544D01*
X188636575Y-117327544D02*
X187922289Y-117518020D01*
X187922289Y-117518020D02*
X188922289Y-117756116D01*
X188588956Y-118565639D02*
X187922289Y-118565639D01*
X188969909Y-118327544D02*
X188255623Y-118089449D01*
X188255623Y-118089449D02*
X188255623Y-118708496D01*
X191762918Y-86997934D02*
X191686728Y-86959839D01*
X191686728Y-86959839D02*
X191572442Y-86959839D01*
X191572442Y-86959839D02*
X191458156Y-86997934D01*
X191458156Y-86997934D02*
X191381966Y-87074124D01*
X191381966Y-87074124D02*
X191343871Y-87150315D01*
X191343871Y-87150315D02*
X191305775Y-87302696D01*
X191305775Y-87302696D02*
X191305775Y-87416982D01*
X191305775Y-87416982D02*
X191343871Y-87569363D01*
X191343871Y-87569363D02*
X191381966Y-87645553D01*
X191381966Y-87645553D02*
X191458156Y-87721744D01*
X191458156Y-87721744D02*
X191572442Y-87759839D01*
X191572442Y-87759839D02*
X191648633Y-87759839D01*
X191648633Y-87759839D02*
X191762918Y-87721744D01*
X191762918Y-87721744D02*
X191801014Y-87683648D01*
X191801014Y-87683648D02*
X191801014Y-87416982D01*
X191801014Y-87416982D02*
X191648633Y-87416982D01*
X192143871Y-87759839D02*
X192143871Y-86959839D01*
X192143871Y-86959839D02*
X192601014Y-87759839D01*
X192601014Y-87759839D02*
X192601014Y-86959839D01*
X192981966Y-87759839D02*
X192981966Y-86959839D01*
X192981966Y-86959839D02*
X193172442Y-86959839D01*
X193172442Y-86959839D02*
X193286728Y-86997934D01*
X193286728Y-86997934D02*
X193362918Y-87074124D01*
X193362918Y-87074124D02*
X193401013Y-87150315D01*
X193401013Y-87150315D02*
X193439109Y-87302696D01*
X193439109Y-87302696D02*
X193439109Y-87416982D01*
X193439109Y-87416982D02*
X193401013Y-87569363D01*
X193401013Y-87569363D02*
X193362918Y-87645553D01*
X193362918Y-87645553D02*
X193286728Y-87721744D01*
X193286728Y-87721744D02*
X193172442Y-87759839D01*
X193172442Y-87759839D02*
X192981966Y-87759839D01*
X191489918Y-109819839D02*
X191566108Y-109819839D01*
X191566108Y-109819839D02*
X191642299Y-109857934D01*
X191642299Y-109857934D02*
X191680394Y-109896029D01*
X191680394Y-109896029D02*
X191718489Y-109972220D01*
X191718489Y-109972220D02*
X191756584Y-110124601D01*
X191756584Y-110124601D02*
X191756584Y-110315077D01*
X191756584Y-110315077D02*
X191718489Y-110467458D01*
X191718489Y-110467458D02*
X191680394Y-110543648D01*
X191680394Y-110543648D02*
X191642299Y-110581744D01*
X191642299Y-110581744D02*
X191566108Y-110619839D01*
X191566108Y-110619839D02*
X191489918Y-110619839D01*
X191489918Y-110619839D02*
X191413727Y-110581744D01*
X191413727Y-110581744D02*
X191375632Y-110543648D01*
X191375632Y-110543648D02*
X191337537Y-110467458D01*
X191337537Y-110467458D02*
X191299441Y-110315077D01*
X191299441Y-110315077D02*
X191299441Y-110124601D01*
X191299441Y-110124601D02*
X191337537Y-109972220D01*
X191337537Y-109972220D02*
X191375632Y-109896029D01*
X191375632Y-109896029D02*
X191413727Y-109857934D01*
X191413727Y-109857934D02*
X191489918Y-109819839D01*
X192518489Y-110619839D02*
X192061346Y-110619839D01*
X192289918Y-110619839D02*
X192289918Y-109819839D01*
X192289918Y-109819839D02*
X192213727Y-109934124D01*
X192213727Y-109934124D02*
X192137537Y-110010315D01*
X192137537Y-110010315D02*
X192061346Y-110048410D01*
X193013728Y-109819839D02*
X193089918Y-109819839D01*
X193089918Y-109819839D02*
X193166109Y-109857934D01*
X193166109Y-109857934D02*
X193204204Y-109896029D01*
X193204204Y-109896029D02*
X193242299Y-109972220D01*
X193242299Y-109972220D02*
X193280394Y-110124601D01*
X193280394Y-110124601D02*
X193280394Y-110315077D01*
X193280394Y-110315077D02*
X193242299Y-110467458D01*
X193242299Y-110467458D02*
X193204204Y-110543648D01*
X193204204Y-110543648D02*
X193166109Y-110581744D01*
X193166109Y-110581744D02*
X193089918Y-110619839D01*
X193089918Y-110619839D02*
X193013728Y-110619839D01*
X193013728Y-110619839D02*
X192937537Y-110581744D01*
X192937537Y-110581744D02*
X192899442Y-110543648D01*
X192899442Y-110543648D02*
X192861347Y-110467458D01*
X192861347Y-110467458D02*
X192823251Y-110315077D01*
X192823251Y-110315077D02*
X192823251Y-110124601D01*
X192823251Y-110124601D02*
X192861347Y-109972220D01*
X192861347Y-109972220D02*
X192899442Y-109896029D01*
X192899442Y-109896029D02*
X192937537Y-109857934D01*
X192937537Y-109857934D02*
X193013728Y-109819839D01*
X191756584Y-108079839D02*
X191299441Y-108079839D01*
X191528013Y-108079839D02*
X191528013Y-107279839D01*
X191528013Y-107279839D02*
X191451822Y-107394124D01*
X191451822Y-107394124D02*
X191375632Y-107470315D01*
X191375632Y-107470315D02*
X191299441Y-107508410D01*
X192518489Y-108079839D02*
X192061346Y-108079839D01*
X192289918Y-108079839D02*
X192289918Y-107279839D01*
X192289918Y-107279839D02*
X192213727Y-107394124D01*
X192213727Y-107394124D02*
X192137537Y-107470315D01*
X192137537Y-107470315D02*
X192061346Y-107508410D01*
X193280394Y-108079839D02*
X192823251Y-108079839D01*
X193051823Y-108079839D02*
X193051823Y-107279839D01*
X193051823Y-107279839D02*
X192975632Y-107394124D01*
X192975632Y-107394124D02*
X192899442Y-107470315D01*
X192899442Y-107470315D02*
X192823251Y-107508410D01*
X202564299Y-84419839D02*
X202640489Y-84419839D01*
X202640489Y-84419839D02*
X202716680Y-84457934D01*
X202716680Y-84457934D02*
X202754775Y-84496029D01*
X202754775Y-84496029D02*
X202792870Y-84572220D01*
X202792870Y-84572220D02*
X202830965Y-84724601D01*
X202830965Y-84724601D02*
X202830965Y-84915077D01*
X202830965Y-84915077D02*
X202792870Y-85067458D01*
X202792870Y-85067458D02*
X202754775Y-85143648D01*
X202754775Y-85143648D02*
X202716680Y-85181744D01*
X202716680Y-85181744D02*
X202640489Y-85219839D01*
X202640489Y-85219839D02*
X202564299Y-85219839D01*
X202564299Y-85219839D02*
X202488108Y-85181744D01*
X202488108Y-85181744D02*
X202450013Y-85143648D01*
X202450013Y-85143648D02*
X202411918Y-85067458D01*
X202411918Y-85067458D02*
X202373822Y-84915077D01*
X202373822Y-84915077D02*
X202373822Y-84724601D01*
X202373822Y-84724601D02*
X202411918Y-84572220D01*
X202411918Y-84572220D02*
X202450013Y-84496029D01*
X202450013Y-84496029D02*
X202488108Y-84457934D01*
X202488108Y-84457934D02*
X202564299Y-84419839D01*
X203326204Y-84419839D02*
X203402394Y-84419839D01*
X203402394Y-84419839D02*
X203478585Y-84457934D01*
X203478585Y-84457934D02*
X203516680Y-84496029D01*
X203516680Y-84496029D02*
X203554775Y-84572220D01*
X203554775Y-84572220D02*
X203592870Y-84724601D01*
X203592870Y-84724601D02*
X203592870Y-84915077D01*
X203592870Y-84915077D02*
X203554775Y-85067458D01*
X203554775Y-85067458D02*
X203516680Y-85143648D01*
X203516680Y-85143648D02*
X203478585Y-85181744D01*
X203478585Y-85181744D02*
X203402394Y-85219839D01*
X203402394Y-85219839D02*
X203326204Y-85219839D01*
X203326204Y-85219839D02*
X203250013Y-85181744D01*
X203250013Y-85181744D02*
X203211918Y-85143648D01*
X203211918Y-85143648D02*
X203173823Y-85067458D01*
X203173823Y-85067458D02*
X203135727Y-84915077D01*
X203135727Y-84915077D02*
X203135727Y-84724601D01*
X203135727Y-84724601D02*
X203173823Y-84572220D01*
X203173823Y-84572220D02*
X203211918Y-84496029D01*
X203211918Y-84496029D02*
X203250013Y-84457934D01*
X203250013Y-84457934D02*
X203326204Y-84419839D01*
X204278585Y-84419839D02*
X204126204Y-84419839D01*
X204126204Y-84419839D02*
X204050013Y-84457934D01*
X204050013Y-84457934D02*
X204011918Y-84496029D01*
X204011918Y-84496029D02*
X203935728Y-84610315D01*
X203935728Y-84610315D02*
X203897632Y-84762696D01*
X203897632Y-84762696D02*
X203897632Y-85067458D01*
X203897632Y-85067458D02*
X203935728Y-85143648D01*
X203935728Y-85143648D02*
X203973823Y-85181744D01*
X203973823Y-85181744D02*
X204050013Y-85219839D01*
X204050013Y-85219839D02*
X204202394Y-85219839D01*
X204202394Y-85219839D02*
X204278585Y-85181744D01*
X204278585Y-85181744D02*
X204316680Y-85143648D01*
X204316680Y-85143648D02*
X204354775Y-85067458D01*
X204354775Y-85067458D02*
X204354775Y-84876982D01*
X204354775Y-84876982D02*
X204316680Y-84800791D01*
X204316680Y-84800791D02*
X204278585Y-84762696D01*
X204278585Y-84762696D02*
X204202394Y-84724601D01*
X204202394Y-84724601D02*
X204050013Y-84724601D01*
X204050013Y-84724601D02*
X203973823Y-84762696D01*
X203973823Y-84762696D02*
X203935728Y-84800791D01*
X203935728Y-84800791D02*
X203897632Y-84876982D01*
X202564299Y-97189839D02*
X202640489Y-97189839D01*
X202640489Y-97189839D02*
X202716680Y-97227934D01*
X202716680Y-97227934D02*
X202754775Y-97266029D01*
X202754775Y-97266029D02*
X202792870Y-97342220D01*
X202792870Y-97342220D02*
X202830965Y-97494601D01*
X202830965Y-97494601D02*
X202830965Y-97685077D01*
X202830965Y-97685077D02*
X202792870Y-97837458D01*
X202792870Y-97837458D02*
X202754775Y-97913648D01*
X202754775Y-97913648D02*
X202716680Y-97951744D01*
X202716680Y-97951744D02*
X202640489Y-97989839D01*
X202640489Y-97989839D02*
X202564299Y-97989839D01*
X202564299Y-97989839D02*
X202488108Y-97951744D01*
X202488108Y-97951744D02*
X202450013Y-97913648D01*
X202450013Y-97913648D02*
X202411918Y-97837458D01*
X202411918Y-97837458D02*
X202373822Y-97685077D01*
X202373822Y-97685077D02*
X202373822Y-97494601D01*
X202373822Y-97494601D02*
X202411918Y-97342220D01*
X202411918Y-97342220D02*
X202450013Y-97266029D01*
X202450013Y-97266029D02*
X202488108Y-97227934D01*
X202488108Y-97227934D02*
X202564299Y-97189839D01*
X203135727Y-97266029D02*
X203173823Y-97227934D01*
X203173823Y-97227934D02*
X203250013Y-97189839D01*
X203250013Y-97189839D02*
X203440489Y-97189839D01*
X203440489Y-97189839D02*
X203516680Y-97227934D01*
X203516680Y-97227934D02*
X203554775Y-97266029D01*
X203554775Y-97266029D02*
X203592870Y-97342220D01*
X203592870Y-97342220D02*
X203592870Y-97418410D01*
X203592870Y-97418410D02*
X203554775Y-97532696D01*
X203554775Y-97532696D02*
X203097632Y-97989839D01*
X203097632Y-97989839D02*
X203592870Y-97989839D01*
X204088109Y-97189839D02*
X204164299Y-97189839D01*
X204164299Y-97189839D02*
X204240490Y-97227934D01*
X204240490Y-97227934D02*
X204278585Y-97266029D01*
X204278585Y-97266029D02*
X204316680Y-97342220D01*
X204316680Y-97342220D02*
X204354775Y-97494601D01*
X204354775Y-97494601D02*
X204354775Y-97685077D01*
X204354775Y-97685077D02*
X204316680Y-97837458D01*
X204316680Y-97837458D02*
X204278585Y-97913648D01*
X204278585Y-97913648D02*
X204240490Y-97951744D01*
X204240490Y-97951744D02*
X204164299Y-97989839D01*
X204164299Y-97989839D02*
X204088109Y-97989839D01*
X204088109Y-97989839D02*
X204011918Y-97951744D01*
X204011918Y-97951744D02*
X203973823Y-97913648D01*
X203973823Y-97913648D02*
X203935728Y-97837458D01*
X203935728Y-97837458D02*
X203897632Y-97685077D01*
X203897632Y-97685077D02*
X203897632Y-97494601D01*
X203897632Y-97494601D02*
X203935728Y-97342220D01*
X203935728Y-97342220D02*
X203973823Y-97266029D01*
X203973823Y-97266029D02*
X204011918Y-97227934D01*
X204011918Y-97227934D02*
X204088109Y-97189839D01*
X191756584Y-102999839D02*
X191299441Y-102999839D01*
X191528013Y-102999839D02*
X191528013Y-102199839D01*
X191528013Y-102199839D02*
X191451822Y-102314124D01*
X191451822Y-102314124D02*
X191375632Y-102390315D01*
X191375632Y-102390315D02*
X191299441Y-102428410D01*
X192518489Y-102999839D02*
X192061346Y-102999839D01*
X192289918Y-102999839D02*
X192289918Y-102199839D01*
X192289918Y-102199839D02*
X192213727Y-102314124D01*
X192213727Y-102314124D02*
X192137537Y-102390315D01*
X192137537Y-102390315D02*
X192061346Y-102428410D01*
X193242299Y-102199839D02*
X192861347Y-102199839D01*
X192861347Y-102199839D02*
X192823251Y-102580791D01*
X192823251Y-102580791D02*
X192861347Y-102542696D01*
X192861347Y-102542696D02*
X192937537Y-102504601D01*
X192937537Y-102504601D02*
X193128013Y-102504601D01*
X193128013Y-102504601D02*
X193204204Y-102542696D01*
X193204204Y-102542696D02*
X193242299Y-102580791D01*
X193242299Y-102580791D02*
X193280394Y-102656982D01*
X193280394Y-102656982D02*
X193280394Y-102847458D01*
X193280394Y-102847458D02*
X193242299Y-102923648D01*
X193242299Y-102923648D02*
X193204204Y-102961744D01*
X193204204Y-102961744D02*
X193128013Y-102999839D01*
X193128013Y-102999839D02*
X192937537Y-102999839D01*
X192937537Y-102999839D02*
X192861347Y-102961744D01*
X192861347Y-102961744D02*
X192823251Y-102923648D01*
X191489918Y-99659839D02*
X191566108Y-99659839D01*
X191566108Y-99659839D02*
X191642299Y-99697934D01*
X191642299Y-99697934D02*
X191680394Y-99736029D01*
X191680394Y-99736029D02*
X191718489Y-99812220D01*
X191718489Y-99812220D02*
X191756584Y-99964601D01*
X191756584Y-99964601D02*
X191756584Y-100155077D01*
X191756584Y-100155077D02*
X191718489Y-100307458D01*
X191718489Y-100307458D02*
X191680394Y-100383648D01*
X191680394Y-100383648D02*
X191642299Y-100421744D01*
X191642299Y-100421744D02*
X191566108Y-100459839D01*
X191566108Y-100459839D02*
X191489918Y-100459839D01*
X191489918Y-100459839D02*
X191413727Y-100421744D01*
X191413727Y-100421744D02*
X191375632Y-100383648D01*
X191375632Y-100383648D02*
X191337537Y-100307458D01*
X191337537Y-100307458D02*
X191299441Y-100155077D01*
X191299441Y-100155077D02*
X191299441Y-99964601D01*
X191299441Y-99964601D02*
X191337537Y-99812220D01*
X191337537Y-99812220D02*
X191375632Y-99736029D01*
X191375632Y-99736029D02*
X191413727Y-99697934D01*
X191413727Y-99697934D02*
X191489918Y-99659839D01*
X192251823Y-99659839D02*
X192328013Y-99659839D01*
X192328013Y-99659839D02*
X192404204Y-99697934D01*
X192404204Y-99697934D02*
X192442299Y-99736029D01*
X192442299Y-99736029D02*
X192480394Y-99812220D01*
X192480394Y-99812220D02*
X192518489Y-99964601D01*
X192518489Y-99964601D02*
X192518489Y-100155077D01*
X192518489Y-100155077D02*
X192480394Y-100307458D01*
X192480394Y-100307458D02*
X192442299Y-100383648D01*
X192442299Y-100383648D02*
X192404204Y-100421744D01*
X192404204Y-100421744D02*
X192328013Y-100459839D01*
X192328013Y-100459839D02*
X192251823Y-100459839D01*
X192251823Y-100459839D02*
X192175632Y-100421744D01*
X192175632Y-100421744D02*
X192137537Y-100383648D01*
X192137537Y-100383648D02*
X192099442Y-100307458D01*
X192099442Y-100307458D02*
X192061346Y-100155077D01*
X192061346Y-100155077D02*
X192061346Y-99964601D01*
X192061346Y-99964601D02*
X192099442Y-99812220D01*
X192099442Y-99812220D02*
X192137537Y-99736029D01*
X192137537Y-99736029D02*
X192175632Y-99697934D01*
X192175632Y-99697934D02*
X192251823Y-99659839D01*
X192823251Y-99736029D02*
X192861347Y-99697934D01*
X192861347Y-99697934D02*
X192937537Y-99659839D01*
X192937537Y-99659839D02*
X193128013Y-99659839D01*
X193128013Y-99659839D02*
X193204204Y-99697934D01*
X193204204Y-99697934D02*
X193242299Y-99736029D01*
X193242299Y-99736029D02*
X193280394Y-99812220D01*
X193280394Y-99812220D02*
X193280394Y-99888410D01*
X193280394Y-99888410D02*
X193242299Y-100002696D01*
X193242299Y-100002696D02*
X192785156Y-100459839D01*
X192785156Y-100459839D02*
X193280394Y-100459839D01*
X191801014Y-90299839D02*
X191534347Y-89918886D01*
X191343871Y-90299839D02*
X191343871Y-89499839D01*
X191343871Y-89499839D02*
X191648633Y-89499839D01*
X191648633Y-89499839D02*
X191724823Y-89537934D01*
X191724823Y-89537934D02*
X191762918Y-89576029D01*
X191762918Y-89576029D02*
X191801014Y-89652220D01*
X191801014Y-89652220D02*
X191801014Y-89766505D01*
X191801014Y-89766505D02*
X191762918Y-89842696D01*
X191762918Y-89842696D02*
X191724823Y-89880791D01*
X191724823Y-89880791D02*
X191648633Y-89918886D01*
X191648633Y-89918886D02*
X191343871Y-89918886D01*
X192105775Y-90261744D02*
X192220061Y-90299839D01*
X192220061Y-90299839D02*
X192410537Y-90299839D01*
X192410537Y-90299839D02*
X192486728Y-90261744D01*
X192486728Y-90261744D02*
X192524823Y-90223648D01*
X192524823Y-90223648D02*
X192562918Y-90147458D01*
X192562918Y-90147458D02*
X192562918Y-90071267D01*
X192562918Y-90071267D02*
X192524823Y-89995077D01*
X192524823Y-89995077D02*
X192486728Y-89956982D01*
X192486728Y-89956982D02*
X192410537Y-89918886D01*
X192410537Y-89918886D02*
X192258156Y-89880791D01*
X192258156Y-89880791D02*
X192181966Y-89842696D01*
X192181966Y-89842696D02*
X192143871Y-89804601D01*
X192143871Y-89804601D02*
X192105775Y-89728410D01*
X192105775Y-89728410D02*
X192105775Y-89652220D01*
X192105775Y-89652220D02*
X192143871Y-89576029D01*
X192143871Y-89576029D02*
X192181966Y-89537934D01*
X192181966Y-89537934D02*
X192258156Y-89499839D01*
X192258156Y-89499839D02*
X192448633Y-89499839D01*
X192448633Y-89499839D02*
X192562918Y-89537934D01*
X192791490Y-89499839D02*
X193248633Y-89499839D01*
X193020061Y-90299839D02*
X193020061Y-89499839D01*
X202830965Y-110619839D02*
X202373822Y-110619839D01*
X202602394Y-110619839D02*
X202602394Y-109819839D01*
X202602394Y-109819839D02*
X202526203Y-109934124D01*
X202526203Y-109934124D02*
X202450013Y-110010315D01*
X202450013Y-110010315D02*
X202373822Y-110048410D01*
X203326204Y-109819839D02*
X203402394Y-109819839D01*
X203402394Y-109819839D02*
X203478585Y-109857934D01*
X203478585Y-109857934D02*
X203516680Y-109896029D01*
X203516680Y-109896029D02*
X203554775Y-109972220D01*
X203554775Y-109972220D02*
X203592870Y-110124601D01*
X203592870Y-110124601D02*
X203592870Y-110315077D01*
X203592870Y-110315077D02*
X203554775Y-110467458D01*
X203554775Y-110467458D02*
X203516680Y-110543648D01*
X203516680Y-110543648D02*
X203478585Y-110581744D01*
X203478585Y-110581744D02*
X203402394Y-110619839D01*
X203402394Y-110619839D02*
X203326204Y-110619839D01*
X203326204Y-110619839D02*
X203250013Y-110581744D01*
X203250013Y-110581744D02*
X203211918Y-110543648D01*
X203211918Y-110543648D02*
X203173823Y-110467458D01*
X203173823Y-110467458D02*
X203135727Y-110315077D01*
X203135727Y-110315077D02*
X203135727Y-110124601D01*
X203135727Y-110124601D02*
X203173823Y-109972220D01*
X203173823Y-109972220D02*
X203211918Y-109896029D01*
X203211918Y-109896029D02*
X203250013Y-109857934D01*
X203250013Y-109857934D02*
X203326204Y-109819839D01*
X204278585Y-110086505D02*
X204278585Y-110619839D01*
X204088109Y-109781744D02*
X203897632Y-110353172D01*
X203897632Y-110353172D02*
X204392871Y-110353172D01*
X191489918Y-94579839D02*
X191566108Y-94579839D01*
X191566108Y-94579839D02*
X191642299Y-94617934D01*
X191642299Y-94617934D02*
X191680394Y-94656029D01*
X191680394Y-94656029D02*
X191718489Y-94732220D01*
X191718489Y-94732220D02*
X191756584Y-94884601D01*
X191756584Y-94884601D02*
X191756584Y-95075077D01*
X191756584Y-95075077D02*
X191718489Y-95227458D01*
X191718489Y-95227458D02*
X191680394Y-95303648D01*
X191680394Y-95303648D02*
X191642299Y-95341744D01*
X191642299Y-95341744D02*
X191566108Y-95379839D01*
X191566108Y-95379839D02*
X191489918Y-95379839D01*
X191489918Y-95379839D02*
X191413727Y-95341744D01*
X191413727Y-95341744D02*
X191375632Y-95303648D01*
X191375632Y-95303648D02*
X191337537Y-95227458D01*
X191337537Y-95227458D02*
X191299441Y-95075077D01*
X191299441Y-95075077D02*
X191299441Y-94884601D01*
X191299441Y-94884601D02*
X191337537Y-94732220D01*
X191337537Y-94732220D02*
X191375632Y-94656029D01*
X191375632Y-94656029D02*
X191413727Y-94617934D01*
X191413727Y-94617934D02*
X191489918Y-94579839D01*
X192023251Y-94579839D02*
X192518489Y-94579839D01*
X192518489Y-94579839D02*
X192251823Y-94884601D01*
X192251823Y-94884601D02*
X192366108Y-94884601D01*
X192366108Y-94884601D02*
X192442299Y-94922696D01*
X192442299Y-94922696D02*
X192480394Y-94960791D01*
X192480394Y-94960791D02*
X192518489Y-95036982D01*
X192518489Y-95036982D02*
X192518489Y-95227458D01*
X192518489Y-95227458D02*
X192480394Y-95303648D01*
X192480394Y-95303648D02*
X192442299Y-95341744D01*
X192442299Y-95341744D02*
X192366108Y-95379839D01*
X192366108Y-95379839D02*
X192137537Y-95379839D01*
X192137537Y-95379839D02*
X192061346Y-95341744D01*
X192061346Y-95341744D02*
X192023251Y-95303648D01*
X193280394Y-95379839D02*
X192823251Y-95379839D01*
X193051823Y-95379839D02*
X193051823Y-94579839D01*
X193051823Y-94579839D02*
X192975632Y-94694124D01*
X192975632Y-94694124D02*
X192899442Y-94770315D01*
X192899442Y-94770315D02*
X192823251Y-94808410D01*
X202678585Y-89537934D02*
X202602395Y-89499839D01*
X202602395Y-89499839D02*
X202488109Y-89499839D01*
X202488109Y-89499839D02*
X202373823Y-89537934D01*
X202373823Y-89537934D02*
X202297633Y-89614124D01*
X202297633Y-89614124D02*
X202259538Y-89690315D01*
X202259538Y-89690315D02*
X202221442Y-89842696D01*
X202221442Y-89842696D02*
X202221442Y-89956982D01*
X202221442Y-89956982D02*
X202259538Y-90109363D01*
X202259538Y-90109363D02*
X202297633Y-90185553D01*
X202297633Y-90185553D02*
X202373823Y-90261744D01*
X202373823Y-90261744D02*
X202488109Y-90299839D01*
X202488109Y-90299839D02*
X202564300Y-90299839D01*
X202564300Y-90299839D02*
X202678585Y-90261744D01*
X202678585Y-90261744D02*
X202716681Y-90223648D01*
X202716681Y-90223648D02*
X202716681Y-89956982D01*
X202716681Y-89956982D02*
X202564300Y-89956982D01*
X203059538Y-90299839D02*
X203059538Y-89499839D01*
X203059538Y-89499839D02*
X203516681Y-90299839D01*
X203516681Y-90299839D02*
X203516681Y-89499839D01*
X203897633Y-90299839D02*
X203897633Y-89499839D01*
X203897633Y-89499839D02*
X204088109Y-89499839D01*
X204088109Y-89499839D02*
X204202395Y-89537934D01*
X204202395Y-89537934D02*
X204278585Y-89614124D01*
X204278585Y-89614124D02*
X204316680Y-89690315D01*
X204316680Y-89690315D02*
X204354776Y-89842696D01*
X204354776Y-89842696D02*
X204354776Y-89956982D01*
X204354776Y-89956982D02*
X204316680Y-90109363D01*
X204316680Y-90109363D02*
X204278585Y-90185553D01*
X204278585Y-90185553D02*
X204202395Y-90261744D01*
X204202395Y-90261744D02*
X204088109Y-90299839D01*
X204088109Y-90299839D02*
X203897633Y-90299839D01*
X202564299Y-94579839D02*
X202640489Y-94579839D01*
X202640489Y-94579839D02*
X202716680Y-94617934D01*
X202716680Y-94617934D02*
X202754775Y-94656029D01*
X202754775Y-94656029D02*
X202792870Y-94732220D01*
X202792870Y-94732220D02*
X202830965Y-94884601D01*
X202830965Y-94884601D02*
X202830965Y-95075077D01*
X202830965Y-95075077D02*
X202792870Y-95227458D01*
X202792870Y-95227458D02*
X202754775Y-95303648D01*
X202754775Y-95303648D02*
X202716680Y-95341744D01*
X202716680Y-95341744D02*
X202640489Y-95379839D01*
X202640489Y-95379839D02*
X202564299Y-95379839D01*
X202564299Y-95379839D02*
X202488108Y-95341744D01*
X202488108Y-95341744D02*
X202450013Y-95303648D01*
X202450013Y-95303648D02*
X202411918Y-95227458D01*
X202411918Y-95227458D02*
X202373822Y-95075077D01*
X202373822Y-95075077D02*
X202373822Y-94884601D01*
X202373822Y-94884601D02*
X202411918Y-94732220D01*
X202411918Y-94732220D02*
X202450013Y-94656029D01*
X202450013Y-94656029D02*
X202488108Y-94617934D01*
X202488108Y-94617934D02*
X202564299Y-94579839D01*
X203592870Y-95379839D02*
X203135727Y-95379839D01*
X203364299Y-95379839D02*
X203364299Y-94579839D01*
X203364299Y-94579839D02*
X203288108Y-94694124D01*
X203288108Y-94694124D02*
X203211918Y-94770315D01*
X203211918Y-94770315D02*
X203135727Y-94808410D01*
X203859537Y-94579839D02*
X204392871Y-94579839D01*
X204392871Y-94579839D02*
X204050013Y-95379839D01*
X191801013Y-85219839D02*
X191534346Y-84838886D01*
X191343870Y-85219839D02*
X191343870Y-84419839D01*
X191343870Y-84419839D02*
X191648632Y-84419839D01*
X191648632Y-84419839D02*
X191724822Y-84457934D01*
X191724822Y-84457934D02*
X191762917Y-84496029D01*
X191762917Y-84496029D02*
X191801013Y-84572220D01*
X191801013Y-84572220D02*
X191801013Y-84686505D01*
X191801013Y-84686505D02*
X191762917Y-84762696D01*
X191762917Y-84762696D02*
X191724822Y-84800791D01*
X191724822Y-84800791D02*
X191648632Y-84838886D01*
X191648632Y-84838886D02*
X191343870Y-84838886D01*
X192105774Y-84991267D02*
X192486727Y-84991267D01*
X192029584Y-85219839D02*
X192296251Y-84419839D01*
X192296251Y-84419839D02*
X192562917Y-85219839D01*
X192753393Y-84419839D02*
X192943869Y-85219839D01*
X192943869Y-85219839D02*
X193096250Y-84648410D01*
X193096250Y-84648410D02*
X193248631Y-85219839D01*
X193248631Y-85219839D02*
X193439108Y-84419839D01*
X191223251Y-92039839D02*
X191489918Y-92839839D01*
X191489918Y-92839839D02*
X191756584Y-92039839D01*
X192480394Y-92763648D02*
X192442298Y-92801744D01*
X192442298Y-92801744D02*
X192328013Y-92839839D01*
X192328013Y-92839839D02*
X192251822Y-92839839D01*
X192251822Y-92839839D02*
X192137536Y-92801744D01*
X192137536Y-92801744D02*
X192061346Y-92725553D01*
X192061346Y-92725553D02*
X192023251Y-92649363D01*
X192023251Y-92649363D02*
X191985155Y-92496982D01*
X191985155Y-92496982D02*
X191985155Y-92382696D01*
X191985155Y-92382696D02*
X192023251Y-92230315D01*
X192023251Y-92230315D02*
X192061346Y-92154124D01*
X192061346Y-92154124D02*
X192137536Y-92077934D01*
X192137536Y-92077934D02*
X192251822Y-92039839D01*
X192251822Y-92039839D02*
X192328013Y-92039839D01*
X192328013Y-92039839D02*
X192442298Y-92077934D01*
X192442298Y-92077934D02*
X192480394Y-92116029D01*
X193280394Y-92763648D02*
X193242298Y-92801744D01*
X193242298Y-92801744D02*
X193128013Y-92839839D01*
X193128013Y-92839839D02*
X193051822Y-92839839D01*
X193051822Y-92839839D02*
X192937536Y-92801744D01*
X192937536Y-92801744D02*
X192861346Y-92725553D01*
X192861346Y-92725553D02*
X192823251Y-92649363D01*
X192823251Y-92649363D02*
X192785155Y-92496982D01*
X192785155Y-92496982D02*
X192785155Y-92382696D01*
X192785155Y-92382696D02*
X192823251Y-92230315D01*
X192823251Y-92230315D02*
X192861346Y-92154124D01*
X192861346Y-92154124D02*
X192937536Y-92077934D01*
X192937536Y-92077934D02*
X193051822Y-92039839D01*
X193051822Y-92039839D02*
X193128013Y-92039839D01*
X193128013Y-92039839D02*
X193242298Y-92077934D01*
X193242298Y-92077934D02*
X193280394Y-92116029D01*
X202678585Y-92077934D02*
X202602395Y-92039839D01*
X202602395Y-92039839D02*
X202488109Y-92039839D01*
X202488109Y-92039839D02*
X202373823Y-92077934D01*
X202373823Y-92077934D02*
X202297633Y-92154124D01*
X202297633Y-92154124D02*
X202259538Y-92230315D01*
X202259538Y-92230315D02*
X202221442Y-92382696D01*
X202221442Y-92382696D02*
X202221442Y-92496982D01*
X202221442Y-92496982D02*
X202259538Y-92649363D01*
X202259538Y-92649363D02*
X202297633Y-92725553D01*
X202297633Y-92725553D02*
X202373823Y-92801744D01*
X202373823Y-92801744D02*
X202488109Y-92839839D01*
X202488109Y-92839839D02*
X202564300Y-92839839D01*
X202564300Y-92839839D02*
X202678585Y-92801744D01*
X202678585Y-92801744D02*
X202716681Y-92763648D01*
X202716681Y-92763648D02*
X202716681Y-92496982D01*
X202716681Y-92496982D02*
X202564300Y-92496982D01*
X203059538Y-92839839D02*
X203059538Y-92039839D01*
X203059538Y-92039839D02*
X203516681Y-92839839D01*
X203516681Y-92839839D02*
X203516681Y-92039839D01*
X203897633Y-92839839D02*
X203897633Y-92039839D01*
X203897633Y-92039839D02*
X204088109Y-92039839D01*
X204088109Y-92039839D02*
X204202395Y-92077934D01*
X204202395Y-92077934D02*
X204278585Y-92154124D01*
X204278585Y-92154124D02*
X204316680Y-92230315D01*
X204316680Y-92230315D02*
X204354776Y-92382696D01*
X204354776Y-92382696D02*
X204354776Y-92496982D01*
X204354776Y-92496982D02*
X204316680Y-92649363D01*
X204316680Y-92649363D02*
X204278585Y-92725553D01*
X204278585Y-92725553D02*
X204202395Y-92801744D01*
X204202395Y-92801744D02*
X204088109Y-92839839D01*
X204088109Y-92839839D02*
X203897633Y-92839839D01*
X191489918Y-97119839D02*
X191566108Y-97119839D01*
X191566108Y-97119839D02*
X191642299Y-97157934D01*
X191642299Y-97157934D02*
X191680394Y-97196029D01*
X191680394Y-97196029D02*
X191718489Y-97272220D01*
X191718489Y-97272220D02*
X191756584Y-97424601D01*
X191756584Y-97424601D02*
X191756584Y-97615077D01*
X191756584Y-97615077D02*
X191718489Y-97767458D01*
X191718489Y-97767458D02*
X191680394Y-97843648D01*
X191680394Y-97843648D02*
X191642299Y-97881744D01*
X191642299Y-97881744D02*
X191566108Y-97919839D01*
X191566108Y-97919839D02*
X191489918Y-97919839D01*
X191489918Y-97919839D02*
X191413727Y-97881744D01*
X191413727Y-97881744D02*
X191375632Y-97843648D01*
X191375632Y-97843648D02*
X191337537Y-97767458D01*
X191337537Y-97767458D02*
X191299441Y-97615077D01*
X191299441Y-97615077D02*
X191299441Y-97424601D01*
X191299441Y-97424601D02*
X191337537Y-97272220D01*
X191337537Y-97272220D02*
X191375632Y-97196029D01*
X191375632Y-97196029D02*
X191413727Y-97157934D01*
X191413727Y-97157934D02*
X191489918Y-97119839D01*
X192061346Y-97196029D02*
X192099442Y-97157934D01*
X192099442Y-97157934D02*
X192175632Y-97119839D01*
X192175632Y-97119839D02*
X192366108Y-97119839D01*
X192366108Y-97119839D02*
X192442299Y-97157934D01*
X192442299Y-97157934D02*
X192480394Y-97196029D01*
X192480394Y-97196029D02*
X192518489Y-97272220D01*
X192518489Y-97272220D02*
X192518489Y-97348410D01*
X192518489Y-97348410D02*
X192480394Y-97462696D01*
X192480394Y-97462696D02*
X192023251Y-97919839D01*
X192023251Y-97919839D02*
X192518489Y-97919839D01*
X192899442Y-97919839D02*
X193051823Y-97919839D01*
X193051823Y-97919839D02*
X193128013Y-97881744D01*
X193128013Y-97881744D02*
X193166109Y-97843648D01*
X193166109Y-97843648D02*
X193242299Y-97729363D01*
X193242299Y-97729363D02*
X193280394Y-97576982D01*
X193280394Y-97576982D02*
X193280394Y-97272220D01*
X193280394Y-97272220D02*
X193242299Y-97196029D01*
X193242299Y-97196029D02*
X193204204Y-97157934D01*
X193204204Y-97157934D02*
X193128013Y-97119839D01*
X193128013Y-97119839D02*
X192975632Y-97119839D01*
X192975632Y-97119839D02*
X192899442Y-97157934D01*
X192899442Y-97157934D02*
X192861347Y-97196029D01*
X192861347Y-97196029D02*
X192823251Y-97272220D01*
X192823251Y-97272220D02*
X192823251Y-97462696D01*
X192823251Y-97462696D02*
X192861347Y-97538886D01*
X192861347Y-97538886D02*
X192899442Y-97576982D01*
X192899442Y-97576982D02*
X192975632Y-97615077D01*
X192975632Y-97615077D02*
X193128013Y-97615077D01*
X193128013Y-97615077D02*
X193204204Y-97576982D01*
X193204204Y-97576982D02*
X193242299Y-97538886D01*
X193242299Y-97538886D02*
X193280394Y-97462696D01*
X191756584Y-105539839D02*
X191299441Y-105539839D01*
X191528013Y-105539839D02*
X191528013Y-104739839D01*
X191528013Y-104739839D02*
X191451822Y-104854124D01*
X191451822Y-104854124D02*
X191375632Y-104930315D01*
X191375632Y-104930315D02*
X191299441Y-104968410D01*
X192518489Y-105539839D02*
X192061346Y-105539839D01*
X192289918Y-105539839D02*
X192289918Y-104739839D01*
X192289918Y-104739839D02*
X192213727Y-104854124D01*
X192213727Y-104854124D02*
X192137537Y-104930315D01*
X192137537Y-104930315D02*
X192061346Y-104968410D01*
X192785156Y-104739839D02*
X193280394Y-104739839D01*
X193280394Y-104739839D02*
X193013728Y-105044601D01*
X193013728Y-105044601D02*
X193128013Y-105044601D01*
X193128013Y-105044601D02*
X193204204Y-105082696D01*
X193204204Y-105082696D02*
X193242299Y-105120791D01*
X193242299Y-105120791D02*
X193280394Y-105196982D01*
X193280394Y-105196982D02*
X193280394Y-105387458D01*
X193280394Y-105387458D02*
X193242299Y-105463648D01*
X193242299Y-105463648D02*
X193204204Y-105501744D01*
X193204204Y-105501744D02*
X193128013Y-105539839D01*
X193128013Y-105539839D02*
X192899442Y-105539839D01*
X192899442Y-105539839D02*
X192823251Y-105501744D01*
X192823251Y-105501744D02*
X192785156Y-105463648D01*
X202564299Y-99689839D02*
X202640489Y-99689839D01*
X202640489Y-99689839D02*
X202716680Y-99727934D01*
X202716680Y-99727934D02*
X202754775Y-99766029D01*
X202754775Y-99766029D02*
X202792870Y-99842220D01*
X202792870Y-99842220D02*
X202830965Y-99994601D01*
X202830965Y-99994601D02*
X202830965Y-100185077D01*
X202830965Y-100185077D02*
X202792870Y-100337458D01*
X202792870Y-100337458D02*
X202754775Y-100413648D01*
X202754775Y-100413648D02*
X202716680Y-100451744D01*
X202716680Y-100451744D02*
X202640489Y-100489839D01*
X202640489Y-100489839D02*
X202564299Y-100489839D01*
X202564299Y-100489839D02*
X202488108Y-100451744D01*
X202488108Y-100451744D02*
X202450013Y-100413648D01*
X202450013Y-100413648D02*
X202411918Y-100337458D01*
X202411918Y-100337458D02*
X202373822Y-100185077D01*
X202373822Y-100185077D02*
X202373822Y-99994601D01*
X202373822Y-99994601D02*
X202411918Y-99842220D01*
X202411918Y-99842220D02*
X202450013Y-99766029D01*
X202450013Y-99766029D02*
X202488108Y-99727934D01*
X202488108Y-99727934D02*
X202564299Y-99689839D01*
X203135727Y-99766029D02*
X203173823Y-99727934D01*
X203173823Y-99727934D02*
X203250013Y-99689839D01*
X203250013Y-99689839D02*
X203440489Y-99689839D01*
X203440489Y-99689839D02*
X203516680Y-99727934D01*
X203516680Y-99727934D02*
X203554775Y-99766029D01*
X203554775Y-99766029D02*
X203592870Y-99842220D01*
X203592870Y-99842220D02*
X203592870Y-99918410D01*
X203592870Y-99918410D02*
X203554775Y-100032696D01*
X203554775Y-100032696D02*
X203097632Y-100489839D01*
X203097632Y-100489839D02*
X203592870Y-100489839D01*
X203897632Y-99766029D02*
X203935728Y-99727934D01*
X203935728Y-99727934D02*
X204011918Y-99689839D01*
X204011918Y-99689839D02*
X204202394Y-99689839D01*
X204202394Y-99689839D02*
X204278585Y-99727934D01*
X204278585Y-99727934D02*
X204316680Y-99766029D01*
X204316680Y-99766029D02*
X204354775Y-99842220D01*
X204354775Y-99842220D02*
X204354775Y-99918410D01*
X204354775Y-99918410D02*
X204316680Y-100032696D01*
X204316680Y-100032696D02*
X203859537Y-100489839D01*
X203859537Y-100489839D02*
X204354775Y-100489839D01*
X202564299Y-86889839D02*
X202640489Y-86889839D01*
X202640489Y-86889839D02*
X202716680Y-86927934D01*
X202716680Y-86927934D02*
X202754775Y-86966029D01*
X202754775Y-86966029D02*
X202792870Y-87042220D01*
X202792870Y-87042220D02*
X202830965Y-87194601D01*
X202830965Y-87194601D02*
X202830965Y-87385077D01*
X202830965Y-87385077D02*
X202792870Y-87537458D01*
X202792870Y-87537458D02*
X202754775Y-87613648D01*
X202754775Y-87613648D02*
X202716680Y-87651744D01*
X202716680Y-87651744D02*
X202640489Y-87689839D01*
X202640489Y-87689839D02*
X202564299Y-87689839D01*
X202564299Y-87689839D02*
X202488108Y-87651744D01*
X202488108Y-87651744D02*
X202450013Y-87613648D01*
X202450013Y-87613648D02*
X202411918Y-87537458D01*
X202411918Y-87537458D02*
X202373822Y-87385077D01*
X202373822Y-87385077D02*
X202373822Y-87194601D01*
X202373822Y-87194601D02*
X202411918Y-87042220D01*
X202411918Y-87042220D02*
X202450013Y-86966029D01*
X202450013Y-86966029D02*
X202488108Y-86927934D01*
X202488108Y-86927934D02*
X202564299Y-86889839D01*
X203326204Y-86889839D02*
X203402394Y-86889839D01*
X203402394Y-86889839D02*
X203478585Y-86927934D01*
X203478585Y-86927934D02*
X203516680Y-86966029D01*
X203516680Y-86966029D02*
X203554775Y-87042220D01*
X203554775Y-87042220D02*
X203592870Y-87194601D01*
X203592870Y-87194601D02*
X203592870Y-87385077D01*
X203592870Y-87385077D02*
X203554775Y-87537458D01*
X203554775Y-87537458D02*
X203516680Y-87613648D01*
X203516680Y-87613648D02*
X203478585Y-87651744D01*
X203478585Y-87651744D02*
X203402394Y-87689839D01*
X203402394Y-87689839D02*
X203326204Y-87689839D01*
X203326204Y-87689839D02*
X203250013Y-87651744D01*
X203250013Y-87651744D02*
X203211918Y-87613648D01*
X203211918Y-87613648D02*
X203173823Y-87537458D01*
X203173823Y-87537458D02*
X203135727Y-87385077D01*
X203135727Y-87385077D02*
X203135727Y-87194601D01*
X203135727Y-87194601D02*
X203173823Y-87042220D01*
X203173823Y-87042220D02*
X203211918Y-86966029D01*
X203211918Y-86966029D02*
X203250013Y-86927934D01*
X203250013Y-86927934D02*
X203326204Y-86889839D01*
X204050013Y-87232696D02*
X203973823Y-87194601D01*
X203973823Y-87194601D02*
X203935728Y-87156505D01*
X203935728Y-87156505D02*
X203897632Y-87080315D01*
X203897632Y-87080315D02*
X203897632Y-87042220D01*
X203897632Y-87042220D02*
X203935728Y-86966029D01*
X203935728Y-86966029D02*
X203973823Y-86927934D01*
X203973823Y-86927934D02*
X204050013Y-86889839D01*
X204050013Y-86889839D02*
X204202394Y-86889839D01*
X204202394Y-86889839D02*
X204278585Y-86927934D01*
X204278585Y-86927934D02*
X204316680Y-86966029D01*
X204316680Y-86966029D02*
X204354775Y-87042220D01*
X204354775Y-87042220D02*
X204354775Y-87080315D01*
X204354775Y-87080315D02*
X204316680Y-87156505D01*
X204316680Y-87156505D02*
X204278585Y-87194601D01*
X204278585Y-87194601D02*
X204202394Y-87232696D01*
X204202394Y-87232696D02*
X204050013Y-87232696D01*
X204050013Y-87232696D02*
X203973823Y-87270791D01*
X203973823Y-87270791D02*
X203935728Y-87308886D01*
X203935728Y-87308886D02*
X203897632Y-87385077D01*
X203897632Y-87385077D02*
X203897632Y-87537458D01*
X203897632Y-87537458D02*
X203935728Y-87613648D01*
X203935728Y-87613648D02*
X203973823Y-87651744D01*
X203973823Y-87651744D02*
X204050013Y-87689839D01*
X204050013Y-87689839D02*
X204202394Y-87689839D01*
X204202394Y-87689839D02*
X204278585Y-87651744D01*
X204278585Y-87651744D02*
X204316680Y-87613648D01*
X204316680Y-87613648D02*
X204354775Y-87537458D01*
X204354775Y-87537458D02*
X204354775Y-87385077D01*
X204354775Y-87385077D02*
X204316680Y-87308886D01*
X204316680Y-87308886D02*
X204278585Y-87270791D01*
X204278585Y-87270791D02*
X204202394Y-87232696D01*
X202830965Y-105539839D02*
X202373822Y-105539839D01*
X202602394Y-105539839D02*
X202602394Y-104739839D01*
X202602394Y-104739839D02*
X202526203Y-104854124D01*
X202526203Y-104854124D02*
X202450013Y-104930315D01*
X202450013Y-104930315D02*
X202373822Y-104968410D01*
X203326204Y-104739839D02*
X203402394Y-104739839D01*
X203402394Y-104739839D02*
X203478585Y-104777934D01*
X203478585Y-104777934D02*
X203516680Y-104816029D01*
X203516680Y-104816029D02*
X203554775Y-104892220D01*
X203554775Y-104892220D02*
X203592870Y-105044601D01*
X203592870Y-105044601D02*
X203592870Y-105235077D01*
X203592870Y-105235077D02*
X203554775Y-105387458D01*
X203554775Y-105387458D02*
X203516680Y-105463648D01*
X203516680Y-105463648D02*
X203478585Y-105501744D01*
X203478585Y-105501744D02*
X203402394Y-105539839D01*
X203402394Y-105539839D02*
X203326204Y-105539839D01*
X203326204Y-105539839D02*
X203250013Y-105501744D01*
X203250013Y-105501744D02*
X203211918Y-105463648D01*
X203211918Y-105463648D02*
X203173823Y-105387458D01*
X203173823Y-105387458D02*
X203135727Y-105235077D01*
X203135727Y-105235077D02*
X203135727Y-105044601D01*
X203135727Y-105044601D02*
X203173823Y-104892220D01*
X203173823Y-104892220D02*
X203211918Y-104816029D01*
X203211918Y-104816029D02*
X203250013Y-104777934D01*
X203250013Y-104777934D02*
X203326204Y-104739839D01*
X204088109Y-104739839D02*
X204164299Y-104739839D01*
X204164299Y-104739839D02*
X204240490Y-104777934D01*
X204240490Y-104777934D02*
X204278585Y-104816029D01*
X204278585Y-104816029D02*
X204316680Y-104892220D01*
X204316680Y-104892220D02*
X204354775Y-105044601D01*
X204354775Y-105044601D02*
X204354775Y-105235077D01*
X204354775Y-105235077D02*
X204316680Y-105387458D01*
X204316680Y-105387458D02*
X204278585Y-105463648D01*
X204278585Y-105463648D02*
X204240490Y-105501744D01*
X204240490Y-105501744D02*
X204164299Y-105539839D01*
X204164299Y-105539839D02*
X204088109Y-105539839D01*
X204088109Y-105539839D02*
X204011918Y-105501744D01*
X204011918Y-105501744D02*
X203973823Y-105463648D01*
X203973823Y-105463648D02*
X203935728Y-105387458D01*
X203935728Y-105387458D02*
X203897632Y-105235077D01*
X203897632Y-105235077D02*
X203897632Y-105044601D01*
X203897632Y-105044601D02*
X203935728Y-104892220D01*
X203935728Y-104892220D02*
X203973823Y-104816029D01*
X203973823Y-104816029D02*
X204011918Y-104777934D01*
X204011918Y-104777934D02*
X204088109Y-104739839D01*
X202564299Y-102189839D02*
X202640489Y-102189839D01*
X202640489Y-102189839D02*
X202716680Y-102227934D01*
X202716680Y-102227934D02*
X202754775Y-102266029D01*
X202754775Y-102266029D02*
X202792870Y-102342220D01*
X202792870Y-102342220D02*
X202830965Y-102494601D01*
X202830965Y-102494601D02*
X202830965Y-102685077D01*
X202830965Y-102685077D02*
X202792870Y-102837458D01*
X202792870Y-102837458D02*
X202754775Y-102913648D01*
X202754775Y-102913648D02*
X202716680Y-102951744D01*
X202716680Y-102951744D02*
X202640489Y-102989839D01*
X202640489Y-102989839D02*
X202564299Y-102989839D01*
X202564299Y-102989839D02*
X202488108Y-102951744D01*
X202488108Y-102951744D02*
X202450013Y-102913648D01*
X202450013Y-102913648D02*
X202411918Y-102837458D01*
X202411918Y-102837458D02*
X202373822Y-102685077D01*
X202373822Y-102685077D02*
X202373822Y-102494601D01*
X202373822Y-102494601D02*
X202411918Y-102342220D01*
X202411918Y-102342220D02*
X202450013Y-102266029D01*
X202450013Y-102266029D02*
X202488108Y-102227934D01*
X202488108Y-102227934D02*
X202564299Y-102189839D01*
X203135727Y-102266029D02*
X203173823Y-102227934D01*
X203173823Y-102227934D02*
X203250013Y-102189839D01*
X203250013Y-102189839D02*
X203440489Y-102189839D01*
X203440489Y-102189839D02*
X203516680Y-102227934D01*
X203516680Y-102227934D02*
X203554775Y-102266029D01*
X203554775Y-102266029D02*
X203592870Y-102342220D01*
X203592870Y-102342220D02*
X203592870Y-102418410D01*
X203592870Y-102418410D02*
X203554775Y-102532696D01*
X203554775Y-102532696D02*
X203097632Y-102989839D01*
X203097632Y-102989839D02*
X203592870Y-102989839D01*
X204278585Y-102456505D02*
X204278585Y-102989839D01*
X204088109Y-102151744D02*
X203897632Y-102723172D01*
X203897632Y-102723172D02*
X204392871Y-102723172D01*
D11*
X76619271Y-197396124D02*
X76285938Y-197396124D01*
X76143081Y-196872314D02*
X76619271Y-196872314D01*
X76619271Y-196872314D02*
X76619271Y-197872314D01*
X76619271Y-197872314D02*
X76143081Y-197872314D01*
X75190700Y-196872314D02*
X75762128Y-196872314D01*
X75476414Y-196872314D02*
X75476414Y-197872314D01*
X75476414Y-197872314D02*
X75571652Y-197729457D01*
X75571652Y-197729457D02*
X75666890Y-197634219D01*
X75666890Y-197634219D02*
X75762128Y-197586600D01*
X168918273Y-97534963D02*
X168584940Y-97058772D01*
X168346845Y-97534963D02*
X168346845Y-96534963D01*
X168346845Y-96534963D02*
X168727797Y-96534963D01*
X168727797Y-96534963D02*
X168823035Y-96582582D01*
X168823035Y-96582582D02*
X168870654Y-96630201D01*
X168870654Y-96630201D02*
X168918273Y-96725439D01*
X168918273Y-96725439D02*
X168918273Y-96868296D01*
X168918273Y-96868296D02*
X168870654Y-96963534D01*
X168870654Y-96963534D02*
X168823035Y-97011153D01*
X168823035Y-97011153D02*
X168727797Y-97058772D01*
X168727797Y-97058772D02*
X168346845Y-97058772D01*
X169346845Y-97011153D02*
X169680178Y-97011153D01*
X169823035Y-97534963D02*
X169346845Y-97534963D01*
X169346845Y-97534963D02*
X169346845Y-96534963D01*
X169346845Y-96534963D02*
X169823035Y-96534963D01*
X170584940Y-97011153D02*
X170251607Y-97011153D01*
X170251607Y-97534963D02*
X170251607Y-96534963D01*
X170251607Y-96534963D02*
X170727797Y-96534963D01*
X171251607Y-96534963D02*
X171251607Y-96773058D01*
X171013512Y-96677820D02*
X171251607Y-96773058D01*
X171251607Y-96773058D02*
X171489702Y-96677820D01*
X171108750Y-96963534D02*
X171251607Y-96773058D01*
X171251607Y-96773058D02*
X171394464Y-96963534D01*
X172013512Y-96534963D02*
X172013512Y-96773058D01*
X171775417Y-96677820D02*
X172013512Y-96773058D01*
X172013512Y-96773058D02*
X172251607Y-96677820D01*
X171870655Y-96963534D02*
X172013512Y-96773058D01*
X172013512Y-96773058D02*
X172156369Y-96963534D01*
D10*
X167132560Y-113415696D02*
X167132560Y-114082363D01*
X167132560Y-113510934D02*
X167180179Y-113463315D01*
X167180179Y-113463315D02*
X167275417Y-113415696D01*
X167275417Y-113415696D02*
X167418274Y-113415696D01*
X167418274Y-113415696D02*
X167513512Y-113463315D01*
X167513512Y-113463315D02*
X167561131Y-113558553D01*
X167561131Y-113558553D02*
X167561131Y-114082363D01*
X168037322Y-114082363D02*
X168037322Y-113415696D01*
X168037322Y-113082363D02*
X167989703Y-113129982D01*
X167989703Y-113129982D02*
X168037322Y-113177601D01*
X168037322Y-113177601D02*
X168084941Y-113129982D01*
X168084941Y-113129982D02*
X168037322Y-113082363D01*
X168037322Y-113082363D02*
X168037322Y-113177601D01*
X168942083Y-114034744D02*
X168846845Y-114082363D01*
X168846845Y-114082363D02*
X168656369Y-114082363D01*
X168656369Y-114082363D02*
X168561131Y-114034744D01*
X168561131Y-114034744D02*
X168513512Y-113987124D01*
X168513512Y-113987124D02*
X168465893Y-113891886D01*
X168465893Y-113891886D02*
X168465893Y-113606172D01*
X168465893Y-113606172D02*
X168513512Y-113510934D01*
X168513512Y-113510934D02*
X168561131Y-113463315D01*
X168561131Y-113463315D02*
X168656369Y-113415696D01*
X168656369Y-113415696D02*
X168846845Y-113415696D01*
X168846845Y-113415696D02*
X168942083Y-113463315D01*
X169751607Y-114034744D02*
X169656369Y-114082363D01*
X169656369Y-114082363D02*
X169465893Y-114082363D01*
X169465893Y-114082363D02*
X169370655Y-114034744D01*
X169370655Y-114034744D02*
X169323036Y-113939505D01*
X169323036Y-113939505D02*
X169323036Y-113558553D01*
X169323036Y-113558553D02*
X169370655Y-113463315D01*
X169370655Y-113463315D02*
X169465893Y-113415696D01*
X169465893Y-113415696D02*
X169656369Y-113415696D01*
X169656369Y-113415696D02*
X169751607Y-113463315D01*
X169751607Y-113463315D02*
X169799226Y-113558553D01*
X169799226Y-113558553D02*
X169799226Y-113653791D01*
X169799226Y-113653791D02*
X169323036Y-113749029D01*
X170227798Y-113987124D02*
X170275417Y-114034744D01*
X170275417Y-114034744D02*
X170227798Y-114082363D01*
X170227798Y-114082363D02*
X170180179Y-114034744D01*
X170180179Y-114034744D02*
X170227798Y-113987124D01*
X170227798Y-113987124D02*
X170227798Y-114082363D01*
X170227798Y-113701410D02*
X170180179Y-113129982D01*
X170180179Y-113129982D02*
X170227798Y-113082363D01*
X170227798Y-113082363D02*
X170275417Y-113129982D01*
X170275417Y-113129982D02*
X170227798Y-113701410D01*
X170227798Y-113701410D02*
X170227798Y-113082363D01*
X170608750Y-113415696D02*
X170846845Y-114082363D01*
X170846845Y-114082363D02*
X171084940Y-113415696D01*
X171465893Y-114082363D02*
X171465893Y-113415696D01*
X171465893Y-113082363D02*
X171418274Y-113129982D01*
X171418274Y-113129982D02*
X171465893Y-113177601D01*
X171465893Y-113177601D02*
X171513512Y-113129982D01*
X171513512Y-113129982D02*
X171465893Y-113082363D01*
X171465893Y-113082363D02*
X171465893Y-113177601D01*
X172323035Y-114034744D02*
X172227797Y-114082363D01*
X172227797Y-114082363D02*
X172037321Y-114082363D01*
X172037321Y-114082363D02*
X171942083Y-114034744D01*
X171942083Y-114034744D02*
X171894464Y-113939505D01*
X171894464Y-113939505D02*
X171894464Y-113558553D01*
X171894464Y-113558553D02*
X171942083Y-113463315D01*
X171942083Y-113463315D02*
X172037321Y-113415696D01*
X172037321Y-113415696D02*
X172227797Y-113415696D01*
X172227797Y-113415696D02*
X172323035Y-113463315D01*
X172323035Y-113463315D02*
X172370654Y-113558553D01*
X172370654Y-113558553D02*
X172370654Y-113653791D01*
X172370654Y-113653791D02*
X171894464Y-113749029D01*
X172703988Y-113415696D02*
X172894464Y-114082363D01*
X172894464Y-114082363D02*
X173084940Y-113606172D01*
X173084940Y-113606172D02*
X173275416Y-114082363D01*
X173275416Y-114082363D02*
X173465892Y-113415696D01*
X169706426Y-120018132D02*
X170706426Y-119684799D01*
X170706426Y-119684799D02*
X169706426Y-119351466D01*
X170611187Y-118446704D02*
X170658807Y-118494323D01*
X170658807Y-118494323D02*
X170706426Y-118637180D01*
X170706426Y-118637180D02*
X170706426Y-118732418D01*
X170706426Y-118732418D02*
X170658807Y-118875275D01*
X170658807Y-118875275D02*
X170563568Y-118970513D01*
X170563568Y-118970513D02*
X170468330Y-119018132D01*
X170468330Y-119018132D02*
X170277854Y-119065751D01*
X170277854Y-119065751D02*
X170134997Y-119065751D01*
X170134997Y-119065751D02*
X169944521Y-119018132D01*
X169944521Y-119018132D02*
X169849283Y-118970513D01*
X169849283Y-118970513D02*
X169754045Y-118875275D01*
X169754045Y-118875275D02*
X169706426Y-118732418D01*
X169706426Y-118732418D02*
X169706426Y-118637180D01*
X169706426Y-118637180D02*
X169754045Y-118494323D01*
X169754045Y-118494323D02*
X169801664Y-118446704D01*
X170611187Y-117446704D02*
X170658807Y-117494323D01*
X170658807Y-117494323D02*
X170706426Y-117637180D01*
X170706426Y-117637180D02*
X170706426Y-117732418D01*
X170706426Y-117732418D02*
X170658807Y-117875275D01*
X170658807Y-117875275D02*
X170563568Y-117970513D01*
X170563568Y-117970513D02*
X170468330Y-118018132D01*
X170468330Y-118018132D02*
X170277854Y-118065751D01*
X170277854Y-118065751D02*
X170134997Y-118065751D01*
X170134997Y-118065751D02*
X169944521Y-118018132D01*
X169944521Y-118018132D02*
X169849283Y-117970513D01*
X169849283Y-117970513D02*
X169754045Y-117875275D01*
X169754045Y-117875275D02*
X169706426Y-117732418D01*
X169706426Y-117732418D02*
X169706426Y-117637180D01*
X169706426Y-117637180D02*
X169754045Y-117494323D01*
X169754045Y-117494323D02*
X169801664Y-117446704D01*
X175691187Y-118399085D02*
X175738807Y-118446704D01*
X175738807Y-118446704D02*
X175786426Y-118589561D01*
X175786426Y-118589561D02*
X175786426Y-118684799D01*
X175786426Y-118684799D02*
X175738807Y-118827656D01*
X175738807Y-118827656D02*
X175643568Y-118922894D01*
X175643568Y-118922894D02*
X175548330Y-118970513D01*
X175548330Y-118970513D02*
X175357854Y-119018132D01*
X175357854Y-119018132D02*
X175214997Y-119018132D01*
X175214997Y-119018132D02*
X175024521Y-118970513D01*
X175024521Y-118970513D02*
X174929283Y-118922894D01*
X174929283Y-118922894D02*
X174834045Y-118827656D01*
X174834045Y-118827656D02*
X174786426Y-118684799D01*
X174786426Y-118684799D02*
X174786426Y-118589561D01*
X174786426Y-118589561D02*
X174834045Y-118446704D01*
X174834045Y-118446704D02*
X174881664Y-118399085D01*
X175738807Y-118018132D02*
X175786426Y-117875275D01*
X175786426Y-117875275D02*
X175786426Y-117637180D01*
X175786426Y-117637180D02*
X175738807Y-117541942D01*
X175738807Y-117541942D02*
X175691187Y-117494323D01*
X175691187Y-117494323D02*
X175595949Y-117446704D01*
X175595949Y-117446704D02*
X175500711Y-117446704D01*
X175500711Y-117446704D02*
X175405473Y-117494323D01*
X175405473Y-117494323D02*
X175357854Y-117541942D01*
X175357854Y-117541942D02*
X175310235Y-117637180D01*
X175310235Y-117637180D02*
X175262616Y-117827656D01*
X175262616Y-117827656D02*
X175214997Y-117922894D01*
X175214997Y-117922894D02*
X175167378Y-117970513D01*
X175167378Y-117970513D02*
X175072140Y-118018132D01*
X175072140Y-118018132D02*
X174976902Y-118018132D01*
X174976902Y-118018132D02*
X174881664Y-117970513D01*
X174881664Y-117970513D02*
X174834045Y-117922894D01*
X174834045Y-117922894D02*
X174786426Y-117827656D01*
X174786426Y-117827656D02*
X174786426Y-117589561D01*
X174786426Y-117589561D02*
X174834045Y-117446704D01*
X168118807Y-120018132D02*
X168166426Y-119875275D01*
X168166426Y-119875275D02*
X168166426Y-119637180D01*
X168166426Y-119637180D02*
X168118807Y-119541942D01*
X168118807Y-119541942D02*
X168071187Y-119494323D01*
X168071187Y-119494323D02*
X167975949Y-119446704D01*
X167975949Y-119446704D02*
X167880711Y-119446704D01*
X167880711Y-119446704D02*
X167785473Y-119494323D01*
X167785473Y-119494323D02*
X167737854Y-119541942D01*
X167737854Y-119541942D02*
X167690235Y-119637180D01*
X167690235Y-119637180D02*
X167642616Y-119827656D01*
X167642616Y-119827656D02*
X167594997Y-119922894D01*
X167594997Y-119922894D02*
X167547378Y-119970513D01*
X167547378Y-119970513D02*
X167452140Y-120018132D01*
X167452140Y-120018132D02*
X167356902Y-120018132D01*
X167356902Y-120018132D02*
X167261664Y-119970513D01*
X167261664Y-119970513D02*
X167214045Y-119922894D01*
X167214045Y-119922894D02*
X167166426Y-119827656D01*
X167166426Y-119827656D02*
X167166426Y-119589561D01*
X167166426Y-119589561D02*
X167214045Y-119446704D01*
X168071187Y-118446704D02*
X168118807Y-118494323D01*
X168118807Y-118494323D02*
X168166426Y-118637180D01*
X168166426Y-118637180D02*
X168166426Y-118732418D01*
X168166426Y-118732418D02*
X168118807Y-118875275D01*
X168118807Y-118875275D02*
X168023568Y-118970513D01*
X168023568Y-118970513D02*
X167928330Y-119018132D01*
X167928330Y-119018132D02*
X167737854Y-119065751D01*
X167737854Y-119065751D02*
X167594997Y-119065751D01*
X167594997Y-119065751D02*
X167404521Y-119018132D01*
X167404521Y-119018132D02*
X167309283Y-118970513D01*
X167309283Y-118970513D02*
X167214045Y-118875275D01*
X167214045Y-118875275D02*
X167166426Y-118732418D01*
X167166426Y-118732418D02*
X167166426Y-118637180D01*
X167166426Y-118637180D02*
X167214045Y-118494323D01*
X167214045Y-118494323D02*
X167261664Y-118446704D01*
X168166426Y-118018132D02*
X167166426Y-118018132D01*
X168166426Y-117446704D02*
X167594997Y-117875275D01*
X167166426Y-117446704D02*
X167737854Y-118018132D01*
X165626426Y-120637179D02*
X164626426Y-120637179D01*
X164626426Y-120637179D02*
X165340711Y-120303846D01*
X165340711Y-120303846D02*
X164626426Y-119970513D01*
X164626426Y-119970513D02*
X165626426Y-119970513D01*
X164626426Y-119303846D02*
X164626426Y-119113370D01*
X164626426Y-119113370D02*
X164674045Y-119018132D01*
X164674045Y-119018132D02*
X164769283Y-118922894D01*
X164769283Y-118922894D02*
X164959759Y-118875275D01*
X164959759Y-118875275D02*
X165293092Y-118875275D01*
X165293092Y-118875275D02*
X165483568Y-118922894D01*
X165483568Y-118922894D02*
X165578807Y-119018132D01*
X165578807Y-119018132D02*
X165626426Y-119113370D01*
X165626426Y-119113370D02*
X165626426Y-119303846D01*
X165626426Y-119303846D02*
X165578807Y-119399084D01*
X165578807Y-119399084D02*
X165483568Y-119494322D01*
X165483568Y-119494322D02*
X165293092Y-119541941D01*
X165293092Y-119541941D02*
X164959759Y-119541941D01*
X164959759Y-119541941D02*
X164769283Y-119494322D01*
X164769283Y-119494322D02*
X164674045Y-119399084D01*
X164674045Y-119399084D02*
X164626426Y-119303846D01*
X165578807Y-118494322D02*
X165626426Y-118351465D01*
X165626426Y-118351465D02*
X165626426Y-118113370D01*
X165626426Y-118113370D02*
X165578807Y-118018132D01*
X165578807Y-118018132D02*
X165531187Y-117970513D01*
X165531187Y-117970513D02*
X165435949Y-117922894D01*
X165435949Y-117922894D02*
X165340711Y-117922894D01*
X165340711Y-117922894D02*
X165245473Y-117970513D01*
X165245473Y-117970513D02*
X165197854Y-118018132D01*
X165197854Y-118018132D02*
X165150235Y-118113370D01*
X165150235Y-118113370D02*
X165102616Y-118303846D01*
X165102616Y-118303846D02*
X165054997Y-118399084D01*
X165054997Y-118399084D02*
X165007378Y-118446703D01*
X165007378Y-118446703D02*
X164912140Y-118494322D01*
X164912140Y-118494322D02*
X164816902Y-118494322D01*
X164816902Y-118494322D02*
X164721664Y-118446703D01*
X164721664Y-118446703D02*
X164674045Y-118399084D01*
X164674045Y-118399084D02*
X164626426Y-118303846D01*
X164626426Y-118303846D02*
X164626426Y-118065751D01*
X164626426Y-118065751D02*
X164674045Y-117922894D01*
X165626426Y-117494322D02*
X164626426Y-117494322D01*
X172294045Y-119541942D02*
X172246426Y-119637180D01*
X172246426Y-119637180D02*
X172246426Y-119780037D01*
X172246426Y-119780037D02*
X172294045Y-119922894D01*
X172294045Y-119922894D02*
X172389283Y-120018132D01*
X172389283Y-120018132D02*
X172484521Y-120065751D01*
X172484521Y-120065751D02*
X172674997Y-120113370D01*
X172674997Y-120113370D02*
X172817854Y-120113370D01*
X172817854Y-120113370D02*
X173008330Y-120065751D01*
X173008330Y-120065751D02*
X173103568Y-120018132D01*
X173103568Y-120018132D02*
X173198807Y-119922894D01*
X173198807Y-119922894D02*
X173246426Y-119780037D01*
X173246426Y-119780037D02*
X173246426Y-119684799D01*
X173246426Y-119684799D02*
X173198807Y-119541942D01*
X173198807Y-119541942D02*
X173151187Y-119494323D01*
X173151187Y-119494323D02*
X172817854Y-119494323D01*
X172817854Y-119494323D02*
X172817854Y-119684799D01*
X173246426Y-119065751D02*
X172246426Y-119065751D01*
X172246426Y-119065751D02*
X173246426Y-118494323D01*
X173246426Y-118494323D02*
X172246426Y-118494323D01*
X173246426Y-118018132D02*
X172246426Y-118018132D01*
X172246426Y-118018132D02*
X172246426Y-117780037D01*
X172246426Y-117780037D02*
X172294045Y-117637180D01*
X172294045Y-117637180D02*
X172389283Y-117541942D01*
X172389283Y-117541942D02*
X172484521Y-117494323D01*
X172484521Y-117494323D02*
X172674997Y-117446704D01*
X172674997Y-117446704D02*
X172817854Y-117446704D01*
X172817854Y-117446704D02*
X173008330Y-117494323D01*
X173008330Y-117494323D02*
X173103568Y-117541942D01*
X173103568Y-117541942D02*
X173198807Y-117637180D01*
X173198807Y-117637180D02*
X173246426Y-117780037D01*
X173246426Y-117780037D02*
X173246426Y-118018132D01*
X180108807Y-119110876D02*
X180156426Y-118968019D01*
X180156426Y-118968019D02*
X180156426Y-118729924D01*
X180156426Y-118729924D02*
X180108807Y-118634686D01*
X180108807Y-118634686D02*
X180061187Y-118587067D01*
X180061187Y-118587067D02*
X179965949Y-118539448D01*
X179965949Y-118539448D02*
X179870711Y-118539448D01*
X179870711Y-118539448D02*
X179775473Y-118587067D01*
X179775473Y-118587067D02*
X179727854Y-118634686D01*
X179727854Y-118634686D02*
X179680235Y-118729924D01*
X179680235Y-118729924D02*
X179632616Y-118920400D01*
X179632616Y-118920400D02*
X179584997Y-119015638D01*
X179584997Y-119015638D02*
X179537378Y-119063257D01*
X179537378Y-119063257D02*
X179442140Y-119110876D01*
X179442140Y-119110876D02*
X179346902Y-119110876D01*
X179346902Y-119110876D02*
X179251664Y-119063257D01*
X179251664Y-119063257D02*
X179204045Y-119015638D01*
X179204045Y-119015638D02*
X179156426Y-118920400D01*
X179156426Y-118920400D02*
X179156426Y-118682305D01*
X179156426Y-118682305D02*
X179204045Y-118539448D01*
X179156426Y-118206114D02*
X180156426Y-117968019D01*
X180156426Y-117968019D02*
X179442140Y-117777543D01*
X179442140Y-117777543D02*
X180156426Y-117587067D01*
X180156426Y-117587067D02*
X179156426Y-117348972D01*
X179251664Y-117015638D02*
X179204045Y-116968019D01*
X179204045Y-116968019D02*
X179156426Y-116872781D01*
X179156426Y-116872781D02*
X179156426Y-116634686D01*
X179156426Y-116634686D02*
X179204045Y-116539448D01*
X179204045Y-116539448D02*
X179251664Y-116491829D01*
X179251664Y-116491829D02*
X179346902Y-116444210D01*
X179346902Y-116444210D02*
X179442140Y-116444210D01*
X179442140Y-116444210D02*
X179584997Y-116491829D01*
X179584997Y-116491829D02*
X180156426Y-117063257D01*
X180156426Y-117063257D02*
X180156426Y-116444210D01*
D11*
X196493775Y-98784963D02*
X196160442Y-98308772D01*
X195922347Y-98784963D02*
X195922347Y-97784963D01*
X195922347Y-97784963D02*
X196303299Y-97784963D01*
X196303299Y-97784963D02*
X196398537Y-97832582D01*
X196398537Y-97832582D02*
X196446156Y-97880201D01*
X196446156Y-97880201D02*
X196493775Y-97975439D01*
X196493775Y-97975439D02*
X196493775Y-98118296D01*
X196493775Y-98118296D02*
X196446156Y-98213534D01*
X196446156Y-98213534D02*
X196398537Y-98261153D01*
X196398537Y-98261153D02*
X196303299Y-98308772D01*
X196303299Y-98308772D02*
X195922347Y-98308772D01*
X196922347Y-98261153D02*
X197255680Y-98261153D01*
X197398537Y-98784963D02*
X196922347Y-98784963D01*
X196922347Y-98784963D02*
X196922347Y-97784963D01*
X196922347Y-97784963D02*
X197398537Y-97784963D01*
X198160442Y-98261153D02*
X197827109Y-98261153D01*
X197827109Y-98784963D02*
X197827109Y-97784963D01*
X197827109Y-97784963D02*
X198303299Y-97784963D01*
X198827109Y-97784963D02*
X198827109Y-98023058D01*
X198589014Y-97927820D02*
X198827109Y-98023058D01*
X198827109Y-98023058D02*
X199065204Y-97927820D01*
X198684252Y-98213534D02*
X198827109Y-98023058D01*
X198827109Y-98023058D02*
X198969966Y-98213534D01*
X199589014Y-97784963D02*
X199589014Y-98023058D01*
X199350919Y-97927820D02*
X199589014Y-98023058D01*
X199589014Y-98023058D02*
X199827109Y-97927820D01*
X199446157Y-98213534D02*
X199589014Y-98023058D01*
X199589014Y-98023058D02*
X199731871Y-98213534D01*
D10*
X163914416Y-100209839D02*
X163990606Y-100209839D01*
X163990606Y-100209839D02*
X164066797Y-100247934D01*
X164066797Y-100247934D02*
X164104892Y-100286029D01*
X164104892Y-100286029D02*
X164142987Y-100362220D01*
X164142987Y-100362220D02*
X164181082Y-100514601D01*
X164181082Y-100514601D02*
X164181082Y-100705077D01*
X164181082Y-100705077D02*
X164142987Y-100857458D01*
X164142987Y-100857458D02*
X164104892Y-100933648D01*
X164104892Y-100933648D02*
X164066797Y-100971744D01*
X164066797Y-100971744D02*
X163990606Y-101009839D01*
X163990606Y-101009839D02*
X163914416Y-101009839D01*
X163914416Y-101009839D02*
X163838225Y-100971744D01*
X163838225Y-100971744D02*
X163800130Y-100933648D01*
X163800130Y-100933648D02*
X163762035Y-100857458D01*
X163762035Y-100857458D02*
X163723939Y-100705077D01*
X163723939Y-100705077D02*
X163723939Y-100514601D01*
X163723939Y-100514601D02*
X163762035Y-100362220D01*
X163762035Y-100362220D02*
X163800130Y-100286029D01*
X163800130Y-100286029D02*
X163838225Y-100247934D01*
X163838225Y-100247934D02*
X163914416Y-100209839D01*
X164676321Y-100209839D02*
X164752511Y-100209839D01*
X164752511Y-100209839D02*
X164828702Y-100247934D01*
X164828702Y-100247934D02*
X164866797Y-100286029D01*
X164866797Y-100286029D02*
X164904892Y-100362220D01*
X164904892Y-100362220D02*
X164942987Y-100514601D01*
X164942987Y-100514601D02*
X164942987Y-100705077D01*
X164942987Y-100705077D02*
X164904892Y-100857458D01*
X164904892Y-100857458D02*
X164866797Y-100933648D01*
X164866797Y-100933648D02*
X164828702Y-100971744D01*
X164828702Y-100971744D02*
X164752511Y-101009839D01*
X164752511Y-101009839D02*
X164676321Y-101009839D01*
X164676321Y-101009839D02*
X164600130Y-100971744D01*
X164600130Y-100971744D02*
X164562035Y-100933648D01*
X164562035Y-100933648D02*
X164523940Y-100857458D01*
X164523940Y-100857458D02*
X164485844Y-100705077D01*
X164485844Y-100705077D02*
X164485844Y-100514601D01*
X164485844Y-100514601D02*
X164523940Y-100362220D01*
X164523940Y-100362220D02*
X164562035Y-100286029D01*
X164562035Y-100286029D02*
X164600130Y-100247934D01*
X164600130Y-100247934D02*
X164676321Y-100209839D01*
X165247749Y-100286029D02*
X165285845Y-100247934D01*
X165285845Y-100247934D02*
X165362035Y-100209839D01*
X165362035Y-100209839D02*
X165552511Y-100209839D01*
X165552511Y-100209839D02*
X165628702Y-100247934D01*
X165628702Y-100247934D02*
X165666797Y-100286029D01*
X165666797Y-100286029D02*
X165704892Y-100362220D01*
X165704892Y-100362220D02*
X165704892Y-100438410D01*
X165704892Y-100438410D02*
X165666797Y-100552696D01*
X165666797Y-100552696D02*
X165209654Y-101009839D01*
X165209654Y-101009839D02*
X165704892Y-101009839D01*
X164187416Y-87547934D02*
X164111226Y-87509839D01*
X164111226Y-87509839D02*
X163996940Y-87509839D01*
X163996940Y-87509839D02*
X163882654Y-87547934D01*
X163882654Y-87547934D02*
X163806464Y-87624124D01*
X163806464Y-87624124D02*
X163768369Y-87700315D01*
X163768369Y-87700315D02*
X163730273Y-87852696D01*
X163730273Y-87852696D02*
X163730273Y-87966982D01*
X163730273Y-87966982D02*
X163768369Y-88119363D01*
X163768369Y-88119363D02*
X163806464Y-88195553D01*
X163806464Y-88195553D02*
X163882654Y-88271744D01*
X163882654Y-88271744D02*
X163996940Y-88309839D01*
X163996940Y-88309839D02*
X164073131Y-88309839D01*
X164073131Y-88309839D02*
X164187416Y-88271744D01*
X164187416Y-88271744D02*
X164225512Y-88233648D01*
X164225512Y-88233648D02*
X164225512Y-87966982D01*
X164225512Y-87966982D02*
X164073131Y-87966982D01*
X164568369Y-88309839D02*
X164568369Y-87509839D01*
X164568369Y-87509839D02*
X165025512Y-88309839D01*
X165025512Y-88309839D02*
X165025512Y-87509839D01*
X165406464Y-88309839D02*
X165406464Y-87509839D01*
X165406464Y-87509839D02*
X165596940Y-87509839D01*
X165596940Y-87509839D02*
X165711226Y-87547934D01*
X165711226Y-87547934D02*
X165787416Y-87624124D01*
X165787416Y-87624124D02*
X165825511Y-87700315D01*
X165825511Y-87700315D02*
X165863607Y-87852696D01*
X165863607Y-87852696D02*
X165863607Y-87966982D01*
X165863607Y-87966982D02*
X165825511Y-88119363D01*
X165825511Y-88119363D02*
X165787416Y-88195553D01*
X165787416Y-88195553D02*
X165711226Y-88271744D01*
X165711226Y-88271744D02*
X165596940Y-88309839D01*
X165596940Y-88309839D02*
X165406464Y-88309839D01*
X164181082Y-103549839D02*
X163723939Y-103549839D01*
X163952511Y-103549839D02*
X163952511Y-102749839D01*
X163952511Y-102749839D02*
X163876320Y-102864124D01*
X163876320Y-102864124D02*
X163800130Y-102940315D01*
X163800130Y-102940315D02*
X163723939Y-102978410D01*
X164942987Y-103549839D02*
X164485844Y-103549839D01*
X164714416Y-103549839D02*
X164714416Y-102749839D01*
X164714416Y-102749839D02*
X164638225Y-102864124D01*
X164638225Y-102864124D02*
X164562035Y-102940315D01*
X164562035Y-102940315D02*
X164485844Y-102978410D01*
X165666797Y-102749839D02*
X165285845Y-102749839D01*
X165285845Y-102749839D02*
X165247749Y-103130791D01*
X165247749Y-103130791D02*
X165285845Y-103092696D01*
X165285845Y-103092696D02*
X165362035Y-103054601D01*
X165362035Y-103054601D02*
X165552511Y-103054601D01*
X165552511Y-103054601D02*
X165628702Y-103092696D01*
X165628702Y-103092696D02*
X165666797Y-103130791D01*
X165666797Y-103130791D02*
X165704892Y-103206982D01*
X165704892Y-103206982D02*
X165704892Y-103397458D01*
X165704892Y-103397458D02*
X165666797Y-103473648D01*
X165666797Y-103473648D02*
X165628702Y-103511744D01*
X165628702Y-103511744D02*
X165552511Y-103549839D01*
X165552511Y-103549839D02*
X165362035Y-103549839D01*
X165362035Y-103549839D02*
X165285845Y-103511744D01*
X165285845Y-103511744D02*
X165247749Y-103473648D01*
X174988797Y-100239839D02*
X175064987Y-100239839D01*
X175064987Y-100239839D02*
X175141178Y-100277934D01*
X175141178Y-100277934D02*
X175179273Y-100316029D01*
X175179273Y-100316029D02*
X175217368Y-100392220D01*
X175217368Y-100392220D02*
X175255463Y-100544601D01*
X175255463Y-100544601D02*
X175255463Y-100735077D01*
X175255463Y-100735077D02*
X175217368Y-100887458D01*
X175217368Y-100887458D02*
X175179273Y-100963648D01*
X175179273Y-100963648D02*
X175141178Y-101001744D01*
X175141178Y-101001744D02*
X175064987Y-101039839D01*
X175064987Y-101039839D02*
X174988797Y-101039839D01*
X174988797Y-101039839D02*
X174912606Y-101001744D01*
X174912606Y-101001744D02*
X174874511Y-100963648D01*
X174874511Y-100963648D02*
X174836416Y-100887458D01*
X174836416Y-100887458D02*
X174798320Y-100735077D01*
X174798320Y-100735077D02*
X174798320Y-100544601D01*
X174798320Y-100544601D02*
X174836416Y-100392220D01*
X174836416Y-100392220D02*
X174874511Y-100316029D01*
X174874511Y-100316029D02*
X174912606Y-100277934D01*
X174912606Y-100277934D02*
X174988797Y-100239839D01*
X175560225Y-100316029D02*
X175598321Y-100277934D01*
X175598321Y-100277934D02*
X175674511Y-100239839D01*
X175674511Y-100239839D02*
X175864987Y-100239839D01*
X175864987Y-100239839D02*
X175941178Y-100277934D01*
X175941178Y-100277934D02*
X175979273Y-100316029D01*
X175979273Y-100316029D02*
X176017368Y-100392220D01*
X176017368Y-100392220D02*
X176017368Y-100468410D01*
X176017368Y-100468410D02*
X175979273Y-100582696D01*
X175979273Y-100582696D02*
X175522130Y-101039839D01*
X175522130Y-101039839D02*
X176017368Y-101039839D01*
X176322130Y-100316029D02*
X176360226Y-100277934D01*
X176360226Y-100277934D02*
X176436416Y-100239839D01*
X176436416Y-100239839D02*
X176626892Y-100239839D01*
X176626892Y-100239839D02*
X176703083Y-100277934D01*
X176703083Y-100277934D02*
X176741178Y-100316029D01*
X176741178Y-100316029D02*
X176779273Y-100392220D01*
X176779273Y-100392220D02*
X176779273Y-100468410D01*
X176779273Y-100468410D02*
X176741178Y-100582696D01*
X176741178Y-100582696D02*
X176284035Y-101039839D01*
X176284035Y-101039839D02*
X176779273Y-101039839D01*
X175103083Y-92627934D02*
X175026893Y-92589839D01*
X175026893Y-92589839D02*
X174912607Y-92589839D01*
X174912607Y-92589839D02*
X174798321Y-92627934D01*
X174798321Y-92627934D02*
X174722131Y-92704124D01*
X174722131Y-92704124D02*
X174684036Y-92780315D01*
X174684036Y-92780315D02*
X174645940Y-92932696D01*
X174645940Y-92932696D02*
X174645940Y-93046982D01*
X174645940Y-93046982D02*
X174684036Y-93199363D01*
X174684036Y-93199363D02*
X174722131Y-93275553D01*
X174722131Y-93275553D02*
X174798321Y-93351744D01*
X174798321Y-93351744D02*
X174912607Y-93389839D01*
X174912607Y-93389839D02*
X174988798Y-93389839D01*
X174988798Y-93389839D02*
X175103083Y-93351744D01*
X175103083Y-93351744D02*
X175141179Y-93313648D01*
X175141179Y-93313648D02*
X175141179Y-93046982D01*
X175141179Y-93046982D02*
X174988798Y-93046982D01*
X175484036Y-93389839D02*
X175484036Y-92589839D01*
X175484036Y-92589839D02*
X175941179Y-93389839D01*
X175941179Y-93389839D02*
X175941179Y-92589839D01*
X176322131Y-93389839D02*
X176322131Y-92589839D01*
X176322131Y-92589839D02*
X176512607Y-92589839D01*
X176512607Y-92589839D02*
X176626893Y-92627934D01*
X176626893Y-92627934D02*
X176703083Y-92704124D01*
X176703083Y-92704124D02*
X176741178Y-92780315D01*
X176741178Y-92780315D02*
X176779274Y-92932696D01*
X176779274Y-92932696D02*
X176779274Y-93046982D01*
X176779274Y-93046982D02*
X176741178Y-93199363D01*
X176741178Y-93199363D02*
X176703083Y-93275553D01*
X176703083Y-93275553D02*
X176626893Y-93351744D01*
X176626893Y-93351744D02*
X176512607Y-93389839D01*
X176512607Y-93389839D02*
X176322131Y-93389839D01*
X174988797Y-84969839D02*
X175064987Y-84969839D01*
X175064987Y-84969839D02*
X175141178Y-85007934D01*
X175141178Y-85007934D02*
X175179273Y-85046029D01*
X175179273Y-85046029D02*
X175217368Y-85122220D01*
X175217368Y-85122220D02*
X175255463Y-85274601D01*
X175255463Y-85274601D02*
X175255463Y-85465077D01*
X175255463Y-85465077D02*
X175217368Y-85617458D01*
X175217368Y-85617458D02*
X175179273Y-85693648D01*
X175179273Y-85693648D02*
X175141178Y-85731744D01*
X175141178Y-85731744D02*
X175064987Y-85769839D01*
X175064987Y-85769839D02*
X174988797Y-85769839D01*
X174988797Y-85769839D02*
X174912606Y-85731744D01*
X174912606Y-85731744D02*
X174874511Y-85693648D01*
X174874511Y-85693648D02*
X174836416Y-85617458D01*
X174836416Y-85617458D02*
X174798320Y-85465077D01*
X174798320Y-85465077D02*
X174798320Y-85274601D01*
X174798320Y-85274601D02*
X174836416Y-85122220D01*
X174836416Y-85122220D02*
X174874511Y-85046029D01*
X174874511Y-85046029D02*
X174912606Y-85007934D01*
X174912606Y-85007934D02*
X174988797Y-84969839D01*
X175750702Y-84969839D02*
X175826892Y-84969839D01*
X175826892Y-84969839D02*
X175903083Y-85007934D01*
X175903083Y-85007934D02*
X175941178Y-85046029D01*
X175941178Y-85046029D02*
X175979273Y-85122220D01*
X175979273Y-85122220D02*
X176017368Y-85274601D01*
X176017368Y-85274601D02*
X176017368Y-85465077D01*
X176017368Y-85465077D02*
X175979273Y-85617458D01*
X175979273Y-85617458D02*
X175941178Y-85693648D01*
X175941178Y-85693648D02*
X175903083Y-85731744D01*
X175903083Y-85731744D02*
X175826892Y-85769839D01*
X175826892Y-85769839D02*
X175750702Y-85769839D01*
X175750702Y-85769839D02*
X175674511Y-85731744D01*
X175674511Y-85731744D02*
X175636416Y-85693648D01*
X175636416Y-85693648D02*
X175598321Y-85617458D01*
X175598321Y-85617458D02*
X175560225Y-85465077D01*
X175560225Y-85465077D02*
X175560225Y-85274601D01*
X175560225Y-85274601D02*
X175598321Y-85122220D01*
X175598321Y-85122220D02*
X175636416Y-85046029D01*
X175636416Y-85046029D02*
X175674511Y-85007934D01*
X175674511Y-85007934D02*
X175750702Y-84969839D01*
X176703083Y-84969839D02*
X176550702Y-84969839D01*
X176550702Y-84969839D02*
X176474511Y-85007934D01*
X176474511Y-85007934D02*
X176436416Y-85046029D01*
X176436416Y-85046029D02*
X176360226Y-85160315D01*
X176360226Y-85160315D02*
X176322130Y-85312696D01*
X176322130Y-85312696D02*
X176322130Y-85617458D01*
X176322130Y-85617458D02*
X176360226Y-85693648D01*
X176360226Y-85693648D02*
X176398321Y-85731744D01*
X176398321Y-85731744D02*
X176474511Y-85769839D01*
X176474511Y-85769839D02*
X176626892Y-85769839D01*
X176626892Y-85769839D02*
X176703083Y-85731744D01*
X176703083Y-85731744D02*
X176741178Y-85693648D01*
X176741178Y-85693648D02*
X176779273Y-85617458D01*
X176779273Y-85617458D02*
X176779273Y-85426982D01*
X176779273Y-85426982D02*
X176741178Y-85350791D01*
X176741178Y-85350791D02*
X176703083Y-85312696D01*
X176703083Y-85312696D02*
X176626892Y-85274601D01*
X176626892Y-85274601D02*
X176474511Y-85274601D01*
X176474511Y-85274601D02*
X176398321Y-85312696D01*
X176398321Y-85312696D02*
X176360226Y-85350791D01*
X176360226Y-85350791D02*
X176322130Y-85426982D01*
X163914416Y-110369839D02*
X163990606Y-110369839D01*
X163990606Y-110369839D02*
X164066797Y-110407934D01*
X164066797Y-110407934D02*
X164104892Y-110446029D01*
X164104892Y-110446029D02*
X164142987Y-110522220D01*
X164142987Y-110522220D02*
X164181082Y-110674601D01*
X164181082Y-110674601D02*
X164181082Y-110865077D01*
X164181082Y-110865077D02*
X164142987Y-111017458D01*
X164142987Y-111017458D02*
X164104892Y-111093648D01*
X164104892Y-111093648D02*
X164066797Y-111131744D01*
X164066797Y-111131744D02*
X163990606Y-111169839D01*
X163990606Y-111169839D02*
X163914416Y-111169839D01*
X163914416Y-111169839D02*
X163838225Y-111131744D01*
X163838225Y-111131744D02*
X163800130Y-111093648D01*
X163800130Y-111093648D02*
X163762035Y-111017458D01*
X163762035Y-111017458D02*
X163723939Y-110865077D01*
X163723939Y-110865077D02*
X163723939Y-110674601D01*
X163723939Y-110674601D02*
X163762035Y-110522220D01*
X163762035Y-110522220D02*
X163800130Y-110446029D01*
X163800130Y-110446029D02*
X163838225Y-110407934D01*
X163838225Y-110407934D02*
X163914416Y-110369839D01*
X164942987Y-111169839D02*
X164485844Y-111169839D01*
X164714416Y-111169839D02*
X164714416Y-110369839D01*
X164714416Y-110369839D02*
X164638225Y-110484124D01*
X164638225Y-110484124D02*
X164562035Y-110560315D01*
X164562035Y-110560315D02*
X164485844Y-110598410D01*
X165438226Y-110369839D02*
X165514416Y-110369839D01*
X165514416Y-110369839D02*
X165590607Y-110407934D01*
X165590607Y-110407934D02*
X165628702Y-110446029D01*
X165628702Y-110446029D02*
X165666797Y-110522220D01*
X165666797Y-110522220D02*
X165704892Y-110674601D01*
X165704892Y-110674601D02*
X165704892Y-110865077D01*
X165704892Y-110865077D02*
X165666797Y-111017458D01*
X165666797Y-111017458D02*
X165628702Y-111093648D01*
X165628702Y-111093648D02*
X165590607Y-111131744D01*
X165590607Y-111131744D02*
X165514416Y-111169839D01*
X165514416Y-111169839D02*
X165438226Y-111169839D01*
X165438226Y-111169839D02*
X165362035Y-111131744D01*
X165362035Y-111131744D02*
X165323940Y-111093648D01*
X165323940Y-111093648D02*
X165285845Y-111017458D01*
X165285845Y-111017458D02*
X165247749Y-110865077D01*
X165247749Y-110865077D02*
X165247749Y-110674601D01*
X165247749Y-110674601D02*
X165285845Y-110522220D01*
X165285845Y-110522220D02*
X165323940Y-110446029D01*
X165323940Y-110446029D02*
X165362035Y-110407934D01*
X165362035Y-110407934D02*
X165438226Y-110369839D01*
X163914416Y-95129839D02*
X163990606Y-95129839D01*
X163990606Y-95129839D02*
X164066797Y-95167934D01*
X164066797Y-95167934D02*
X164104892Y-95206029D01*
X164104892Y-95206029D02*
X164142987Y-95282220D01*
X164142987Y-95282220D02*
X164181082Y-95434601D01*
X164181082Y-95434601D02*
X164181082Y-95625077D01*
X164181082Y-95625077D02*
X164142987Y-95777458D01*
X164142987Y-95777458D02*
X164104892Y-95853648D01*
X164104892Y-95853648D02*
X164066797Y-95891744D01*
X164066797Y-95891744D02*
X163990606Y-95929839D01*
X163990606Y-95929839D02*
X163914416Y-95929839D01*
X163914416Y-95929839D02*
X163838225Y-95891744D01*
X163838225Y-95891744D02*
X163800130Y-95853648D01*
X163800130Y-95853648D02*
X163762035Y-95777458D01*
X163762035Y-95777458D02*
X163723939Y-95625077D01*
X163723939Y-95625077D02*
X163723939Y-95434601D01*
X163723939Y-95434601D02*
X163762035Y-95282220D01*
X163762035Y-95282220D02*
X163800130Y-95206029D01*
X163800130Y-95206029D02*
X163838225Y-95167934D01*
X163838225Y-95167934D02*
X163914416Y-95129839D01*
X164447749Y-95129839D02*
X164942987Y-95129839D01*
X164942987Y-95129839D02*
X164676321Y-95434601D01*
X164676321Y-95434601D02*
X164790606Y-95434601D01*
X164790606Y-95434601D02*
X164866797Y-95472696D01*
X164866797Y-95472696D02*
X164904892Y-95510791D01*
X164904892Y-95510791D02*
X164942987Y-95586982D01*
X164942987Y-95586982D02*
X164942987Y-95777458D01*
X164942987Y-95777458D02*
X164904892Y-95853648D01*
X164904892Y-95853648D02*
X164866797Y-95891744D01*
X164866797Y-95891744D02*
X164790606Y-95929839D01*
X164790606Y-95929839D02*
X164562035Y-95929839D01*
X164562035Y-95929839D02*
X164485844Y-95891744D01*
X164485844Y-95891744D02*
X164447749Y-95853648D01*
X165704892Y-95929839D02*
X165247749Y-95929839D01*
X165476321Y-95929839D02*
X165476321Y-95129839D01*
X165476321Y-95129839D02*
X165400130Y-95244124D01*
X165400130Y-95244124D02*
X165323940Y-95320315D01*
X165323940Y-95320315D02*
X165247749Y-95358410D01*
X164225512Y-90849839D02*
X163958845Y-90468886D01*
X163768369Y-90849839D02*
X163768369Y-90049839D01*
X163768369Y-90049839D02*
X164073131Y-90049839D01*
X164073131Y-90049839D02*
X164149321Y-90087934D01*
X164149321Y-90087934D02*
X164187416Y-90126029D01*
X164187416Y-90126029D02*
X164225512Y-90202220D01*
X164225512Y-90202220D02*
X164225512Y-90316505D01*
X164225512Y-90316505D02*
X164187416Y-90392696D01*
X164187416Y-90392696D02*
X164149321Y-90430791D01*
X164149321Y-90430791D02*
X164073131Y-90468886D01*
X164073131Y-90468886D02*
X163768369Y-90468886D01*
X164530273Y-90811744D02*
X164644559Y-90849839D01*
X164644559Y-90849839D02*
X164835035Y-90849839D01*
X164835035Y-90849839D02*
X164911226Y-90811744D01*
X164911226Y-90811744D02*
X164949321Y-90773648D01*
X164949321Y-90773648D02*
X164987416Y-90697458D01*
X164987416Y-90697458D02*
X164987416Y-90621267D01*
X164987416Y-90621267D02*
X164949321Y-90545077D01*
X164949321Y-90545077D02*
X164911226Y-90506982D01*
X164911226Y-90506982D02*
X164835035Y-90468886D01*
X164835035Y-90468886D02*
X164682654Y-90430791D01*
X164682654Y-90430791D02*
X164606464Y-90392696D01*
X164606464Y-90392696D02*
X164568369Y-90354601D01*
X164568369Y-90354601D02*
X164530273Y-90278410D01*
X164530273Y-90278410D02*
X164530273Y-90202220D01*
X164530273Y-90202220D02*
X164568369Y-90126029D01*
X164568369Y-90126029D02*
X164606464Y-90087934D01*
X164606464Y-90087934D02*
X164682654Y-90049839D01*
X164682654Y-90049839D02*
X164873131Y-90049839D01*
X164873131Y-90049839D02*
X164987416Y-90087934D01*
X165215988Y-90049839D02*
X165673131Y-90049839D01*
X165444559Y-90849839D02*
X165444559Y-90049839D01*
X175255463Y-111169839D02*
X174798320Y-111169839D01*
X175026892Y-111169839D02*
X175026892Y-110369839D01*
X175026892Y-110369839D02*
X174950701Y-110484124D01*
X174950701Y-110484124D02*
X174874511Y-110560315D01*
X174874511Y-110560315D02*
X174798320Y-110598410D01*
X175750702Y-110369839D02*
X175826892Y-110369839D01*
X175826892Y-110369839D02*
X175903083Y-110407934D01*
X175903083Y-110407934D02*
X175941178Y-110446029D01*
X175941178Y-110446029D02*
X175979273Y-110522220D01*
X175979273Y-110522220D02*
X176017368Y-110674601D01*
X176017368Y-110674601D02*
X176017368Y-110865077D01*
X176017368Y-110865077D02*
X175979273Y-111017458D01*
X175979273Y-111017458D02*
X175941178Y-111093648D01*
X175941178Y-111093648D02*
X175903083Y-111131744D01*
X175903083Y-111131744D02*
X175826892Y-111169839D01*
X175826892Y-111169839D02*
X175750702Y-111169839D01*
X175750702Y-111169839D02*
X175674511Y-111131744D01*
X175674511Y-111131744D02*
X175636416Y-111093648D01*
X175636416Y-111093648D02*
X175598321Y-111017458D01*
X175598321Y-111017458D02*
X175560225Y-110865077D01*
X175560225Y-110865077D02*
X175560225Y-110674601D01*
X175560225Y-110674601D02*
X175598321Y-110522220D01*
X175598321Y-110522220D02*
X175636416Y-110446029D01*
X175636416Y-110446029D02*
X175674511Y-110407934D01*
X175674511Y-110407934D02*
X175750702Y-110369839D01*
X176703083Y-110636505D02*
X176703083Y-111169839D01*
X176512607Y-110331744D02*
X176322130Y-110903172D01*
X176322130Y-110903172D02*
X176817369Y-110903172D01*
X163647749Y-92589839D02*
X163914416Y-93389839D01*
X163914416Y-93389839D02*
X164181082Y-92589839D01*
X164904892Y-93313648D02*
X164866796Y-93351744D01*
X164866796Y-93351744D02*
X164752511Y-93389839D01*
X164752511Y-93389839D02*
X164676320Y-93389839D01*
X164676320Y-93389839D02*
X164562034Y-93351744D01*
X164562034Y-93351744D02*
X164485844Y-93275553D01*
X164485844Y-93275553D02*
X164447749Y-93199363D01*
X164447749Y-93199363D02*
X164409653Y-93046982D01*
X164409653Y-93046982D02*
X164409653Y-92932696D01*
X164409653Y-92932696D02*
X164447749Y-92780315D01*
X164447749Y-92780315D02*
X164485844Y-92704124D01*
X164485844Y-92704124D02*
X164562034Y-92627934D01*
X164562034Y-92627934D02*
X164676320Y-92589839D01*
X164676320Y-92589839D02*
X164752511Y-92589839D01*
X164752511Y-92589839D02*
X164866796Y-92627934D01*
X164866796Y-92627934D02*
X164904892Y-92666029D01*
X165704892Y-93313648D02*
X165666796Y-93351744D01*
X165666796Y-93351744D02*
X165552511Y-93389839D01*
X165552511Y-93389839D02*
X165476320Y-93389839D01*
X165476320Y-93389839D02*
X165362034Y-93351744D01*
X165362034Y-93351744D02*
X165285844Y-93275553D01*
X165285844Y-93275553D02*
X165247749Y-93199363D01*
X165247749Y-93199363D02*
X165209653Y-93046982D01*
X165209653Y-93046982D02*
X165209653Y-92932696D01*
X165209653Y-92932696D02*
X165247749Y-92780315D01*
X165247749Y-92780315D02*
X165285844Y-92704124D01*
X165285844Y-92704124D02*
X165362034Y-92627934D01*
X165362034Y-92627934D02*
X165476320Y-92589839D01*
X165476320Y-92589839D02*
X165552511Y-92589839D01*
X165552511Y-92589839D02*
X165666796Y-92627934D01*
X165666796Y-92627934D02*
X165704892Y-92666029D01*
X174988797Y-102739839D02*
X175064987Y-102739839D01*
X175064987Y-102739839D02*
X175141178Y-102777934D01*
X175141178Y-102777934D02*
X175179273Y-102816029D01*
X175179273Y-102816029D02*
X175217368Y-102892220D01*
X175217368Y-102892220D02*
X175255463Y-103044601D01*
X175255463Y-103044601D02*
X175255463Y-103235077D01*
X175255463Y-103235077D02*
X175217368Y-103387458D01*
X175217368Y-103387458D02*
X175179273Y-103463648D01*
X175179273Y-103463648D02*
X175141178Y-103501744D01*
X175141178Y-103501744D02*
X175064987Y-103539839D01*
X175064987Y-103539839D02*
X174988797Y-103539839D01*
X174988797Y-103539839D02*
X174912606Y-103501744D01*
X174912606Y-103501744D02*
X174874511Y-103463648D01*
X174874511Y-103463648D02*
X174836416Y-103387458D01*
X174836416Y-103387458D02*
X174798320Y-103235077D01*
X174798320Y-103235077D02*
X174798320Y-103044601D01*
X174798320Y-103044601D02*
X174836416Y-102892220D01*
X174836416Y-102892220D02*
X174874511Y-102816029D01*
X174874511Y-102816029D02*
X174912606Y-102777934D01*
X174912606Y-102777934D02*
X174988797Y-102739839D01*
X175560225Y-102816029D02*
X175598321Y-102777934D01*
X175598321Y-102777934D02*
X175674511Y-102739839D01*
X175674511Y-102739839D02*
X175864987Y-102739839D01*
X175864987Y-102739839D02*
X175941178Y-102777934D01*
X175941178Y-102777934D02*
X175979273Y-102816029D01*
X175979273Y-102816029D02*
X176017368Y-102892220D01*
X176017368Y-102892220D02*
X176017368Y-102968410D01*
X176017368Y-102968410D02*
X175979273Y-103082696D01*
X175979273Y-103082696D02*
X175522130Y-103539839D01*
X175522130Y-103539839D02*
X176017368Y-103539839D01*
X176703083Y-103006505D02*
X176703083Y-103539839D01*
X176512607Y-102701744D02*
X176322130Y-103273172D01*
X176322130Y-103273172D02*
X176817369Y-103273172D01*
X164181082Y-108629839D02*
X163723939Y-108629839D01*
X163952511Y-108629839D02*
X163952511Y-107829839D01*
X163952511Y-107829839D02*
X163876320Y-107944124D01*
X163876320Y-107944124D02*
X163800130Y-108020315D01*
X163800130Y-108020315D02*
X163723939Y-108058410D01*
X164942987Y-108629839D02*
X164485844Y-108629839D01*
X164714416Y-108629839D02*
X164714416Y-107829839D01*
X164714416Y-107829839D02*
X164638225Y-107944124D01*
X164638225Y-107944124D02*
X164562035Y-108020315D01*
X164562035Y-108020315D02*
X164485844Y-108058410D01*
X165704892Y-108629839D02*
X165247749Y-108629839D01*
X165476321Y-108629839D02*
X165476321Y-107829839D01*
X165476321Y-107829839D02*
X165400130Y-107944124D01*
X165400130Y-107944124D02*
X165323940Y-108020315D01*
X165323940Y-108020315D02*
X165247749Y-108058410D01*
X174988797Y-97739839D02*
X175064987Y-97739839D01*
X175064987Y-97739839D02*
X175141178Y-97777934D01*
X175141178Y-97777934D02*
X175179273Y-97816029D01*
X175179273Y-97816029D02*
X175217368Y-97892220D01*
X175217368Y-97892220D02*
X175255463Y-98044601D01*
X175255463Y-98044601D02*
X175255463Y-98235077D01*
X175255463Y-98235077D02*
X175217368Y-98387458D01*
X175217368Y-98387458D02*
X175179273Y-98463648D01*
X175179273Y-98463648D02*
X175141178Y-98501744D01*
X175141178Y-98501744D02*
X175064987Y-98539839D01*
X175064987Y-98539839D02*
X174988797Y-98539839D01*
X174988797Y-98539839D02*
X174912606Y-98501744D01*
X174912606Y-98501744D02*
X174874511Y-98463648D01*
X174874511Y-98463648D02*
X174836416Y-98387458D01*
X174836416Y-98387458D02*
X174798320Y-98235077D01*
X174798320Y-98235077D02*
X174798320Y-98044601D01*
X174798320Y-98044601D02*
X174836416Y-97892220D01*
X174836416Y-97892220D02*
X174874511Y-97816029D01*
X174874511Y-97816029D02*
X174912606Y-97777934D01*
X174912606Y-97777934D02*
X174988797Y-97739839D01*
X175560225Y-97816029D02*
X175598321Y-97777934D01*
X175598321Y-97777934D02*
X175674511Y-97739839D01*
X175674511Y-97739839D02*
X175864987Y-97739839D01*
X175864987Y-97739839D02*
X175941178Y-97777934D01*
X175941178Y-97777934D02*
X175979273Y-97816029D01*
X175979273Y-97816029D02*
X176017368Y-97892220D01*
X176017368Y-97892220D02*
X176017368Y-97968410D01*
X176017368Y-97968410D02*
X175979273Y-98082696D01*
X175979273Y-98082696D02*
X175522130Y-98539839D01*
X175522130Y-98539839D02*
X176017368Y-98539839D01*
X176512607Y-97739839D02*
X176588797Y-97739839D01*
X176588797Y-97739839D02*
X176664988Y-97777934D01*
X176664988Y-97777934D02*
X176703083Y-97816029D01*
X176703083Y-97816029D02*
X176741178Y-97892220D01*
X176741178Y-97892220D02*
X176779273Y-98044601D01*
X176779273Y-98044601D02*
X176779273Y-98235077D01*
X176779273Y-98235077D02*
X176741178Y-98387458D01*
X176741178Y-98387458D02*
X176703083Y-98463648D01*
X176703083Y-98463648D02*
X176664988Y-98501744D01*
X176664988Y-98501744D02*
X176588797Y-98539839D01*
X176588797Y-98539839D02*
X176512607Y-98539839D01*
X176512607Y-98539839D02*
X176436416Y-98501744D01*
X176436416Y-98501744D02*
X176398321Y-98463648D01*
X176398321Y-98463648D02*
X176360226Y-98387458D01*
X176360226Y-98387458D02*
X176322130Y-98235077D01*
X176322130Y-98235077D02*
X176322130Y-98044601D01*
X176322130Y-98044601D02*
X176360226Y-97892220D01*
X176360226Y-97892220D02*
X176398321Y-97816029D01*
X176398321Y-97816029D02*
X176436416Y-97777934D01*
X176436416Y-97777934D02*
X176512607Y-97739839D01*
X164181082Y-106089839D02*
X163723939Y-106089839D01*
X163952511Y-106089839D02*
X163952511Y-105289839D01*
X163952511Y-105289839D02*
X163876320Y-105404124D01*
X163876320Y-105404124D02*
X163800130Y-105480315D01*
X163800130Y-105480315D02*
X163723939Y-105518410D01*
X164942987Y-106089839D02*
X164485844Y-106089839D01*
X164714416Y-106089839D02*
X164714416Y-105289839D01*
X164714416Y-105289839D02*
X164638225Y-105404124D01*
X164638225Y-105404124D02*
X164562035Y-105480315D01*
X164562035Y-105480315D02*
X164485844Y-105518410D01*
X165209654Y-105289839D02*
X165704892Y-105289839D01*
X165704892Y-105289839D02*
X165438226Y-105594601D01*
X165438226Y-105594601D02*
X165552511Y-105594601D01*
X165552511Y-105594601D02*
X165628702Y-105632696D01*
X165628702Y-105632696D02*
X165666797Y-105670791D01*
X165666797Y-105670791D02*
X165704892Y-105746982D01*
X165704892Y-105746982D02*
X165704892Y-105937458D01*
X165704892Y-105937458D02*
X165666797Y-106013648D01*
X165666797Y-106013648D02*
X165628702Y-106051744D01*
X165628702Y-106051744D02*
X165552511Y-106089839D01*
X165552511Y-106089839D02*
X165323940Y-106089839D01*
X165323940Y-106089839D02*
X165247749Y-106051744D01*
X165247749Y-106051744D02*
X165209654Y-106013648D01*
X174988797Y-87439839D02*
X175064987Y-87439839D01*
X175064987Y-87439839D02*
X175141178Y-87477934D01*
X175141178Y-87477934D02*
X175179273Y-87516029D01*
X175179273Y-87516029D02*
X175217368Y-87592220D01*
X175217368Y-87592220D02*
X175255463Y-87744601D01*
X175255463Y-87744601D02*
X175255463Y-87935077D01*
X175255463Y-87935077D02*
X175217368Y-88087458D01*
X175217368Y-88087458D02*
X175179273Y-88163648D01*
X175179273Y-88163648D02*
X175141178Y-88201744D01*
X175141178Y-88201744D02*
X175064987Y-88239839D01*
X175064987Y-88239839D02*
X174988797Y-88239839D01*
X174988797Y-88239839D02*
X174912606Y-88201744D01*
X174912606Y-88201744D02*
X174874511Y-88163648D01*
X174874511Y-88163648D02*
X174836416Y-88087458D01*
X174836416Y-88087458D02*
X174798320Y-87935077D01*
X174798320Y-87935077D02*
X174798320Y-87744601D01*
X174798320Y-87744601D02*
X174836416Y-87592220D01*
X174836416Y-87592220D02*
X174874511Y-87516029D01*
X174874511Y-87516029D02*
X174912606Y-87477934D01*
X174912606Y-87477934D02*
X174988797Y-87439839D01*
X175750702Y-87439839D02*
X175826892Y-87439839D01*
X175826892Y-87439839D02*
X175903083Y-87477934D01*
X175903083Y-87477934D02*
X175941178Y-87516029D01*
X175941178Y-87516029D02*
X175979273Y-87592220D01*
X175979273Y-87592220D02*
X176017368Y-87744601D01*
X176017368Y-87744601D02*
X176017368Y-87935077D01*
X176017368Y-87935077D02*
X175979273Y-88087458D01*
X175979273Y-88087458D02*
X175941178Y-88163648D01*
X175941178Y-88163648D02*
X175903083Y-88201744D01*
X175903083Y-88201744D02*
X175826892Y-88239839D01*
X175826892Y-88239839D02*
X175750702Y-88239839D01*
X175750702Y-88239839D02*
X175674511Y-88201744D01*
X175674511Y-88201744D02*
X175636416Y-88163648D01*
X175636416Y-88163648D02*
X175598321Y-88087458D01*
X175598321Y-88087458D02*
X175560225Y-87935077D01*
X175560225Y-87935077D02*
X175560225Y-87744601D01*
X175560225Y-87744601D02*
X175598321Y-87592220D01*
X175598321Y-87592220D02*
X175636416Y-87516029D01*
X175636416Y-87516029D02*
X175674511Y-87477934D01*
X175674511Y-87477934D02*
X175750702Y-87439839D01*
X176474511Y-87782696D02*
X176398321Y-87744601D01*
X176398321Y-87744601D02*
X176360226Y-87706505D01*
X176360226Y-87706505D02*
X176322130Y-87630315D01*
X176322130Y-87630315D02*
X176322130Y-87592220D01*
X176322130Y-87592220D02*
X176360226Y-87516029D01*
X176360226Y-87516029D02*
X176398321Y-87477934D01*
X176398321Y-87477934D02*
X176474511Y-87439839D01*
X176474511Y-87439839D02*
X176626892Y-87439839D01*
X176626892Y-87439839D02*
X176703083Y-87477934D01*
X176703083Y-87477934D02*
X176741178Y-87516029D01*
X176741178Y-87516029D02*
X176779273Y-87592220D01*
X176779273Y-87592220D02*
X176779273Y-87630315D01*
X176779273Y-87630315D02*
X176741178Y-87706505D01*
X176741178Y-87706505D02*
X176703083Y-87744601D01*
X176703083Y-87744601D02*
X176626892Y-87782696D01*
X176626892Y-87782696D02*
X176474511Y-87782696D01*
X176474511Y-87782696D02*
X176398321Y-87820791D01*
X176398321Y-87820791D02*
X176360226Y-87858886D01*
X176360226Y-87858886D02*
X176322130Y-87935077D01*
X176322130Y-87935077D02*
X176322130Y-88087458D01*
X176322130Y-88087458D02*
X176360226Y-88163648D01*
X176360226Y-88163648D02*
X176398321Y-88201744D01*
X176398321Y-88201744D02*
X176474511Y-88239839D01*
X176474511Y-88239839D02*
X176626892Y-88239839D01*
X176626892Y-88239839D02*
X176703083Y-88201744D01*
X176703083Y-88201744D02*
X176741178Y-88163648D01*
X176741178Y-88163648D02*
X176779273Y-88087458D01*
X176779273Y-88087458D02*
X176779273Y-87935077D01*
X176779273Y-87935077D02*
X176741178Y-87858886D01*
X176741178Y-87858886D02*
X176703083Y-87820791D01*
X176703083Y-87820791D02*
X176626892Y-87782696D01*
X174988797Y-95129839D02*
X175064987Y-95129839D01*
X175064987Y-95129839D02*
X175141178Y-95167934D01*
X175141178Y-95167934D02*
X175179273Y-95206029D01*
X175179273Y-95206029D02*
X175217368Y-95282220D01*
X175217368Y-95282220D02*
X175255463Y-95434601D01*
X175255463Y-95434601D02*
X175255463Y-95625077D01*
X175255463Y-95625077D02*
X175217368Y-95777458D01*
X175217368Y-95777458D02*
X175179273Y-95853648D01*
X175179273Y-95853648D02*
X175141178Y-95891744D01*
X175141178Y-95891744D02*
X175064987Y-95929839D01*
X175064987Y-95929839D02*
X174988797Y-95929839D01*
X174988797Y-95929839D02*
X174912606Y-95891744D01*
X174912606Y-95891744D02*
X174874511Y-95853648D01*
X174874511Y-95853648D02*
X174836416Y-95777458D01*
X174836416Y-95777458D02*
X174798320Y-95625077D01*
X174798320Y-95625077D02*
X174798320Y-95434601D01*
X174798320Y-95434601D02*
X174836416Y-95282220D01*
X174836416Y-95282220D02*
X174874511Y-95206029D01*
X174874511Y-95206029D02*
X174912606Y-95167934D01*
X174912606Y-95167934D02*
X174988797Y-95129839D01*
X176017368Y-95929839D02*
X175560225Y-95929839D01*
X175788797Y-95929839D02*
X175788797Y-95129839D01*
X175788797Y-95129839D02*
X175712606Y-95244124D01*
X175712606Y-95244124D02*
X175636416Y-95320315D01*
X175636416Y-95320315D02*
X175560225Y-95358410D01*
X176284035Y-95129839D02*
X176817369Y-95129839D01*
X176817369Y-95129839D02*
X176474511Y-95929839D01*
X175255463Y-106089839D02*
X174798320Y-106089839D01*
X175026892Y-106089839D02*
X175026892Y-105289839D01*
X175026892Y-105289839D02*
X174950701Y-105404124D01*
X174950701Y-105404124D02*
X174874511Y-105480315D01*
X174874511Y-105480315D02*
X174798320Y-105518410D01*
X175750702Y-105289839D02*
X175826892Y-105289839D01*
X175826892Y-105289839D02*
X175903083Y-105327934D01*
X175903083Y-105327934D02*
X175941178Y-105366029D01*
X175941178Y-105366029D02*
X175979273Y-105442220D01*
X175979273Y-105442220D02*
X176017368Y-105594601D01*
X176017368Y-105594601D02*
X176017368Y-105785077D01*
X176017368Y-105785077D02*
X175979273Y-105937458D01*
X175979273Y-105937458D02*
X175941178Y-106013648D01*
X175941178Y-106013648D02*
X175903083Y-106051744D01*
X175903083Y-106051744D02*
X175826892Y-106089839D01*
X175826892Y-106089839D02*
X175750702Y-106089839D01*
X175750702Y-106089839D02*
X175674511Y-106051744D01*
X175674511Y-106051744D02*
X175636416Y-106013648D01*
X175636416Y-106013648D02*
X175598321Y-105937458D01*
X175598321Y-105937458D02*
X175560225Y-105785077D01*
X175560225Y-105785077D02*
X175560225Y-105594601D01*
X175560225Y-105594601D02*
X175598321Y-105442220D01*
X175598321Y-105442220D02*
X175636416Y-105366029D01*
X175636416Y-105366029D02*
X175674511Y-105327934D01*
X175674511Y-105327934D02*
X175750702Y-105289839D01*
X176512607Y-105289839D02*
X176588797Y-105289839D01*
X176588797Y-105289839D02*
X176664988Y-105327934D01*
X176664988Y-105327934D02*
X176703083Y-105366029D01*
X176703083Y-105366029D02*
X176741178Y-105442220D01*
X176741178Y-105442220D02*
X176779273Y-105594601D01*
X176779273Y-105594601D02*
X176779273Y-105785077D01*
X176779273Y-105785077D02*
X176741178Y-105937458D01*
X176741178Y-105937458D02*
X176703083Y-106013648D01*
X176703083Y-106013648D02*
X176664988Y-106051744D01*
X176664988Y-106051744D02*
X176588797Y-106089839D01*
X176588797Y-106089839D02*
X176512607Y-106089839D01*
X176512607Y-106089839D02*
X176436416Y-106051744D01*
X176436416Y-106051744D02*
X176398321Y-106013648D01*
X176398321Y-106013648D02*
X176360226Y-105937458D01*
X176360226Y-105937458D02*
X176322130Y-105785077D01*
X176322130Y-105785077D02*
X176322130Y-105594601D01*
X176322130Y-105594601D02*
X176360226Y-105442220D01*
X176360226Y-105442220D02*
X176398321Y-105366029D01*
X176398321Y-105366029D02*
X176436416Y-105327934D01*
X176436416Y-105327934D02*
X176512607Y-105289839D01*
X164225511Y-85769839D02*
X163958844Y-85388886D01*
X163768368Y-85769839D02*
X163768368Y-84969839D01*
X163768368Y-84969839D02*
X164073130Y-84969839D01*
X164073130Y-84969839D02*
X164149320Y-85007934D01*
X164149320Y-85007934D02*
X164187415Y-85046029D01*
X164187415Y-85046029D02*
X164225511Y-85122220D01*
X164225511Y-85122220D02*
X164225511Y-85236505D01*
X164225511Y-85236505D02*
X164187415Y-85312696D01*
X164187415Y-85312696D02*
X164149320Y-85350791D01*
X164149320Y-85350791D02*
X164073130Y-85388886D01*
X164073130Y-85388886D02*
X163768368Y-85388886D01*
X164530272Y-85541267D02*
X164911225Y-85541267D01*
X164454082Y-85769839D02*
X164720749Y-84969839D01*
X164720749Y-84969839D02*
X164987415Y-85769839D01*
X165177891Y-84969839D02*
X165368367Y-85769839D01*
X165368367Y-85769839D02*
X165520748Y-85198410D01*
X165520748Y-85198410D02*
X165673129Y-85769839D01*
X165673129Y-85769839D02*
X165863606Y-84969839D01*
X175103083Y-90087934D02*
X175026893Y-90049839D01*
X175026893Y-90049839D02*
X174912607Y-90049839D01*
X174912607Y-90049839D02*
X174798321Y-90087934D01*
X174798321Y-90087934D02*
X174722131Y-90164124D01*
X174722131Y-90164124D02*
X174684036Y-90240315D01*
X174684036Y-90240315D02*
X174645940Y-90392696D01*
X174645940Y-90392696D02*
X174645940Y-90506982D01*
X174645940Y-90506982D02*
X174684036Y-90659363D01*
X174684036Y-90659363D02*
X174722131Y-90735553D01*
X174722131Y-90735553D02*
X174798321Y-90811744D01*
X174798321Y-90811744D02*
X174912607Y-90849839D01*
X174912607Y-90849839D02*
X174988798Y-90849839D01*
X174988798Y-90849839D02*
X175103083Y-90811744D01*
X175103083Y-90811744D02*
X175141179Y-90773648D01*
X175141179Y-90773648D02*
X175141179Y-90506982D01*
X175141179Y-90506982D02*
X174988798Y-90506982D01*
X175484036Y-90849839D02*
X175484036Y-90049839D01*
X175484036Y-90049839D02*
X175941179Y-90849839D01*
X175941179Y-90849839D02*
X175941179Y-90049839D01*
X176322131Y-90849839D02*
X176322131Y-90049839D01*
X176322131Y-90049839D02*
X176512607Y-90049839D01*
X176512607Y-90049839D02*
X176626893Y-90087934D01*
X176626893Y-90087934D02*
X176703083Y-90164124D01*
X176703083Y-90164124D02*
X176741178Y-90240315D01*
X176741178Y-90240315D02*
X176779274Y-90392696D01*
X176779274Y-90392696D02*
X176779274Y-90506982D01*
X176779274Y-90506982D02*
X176741178Y-90659363D01*
X176741178Y-90659363D02*
X176703083Y-90735553D01*
X176703083Y-90735553D02*
X176626893Y-90811744D01*
X176626893Y-90811744D02*
X176512607Y-90849839D01*
X176512607Y-90849839D02*
X176322131Y-90849839D01*
X163914416Y-97669839D02*
X163990606Y-97669839D01*
X163990606Y-97669839D02*
X164066797Y-97707934D01*
X164066797Y-97707934D02*
X164104892Y-97746029D01*
X164104892Y-97746029D02*
X164142987Y-97822220D01*
X164142987Y-97822220D02*
X164181082Y-97974601D01*
X164181082Y-97974601D02*
X164181082Y-98165077D01*
X164181082Y-98165077D02*
X164142987Y-98317458D01*
X164142987Y-98317458D02*
X164104892Y-98393648D01*
X164104892Y-98393648D02*
X164066797Y-98431744D01*
X164066797Y-98431744D02*
X163990606Y-98469839D01*
X163990606Y-98469839D02*
X163914416Y-98469839D01*
X163914416Y-98469839D02*
X163838225Y-98431744D01*
X163838225Y-98431744D02*
X163800130Y-98393648D01*
X163800130Y-98393648D02*
X163762035Y-98317458D01*
X163762035Y-98317458D02*
X163723939Y-98165077D01*
X163723939Y-98165077D02*
X163723939Y-97974601D01*
X163723939Y-97974601D02*
X163762035Y-97822220D01*
X163762035Y-97822220D02*
X163800130Y-97746029D01*
X163800130Y-97746029D02*
X163838225Y-97707934D01*
X163838225Y-97707934D02*
X163914416Y-97669839D01*
X164485844Y-97746029D02*
X164523940Y-97707934D01*
X164523940Y-97707934D02*
X164600130Y-97669839D01*
X164600130Y-97669839D02*
X164790606Y-97669839D01*
X164790606Y-97669839D02*
X164866797Y-97707934D01*
X164866797Y-97707934D02*
X164904892Y-97746029D01*
X164904892Y-97746029D02*
X164942987Y-97822220D01*
X164942987Y-97822220D02*
X164942987Y-97898410D01*
X164942987Y-97898410D02*
X164904892Y-98012696D01*
X164904892Y-98012696D02*
X164447749Y-98469839D01*
X164447749Y-98469839D02*
X164942987Y-98469839D01*
X165323940Y-98469839D02*
X165476321Y-98469839D01*
X165476321Y-98469839D02*
X165552511Y-98431744D01*
X165552511Y-98431744D02*
X165590607Y-98393648D01*
X165590607Y-98393648D02*
X165666797Y-98279363D01*
X165666797Y-98279363D02*
X165704892Y-98126982D01*
X165704892Y-98126982D02*
X165704892Y-97822220D01*
X165704892Y-97822220D02*
X165666797Y-97746029D01*
X165666797Y-97746029D02*
X165628702Y-97707934D01*
X165628702Y-97707934D02*
X165552511Y-97669839D01*
X165552511Y-97669839D02*
X165400130Y-97669839D01*
X165400130Y-97669839D02*
X165323940Y-97707934D01*
X165323940Y-97707934D02*
X165285845Y-97746029D01*
X165285845Y-97746029D02*
X165247749Y-97822220D01*
X165247749Y-97822220D02*
X165247749Y-98012696D01*
X165247749Y-98012696D02*
X165285845Y-98088886D01*
X165285845Y-98088886D02*
X165323940Y-98126982D01*
X165323940Y-98126982D02*
X165400130Y-98165077D01*
X165400130Y-98165077D02*
X165552511Y-98165077D01*
X165552511Y-98165077D02*
X165628702Y-98126982D01*
X165628702Y-98126982D02*
X165666797Y-98088886D01*
X165666797Y-98088886D02*
X165704892Y-98012696D01*
D12*
X191477109Y-114067544D02*
X204177109Y-114067544D01*
X204177109Y-116607544D01*
X191477109Y-116607544D01*
X191477109Y-114067544D01*
D13*
X186497509Y-114851044D02*
X186497509Y-119804044D01*
X186497509Y-119804044D02*
X186838768Y-119804044D01*
X186838768Y-114851044D02*
X186497509Y-114851044D01*
X188215448Y-119804044D02*
X188538770Y-119804044D01*
X188538770Y-114851044D02*
X188215448Y-114851044D01*
X189915450Y-119804044D02*
X190256709Y-119804044D01*
X190256709Y-114851044D02*
X189915450Y-114851044D01*
X190256709Y-119804044D02*
X190256709Y-114851044D01*
D14*
X186927109Y-128257544D02*
X186927109Y-122597544D01*
X187847109Y-122077544D02*
X188607109Y-122077544D01*
X187847109Y-128777544D02*
X188607109Y-128777544D01*
X189527109Y-123847544D02*
X189527109Y-125507544D01*
X189527109Y-126847544D02*
X189527109Y-127007544D01*
D15*
X191427109Y-123177544D02*
G75*
G02*
X191227109Y-123177544I-100000J0D01*
G01*
X191227109Y-123177544D02*
G75*
G02*
X191427109Y-123177544I100000J0D01*
G01*
D16*
X188937109Y-81047544D02*
X206717109Y-81047544D01*
X188937109Y-114067544D02*
X188937109Y-81047544D01*
X206717109Y-81047544D02*
X206717109Y-114067544D01*
X206717109Y-114067544D02*
X188937109Y-114067544D01*
D11*
X61368186Y-182029734D02*
X63428796Y-182779734D01*
X63428796Y-181279734D02*
X61368186Y-182029734D01*
X63428796Y-182779734D02*
X63428796Y-181279734D01*
X75178796Y-169529734D02*
X76678796Y-169529734D01*
X75178796Y-194529734D02*
X75928796Y-196590344D01*
X75928796Y-167469124D02*
X75178796Y-169529734D01*
X75928796Y-196590344D02*
X76678796Y-194529734D01*
X76678796Y-169529734D02*
X75928796Y-167469124D01*
X76678796Y-194529734D02*
X75178796Y-194529734D01*
X88428796Y-181279734D02*
X88428796Y-182779734D01*
X88428796Y-182779734D02*
X90489406Y-182029734D01*
X90489406Y-182029734D02*
X88428796Y-181279734D01*
X87378796Y-182029734D02*
G75*
G02*
X64478796Y-182029734I-11450000J0D01*
G01*
X64478796Y-182029734D02*
G75*
G02*
X87378796Y-182029734I11450000J0D01*
G01*
X79928796Y-182029734D02*
G75*
G02*
X71928796Y-182029734I-4000000J0D01*
G01*
X71928796Y-182029734D02*
G75*
G02*
X79928796Y-182029734I4000000J0D01*
G01*
D14*
X178551607Y-124457544D02*
X178551607Y-124297544D01*
X178551607Y-127457544D02*
X178551607Y-125797544D01*
X180231607Y-122527544D02*
X179471607Y-122527544D01*
X180231607Y-129227544D02*
X179471607Y-129227544D01*
X181151607Y-123047544D02*
X181151607Y-128707544D01*
D15*
X176851607Y-128127544D02*
G75*
G02*
X176651607Y-128127544I-100000J0D01*
G01*
X176651607Y-128127544D02*
G75*
G02*
X176851607Y-128127544I100000J0D01*
G01*
D12*
X163901607Y-114617544D02*
X176601607Y-114617544D01*
X176601607Y-117157544D01*
X163901607Y-117157544D01*
X163901607Y-114617544D01*
D13*
X177822007Y-115301044D02*
X177822007Y-120254044D01*
X177822007Y-120254044D02*
X178163266Y-120254044D01*
X178163266Y-115301044D02*
X177822007Y-115301044D01*
X179539946Y-120254044D02*
X179863268Y-120254044D01*
X179863268Y-115301044D02*
X179539946Y-115301044D01*
X181239948Y-120254044D02*
X181581207Y-120254044D01*
X181581207Y-115301044D02*
X181239948Y-115301044D01*
X181581207Y-120254044D02*
X181581207Y-115301044D01*
D16*
X161361607Y-81597544D02*
X179141607Y-81597544D01*
X161361607Y-114617544D02*
X161361607Y-81597544D01*
X179141607Y-81597544D02*
X179141607Y-114617544D01*
X179141607Y-114617544D02*
X161361607Y-114617544D01*
D17*
X205447109Y-84857544D03*
X205447109Y-87397544D03*
X205447109Y-89937544D03*
X205447109Y-92477544D03*
X205447109Y-95017544D03*
X205447109Y-97557544D03*
X205447109Y-100097544D03*
X205447109Y-102637544D03*
X205447109Y-105177544D03*
X205447109Y-107717544D03*
X205447109Y-110257544D03*
X205447109Y-112797544D03*
X190207109Y-112797544D03*
X190207109Y-110257544D03*
X190207109Y-107717544D03*
X190207109Y-105177544D03*
X190207109Y-102637544D03*
X190207109Y-100097544D03*
X190207109Y-97557544D03*
X190207109Y-95017544D03*
X190207109Y-92477544D03*
X190207109Y-89937544D03*
X190207109Y-87397544D03*
X190207109Y-84857544D03*
X202907109Y-107717544D03*
X200367109Y-107717544D03*
X197827109Y-107717544D03*
X177871607Y-85407544D03*
X177871607Y-87947544D03*
X177871607Y-90487544D03*
X177871607Y-93027544D03*
X177871607Y-95567544D03*
X177871607Y-98107544D03*
X177871607Y-100647544D03*
X177871607Y-103187544D03*
X177871607Y-105727544D03*
X177871607Y-108267544D03*
X177871607Y-110807544D03*
X177871607Y-113347544D03*
X162631607Y-113347544D03*
X162631607Y-110807544D03*
X162631607Y-108267544D03*
X162631607Y-105727544D03*
X162631607Y-103187544D03*
X162631607Y-100647544D03*
X162631607Y-98107544D03*
X162631607Y-95567544D03*
X162631607Y-93027544D03*
X162631607Y-90487544D03*
X162631607Y-87947544D03*
X162631607Y-85407544D03*
X175331607Y-108267544D03*
X172791607Y-108267544D03*
X170251607Y-108267544D03*
D18*
X186348957Y-157573007D02*
G75*
G02*
X186302111Y-157361695I453145J211307D01*
G01*
X225902109Y-78977544D02*
G75*
G02*
X225402109Y-79477607I-500107J44D01*
G01*
X236427109Y-175227544D02*
G75*
G02*
X235927109Y-175727607I-500107J44D01*
G01*
X283552109Y-76477544D02*
X265502109Y-76477544D01*
X274527109Y-172227544D02*
G75*
G02*
X274027109Y-172727607I-500107J44D01*
G01*
X274527109Y-172227544D02*
X274527109Y-162177544D01*
X244452109Y-76477544D02*
X226402109Y-76477544D01*
X274527109Y-162177544D02*
G75*
G02*
X275027109Y-161677607I499893J44D01*
G01*
X186348956Y-157573007D02*
X198456219Y-183536662D01*
X303102109Y-83977544D02*
X303102109Y-81977544D01*
X322152109Y-161177544D02*
X322152109Y-84977544D01*
X199120682Y-183778503D02*
G75*
G02*
X198456234Y-183536655I-211280J453203D01*
G01*
X216285557Y-175774390D02*
G75*
G02*
X216496866Y-175727544I211145J-452410D01*
G01*
X265502109Y-76477544D02*
G75*
G02*
X265002158Y-75977544I-7J499944D01*
G01*
X264502109Y-74477544D02*
G75*
G02*
X265002158Y-74977544I-7J-500056D01*
G01*
X321652109Y-84477544D02*
X303602109Y-84477544D01*
X275027109Y-161677544D02*
X321652109Y-161677544D01*
X284552109Y-81477544D02*
G75*
G02*
X284052158Y-80977544I-7J499944D01*
G01*
X264502109Y-74477544D02*
X245452109Y-74477544D01*
X321652109Y-84477544D02*
G75*
G02*
X322152158Y-84977544I-7J-500056D01*
G01*
X284052109Y-80977544D02*
X284052109Y-76977544D01*
X225402109Y-79477544D02*
X186802109Y-79477544D01*
X216496866Y-175727544D02*
X235927109Y-175727544D01*
X225902109Y-76977544D02*
X225902109Y-78977544D01*
X244952109Y-74977544D02*
G75*
G02*
X245452109Y-74477607I499893J44D01*
G01*
X236427109Y-173227544D02*
G75*
G02*
X236927109Y-172727607I499893J44D01*
G01*
X302602109Y-81477544D02*
G75*
G02*
X303102158Y-81977544I-7J-500056D01*
G01*
X265002109Y-75977544D02*
X265002109Y-74977544D01*
X236427109Y-175227544D02*
X236427109Y-173227544D01*
X283552109Y-76477544D02*
G75*
G02*
X284052158Y-76977544I-7J-500056D01*
G01*
X303602109Y-84477544D02*
G75*
G02*
X303102158Y-83977544I-7J499944D01*
G01*
X322152109Y-161177544D02*
G75*
G02*
X321652109Y-161677607I-500107J44D01*
G01*
X186302109Y-79977544D02*
X186302109Y-157361695D01*
X225902109Y-76977544D02*
G75*
G02*
X226402109Y-76477607I499893J44D01*
G01*
X186302109Y-79977544D02*
G75*
G02*
X186802109Y-79477607I499893J44D01*
G01*
X244952109Y-75977544D02*
G75*
G02*
X244452109Y-76477607I-500107J44D01*
G01*
X302602109Y-81477544D02*
X284552109Y-81477544D01*
X199120681Y-183778503D02*
X216285557Y-175774390D01*
X244952109Y-74977544D02*
X244952109Y-75977544D01*
X236927109Y-172727544D02*
X274027109Y-172727544D01*
D19*
X57678796Y-170155224D02*
G75*
G02*
X60787780Y-168919594I1800019J42D01*
G01*
X60578796Y-193904244D02*
G75*
G02*
X58378796Y-193904244I-1100000J0D01*
G01*
X58378796Y-193904244D02*
G75*
G02*
X60578796Y-193904244I1100000J0D01*
G01*
X60578796Y-170155224D02*
G75*
G02*
X58378796Y-170155224I-1100000J0D01*
G01*
X58378796Y-170155224D02*
G75*
G02*
X60578796Y-170155224I1100000J0D01*
G01*
X60753479Y-195175152D02*
G75*
G02*
X63427651Y-195153661I1348036J-1351830D01*
G01*
X60750201Y-195178431D02*
G75*
G02*
X57678849Y-193904251I-1271386J1274149D01*
G01*
X63419106Y-168913963D02*
G75*
G02*
X60790947Y-168920627I-1317591J1381481D01*
G01*
X57678796Y-170155224D02*
X57678796Y-193904244D01*
X63419106Y-168913964D02*
G75*
G02*
X63427689Y-195153681I12509689J-13115768D01*
G01*
D18*
X169622497Y-183986661D02*
G75*
G02*
X168958020Y-184228535I-453197J211361D01*
G01*
X151581850Y-176177544D02*
X132151607Y-176177544D01*
X103076607Y-76427544D02*
X103076607Y-75427544D01*
X168958035Y-184228503D02*
X151793159Y-176224390D01*
X103576607Y-74927544D02*
X122626607Y-74927544D01*
X181776606Y-157811695D02*
G75*
G02*
X181729765Y-158023010I-499606J-105D01*
G01*
X181276607Y-79927544D02*
G75*
G02*
X181776556Y-80427544I-7J-499956D01*
G01*
X123626607Y-76927544D02*
X141676607Y-76927544D01*
X84026607Y-77427544D02*
G75*
G02*
X84526607Y-76927507I499993J44D01*
G01*
X93551607Y-172677544D02*
X93551607Y-162627544D01*
X94051607Y-173177544D02*
G75*
G02*
X93551556Y-172677544I-7J500044D01*
G01*
X151581850Y-176177544D02*
G75*
G02*
X151793164Y-176224379I-50J-500356D01*
G01*
X122626607Y-74927544D02*
G75*
G02*
X123126556Y-75427544I-7J-499956D01*
G01*
X65476607Y-81927544D02*
X83526607Y-81927544D01*
X132151607Y-176177544D02*
G75*
G02*
X131651556Y-175677544I-7J500044D01*
G01*
X142676607Y-79927544D02*
G75*
G02*
X142176556Y-79427544I-7J500044D01*
G01*
X142676607Y-79927544D02*
X181276607Y-79927544D01*
X142176607Y-77427544D02*
X142176607Y-79427544D01*
X84526607Y-76927544D02*
X102576607Y-76927544D01*
X46426607Y-84927544D02*
X64476607Y-84927544D01*
X131151607Y-173177544D02*
X94051607Y-173177544D01*
X46426607Y-162127544D02*
G75*
G02*
X45926556Y-161627544I-7J500044D01*
G01*
X64976607Y-84427544D02*
G75*
G02*
X64476607Y-84927507I-500007J44D01*
G01*
X131651607Y-175677544D02*
X131651607Y-173677544D01*
X123126607Y-75427544D02*
X123126607Y-76427544D01*
X181729760Y-158023007D02*
X169622497Y-183986662D01*
X84026607Y-81427544D02*
G75*
G02*
X83526607Y-81927507I-500007J44D01*
G01*
X64976607Y-84427544D02*
X64976607Y-82427544D01*
X181776607Y-80427544D02*
X181776607Y-157811695D01*
X45926607Y-85427544D02*
G75*
G02*
X46426607Y-84927507I499993J44D01*
G01*
X45926607Y-161627544D02*
X45926607Y-85427544D01*
X141676607Y-76927544D02*
G75*
G02*
X142176556Y-77427544I-7J-499956D01*
G01*
X64976607Y-82427544D02*
G75*
G02*
X65476607Y-81927507I499993J44D01*
G01*
X123626607Y-76927544D02*
G75*
G02*
X123126556Y-76427544I-7J500044D01*
G01*
X93051607Y-162127544D02*
X46426607Y-162127544D01*
X103076607Y-75427544D02*
G75*
G02*
X103576607Y-74927507I499993J44D01*
G01*
X93051607Y-162127544D02*
G75*
G02*
X93551556Y-162627544I-7J-499956D01*
G01*
X103076607Y-76427544D02*
G75*
G02*
X102576607Y-76927507I-500007J44D01*
G01*
X84026607Y-81427544D02*
X84026607Y-77427544D01*
X131151607Y-173177544D02*
G75*
G02*
X131651556Y-173677544I-7J-499956D01*
G01*
D20*
X269477109Y-86502544D02*
G75*
G02*
X267577109Y-86502544I-950000J0D01*
G01*
X267577109Y-86502544D02*
G75*
G02*
X269477109Y-86502544I950000J0D01*
G01*
D21*
X275552109Y-80602544D02*
G75*
G02*
X272502109Y-80602544I-1525000J0D01*
G01*
X272502109Y-80602544D02*
G75*
G02*
X275552109Y-80602544I1525000J0D01*
G01*
X280552109Y-82702544D02*
G75*
G02*
X277502109Y-82702544I-1525000J0D01*
G01*
X277502109Y-82702544D02*
G75*
G02*
X280552109Y-82702544I1525000J0D01*
G01*
D20*
X280477109Y-86502544D02*
G75*
G02*
X278577109Y-86502544I-950000J0D01*
G01*
X278577109Y-86502544D02*
G75*
G02*
X280477109Y-86502544I950000J0D01*
G01*
X307577109Y-113552544D02*
G75*
G02*
X305677109Y-113552544I-950000J0D01*
G01*
X305677109Y-113552544D02*
G75*
G02*
X307577109Y-113552544I950000J0D01*
G01*
D21*
X313652109Y-107652544D02*
G75*
G02*
X310602109Y-107652544I-1525000J0D01*
G01*
X310602109Y-107652544D02*
G75*
G02*
X313652109Y-107652544I1525000J0D01*
G01*
X318652109Y-109752544D02*
G75*
G02*
X315602109Y-109752544I-1525000J0D01*
G01*
X315602109Y-109752544D02*
G75*
G02*
X318652109Y-109752544I1525000J0D01*
G01*
D20*
X318577109Y-113552544D02*
G75*
G02*
X316677109Y-113552544I-950000J0D01*
G01*
X316677109Y-113552544D02*
G75*
G02*
X318577109Y-113552544I950000J0D01*
G01*
X200129398Y-161366344D02*
G75*
G02*
X198229398Y-161366344I-950000J0D01*
G01*
X198229398Y-161366344D02*
G75*
G02*
X200129398Y-161366344I950000J0D01*
G01*
X204778198Y-171335730D02*
G75*
G02*
X202878198Y-171335730I-950000J0D01*
G01*
X202878198Y-171335730D02*
G75*
G02*
X204778198Y-171335730I950000J0D01*
G01*
D21*
X208376015Y-163857589D02*
G75*
G02*
X205326013Y-163857589I-1525001J0D01*
G01*
X205326013Y-163857589D02*
G75*
G02*
X208376015Y-163857589I1525001J0D01*
G01*
X208585859Y-169276627D02*
G75*
G02*
X205535859Y-169276627I-1525000J0D01*
G01*
X205535859Y-169276627D02*
G75*
G02*
X208585859Y-169276627I1525000J0D01*
G01*
D20*
X288527109Y-148652544D02*
G75*
G02*
X286627109Y-148652544I-950000J0D01*
G01*
X286627109Y-148652544D02*
G75*
G02*
X288527109Y-148652544I950000J0D01*
G01*
D21*
X294602109Y-142752544D02*
G75*
G02*
X291552109Y-142752544I-1525000J0D01*
G01*
X291552109Y-142752544D02*
G75*
G02*
X294602109Y-142752544I1525000J0D01*
G01*
X299602109Y-144852544D02*
G75*
G02*
X296552109Y-144852544I-1525000J0D01*
G01*
X296552109Y-144852544D02*
G75*
G02*
X299602109Y-144852544I1525000J0D01*
G01*
D20*
X299527109Y-148652544D02*
G75*
G02*
X297627109Y-148652544I-950000J0D01*
G01*
X297627109Y-148652544D02*
G75*
G02*
X299527109Y-148652544I950000J0D01*
G01*
X250427109Y-141652544D02*
G75*
G02*
X248527109Y-141652544I-950000J0D01*
G01*
X248527109Y-141652544D02*
G75*
G02*
X250427109Y-141652544I950000J0D01*
G01*
D21*
X256502109Y-135752544D02*
G75*
G02*
X253452109Y-135752544I-1525000J0D01*
G01*
X253452109Y-135752544D02*
G75*
G02*
X256502109Y-135752544I1525000J0D01*
G01*
X261502109Y-137852544D02*
G75*
G02*
X258452109Y-137852544I-1525000J0D01*
G01*
X258452109Y-137852544D02*
G75*
G02*
X261502109Y-137852544I1525000J0D01*
G01*
D20*
X261427109Y-141652544D02*
G75*
G02*
X259527109Y-141652544I-950000J0D01*
G01*
X259527109Y-141652544D02*
G75*
G02*
X261427109Y-141652544I950000J0D01*
G01*
X212327109Y-146652544D02*
G75*
G02*
X210427109Y-146652544I-950000J0D01*
G01*
X210427109Y-146652544D02*
G75*
G02*
X212327109Y-146652544I950000J0D01*
G01*
D21*
X218402109Y-140752544D02*
G75*
G02*
X215352109Y-140752544I-1525000J0D01*
G01*
X215352109Y-140752544D02*
G75*
G02*
X218402109Y-140752544I1525000J0D01*
G01*
X223402109Y-142852544D02*
G75*
G02*
X220352109Y-142852544I-1525000J0D01*
G01*
X220352109Y-142852544D02*
G75*
G02*
X223402109Y-142852544I1525000J0D01*
G01*
D20*
X223327109Y-146652544D02*
G75*
G02*
X221427109Y-146652544I-950000J0D01*
G01*
X221427109Y-146652544D02*
G75*
G02*
X223327109Y-146652544I950000J0D01*
G01*
X212327109Y-127602544D02*
G75*
G02*
X210427109Y-127602544I-950000J0D01*
G01*
X210427109Y-127602544D02*
G75*
G02*
X212327109Y-127602544I950000J0D01*
G01*
D21*
X218402109Y-121702544D02*
G75*
G02*
X215352109Y-121702544I-1525000J0D01*
G01*
X215352109Y-121702544D02*
G75*
G02*
X218402109Y-121702544I1525000J0D01*
G01*
X223402109Y-123802544D02*
G75*
G02*
X220352109Y-123802544I-1525000J0D01*
G01*
X220352109Y-123802544D02*
G75*
G02*
X223402109Y-123802544I1525000J0D01*
G01*
D20*
X223327109Y-127602544D02*
G75*
G02*
X221427109Y-127602544I-950000J0D01*
G01*
X221427109Y-127602544D02*
G75*
G02*
X223327109Y-127602544I950000J0D01*
G01*
X231377109Y-86502544D02*
G75*
G02*
X229477109Y-86502544I-950000J0D01*
G01*
X229477109Y-86502544D02*
G75*
G02*
X231377109Y-86502544I950000J0D01*
G01*
D21*
X237452109Y-80602544D02*
G75*
G02*
X234402109Y-80602544I-1525000J0D01*
G01*
X234402109Y-80602544D02*
G75*
G02*
X237452109Y-80602544I1525000J0D01*
G01*
X242452109Y-82702544D02*
G75*
G02*
X239402109Y-82702544I-1525000J0D01*
G01*
X239402109Y-82702544D02*
G75*
G02*
X242452109Y-82702544I1525000J0D01*
G01*
D20*
X242377109Y-86502544D02*
G75*
G02*
X240477109Y-86502544I-950000J0D01*
G01*
X240477109Y-86502544D02*
G75*
G02*
X242377109Y-86502544I950000J0D01*
G01*
X259952109Y-162702544D02*
G75*
G02*
X258052109Y-162702544I-950000J0D01*
G01*
X258052109Y-162702544D02*
G75*
G02*
X259952109Y-162702544I950000J0D01*
G01*
D21*
X266027109Y-156802544D02*
G75*
G02*
X262977109Y-156802544I-1525000J0D01*
G01*
X262977109Y-156802544D02*
G75*
G02*
X266027109Y-156802544I1525000J0D01*
G01*
X271027109Y-158902544D02*
G75*
G02*
X267977109Y-158902544I-1525000J0D01*
G01*
X267977109Y-158902544D02*
G75*
G02*
X271027109Y-158902544I1525000J0D01*
G01*
D20*
X270952109Y-162702544D02*
G75*
G02*
X269052109Y-162702544I-950000J0D01*
G01*
X269052109Y-162702544D02*
G75*
G02*
X270952109Y-162702544I950000J0D01*
G01*
X212327109Y-89502544D02*
G75*
G02*
X210427109Y-89502544I-950000J0D01*
G01*
X210427109Y-89502544D02*
G75*
G02*
X212327109Y-89502544I950000J0D01*
G01*
D21*
X218402109Y-83602544D02*
G75*
G02*
X215352109Y-83602544I-1525000J0D01*
G01*
X215352109Y-83602544D02*
G75*
G02*
X218402109Y-83602544I1525000J0D01*
G01*
X223402109Y-85702544D02*
G75*
G02*
X220352109Y-85702544I-1525000J0D01*
G01*
X220352109Y-85702544D02*
G75*
G02*
X223402109Y-85702544I1525000J0D01*
G01*
D20*
X223327109Y-89502544D02*
G75*
G02*
X221427109Y-89502544I-950000J0D01*
G01*
X221427109Y-89502544D02*
G75*
G02*
X223327109Y-89502544I950000J0D01*
G01*
X307577109Y-132602544D02*
G75*
G02*
X305677109Y-132602544I-950000J0D01*
G01*
X305677109Y-132602544D02*
G75*
G02*
X307577109Y-132602544I950000J0D01*
G01*
D21*
X313652109Y-126702544D02*
G75*
G02*
X310602109Y-126702544I-1525000J0D01*
G01*
X310602109Y-126702544D02*
G75*
G02*
X313652109Y-126702544I1525000J0D01*
G01*
X318652109Y-128802544D02*
G75*
G02*
X315602109Y-128802544I-1525000J0D01*
G01*
X315602109Y-128802544D02*
G75*
G02*
X318652109Y-128802544I1525000J0D01*
G01*
D20*
X318577109Y-132602544D02*
G75*
G02*
X316677109Y-132602544I-950000J0D01*
G01*
X316677109Y-132602544D02*
G75*
G02*
X318577109Y-132602544I950000J0D01*
G01*
X288527109Y-91502544D02*
G75*
G02*
X286627109Y-91502544I-950000J0D01*
G01*
X286627109Y-91502544D02*
G75*
G02*
X288527109Y-91502544I950000J0D01*
G01*
D21*
X294602109Y-85602544D02*
G75*
G02*
X291552109Y-85602544I-1525000J0D01*
G01*
X291552109Y-85602544D02*
G75*
G02*
X294602109Y-85602544I1525000J0D01*
G01*
X299602109Y-87702544D02*
G75*
G02*
X296552109Y-87702544I-1525000J0D01*
G01*
X296552109Y-87702544D02*
G75*
G02*
X299602109Y-87702544I1525000J0D01*
G01*
D20*
X299527109Y-91502544D02*
G75*
G02*
X297627109Y-91502544I-950000J0D01*
G01*
X297627109Y-91502544D02*
G75*
G02*
X299527109Y-91502544I950000J0D01*
G01*
D22*
X272127109Y-109332544D02*
X272127109Y-111932544D01*
X272327109Y-112132544D02*
X275727109Y-112132544D01*
X275727109Y-109132544D02*
X272327109Y-109132544D01*
X275927109Y-111932544D02*
X275927109Y-109332544D01*
X272127109Y-109332544D02*
G75*
G02*
X272327109Y-109132544I200000J0D01*
G01*
X272327109Y-112132544D02*
G75*
G02*
X272127109Y-111932544I0J200000D01*
G01*
X275727109Y-109132544D02*
G75*
G02*
X275927109Y-109332544I-1J-200001D01*
G01*
X275927109Y-111932544D02*
G75*
G02*
X275727109Y-112132544I-200001J1D01*
G01*
X253077109Y-126382544D02*
X253077109Y-128982544D01*
X253277109Y-129182544D02*
X256677109Y-129182544D01*
X256677109Y-126182544D02*
X253277109Y-126182544D01*
X256877109Y-128982544D02*
X256877109Y-126382544D01*
X253077109Y-126382544D02*
G75*
G02*
X253277109Y-126182544I200000J0D01*
G01*
X253277109Y-129182544D02*
G75*
G02*
X253077109Y-128982544I0J200000D01*
G01*
X256677109Y-126182544D02*
G75*
G02*
X256877109Y-126382544I-1J-200001D01*
G01*
X256877109Y-128982544D02*
G75*
G02*
X256677109Y-129182544I-200001J1D01*
G01*
X272127109Y-147432544D02*
X272127109Y-150032544D01*
X272327109Y-150232544D02*
X275727109Y-150232544D01*
X275727109Y-147232544D02*
X272327109Y-147232544D01*
X275927109Y-150032544D02*
X275927109Y-147432544D01*
X272127109Y-147432544D02*
G75*
G02*
X272327109Y-147232544I200000J0D01*
G01*
X272327109Y-150232544D02*
G75*
G02*
X272127109Y-150032544I0J200000D01*
G01*
X275727109Y-147232544D02*
G75*
G02*
X275927109Y-147432544I-1J-200001D01*
G01*
X275927109Y-150032544D02*
G75*
G02*
X275727109Y-150232544I-200001J1D01*
G01*
X272127109Y-90282544D02*
X272127109Y-92882544D01*
X272327109Y-93082544D02*
X275727109Y-93082544D01*
X275727109Y-90082544D02*
X272327109Y-90082544D01*
X275927109Y-92882544D02*
X275927109Y-90282544D01*
X272127109Y-90282544D02*
G75*
G02*
X272327109Y-90082544I200000J0D01*
G01*
X272327109Y-93082544D02*
G75*
G02*
X272127109Y-92882544I0J200000D01*
G01*
X275727109Y-90082544D02*
G75*
G02*
X275927109Y-90282544I-1J-200001D01*
G01*
X275927109Y-92882544D02*
G75*
G02*
X275727109Y-93082544I-200001J1D01*
G01*
X234027109Y-90282544D02*
X234027109Y-92882544D01*
X234227109Y-93082544D02*
X237627109Y-93082544D01*
X237627109Y-90082544D02*
X234227109Y-90082544D01*
X237827109Y-92882544D02*
X237827109Y-90282544D01*
X234027109Y-90282544D02*
G75*
G02*
X234227109Y-90082544I200000J0D01*
G01*
X234227109Y-93082544D02*
G75*
G02*
X234027109Y-92882544I0J200000D01*
G01*
X237627109Y-90082544D02*
G75*
G02*
X237827109Y-90282544I-1J-200001D01*
G01*
X237827109Y-92882544D02*
G75*
G02*
X237627109Y-93082544I-200001J1D01*
G01*
X195927109Y-140907544D02*
X195927109Y-143507544D01*
X196127109Y-143707544D02*
X199527109Y-143707544D01*
X199527109Y-140707544D02*
X196127109Y-140707544D01*
X199727109Y-143507544D02*
X199727109Y-140907544D01*
X195927109Y-140907544D02*
G75*
G02*
X196127109Y-140707544I200000J0D01*
G01*
X196127109Y-143707544D02*
G75*
G02*
X195927109Y-143507544I0J200000D01*
G01*
X199527109Y-140707544D02*
G75*
G02*
X199727109Y-140907544I-1J-200001D01*
G01*
X199727109Y-143507544D02*
G75*
G02*
X199527109Y-143707544I-200001J1D01*
G01*
D20*
X307577109Y-151652544D02*
G75*
G02*
X305677109Y-151652544I-950000J0D01*
G01*
X305677109Y-151652544D02*
G75*
G02*
X307577109Y-151652544I950000J0D01*
G01*
D21*
X313652109Y-145752544D02*
G75*
G02*
X310602109Y-145752544I-1525000J0D01*
G01*
X310602109Y-145752544D02*
G75*
G02*
X313652109Y-145752544I1525000J0D01*
G01*
X318652109Y-147852544D02*
G75*
G02*
X315602109Y-147852544I-1525000J0D01*
G01*
X315602109Y-147852544D02*
G75*
G02*
X318652109Y-147852544I1525000J0D01*
G01*
D20*
X318577109Y-151652544D02*
G75*
G02*
X316677109Y-151652544I-950000J0D01*
G01*
X316677109Y-151652544D02*
G75*
G02*
X318577109Y-151652544I950000J0D01*
G01*
X240902109Y-162702544D02*
G75*
G02*
X239002109Y-162702544I-950000J0D01*
G01*
X239002109Y-162702544D02*
G75*
G02*
X240902109Y-162702544I950000J0D01*
G01*
D21*
X246977109Y-156802544D02*
G75*
G02*
X243927109Y-156802544I-1525000J0D01*
G01*
X243927109Y-156802544D02*
G75*
G02*
X246977109Y-156802544I1525000J0D01*
G01*
X251977109Y-158902544D02*
G75*
G02*
X248927109Y-158902544I-1525000J0D01*
G01*
X248927109Y-158902544D02*
G75*
G02*
X251977109Y-158902544I1525000J0D01*
G01*
D20*
X251902109Y-162702544D02*
G75*
G02*
X250002109Y-162702544I-950000J0D01*
G01*
X250002109Y-162702544D02*
G75*
G02*
X251902109Y-162702544I950000J0D01*
G01*
X231377109Y-105552544D02*
G75*
G02*
X229477109Y-105552544I-950000J0D01*
G01*
X229477109Y-105552544D02*
G75*
G02*
X231377109Y-105552544I950000J0D01*
G01*
D21*
X237452109Y-99652544D02*
G75*
G02*
X234402109Y-99652544I-1525000J0D01*
G01*
X234402109Y-99652544D02*
G75*
G02*
X237452109Y-99652544I1525000J0D01*
G01*
X242452109Y-101752544D02*
G75*
G02*
X239402109Y-101752544I-1525000J0D01*
G01*
X239402109Y-101752544D02*
G75*
G02*
X242452109Y-101752544I1525000J0D01*
G01*
D20*
X242377109Y-105552544D02*
G75*
G02*
X240477109Y-105552544I-950000J0D01*
G01*
X240477109Y-105552544D02*
G75*
G02*
X242377109Y-105552544I950000J0D01*
G01*
X288527109Y-129602544D02*
G75*
G02*
X286627109Y-129602544I-950000J0D01*
G01*
X286627109Y-129602544D02*
G75*
G02*
X288527109Y-129602544I950000J0D01*
G01*
D21*
X294602109Y-123702544D02*
G75*
G02*
X291552109Y-123702544I-1525000J0D01*
G01*
X291552109Y-123702544D02*
G75*
G02*
X294602109Y-123702544I1525000J0D01*
G01*
X299602109Y-125802544D02*
G75*
G02*
X296552109Y-125802544I-1525000J0D01*
G01*
X296552109Y-125802544D02*
G75*
G02*
X299602109Y-125802544I1525000J0D01*
G01*
D20*
X299527109Y-129602544D02*
G75*
G02*
X297627109Y-129602544I-950000J0D01*
G01*
X297627109Y-129602544D02*
G75*
G02*
X299527109Y-129602544I950000J0D01*
G01*
X307577109Y-94502544D02*
G75*
G02*
X305677109Y-94502544I-950000J0D01*
G01*
X305677109Y-94502544D02*
G75*
G02*
X307577109Y-94502544I950000J0D01*
G01*
D21*
X313652109Y-88602544D02*
G75*
G02*
X310602109Y-88602544I-1525000J0D01*
G01*
X310602109Y-88602544D02*
G75*
G02*
X313652109Y-88602544I1525000J0D01*
G01*
X318652109Y-90702544D02*
G75*
G02*
X315602109Y-90702544I-1525000J0D01*
G01*
X315602109Y-90702544D02*
G75*
G02*
X318652109Y-90702544I1525000J0D01*
G01*
D20*
X318577109Y-94502544D02*
G75*
G02*
X316677109Y-94502544I-950000J0D01*
G01*
X316677109Y-94502544D02*
G75*
G02*
X318577109Y-94502544I950000J0D01*
G01*
X269477109Y-143652544D02*
G75*
G02*
X267577109Y-143652544I-950000J0D01*
G01*
X267577109Y-143652544D02*
G75*
G02*
X269477109Y-143652544I950000J0D01*
G01*
D21*
X275552109Y-137752544D02*
G75*
G02*
X272502109Y-137752544I-1525000J0D01*
G01*
X272502109Y-137752544D02*
G75*
G02*
X275552109Y-137752544I1525000J0D01*
G01*
X280552109Y-139852544D02*
G75*
G02*
X277502109Y-139852544I-1525000J0D01*
G01*
X277502109Y-139852544D02*
G75*
G02*
X280552109Y-139852544I1525000J0D01*
G01*
D20*
X280477109Y-143652544D02*
G75*
G02*
X278577109Y-143652544I-950000J0D01*
G01*
X278577109Y-143652544D02*
G75*
G02*
X280477109Y-143652544I950000J0D01*
G01*
X250427109Y-84502544D02*
G75*
G02*
X248527109Y-84502544I-950000J0D01*
G01*
X248527109Y-84502544D02*
G75*
G02*
X250427109Y-84502544I950000J0D01*
G01*
D21*
X256502109Y-78602544D02*
G75*
G02*
X253452109Y-78602544I-1525000J0D01*
G01*
X253452109Y-78602544D02*
G75*
G02*
X256502109Y-78602544I1525000J0D01*
G01*
X261502109Y-80702544D02*
G75*
G02*
X258452109Y-80702544I-1525000J0D01*
G01*
X258452109Y-80702544D02*
G75*
G02*
X261502109Y-80702544I1525000J0D01*
G01*
D20*
X261427109Y-84502544D02*
G75*
G02*
X259527109Y-84502544I-950000J0D01*
G01*
X259527109Y-84502544D02*
G75*
G02*
X261427109Y-84502544I950000J0D01*
G01*
X250427109Y-122602544D02*
G75*
G02*
X248527109Y-122602544I-950000J0D01*
G01*
X248527109Y-122602544D02*
G75*
G02*
X250427109Y-122602544I950000J0D01*
G01*
D21*
X256502109Y-116702544D02*
G75*
G02*
X253452109Y-116702544I-1525000J0D01*
G01*
X253452109Y-116702544D02*
G75*
G02*
X256502109Y-116702544I1525000J0D01*
G01*
X261502109Y-118802544D02*
G75*
G02*
X258452109Y-118802544I-1525000J0D01*
G01*
X258452109Y-118802544D02*
G75*
G02*
X261502109Y-118802544I1525000J0D01*
G01*
D20*
X261427109Y-122602544D02*
G75*
G02*
X259527109Y-122602544I-950000J0D01*
G01*
X259527109Y-122602544D02*
G75*
G02*
X261427109Y-122602544I950000J0D01*
G01*
X221852109Y-165702544D02*
G75*
G02*
X219952109Y-165702544I-950000J0D01*
G01*
X219952109Y-165702544D02*
G75*
G02*
X221852109Y-165702544I950000J0D01*
G01*
D21*
X227927109Y-159802544D02*
G75*
G02*
X224877109Y-159802544I-1525000J0D01*
G01*
X224877109Y-159802544D02*
G75*
G02*
X227927109Y-159802544I1525000J0D01*
G01*
X232927109Y-161902544D02*
G75*
G02*
X229877109Y-161902544I-1525000J0D01*
G01*
X229877109Y-161902544D02*
G75*
G02*
X232927109Y-161902544I1525000J0D01*
G01*
D20*
X232852109Y-165702544D02*
G75*
G02*
X230952109Y-165702544I-950000J0D01*
G01*
X230952109Y-165702544D02*
G75*
G02*
X232852109Y-165702544I950000J0D01*
G01*
X212327109Y-108552544D02*
G75*
G02*
X210427109Y-108552544I-950000J0D01*
G01*
X210427109Y-108552544D02*
G75*
G02*
X212327109Y-108552544I950000J0D01*
G01*
D21*
X218402109Y-102652544D02*
G75*
G02*
X215352109Y-102652544I-1525000J0D01*
G01*
X215352109Y-102652544D02*
G75*
G02*
X218402109Y-102652544I1525000J0D01*
G01*
X223402109Y-104752544D02*
G75*
G02*
X220352109Y-104752544I-1525000J0D01*
G01*
X220352109Y-104752544D02*
G75*
G02*
X223402109Y-104752544I1525000J0D01*
G01*
D20*
X223327109Y-108552544D02*
G75*
G02*
X221427109Y-108552544I-950000J0D01*
G01*
X221427109Y-108552544D02*
G75*
G02*
X223327109Y-108552544I950000J0D01*
G01*
X231377109Y-143652544D02*
G75*
G02*
X229477109Y-143652544I-950000J0D01*
G01*
X229477109Y-143652544D02*
G75*
G02*
X231377109Y-143652544I950000J0D01*
G01*
D21*
X237452109Y-137752544D02*
G75*
G02*
X234402109Y-137752544I-1525000J0D01*
G01*
X234402109Y-137752544D02*
G75*
G02*
X237452109Y-137752544I1525000J0D01*
G01*
X242452109Y-139852544D02*
G75*
G02*
X239402109Y-139852544I-1525000J0D01*
G01*
X239402109Y-139852544D02*
G75*
G02*
X242452109Y-139852544I1525000J0D01*
G01*
D20*
X242377109Y-143652544D02*
G75*
G02*
X240477109Y-143652544I-950000J0D01*
G01*
X240477109Y-143652544D02*
G75*
G02*
X242377109Y-143652544I950000J0D01*
G01*
X193277109Y-137127544D02*
G75*
G02*
X191377109Y-137127544I-950000J0D01*
G01*
X191377109Y-137127544D02*
G75*
G02*
X193277109Y-137127544I950000J0D01*
G01*
D21*
X199352109Y-131227544D02*
G75*
G02*
X196302109Y-131227544I-1525000J0D01*
G01*
X196302109Y-131227544D02*
G75*
G02*
X199352109Y-131227544I1525000J0D01*
G01*
X204352109Y-133327544D02*
G75*
G02*
X201302109Y-133327544I-1525000J0D01*
G01*
X201302109Y-133327544D02*
G75*
G02*
X204352109Y-133327544I1525000J0D01*
G01*
D20*
X204277109Y-137127544D02*
G75*
G02*
X202377109Y-137127544I-950000J0D01*
G01*
X202377109Y-137127544D02*
G75*
G02*
X204277109Y-137127544I950000J0D01*
G01*
X269477109Y-124602544D02*
G75*
G02*
X267577109Y-124602544I-950000J0D01*
G01*
X267577109Y-124602544D02*
G75*
G02*
X269477109Y-124602544I950000J0D01*
G01*
D21*
X275552109Y-118702544D02*
G75*
G02*
X272502109Y-118702544I-1525000J0D01*
G01*
X272502109Y-118702544D02*
G75*
G02*
X275552109Y-118702544I1525000J0D01*
G01*
X280552109Y-120802544D02*
G75*
G02*
X277502109Y-120802544I-1525000J0D01*
G01*
X277502109Y-120802544D02*
G75*
G02*
X280552109Y-120802544I1525000J0D01*
G01*
D20*
X280477109Y-124602544D02*
G75*
G02*
X278577109Y-124602544I-950000J0D01*
G01*
X278577109Y-124602544D02*
G75*
G02*
X280477109Y-124602544I950000J0D01*
G01*
X231377109Y-124602544D02*
G75*
G02*
X229477109Y-124602544I-950000J0D01*
G01*
X229477109Y-124602544D02*
G75*
G02*
X231377109Y-124602544I950000J0D01*
G01*
D21*
X237452109Y-118702544D02*
G75*
G02*
X234402109Y-118702544I-1525000J0D01*
G01*
X234402109Y-118702544D02*
G75*
G02*
X237452109Y-118702544I1525000J0D01*
G01*
X242452109Y-120802544D02*
G75*
G02*
X239402109Y-120802544I-1525000J0D01*
G01*
X239402109Y-120802544D02*
G75*
G02*
X242452109Y-120802544I1525000J0D01*
G01*
D20*
X242377109Y-124602544D02*
G75*
G02*
X240477109Y-124602544I-950000J0D01*
G01*
X240477109Y-124602544D02*
G75*
G02*
X242377109Y-124602544I950000J0D01*
G01*
X250427109Y-103552544D02*
G75*
G02*
X248527109Y-103552544I-950000J0D01*
G01*
X248527109Y-103552544D02*
G75*
G02*
X250427109Y-103552544I950000J0D01*
G01*
D21*
X256502109Y-97652544D02*
G75*
G02*
X253452109Y-97652544I-1525000J0D01*
G01*
X253452109Y-97652544D02*
G75*
G02*
X256502109Y-97652544I1525000J0D01*
G01*
X261502109Y-99752544D02*
G75*
G02*
X258452109Y-99752544I-1525000J0D01*
G01*
X258452109Y-99752544D02*
G75*
G02*
X261502109Y-99752544I1525000J0D01*
G01*
D20*
X261427109Y-103552544D02*
G75*
G02*
X259527109Y-103552544I-950000J0D01*
G01*
X259527109Y-103552544D02*
G75*
G02*
X261427109Y-103552544I950000J0D01*
G01*
D22*
X253077109Y-88282544D02*
X253077109Y-90882544D01*
X253277109Y-91082544D02*
X256677109Y-91082544D01*
X256677109Y-88082544D02*
X253277109Y-88082544D01*
X256877109Y-90882544D02*
X256877109Y-88282544D01*
X253077109Y-88282544D02*
G75*
G02*
X253277109Y-88082544I200000J0D01*
G01*
X253277109Y-91082544D02*
G75*
G02*
X253077109Y-90882544I0J200000D01*
G01*
X256677109Y-88082544D02*
G75*
G02*
X256877109Y-88282544I-1J-200001D01*
G01*
X256877109Y-90882544D02*
G75*
G02*
X256677109Y-91082544I-200001J1D01*
G01*
X224502109Y-169482544D02*
X224502109Y-172082544D01*
X224702109Y-172282544D02*
X228102109Y-172282544D01*
X228102109Y-169282544D02*
X224702109Y-169282544D01*
X228302109Y-172082544D02*
X228302109Y-169482544D01*
X224502109Y-169482544D02*
G75*
G02*
X224702109Y-169282544I200000J0D01*
G01*
X224702109Y-172282544D02*
G75*
G02*
X224502109Y-172082544I0J200000D01*
G01*
X228102109Y-169282544D02*
G75*
G02*
X228302109Y-169482544I-1J-200001D01*
G01*
X228302109Y-172082544D02*
G75*
G02*
X228102109Y-172282544I-200001J1D01*
G01*
X214977109Y-93282544D02*
X214977109Y-95882544D01*
X215177109Y-96082544D02*
X218577109Y-96082544D01*
X218577109Y-93082544D02*
X215177109Y-93082544D01*
X218777109Y-95882544D02*
X218777109Y-93282544D01*
X214977109Y-93282544D02*
G75*
G02*
X215177109Y-93082544I200000J0D01*
G01*
X215177109Y-96082544D02*
G75*
G02*
X214977109Y-95882544I0J200000D01*
G01*
X218577109Y-93082544D02*
G75*
G02*
X218777109Y-93282544I-1J-200001D01*
G01*
X218777109Y-95882544D02*
G75*
G02*
X218577109Y-96082544I-200001J1D01*
G01*
X310227109Y-155432544D02*
X310227109Y-158032544D01*
X310427109Y-158232544D02*
X313827109Y-158232544D01*
X313827109Y-155232544D02*
X310427109Y-155232544D01*
X314027109Y-158032544D02*
X314027109Y-155432544D01*
X310227109Y-155432544D02*
G75*
G02*
X310427109Y-155232544I200000J0D01*
G01*
X310427109Y-158232544D02*
G75*
G02*
X310227109Y-158032544I0J200000D01*
G01*
X313827109Y-155232544D02*
G75*
G02*
X314027109Y-155432544I-1J-200001D01*
G01*
X314027109Y-158032544D02*
G75*
G02*
X313827109Y-158232544I-200001J1D01*
G01*
X253077109Y-145432544D02*
X253077109Y-148032544D01*
X253277109Y-148232544D02*
X256677109Y-148232544D01*
X256677109Y-145232544D02*
X253277109Y-145232544D01*
X256877109Y-148032544D02*
X256877109Y-145432544D01*
X253077109Y-145432544D02*
G75*
G02*
X253277109Y-145232544I200000J0D01*
G01*
X253277109Y-148232544D02*
G75*
G02*
X253077109Y-148032544I0J200000D01*
G01*
X256677109Y-145232544D02*
G75*
G02*
X256877109Y-145432544I-1J-200001D01*
G01*
X256877109Y-148032544D02*
G75*
G02*
X256677109Y-148232544I-200001J1D01*
G01*
X234027109Y-109332544D02*
X234027109Y-111932544D01*
X234227109Y-112132544D02*
X237627109Y-112132544D01*
X237627109Y-109132544D02*
X234227109Y-109132544D01*
X237827109Y-111932544D02*
X237827109Y-109332544D01*
X234027109Y-109332544D02*
G75*
G02*
X234227109Y-109132544I200000J0D01*
G01*
X234227109Y-112132544D02*
G75*
G02*
X234027109Y-111932544I0J200000D01*
G01*
X237627109Y-109132544D02*
G75*
G02*
X237827109Y-109332544I-1J-200001D01*
G01*
X237827109Y-111932544D02*
G75*
G02*
X237627109Y-112132544I-200001J1D01*
G01*
X310227109Y-98282544D02*
X310227109Y-100882544D01*
X310427109Y-101082544D02*
X313827109Y-101082544D01*
X313827109Y-98082544D02*
X310427109Y-98082544D01*
X314027109Y-100882544D02*
X314027109Y-98282544D01*
X310227109Y-98282544D02*
G75*
G02*
X310427109Y-98082544I200000J0D01*
G01*
X310427109Y-101082544D02*
G75*
G02*
X310227109Y-100882544I0J200000D01*
G01*
X313827109Y-98082544D02*
G75*
G02*
X314027109Y-98282544I-1J-200001D01*
G01*
X314027109Y-100882544D02*
G75*
G02*
X313827109Y-101082544I-200001J1D01*
G01*
D21*
X206527109Y-117402544D02*
G75*
G02*
X204127109Y-117402544I-1200000J0D01*
G01*
X204127109Y-117402544D02*
G75*
G02*
X206527109Y-117402544I1200000J0D01*
G01*
D22*
X272127109Y-128382544D02*
X272127109Y-130982544D01*
X272327109Y-131182544D02*
X275727109Y-131182544D01*
X275727109Y-128182544D02*
X272327109Y-128182544D01*
X275927109Y-130982544D02*
X275927109Y-128382544D01*
X272127109Y-128382544D02*
G75*
G02*
X272327109Y-128182544I200000J0D01*
G01*
X272327109Y-131182544D02*
G75*
G02*
X272127109Y-130982544I0J200000D01*
G01*
X275727109Y-128182544D02*
G75*
G02*
X275927109Y-128382544I-1J-200001D01*
G01*
X275927109Y-130982544D02*
G75*
G02*
X275727109Y-131182544I-200001J1D01*
G01*
X253077109Y-107332544D02*
X253077109Y-109932544D01*
X253277109Y-110132544D02*
X256677109Y-110132544D01*
X256677109Y-107132544D02*
X253277109Y-107132544D01*
X256877109Y-109932544D02*
X256877109Y-107332544D01*
X253077109Y-107332544D02*
G75*
G02*
X253277109Y-107132544I200000J0D01*
G01*
X253277109Y-110132544D02*
G75*
G02*
X253077109Y-109932544I0J200000D01*
G01*
X256677109Y-107132544D02*
G75*
G02*
X256877109Y-107332544I-1J-200001D01*
G01*
X256877109Y-109932544D02*
G75*
G02*
X256677109Y-110132544I-200001J1D01*
G01*
X291177109Y-95282544D02*
X291177109Y-97882544D01*
X291377109Y-98082544D02*
X294777109Y-98082544D01*
X294777109Y-95082544D02*
X291377109Y-95082544D01*
X294977109Y-97882544D02*
X294977109Y-95282544D01*
X291177109Y-95282544D02*
G75*
G02*
X291377109Y-95082544I200000J0D01*
G01*
X291377109Y-98082544D02*
G75*
G02*
X291177109Y-97882544I0J200000D01*
G01*
X294777109Y-95082544D02*
G75*
G02*
X294977109Y-95282544I-1J-200001D01*
G01*
X294977109Y-97882544D02*
G75*
G02*
X294777109Y-98082544I-200001J1D01*
G01*
X214977109Y-131382544D02*
X214977109Y-133982544D01*
X215177109Y-134182544D02*
X218577109Y-134182544D01*
X218577109Y-131182544D02*
X215177109Y-131182544D01*
X218777109Y-133982544D02*
X218777109Y-131382544D01*
X214977109Y-131382544D02*
G75*
G02*
X215177109Y-131182544I200000J0D01*
G01*
X215177109Y-134182544D02*
G75*
G02*
X214977109Y-133982544I0J200000D01*
G01*
X218577109Y-131182544D02*
G75*
G02*
X218777109Y-131382544I-1J-200001D01*
G01*
X218777109Y-133982544D02*
G75*
G02*
X218577109Y-134182544I-200001J1D01*
G01*
X310227109Y-136382544D02*
X310227109Y-138982544D01*
X310427109Y-139182544D02*
X313827109Y-139182544D01*
X313827109Y-136182544D02*
X310427109Y-136182544D01*
X314027109Y-138982544D02*
X314027109Y-136382544D01*
X310227109Y-136382544D02*
G75*
G02*
X310427109Y-136182544I200000J0D01*
G01*
X310427109Y-139182544D02*
G75*
G02*
X310227109Y-138982544I0J200000D01*
G01*
X313827109Y-136182544D02*
G75*
G02*
X314027109Y-136382544I-1J-200001D01*
G01*
X314027109Y-138982544D02*
G75*
G02*
X313827109Y-139182544I-200001J1D01*
G01*
X291177109Y-133382544D02*
X291177109Y-135982544D01*
X291377109Y-136182544D02*
X294777109Y-136182544D01*
X294777109Y-133182544D02*
X291377109Y-133182544D01*
X294977109Y-135982544D02*
X294977109Y-133382544D01*
X291177109Y-133382544D02*
G75*
G02*
X291377109Y-133182544I200000J0D01*
G01*
X291377109Y-136182544D02*
G75*
G02*
X291177109Y-135982544I0J200000D01*
G01*
X294777109Y-133182544D02*
G75*
G02*
X294977109Y-133382544I-1J-200001D01*
G01*
X294977109Y-135982544D02*
G75*
G02*
X294777109Y-136182544I-200001J1D01*
G01*
X291177109Y-152432544D02*
X291177109Y-155032544D01*
X291377109Y-155232544D02*
X294777109Y-155232544D01*
X294777109Y-152232544D02*
X291377109Y-152232544D01*
X294977109Y-155032544D02*
X294977109Y-152432544D01*
X291177109Y-152432544D02*
G75*
G02*
X291377109Y-152232544I200000J0D01*
G01*
X291377109Y-155232544D02*
G75*
G02*
X291177109Y-155032544I0J200000D01*
G01*
X294777109Y-152232544D02*
G75*
G02*
X294977109Y-152432544I-1J-200001D01*
G01*
X294977109Y-155032544D02*
G75*
G02*
X294777109Y-155232544I-200001J1D01*
G01*
X194821841Y-167591141D02*
X196258743Y-170672588D01*
X196524529Y-170769326D02*
X198880929Y-169670518D01*
X197274979Y-166226548D02*
X194918579Y-167325356D01*
X198977667Y-169404733D02*
X197540765Y-166323286D01*
X194821841Y-167591141D02*
G75*
G02*
X194918579Y-167325356I181262J84523D01*
G01*
X196524529Y-170769326D02*
G75*
G02*
X196258744Y-170672587I-84523J181262D01*
G01*
X197274979Y-166226548D02*
G75*
G02*
X197540765Y-166323286I84524J-181262D01*
G01*
X198977667Y-169404733D02*
G75*
G02*
X198880929Y-169670518I-181263J-84523D01*
G01*
D20*
X288527109Y-110552544D02*
G75*
G02*
X286627109Y-110552544I-950000J0D01*
G01*
X286627109Y-110552544D02*
G75*
G02*
X288527109Y-110552544I950000J0D01*
G01*
D21*
X294602109Y-104652544D02*
G75*
G02*
X291552109Y-104652544I-1525000J0D01*
G01*
X291552109Y-104652544D02*
G75*
G02*
X294602109Y-104652544I1525000J0D01*
G01*
X299602109Y-106752544D02*
G75*
G02*
X296552109Y-106752544I-1525000J0D01*
G01*
X296552109Y-106752544D02*
G75*
G02*
X299602109Y-106752544I1525000J0D01*
G01*
D20*
X299527109Y-110552544D02*
G75*
G02*
X297627109Y-110552544I-950000J0D01*
G01*
X297627109Y-110552544D02*
G75*
G02*
X299527109Y-110552544I950000J0D01*
G01*
X269477109Y-105552544D02*
G75*
G02*
X267577109Y-105552544I-950000J0D01*
G01*
X267577109Y-105552544D02*
G75*
G02*
X269477109Y-105552544I950000J0D01*
G01*
D21*
X275552109Y-99652544D02*
G75*
G02*
X272502109Y-99652544I-1525000J0D01*
G01*
X272502109Y-99652544D02*
G75*
G02*
X275552109Y-99652544I1525000J0D01*
G01*
X280552109Y-101752544D02*
G75*
G02*
X277502109Y-101752544I-1525000J0D01*
G01*
X277502109Y-101752544D02*
G75*
G02*
X280552109Y-101752544I1525000J0D01*
G01*
D20*
X280477109Y-105552544D02*
G75*
G02*
X278577109Y-105552544I-950000J0D01*
G01*
X278577109Y-105552544D02*
G75*
G02*
X280477109Y-105552544I950000J0D01*
G01*
D22*
X214977109Y-150432544D02*
X214977109Y-153032544D01*
X215177109Y-153232544D02*
X218577109Y-153232544D01*
X218577109Y-150232544D02*
X215177109Y-150232544D01*
X218777109Y-153032544D02*
X218777109Y-150432544D01*
X214977109Y-150432544D02*
G75*
G02*
X215177109Y-150232544I200000J0D01*
G01*
X215177109Y-153232544D02*
G75*
G02*
X214977109Y-153032544I0J200000D01*
G01*
X218577109Y-150232544D02*
G75*
G02*
X218777109Y-150432544I-1J-200001D01*
G01*
X218777109Y-153032544D02*
G75*
G02*
X218577109Y-153232544I-200001J1D01*
G01*
X214977109Y-112332544D02*
X214977109Y-114932544D01*
X215177109Y-115132544D02*
X218577109Y-115132544D01*
X218577109Y-112132544D02*
X215177109Y-112132544D01*
X218777109Y-114932544D02*
X218777109Y-112332544D01*
X214977109Y-112332544D02*
G75*
G02*
X215177109Y-112132544I200000J0D01*
G01*
X215177109Y-115132544D02*
G75*
G02*
X214977109Y-114932544I0J200000D01*
G01*
X218577109Y-112132544D02*
G75*
G02*
X218777109Y-112332544I-1J-200001D01*
G01*
X218777109Y-114932544D02*
G75*
G02*
X218577109Y-115132544I-200001J1D01*
G01*
X234027109Y-128382544D02*
X234027109Y-130982544D01*
X234227109Y-131182544D02*
X237627109Y-131182544D01*
X237627109Y-128182544D02*
X234227109Y-128182544D01*
X237827109Y-130982544D02*
X237827109Y-128382544D01*
X234027109Y-128382544D02*
G75*
G02*
X234227109Y-128182544I200000J0D01*
G01*
X234227109Y-131182544D02*
G75*
G02*
X234027109Y-130982544I0J200000D01*
G01*
X237627109Y-128182544D02*
G75*
G02*
X237827109Y-128382544I-1J-200001D01*
G01*
X237827109Y-130982544D02*
G75*
G02*
X237627109Y-131182544I-200001J1D01*
G01*
X262602109Y-166482544D02*
X262602109Y-169082544D01*
X262802109Y-169282544D02*
X266202109Y-169282544D01*
X266202109Y-166282544D02*
X262802109Y-166282544D01*
X266402109Y-169082544D02*
X266402109Y-166482544D01*
X262602109Y-166482544D02*
G75*
G02*
X262802109Y-166282544I200000J0D01*
G01*
X262802109Y-169282544D02*
G75*
G02*
X262602109Y-169082544I0J200000D01*
G01*
X266202109Y-166282544D02*
G75*
G02*
X266402109Y-166482544I-1J-200001D01*
G01*
X266402109Y-169082544D02*
G75*
G02*
X266202109Y-169282544I-200001J1D01*
G01*
X310227109Y-117332544D02*
X310227109Y-119932544D01*
X310427109Y-120132544D02*
X313827109Y-120132544D01*
X313827109Y-117132544D02*
X310427109Y-117132544D01*
X314027109Y-119932544D02*
X314027109Y-117332544D01*
X310227109Y-117332544D02*
G75*
G02*
X310427109Y-117132544I200000J0D01*
G01*
X310427109Y-120132544D02*
G75*
G02*
X310227109Y-119932544I0J200000D01*
G01*
X313827109Y-117132544D02*
G75*
G02*
X314027109Y-117332544I-1J-200001D01*
G01*
X314027109Y-119932544D02*
G75*
G02*
X313827109Y-120132544I-200001J1D01*
G01*
X243552109Y-166482544D02*
X243552109Y-169082544D01*
X243752109Y-169282544D02*
X247152109Y-169282544D01*
X247152109Y-166282544D02*
X243752109Y-166282544D01*
X247352109Y-169082544D02*
X247352109Y-166482544D01*
X243552109Y-166482544D02*
G75*
G02*
X243752109Y-166282544I200000J0D01*
G01*
X243752109Y-169282544D02*
G75*
G02*
X243552109Y-169082544I0J200000D01*
G01*
X247152109Y-166282544D02*
G75*
G02*
X247352109Y-166482544I-1J-200001D01*
G01*
X247352109Y-169082544D02*
G75*
G02*
X247152109Y-169282544I-200001J1D01*
G01*
X291177109Y-114332544D02*
X291177109Y-116932544D01*
X291377109Y-117132544D02*
X294777109Y-117132544D01*
X294777109Y-114132544D02*
X291377109Y-114132544D01*
X294977109Y-116932544D02*
X294977109Y-114332544D01*
X291177109Y-114332544D02*
G75*
G02*
X291377109Y-114132544I200000J0D01*
G01*
X291377109Y-117132544D02*
G75*
G02*
X291177109Y-116932544I0J200000D01*
G01*
X294777109Y-114132544D02*
G75*
G02*
X294977109Y-114332544I-1J-200001D01*
G01*
X294977109Y-116932544D02*
G75*
G02*
X294777109Y-117132544I-200001J1D01*
G01*
X234027109Y-147432544D02*
X234027109Y-150032544D01*
X234227109Y-150232544D02*
X237627109Y-150232544D01*
X237627109Y-147232544D02*
X234227109Y-147232544D01*
X237827109Y-150032544D02*
X237827109Y-147432544D01*
X234027109Y-147432544D02*
G75*
G02*
X234227109Y-147232544I200000J0D01*
G01*
X234227109Y-150232544D02*
G75*
G02*
X234027109Y-150032544I0J200000D01*
G01*
X237627109Y-147232544D02*
G75*
G02*
X237827109Y-147432544I-1J-200001D01*
G01*
X237827109Y-150032544D02*
G75*
G02*
X237627109Y-150232544I-200001J1D01*
G01*
D21*
X67622196Y-171423134D02*
G75*
G02*
X63022196Y-171423134I-2300000J0D01*
G01*
X63022196Y-171423134D02*
G75*
G02*
X67622196Y-171423134I2300000J0D01*
G01*
X67622196Y-192636334D02*
G75*
G02*
X63022196Y-192636334I-2300000J0D01*
G01*
X63022196Y-192636334D02*
G75*
G02*
X67622196Y-192636334I2300000J0D01*
G01*
X73546816Y-178847754D02*
G75*
G02*
X71946816Y-178847754I-800000J0D01*
G01*
X71946816Y-178847754D02*
G75*
G02*
X73546816Y-178847754I800000J0D01*
G01*
X79910776Y-185211714D02*
G75*
G02*
X78310776Y-185211714I-800000J0D01*
G01*
X78310776Y-185211714D02*
G75*
G02*
X79910776Y-185211714I800000J0D01*
G01*
X88835396Y-171423134D02*
G75*
G02*
X84235396Y-171423134I-2300000J0D01*
G01*
X84235396Y-171423134D02*
G75*
G02*
X88835396Y-171423134I2300000J0D01*
G01*
X88835396Y-192636334D02*
G75*
G02*
X84235396Y-192636334I-2300000J0D01*
G01*
X84235396Y-192636334D02*
G75*
G02*
X88835396Y-192636334I2300000J0D01*
G01*
D20*
X70451607Y-149102544D02*
G75*
G02*
X68551607Y-149102544I-950000J0D01*
G01*
X68551607Y-149102544D02*
G75*
G02*
X70451607Y-149102544I950000J0D01*
G01*
D21*
X76526607Y-143202544D02*
G75*
G02*
X73476607Y-143202544I-1525000J0D01*
G01*
X73476607Y-143202544D02*
G75*
G02*
X76526607Y-143202544I1525000J0D01*
G01*
X81526607Y-145302544D02*
G75*
G02*
X78476607Y-145302544I-1525000J0D01*
G01*
X78476607Y-145302544D02*
G75*
G02*
X81526607Y-145302544I1525000J0D01*
G01*
D20*
X81451607Y-149102544D02*
G75*
G02*
X79551607Y-149102544I-950000J0D01*
G01*
X79551607Y-149102544D02*
G75*
G02*
X81451607Y-149102544I950000J0D01*
G01*
X99026607Y-163152544D02*
G75*
G02*
X97126607Y-163152544I-950000J0D01*
G01*
X97126607Y-163152544D02*
G75*
G02*
X99026607Y-163152544I950000J0D01*
G01*
D21*
X105101607Y-157252544D02*
G75*
G02*
X102051607Y-157252544I-1525000J0D01*
G01*
X102051607Y-157252544D02*
G75*
G02*
X105101607Y-157252544I1525000J0D01*
G01*
X110101607Y-159352544D02*
G75*
G02*
X107051607Y-159352544I-1525000J0D01*
G01*
X107051607Y-159352544D02*
G75*
G02*
X110101607Y-159352544I1525000J0D01*
G01*
D20*
X110026607Y-163152544D02*
G75*
G02*
X108126607Y-163152544I-950000J0D01*
G01*
X108126607Y-163152544D02*
G75*
G02*
X110026607Y-163152544I950000J0D01*
G01*
X146651607Y-147102544D02*
G75*
G02*
X144751607Y-147102544I-950000J0D01*
G01*
X144751607Y-147102544D02*
G75*
G02*
X146651607Y-147102544I950000J0D01*
G01*
D21*
X152726607Y-141202544D02*
G75*
G02*
X149676607Y-141202544I-1525000J0D01*
G01*
X149676607Y-141202544D02*
G75*
G02*
X152726607Y-141202544I1525000J0D01*
G01*
X157726607Y-143302544D02*
G75*
G02*
X154676607Y-143302544I-1525000J0D01*
G01*
X154676607Y-143302544D02*
G75*
G02*
X157726607Y-143302544I1525000J0D01*
G01*
D20*
X157651607Y-147102544D02*
G75*
G02*
X155751607Y-147102544I-950000J0D01*
G01*
X155751607Y-147102544D02*
G75*
G02*
X157651607Y-147102544I950000J0D01*
G01*
X89501607Y-106002544D02*
G75*
G02*
X87601607Y-106002544I-950000J0D01*
G01*
X87601607Y-106002544D02*
G75*
G02*
X89501607Y-106002544I950000J0D01*
G01*
D21*
X95576607Y-100102544D02*
G75*
G02*
X92526607Y-100102544I-1525000J0D01*
G01*
X92526607Y-100102544D02*
G75*
G02*
X95576607Y-100102544I1525000J0D01*
G01*
X100576607Y-102202544D02*
G75*
G02*
X97526607Y-102202544I-1525000J0D01*
G01*
X97526607Y-102202544D02*
G75*
G02*
X100576607Y-102202544I1525000J0D01*
G01*
D20*
X100501607Y-106002544D02*
G75*
G02*
X98601607Y-106002544I-950000J0D01*
G01*
X98601607Y-106002544D02*
G75*
G02*
X100501607Y-106002544I950000J0D01*
G01*
X108551607Y-142102544D02*
G75*
G02*
X106651607Y-142102544I-950000J0D01*
G01*
X106651607Y-142102544D02*
G75*
G02*
X108551607Y-142102544I950000J0D01*
G01*
D21*
X114626607Y-136202544D02*
G75*
G02*
X111576607Y-136202544I-1525000J0D01*
G01*
X111576607Y-136202544D02*
G75*
G02*
X114626607Y-136202544I1525000J0D01*
G01*
X119626607Y-138302544D02*
G75*
G02*
X116576607Y-138302544I-1525000J0D01*
G01*
X116576607Y-138302544D02*
G75*
G02*
X119626607Y-138302544I1525000J0D01*
G01*
D20*
X119551607Y-142102544D02*
G75*
G02*
X117651607Y-142102544I-950000J0D01*
G01*
X117651607Y-142102544D02*
G75*
G02*
X119551607Y-142102544I950000J0D01*
G01*
X51401607Y-94952544D02*
G75*
G02*
X49501607Y-94952544I-950000J0D01*
G01*
X49501607Y-94952544D02*
G75*
G02*
X51401607Y-94952544I950000J0D01*
G01*
D21*
X57476607Y-89052544D02*
G75*
G02*
X54426607Y-89052544I-1525000J0D01*
G01*
X54426607Y-89052544D02*
G75*
G02*
X57476607Y-89052544I1525000J0D01*
G01*
X62476607Y-91152544D02*
G75*
G02*
X59426607Y-91152544I-1525000J0D01*
G01*
X59426607Y-91152544D02*
G75*
G02*
X62476607Y-91152544I1525000J0D01*
G01*
D20*
X62401607Y-94952544D02*
G75*
G02*
X60501607Y-94952544I-950000J0D01*
G01*
X60501607Y-94952544D02*
G75*
G02*
X62401607Y-94952544I950000J0D01*
G01*
X89501607Y-86952544D02*
G75*
G02*
X87601607Y-86952544I-950000J0D01*
G01*
X87601607Y-86952544D02*
G75*
G02*
X89501607Y-86952544I950000J0D01*
G01*
D21*
X95576607Y-81052544D02*
G75*
G02*
X92526607Y-81052544I-1525000J0D01*
G01*
X92526607Y-81052544D02*
G75*
G02*
X95576607Y-81052544I1525000J0D01*
G01*
X100576607Y-83152544D02*
G75*
G02*
X97526607Y-83152544I-1525000J0D01*
G01*
X97526607Y-83152544D02*
G75*
G02*
X100576607Y-83152544I1525000J0D01*
G01*
D20*
X100501607Y-86952544D02*
G75*
G02*
X98601607Y-86952544I-950000J0D01*
G01*
X98601607Y-86952544D02*
G75*
G02*
X100501607Y-86952544I950000J0D01*
G01*
X118076607Y-163152544D02*
G75*
G02*
X116176607Y-163152544I-950000J0D01*
G01*
X116176607Y-163152544D02*
G75*
G02*
X118076607Y-163152544I950000J0D01*
G01*
D21*
X124151607Y-157252544D02*
G75*
G02*
X121101607Y-157252544I-1525000J0D01*
G01*
X121101607Y-157252544D02*
G75*
G02*
X124151607Y-157252544I1525000J0D01*
G01*
X129151607Y-159352544D02*
G75*
G02*
X126101607Y-159352544I-1525000J0D01*
G01*
X126101607Y-159352544D02*
G75*
G02*
X129151607Y-159352544I1525000J0D01*
G01*
D20*
X129076607Y-163152544D02*
G75*
G02*
X127176607Y-163152544I-950000J0D01*
G01*
X127176607Y-163152544D02*
G75*
G02*
X129076607Y-163152544I950000J0D01*
G01*
X51401607Y-152102544D02*
G75*
G02*
X49501607Y-152102544I-950000J0D01*
G01*
X49501607Y-152102544D02*
G75*
G02*
X51401607Y-152102544I950000J0D01*
G01*
D21*
X57476607Y-146202544D02*
G75*
G02*
X54426607Y-146202544I-1525000J0D01*
G01*
X54426607Y-146202544D02*
G75*
G02*
X57476607Y-146202544I1525000J0D01*
G01*
X62476607Y-148302544D02*
G75*
G02*
X59426607Y-148302544I-1525000J0D01*
G01*
X59426607Y-148302544D02*
G75*
G02*
X62476607Y-148302544I1525000J0D01*
G01*
D20*
X62401607Y-152102544D02*
G75*
G02*
X60501607Y-152102544I-950000J0D01*
G01*
X60501607Y-152102544D02*
G75*
G02*
X62401607Y-152102544I950000J0D01*
G01*
X127601607Y-144102544D02*
G75*
G02*
X125701607Y-144102544I-950000J0D01*
G01*
X125701607Y-144102544D02*
G75*
G02*
X127601607Y-144102544I950000J0D01*
G01*
D21*
X133676607Y-138202544D02*
G75*
G02*
X130626607Y-138202544I-1525000J0D01*
G01*
X130626607Y-138202544D02*
G75*
G02*
X133676607Y-138202544I1525000J0D01*
G01*
X138676607Y-140302544D02*
G75*
G02*
X135626607Y-140302544I-1525000J0D01*
G01*
X135626607Y-140302544D02*
G75*
G02*
X138676607Y-140302544I1525000J0D01*
G01*
D20*
X138601607Y-144102544D02*
G75*
G02*
X136701607Y-144102544I-950000J0D01*
G01*
X136701607Y-144102544D02*
G75*
G02*
X138601607Y-144102544I950000J0D01*
G01*
X127601607Y-86952544D02*
G75*
G02*
X125701607Y-86952544I-950000J0D01*
G01*
X125701607Y-86952544D02*
G75*
G02*
X127601607Y-86952544I950000J0D01*
G01*
D21*
X133676607Y-81052544D02*
G75*
G02*
X130626607Y-81052544I-1525000J0D01*
G01*
X130626607Y-81052544D02*
G75*
G02*
X133676607Y-81052544I1525000J0D01*
G01*
X138676607Y-83152544D02*
G75*
G02*
X135626607Y-83152544I-1525000J0D01*
G01*
X135626607Y-83152544D02*
G75*
G02*
X138676607Y-83152544I1525000J0D01*
G01*
D20*
X138601607Y-86952544D02*
G75*
G02*
X136701607Y-86952544I-950000J0D01*
G01*
X136701607Y-86952544D02*
G75*
G02*
X138601607Y-86952544I950000J0D01*
G01*
X127601607Y-106002544D02*
G75*
G02*
X125701607Y-106002544I-950000J0D01*
G01*
X125701607Y-106002544D02*
G75*
G02*
X127601607Y-106002544I950000J0D01*
G01*
D21*
X133676607Y-100102544D02*
G75*
G02*
X130626607Y-100102544I-1525000J0D01*
G01*
X130626607Y-100102544D02*
G75*
G02*
X133676607Y-100102544I1525000J0D01*
G01*
X138676607Y-102202544D02*
G75*
G02*
X135626607Y-102202544I-1525000J0D01*
G01*
X135626607Y-102202544D02*
G75*
G02*
X138676607Y-102202544I1525000J0D01*
G01*
D20*
X138601607Y-106002544D02*
G75*
G02*
X136701607Y-106002544I-950000J0D01*
G01*
X136701607Y-106002544D02*
G75*
G02*
X138601607Y-106002544I950000J0D01*
G01*
X70451607Y-130052544D02*
G75*
G02*
X68551607Y-130052544I-950000J0D01*
G01*
X68551607Y-130052544D02*
G75*
G02*
X70451607Y-130052544I950000J0D01*
G01*
D21*
X76526607Y-124152544D02*
G75*
G02*
X73476607Y-124152544I-1525000J0D01*
G01*
X73476607Y-124152544D02*
G75*
G02*
X76526607Y-124152544I1525000J0D01*
G01*
X81526607Y-126252544D02*
G75*
G02*
X78476607Y-126252544I-1525000J0D01*
G01*
X78476607Y-126252544D02*
G75*
G02*
X81526607Y-126252544I1525000J0D01*
G01*
D20*
X81451607Y-130052544D02*
G75*
G02*
X79551607Y-130052544I-950000J0D01*
G01*
X79551607Y-130052544D02*
G75*
G02*
X81451607Y-130052544I950000J0D01*
G01*
D21*
X162752702Y-164307589D02*
G75*
G02*
X159702702Y-164307589I-1525000J0D01*
G01*
X159702702Y-164307589D02*
G75*
G02*
X162752702Y-164307589I1525000J0D01*
G01*
D20*
X165200518Y-171785730D02*
G75*
G02*
X163300518Y-171785730I-950000J0D01*
G01*
X163300518Y-171785730D02*
G75*
G02*
X165200518Y-171785730I950000J0D01*
G01*
D21*
X166769041Y-160663549D02*
G75*
G02*
X163719039Y-160663549I-1525001J0D01*
G01*
X163719039Y-160663549D02*
G75*
G02*
X166769041Y-160663549I1525001J0D01*
G01*
D20*
X169849318Y-161816344D02*
G75*
G02*
X167949318Y-161816344I-950000J0D01*
G01*
X167949318Y-161816344D02*
G75*
G02*
X169849318Y-161816344I950000J0D01*
G01*
X146651607Y-89952544D02*
G75*
G02*
X144751607Y-89952544I-950000J0D01*
G01*
X144751607Y-89952544D02*
G75*
G02*
X146651607Y-89952544I950000J0D01*
G01*
D21*
X152726607Y-84052544D02*
G75*
G02*
X149676607Y-84052544I-1525000J0D01*
G01*
X149676607Y-84052544D02*
G75*
G02*
X152726607Y-84052544I1525000J0D01*
G01*
X157726607Y-86152544D02*
G75*
G02*
X154676607Y-86152544I-1525000J0D01*
G01*
X154676607Y-86152544D02*
G75*
G02*
X157726607Y-86152544I1525000J0D01*
G01*
D20*
X157651607Y-89952544D02*
G75*
G02*
X155751607Y-89952544I-950000J0D01*
G01*
X155751607Y-89952544D02*
G75*
G02*
X157651607Y-89952544I950000J0D01*
G01*
X89501607Y-125052544D02*
G75*
G02*
X87601607Y-125052544I-950000J0D01*
G01*
X87601607Y-125052544D02*
G75*
G02*
X89501607Y-125052544I950000J0D01*
G01*
D21*
X95576607Y-119152544D02*
G75*
G02*
X92526607Y-119152544I-1525000J0D01*
G01*
X92526607Y-119152544D02*
G75*
G02*
X95576607Y-119152544I1525000J0D01*
G01*
X100576607Y-121252544D02*
G75*
G02*
X97526607Y-121252544I-1525000J0D01*
G01*
X97526607Y-121252544D02*
G75*
G02*
X100576607Y-121252544I1525000J0D01*
G01*
D20*
X100501607Y-125052544D02*
G75*
G02*
X98601607Y-125052544I-950000J0D01*
G01*
X98601607Y-125052544D02*
G75*
G02*
X100501607Y-125052544I950000J0D01*
G01*
X165701607Y-137577544D02*
G75*
G02*
X163801607Y-137577544I-950000J0D01*
G01*
X163801607Y-137577544D02*
G75*
G02*
X165701607Y-137577544I950000J0D01*
G01*
D21*
X171776607Y-131677544D02*
G75*
G02*
X168726607Y-131677544I-1525000J0D01*
G01*
X168726607Y-131677544D02*
G75*
G02*
X171776607Y-131677544I1525000J0D01*
G01*
X176776607Y-133777544D02*
G75*
G02*
X173726607Y-133777544I-1525000J0D01*
G01*
X173726607Y-133777544D02*
G75*
G02*
X176776607Y-133777544I1525000J0D01*
G01*
D20*
X176701607Y-137577544D02*
G75*
G02*
X174801607Y-137577544I-950000J0D01*
G01*
X174801607Y-137577544D02*
G75*
G02*
X176701607Y-137577544I950000J0D01*
G01*
X146651607Y-109002544D02*
G75*
G02*
X144751607Y-109002544I-950000J0D01*
G01*
X144751607Y-109002544D02*
G75*
G02*
X146651607Y-109002544I950000J0D01*
G01*
D21*
X152726607Y-103102544D02*
G75*
G02*
X149676607Y-103102544I-1525000J0D01*
G01*
X149676607Y-103102544D02*
G75*
G02*
X152726607Y-103102544I1525000J0D01*
G01*
X157726607Y-105202544D02*
G75*
G02*
X154676607Y-105202544I-1525000J0D01*
G01*
X154676607Y-105202544D02*
G75*
G02*
X157726607Y-105202544I1525000J0D01*
G01*
D20*
X157651607Y-109002544D02*
G75*
G02*
X155751607Y-109002544I-950000J0D01*
G01*
X155751607Y-109002544D02*
G75*
G02*
X157651607Y-109002544I950000J0D01*
G01*
D21*
X167226607Y-137796194D02*
X173226607Y-137796194D01*
X173226607Y-139796194D01*
X167226607Y-139796194D01*
X167226607Y-137796194D01*
D19*
X163951607Y-124521684D02*
G75*
G02*
X161751607Y-124521684I-1100000J0D01*
G01*
X161751607Y-124521684D02*
G75*
G02*
X163951607Y-124521684I1100000J0D01*
G01*
X163951607Y-148270704D02*
G75*
G02*
X161751607Y-148270704I-1100000J0D01*
G01*
X161751607Y-148270704D02*
G75*
G02*
X163951607Y-148270704I1100000J0D01*
G01*
D20*
X51401607Y-133052544D02*
G75*
G02*
X49501607Y-133052544I-950000J0D01*
G01*
X49501607Y-133052544D02*
G75*
G02*
X51401607Y-133052544I950000J0D01*
G01*
D21*
X57476607Y-127152544D02*
G75*
G02*
X54426607Y-127152544I-1525000J0D01*
G01*
X54426607Y-127152544D02*
G75*
G02*
X57476607Y-127152544I1525000J0D01*
G01*
X62476607Y-129252544D02*
G75*
G02*
X59426607Y-129252544I-1525000J0D01*
G01*
X59426607Y-129252544D02*
G75*
G02*
X62476607Y-129252544I1525000J0D01*
G01*
D20*
X62401607Y-133052544D02*
G75*
G02*
X60501607Y-133052544I-950000J0D01*
G01*
X60501607Y-133052544D02*
G75*
G02*
X62401607Y-133052544I950000J0D01*
G01*
X146651607Y-128052544D02*
G75*
G02*
X144751607Y-128052544I-950000J0D01*
G01*
X144751607Y-128052544D02*
G75*
G02*
X146651607Y-128052544I950000J0D01*
G01*
D21*
X152726607Y-122152544D02*
G75*
G02*
X149676607Y-122152544I-1525000J0D01*
G01*
X149676607Y-122152544D02*
G75*
G02*
X152726607Y-122152544I1525000J0D01*
G01*
X157726607Y-124252544D02*
G75*
G02*
X154676607Y-124252544I-1525000J0D01*
G01*
X154676607Y-124252544D02*
G75*
G02*
X157726607Y-124252544I1525000J0D01*
G01*
D20*
X157651607Y-128052544D02*
G75*
G02*
X155751607Y-128052544I-950000J0D01*
G01*
X155751607Y-128052544D02*
G75*
G02*
X157651607Y-128052544I950000J0D01*
G01*
X108551607Y-84952544D02*
G75*
G02*
X106651607Y-84952544I-950000J0D01*
G01*
X106651607Y-84952544D02*
G75*
G02*
X108551607Y-84952544I950000J0D01*
G01*
D21*
X114626607Y-79052544D02*
G75*
G02*
X111576607Y-79052544I-1525000J0D01*
G01*
X111576607Y-79052544D02*
G75*
G02*
X114626607Y-79052544I1525000J0D01*
G01*
X119626607Y-81152544D02*
G75*
G02*
X116576607Y-81152544I-1525000J0D01*
G01*
X116576607Y-81152544D02*
G75*
G02*
X119626607Y-81152544I1525000J0D01*
G01*
D20*
X119551607Y-84952544D02*
G75*
G02*
X117651607Y-84952544I-950000J0D01*
G01*
X117651607Y-84952544D02*
G75*
G02*
X119551607Y-84952544I950000J0D01*
G01*
D21*
X163951607Y-117852544D02*
G75*
G02*
X161551607Y-117852544I-1200000J0D01*
G01*
X161551607Y-117852544D02*
G75*
G02*
X163951607Y-117852544I1200000J0D01*
G01*
D20*
X51401607Y-114002544D02*
G75*
G02*
X49501607Y-114002544I-950000J0D01*
G01*
X49501607Y-114002544D02*
G75*
G02*
X51401607Y-114002544I950000J0D01*
G01*
D21*
X57476607Y-108102544D02*
G75*
G02*
X54426607Y-108102544I-1525000J0D01*
G01*
X54426607Y-108102544D02*
G75*
G02*
X57476607Y-108102544I1525000J0D01*
G01*
X62476607Y-110202544D02*
G75*
G02*
X59426607Y-110202544I-1525000J0D01*
G01*
X59426607Y-110202544D02*
G75*
G02*
X62476607Y-110202544I1525000J0D01*
G01*
D20*
X62401607Y-114002544D02*
G75*
G02*
X60501607Y-114002544I-950000J0D01*
G01*
X60501607Y-114002544D02*
G75*
G02*
X62401607Y-114002544I950000J0D01*
G01*
D21*
X195827109Y-137327544D02*
X199827109Y-137327544D01*
X199827109Y-139327544D01*
X195827109Y-139327544D01*
X195827109Y-137327544D01*
X192667109Y-143227544D02*
G75*
G02*
X190467109Y-143227544I-1100000J0D01*
G01*
X190467109Y-143227544D02*
G75*
G02*
X192667109Y-143227544I1100000J0D01*
G01*
X203127109Y-121227544D02*
G75*
G02*
X200927109Y-121227544I-1100000J0D01*
G01*
X200927109Y-121227544D02*
G75*
G02*
X203127109Y-121227544I1100000J0D01*
G01*
D20*
X108551607Y-123052544D02*
G75*
G02*
X106651607Y-123052544I-950000J0D01*
G01*
X106651607Y-123052544D02*
G75*
G02*
X108551607Y-123052544I950000J0D01*
G01*
D21*
X114626607Y-117152544D02*
G75*
G02*
X111576607Y-117152544I-1525000J0D01*
G01*
X111576607Y-117152544D02*
G75*
G02*
X114626607Y-117152544I1525000J0D01*
G01*
X119626607Y-119252544D02*
G75*
G02*
X116576607Y-119252544I-1525000J0D01*
G01*
X116576607Y-119252544D02*
G75*
G02*
X119626607Y-119252544I1525000J0D01*
G01*
D20*
X119551607Y-123052544D02*
G75*
G02*
X117651607Y-123052544I-950000J0D01*
G01*
X117651607Y-123052544D02*
G75*
G02*
X119551607Y-123052544I950000J0D01*
G01*
X89501607Y-144102544D02*
G75*
G02*
X87601607Y-144102544I-950000J0D01*
G01*
X87601607Y-144102544D02*
G75*
G02*
X89501607Y-144102544I950000J0D01*
G01*
D21*
X95576607Y-138202544D02*
G75*
G02*
X92526607Y-138202544I-1525000J0D01*
G01*
X92526607Y-138202544D02*
G75*
G02*
X95576607Y-138202544I1525000J0D01*
G01*
X100576607Y-140302544D02*
G75*
G02*
X97526607Y-140302544I-1525000J0D01*
G01*
X97526607Y-140302544D02*
G75*
G02*
X100576607Y-140302544I1525000J0D01*
G01*
D20*
X100501607Y-144102544D02*
G75*
G02*
X98601607Y-144102544I-950000J0D01*
G01*
X98601607Y-144102544D02*
G75*
G02*
X100501607Y-144102544I950000J0D01*
G01*
X70451607Y-111002544D02*
G75*
G02*
X68551607Y-111002544I-950000J0D01*
G01*
X68551607Y-111002544D02*
G75*
G02*
X70451607Y-111002544I950000J0D01*
G01*
D21*
X76526607Y-105102544D02*
G75*
G02*
X73476607Y-105102544I-1525000J0D01*
G01*
X73476607Y-105102544D02*
G75*
G02*
X76526607Y-105102544I1525000J0D01*
G01*
X81526607Y-107202544D02*
G75*
G02*
X78476607Y-107202544I-1525000J0D01*
G01*
X78476607Y-107202544D02*
G75*
G02*
X81526607Y-107202544I1525000J0D01*
G01*
D20*
X81451607Y-111002544D02*
G75*
G02*
X79551607Y-111002544I-950000J0D01*
G01*
X79551607Y-111002544D02*
G75*
G02*
X81451607Y-111002544I950000J0D01*
G01*
X70451607Y-91952544D02*
G75*
G02*
X68551607Y-91952544I-950000J0D01*
G01*
X68551607Y-91952544D02*
G75*
G02*
X70451607Y-91952544I950000J0D01*
G01*
D21*
X76526607Y-86052544D02*
G75*
G02*
X73476607Y-86052544I-1525000J0D01*
G01*
X73476607Y-86052544D02*
G75*
G02*
X76526607Y-86052544I1525000J0D01*
G01*
X81526607Y-88152544D02*
G75*
G02*
X78476607Y-88152544I-1525000J0D01*
G01*
X78476607Y-88152544D02*
G75*
G02*
X81526607Y-88152544I1525000J0D01*
G01*
D20*
X81451607Y-91952544D02*
G75*
G02*
X79551607Y-91952544I-950000J0D01*
G01*
X79551607Y-91952544D02*
G75*
G02*
X81451607Y-91952544I950000J0D01*
G01*
X127601607Y-125052544D02*
G75*
G02*
X125701607Y-125052544I-950000J0D01*
G01*
X125701607Y-125052544D02*
G75*
G02*
X127601607Y-125052544I950000J0D01*
G01*
D21*
X133676607Y-119152544D02*
G75*
G02*
X130626607Y-119152544I-1525000J0D01*
G01*
X130626607Y-119152544D02*
G75*
G02*
X133676607Y-119152544I1525000J0D01*
G01*
X138676607Y-121252544D02*
G75*
G02*
X135626607Y-121252544I-1525000J0D01*
G01*
X135626607Y-121252544D02*
G75*
G02*
X138676607Y-121252544I1525000J0D01*
G01*
D20*
X138601607Y-125052544D02*
G75*
G02*
X136701607Y-125052544I-950000J0D01*
G01*
X136701607Y-125052544D02*
G75*
G02*
X138601607Y-125052544I950000J0D01*
G01*
X108551607Y-104002544D02*
G75*
G02*
X106651607Y-104002544I-950000J0D01*
G01*
X106651607Y-104002544D02*
G75*
G02*
X108551607Y-104002544I950000J0D01*
G01*
D21*
X114626607Y-98102544D02*
G75*
G02*
X111576607Y-98102544I-1525000J0D01*
G01*
X111576607Y-98102544D02*
G75*
G02*
X114626607Y-98102544I1525000J0D01*
G01*
X119626607Y-100202544D02*
G75*
G02*
X116576607Y-100202544I-1525000J0D01*
G01*
X116576607Y-100202544D02*
G75*
G02*
X119626607Y-100202544I1525000J0D01*
G01*
D20*
X119551607Y-104002544D02*
G75*
G02*
X117651607Y-104002544I-950000J0D01*
G01*
X117651607Y-104002544D02*
G75*
G02*
X119551607Y-104002544I950000J0D01*
G01*
X137126607Y-166152544D02*
G75*
G02*
X135226607Y-166152544I-950000J0D01*
G01*
X135226607Y-166152544D02*
G75*
G02*
X137126607Y-166152544I950000J0D01*
G01*
D21*
X143201607Y-160252544D02*
G75*
G02*
X140151607Y-160252544I-1525000J0D01*
G01*
X140151607Y-160252544D02*
G75*
G02*
X143201607Y-160252544I1525000J0D01*
G01*
X148201607Y-162352544D02*
G75*
G02*
X145151607Y-162352544I-1525000J0D01*
G01*
X145151607Y-162352544D02*
G75*
G02*
X148201607Y-162352544I1525000J0D01*
G01*
D20*
X148126607Y-166152544D02*
G75*
G02*
X146226607Y-166152544I-950000J0D01*
G01*
X146226607Y-166152544D02*
G75*
G02*
X148126607Y-166152544I950000J0D01*
G01*
D22*
X130251607Y-128832544D02*
X130251607Y-131432544D01*
X130451607Y-131632544D02*
X133851607Y-131632544D01*
X133851607Y-128632544D02*
X130451607Y-128632544D01*
X134051607Y-131432544D02*
X134051607Y-128832544D01*
X130251607Y-128832544D02*
G75*
G02*
X130451607Y-128632544I200000J0D01*
G01*
X130451607Y-131632544D02*
G75*
G02*
X130251607Y-131432544I0J200000D01*
G01*
X133851607Y-128632544D02*
G75*
G02*
X134051607Y-128832544I-1J-200001D01*
G01*
X134051607Y-131432544D02*
G75*
G02*
X133851607Y-131632544I-200001J1D01*
G01*
X73101607Y-152882544D02*
X73101607Y-155482544D01*
X73301607Y-155682544D02*
X76701607Y-155682544D01*
X76701607Y-152682544D02*
X73301607Y-152682544D01*
X76901607Y-155482544D02*
X76901607Y-152882544D01*
X73101607Y-152882544D02*
G75*
G02*
X73301607Y-152682544I200000J0D01*
G01*
X73301607Y-155682544D02*
G75*
G02*
X73101607Y-155482544I0J200000D01*
G01*
X76701607Y-152682544D02*
G75*
G02*
X76901607Y-152882544I-1J-200001D01*
G01*
X76901607Y-155482544D02*
G75*
G02*
X76701607Y-155682544I-200001J1D01*
G01*
X101676607Y-166932544D02*
X101676607Y-169532544D01*
X101876607Y-169732544D02*
X105276607Y-169732544D01*
X105276607Y-166732544D02*
X101876607Y-166732544D01*
X105476607Y-169532544D02*
X105476607Y-166932544D01*
X101676607Y-166932544D02*
G75*
G02*
X101876607Y-166732544I200000J0D01*
G01*
X101876607Y-169732544D02*
G75*
G02*
X101676607Y-169532544I0J200000D01*
G01*
X105276607Y-166732544D02*
G75*
G02*
X105476607Y-166932544I-1J-200001D01*
G01*
X105476607Y-169532544D02*
G75*
G02*
X105276607Y-169732544I-200001J1D01*
G01*
X139776607Y-169932544D02*
X139776607Y-172532544D01*
X139976607Y-172732544D02*
X143376607Y-172732544D01*
X143376607Y-169732544D02*
X139976607Y-169732544D01*
X143576607Y-172532544D02*
X143576607Y-169932544D01*
X139776607Y-169932544D02*
G75*
G02*
X139976607Y-169732544I200000J0D01*
G01*
X139976607Y-172732544D02*
G75*
G02*
X139776607Y-172532544I0J200000D01*
G01*
X143376607Y-169732544D02*
G75*
G02*
X143576607Y-169932544I-1J-200001D01*
G01*
X143576607Y-172532544D02*
G75*
G02*
X143376607Y-172732544I-200001J1D01*
G01*
X54051607Y-136832544D02*
X54051607Y-139432544D01*
X54251607Y-139632544D02*
X57651607Y-139632544D01*
X57651607Y-136632544D02*
X54251607Y-136632544D01*
X57851607Y-139432544D02*
X57851607Y-136832544D01*
X54051607Y-136832544D02*
G75*
G02*
X54251607Y-136632544I200000J0D01*
G01*
X54251607Y-139632544D02*
G75*
G02*
X54051607Y-139432544I0J200000D01*
G01*
X57651607Y-136632544D02*
G75*
G02*
X57851607Y-136832544I-1J-200001D01*
G01*
X57851607Y-139432544D02*
G75*
G02*
X57651607Y-139632544I-200001J1D01*
G01*
X149301607Y-112782544D02*
X149301607Y-115382544D01*
X149501607Y-115582544D02*
X152901607Y-115582544D01*
X152901607Y-112582544D02*
X149501607Y-112582544D01*
X153101607Y-115382544D02*
X153101607Y-112782544D01*
X149301607Y-112782544D02*
G75*
G02*
X149501607Y-112582544I200000J0D01*
G01*
X149501607Y-115582544D02*
G75*
G02*
X149301607Y-115382544I0J200000D01*
G01*
X152901607Y-112582544D02*
G75*
G02*
X153101607Y-112782544I-1J-200001D01*
G01*
X153101607Y-115382544D02*
G75*
G02*
X152901607Y-115582544I-200001J1D01*
G01*
X111201607Y-126832544D02*
X111201607Y-129432544D01*
X111401607Y-129632544D02*
X114801607Y-129632544D01*
X114801607Y-126632544D02*
X111401607Y-126632544D01*
X115001607Y-129432544D02*
X115001607Y-126832544D01*
X111201607Y-126832544D02*
G75*
G02*
X111401607Y-126632544I200000J0D01*
G01*
X111401607Y-129632544D02*
G75*
G02*
X111201607Y-129432544I0J200000D01*
G01*
X114801607Y-126632544D02*
G75*
G02*
X115001607Y-126832544I-1J-200001D01*
G01*
X115001607Y-129432544D02*
G75*
G02*
X114801607Y-129632544I-200001J1D01*
G01*
X130251607Y-147882544D02*
X130251607Y-150482544D01*
X130451607Y-150682544D02*
X133851607Y-150682544D01*
X133851607Y-147682544D02*
X130451607Y-147682544D01*
X134051607Y-150482544D02*
X134051607Y-147882544D01*
X130251607Y-147882544D02*
G75*
G02*
X130451607Y-147682544I200000J0D01*
G01*
X130451607Y-150682544D02*
G75*
G02*
X130251607Y-150482544I0J200000D01*
G01*
X133851607Y-147682544D02*
G75*
G02*
X134051607Y-147882544I-1J-200001D01*
G01*
X134051607Y-150482544D02*
G75*
G02*
X133851607Y-150682544I-200001J1D01*
G01*
X92151607Y-128832544D02*
X92151607Y-131432544D01*
X92351607Y-131632544D02*
X95751607Y-131632544D01*
X95751607Y-128632544D02*
X92351607Y-128632544D01*
X95951607Y-131432544D02*
X95951607Y-128832544D01*
X92151607Y-128832544D02*
G75*
G02*
X92351607Y-128632544I200000J0D01*
G01*
X92351607Y-131632544D02*
G75*
G02*
X92151607Y-131432544I0J200000D01*
G01*
X95751607Y-128632544D02*
G75*
G02*
X95951607Y-128832544I-1J-200001D01*
G01*
X95951607Y-131432544D02*
G75*
G02*
X95751607Y-131632544I-200001J1D01*
G01*
X111201607Y-107782544D02*
X111201607Y-110382544D01*
X111401607Y-110582544D02*
X114801607Y-110582544D01*
X114801607Y-107582544D02*
X111401607Y-107582544D01*
X115001607Y-110382544D02*
X115001607Y-107782544D01*
X111201607Y-107782544D02*
G75*
G02*
X111401607Y-107582544I200000J0D01*
G01*
X111401607Y-110582544D02*
G75*
G02*
X111201607Y-110382544I0J200000D01*
G01*
X114801607Y-107582544D02*
G75*
G02*
X115001607Y-107782544I-1J-200001D01*
G01*
X115001607Y-110382544D02*
G75*
G02*
X114801607Y-110582544I-200001J1D01*
G01*
X169197787Y-170120518D02*
X171554187Y-171219326D01*
X170537951Y-166773286D02*
X169101049Y-169854733D01*
X171819973Y-171122588D02*
X173256875Y-168041141D01*
X173160137Y-167775356D02*
X170803737Y-166676548D01*
X169197787Y-170120518D02*
G75*
G02*
X169101049Y-169854733I84524J181262D01*
G01*
X170537951Y-166773286D02*
G75*
G02*
X170803738Y-166676547I181263J-84524D01*
G01*
X171819973Y-171122588D02*
G75*
G02*
X171554187Y-171219326I-181262J84524D01*
G01*
X173160137Y-167775356D02*
G75*
G02*
X173256875Y-168041141I-84525J-181262D01*
G01*
X149301607Y-150882544D02*
X149301607Y-153482544D01*
X149501607Y-153682544D02*
X152901607Y-153682544D01*
X152901607Y-150682544D02*
X149501607Y-150682544D01*
X153101607Y-153482544D02*
X153101607Y-150882544D01*
X149301607Y-150882544D02*
G75*
G02*
X149501607Y-150682544I200000J0D01*
G01*
X149501607Y-153682544D02*
G75*
G02*
X149301607Y-153482544I0J200000D01*
G01*
X152901607Y-150682544D02*
G75*
G02*
X153101607Y-150882544I-1J-200001D01*
G01*
X153101607Y-153482544D02*
G75*
G02*
X152901607Y-153682544I-200001J1D01*
G01*
X120726607Y-166932544D02*
X120726607Y-169532544D01*
X120926607Y-169732544D02*
X124326607Y-169732544D01*
X124326607Y-166732544D02*
X120926607Y-166732544D01*
X124526607Y-169532544D02*
X124526607Y-166932544D01*
X120726607Y-166932544D02*
G75*
G02*
X120926607Y-166732544I200000J0D01*
G01*
X120926607Y-169732544D02*
G75*
G02*
X120726607Y-169532544I0J200000D01*
G01*
X124326607Y-166732544D02*
G75*
G02*
X124526607Y-166932544I-1J-200001D01*
G01*
X124526607Y-169532544D02*
G75*
G02*
X124326607Y-169732544I-200001J1D01*
G01*
X130251607Y-90732544D02*
X130251607Y-93332544D01*
X130451607Y-93532544D02*
X133851607Y-93532544D01*
X133851607Y-90532544D02*
X130451607Y-90532544D01*
X134051607Y-93332544D02*
X134051607Y-90732544D01*
X130251607Y-90732544D02*
G75*
G02*
X130451607Y-90532544I200000J0D01*
G01*
X130451607Y-93532544D02*
G75*
G02*
X130251607Y-93332544I0J200000D01*
G01*
X133851607Y-90532544D02*
G75*
G02*
X134051607Y-90732544I-1J-200001D01*
G01*
X134051607Y-93332544D02*
G75*
G02*
X133851607Y-93532544I-200001J1D01*
G01*
X54051607Y-117782544D02*
X54051607Y-120382544D01*
X54251607Y-120582544D02*
X57651607Y-120582544D01*
X57651607Y-117582544D02*
X54251607Y-117582544D01*
X57851607Y-120382544D02*
X57851607Y-117782544D01*
X54051607Y-117782544D02*
G75*
G02*
X54251607Y-117582544I200000J0D01*
G01*
X54251607Y-120582544D02*
G75*
G02*
X54051607Y-120382544I0J200000D01*
G01*
X57651607Y-117582544D02*
G75*
G02*
X57851607Y-117782544I-1J-200001D01*
G01*
X57851607Y-120382544D02*
G75*
G02*
X57651607Y-120582544I-200001J1D01*
G01*
X54051607Y-98732544D02*
X54051607Y-101332544D01*
X54251607Y-101532544D02*
X57651607Y-101532544D01*
X57651607Y-98532544D02*
X54251607Y-98532544D01*
X57851607Y-101332544D02*
X57851607Y-98732544D01*
X54051607Y-98732544D02*
G75*
G02*
X54251607Y-98532544I200000J0D01*
G01*
X54251607Y-101532544D02*
G75*
G02*
X54051607Y-101332544I0J200000D01*
G01*
X57651607Y-98532544D02*
G75*
G02*
X57851607Y-98732544I-1J-200001D01*
G01*
X57851607Y-101332544D02*
G75*
G02*
X57651607Y-101532544I-200001J1D01*
G01*
X54051607Y-155882544D02*
X54051607Y-158482544D01*
X54251607Y-158682544D02*
X57651607Y-158682544D01*
X57651607Y-155682544D02*
X54251607Y-155682544D01*
X57851607Y-158482544D02*
X57851607Y-155882544D01*
X54051607Y-155882544D02*
G75*
G02*
X54251607Y-155682544I200000J0D01*
G01*
X54251607Y-158682544D02*
G75*
G02*
X54051607Y-158482544I0J200000D01*
G01*
X57651607Y-155682544D02*
G75*
G02*
X57851607Y-155882544I-1J-200001D01*
G01*
X57851607Y-158482544D02*
G75*
G02*
X57651607Y-158682544I-200001J1D01*
G01*
X149301607Y-131832544D02*
X149301607Y-134432544D01*
X149501607Y-134632544D02*
X152901607Y-134632544D01*
X152901607Y-131632544D02*
X149501607Y-131632544D01*
X153101607Y-134432544D02*
X153101607Y-131832544D01*
X149301607Y-131832544D02*
G75*
G02*
X149501607Y-131632544I200000J0D01*
G01*
X149501607Y-134632544D02*
G75*
G02*
X149301607Y-134432544I0J200000D01*
G01*
X152901607Y-131632544D02*
G75*
G02*
X153101607Y-131832544I-1J-200001D01*
G01*
X153101607Y-134432544D02*
G75*
G02*
X152901607Y-134632544I-200001J1D01*
G01*
X92151607Y-147882544D02*
X92151607Y-150482544D01*
X92351607Y-150682544D02*
X95751607Y-150682544D01*
X95751607Y-147682544D02*
X92351607Y-147682544D01*
X95951607Y-150482544D02*
X95951607Y-147882544D01*
X92151607Y-147882544D02*
G75*
G02*
X92351607Y-147682544I200000J0D01*
G01*
X92351607Y-150682544D02*
G75*
G02*
X92151607Y-150482544I0J200000D01*
G01*
X95751607Y-147682544D02*
G75*
G02*
X95951607Y-147882544I-1J-200001D01*
G01*
X95951607Y-150482544D02*
G75*
G02*
X95751607Y-150682544I-200001J1D01*
G01*
X130251607Y-109782544D02*
X130251607Y-112382544D01*
X130451607Y-112582544D02*
X133851607Y-112582544D01*
X133851607Y-109582544D02*
X130451607Y-109582544D01*
X134051607Y-112382544D02*
X134051607Y-109782544D01*
X130251607Y-109782544D02*
G75*
G02*
X130451607Y-109582544I200000J0D01*
G01*
X130451607Y-112582544D02*
G75*
G02*
X130251607Y-112382544I0J200000D01*
G01*
X133851607Y-109582544D02*
G75*
G02*
X134051607Y-109782544I-1J-200001D01*
G01*
X134051607Y-112382544D02*
G75*
G02*
X133851607Y-112582544I-200001J1D01*
G01*
X92151607Y-90732544D02*
X92151607Y-93332544D01*
X92351607Y-93532544D02*
X95751607Y-93532544D01*
X95751607Y-90532544D02*
X92351607Y-90532544D01*
X95951607Y-93332544D02*
X95951607Y-90732544D01*
X92151607Y-90732544D02*
G75*
G02*
X92351607Y-90532544I200000J0D01*
G01*
X92351607Y-93532544D02*
G75*
G02*
X92151607Y-93332544I0J200000D01*
G01*
X95751607Y-90532544D02*
G75*
G02*
X95951607Y-90732544I-1J-200001D01*
G01*
X95951607Y-93332544D02*
G75*
G02*
X95751607Y-93532544I-200001J1D01*
G01*
X73101607Y-114782544D02*
X73101607Y-117382544D01*
X73301607Y-117582544D02*
X76701607Y-117582544D01*
X76701607Y-114582544D02*
X73301607Y-114582544D01*
X76901607Y-117382544D02*
X76901607Y-114782544D01*
X73101607Y-114782544D02*
G75*
G02*
X73301607Y-114582544I200000J0D01*
G01*
X73301607Y-117582544D02*
G75*
G02*
X73101607Y-117382544I0J200000D01*
G01*
X76701607Y-114582544D02*
G75*
G02*
X76901607Y-114782544I-1J-200001D01*
G01*
X76901607Y-117382544D02*
G75*
G02*
X76701607Y-117582544I-200001J1D01*
G01*
X73101607Y-95732544D02*
X73101607Y-98332544D01*
X73301607Y-98532544D02*
X76701607Y-98532544D01*
X76701607Y-95532544D02*
X73301607Y-95532544D01*
X76901607Y-98332544D02*
X76901607Y-95732544D01*
X73101607Y-95732544D02*
G75*
G02*
X73301607Y-95532544I200000J0D01*
G01*
X73301607Y-98532544D02*
G75*
G02*
X73101607Y-98332544I0J200000D01*
G01*
X76701607Y-95532544D02*
G75*
G02*
X76901607Y-95732544I-1J-200001D01*
G01*
X76901607Y-98332544D02*
G75*
G02*
X76701607Y-98532544I-200001J1D01*
G01*
X111201607Y-145882544D02*
X111201607Y-148482544D01*
X111401607Y-148682544D02*
X114801607Y-148682544D01*
X114801607Y-145682544D02*
X111401607Y-145682544D01*
X115001607Y-148482544D02*
X115001607Y-145882544D01*
X111201607Y-145882544D02*
G75*
G02*
X111401607Y-145682544I200000J0D01*
G01*
X111401607Y-148682544D02*
G75*
G02*
X111201607Y-148482544I0J200000D01*
G01*
X114801607Y-145682544D02*
G75*
G02*
X115001607Y-145882544I-1J-200001D01*
G01*
X115001607Y-148482544D02*
G75*
G02*
X114801607Y-148682544I-200001J1D01*
G01*
X111201607Y-88732544D02*
X111201607Y-91332544D01*
X111401607Y-91532544D02*
X114801607Y-91532544D01*
X114801607Y-88532544D02*
X111401607Y-88532544D01*
X115001607Y-91332544D02*
X115001607Y-88732544D01*
X111201607Y-88732544D02*
G75*
G02*
X111401607Y-88532544I200000J0D01*
G01*
X111401607Y-91532544D02*
G75*
G02*
X111201607Y-91332544I0J200000D01*
G01*
X114801607Y-88532544D02*
G75*
G02*
X115001607Y-88732544I-1J-200001D01*
G01*
X115001607Y-91332544D02*
G75*
G02*
X114801607Y-91532544I-200001J1D01*
G01*
X168351607Y-141357544D02*
X168351607Y-143957544D01*
X168551607Y-144157544D02*
X171951607Y-144157544D01*
X171951607Y-141157544D02*
X168551607Y-141157544D01*
X172151607Y-143957544D02*
X172151607Y-141357544D01*
X168351607Y-141357544D02*
G75*
G02*
X168551607Y-141157544I200000J0D01*
G01*
X168551607Y-144157544D02*
G75*
G02*
X168351607Y-143957544I0J200000D01*
G01*
X171951607Y-141157544D02*
G75*
G02*
X172151607Y-141357544I-1J-200001D01*
G01*
X172151607Y-143957544D02*
G75*
G02*
X171951607Y-144157544I-200001J1D01*
G01*
X73101607Y-133832544D02*
X73101607Y-136432544D01*
X73301607Y-136632544D02*
X76701607Y-136632544D01*
X76701607Y-133632544D02*
X73301607Y-133632544D01*
X76901607Y-136432544D02*
X76901607Y-133832544D01*
X73101607Y-133832544D02*
G75*
G02*
X73301607Y-133632544I200000J0D01*
G01*
X73301607Y-136632544D02*
G75*
G02*
X73101607Y-136432544I0J200000D01*
G01*
X76701607Y-133632544D02*
G75*
G02*
X76901607Y-133832544I-1J-200001D01*
G01*
X76901607Y-136432544D02*
G75*
G02*
X76701607Y-136632544I-200001J1D01*
G01*
X149301607Y-93732544D02*
X149301607Y-96332544D01*
X149501607Y-96532544D02*
X152901607Y-96532544D01*
X152901607Y-93532544D02*
X149501607Y-93532544D01*
X153101607Y-96332544D02*
X153101607Y-93732544D01*
X149301607Y-93732544D02*
G75*
G02*
X149501607Y-93532544I200000J0D01*
G01*
X149501607Y-96532544D02*
G75*
G02*
X149301607Y-96332544I0J200000D01*
G01*
X152901607Y-93532544D02*
G75*
G02*
X153101607Y-93732544I-1J-200001D01*
G01*
X153101607Y-96332544D02*
G75*
G02*
X152901607Y-96532544I-200001J1D01*
G01*
X92151607Y-109782544D02*
X92151607Y-112382544D01*
X92351607Y-112582544D02*
X95751607Y-112582544D01*
X95751607Y-109582544D02*
X92351607Y-109582544D01*
X95951607Y-112382544D02*
X95951607Y-109782544D01*
X92151607Y-109782544D02*
G75*
G02*
X92351607Y-109582544I200000J0D01*
G01*
X92351607Y-112582544D02*
G75*
G02*
X92151607Y-112382544I0J200000D01*
G01*
X95751607Y-109582544D02*
G75*
G02*
X95951607Y-109782544I-1J-200001D01*
G01*
X95951607Y-112382544D02*
G75*
G02*
X95751607Y-112582544I-200001J1D01*
G01*
M02*
