M48
; DRILL file {KiCad 9.0.3} date 2025-08-01T16:01:10-0400
; FORMAT={-:-/ absolute / metric / decimal}
; #@! TF.CreationDate,2025-08-01T16:01:10-04:00
; #@! TF.GenerationSoftware,Kicad,Pcbnew,9.0.3
; #@! TF.FileFunction,NonPlated,1,2,NPTH
FMAT,2
METRIC
; #@! TA.AperFunction,NonPlated,NPTH,ComponentDrill
T1C0.900
; #@! TA.AperFunction,NonPlated,NPTH,ComponentDrill
T2C1.600
; #@! TA.AperFunction,NonPlated,NPTH,ComponentDrill
T3C1.750
; #@! TA.AperFunction,NonPlated,NPTH,ComponentDrill
T4C3.050
; #@! TA.AperFunction,NonPlated,NPTH,ComponentDrill
T5C5.050
%
G90
G05
T1
X179.852Y-124.378
X179.852Y-127.378
X188.227Y-123.928
X188.227Y-126.928
T2
X50.952Y-100.103
X50.952Y-119.153
X50.952Y-138.203
X50.952Y-157.253
X70.002Y-97.103
X70.002Y-116.153
X70.002Y-135.203
X70.002Y-154.253
X89.052Y-92.103
X89.052Y-111.153
X89.052Y-130.203
X89.052Y-149.253
X98.577Y-168.303
X108.102Y-90.103
X108.102Y-109.153
X108.102Y-128.203
X108.102Y-147.253
X117.627Y-168.303
X127.152Y-92.103
X127.152Y-111.153
X127.152Y-130.203
X127.152Y-149.253
X136.677Y-171.303
X146.202Y-95.103
X146.202Y-114.153
X146.202Y-133.203
X146.202Y-152.253
X165.252Y-142.728
X169.129Y-173.509
X192.827Y-142.278
X194.723Y-163.996
X211.877Y-94.653
X211.877Y-113.703
X211.877Y-132.753
X211.877Y-151.803
X221.402Y-170.853
X230.927Y-91.653
X230.927Y-110.703
X230.927Y-129.753
X230.927Y-148.803
X240.452Y-167.853
X249.977Y-89.653
X249.977Y-108.703
X249.977Y-127.753
X249.977Y-146.803
X259.502Y-167.853
X269.027Y-91.653
X269.027Y-110.703
X269.027Y-129.753
X269.027Y-148.803
X288.077Y-96.653
X288.077Y-115.703
X288.077Y-134.753
X288.077Y-153.803
X307.127Y-99.653
X307.127Y-118.703
X307.127Y-137.753
X307.127Y-156.803
T3
X50.872Y-94.953
X50.872Y-114.003
X50.872Y-133.053
X50.872Y-152.103
X61.032Y-94.953
X61.032Y-114.003
X61.032Y-133.053
X61.032Y-152.103
X69.922Y-91.953
X69.922Y-111.003
X69.922Y-130.053
X69.922Y-149.103
X80.082Y-91.953
X80.082Y-111.003
X80.082Y-130.053
X80.082Y-149.103
X88.972Y-86.953
X88.972Y-106.003
X88.972Y-125.053
X88.972Y-144.103
X98.497Y-163.153
X99.132Y-86.953
X99.132Y-106.003
X99.132Y-125.053
X99.132Y-144.103
X108.022Y-84.953
X108.022Y-104.003
X108.022Y-123.053
X108.022Y-142.103
X108.657Y-163.153
X117.547Y-163.153
X118.182Y-84.953
X118.182Y-104.003
X118.182Y-123.053
X118.182Y-142.103
X127.072Y-86.953
X127.072Y-106.003
X127.072Y-125.053
X127.072Y-144.103
X127.707Y-163.153
X136.597Y-166.153
X137.232Y-86.953
X137.232Y-106.003
X137.232Y-125.053
X137.232Y-144.103
X146.122Y-89.953
X146.122Y-109.003
X146.122Y-128.053
X146.122Y-147.103
X146.757Y-166.153
X156.282Y-89.953
X156.282Y-109.003
X156.282Y-128.053
X156.282Y-147.103
X164.428Y-171.405
X165.172Y-137.578
X168.722Y-162.197
X175.332Y-137.578
X192.747Y-137.128
X199.357Y-161.747
X202.907Y-137.128
X203.651Y-170.955
X211.797Y-89.503
X211.797Y-108.553
X211.797Y-127.603
X211.797Y-146.653
X221.322Y-165.703
X221.957Y-89.503
X221.957Y-108.553
X221.957Y-127.603
X221.957Y-146.653
X230.847Y-86.503
X230.847Y-105.553
X230.847Y-124.603
X230.847Y-143.653
X231.482Y-165.703
X240.372Y-162.703
X241.007Y-86.503
X241.007Y-105.553
X241.007Y-124.603
X241.007Y-143.653
X249.897Y-84.503
X249.897Y-103.553
X249.897Y-122.603
X249.897Y-141.653
X250.532Y-162.703
X259.422Y-162.703
X260.057Y-84.503
X260.057Y-103.553
X260.057Y-122.603
X260.057Y-141.653
X268.947Y-86.503
X268.947Y-105.553
X268.947Y-124.603
X268.947Y-143.653
X269.582Y-162.703
X279.107Y-86.503
X279.107Y-105.553
X279.107Y-124.603
X279.107Y-143.653
X287.997Y-91.503
X287.997Y-110.553
X287.997Y-129.603
X287.997Y-148.653
X298.157Y-91.503
X298.157Y-110.553
X298.157Y-129.603
X298.157Y-148.653
X307.047Y-94.503
X307.047Y-113.553
X307.047Y-132.603
X307.047Y-151.653
X317.207Y-94.503
X317.207Y-113.553
X317.207Y-132.603
X317.207Y-151.653
T4
X52.142Y-92.413
X52.142Y-111.463
X52.142Y-130.513
X52.142Y-149.563
X58.492Y-89.873
X58.492Y-108.923
X58.492Y-127.973
X58.492Y-147.023
X71.192Y-89.413
X71.192Y-108.463
X71.192Y-127.513
X71.192Y-146.563
X77.542Y-86.873
X77.542Y-105.923
X77.542Y-124.973
X77.542Y-144.023
X90.242Y-84.413
X90.242Y-103.463
X90.242Y-122.513
X90.242Y-141.563
X96.592Y-81.873
X96.592Y-100.923
X96.592Y-119.973
X96.592Y-139.023
X99.767Y-160.613
X106.117Y-158.073
X109.292Y-82.413
X109.292Y-101.463
X109.292Y-120.513
X109.292Y-139.563
X115.642Y-79.873
X115.642Y-98.923
X115.642Y-117.973
X115.642Y-137.023
X118.817Y-160.613
X125.167Y-158.073
X128.342Y-84.413
X128.342Y-103.463
X128.342Y-122.513
X128.342Y-141.563
X134.692Y-81.873
X134.692Y-100.923
X134.692Y-119.973
X134.692Y-139.023
X137.867Y-163.613
X144.217Y-161.073
X147.392Y-87.413
X147.392Y-106.463
X147.392Y-125.513
X147.392Y-144.563
X153.742Y-84.873
X153.742Y-103.923
X153.742Y-122.973
X153.742Y-142.023
X162.663Y-169.181
X163.044Y-162.352
X166.442Y-135.038
X172.792Y-132.498
X194.017Y-134.588
X200.367Y-132.048
X202.196Y-161.825
X207.181Y-166.506
X213.067Y-86.963
X213.067Y-106.013
X213.067Y-125.063
X213.067Y-144.113
X219.417Y-84.423
X219.417Y-103.473
X219.417Y-122.523
X219.417Y-141.573
X222.592Y-163.163
X228.942Y-160.623
X232.117Y-83.963
X232.117Y-103.013
X232.117Y-122.063
X232.117Y-141.113
X238.467Y-81.423
X238.467Y-100.473
X238.467Y-119.523
X238.467Y-138.573
X241.642Y-160.163
X247.992Y-157.623
X251.167Y-81.963
X251.167Y-101.013
X251.167Y-120.063
X251.167Y-139.113
X257.517Y-79.423
X257.517Y-98.473
X257.517Y-117.523
X257.517Y-136.573
X260.692Y-160.163
X267.042Y-157.623
X270.217Y-83.963
X270.217Y-103.013
X270.217Y-122.063
X270.217Y-141.113
X276.567Y-81.423
X276.567Y-100.473
X276.567Y-119.523
X276.567Y-138.573
X289.267Y-88.963
X289.267Y-108.013
X289.267Y-127.063
X289.267Y-146.113
X295.617Y-86.423
X295.617Y-105.473
X295.617Y-124.523
X295.617Y-143.573
X308.317Y-91.963
X308.317Y-111.013
X308.317Y-130.063
X308.317Y-149.113
X314.667Y-89.423
X314.667Y-108.473
X314.667Y-127.523
X314.667Y-146.573
T5
X55.952Y-94.953
X55.952Y-114.003
X55.952Y-133.053
X55.952Y-152.103
X75.002Y-91.953
X75.002Y-111.003
X75.002Y-130.053
X75.002Y-149.103
X94.052Y-86.953
X94.052Y-106.003
X94.052Y-125.053
X94.052Y-144.103
X103.577Y-163.153
X113.102Y-84.953
X113.102Y-104.003
X113.102Y-123.053
X113.102Y-142.103
X122.627Y-163.153
X132.152Y-86.953
X132.152Y-106.003
X132.152Y-125.053
X132.152Y-144.103
X141.677Y-166.153
X151.202Y-89.953
X151.202Y-109.003
X151.202Y-128.053
X151.202Y-147.103
X166.575Y-166.801
X170.252Y-137.578
X197.827Y-137.128
X201.504Y-166.351
X216.877Y-89.503
X216.877Y-108.553
X216.877Y-127.603
X216.877Y-146.653
X226.402Y-165.703
X235.927Y-86.503
X235.927Y-105.553
X235.927Y-124.603
X235.927Y-143.653
X245.452Y-162.703
X254.977Y-84.503
X254.977Y-103.553
X254.977Y-122.603
X254.977Y-141.653
X264.502Y-162.703
X274.027Y-86.503
X274.027Y-105.553
X274.027Y-124.603
X274.027Y-143.653
X293.077Y-91.503
X293.077Y-110.553
X293.077Y-129.603
X293.077Y-148.653
X312.127Y-94.503
X312.127Y-113.553
X312.127Y-132.603
X312.127Y-151.653
M30
