M48
; DRILL file {KiCad 9.0.3} date 2025-08-04T01:31:14-0400
; FORMAT={-:-/ absolute / metric / decimal}
; #@! TF.CreationDate,2025-08-04T01:31:14-04:00
; #@! TF.GenerationSoftware,Kicad,Pcbnew,9.0.3
; #@! TF.FileFunction,NonPlated,1,2,NPTH
FMAT,2
METRIC
; #@! TA.AperFunction,NonPlated,NPTH,ComponentDrill
T1C0.900
; #@! TA.AperFunction,NonPlated,NPTH,ComponentDrill
T2C1.750
; #@! TA.AperFunction,NonPlated,NPTH,ComponentDrill
T3C3.050
; #@! TA.AperFunction,NonPlated,NPTH,ComponentDrill
T4C5.050
%
G90
G05
T1
X179.852Y-124.378
X179.852Y-127.378
X186.592Y-124.378
X186.592Y-127.378
T2
X50.872Y-94.953
X50.872Y-114.003
X50.872Y-133.053
X50.872Y-152.103
X61.032Y-94.953
X61.032Y-114.003
X61.032Y-133.053
X61.032Y-152.103
X69.922Y-91.953
X69.922Y-111.003
X69.922Y-130.053
X69.922Y-149.103
X80.082Y-91.953
X80.082Y-111.003
X80.082Y-130.053
X80.082Y-149.103
X88.972Y-86.953
X88.972Y-106.003
X88.972Y-125.053
X88.972Y-144.103
X98.497Y-163.153
X99.132Y-86.953
X99.132Y-106.003
X99.132Y-125.053
X99.132Y-144.103
X108.022Y-84.953
X108.022Y-104.003
X108.022Y-123.053
X108.022Y-142.103
X108.657Y-163.153
X117.547Y-163.153
X118.182Y-84.953
X118.182Y-104.003
X118.182Y-123.053
X118.182Y-142.103
X127.072Y-86.953
X127.072Y-106.003
X127.072Y-125.053
X127.072Y-144.103
X127.707Y-163.153
X136.597Y-166.153
X137.232Y-86.953
X137.232Y-106.003
X137.232Y-125.053
X137.232Y-144.103
X146.122Y-89.953
X146.122Y-109.003
X146.122Y-128.053
X146.122Y-147.103
X146.757Y-166.153
X156.282Y-89.953
X156.282Y-109.003
X156.282Y-128.053
X156.282Y-147.103
X164.428Y-171.405
X165.172Y-137.578
X168.722Y-162.197
X175.332Y-137.578
X191.112Y-137.578
X197.722Y-162.197
X201.272Y-137.578
X202.016Y-171.405
X210.162Y-89.953
X210.162Y-109.003
X210.162Y-128.053
X210.162Y-147.103
X219.687Y-166.153
X220.322Y-89.953
X220.322Y-109.003
X220.322Y-128.053
X220.322Y-147.103
X229.212Y-86.953
X229.212Y-106.003
X229.212Y-125.053
X229.212Y-144.103
X229.847Y-166.153
X238.737Y-163.153
X239.372Y-86.953
X239.372Y-106.003
X239.372Y-125.053
X239.372Y-144.103
X248.262Y-84.953
X248.262Y-104.003
X248.262Y-123.053
X248.262Y-142.103
X248.897Y-163.153
X257.787Y-163.153
X258.422Y-84.953
X258.422Y-104.003
X258.422Y-123.053
X258.422Y-142.103
X267.312Y-86.953
X267.312Y-106.003
X267.312Y-125.053
X267.312Y-144.103
X267.947Y-163.153
X277.472Y-86.953
X277.472Y-106.003
X277.472Y-125.053
X277.472Y-144.103
X286.362Y-91.953
X286.362Y-111.003
X286.362Y-130.053
X286.362Y-149.103
X296.522Y-91.953
X296.522Y-111.003
X296.522Y-130.053
X296.522Y-149.103
X305.412Y-94.953
X305.412Y-114.003
X305.412Y-133.053
X305.412Y-152.103
X315.572Y-94.953
X315.572Y-114.003
X315.572Y-133.053
X315.572Y-152.103
T3
X50.952Y-98.753
X50.952Y-117.803
X50.952Y-136.853
X50.952Y-155.903
X52.142Y-92.413
X52.142Y-111.463
X52.142Y-130.513
X52.142Y-149.563
X55.952Y-100.853
X55.952Y-119.903
X55.952Y-138.953
X55.952Y-158.003
X58.492Y-89.873
X58.492Y-108.923
X58.492Y-127.973
X58.492Y-147.023
X70.002Y-95.753
X70.002Y-114.803
X70.002Y-133.853
X70.002Y-152.903
X71.192Y-89.413
X71.192Y-108.463
X71.192Y-127.513
X71.192Y-146.563
X75.002Y-97.853
X75.002Y-116.903
X75.002Y-135.953
X75.002Y-155.003
X77.542Y-86.873
X77.542Y-105.923
X77.542Y-124.973
X77.542Y-144.023
X89.052Y-90.753
X89.052Y-109.803
X89.052Y-128.853
X89.052Y-147.903
X90.242Y-84.413
X90.242Y-103.463
X90.242Y-122.513
X90.242Y-141.563
X94.052Y-92.853
X94.052Y-111.903
X94.052Y-130.953
X94.052Y-150.003
X96.592Y-81.873
X96.592Y-100.923
X96.592Y-119.973
X96.592Y-139.023
X98.577Y-166.953
X99.767Y-160.613
X103.577Y-169.053
X106.117Y-158.073
X108.102Y-88.753
X108.102Y-107.803
X108.102Y-126.853
X108.102Y-145.903
X109.292Y-82.413
X109.292Y-101.463
X109.292Y-120.513
X109.292Y-139.563
X113.102Y-90.853
X113.102Y-109.903
X113.102Y-128.953
X113.102Y-148.003
X115.642Y-79.873
X115.642Y-98.923
X115.642Y-117.973
X115.642Y-137.023
X117.627Y-166.953
X118.817Y-160.613
X122.627Y-169.053
X125.167Y-158.073
X127.152Y-90.753
X127.152Y-109.803
X127.152Y-128.853
X127.152Y-147.903
X128.342Y-84.413
X128.342Y-103.463
X128.342Y-122.513
X128.342Y-141.563
X132.152Y-92.853
X132.152Y-111.903
X132.152Y-130.953
X132.152Y-150.003
X134.692Y-81.873
X134.692Y-100.923
X134.692Y-119.973
X134.692Y-139.023
X136.677Y-169.953
X137.867Y-163.613
X141.677Y-172.053
X144.217Y-161.073
X146.202Y-93.753
X146.202Y-112.803
X146.202Y-131.853
X146.202Y-150.903
X147.392Y-87.413
X147.392Y-106.463
X147.392Y-125.513
X147.392Y-144.563
X151.202Y-95.853
X151.202Y-114.903
X151.202Y-133.953
X151.202Y-153.003
X153.742Y-84.873
X153.742Y-103.923
X153.742Y-122.973
X153.742Y-142.023
X162.663Y-169.181
X163.044Y-162.352
X165.252Y-141.378
X166.442Y-135.038
X167.906Y-172.939
X170.252Y-143.478
X171.922Y-169.294
X172.792Y-132.498
X191.192Y-141.378
X192.382Y-135.038
X194.312Y-163.875
X194.522Y-169.294
X196.192Y-143.478
X198.732Y-132.498
X200.561Y-162.275
X205.546Y-166.956
X210.242Y-93.753
X210.242Y-112.803
X210.242Y-131.853
X210.242Y-150.903
X211.432Y-87.413
X211.432Y-106.463
X211.432Y-125.513
X211.432Y-144.563
X215.242Y-95.853
X215.242Y-114.903
X215.242Y-133.953
X215.242Y-153.003
X217.782Y-84.873
X217.782Y-103.923
X217.782Y-122.973
X217.782Y-142.023
X219.767Y-169.953
X220.957Y-163.613
X224.767Y-172.053
X227.307Y-161.073
X229.292Y-90.753
X229.292Y-109.803
X229.292Y-128.853
X229.292Y-147.903
X230.482Y-84.413
X230.482Y-103.463
X230.482Y-122.513
X230.482Y-141.563
X234.292Y-92.853
X234.292Y-111.903
X234.292Y-130.953
X234.292Y-150.003
X236.832Y-81.873
X236.832Y-100.923
X236.832Y-119.973
X236.832Y-139.023
X238.817Y-166.953
X240.007Y-160.613
X243.817Y-169.053
X246.357Y-158.073
X248.342Y-88.753
X248.342Y-107.803
X248.342Y-126.853
X248.342Y-145.903
X249.532Y-82.413
X249.532Y-101.463
X249.532Y-120.513
X249.532Y-139.563
X253.342Y-90.853
X253.342Y-109.903
X253.342Y-128.953
X253.342Y-148.003
X255.882Y-79.873
X255.882Y-98.923
X255.882Y-117.973
X255.882Y-137.023
X257.867Y-166.953
X259.057Y-160.613
X262.867Y-169.053
X265.407Y-158.073
X267.392Y-90.753
X267.392Y-109.803
X267.392Y-128.853
X267.392Y-147.903
X268.582Y-84.413
X268.582Y-103.463
X268.582Y-122.513
X268.582Y-141.563
X272.392Y-92.853
X272.392Y-111.903
X272.392Y-130.953
X272.392Y-150.003
X274.932Y-81.873
X274.932Y-100.923
X274.932Y-119.973
X274.932Y-139.023
X286.442Y-95.753
X286.442Y-114.803
X286.442Y-133.853
X286.442Y-152.903
X287.632Y-89.413
X287.632Y-108.463
X287.632Y-127.513
X287.632Y-146.563
X291.442Y-97.853
X291.442Y-116.903
X291.442Y-135.953
X291.442Y-155.003
X293.982Y-86.873
X293.982Y-105.923
X293.982Y-124.973
X293.982Y-144.023
X305.492Y-98.753
X305.492Y-117.803
X305.492Y-136.853
X305.492Y-155.903
X306.682Y-92.413
X306.682Y-111.463
X306.682Y-130.513
X306.682Y-149.563
X310.492Y-100.853
X310.492Y-119.903
X310.492Y-138.953
X310.492Y-158.003
X313.032Y-89.873
X313.032Y-108.923
X313.032Y-127.973
X313.032Y-147.023
T4
X55.952Y-94.953
X55.952Y-114.003
X55.952Y-133.053
X55.952Y-152.103
X75.002Y-91.953
X75.002Y-111.003
X75.002Y-130.053
X75.002Y-149.103
X94.052Y-86.953
X94.052Y-106.003
X94.052Y-125.053
X94.052Y-144.103
X103.577Y-163.153
X113.102Y-84.953
X113.102Y-104.003
X113.102Y-123.053
X113.102Y-142.103
X122.627Y-163.153
X132.152Y-86.953
X132.152Y-106.003
X132.152Y-125.053
X132.152Y-144.103
X141.677Y-166.153
X151.202Y-89.953
X151.202Y-109.003
X151.202Y-128.053
X151.202Y-147.103
X166.575Y-166.801
X170.252Y-137.578
X196.192Y-137.578
X199.869Y-166.801
X215.242Y-89.953
X215.242Y-109.003
X215.242Y-128.053
X215.242Y-147.103
X224.767Y-166.153
X234.292Y-86.953
X234.292Y-106.003
X234.292Y-125.053
X234.292Y-144.103
X243.817Y-163.153
X253.342Y-84.953
X253.342Y-104.003
X253.342Y-123.053
X253.342Y-142.103
X262.867Y-163.153
X272.392Y-86.953
X272.392Y-106.003
X272.392Y-125.053
X272.392Y-144.103
X291.442Y-91.953
X291.442Y-111.003
X291.442Y-130.053
X291.442Y-149.103
X310.492Y-94.953
X310.492Y-114.003
X310.492Y-133.053
X310.492Y-152.103
M30
