M48
; DRILL file {KiCad 9.0.3} date 2025-08-01T02:34:46-0400
; FORMAT={-:-/ absolute / metric / decimal}
; #@! TF.CreationDate,2025-08-01T02:34:46-04:00
; #@! TF.GenerationSoftware,Kicad,Pcbnew,9.0.3
; #@! TF.FileFunction,NonPlated,1,2,NPTH
FMAT,2
METRIC
; #@! TA.AperFunction,NonPlated,NPTH,ComponentDrill
T1C0.900
; #@! TA.AperFunction,NonPlated,NPTH,ComponentDrill
T2C1.600
; #@! TA.AperFunction,NonPlated,NPTH,ComponentDrill
T3C1.750
; #@! TA.AperFunction,NonPlated,NPTH,ComponentDrill
T4C3.050
; #@! TA.AperFunction,NonPlated,NPTH,ComponentDrill
T5C5.050
%
G90
G05
T1
X179.852Y-124.378
X179.852Y-127.378
X185.993Y-124.305
X185.993Y-127.305
T2
X50.952Y-100.103
X50.952Y-119.153
X50.952Y-138.203
X50.952Y-157.253
X70.002Y-97.103
X70.002Y-116.153
X70.002Y-135.203
X70.002Y-154.253
X89.052Y-92.103
X89.052Y-111.153
X89.052Y-130.203
X89.052Y-149.253
X98.577Y-168.303
X108.102Y-90.103
X108.102Y-109.153
X108.102Y-128.203
X108.102Y-147.253
X117.627Y-168.303
X127.152Y-92.103
X127.152Y-111.153
X127.152Y-130.203
X127.152Y-149.253
X136.677Y-171.303
X146.202Y-95.103
X146.202Y-114.153
X146.202Y-133.203
X146.202Y-152.253
X165.252Y-142.728
X169.129Y-173.509
X190.593Y-142.655
X192.489Y-164.373
X209.643Y-95.03
X209.643Y-114.08
X209.643Y-133.13
X209.643Y-152.18
X219.168Y-171.23
X228.693Y-92.03
X228.693Y-111.08
X228.693Y-130.13
X228.693Y-149.18
X238.218Y-168.23
X247.743Y-90.03
X247.743Y-109.08
X247.743Y-128.13
X247.743Y-147.18
X257.268Y-168.23
X266.793Y-92.03
X266.793Y-111.08
X266.793Y-130.13
X266.793Y-149.18
X285.843Y-97.03
X285.843Y-116.08
X285.843Y-135.13
X285.843Y-154.18
X304.893Y-100.03
X304.893Y-119.08
X304.893Y-138.13
X304.893Y-157.18
T3
X50.872Y-94.953
X50.872Y-114.003
X50.872Y-133.053
X50.872Y-152.103
X61.032Y-94.953
X61.032Y-114.003
X61.032Y-133.053
X61.032Y-152.103
X69.922Y-91.953
X69.922Y-111.003
X69.922Y-130.053
X69.922Y-149.103
X80.082Y-91.953
X80.082Y-111.003
X80.082Y-130.053
X80.082Y-149.103
X88.972Y-86.953
X88.972Y-106.003
X88.972Y-125.053
X88.972Y-144.103
X98.497Y-163.153
X99.132Y-86.953
X99.132Y-106.003
X99.132Y-125.053
X99.132Y-144.103
X108.022Y-84.953
X108.022Y-104.003
X108.022Y-123.053
X108.022Y-142.103
X108.657Y-163.153
X117.547Y-163.153
X118.182Y-84.953
X118.182Y-104.003
X118.182Y-123.053
X118.182Y-142.103
X127.072Y-86.953
X127.072Y-106.003
X127.072Y-125.053
X127.072Y-144.103
X127.707Y-163.153
X136.597Y-166.153
X137.232Y-86.953
X137.232Y-106.003
X137.232Y-125.053
X137.232Y-144.103
X146.122Y-89.953
X146.122Y-109.003
X146.122Y-128.053
X146.122Y-147.103
X146.757Y-166.153
X156.282Y-89.953
X156.282Y-109.003
X156.282Y-128.053
X156.282Y-147.103
X164.428Y-171.405
X165.172Y-137.578
X168.722Y-162.197
X175.332Y-137.578
X190.513Y-137.505
X197.123Y-162.124
X200.673Y-137.505
X201.417Y-171.332
X209.563Y-89.88
X209.563Y-108.93
X209.563Y-127.98
X209.563Y-147.03
X219.088Y-166.08
X219.723Y-89.88
X219.723Y-108.93
X219.723Y-127.98
X219.723Y-147.03
X228.613Y-86.88
X228.613Y-105.93
X228.613Y-124.98
X228.613Y-144.03
X229.248Y-166.08
X238.138Y-163.08
X238.773Y-86.88
X238.773Y-105.93
X238.773Y-124.98
X238.773Y-144.03
X247.663Y-84.88
X247.663Y-103.93
X247.663Y-122.98
X247.663Y-142.03
X248.298Y-163.08
X257.188Y-163.08
X257.823Y-84.88
X257.823Y-103.93
X257.823Y-122.98
X257.823Y-142.03
X266.713Y-86.88
X266.713Y-105.93
X266.713Y-124.98
X266.713Y-144.03
X267.348Y-163.08
X276.873Y-86.88
X276.873Y-105.93
X276.873Y-124.98
X276.873Y-144.03
X285.763Y-91.88
X285.763Y-110.93
X285.763Y-129.98
X285.763Y-149.03
X295.923Y-91.88
X295.923Y-110.93
X295.923Y-129.98
X295.923Y-149.03
X304.813Y-94.88
X304.813Y-113.93
X304.813Y-132.98
X304.813Y-152.03
X314.973Y-94.88
X314.973Y-113.93
X314.973Y-132.98
X314.973Y-152.03
T4
X52.142Y-92.413
X52.142Y-111.463
X52.142Y-130.513
X52.142Y-149.563
X58.492Y-89.873
X58.492Y-108.923
X58.492Y-127.973
X58.492Y-147.023
X71.192Y-89.413
X71.192Y-108.463
X71.192Y-127.513
X71.192Y-146.563
X77.542Y-86.873
X77.542Y-105.923
X77.542Y-124.973
X77.542Y-144.023
X90.242Y-84.413
X90.242Y-103.463
X90.242Y-122.513
X90.242Y-141.563
X96.592Y-81.873
X96.592Y-100.923
X96.592Y-119.973
X96.592Y-139.023
X99.767Y-160.613
X106.117Y-158.073
X109.292Y-82.413
X109.292Y-101.463
X109.292Y-120.513
X109.292Y-139.563
X115.642Y-79.873
X115.642Y-98.923
X115.642Y-117.973
X115.642Y-137.023
X118.817Y-160.613
X125.167Y-158.073
X128.342Y-84.413
X128.342Y-103.463
X128.342Y-122.513
X128.342Y-141.563
X134.692Y-81.873
X134.692Y-100.923
X134.692Y-119.973
X134.692Y-139.023
X137.867Y-163.613
X144.217Y-161.073
X147.392Y-87.413
X147.392Y-106.463
X147.392Y-125.513
X147.392Y-144.563
X153.742Y-84.873
X153.742Y-103.923
X153.742Y-122.973
X153.742Y-142.023
X162.663Y-169.181
X163.044Y-162.352
X166.442Y-135.038
X172.792Y-132.498
X191.783Y-134.965
X198.133Y-132.425
X199.962Y-162.202
X204.947Y-166.883
X210.833Y-87.34
X210.833Y-106.39
X210.833Y-125.44
X210.833Y-144.49
X217.183Y-84.8
X217.183Y-103.85
X217.183Y-122.9
X217.183Y-141.95
X220.358Y-163.54
X226.708Y-161.0
X229.883Y-84.34
X229.883Y-103.39
X229.883Y-122.44
X229.883Y-141.49
X236.233Y-81.8
X236.233Y-100.85
X236.233Y-119.9
X236.233Y-138.95
X239.408Y-160.54
X245.758Y-158.0
X248.933Y-82.34
X248.933Y-101.39
X248.933Y-120.44
X248.933Y-139.49
X255.283Y-79.8
X255.283Y-98.85
X255.283Y-117.9
X255.283Y-136.95
X258.458Y-160.54
X264.808Y-158.0
X267.983Y-84.34
X267.983Y-103.39
X267.983Y-122.44
X267.983Y-141.49
X274.333Y-81.8
X274.333Y-100.85
X274.333Y-119.9
X274.333Y-138.95
X287.033Y-89.34
X287.033Y-108.39
X287.033Y-127.44
X287.033Y-146.49
X293.383Y-86.8
X293.383Y-105.85
X293.383Y-124.9
X293.383Y-143.95
X306.083Y-92.34
X306.083Y-111.39
X306.083Y-130.44
X306.083Y-149.49
X312.433Y-89.8
X312.433Y-108.85
X312.433Y-127.9
X312.433Y-146.95
T5
X55.952Y-94.953
X55.952Y-114.003
X55.952Y-133.053
X55.952Y-152.103
X75.002Y-91.953
X75.002Y-111.003
X75.002Y-130.053
X75.002Y-149.103
X94.052Y-86.953
X94.052Y-106.003
X94.052Y-125.053
X94.052Y-144.103
X103.577Y-163.153
X113.102Y-84.953
X113.102Y-104.003
X113.102Y-123.053
X113.102Y-142.103
X122.627Y-163.153
X132.152Y-86.953
X132.152Y-106.003
X132.152Y-125.053
X132.152Y-144.103
X141.677Y-166.153
X151.202Y-89.953
X151.202Y-109.003
X151.202Y-128.053
X151.202Y-147.103
X166.575Y-166.801
X170.252Y-137.578
X195.593Y-137.505
X199.27Y-166.728
X214.643Y-89.88
X214.643Y-108.93
X214.643Y-127.98
X214.643Y-147.03
X224.168Y-166.08
X233.693Y-86.88
X233.693Y-105.93
X233.693Y-124.98
X233.693Y-144.03
X243.218Y-163.08
X252.743Y-84.88
X252.743Y-103.93
X252.743Y-122.98
X252.743Y-142.03
X262.268Y-163.08
X271.793Y-86.88
X271.793Y-105.93
X271.793Y-124.98
X271.793Y-144.03
X290.843Y-91.88
X290.843Y-110.93
X290.843Y-129.98
X290.843Y-149.03
X309.893Y-94.88
X309.893Y-113.93
X309.893Y-132.98
X309.893Y-152.03
M30
