M48
; DRILL file {KiCad 9.0.3} date 2025-08-01T16:01:10-0400
; FORMAT={-:-/ absolute / metric / decimal}
; #@! TF.CreationDate,2025-08-01T16:01:10-04:00
; #@! TF.GenerationSoftware,Kicad,Pcbnew,9.0.3
; #@! TF.FileFunction,Plated,1,2,PTH
FMAT,2
METRIC
; #@! TA.AperFunction,Plated,PTH,ViaDrill
T1C0.400
; #@! TA.AperFunction,Plated,PTH,ComponentDrill
T2C0.750
; #@! TA.AperFunction,Plated,PTH,ComponentDrill
T3C1.000
; #@! TA.AperFunction,Plated,PTH,ComponentDrill
T4C1.092
; #@! TA.AperFunction,Plated,PTH,ComponentDrill
T5C1.400
%
G90
G05
T1
X48.213Y-94.631
X49.031Y-128.278
X49.227Y-147.328
X49.235Y-109.028
X51.645Y-155.809
X51.72Y-136.834
X51.794Y-98.66
X51.87Y-117.383
X57.776Y-140.525
X58.627Y-101.924
X58.627Y-121.202
X60.077Y-156.978
X64.89Y-180.913
X65.329Y-175.48
X65.406Y-180.057
X66.254Y-179.527
X67.263Y-95.603
X68.327Y-144.178
X68.427Y-125.028
X68.577Y-105.778
X68.726Y-156.203
X70.72Y-152.834
X70.768Y-133.887
X70.877Y-95.678
X70.931Y-114.998
X77.677Y-99.249
X77.677Y-118.339
X77.677Y-137.389
X79.177Y-154.178
X86.313Y-90.632
X86.666Y-151.287
X87.427Y-138.978
X87.552Y-100.853
X87.577Y-120.028
X89.595Y-147.908
X89.677Y-90.778
X89.745Y-109.709
X89.82Y-128.834
X96.727Y-94.078
X96.727Y-113.302
X96.727Y-132.389
X96.727Y-151.378
X99.377Y-167.078
X105.177Y-87.878
X106.427Y-99.278
X106.677Y-136.978
X106.827Y-117.828
X107.777Y-168.678
X108.677Y-88.678
X108.82Y-107.734
X108.845Y-126.809
X109.014Y-145.39
X114.477Y-153.778
X115.777Y-92.178
X115.777Y-111.339
X115.777Y-130.389
X115.777Y-149.628
X118.477Y-166.978
X124.412Y-90.053
X125.577Y-120.228
X125.827Y-138.828
X125.977Y-100.603
X126.877Y-168.478
X127.87Y-128.784
X127.877Y-90.778
X128.077Y-109.378
X128.177Y-147.378
X133.477Y-155.578
X134.777Y-151.278
X134.827Y-94.289
X134.827Y-113.339
X134.827Y-132.389
X137.477Y-170.078
X142.977Y-92.182
X142.977Y-141.878
X144.627Y-104.128
X144.677Y-123.178
X145.977Y-171.478
X146.877Y-93.678
X146.895Y-112.709
X146.945Y-131.809
X147.077Y-150.378
X153.877Y-97.289
X153.877Y-116.339
X153.877Y-135.389
X153.877Y-154.471
X156.102Y-114.103
X156.627Y-133.228
X158.977Y-92.258
X163.277Y-153.478
X165.616Y-129.012
X167.977Y-172.446
X168.977Y-155.296
X169.252Y-122.378
X172.927Y-144.778
X173.268Y-164.534
X174.945Y-121.596
X174.988Y-120.597
X176.627Y-126.128
X178.502Y-126.378
X178.577Y-151.178
X178.627Y-148.778
X178.727Y-146.428
X178.855Y-144.028
X179.127Y-107.028
X179.727Y-137.528
X180.333Y-93.028
X180.362Y-136.755
X187.102Y-118.078
X188.328Y-125.228
X194.732Y-120.328
X196.452Y-155.128
X196.552Y-163.578
X196.852Y-128.478
X196.852Y-151.228
X200.202Y-119.978
X200.502Y-144.378
X202.477Y-150.727
X202.502Y-141.928
X204.952Y-128.878
X205.352Y-147.278
X208.55Y-92.23
X208.821Y-120.446
X208.875Y-103.878
X208.875Y-122.728
X208.875Y-141.828
X209.902Y-111.978
X212.129Y-131.325
X212.183Y-112.285
X212.202Y-150.378
X212.952Y-92.878
X214.152Y-96.778
X218.502Y-156.528
X219.552Y-96.678
X219.552Y-134.628
X219.552Y-153.828
X219.602Y-115.578
X222.402Y-168.978
X227.925Y-100.478
X227.925Y-119.378
X227.925Y-138.528
X228.452Y-94.678
X231.08Y-90.211
X231.202Y-127.628
X231.477Y-109.332
X231.631Y-147.535
X236.902Y-155.578
X238.552Y-150.878
X238.602Y-93.678
X238.602Y-112.728
X238.602Y-131.978
X238.702Y-156.478
X246.852Y-99.128
X246.952Y-93.003
X246.975Y-117.728
X246.975Y-136.878
X250.25Y-126.328
X250.511Y-145.455
X250.552Y-107.332
X250.702Y-88.278
X257.602Y-92.378
X257.652Y-110.628
X257.652Y-129.778
X257.652Y-148.903
X265.427Y-138.828
X265.652Y-92.104
X265.727Y-119.378
X265.777Y-100.728
X269.598Y-128.42
X269.607Y-90.323
X269.663Y-109.4
X269.711Y-147.524
X276.702Y-93.54
X276.702Y-112.928
X276.702Y-131.728
X276.702Y-150.628
X283.452Y-153.578
X284.527Y-105.878
X284.677Y-125.278
X284.702Y-143.828
X285.552Y-95.228
X288.527Y-152.414
X288.582Y-95.293
X288.752Y-114.278
X288.902Y-133.528
X295.752Y-98.828
X295.752Y-117.978
X295.752Y-155.878
X295.802Y-136.928
X303.377Y-127.828
X303.427Y-109.278
X303.427Y-147.178
X304.202Y-100.104
X307.752Y-117.179
X307.802Y-98.328
X307.802Y-135.728
X307.802Y-155.328
X309.477Y-120.778
X314.802Y-101.928
X314.802Y-120.978
X314.802Y-158.928
X314.852Y-139.978
X316.702Y-136.878
X316.952Y-99.928
X319.217Y-151.47
T2
X170.252Y-84.278
X172.252Y-84.278
X195.827Y-83.828
X197.827Y-83.828
T3
X166.432Y-118.328
X168.972Y-118.328
X171.512Y-118.328
X174.052Y-118.328
X194.007Y-117.878
X196.547Y-117.878
X199.087Y-117.878
X201.627Y-117.878
T4
X162.632Y-85.408
X162.632Y-87.948
X162.632Y-90.488
X162.632Y-93.028
X162.632Y-95.568
X162.632Y-98.108
X162.632Y-100.648
X162.632Y-103.188
X162.632Y-105.728
X162.632Y-108.268
X162.632Y-110.808
X162.632Y-113.348
X165.172Y-115.888
X167.712Y-115.888
X170.252Y-108.268
X170.252Y-115.888
X172.792Y-108.268
X172.792Y-115.888
X175.332Y-108.268
X175.332Y-115.888
X177.872Y-85.408
X177.872Y-87.948
X177.872Y-90.488
X177.872Y-93.028
X177.872Y-95.568
X177.872Y-98.108
X177.872Y-100.648
X177.872Y-103.188
X177.872Y-105.728
X177.872Y-108.268
X177.872Y-110.808
X177.872Y-113.348
X190.207Y-84.858
X190.207Y-87.398
X190.207Y-89.938
X190.207Y-92.478
X190.207Y-95.018
X190.207Y-97.558
X190.207Y-100.098
X190.207Y-102.638
X190.207Y-105.178
X190.207Y-107.718
X190.207Y-110.258
X190.207Y-112.798
X192.747Y-115.338
X195.287Y-115.338
X197.827Y-107.718
X197.827Y-115.338
X200.367Y-107.718
X200.367Y-115.338
X202.907Y-107.718
X202.907Y-115.338
X205.447Y-84.858
X205.447Y-87.398
X205.447Y-89.938
X205.447Y-92.478
X205.447Y-95.018
X205.447Y-97.558
X205.447Y-100.098
X205.447Y-102.638
X205.447Y-105.178
X205.447Y-107.718
X205.447Y-110.258
X205.447Y-112.798
T5
X59.778Y-185.636
X68.2Y-166.919
X69.381Y-175.482
X69.381Y-188.578
X77.039Y-180.92
X79.181Y-165.95
X82.477Y-188.578
X83.657Y-197.141
X92.079Y-178.423
M30
