G04 #@! TF.GenerationSoftware,KiCad,Pcbnew,9.0.3*
G04 #@! TF.CreationDate,2025-08-06T01:59:05-04:00*
G04 #@! TF.ProjectId,quartz58,71756172-747a-4353-982e-6b696361645f,rev?*
G04 #@! TF.SameCoordinates,Original*
G04 #@! TF.FileFunction,Paste,Top*
G04 #@! TF.FilePolarity,Positive*
%FSLAX46Y46*%
G04 Gerber Fmt 4.6, Leading zero omitted, Abs format (unit mm)*
G04 Created by KiCad (PCBNEW 9.0.3) date 2025-08-06 01:59:05*
%MOMM*%
%LPD*%
G01*
G04 APERTURE LIST*
%ADD10R,1.500000X0.700000*%
%ADD11R,0.800000X1.000000*%
%ADD12R,0.711200X1.549400*%
G04 #@! TA.AperFunction,Profile*
%ADD13C,0.150000*%
G04 #@! TD*
G04 #@! TA.AperFunction,Profile*
%ADD14C,0.100000*%
G04 #@! TD*
G04 #@! TA.AperFunction,Profile*
%ADD15C,0.200000*%
G04 #@! TD*
G04 APERTURE END LIST*
D10*
X178251607Y-128827544D03*
X178251607Y-125827544D03*
X178251607Y-124327544D03*
D11*
X178901607Y-130227544D03*
X178901607Y-122927544D03*
X181101607Y-130227544D03*
X181101607Y-122927544D03*
D12*
X178901606Y-121106444D03*
X180601608Y-121106444D03*
X180601608Y-115848644D03*
X178901606Y-115848644D03*
D10*
X247976607Y-124227544D03*
X247976607Y-127227544D03*
X247976607Y-128727544D03*
D11*
X247326607Y-122827544D03*
X247326607Y-130127544D03*
X245126607Y-122827544D03*
X245126607Y-130127544D03*
D12*
X247326608Y-115748644D03*
X245626606Y-115748644D03*
X245626606Y-121006444D03*
X247326608Y-121006444D03*
D13*
X151581850Y-176177544D02*
X132151607Y-176177544D01*
X103076607Y-76427544D02*
X103076607Y-75427544D01*
X168958035Y-184228503D02*
X151793159Y-176224390D01*
X103576607Y-74927544D02*
X122626607Y-74927544D01*
X181776606Y-157811695D02*
G75*
G02*
X181729765Y-158023010I-499606J-105D01*
G01*
X294576607Y-175677544D02*
G75*
G02*
X294076607Y-176177607I-500107J44D01*
G01*
X181276607Y-79927544D02*
G75*
G02*
X181776556Y-80427544I-7J-499956D01*
G01*
X123626607Y-76927544D02*
X141676607Y-76927544D01*
X341701607Y-76927544D02*
X323651607Y-76927544D01*
D14*
X117351881Y-191582162D02*
G75*
G02*
X119151881Y-189782181I1800019J-38D01*
G01*
D13*
X332676607Y-172677544D02*
G75*
G02*
X332176607Y-173177607I-500107J44D01*
G01*
X332676607Y-172677544D02*
X332676607Y-162627544D01*
X302601607Y-76927544D02*
X284551607Y-76927544D01*
X84026607Y-77427544D02*
G75*
G02*
X84526607Y-76927507I499993J44D01*
G01*
X332676607Y-162627544D02*
G75*
G02*
X333176607Y-162127607I499893J44D01*
G01*
X93551607Y-172677544D02*
X93551607Y-162627544D01*
X94051607Y-173177544D02*
G75*
G02*
X93551556Y-172677544I-7J500044D01*
G01*
X244498454Y-158023007D02*
X256605717Y-183986662D01*
D14*
X125211941Y-187886792D02*
G75*
G02*
X125211943Y-217676709I10327439J-14894958D01*
G01*
D13*
X151581850Y-176177544D02*
G75*
G02*
X151793164Y-176224379I-50J-500356D01*
G01*
X169622497Y-183986661D02*
G75*
G02*
X168958020Y-184228535I-453197J211361D01*
G01*
X122626607Y-74927544D02*
G75*
G02*
X123126556Y-75427544I-7J-499956D01*
G01*
X65476607Y-81927544D02*
X83526607Y-81927544D01*
X361251607Y-84427544D02*
X361251607Y-82427544D01*
X132151607Y-176177544D02*
G75*
G02*
X131651556Y-175677544I-7J500044D01*
G01*
X380301607Y-161627544D02*
X380301607Y-85427544D01*
X142676607Y-79927544D02*
G75*
G02*
X142176556Y-79427544I-7J500044D01*
G01*
X142676607Y-79927544D02*
X181276607Y-79927544D01*
X257270180Y-184228503D02*
G75*
G02*
X256605732Y-183986655I-211280J453203D01*
G01*
D15*
X120251881Y-213981342D02*
G75*
G02*
X118051881Y-213981342I-1100000J0D01*
G01*
X118051881Y-213981342D02*
G75*
G02*
X120251881Y-213981342I1100000J0D01*
G01*
D13*
X142176607Y-77427544D02*
X142176607Y-79427544D01*
X274435055Y-176224390D02*
G75*
G02*
X274646364Y-176177544I211145J-452410D01*
G01*
X323651607Y-76927544D02*
G75*
G02*
X323151656Y-76427544I-7J499944D01*
G01*
X84526607Y-76927544D02*
X102576607Y-76927544D01*
X322651607Y-74927544D02*
G75*
G02*
X323151656Y-75427544I-7J-500056D01*
G01*
X46426607Y-84927544D02*
X64476607Y-84927544D01*
X379801607Y-84927544D02*
X361751607Y-84927544D01*
X333176607Y-162127544D02*
X379801607Y-162127544D01*
X131151607Y-173177544D02*
X94051607Y-173177544D01*
X342701607Y-81927544D02*
G75*
G02*
X342201656Y-81427544I-7J499944D01*
G01*
X322651607Y-74927544D02*
X303601607Y-74927544D01*
X379801607Y-84927544D02*
G75*
G02*
X380301656Y-85427544I-7J-500056D01*
G01*
D15*
X120251881Y-191582162D02*
G75*
G02*
X118051881Y-191582162I-1100000J0D01*
G01*
X118051881Y-191582162D02*
G75*
G02*
X120251881Y-191582162I1100000J0D01*
G01*
D13*
X342201607Y-81427544D02*
X342201607Y-77427544D01*
X46426607Y-162127544D02*
G75*
G02*
X45926556Y-161627544I-7J500044D01*
G01*
X64976607Y-84427544D02*
G75*
G02*
X64476607Y-84927507I-500007J44D01*
G01*
X283551607Y-79927544D02*
X244951607Y-79927544D01*
X274646364Y-176177544D02*
X294076607Y-176177544D01*
D14*
X121151881Y-215781342D02*
G75*
G02*
X123568364Y-216537128I19J-4240958D01*
G01*
D13*
X284051607Y-77427544D02*
X284051607Y-79427544D01*
X131651607Y-175677544D02*
X131651607Y-173677544D01*
X303101607Y-75427544D02*
G75*
G02*
X303601607Y-74927607I499893J44D01*
G01*
X123126607Y-75427544D02*
X123126607Y-76427544D01*
X181729760Y-158023007D02*
X169622497Y-183986662D01*
X294576607Y-173677544D02*
G75*
G02*
X295076607Y-173177607I499893J44D01*
G01*
D14*
X123568361Y-216537148D02*
X125211941Y-217676707D01*
X119151881Y-189782162D02*
X121161559Y-189782162D01*
D13*
X360751607Y-81927544D02*
G75*
G02*
X361251656Y-82427544I-7J-500056D01*
G01*
X84026607Y-81427544D02*
G75*
G02*
X83526607Y-81927507I-500007J44D01*
G01*
X323151607Y-76427544D02*
X323151607Y-75427544D01*
D14*
X119151881Y-215781342D02*
G75*
G02*
X117351858Y-213981342I19J1800042D01*
G01*
D13*
X244498455Y-158023007D02*
G75*
G02*
X244451609Y-157811695I453145J211307D01*
G01*
X284051607Y-79427544D02*
G75*
G02*
X283551607Y-79927607I-500107J44D01*
G01*
X64976607Y-84427544D02*
X64976607Y-82427544D01*
X181776607Y-80427544D02*
X181776607Y-157811695D01*
X45926607Y-85427544D02*
G75*
G02*
X46426607Y-84927507I499993J44D01*
G01*
D14*
X123568361Y-189026372D02*
G75*
G02*
X121151881Y-189782174I-2416461J3485072D01*
G01*
D13*
X294576607Y-175677544D02*
X294576607Y-173677544D01*
X341701607Y-76927544D02*
G75*
G02*
X342201656Y-77427544I-7J-500056D01*
G01*
X361751607Y-84927544D02*
G75*
G02*
X361251656Y-84427544I-7J499944D01*
G01*
X45926607Y-161627544D02*
X45926607Y-85427544D01*
X380301607Y-161627544D02*
G75*
G02*
X379801607Y-162127607I-500107J44D01*
G01*
X244451607Y-80427544D02*
X244451607Y-157811695D01*
X141676607Y-76927544D02*
G75*
G02*
X142176556Y-77427544I-7J-499956D01*
G01*
X284051607Y-77427544D02*
G75*
G02*
X284551607Y-76927607I499893J44D01*
G01*
X64976607Y-82427544D02*
G75*
G02*
X65476607Y-81927507I499993J44D01*
G01*
X123626607Y-76927544D02*
G75*
G02*
X123126556Y-76427544I-7J500044D01*
G01*
X93051607Y-162127544D02*
X46426607Y-162127544D01*
X244451607Y-80427544D02*
G75*
G02*
X244951607Y-79927607I499893J44D01*
G01*
X303101607Y-76427544D02*
G75*
G02*
X302601607Y-76927607I-500107J44D01*
G01*
X103076607Y-75427544D02*
G75*
G02*
X103576607Y-74927507I499993J44D01*
G01*
D14*
X119151881Y-215781342D02*
X121151900Y-215781342D01*
X125211941Y-187886792D02*
X123568361Y-189026371D01*
D13*
X93051607Y-162127544D02*
G75*
G02*
X93551556Y-162627544I-7J-499956D01*
G01*
X103076607Y-76427544D02*
G75*
G02*
X102576607Y-76927507I-500007J44D01*
G01*
X360751607Y-81927544D02*
X342701607Y-81927544D01*
D14*
X117351881Y-191582200D02*
X117351881Y-213990399D01*
D13*
X84026607Y-81427544D02*
X84026607Y-77427544D01*
X131151607Y-173177544D02*
G75*
G02*
X131651556Y-173677544I-7J-499956D01*
G01*
X257270179Y-184228503D02*
X274435055Y-176224390D01*
X303101607Y-75427544D02*
X303101607Y-76427544D01*
X295076607Y-173177544D02*
X332176607Y-173177544D01*
D15*
X70451607Y-149102544D02*
G75*
G02*
X68551607Y-149102544I-950000J0D01*
G01*
X68551607Y-149102544D02*
G75*
G02*
X70451607Y-149102544I950000J0D01*
G01*
X81451607Y-149102544D02*
G75*
G02*
X79551607Y-149102544I-950000J0D01*
G01*
X79551607Y-149102544D02*
G75*
G02*
X81451607Y-149102544I950000J0D01*
G01*
X289526607Y-125052544D02*
G75*
G02*
X287626607Y-125052544I-950000J0D01*
G01*
X287626607Y-125052544D02*
G75*
G02*
X289526607Y-125052544I950000J0D01*
G01*
X300526607Y-125052544D02*
G75*
G02*
X298626607Y-125052544I-950000J0D01*
G01*
X298626607Y-125052544D02*
G75*
G02*
X300526607Y-125052544I950000J0D01*
G01*
X308576607Y-104002544D02*
G75*
G02*
X306676607Y-104002544I-950000J0D01*
G01*
X306676607Y-104002544D02*
G75*
G02*
X308576607Y-104002544I950000J0D01*
G01*
X319576607Y-104002544D02*
G75*
G02*
X317676607Y-104002544I-950000J0D01*
G01*
X317676607Y-104002544D02*
G75*
G02*
X319576607Y-104002544I950000J0D01*
G01*
X99026607Y-163152544D02*
G75*
G02*
X97126607Y-163152544I-950000J0D01*
G01*
X97126607Y-163152544D02*
G75*
G02*
X99026607Y-163152544I950000J0D01*
G01*
X110026607Y-163152544D02*
G75*
G02*
X108126607Y-163152544I-950000J0D01*
G01*
X108126607Y-163152544D02*
G75*
G02*
X110026607Y-163152544I950000J0D01*
G01*
X146651607Y-147102544D02*
G75*
G02*
X144751607Y-147102544I-950000J0D01*
G01*
X144751607Y-147102544D02*
G75*
G02*
X146651607Y-147102544I950000J0D01*
G01*
X157651607Y-147102544D02*
G75*
G02*
X155751607Y-147102544I-950000J0D01*
G01*
X155751607Y-147102544D02*
G75*
G02*
X157651607Y-147102544I950000J0D01*
G01*
X327626607Y-144102544D02*
G75*
G02*
X325726607Y-144102544I-950000J0D01*
G01*
X325726607Y-144102544D02*
G75*
G02*
X327626607Y-144102544I950000J0D01*
G01*
X338626607Y-144102544D02*
G75*
G02*
X336726607Y-144102544I-950000J0D01*
G01*
X336726607Y-144102544D02*
G75*
G02*
X338626607Y-144102544I950000J0D01*
G01*
X365726607Y-94952544D02*
G75*
G02*
X363826607Y-94952544I-950000J0D01*
G01*
X363826607Y-94952544D02*
G75*
G02*
X365726607Y-94952544I950000J0D01*
G01*
X376726607Y-94952544D02*
G75*
G02*
X374826607Y-94952544I-950000J0D01*
G01*
X374826607Y-94952544D02*
G75*
G02*
X376726607Y-94952544I950000J0D01*
G01*
X89501607Y-106002544D02*
G75*
G02*
X87601607Y-106002544I-950000J0D01*
G01*
X87601607Y-106002544D02*
G75*
G02*
X89501607Y-106002544I950000J0D01*
G01*
X100501607Y-106002544D02*
G75*
G02*
X98601607Y-106002544I-950000J0D01*
G01*
X98601607Y-106002544D02*
G75*
G02*
X100501607Y-106002544I950000J0D01*
G01*
X108551607Y-142102544D02*
G75*
G02*
X106651607Y-142102544I-950000J0D01*
G01*
X106651607Y-142102544D02*
G75*
G02*
X108551607Y-142102544I950000J0D01*
G01*
X119551607Y-142102544D02*
G75*
G02*
X117651607Y-142102544I-950000J0D01*
G01*
X117651607Y-142102544D02*
G75*
G02*
X119551607Y-142102544I950000J0D01*
G01*
X346676607Y-111002544D02*
G75*
G02*
X344776607Y-111002544I-950000J0D01*
G01*
X344776607Y-111002544D02*
G75*
G02*
X346676607Y-111002544I950000J0D01*
G01*
X357676607Y-111002544D02*
G75*
G02*
X355776607Y-111002544I-950000J0D01*
G01*
X355776607Y-111002544D02*
G75*
G02*
X357676607Y-111002544I950000J0D01*
G01*
D14*
X148445981Y-213388352D02*
G75*
G02*
X143845981Y-213388352I-2300000J0D01*
G01*
X143845981Y-213388352D02*
G75*
G02*
X148445981Y-213388352I2300000J0D01*
G01*
X148445981Y-192175152D02*
G75*
G02*
X143845981Y-192175152I-2300000J0D01*
G01*
X143845981Y-192175152D02*
G75*
G02*
X148445981Y-192175152I2300000J0D01*
G01*
X139521361Y-205963732D02*
G75*
G02*
X137921361Y-205963732I-800000J0D01*
G01*
X137921361Y-205963732D02*
G75*
G02*
X139521361Y-205963732I800000J0D01*
G01*
X133157401Y-199599772D02*
G75*
G02*
X131557401Y-199599772I-800000J0D01*
G01*
X131557401Y-199599772D02*
G75*
G02*
X133157401Y-199599772I800000J0D01*
G01*
X127232781Y-213388352D02*
G75*
G02*
X122632781Y-213388352I-2300000J0D01*
G01*
X122632781Y-213388352D02*
G75*
G02*
X127232781Y-213388352I2300000J0D01*
G01*
X127232781Y-192175152D02*
G75*
G02*
X122632781Y-192175152I-2300000J0D01*
G01*
X122632781Y-192175152D02*
G75*
G02*
X127232781Y-192175152I2300000J0D01*
G01*
D15*
X327626607Y-106002544D02*
G75*
G02*
X325726607Y-106002544I-950000J0D01*
G01*
X325726607Y-106002544D02*
G75*
G02*
X327626607Y-106002544I950000J0D01*
G01*
X338626607Y-106002544D02*
G75*
G02*
X336726607Y-106002544I-950000J0D01*
G01*
X336726607Y-106002544D02*
G75*
G02*
X338626607Y-106002544I950000J0D01*
G01*
X51401607Y-94952544D02*
G75*
G02*
X49501607Y-94952544I-950000J0D01*
G01*
X49501607Y-94952544D02*
G75*
G02*
X51401607Y-94952544I950000J0D01*
G01*
X62401607Y-94952544D02*
G75*
G02*
X60501607Y-94952544I-950000J0D01*
G01*
X60501607Y-94952544D02*
G75*
G02*
X62401607Y-94952544I950000J0D01*
G01*
X89501607Y-86952544D02*
G75*
G02*
X87601607Y-86952544I-950000J0D01*
G01*
X87601607Y-86952544D02*
G75*
G02*
X89501607Y-86952544I950000J0D01*
G01*
X100501607Y-86952544D02*
G75*
G02*
X98601607Y-86952544I-950000J0D01*
G01*
X98601607Y-86952544D02*
G75*
G02*
X100501607Y-86952544I950000J0D01*
G01*
X118076607Y-163152544D02*
G75*
G02*
X116176607Y-163152544I-950000J0D01*
G01*
X116176607Y-163152544D02*
G75*
G02*
X118076607Y-163152544I950000J0D01*
G01*
X129076607Y-163152544D02*
G75*
G02*
X127176607Y-163152544I-950000J0D01*
G01*
X127176607Y-163152544D02*
G75*
G02*
X129076607Y-163152544I950000J0D01*
G01*
X308576607Y-84952544D02*
G75*
G02*
X306676607Y-84952544I-950000J0D01*
G01*
X306676607Y-84952544D02*
G75*
G02*
X308576607Y-84952544I950000J0D01*
G01*
X319576607Y-84952544D02*
G75*
G02*
X317676607Y-84952544I-950000J0D01*
G01*
X317676607Y-84952544D02*
G75*
G02*
X319576607Y-84952544I950000J0D01*
G01*
X51401607Y-152102544D02*
G75*
G02*
X49501607Y-152102544I-950000J0D01*
G01*
X49501607Y-152102544D02*
G75*
G02*
X51401607Y-152102544I950000J0D01*
G01*
X62401607Y-152102544D02*
G75*
G02*
X60501607Y-152102544I-950000J0D01*
G01*
X60501607Y-152102544D02*
G75*
G02*
X62401607Y-152102544I950000J0D01*
G01*
X327626607Y-86952544D02*
G75*
G02*
X325726607Y-86952544I-950000J0D01*
G01*
X325726607Y-86952544D02*
G75*
G02*
X327626607Y-86952544I950000J0D01*
G01*
X338626607Y-86952544D02*
G75*
G02*
X336726607Y-86952544I-950000J0D01*
G01*
X336726607Y-86952544D02*
G75*
G02*
X338626607Y-86952544I950000J0D01*
G01*
X365726607Y-114002544D02*
G75*
G02*
X363826607Y-114002544I-950000J0D01*
G01*
X363826607Y-114002544D02*
G75*
G02*
X365726607Y-114002544I950000J0D01*
G01*
X376726607Y-114002544D02*
G75*
G02*
X374826607Y-114002544I-950000J0D01*
G01*
X374826607Y-114002544D02*
G75*
G02*
X376726607Y-114002544I950000J0D01*
G01*
X258278895Y-161816344D02*
G75*
G02*
X256378897Y-161816344I-949999J0D01*
G01*
X256378897Y-161816344D02*
G75*
G02*
X258278895Y-161816344I949999J0D01*
G01*
X262927696Y-171785730D02*
G75*
G02*
X261027696Y-171785730I-950000J0D01*
G01*
X261027696Y-171785730D02*
G75*
G02*
X262927696Y-171785730I950000J0D01*
G01*
X346676607Y-149102544D02*
G75*
G02*
X344776607Y-149102544I-950000J0D01*
G01*
X344776607Y-149102544D02*
G75*
G02*
X346676607Y-149102544I950000J0D01*
G01*
X357676607Y-149102544D02*
G75*
G02*
X355776607Y-149102544I-950000J0D01*
G01*
X355776607Y-149102544D02*
G75*
G02*
X357676607Y-149102544I950000J0D01*
G01*
X308576607Y-142102544D02*
G75*
G02*
X306676607Y-142102544I-950000J0D01*
G01*
X306676607Y-142102544D02*
G75*
G02*
X308576607Y-142102544I950000J0D01*
G01*
X319576607Y-142102544D02*
G75*
G02*
X317676607Y-142102544I-950000J0D01*
G01*
X317676607Y-142102544D02*
G75*
G02*
X319576607Y-142102544I950000J0D01*
G01*
X127601607Y-144102544D02*
G75*
G02*
X125701607Y-144102544I-950000J0D01*
G01*
X125701607Y-144102544D02*
G75*
G02*
X127601607Y-144102544I950000J0D01*
G01*
X138601607Y-144102544D02*
G75*
G02*
X136701607Y-144102544I-950000J0D01*
G01*
X136701607Y-144102544D02*
G75*
G02*
X138601607Y-144102544I950000J0D01*
G01*
X127601607Y-86952544D02*
G75*
G02*
X125701607Y-86952544I-950000J0D01*
G01*
X125701607Y-86952544D02*
G75*
G02*
X127601607Y-86952544I950000J0D01*
G01*
X138601607Y-86952544D02*
G75*
G02*
X136701607Y-86952544I-950000J0D01*
G01*
X136701607Y-86952544D02*
G75*
G02*
X138601607Y-86952544I950000J0D01*
G01*
X127601607Y-106002544D02*
G75*
G02*
X125701607Y-106002544I-950000J0D01*
G01*
X125701607Y-106002544D02*
G75*
G02*
X127601607Y-106002544I950000J0D01*
G01*
X138601607Y-106002544D02*
G75*
G02*
X136701607Y-106002544I-950000J0D01*
G01*
X136701607Y-106002544D02*
G75*
G02*
X138601607Y-106002544I950000J0D01*
G01*
X270476607Y-147102544D02*
G75*
G02*
X268576607Y-147102544I-950000J0D01*
G01*
X268576607Y-147102544D02*
G75*
G02*
X270476607Y-147102544I950000J0D01*
G01*
X281476607Y-147102544D02*
G75*
G02*
X279576607Y-147102544I-950000J0D01*
G01*
X279576607Y-147102544D02*
G75*
G02*
X281476607Y-147102544I950000J0D01*
G01*
X70451607Y-130052544D02*
G75*
G02*
X68551607Y-130052544I-950000J0D01*
G01*
X68551607Y-130052544D02*
G75*
G02*
X70451607Y-130052544I950000J0D01*
G01*
X81451607Y-130052544D02*
G75*
G02*
X79551607Y-130052544I-950000J0D01*
G01*
X79551607Y-130052544D02*
G75*
G02*
X81451607Y-130052544I950000J0D01*
G01*
X165200519Y-171785730D02*
G75*
G02*
X163300517Y-171785730I-950001J0D01*
G01*
X163300517Y-171785730D02*
G75*
G02*
X165200519Y-171785730I950001J0D01*
G01*
X169849318Y-161816344D02*
G75*
G02*
X167949318Y-161816344I-950000J0D01*
G01*
X167949318Y-161816344D02*
G75*
G02*
X169849318Y-161816344I950000J0D01*
G01*
X146651607Y-89952544D02*
G75*
G02*
X144751607Y-89952544I-950000J0D01*
G01*
X144751607Y-89952544D02*
G75*
G02*
X146651607Y-89952544I950000J0D01*
G01*
X157651607Y-89952544D02*
G75*
G02*
X155751607Y-89952544I-950000J0D01*
G01*
X155751607Y-89952544D02*
G75*
G02*
X157651607Y-89952544I950000J0D01*
G01*
X89501607Y-125052544D02*
G75*
G02*
X87601607Y-125052544I-950000J0D01*
G01*
X87601607Y-125052544D02*
G75*
G02*
X89501607Y-125052544I950000J0D01*
G01*
X100501607Y-125052544D02*
G75*
G02*
X98601607Y-125052544I-950000J0D01*
G01*
X98601607Y-125052544D02*
G75*
G02*
X100501607Y-125052544I950000J0D01*
G01*
X270476607Y-128052544D02*
G75*
G02*
X268576607Y-128052544I-950000J0D01*
G01*
X268576607Y-128052544D02*
G75*
G02*
X270476607Y-128052544I950000J0D01*
G01*
X281476607Y-128052544D02*
G75*
G02*
X279576607Y-128052544I-950000J0D01*
G01*
X279576607Y-128052544D02*
G75*
G02*
X281476607Y-128052544I950000J0D01*
G01*
X289526607Y-86952544D02*
G75*
G02*
X287626607Y-86952544I-950000J0D01*
G01*
X287626607Y-86952544D02*
G75*
G02*
X289526607Y-86952544I950000J0D01*
G01*
X300526607Y-86952544D02*
G75*
G02*
X298626607Y-86952544I-950000J0D01*
G01*
X298626607Y-86952544D02*
G75*
G02*
X300526607Y-86952544I950000J0D01*
G01*
X165701607Y-137577544D02*
G75*
G02*
X163801607Y-137577544I-950000J0D01*
G01*
X163801607Y-137577544D02*
G75*
G02*
X165701607Y-137577544I950000J0D01*
G01*
X176701607Y-137577544D02*
G75*
G02*
X174801607Y-137577544I-950000J0D01*
G01*
X174801607Y-137577544D02*
G75*
G02*
X176701607Y-137577544I950000J0D01*
G01*
X146651607Y-109002544D02*
G75*
G02*
X144751607Y-109002544I-950000J0D01*
G01*
X144751607Y-109002544D02*
G75*
G02*
X146651607Y-109002544I950000J0D01*
G01*
X157651607Y-109002544D02*
G75*
G02*
X155751607Y-109002544I-950000J0D01*
G01*
X155751607Y-109002544D02*
G75*
G02*
X157651607Y-109002544I950000J0D01*
G01*
X365726607Y-152102544D02*
G75*
G02*
X363826607Y-152102544I-950000J0D01*
G01*
X363826607Y-152102544D02*
G75*
G02*
X365726607Y-152102544I950000J0D01*
G01*
X376726607Y-152102544D02*
G75*
G02*
X374826607Y-152102544I-950000J0D01*
G01*
X374826607Y-152102544D02*
G75*
G02*
X376726607Y-152102544I950000J0D01*
G01*
X299051607Y-163152544D02*
G75*
G02*
X297151607Y-163152544I-950000J0D01*
G01*
X297151607Y-163152544D02*
G75*
G02*
X299051607Y-163152544I950000J0D01*
G01*
X310051607Y-163152544D02*
G75*
G02*
X308151607Y-163152544I-950000J0D01*
G01*
X308151607Y-163152544D02*
G75*
G02*
X310051607Y-163152544I950000J0D01*
G01*
D14*
X167252107Y-138027134D02*
X173252107Y-138027134D01*
X173252107Y-140027134D01*
X167252107Y-140027134D01*
X167252107Y-138027134D01*
D15*
X163776607Y-125427544D02*
G75*
G02*
X161576607Y-125427544I-1100000J0D01*
G01*
X161576607Y-125427544D02*
G75*
G02*
X163776607Y-125427544I1100000J0D01*
G01*
X163776607Y-147826724D02*
G75*
G02*
X161576607Y-147826724I-1100000J0D01*
G01*
X161576607Y-147826724D02*
G75*
G02*
X163776607Y-147826724I1100000J0D01*
G01*
X51401607Y-133052544D02*
G75*
G02*
X49501607Y-133052544I-950000J0D01*
G01*
X49501607Y-133052544D02*
G75*
G02*
X51401607Y-133052544I950000J0D01*
G01*
X62401607Y-133052544D02*
G75*
G02*
X60501607Y-133052544I-950000J0D01*
G01*
X60501607Y-133052544D02*
G75*
G02*
X62401607Y-133052544I950000J0D01*
G01*
X146651607Y-128052544D02*
G75*
G02*
X144751607Y-128052544I-950000J0D01*
G01*
X144751607Y-128052544D02*
G75*
G02*
X146651607Y-128052544I950000J0D01*
G01*
X157651607Y-128052544D02*
G75*
G02*
X155751607Y-128052544I-950000J0D01*
G01*
X155751607Y-128052544D02*
G75*
G02*
X157651607Y-128052544I950000J0D01*
G01*
X108551607Y-84952544D02*
G75*
G02*
X106651607Y-84952544I-950000J0D01*
G01*
X106651607Y-84952544D02*
G75*
G02*
X108551607Y-84952544I950000J0D01*
G01*
X119551607Y-84952544D02*
G75*
G02*
X117651607Y-84952544I-950000J0D01*
G01*
X117651607Y-84952544D02*
G75*
G02*
X119551607Y-84952544I950000J0D01*
G01*
D14*
X163776607Y-118359634D02*
G75*
G02*
X161576607Y-118359634I-1100000J0D01*
G01*
X161576607Y-118359634D02*
G75*
G02*
X163776607Y-118359634I1100000J0D01*
G01*
X166768217Y-121457544D02*
G75*
G02*
X164568217Y-121457544I-1100000J0D01*
G01*
X164568217Y-121457544D02*
G75*
G02*
X166768217Y-121457544I1100000J0D01*
G01*
D15*
X289526607Y-106002544D02*
G75*
G02*
X287626607Y-106002544I-950000J0D01*
G01*
X287626607Y-106002544D02*
G75*
G02*
X289526607Y-106002544I950000J0D01*
G01*
X300526607Y-106002544D02*
G75*
G02*
X298626607Y-106002544I-950000J0D01*
G01*
X298626607Y-106002544D02*
G75*
G02*
X300526607Y-106002544I950000J0D01*
G01*
X346676607Y-130052544D02*
G75*
G02*
X344776607Y-130052544I-950000J0D01*
G01*
X344776607Y-130052544D02*
G75*
G02*
X346676607Y-130052544I950000J0D01*
G01*
X357676607Y-130052544D02*
G75*
G02*
X355776607Y-130052544I-950000J0D01*
G01*
X355776607Y-130052544D02*
G75*
G02*
X357676607Y-130052544I950000J0D01*
G01*
X51401607Y-114002544D02*
G75*
G02*
X49501607Y-114002544I-950000J0D01*
G01*
X49501607Y-114002544D02*
G75*
G02*
X51401607Y-114002544I950000J0D01*
G01*
X62401607Y-114002544D02*
G75*
G02*
X60501607Y-114002544I-950000J0D01*
G01*
X60501607Y-114002544D02*
G75*
G02*
X62401607Y-114002544I950000J0D01*
G01*
X308576607Y-123052544D02*
G75*
G02*
X306676607Y-123052544I-950000J0D01*
G01*
X306676607Y-123052544D02*
G75*
G02*
X308576607Y-123052544I950000J0D01*
G01*
X319576607Y-123052544D02*
G75*
G02*
X317676607Y-123052544I-950000J0D01*
G01*
X317676607Y-123052544D02*
G75*
G02*
X319576607Y-123052544I950000J0D01*
G01*
D14*
X253976607Y-137777544D02*
X257976607Y-137777544D01*
X257976607Y-139777544D01*
X253976607Y-139777544D01*
X253976607Y-137777544D01*
X250816607Y-143677544D02*
G75*
G02*
X248616607Y-143677544I-1100000J0D01*
G01*
X248616607Y-143677544D02*
G75*
G02*
X250816607Y-143677544I1100000J0D01*
G01*
D15*
X108551607Y-123052544D02*
G75*
G02*
X106651607Y-123052544I-950000J0D01*
G01*
X106651607Y-123052544D02*
G75*
G02*
X108551607Y-123052544I950000J0D01*
G01*
X119551607Y-123052544D02*
G75*
G02*
X117651607Y-123052544I-950000J0D01*
G01*
X117651607Y-123052544D02*
G75*
G02*
X119551607Y-123052544I950000J0D01*
G01*
X89501607Y-144102544D02*
G75*
G02*
X87601607Y-144102544I-950000J0D01*
G01*
X87601607Y-144102544D02*
G75*
G02*
X89501607Y-144102544I950000J0D01*
G01*
X100501607Y-144102544D02*
G75*
G02*
X98601607Y-144102544I-950000J0D01*
G01*
X98601607Y-144102544D02*
G75*
G02*
X100501607Y-144102544I950000J0D01*
G01*
X280001607Y-166152544D02*
G75*
G02*
X278101607Y-166152544I-950000J0D01*
G01*
X278101607Y-166152544D02*
G75*
G02*
X280001607Y-166152544I950000J0D01*
G01*
X291001607Y-166152544D02*
G75*
G02*
X289101607Y-166152544I-950000J0D01*
G01*
X289101607Y-166152544D02*
G75*
G02*
X291001607Y-166152544I950000J0D01*
G01*
X270476607Y-109002544D02*
G75*
G02*
X268576607Y-109002544I-950000J0D01*
G01*
X268576607Y-109002544D02*
G75*
G02*
X270476607Y-109002544I950000J0D01*
G01*
X281476607Y-109002544D02*
G75*
G02*
X279576607Y-109002544I-950000J0D01*
G01*
X279576607Y-109002544D02*
G75*
G02*
X281476607Y-109002544I950000J0D01*
G01*
X289526607Y-144102544D02*
G75*
G02*
X287626607Y-144102544I-950000J0D01*
G01*
X287626607Y-144102544D02*
G75*
G02*
X289526607Y-144102544I950000J0D01*
G01*
X300526607Y-144102544D02*
G75*
G02*
X298626607Y-144102544I-950000J0D01*
G01*
X298626607Y-144102544D02*
G75*
G02*
X300526607Y-144102544I950000J0D01*
G01*
X70451607Y-111002544D02*
G75*
G02*
X68551607Y-111002544I-950000J0D01*
G01*
X68551607Y-111002544D02*
G75*
G02*
X70451607Y-111002544I950000J0D01*
G01*
X81451607Y-111002544D02*
G75*
G02*
X79551607Y-111002544I-950000J0D01*
G01*
X79551607Y-111002544D02*
G75*
G02*
X81451607Y-111002544I950000J0D01*
G01*
X251426607Y-137577544D02*
G75*
G02*
X249526607Y-137577544I-950000J0D01*
G01*
X249526607Y-137577544D02*
G75*
G02*
X251426607Y-137577544I950000J0D01*
G01*
X262426607Y-137577544D02*
G75*
G02*
X260526607Y-137577544I-950000J0D01*
G01*
X260526607Y-137577544D02*
G75*
G02*
X262426607Y-137577544I950000J0D01*
G01*
X327626607Y-125052544D02*
G75*
G02*
X325726607Y-125052544I-950000J0D01*
G01*
X325726607Y-125052544D02*
G75*
G02*
X327626607Y-125052544I950000J0D01*
G01*
X338626607Y-125052544D02*
G75*
G02*
X336726607Y-125052544I-950000J0D01*
G01*
X336726607Y-125052544D02*
G75*
G02*
X338626607Y-125052544I950000J0D01*
G01*
X70451607Y-91952544D02*
G75*
G02*
X68551607Y-91952544I-950000J0D01*
G01*
X68551607Y-91952544D02*
G75*
G02*
X70451607Y-91952544I950000J0D01*
G01*
X81451607Y-91952544D02*
G75*
G02*
X79551607Y-91952544I-950000J0D01*
G01*
X79551607Y-91952544D02*
G75*
G02*
X81451607Y-91952544I950000J0D01*
G01*
X318101607Y-163152544D02*
G75*
G02*
X316201607Y-163152544I-950000J0D01*
G01*
X316201607Y-163152544D02*
G75*
G02*
X318101607Y-163152544I950000J0D01*
G01*
X329101607Y-163152544D02*
G75*
G02*
X327201607Y-163152544I-950000J0D01*
G01*
X327201607Y-163152544D02*
G75*
G02*
X329101607Y-163152544I950000J0D01*
G01*
X127601607Y-125052544D02*
G75*
G02*
X125701607Y-125052544I-950000J0D01*
G01*
X125701607Y-125052544D02*
G75*
G02*
X127601607Y-125052544I950000J0D01*
G01*
X138601607Y-125052544D02*
G75*
G02*
X136701607Y-125052544I-950000J0D01*
G01*
X136701607Y-125052544D02*
G75*
G02*
X138601607Y-125052544I950000J0D01*
G01*
X270476607Y-89952544D02*
G75*
G02*
X268576607Y-89952544I-950000J0D01*
G01*
X268576607Y-89952544D02*
G75*
G02*
X270476607Y-89952544I950000J0D01*
G01*
X281476607Y-89952544D02*
G75*
G02*
X279576607Y-89952544I-950000J0D01*
G01*
X279576607Y-89952544D02*
G75*
G02*
X281476607Y-89952544I950000J0D01*
G01*
X365726607Y-133052544D02*
G75*
G02*
X363826607Y-133052544I-950000J0D01*
G01*
X363826607Y-133052544D02*
G75*
G02*
X365726607Y-133052544I950000J0D01*
G01*
X376726607Y-133052544D02*
G75*
G02*
X374826607Y-133052544I-950000J0D01*
G01*
X374826607Y-133052544D02*
G75*
G02*
X376726607Y-133052544I950000J0D01*
G01*
X346676607Y-91952544D02*
G75*
G02*
X344776607Y-91952544I-950000J0D01*
G01*
X344776607Y-91952544D02*
G75*
G02*
X346676607Y-91952544I950000J0D01*
G01*
X357676607Y-91952544D02*
G75*
G02*
X355776607Y-91952544I-950000J0D01*
G01*
X355776607Y-91952544D02*
G75*
G02*
X357676607Y-91952544I950000J0D01*
G01*
X108551607Y-104002544D02*
G75*
G02*
X106651607Y-104002544I-950000J0D01*
G01*
X106651607Y-104002544D02*
G75*
G02*
X108551607Y-104002544I950000J0D01*
G01*
X119551607Y-104002544D02*
G75*
G02*
X117651607Y-104002544I-950000J0D01*
G01*
X117651607Y-104002544D02*
G75*
G02*
X119551607Y-104002544I950000J0D01*
G01*
X137126607Y-166152544D02*
G75*
G02*
X135226607Y-166152544I-950000J0D01*
G01*
X135226607Y-166152544D02*
G75*
G02*
X137126607Y-166152544I950000J0D01*
G01*
X148126607Y-166152544D02*
G75*
G02*
X146226607Y-166152544I-950000J0D01*
G01*
X146226607Y-166152544D02*
G75*
G02*
X148126607Y-166152544I950000J0D01*
G01*
D14*
X264651607Y-118259634D02*
G75*
G02*
X262451607Y-118259634I-1100000J0D01*
G01*
X262451607Y-118259634D02*
G75*
G02*
X264651607Y-118259634I1100000J0D01*
G01*
X261659997Y-121357544D02*
G75*
G02*
X259459997Y-121357544I-1100000J0D01*
G01*
X259459997Y-121357544D02*
G75*
G02*
X261659997Y-121357544I1100000J0D01*
G01*
M02*
