M48
; DRILL file {KiCad 9.0.3} date 2025-08-01T00:25:02-0400
; FORMAT={-:-/ absolute / metric / decimal}
; #@! TF.CreationDate,2025-08-01T00:25:02-04:00
; #@! TF.GenerationSoftware,Kicad,Pcbnew,9.0.3
; #@! TF.FileFunction,NonPlated,1,2,NPTH
FMAT,2
METRIC
; #@! TA.AperFunction,NonPlated,NPTH,ComponentDrill
T1C0.900
; #@! TA.AperFunction,NonPlated,NPTH,ComponentDrill
T2C1.600
; #@! TA.AperFunction,NonPlated,NPTH,ComponentDrill
T3C1.750
; #@! TA.AperFunction,NonPlated,NPTH,ComponentDrill
T4C3.050
; #@! TA.AperFunction,NonPlated,NPTH,ComponentDrill
T5C5.050
%
G90
G05
T1
X179.852Y-124.378
X179.852Y-127.378
X246.377Y-124.378
X246.377Y-127.378
T2
X50.952Y-100.103
X50.952Y-119.153
X50.952Y-138.203
X50.952Y-157.253
X70.002Y-97.103
X70.002Y-116.153
X70.002Y-135.203
X70.002Y-154.253
X89.052Y-92.103
X89.052Y-111.153
X89.052Y-130.203
X89.052Y-149.253
X98.577Y-168.303
X108.102Y-90.103
X108.102Y-109.153
X108.102Y-128.203
X108.102Y-147.253
X117.627Y-168.303
X127.152Y-92.103
X127.152Y-111.153
X127.152Y-130.203
X127.152Y-149.253
X136.677Y-171.303
X146.202Y-95.103
X146.202Y-114.153
X146.202Y-133.203
X146.202Y-152.253
X165.252Y-142.728
X169.129Y-173.509
X250.977Y-142.728
X252.873Y-164.446
X270.027Y-95.103
X270.027Y-114.153
X270.027Y-133.203
X270.027Y-152.253
X279.552Y-171.303
X289.077Y-92.103
X289.077Y-111.153
X289.077Y-130.203
X289.077Y-149.253
X298.602Y-168.303
X308.127Y-90.103
X308.127Y-109.153
X308.127Y-128.203
X308.127Y-147.253
X317.652Y-168.303
X327.177Y-92.103
X327.177Y-111.153
X327.177Y-130.203
X327.177Y-149.253
X346.227Y-97.103
X346.227Y-116.153
X346.227Y-135.203
X346.227Y-154.253
X365.277Y-100.103
X365.277Y-119.153
X365.277Y-138.203
X365.277Y-157.253
T3
X50.872Y-94.953
X50.872Y-114.003
X50.872Y-133.053
X50.872Y-152.103
X61.032Y-94.953
X61.032Y-114.003
X61.032Y-133.053
X61.032Y-152.103
X69.922Y-91.953
X69.922Y-111.003
X69.922Y-130.053
X69.922Y-149.103
X80.082Y-91.953
X80.082Y-111.003
X80.082Y-130.053
X80.082Y-149.103
X88.972Y-86.953
X88.972Y-106.003
X88.972Y-125.053
X88.972Y-144.103
X98.497Y-163.153
X99.132Y-86.953
X99.132Y-106.003
X99.132Y-125.053
X99.132Y-144.103
X108.022Y-84.953
X108.022Y-104.003
X108.022Y-123.053
X108.022Y-142.103
X108.657Y-163.153
X117.547Y-163.153
X118.182Y-84.953
X118.182Y-104.003
X118.182Y-123.053
X118.182Y-142.103
X127.072Y-86.953
X127.072Y-106.003
X127.072Y-125.053
X127.072Y-144.103
X127.707Y-163.153
X136.597Y-166.153
X137.232Y-86.953
X137.232Y-106.003
X137.232Y-125.053
X137.232Y-144.103
X146.122Y-89.953
X146.122Y-109.003
X146.122Y-128.053
X146.122Y-147.103
X146.757Y-166.153
X156.282Y-89.953
X156.282Y-109.003
X156.282Y-128.053
X156.282Y-147.103
X164.428Y-171.405
X165.172Y-137.578
X168.722Y-162.197
X175.332Y-137.578
X250.897Y-137.578
X257.506Y-162.197
X261.057Y-137.578
X261.8Y-171.405
X269.947Y-89.953
X269.947Y-109.003
X269.947Y-128.053
X269.947Y-147.103
X279.472Y-166.153
X280.107Y-89.953
X280.107Y-109.003
X280.107Y-128.053
X280.107Y-147.103
X288.997Y-86.953
X288.997Y-106.003
X288.997Y-125.053
X288.997Y-144.103
X289.632Y-166.153
X298.522Y-163.153
X299.157Y-86.953
X299.157Y-106.003
X299.157Y-125.053
X299.157Y-144.103
X308.047Y-84.953
X308.047Y-104.003
X308.047Y-123.053
X308.047Y-142.103
X308.682Y-163.153
X317.572Y-163.153
X318.207Y-84.953
X318.207Y-104.003
X318.207Y-123.053
X318.207Y-142.103
X327.097Y-86.953
X327.097Y-106.003
X327.097Y-125.053
X327.097Y-144.103
X327.732Y-163.153
X337.257Y-86.953
X337.257Y-106.003
X337.257Y-125.053
X337.257Y-144.103
X346.147Y-91.953
X346.147Y-111.003
X346.147Y-130.053
X346.147Y-149.103
X356.307Y-91.953
X356.307Y-111.003
X356.307Y-130.053
X356.307Y-149.103
X365.197Y-94.953
X365.197Y-114.003
X365.197Y-133.053
X365.197Y-152.103
X375.357Y-94.953
X375.357Y-114.003
X375.357Y-133.053
X375.357Y-152.103
T4
X52.142Y-92.413
X52.142Y-111.463
X52.142Y-130.513
X52.142Y-149.563
X58.492Y-89.873
X58.492Y-108.923
X58.492Y-127.973
X58.492Y-147.023
X71.192Y-89.413
X71.192Y-108.463
X71.192Y-127.513
X71.192Y-146.563
X77.542Y-86.873
X77.542Y-105.923
X77.542Y-124.973
X77.542Y-144.023
X90.242Y-84.413
X90.242Y-103.463
X90.242Y-122.513
X90.242Y-141.563
X96.592Y-81.873
X96.592Y-100.923
X96.592Y-119.973
X96.592Y-139.023
X99.767Y-160.613
X106.117Y-158.073
X109.292Y-82.413
X109.292Y-101.463
X109.292Y-120.513
X109.292Y-139.563
X115.642Y-79.873
X115.642Y-98.923
X115.642Y-117.973
X115.642Y-137.023
X118.817Y-160.613
X125.167Y-158.073
X128.342Y-84.413
X128.342Y-103.463
X128.342Y-122.513
X128.342Y-141.563
X134.692Y-81.873
X134.692Y-100.923
X134.692Y-119.973
X134.692Y-139.023
X137.867Y-163.613
X144.217Y-161.073
X147.392Y-87.413
X147.392Y-106.463
X147.392Y-125.513
X147.392Y-144.563
X153.742Y-84.873
X153.742Y-103.923
X153.742Y-122.973
X153.742Y-142.023
X162.663Y-169.181
X163.044Y-162.352
X166.442Y-135.038
X172.792Y-132.498
X252.167Y-135.038
X258.517Y-132.498
X260.345Y-162.275
X265.331Y-166.956
X271.217Y-87.413
X271.217Y-106.463
X271.217Y-125.513
X271.217Y-144.563
X277.567Y-84.873
X277.567Y-103.923
X277.567Y-122.973
X277.567Y-142.023
X280.742Y-163.613
X287.092Y-161.073
X290.267Y-84.413
X290.267Y-103.463
X290.267Y-122.513
X290.267Y-141.563
X296.617Y-81.873
X296.617Y-100.923
X296.617Y-119.973
X296.617Y-139.023
X299.792Y-160.613
X306.142Y-158.073
X309.317Y-82.413
X309.317Y-101.463
X309.317Y-120.513
X309.317Y-139.563
X315.667Y-79.873
X315.667Y-98.923
X315.667Y-117.973
X315.667Y-137.023
X318.842Y-160.613
X325.192Y-158.073
X328.367Y-84.413
X328.367Y-103.463
X328.367Y-122.513
X328.367Y-141.563
X334.717Y-81.873
X334.717Y-100.923
X334.717Y-119.973
X334.717Y-139.023
X347.417Y-89.413
X347.417Y-108.463
X347.417Y-127.513
X347.417Y-146.563
X353.767Y-86.873
X353.767Y-105.923
X353.767Y-124.973
X353.767Y-144.023
X366.467Y-92.413
X366.467Y-111.463
X366.467Y-130.513
X366.467Y-149.563
X372.817Y-89.873
X372.817Y-108.923
X372.817Y-127.973
X372.817Y-147.023
T5
X55.952Y-94.953
X55.952Y-114.003
X55.952Y-133.053
X55.952Y-152.103
X75.002Y-91.953
X75.002Y-111.003
X75.002Y-130.053
X75.002Y-149.103
X94.052Y-86.953
X94.052Y-106.003
X94.052Y-125.053
X94.052Y-144.103
X103.577Y-163.153
X113.102Y-84.953
X113.102Y-104.003
X113.102Y-123.053
X113.102Y-142.103
X122.627Y-163.153
X132.152Y-86.953
X132.152Y-106.003
X132.152Y-125.053
X132.152Y-144.103
X141.677Y-166.153
X151.202Y-89.953
X151.202Y-109.003
X151.202Y-128.053
X151.202Y-147.103
X166.575Y-166.801
X170.252Y-137.578
X255.977Y-137.578
X259.653Y-166.801
X275.027Y-89.953
X275.027Y-109.003
X275.027Y-128.053
X275.027Y-147.103
X284.552Y-166.153
X294.077Y-86.953
X294.077Y-106.003
X294.077Y-125.053
X294.077Y-144.103
X303.602Y-163.153
X313.127Y-84.953
X313.127Y-104.003
X313.127Y-123.053
X313.127Y-142.103
X322.652Y-163.153
X332.177Y-86.953
X332.177Y-106.003
X332.177Y-125.053
X332.177Y-144.103
X351.227Y-91.953
X351.227Y-111.003
X351.227Y-130.053
X351.227Y-149.103
X370.277Y-94.953
X370.277Y-114.003
X370.277Y-133.053
X370.277Y-152.103
M30
