G04 #@! TF.GenerationSoftware,KiCad,Pcbnew,9.0.3*
G04 #@! TF.CreationDate,2025-08-01T16:01:12-04:00*
G04 #@! TF.ProjectId,quartz58,71756172-747a-4353-982e-6b696361645f,rev?*
G04 #@! TF.SameCoordinates,Original*
G04 #@! TF.FileFunction,Soldermask,Bot*
G04 #@! TF.FilePolarity,Negative*
%FSLAX46Y46*%
G04 Gerber Fmt 4.6, Leading zero omitted, Abs format (unit mm)*
G04 Created by KiCad (PCBNEW 9.0.3) date 2025-08-01 16:01:12*
%MOMM*%
%LPD*%
G01*
G04 APERTURE LIST*
G04 Aperture macros list*
%AMRoundRect*
0 Rectangle with rounded corners*
0 $1 Rounding radius*
0 $2 $3 $4 $5 $6 $7 $8 $9 X,Y pos of 4 corners*
0 Add a 4 corners polygon primitive as box body*
4,1,4,$2,$3,$4,$5,$6,$7,$8,$9,$2,$3,0*
0 Add four circle primitives for the rounded corners*
1,1,$1+$1,$2,$3*
1,1,$1+$1,$4,$5*
1,1,$1+$1,$6,$7*
1,1,$1+$1,$8,$9*
0 Add four rect primitives between the rounded corners*
20,1,$1+$1,$2,$3,$4,$5,0*
20,1,$1+$1,$4,$5,$6,$7,0*
20,1,$1+$1,$6,$7,$8,$9,0*
20,1,$1+$1,$8,$9,$2,$3,0*%
%AMRotRect*
0 Rectangle, with rotation*
0 The origin of the aperture is its center*
0 $1 length*
0 $2 width*
0 $3 Rotation angle, in degrees counterclockwise*
0 Add horizontal line*
21,1,$1,$2,0,0,$3*%
G04 Aperture macros list end*
%ADD10C,1.750000*%
%ADD11C,1.700000*%
%ADD12C,3.150000*%
%ADD13C,5.150000*%
%ADD14RoundRect,0.260000X-1.065000X-1.040000X1.065000X-1.040000X1.065000X1.040000X-1.065000X1.040000X0*%
%ADD15RoundRect,0.250000X-1.025000X-1.000000X1.025000X-1.000000X1.025000X1.000000X-1.025000X1.000000X0*%
%ADD16RoundRect,0.260000X-1.392649X0.525695X-0.492472X-1.404741X1.392649X-0.525695X0.492472X1.404741X0*%
%ADD17RoundRect,0.250000X-1.339492X0.506347X-0.473124X-1.351584X1.339492X-0.506347X0.473124X1.351584X0*%
%ADD18C,1.852600*%
%ADD19R,1.450000X0.820000*%
%ADD20RoundRect,0.205000X0.520000X0.205000X-0.520000X0.205000X-0.520000X-0.205000X0.520000X-0.205000X0*%
%ADD21RoundRect,0.250000X-0.250000X-0.400000X0.250000X-0.400000X0.250000X0.400000X-0.250000X0.400000X0*%
%ADD22RoundRect,0.050000X-0.150000X-0.650000X0.150000X-0.650000X0.150000X0.650000X-0.150000X0.650000X0*%
%ADD23RoundRect,0.050000X-0.900000X-1.100000X0.900000X-1.100000X0.900000X1.100000X-0.900000X1.100000X0*%
%ADD24C,1.000000*%
%ADD25RoundRect,0.270833X0.379167X0.654167X-0.379167X0.654167X-0.379167X-0.654167X0.379167X-0.654167X0*%
%ADD26O,1.300000X1.850000*%
%ADD27RotRect,1.450000X0.820000X115.000000*%
%ADD28RoundRect,0.205000X0.405555X-0.384643X-0.033968X0.557917X-0.405555X0.384643X0.033968X-0.557917X0*%
%ADD29RoundRect,0.050000X-0.850000X0.850000X-0.850000X-0.850000X0.850000X-0.850000X0.850000X0.850000X0*%
%ADD30O,1.800000X1.800000*%
%ADD31RoundRect,0.050000X0.150000X0.650000X-0.150000X0.650000X-0.150000X-0.650000X0.150000X-0.650000X0*%
%ADD32RoundRect,0.050000X0.900000X1.100000X-0.900000X1.100000X-0.900000X-1.100000X0.900000X-1.100000X0*%
%ADD33C,1.900000*%
%ADD34RoundRect,0.260000X0.492472X-1.404741X1.392649X0.525695X-0.492472X1.404741X-1.392649X-0.525695X0*%
%ADD35RoundRect,0.250000X0.473124X-1.351584X1.339492X0.506347X-0.473124X1.351584X-1.339492X-0.506347X0*%
%ADD36RoundRect,0.250000X0.250000X0.400000X-0.250000X0.400000X-0.250000X-0.400000X0.250000X-0.400000X0*%
%ADD37RotRect,1.450000X0.820000X245.000000*%
%ADD38RoundRect,0.205000X0.033968X0.557917X-0.405555X-0.384643X-0.033968X-0.557917X0.405555X0.384643X0*%
G04 #@! TA.AperFunction,Profile*
%ADD39C,0.150000*%
G04 #@! TD*
G04 #@! TA.AperFunction,Profile*
%ADD40C,0.200000*%
G04 #@! TD*
G04 #@! TA.AperFunction,Profile*
%ADD41C,0.050000*%
G04 #@! TD*
G04 #@! TA.AperFunction,Profile*
%ADD42C,0.100000*%
G04 #@! TD*
G04 #@! TA.AperFunction,Profile*
%ADD43C,0.120000*%
G04 #@! TD*
G04 APERTURE END LIST*
D10*
X268947109Y-86502544D03*
D11*
X269027109Y-91652544D03*
D12*
X270217109Y-83962544D03*
D13*
X274027109Y-86502544D03*
D12*
X276567109Y-81422544D03*
D10*
X279107109Y-86502544D03*
D14*
X266942109Y-83962544D03*
X270527109Y-80502544D03*
D15*
X279869109Y-81422544D03*
D14*
X282527109Y-82702544D03*
D10*
X307047109Y-113552544D03*
D11*
X307127109Y-118702544D03*
D12*
X308317109Y-111012544D03*
D13*
X312127109Y-113552544D03*
D12*
X314667109Y-108472544D03*
D10*
X317207109Y-113552544D03*
D14*
X305042109Y-111012544D03*
X308627109Y-107552544D03*
D15*
X317969109Y-108472544D03*
D14*
X320627109Y-109752544D03*
D10*
X199356897Y-161746993D03*
D11*
X194723222Y-163995982D03*
D12*
X202195644Y-161824554D03*
D13*
X201503798Y-166351037D03*
D12*
X207181292Y-166506158D03*
D10*
X203650699Y-170955081D03*
D16*
X200811569Y-158856396D03*
X205462481Y-160643250D03*
D17*
X208576777Y-169498786D03*
D16*
X208540023Y-172448704D03*
D10*
X287997109Y-148652544D03*
D11*
X288077109Y-153802544D03*
D12*
X289267109Y-146112544D03*
D13*
X293077109Y-148652544D03*
D12*
X295617109Y-143572544D03*
D10*
X298157109Y-148652544D03*
D14*
X285992109Y-146112544D03*
X289577109Y-142652544D03*
D15*
X298919109Y-143572544D03*
D14*
X301577109Y-144852544D03*
D10*
X249897109Y-141652544D03*
D11*
X249977109Y-146802544D03*
D12*
X251167109Y-139112544D03*
D13*
X254977109Y-141652544D03*
D12*
X257517109Y-136572544D03*
D10*
X260057109Y-141652544D03*
D14*
X247892109Y-139112544D03*
X251477109Y-135652544D03*
D15*
X260819109Y-136572544D03*
D14*
X263477109Y-137852544D03*
D10*
X211797109Y-146652544D03*
D11*
X211877109Y-151802544D03*
D12*
X213067109Y-144112544D03*
D13*
X216877109Y-146652544D03*
D12*
X219417109Y-141572544D03*
D10*
X221957109Y-146652544D03*
D14*
X209792109Y-144112544D03*
X213377109Y-140652544D03*
D15*
X222719109Y-141572544D03*
D14*
X225377109Y-142852544D03*
D18*
X192747109Y-115337544D03*
X195287109Y-115337544D03*
X197827109Y-115337544D03*
X200367109Y-115337544D03*
X202907109Y-115337544D03*
D10*
X211797109Y-127602544D03*
D11*
X211877109Y-132752544D03*
D12*
X213067109Y-125062544D03*
D13*
X216877109Y-127602544D03*
D12*
X219417109Y-122522544D03*
D10*
X221957109Y-127602544D03*
D14*
X209792109Y-125062544D03*
X213377109Y-121602544D03*
D15*
X222719109Y-122522544D03*
D14*
X225377109Y-123802544D03*
D10*
X230847109Y-86502544D03*
D11*
X230927109Y-91652544D03*
D12*
X232117109Y-83962544D03*
D13*
X235927109Y-86502544D03*
D12*
X238467109Y-81422544D03*
D10*
X241007109Y-86502544D03*
D14*
X228842109Y-83962544D03*
X232427109Y-80502544D03*
D15*
X241769109Y-81422544D03*
D14*
X244427109Y-82702544D03*
D10*
X259422109Y-162702544D03*
D11*
X259502109Y-167852544D03*
D12*
X260692109Y-160162544D03*
D13*
X264502109Y-162702544D03*
D12*
X267042109Y-157622544D03*
D10*
X269582109Y-162702544D03*
D14*
X257417109Y-160162544D03*
X261002109Y-156702544D03*
D15*
X270344109Y-157622544D03*
D14*
X273002109Y-158902544D03*
D10*
X211797109Y-89502544D03*
D11*
X211877109Y-94652544D03*
D12*
X213067109Y-86962544D03*
D13*
X216877109Y-89502544D03*
D12*
X219417109Y-84422544D03*
D10*
X221957109Y-89502544D03*
D14*
X209792109Y-86962544D03*
X213377109Y-83502544D03*
D15*
X222719109Y-84422544D03*
D14*
X225377109Y-85702544D03*
D10*
X307047109Y-132602544D03*
D11*
X307127109Y-137752544D03*
D12*
X308317109Y-130062544D03*
D13*
X312127109Y-132602544D03*
D12*
X314667109Y-127522544D03*
D10*
X317207109Y-132602544D03*
D14*
X305042109Y-130062544D03*
X308627109Y-126602544D03*
D15*
X317969109Y-127522544D03*
D14*
X320627109Y-128802544D03*
D10*
X287997109Y-91502544D03*
D11*
X288077109Y-96652544D03*
D12*
X289267109Y-88962544D03*
D13*
X293077109Y-91502544D03*
D12*
X295617109Y-86422544D03*
D10*
X298157109Y-91502544D03*
D14*
X285992109Y-88962544D03*
X289577109Y-85502544D03*
D15*
X298919109Y-86422544D03*
D14*
X301577109Y-87702544D03*
D19*
X276702109Y-111382544D03*
X276702109Y-109882544D03*
D20*
X271352109Y-109882544D03*
D19*
X271352109Y-111382544D03*
X257652109Y-128432544D03*
X257652109Y-126932544D03*
D20*
X252302109Y-126932544D03*
D19*
X252302109Y-128432544D03*
D21*
X231895881Y-157368234D03*
X235195881Y-157368234D03*
X222370873Y-100218186D03*
X225670873Y-100218186D03*
D19*
X276702109Y-149482544D03*
X276702109Y-147982544D03*
D20*
X271352109Y-147982544D03*
D19*
X271352109Y-149482544D03*
X276702109Y-92332544D03*
X276702109Y-90832544D03*
D20*
X271352109Y-90832544D03*
D19*
X271352109Y-92332544D03*
D21*
X222370873Y-97241621D03*
X225670873Y-97241621D03*
X317620953Y-143080722D03*
X320920953Y-143080722D03*
X241420889Y-97241621D03*
X244720889Y-97241621D03*
X279520921Y-97241621D03*
X282820921Y-97241621D03*
D19*
X238602109Y-92332544D03*
X238602109Y-90832544D03*
D20*
X233252109Y-90832544D03*
D19*
X233252109Y-92332544D03*
D22*
X196577109Y-153177544D03*
X197077109Y-153177544D03*
X197577109Y-153177544D03*
X198077109Y-153177544D03*
X198577109Y-153177544D03*
X199077109Y-153177544D03*
D23*
X194677109Y-149927544D03*
X200977109Y-149927544D03*
D19*
X200502109Y-142957544D03*
X200502109Y-141457544D03*
D20*
X195152109Y-141457544D03*
D19*
X195152109Y-142957544D03*
D10*
X307047109Y-151652544D03*
D11*
X307127109Y-156802544D03*
D12*
X308317109Y-149112544D03*
D13*
X312127109Y-151652544D03*
D12*
X314667109Y-146572544D03*
D10*
X317207109Y-151652544D03*
D14*
X305042109Y-149112544D03*
X308627109Y-145652544D03*
D15*
X317969109Y-146572544D03*
D14*
X320627109Y-147852544D03*
D10*
X240372109Y-162702544D03*
D11*
X240452109Y-167852544D03*
D12*
X241642109Y-160162544D03*
D13*
X245452109Y-162702544D03*
D12*
X247992109Y-157622544D03*
D10*
X250532109Y-162702544D03*
D14*
X238367109Y-160162544D03*
X241952109Y-156702544D03*
D15*
X251294109Y-157622544D03*
D14*
X253952109Y-158902544D03*
D10*
X230847109Y-105552544D03*
D11*
X230927109Y-110702544D03*
D12*
X232117109Y-103012544D03*
D13*
X235927109Y-105552544D03*
D12*
X238467109Y-100472544D03*
D10*
X241007109Y-105552544D03*
D14*
X228842109Y-103012544D03*
X232427109Y-99552544D03*
D15*
X241769109Y-100472544D03*
D14*
X244427109Y-101752544D03*
D10*
X287997109Y-129602544D03*
D11*
X288077109Y-134752544D03*
D12*
X289267109Y-127062544D03*
D13*
X293077109Y-129602544D03*
D12*
X295617109Y-124522544D03*
D10*
X298157109Y-129602544D03*
D14*
X285992109Y-127062544D03*
X289577109Y-123602544D03*
D15*
X298919109Y-124522544D03*
D14*
X301577109Y-125802544D03*
D10*
X307047109Y-94502544D03*
D11*
X307127109Y-99652544D03*
D12*
X308317109Y-91962544D03*
D13*
X312127109Y-94502544D03*
D12*
X314667109Y-89422544D03*
D10*
X317207109Y-94502544D03*
D14*
X305042109Y-91962544D03*
X308627109Y-88502544D03*
D15*
X317969109Y-89422544D03*
D14*
X320627109Y-90702544D03*
D10*
X268947109Y-143652544D03*
D11*
X269027109Y-148802544D03*
D12*
X270217109Y-141112544D03*
D13*
X274027109Y-143652544D03*
D12*
X276567109Y-138572544D03*
D10*
X279107109Y-143652544D03*
D14*
X266942109Y-141112544D03*
X270527109Y-137652544D03*
D15*
X279869109Y-138572544D03*
D14*
X282527109Y-139852544D03*
D10*
X249897109Y-84502544D03*
D11*
X249977109Y-89652544D03*
D12*
X251167109Y-81962544D03*
D13*
X254977109Y-84502544D03*
D12*
X257517109Y-79422544D03*
D10*
X260057109Y-84502544D03*
D14*
X247892109Y-81962544D03*
X251477109Y-78502544D03*
D15*
X260819109Y-79422544D03*
D14*
X263477109Y-80702544D03*
D10*
X249897109Y-122602544D03*
D11*
X249977109Y-127752544D03*
D12*
X251167109Y-120062544D03*
D13*
X254977109Y-122602544D03*
D12*
X257517109Y-117522544D03*
D10*
X260057109Y-122602544D03*
D14*
X247892109Y-120062544D03*
X251477109Y-116602544D03*
D15*
X260819109Y-117522544D03*
D14*
X263477109Y-118802544D03*
D10*
X221322109Y-165702544D03*
D11*
X221402109Y-170852544D03*
D12*
X222592109Y-163162544D03*
D13*
X226402109Y-165702544D03*
D12*
X228942109Y-160622544D03*
D10*
X231482109Y-165702544D03*
D14*
X219317109Y-163162544D03*
X222902109Y-159702544D03*
D15*
X232244109Y-160622544D03*
D14*
X234902109Y-161902544D03*
D10*
X211797109Y-108552544D03*
D11*
X211877109Y-113702544D03*
D12*
X213067109Y-106012544D03*
D13*
X216877109Y-108552544D03*
D12*
X219417109Y-103472544D03*
D10*
X221957109Y-108552544D03*
D14*
X209792109Y-106012544D03*
X213377109Y-102552544D03*
D15*
X222719109Y-103472544D03*
D14*
X225377109Y-104752544D03*
D24*
X188227109Y-123927544D03*
X188227109Y-126927544D03*
D10*
X230847109Y-143652544D03*
D11*
X230927109Y-148802544D03*
D12*
X232117109Y-141112544D03*
D13*
X235927109Y-143652544D03*
D12*
X238467109Y-138572544D03*
D10*
X241007109Y-143652544D03*
D14*
X228842109Y-141112544D03*
X232427109Y-137652544D03*
D15*
X241769109Y-138572544D03*
D14*
X244427109Y-139852544D03*
D10*
X192747109Y-137127544D03*
D11*
X192827109Y-142277544D03*
D12*
X194017109Y-134587544D03*
D13*
X197827109Y-137127544D03*
D12*
X200367109Y-132047544D03*
D10*
X202907109Y-137127544D03*
D14*
X190742109Y-134587544D03*
X194327109Y-131127544D03*
D15*
X203669109Y-132047544D03*
D14*
X206327109Y-133327544D03*
D10*
X268947109Y-124602544D03*
D11*
X269027109Y-129752544D03*
D12*
X270217109Y-122062544D03*
D13*
X274027109Y-124602544D03*
D12*
X276567109Y-119522544D03*
D10*
X279107109Y-124602544D03*
D14*
X266942109Y-122062544D03*
X270527109Y-118602544D03*
D15*
X279869109Y-119522544D03*
D14*
X282527109Y-120802544D03*
D10*
X230847109Y-124602544D03*
D11*
X230927109Y-129752544D03*
D12*
X232117109Y-122062544D03*
D13*
X235927109Y-124602544D03*
D12*
X238467109Y-119522544D03*
D10*
X241007109Y-124602544D03*
D14*
X228842109Y-122062544D03*
X232427109Y-118602544D03*
D15*
X241769109Y-119522544D03*
D14*
X244427109Y-120802544D03*
D10*
X249897109Y-103552544D03*
D11*
X249977109Y-108702544D03*
D12*
X251167109Y-101012544D03*
D13*
X254977109Y-103552544D03*
D12*
X257517109Y-98472544D03*
D10*
X260057109Y-103552544D03*
D14*
X247892109Y-101012544D03*
X251477109Y-97552544D03*
D15*
X260819109Y-98472544D03*
D14*
X263477109Y-99752544D03*
D19*
X257652109Y-90332544D03*
X257652109Y-88832544D03*
D20*
X252302109Y-88832544D03*
D19*
X252302109Y-90332544D03*
X229077109Y-171532544D03*
X229077109Y-170032544D03*
D20*
X223727109Y-170032544D03*
D19*
X223727109Y-171532544D03*
X219552109Y-95332544D03*
X219552109Y-93832544D03*
D20*
X214202109Y-93832544D03*
D19*
X214202109Y-95332544D03*
X314802109Y-157482544D03*
X314802109Y-155982544D03*
D20*
X309452109Y-155982544D03*
D19*
X309452109Y-157482544D03*
X257652109Y-147482544D03*
X257652109Y-145982544D03*
D20*
X252302109Y-145982544D03*
D19*
X252302109Y-147482544D03*
X238602109Y-111382544D03*
X238602109Y-109882544D03*
D20*
X233252109Y-109882544D03*
D19*
X233252109Y-111382544D03*
X314802109Y-100332544D03*
X314802109Y-98832544D03*
D20*
X309452109Y-98832544D03*
D19*
X309452109Y-100332544D03*
D25*
X197827109Y-83827544D03*
D26*
X195827109Y-83827544D03*
D21*
X241420889Y-135341653D03*
X244720889Y-135341653D03*
D19*
X276702109Y-130432544D03*
X276702109Y-128932544D03*
D20*
X271352109Y-128932544D03*
D19*
X271352109Y-130432544D03*
X257652109Y-109382544D03*
X257652109Y-107882544D03*
D20*
X252302109Y-107882544D03*
D19*
X252302109Y-109382544D03*
X295752109Y-97332544D03*
X295752109Y-95832544D03*
D20*
X290402109Y-95832544D03*
D19*
X290402109Y-97332544D03*
D21*
X317620953Y-140104157D03*
X320920953Y-140104157D03*
X222370873Y-135341653D03*
X225670873Y-135341653D03*
X317620953Y-104980690D03*
X320920953Y-104980690D03*
D19*
X219552109Y-133432544D03*
X219552109Y-131932544D03*
D20*
X214202109Y-131932544D03*
D19*
X214202109Y-133432544D03*
D18*
X205447109Y-84857544D03*
X205447109Y-87397544D03*
X205447109Y-89937544D03*
X205447109Y-92477544D03*
X205447109Y-95017544D03*
X205447109Y-97557544D03*
X205447109Y-100097544D03*
X205447109Y-102637544D03*
X205447109Y-105177544D03*
X205447109Y-107717544D03*
X205447109Y-110257544D03*
X205447109Y-112797544D03*
X190207109Y-112797544D03*
X190207109Y-110257544D03*
X190207109Y-107717544D03*
X190207109Y-105177544D03*
X190207109Y-102637544D03*
X190207109Y-100097544D03*
X190207109Y-97557544D03*
X190207109Y-95017544D03*
X190207109Y-92477544D03*
X190207109Y-89937544D03*
X190207109Y-87397544D03*
X190207109Y-84857544D03*
X202907109Y-107717544D03*
X200367109Y-107717544D03*
X197827109Y-107717544D03*
D21*
X202725544Y-156772921D03*
X206025544Y-156772921D03*
D19*
X314802109Y-138432544D03*
X314802109Y-136932544D03*
D20*
X309452109Y-136932544D03*
D19*
X309452109Y-138432544D03*
X295752109Y-135432544D03*
X295752109Y-133932544D03*
D20*
X290402109Y-133932544D03*
D19*
X290402109Y-135432544D03*
X295752109Y-154482544D03*
X295752109Y-152982544D03*
D20*
X290402109Y-152982544D03*
D19*
X290402109Y-154482544D03*
D21*
X260470905Y-133555714D03*
X263770905Y-133555714D03*
X241420889Y-94265056D03*
X244720889Y-94265056D03*
D27*
X197350527Y-171239274D03*
X198709989Y-170605347D03*
D28*
X196448981Y-165756600D03*
D27*
X195089519Y-166390527D03*
D21*
X279520921Y-94265056D03*
X282820921Y-94265056D03*
X298570937Y-137127592D03*
X301870937Y-137127592D03*
D10*
X287997109Y-110552544D03*
D11*
X288077109Y-115702544D03*
D12*
X289267109Y-108012544D03*
D13*
X293077109Y-110552544D03*
D12*
X295617109Y-105472544D03*
D10*
X298157109Y-110552544D03*
D14*
X285992109Y-108012544D03*
X289577109Y-104552544D03*
D15*
X298919109Y-105472544D03*
D14*
X301577109Y-106752544D03*
D29*
X201627109Y-117877544D03*
D30*
X199087109Y-117877544D03*
X196547109Y-117877544D03*
X194007109Y-117877544D03*
D10*
X268947109Y-105552544D03*
D11*
X269027109Y-110702544D03*
D12*
X270217109Y-103012544D03*
D13*
X274027109Y-105552544D03*
D12*
X276567109Y-100472544D03*
D10*
X279107109Y-105552544D03*
D14*
X266942109Y-103012544D03*
X270527109Y-99552544D03*
D15*
X279869109Y-100472544D03*
D14*
X282527109Y-101752544D03*
D21*
X279520921Y-132365088D03*
X282820921Y-132365088D03*
D19*
X219552109Y-152482544D03*
X219552109Y-150982544D03*
D20*
X214202109Y-150982544D03*
D19*
X214202109Y-152482544D03*
D21*
X298570937Y-102004125D03*
X301870937Y-102004125D03*
X279520921Y-135341653D03*
X282820921Y-135341653D03*
X269995913Y-154986982D03*
X273295913Y-154986982D03*
D19*
X219552109Y-114382544D03*
X219552109Y-112882544D03*
D20*
X214202109Y-112882544D03*
D19*
X214202109Y-114382544D03*
D21*
X298570937Y-140104157D03*
X301870937Y-140104157D03*
X260470905Y-130579149D03*
X263770905Y-130579149D03*
D19*
X238602109Y-130432544D03*
X238602109Y-128932544D03*
D20*
X233252109Y-128932544D03*
D19*
X233252109Y-130432544D03*
D21*
X317620953Y-102004125D03*
X320920953Y-102004125D03*
X260470905Y-94860369D03*
X263770905Y-94860369D03*
D19*
X267177109Y-168532544D03*
X267177109Y-167032544D03*
D20*
X261827109Y-167032544D03*
D19*
X261827109Y-168532544D03*
X314802109Y-119382544D03*
X314802109Y-117882544D03*
D20*
X309452109Y-117882544D03*
D19*
X309452109Y-119382544D03*
D21*
X241420889Y-132365088D03*
X244720889Y-132365088D03*
X222370873Y-138318218D03*
X225670873Y-138318218D03*
D19*
X248127109Y-168532544D03*
X248127109Y-167032544D03*
D20*
X242777109Y-167032544D03*
D19*
X242777109Y-168532544D03*
X295752109Y-116382544D03*
X295752109Y-114882544D03*
D20*
X290402109Y-114882544D03*
D19*
X290402109Y-116382544D03*
D21*
X203320857Y-128793210D03*
X206620857Y-128793210D03*
X298570937Y-99027560D03*
X301870937Y-99027560D03*
X250945897Y-154986982D03*
X254245897Y-154986982D03*
X260470905Y-91883804D03*
X263770905Y-91883804D03*
D19*
X238602109Y-149482544D03*
X238602109Y-147982544D03*
D20*
X233252109Y-147982544D03*
D19*
X233252109Y-149482544D03*
D31*
X68978799Y-177579730D03*
X68478799Y-177579730D03*
X67978799Y-177579730D03*
X67478799Y-177579730D03*
X66978799Y-177579730D03*
X66478799Y-177579730D03*
X65978799Y-177579730D03*
X65478799Y-177579730D03*
X64978799Y-177579730D03*
X64478799Y-177579730D03*
D32*
X70878799Y-180829730D03*
X62578799Y-180829730D03*
D33*
X69380986Y-175481924D03*
X69380986Y-188577544D03*
X82476606Y-188577544D03*
X77038796Y-180919734D03*
X68200116Y-166918864D03*
X59778476Y-185635974D03*
X83657476Y-197140604D03*
X92079116Y-178423494D03*
X79181486Y-165950124D03*
D10*
X69921607Y-149102544D03*
D11*
X70001607Y-154252544D03*
D12*
X71191607Y-146562544D03*
D13*
X75001607Y-149102544D03*
D12*
X77541607Y-144022544D03*
D10*
X80081607Y-149102544D03*
D14*
X67916607Y-146562544D03*
X71501607Y-143102544D03*
D15*
X80843607Y-144022544D03*
D14*
X83501607Y-145302544D03*
D10*
X98496607Y-163152544D03*
D11*
X98576607Y-168302544D03*
D12*
X99766607Y-160612544D03*
D13*
X103576607Y-163152544D03*
D12*
X106116607Y-158072544D03*
D10*
X108656607Y-163152544D03*
D14*
X96491607Y-160612544D03*
X100076607Y-157152544D03*
D15*
X109418607Y-158072544D03*
D14*
X112076607Y-159352544D03*
D10*
X146121607Y-147102544D03*
D11*
X146201607Y-152252544D03*
D12*
X147391607Y-144562544D03*
D13*
X151201607Y-147102544D03*
D12*
X153741607Y-142022544D03*
D10*
X156281607Y-147102544D03*
D14*
X144116607Y-144562544D03*
X147701607Y-141102544D03*
D15*
X157043607Y-142022544D03*
D14*
X159701607Y-143302544D03*
D24*
X179851607Y-127377544D03*
X179851607Y-124377544D03*
D10*
X88971607Y-106002544D03*
D11*
X89051607Y-111152544D03*
D12*
X90241607Y-103462544D03*
D13*
X94051607Y-106002544D03*
D12*
X96591607Y-100922544D03*
D10*
X99131607Y-106002544D03*
D14*
X86966607Y-103462544D03*
X90551607Y-100002544D03*
D15*
X99893607Y-100922544D03*
D14*
X102551607Y-102202544D03*
D10*
X108021607Y-142102544D03*
D11*
X108101607Y-147252544D03*
D12*
X109291607Y-139562544D03*
D13*
X113101607Y-142102544D03*
D12*
X115641607Y-137022544D03*
D10*
X118181607Y-142102544D03*
D14*
X106016607Y-139562544D03*
X109601607Y-136102544D03*
D15*
X118943607Y-137022544D03*
D14*
X121601607Y-138302544D03*
D10*
X50871607Y-94952544D03*
D11*
X50951607Y-100102544D03*
D12*
X52141607Y-92412544D03*
D13*
X55951607Y-94952544D03*
D12*
X58491607Y-89872544D03*
D10*
X61031607Y-94952544D03*
D14*
X48866607Y-92412544D03*
X52451607Y-88952544D03*
D15*
X61793607Y-89872544D03*
D14*
X64451607Y-91152544D03*
D10*
X88971607Y-86952544D03*
D11*
X89051607Y-92102544D03*
D12*
X90241607Y-84412544D03*
D13*
X94051607Y-86952544D03*
D12*
X96591607Y-81872544D03*
D10*
X99131607Y-86952544D03*
D14*
X86966607Y-84412544D03*
X90551607Y-80952544D03*
D15*
X99893607Y-81872544D03*
D14*
X102551607Y-83152544D03*
D10*
X117546607Y-163152544D03*
D11*
X117626607Y-168302544D03*
D12*
X118816607Y-160612544D03*
D13*
X122626607Y-163152544D03*
D12*
X125166607Y-158072544D03*
D10*
X127706607Y-163152544D03*
D14*
X115541607Y-160612544D03*
X119126607Y-157152544D03*
D15*
X128468607Y-158072544D03*
D14*
X131126607Y-159352544D03*
D10*
X50871607Y-152102544D03*
D11*
X50951607Y-157252544D03*
D12*
X52141607Y-149562544D03*
D13*
X55951607Y-152102544D03*
D12*
X58491607Y-147022544D03*
D10*
X61031607Y-152102544D03*
D14*
X48866607Y-149562544D03*
X52451607Y-146102544D03*
D15*
X61793607Y-147022544D03*
D14*
X64451607Y-148302544D03*
D10*
X127071607Y-144102544D03*
D11*
X127151607Y-149252544D03*
D12*
X128341607Y-141562544D03*
D13*
X132151607Y-144102544D03*
D12*
X134691607Y-139022544D03*
D10*
X137231607Y-144102544D03*
D14*
X125066607Y-141562544D03*
X128651607Y-138102544D03*
D15*
X137993607Y-139022544D03*
D14*
X140651607Y-140302544D03*
D10*
X127071607Y-86952544D03*
D11*
X127151607Y-92102544D03*
D12*
X128341607Y-84412544D03*
D13*
X132151607Y-86952544D03*
D12*
X134691607Y-81872544D03*
D10*
X137231607Y-86952544D03*
D14*
X125066607Y-84412544D03*
X128651607Y-80952544D03*
D15*
X137993607Y-81872544D03*
D14*
X140651607Y-83152544D03*
D10*
X127071607Y-106002544D03*
D11*
X127151607Y-111152544D03*
D12*
X128341607Y-103462544D03*
D13*
X132151607Y-106002544D03*
D12*
X134691607Y-100922544D03*
D10*
X137231607Y-106002544D03*
D14*
X125066607Y-103462544D03*
X128651607Y-100002544D03*
D15*
X137993607Y-100922544D03*
D14*
X140651607Y-102202544D03*
D10*
X69921607Y-130052544D03*
D11*
X70001607Y-135202544D03*
D12*
X71191607Y-127512544D03*
D13*
X75001607Y-130052544D03*
D12*
X77541607Y-124972544D03*
D10*
X80081607Y-130052544D03*
D14*
X67916607Y-127512544D03*
X71501607Y-124052544D03*
D15*
X80843607Y-124972544D03*
D14*
X83501607Y-126252544D03*
D10*
X164428017Y-171405081D03*
D11*
X169129312Y-173509060D03*
D12*
X162662721Y-169180619D03*
D13*
X166574918Y-166801037D03*
D12*
X163044325Y-162352114D03*
D10*
X168721819Y-162196993D03*
D34*
X161278646Y-172148777D03*
X159657907Y-167437405D03*
D35*
X164439810Y-159359486D03*
D34*
X166723204Y-157491471D03*
D10*
X146121607Y-89952544D03*
D11*
X146201607Y-95102544D03*
D12*
X147391607Y-87412544D03*
D13*
X151201607Y-89952544D03*
D12*
X153741607Y-84872544D03*
D10*
X156281607Y-89952544D03*
D14*
X144116607Y-87412544D03*
X147701607Y-83952544D03*
D15*
X157043607Y-84872544D03*
D14*
X159701607Y-86152544D03*
D10*
X88971607Y-125052544D03*
D11*
X89051607Y-130202544D03*
D12*
X90241607Y-122512544D03*
D13*
X94051607Y-125052544D03*
D12*
X96591607Y-119972544D03*
D10*
X99131607Y-125052544D03*
D14*
X86966607Y-122512544D03*
X90551607Y-119052544D03*
D15*
X99893607Y-119972544D03*
D14*
X102551607Y-121252544D03*
D10*
X165171607Y-137577544D03*
D11*
X165251607Y-142727544D03*
D12*
X166441607Y-135037544D03*
D13*
X170251607Y-137577544D03*
D12*
X172791607Y-132497544D03*
D10*
X175331607Y-137577544D03*
D14*
X163166607Y-135037544D03*
X166751607Y-131577544D03*
D15*
X176093607Y-132497544D03*
D14*
X178751607Y-133777544D03*
D10*
X146121607Y-109002544D03*
D11*
X146201607Y-114152544D03*
D12*
X147391607Y-106462544D03*
D13*
X151201607Y-109002544D03*
D12*
X153741607Y-103922544D03*
D10*
X156281607Y-109002544D03*
D14*
X144116607Y-106462544D03*
X147701607Y-103002544D03*
D15*
X157043607Y-103922544D03*
D14*
X159701607Y-105202544D03*
D10*
X50871607Y-133052544D03*
D11*
X50951607Y-138202544D03*
D12*
X52141607Y-130512544D03*
D13*
X55951607Y-133052544D03*
D12*
X58491607Y-127972544D03*
D10*
X61031607Y-133052544D03*
D14*
X48866607Y-130512544D03*
X52451607Y-127052544D03*
D15*
X61793607Y-127972544D03*
D14*
X64451607Y-129252544D03*
D10*
X146121607Y-128052544D03*
D11*
X146201607Y-133202544D03*
D12*
X147391607Y-125512544D03*
D13*
X151201607Y-128052544D03*
D12*
X153741607Y-122972544D03*
D10*
X156281607Y-128052544D03*
D14*
X144116607Y-125512544D03*
X147701607Y-122052544D03*
D15*
X157043607Y-122972544D03*
D14*
X159701607Y-124252544D03*
D10*
X108021607Y-84952544D03*
D11*
X108101607Y-90102544D03*
D12*
X109291607Y-82412544D03*
D13*
X113101607Y-84952544D03*
D12*
X115641607Y-79872544D03*
D10*
X118181607Y-84952544D03*
D14*
X106016607Y-82412544D03*
X109601607Y-78952544D03*
D15*
X118943607Y-79872544D03*
D14*
X121601607Y-81152544D03*
D10*
X50871607Y-114002544D03*
D11*
X50951607Y-119152544D03*
D12*
X52141607Y-111462544D03*
D13*
X55951607Y-114002544D03*
D12*
X58491607Y-108922544D03*
D10*
X61031607Y-114002544D03*
D14*
X48866607Y-111462544D03*
X52451607Y-108002544D03*
D15*
X61793607Y-108922544D03*
D14*
X64451607Y-110202544D03*
D18*
X165171607Y-115887544D03*
X167711607Y-115887544D03*
X170251607Y-115887544D03*
X172791607Y-115887544D03*
X175331607Y-115887544D03*
D10*
X108021607Y-123052544D03*
D11*
X108101607Y-128202544D03*
D12*
X109291607Y-120512544D03*
D13*
X113101607Y-123052544D03*
D12*
X115641607Y-117972544D03*
D10*
X118181607Y-123052544D03*
D14*
X106016607Y-120512544D03*
X109601607Y-117052544D03*
D15*
X118943607Y-117972544D03*
D14*
X121601607Y-119252544D03*
D10*
X88971607Y-144102544D03*
D11*
X89051607Y-149252544D03*
D12*
X90241607Y-141562544D03*
D13*
X94051607Y-144102544D03*
D12*
X96591607Y-139022544D03*
D10*
X99131607Y-144102544D03*
D14*
X86966607Y-141562544D03*
X90551607Y-138102544D03*
D15*
X99893607Y-139022544D03*
D14*
X102551607Y-140302544D03*
D29*
X174051607Y-118327544D03*
D30*
X171511607Y-118327544D03*
X168971607Y-118327544D03*
X166431607Y-118327544D03*
D10*
X69921607Y-111002544D03*
D11*
X70001607Y-116152544D03*
D12*
X71191607Y-108462544D03*
D13*
X75001607Y-111002544D03*
D12*
X77541607Y-105922544D03*
D10*
X80081607Y-111002544D03*
D14*
X67916607Y-108462544D03*
X71501607Y-105002544D03*
D15*
X80843607Y-105922544D03*
D14*
X83501607Y-107202544D03*
D10*
X69921607Y-91952544D03*
D11*
X70001607Y-97102544D03*
D12*
X71191607Y-89412544D03*
D13*
X75001607Y-91952544D03*
D12*
X77541607Y-86872544D03*
D10*
X80081607Y-91952544D03*
D14*
X67916607Y-89412544D03*
X71501607Y-85952544D03*
D15*
X80843607Y-86872544D03*
D14*
X83501607Y-88152544D03*
D10*
X127071607Y-125052544D03*
D11*
X127151607Y-130202544D03*
D12*
X128341607Y-122512544D03*
D13*
X132151607Y-125052544D03*
D12*
X134691607Y-119972544D03*
D10*
X137231607Y-125052544D03*
D14*
X125066607Y-122512544D03*
X128651607Y-119052544D03*
D15*
X137993607Y-119972544D03*
D14*
X140651607Y-121252544D03*
D10*
X108021607Y-104002544D03*
D11*
X108101607Y-109152544D03*
D12*
X109291607Y-101462544D03*
D13*
X113101607Y-104002544D03*
D12*
X115641607Y-98922544D03*
D10*
X118181607Y-104002544D03*
D14*
X106016607Y-101462544D03*
X109601607Y-98002544D03*
D15*
X118943607Y-98922544D03*
D14*
X121601607Y-100202544D03*
D10*
X136596607Y-166152544D03*
D11*
X136676607Y-171302544D03*
D12*
X137866607Y-163612544D03*
D13*
X141676607Y-166152544D03*
D12*
X144216607Y-161072544D03*
D10*
X146756607Y-166152544D03*
D14*
X134591607Y-163612544D03*
X138176607Y-160152544D03*
D15*
X147518607Y-161072544D03*
D14*
X150176607Y-162352544D03*
D19*
X134826607Y-130882544D03*
X134826607Y-129382544D03*
D20*
X129476607Y-129382544D03*
D19*
X129476607Y-130882544D03*
X77676607Y-154932544D03*
X77676607Y-153432544D03*
D20*
X72326607Y-153432544D03*
D19*
X72326607Y-154932544D03*
X106251607Y-168982544D03*
X106251607Y-167482544D03*
D20*
X100901607Y-167482544D03*
D19*
X100901607Y-168982544D03*
X144351607Y-171982544D03*
X144351607Y-170482544D03*
D20*
X139001607Y-170482544D03*
D19*
X139001607Y-171982544D03*
D36*
X159995435Y-138993114D03*
X156695435Y-138993114D03*
X83795371Y-99691605D03*
X80495371Y-99691605D03*
D19*
X58626607Y-138882544D03*
X58626607Y-137382544D03*
D20*
X53276607Y-137382544D03*
D19*
X53276607Y-138882544D03*
D36*
X64732467Y-102668170D03*
X61432467Y-102668170D03*
D19*
X153876607Y-114832544D03*
X153876607Y-113332544D03*
D20*
X148526607Y-113332544D03*
D19*
X148526607Y-114832544D03*
D36*
X140962562Y-136016549D03*
X137662562Y-136016549D03*
X164775082Y-156077544D03*
X161475082Y-156077544D03*
D19*
X115776607Y-128882544D03*
X115776607Y-127382544D03*
D20*
X110426607Y-127382544D03*
D19*
X110426607Y-128882544D03*
X134826607Y-149932544D03*
X134826607Y-148432544D03*
D20*
X129476607Y-148432544D03*
D19*
X129476607Y-149932544D03*
X96726607Y-130882544D03*
X96726607Y-129382544D03*
D20*
X91376607Y-129382544D03*
D19*
X91376607Y-130882544D03*
D36*
X121895403Y-95524414D03*
X118595403Y-95524414D03*
X121895403Y-92547849D03*
X118595403Y-92547849D03*
D19*
X115776607Y-109832544D03*
X115776607Y-108332544D03*
D20*
X110426607Y-108332544D03*
D19*
X110426607Y-109832544D03*
D37*
X172989197Y-166840527D03*
X171629735Y-166206600D03*
D38*
X169368727Y-171055347D03*
D37*
X170728189Y-171689274D03*
D19*
X153876607Y-152932544D03*
X153876607Y-151432544D03*
D20*
X148526607Y-151432544D03*
D19*
X148526607Y-152932544D03*
X125301607Y-168982544D03*
X125301607Y-167482544D03*
D20*
X119951607Y-167482544D03*
D19*
X119951607Y-168982544D03*
X134826607Y-92782544D03*
X134826607Y-91282544D03*
D20*
X129476607Y-91282544D03*
D19*
X129476607Y-92782544D03*
X58626607Y-119832544D03*
X58626607Y-118332544D03*
D20*
X53276607Y-118332544D03*
D19*
X53276607Y-119832544D03*
D25*
X172251607Y-84277544D03*
D26*
X170251607Y-84277544D03*
D36*
X112370319Y-154757968D03*
X109070319Y-154757968D03*
X64745359Y-140554157D03*
X61445359Y-140554157D03*
X64745187Y-143530722D03*
X61445187Y-143530722D03*
X140945419Y-97608016D03*
X137645419Y-97608016D03*
X102758021Y-97608016D03*
X99458021Y-97608016D03*
X121895311Y-134070876D03*
X118595311Y-134070876D03*
D19*
X58626607Y-100782544D03*
X58626607Y-99282544D03*
D20*
X53276607Y-99282544D03*
D19*
X53276607Y-100782544D03*
D36*
X159995279Y-135410385D03*
X156695279Y-135410385D03*
X180190323Y-144046932D03*
X176890323Y-144046932D03*
D19*
X58626607Y-157932544D03*
X58626607Y-156432544D03*
D20*
X53276607Y-156432544D03*
D19*
X53276607Y-157932544D03*
X153876607Y-133882544D03*
X153876607Y-132382544D03*
D20*
X148526607Y-132382544D03*
D19*
X148526607Y-133882544D03*
D36*
X159995435Y-100286918D03*
X156695435Y-100286918D03*
X180190323Y-146428184D03*
X176890323Y-146428184D03*
D19*
X96726607Y-149932544D03*
X96726607Y-148432544D03*
D20*
X91376607Y-148432544D03*
D19*
X91376607Y-149932544D03*
X134826607Y-111832544D03*
X134826607Y-110332544D03*
D20*
X129476607Y-110332544D03*
D19*
X129476607Y-111832544D03*
X96726607Y-92782544D03*
X96726607Y-91282544D03*
D20*
X91376607Y-91282544D03*
D19*
X91376607Y-92782544D03*
D36*
X150470287Y-157734528D03*
X147170287Y-157734528D03*
X83795203Y-141149470D03*
X80495203Y-141149470D03*
X121895311Y-130945488D03*
X118595311Y-130945488D03*
D19*
X77676607Y-116832544D03*
X77676607Y-115332544D03*
D20*
X72326607Y-115332544D03*
D19*
X72326607Y-116832544D03*
D36*
X131420303Y-154757968D03*
X128120303Y-154757968D03*
X83795203Y-137577592D03*
X80495203Y-137577592D03*
X83795371Y-102668168D03*
X80495371Y-102668168D03*
D19*
X77676607Y-97782544D03*
X77676607Y-96282544D03*
D20*
X72326607Y-96282544D03*
D19*
X72326607Y-97782544D03*
D36*
X102845327Y-135707984D03*
X99545327Y-135707984D03*
X140945419Y-94333788D03*
X137645419Y-94333788D03*
D22*
X167976607Y-153627544D03*
X168476607Y-153627544D03*
X168976607Y-153627544D03*
X169476607Y-153627544D03*
X169976607Y-153627544D03*
X170476607Y-153627544D03*
X170976607Y-153627544D03*
X171476607Y-153627544D03*
X171976607Y-153627544D03*
X172476607Y-153627544D03*
D23*
X166076607Y-150377544D03*
X174376607Y-150377544D03*
D19*
X115776607Y-147932544D03*
X115776607Y-146432544D03*
D20*
X110426607Y-146432544D03*
D19*
X110426607Y-147932544D03*
X115776607Y-90782544D03*
X115776607Y-89282544D03*
D20*
X110426607Y-89282544D03*
D19*
X110426607Y-90782544D03*
D36*
X102846419Y-132880252D03*
X99546419Y-132880252D03*
X140962562Y-132444671D03*
X137662562Y-132444671D03*
X159995435Y-97310353D03*
X156695435Y-97310353D03*
D18*
X177871607Y-85407544D03*
X177871607Y-87947544D03*
X177871607Y-90487544D03*
X177871607Y-93027544D03*
X177871607Y-95567544D03*
X177871607Y-98107544D03*
X177871607Y-100647544D03*
X177871607Y-103187544D03*
X177871607Y-105727544D03*
X177871607Y-108267544D03*
X177871607Y-110807544D03*
X177871607Y-113347544D03*
X162631607Y-113347544D03*
X162631607Y-110807544D03*
X162631607Y-108267544D03*
X162631607Y-105727544D03*
X162631607Y-103187544D03*
X162631607Y-100647544D03*
X162631607Y-98107544D03*
X162631607Y-95567544D03*
X162631607Y-93027544D03*
X162631607Y-90487544D03*
X162631607Y-87947544D03*
X162631607Y-85407544D03*
X175331607Y-108267544D03*
X172791607Y-108267544D03*
X170251607Y-108267544D03*
D19*
X172926607Y-143407544D03*
X172926607Y-141907544D03*
D20*
X167576607Y-141907544D03*
D19*
X167576607Y-143407544D03*
D36*
X180190323Y-151190688D03*
X176890323Y-151190688D03*
X64745359Y-105644728D03*
X61445359Y-105644728D03*
D19*
X77676607Y-135882544D03*
X77676607Y-134382544D03*
D20*
X72326607Y-134382544D03*
D19*
X72326607Y-135882544D03*
X153876607Y-95782544D03*
X153876607Y-94282544D03*
D20*
X148526607Y-94282544D03*
D19*
X148526607Y-95782544D03*
D36*
X102845387Y-94333788D03*
X99545387Y-94333788D03*
X180190323Y-148809436D03*
X176890323Y-148809436D03*
D19*
X96726607Y-111832544D03*
X96726607Y-110332544D03*
D20*
X91376607Y-110332544D03*
D19*
X91376607Y-111832544D03*
D36*
X166561021Y-127682167D03*
X163261021Y-127682167D03*
D39*
X186348957Y-157573007D02*
G75*
G02*
X186302111Y-157361695I453145J211307D01*
G01*
X225902109Y-78977544D02*
G75*
G02*
X225402109Y-79477607I-500107J44D01*
G01*
X236427109Y-175227544D02*
G75*
G02*
X235927109Y-175727607I-500107J44D01*
G01*
X283552109Y-76477544D02*
X265502109Y-76477544D01*
X274527109Y-172227544D02*
G75*
G02*
X274027109Y-172727607I-500107J44D01*
G01*
X274527109Y-172227544D02*
X274527109Y-162177544D01*
X244452109Y-76477544D02*
X226402109Y-76477544D01*
X274527109Y-162177544D02*
G75*
G02*
X275027109Y-161677607I499893J44D01*
G01*
X186348956Y-157573007D02*
X198456219Y-183536662D01*
X303102109Y-83977544D02*
X303102109Y-81977544D01*
X322152109Y-161177544D02*
X322152109Y-84977544D01*
X199120682Y-183778503D02*
G75*
G02*
X198456234Y-183536655I-211280J453203D01*
G01*
X216285557Y-175774390D02*
G75*
G02*
X216496866Y-175727544I211145J-452410D01*
G01*
X265502109Y-76477544D02*
G75*
G02*
X265002158Y-75977544I-7J499944D01*
G01*
X264502109Y-74477544D02*
G75*
G02*
X265002158Y-74977544I-7J-500056D01*
G01*
X321652109Y-84477544D02*
X303602109Y-84477544D01*
X275027109Y-161677544D02*
X321652109Y-161677544D01*
X284552109Y-81477544D02*
G75*
G02*
X284052158Y-80977544I-7J499944D01*
G01*
X264502109Y-74477544D02*
X245452109Y-74477544D01*
X321652109Y-84477544D02*
G75*
G02*
X322152158Y-84977544I-7J-500056D01*
G01*
X284052109Y-80977544D02*
X284052109Y-76977544D01*
X225402109Y-79477544D02*
X186802109Y-79477544D01*
X216496866Y-175727544D02*
X235927109Y-175727544D01*
X225902109Y-76977544D02*
X225902109Y-78977544D01*
X244952109Y-74977544D02*
G75*
G02*
X245452109Y-74477607I499893J44D01*
G01*
X236427109Y-173227544D02*
G75*
G02*
X236927109Y-172727607I499893J44D01*
G01*
X302602109Y-81477544D02*
G75*
G02*
X303102158Y-81977544I-7J-500056D01*
G01*
X265002109Y-75977544D02*
X265002109Y-74977544D01*
X236427109Y-175227544D02*
X236427109Y-173227544D01*
X283552109Y-76477544D02*
G75*
G02*
X284052158Y-76977544I-7J-500056D01*
G01*
X303602109Y-84477544D02*
G75*
G02*
X303102158Y-83977544I-7J499944D01*
G01*
X322152109Y-161177544D02*
G75*
G02*
X321652109Y-161677607I-500107J44D01*
G01*
X186302109Y-79977544D02*
X186302109Y-157361695D01*
X225902109Y-76977544D02*
G75*
G02*
X226402109Y-76477607I499893J44D01*
G01*
X186302109Y-79977544D02*
G75*
G02*
X186802109Y-79477607I499893J44D01*
G01*
X244952109Y-75977544D02*
G75*
G02*
X244452109Y-76477607I-500107J44D01*
G01*
X302602109Y-81477544D02*
X284552109Y-81477544D01*
X199120681Y-183778503D02*
X216285557Y-175774390D01*
X244952109Y-74977544D02*
X244952109Y-75977544D01*
X236927109Y-172727544D02*
X274027109Y-172727544D01*
D40*
X57678796Y-170155224D02*
G75*
G02*
X60787780Y-168919594I1800019J42D01*
G01*
X60578796Y-193904244D02*
G75*
G02*
X58378796Y-193904244I-1100000J0D01*
G01*
X58378796Y-193904244D02*
G75*
G02*
X60578796Y-193904244I1100000J0D01*
G01*
X60578796Y-170155224D02*
G75*
G02*
X58378796Y-170155224I-1100000J0D01*
G01*
X58378796Y-170155224D02*
G75*
G02*
X60578796Y-170155224I1100000J0D01*
G01*
X60753479Y-195175152D02*
G75*
G02*
X63427651Y-195153661I1348036J-1351830D01*
G01*
X60750201Y-195178431D02*
G75*
G02*
X57678849Y-193904251I-1271386J1274149D01*
G01*
X63419106Y-168913963D02*
G75*
G02*
X60790947Y-168920627I-1317591J1381481D01*
G01*
X57678796Y-170155224D02*
X57678796Y-193904244D01*
X63419106Y-168913964D02*
G75*
G02*
X63427689Y-195153681I12509689J-13115768D01*
G01*
D39*
X169622497Y-183986661D02*
G75*
G02*
X168958020Y-184228535I-453197J211361D01*
G01*
X151581850Y-176177544D02*
X132151607Y-176177544D01*
X103076607Y-76427544D02*
X103076607Y-75427544D01*
X168958035Y-184228503D02*
X151793159Y-176224390D01*
X103576607Y-74927544D02*
X122626607Y-74927544D01*
X181776606Y-157811695D02*
G75*
G02*
X181729765Y-158023010I-499606J-105D01*
G01*
X181276607Y-79927544D02*
G75*
G02*
X181776556Y-80427544I-7J-499956D01*
G01*
X123626607Y-76927544D02*
X141676607Y-76927544D01*
X84026607Y-77427544D02*
G75*
G02*
X84526607Y-76927507I499993J44D01*
G01*
X93551607Y-172677544D02*
X93551607Y-162627544D01*
X94051607Y-173177544D02*
G75*
G02*
X93551556Y-172677544I-7J500044D01*
G01*
X151581850Y-176177544D02*
G75*
G02*
X151793164Y-176224379I-50J-500356D01*
G01*
X122626607Y-74927544D02*
G75*
G02*
X123126556Y-75427544I-7J-499956D01*
G01*
X65476607Y-81927544D02*
X83526607Y-81927544D01*
X132151607Y-176177544D02*
G75*
G02*
X131651556Y-175677544I-7J500044D01*
G01*
X142676607Y-79927544D02*
G75*
G02*
X142176556Y-79427544I-7J500044D01*
G01*
X142676607Y-79927544D02*
X181276607Y-79927544D01*
X142176607Y-77427544D02*
X142176607Y-79427544D01*
X84526607Y-76927544D02*
X102576607Y-76927544D01*
X46426607Y-84927544D02*
X64476607Y-84927544D01*
X131151607Y-173177544D02*
X94051607Y-173177544D01*
X46426607Y-162127544D02*
G75*
G02*
X45926556Y-161627544I-7J500044D01*
G01*
X64976607Y-84427544D02*
G75*
G02*
X64476607Y-84927507I-500007J44D01*
G01*
X131651607Y-175677544D02*
X131651607Y-173677544D01*
X123126607Y-75427544D02*
X123126607Y-76427544D01*
X181729760Y-158023007D02*
X169622497Y-183986662D01*
X84026607Y-81427544D02*
G75*
G02*
X83526607Y-81927507I-500007J44D01*
G01*
X64976607Y-84427544D02*
X64976607Y-82427544D01*
X181776607Y-80427544D02*
X181776607Y-157811695D01*
X45926607Y-85427544D02*
G75*
G02*
X46426607Y-84927507I499993J44D01*
G01*
X45926607Y-161627544D02*
X45926607Y-85427544D01*
X141676607Y-76927544D02*
G75*
G02*
X142176556Y-77427544I-7J-499956D01*
G01*
X64976607Y-82427544D02*
G75*
G02*
X65476607Y-81927507I499993J44D01*
G01*
X123626607Y-76927544D02*
G75*
G02*
X123126556Y-76427544I-7J500044D01*
G01*
X93051607Y-162127544D02*
X46426607Y-162127544D01*
X103076607Y-75427544D02*
G75*
G02*
X103576607Y-74927507I499993J44D01*
G01*
X93051607Y-162127544D02*
G75*
G02*
X93551556Y-162627544I-7J-499956D01*
G01*
X103076607Y-76427544D02*
G75*
G02*
X102576607Y-76927507I-500007J44D01*
G01*
X84026607Y-81427544D02*
X84026607Y-77427544D01*
X131151607Y-173177544D02*
G75*
G02*
X131651556Y-173677544I-7J-499956D01*
G01*
D41*
X269477109Y-86502544D02*
G75*
G02*
X267577109Y-86502544I-950000J0D01*
G01*
X267577109Y-86502544D02*
G75*
G02*
X269477109Y-86502544I950000J0D01*
G01*
D42*
X275552109Y-80602544D02*
G75*
G02*
X272502109Y-80602544I-1525000J0D01*
G01*
X272502109Y-80602544D02*
G75*
G02*
X275552109Y-80602544I1525000J0D01*
G01*
X280552109Y-82702544D02*
G75*
G02*
X277502109Y-82702544I-1525000J0D01*
G01*
X277502109Y-82702544D02*
G75*
G02*
X280552109Y-82702544I1525000J0D01*
G01*
D41*
X280477109Y-86502544D02*
G75*
G02*
X278577109Y-86502544I-950000J0D01*
G01*
X278577109Y-86502544D02*
G75*
G02*
X280477109Y-86502544I950000J0D01*
G01*
X307577109Y-113552544D02*
G75*
G02*
X305677109Y-113552544I-950000J0D01*
G01*
X305677109Y-113552544D02*
G75*
G02*
X307577109Y-113552544I950000J0D01*
G01*
D42*
X313652109Y-107652544D02*
G75*
G02*
X310602109Y-107652544I-1525000J0D01*
G01*
X310602109Y-107652544D02*
G75*
G02*
X313652109Y-107652544I1525000J0D01*
G01*
X318652109Y-109752544D02*
G75*
G02*
X315602109Y-109752544I-1525000J0D01*
G01*
X315602109Y-109752544D02*
G75*
G02*
X318652109Y-109752544I1525000J0D01*
G01*
D41*
X318577109Y-113552544D02*
G75*
G02*
X316677109Y-113552544I-950000J0D01*
G01*
X316677109Y-113552544D02*
G75*
G02*
X318577109Y-113552544I950000J0D01*
G01*
X200129398Y-161366344D02*
G75*
G02*
X198229398Y-161366344I-950000J0D01*
G01*
X198229398Y-161366344D02*
G75*
G02*
X200129398Y-161366344I950000J0D01*
G01*
X204778198Y-171335730D02*
G75*
G02*
X202878198Y-171335730I-950000J0D01*
G01*
X202878198Y-171335730D02*
G75*
G02*
X204778198Y-171335730I950000J0D01*
G01*
D42*
X208376015Y-163857589D02*
G75*
G02*
X205326013Y-163857589I-1525001J0D01*
G01*
X205326013Y-163857589D02*
G75*
G02*
X208376015Y-163857589I1525001J0D01*
G01*
X208585859Y-169276627D02*
G75*
G02*
X205535859Y-169276627I-1525000J0D01*
G01*
X205535859Y-169276627D02*
G75*
G02*
X208585859Y-169276627I1525000J0D01*
G01*
D41*
X288527109Y-148652544D02*
G75*
G02*
X286627109Y-148652544I-950000J0D01*
G01*
X286627109Y-148652544D02*
G75*
G02*
X288527109Y-148652544I950000J0D01*
G01*
D42*
X294602109Y-142752544D02*
G75*
G02*
X291552109Y-142752544I-1525000J0D01*
G01*
X291552109Y-142752544D02*
G75*
G02*
X294602109Y-142752544I1525000J0D01*
G01*
X299602109Y-144852544D02*
G75*
G02*
X296552109Y-144852544I-1525000J0D01*
G01*
X296552109Y-144852544D02*
G75*
G02*
X299602109Y-144852544I1525000J0D01*
G01*
D41*
X299527109Y-148652544D02*
G75*
G02*
X297627109Y-148652544I-950000J0D01*
G01*
X297627109Y-148652544D02*
G75*
G02*
X299527109Y-148652544I950000J0D01*
G01*
X250427109Y-141652544D02*
G75*
G02*
X248527109Y-141652544I-950000J0D01*
G01*
X248527109Y-141652544D02*
G75*
G02*
X250427109Y-141652544I950000J0D01*
G01*
D42*
X256502109Y-135752544D02*
G75*
G02*
X253452109Y-135752544I-1525000J0D01*
G01*
X253452109Y-135752544D02*
G75*
G02*
X256502109Y-135752544I1525000J0D01*
G01*
X261502109Y-137852544D02*
G75*
G02*
X258452109Y-137852544I-1525000J0D01*
G01*
X258452109Y-137852544D02*
G75*
G02*
X261502109Y-137852544I1525000J0D01*
G01*
D41*
X261427109Y-141652544D02*
G75*
G02*
X259527109Y-141652544I-950000J0D01*
G01*
X259527109Y-141652544D02*
G75*
G02*
X261427109Y-141652544I950000J0D01*
G01*
X212327109Y-146652544D02*
G75*
G02*
X210427109Y-146652544I-950000J0D01*
G01*
X210427109Y-146652544D02*
G75*
G02*
X212327109Y-146652544I950000J0D01*
G01*
D42*
X218402109Y-140752544D02*
G75*
G02*
X215352109Y-140752544I-1525000J0D01*
G01*
X215352109Y-140752544D02*
G75*
G02*
X218402109Y-140752544I1525000J0D01*
G01*
X223402109Y-142852544D02*
G75*
G02*
X220352109Y-142852544I-1525000J0D01*
G01*
X220352109Y-142852544D02*
G75*
G02*
X223402109Y-142852544I1525000J0D01*
G01*
D41*
X223327109Y-146652544D02*
G75*
G02*
X221427109Y-146652544I-950000J0D01*
G01*
X221427109Y-146652544D02*
G75*
G02*
X223327109Y-146652544I950000J0D01*
G01*
X212327109Y-127602544D02*
G75*
G02*
X210427109Y-127602544I-950000J0D01*
G01*
X210427109Y-127602544D02*
G75*
G02*
X212327109Y-127602544I950000J0D01*
G01*
D42*
X218402109Y-121702544D02*
G75*
G02*
X215352109Y-121702544I-1525000J0D01*
G01*
X215352109Y-121702544D02*
G75*
G02*
X218402109Y-121702544I1525000J0D01*
G01*
X223402109Y-123802544D02*
G75*
G02*
X220352109Y-123802544I-1525000J0D01*
G01*
X220352109Y-123802544D02*
G75*
G02*
X223402109Y-123802544I1525000J0D01*
G01*
D41*
X223327109Y-127602544D02*
G75*
G02*
X221427109Y-127602544I-950000J0D01*
G01*
X221427109Y-127602544D02*
G75*
G02*
X223327109Y-127602544I950000J0D01*
G01*
X231377109Y-86502544D02*
G75*
G02*
X229477109Y-86502544I-950000J0D01*
G01*
X229477109Y-86502544D02*
G75*
G02*
X231377109Y-86502544I950000J0D01*
G01*
D42*
X237452109Y-80602544D02*
G75*
G02*
X234402109Y-80602544I-1525000J0D01*
G01*
X234402109Y-80602544D02*
G75*
G02*
X237452109Y-80602544I1525000J0D01*
G01*
X242452109Y-82702544D02*
G75*
G02*
X239402109Y-82702544I-1525000J0D01*
G01*
X239402109Y-82702544D02*
G75*
G02*
X242452109Y-82702544I1525000J0D01*
G01*
D41*
X242377109Y-86502544D02*
G75*
G02*
X240477109Y-86502544I-950000J0D01*
G01*
X240477109Y-86502544D02*
G75*
G02*
X242377109Y-86502544I950000J0D01*
G01*
X259952109Y-162702544D02*
G75*
G02*
X258052109Y-162702544I-950000J0D01*
G01*
X258052109Y-162702544D02*
G75*
G02*
X259952109Y-162702544I950000J0D01*
G01*
D42*
X266027109Y-156802544D02*
G75*
G02*
X262977109Y-156802544I-1525000J0D01*
G01*
X262977109Y-156802544D02*
G75*
G02*
X266027109Y-156802544I1525000J0D01*
G01*
X271027109Y-158902544D02*
G75*
G02*
X267977109Y-158902544I-1525000J0D01*
G01*
X267977109Y-158902544D02*
G75*
G02*
X271027109Y-158902544I1525000J0D01*
G01*
D41*
X270952109Y-162702544D02*
G75*
G02*
X269052109Y-162702544I-950000J0D01*
G01*
X269052109Y-162702544D02*
G75*
G02*
X270952109Y-162702544I950000J0D01*
G01*
X212327109Y-89502544D02*
G75*
G02*
X210427109Y-89502544I-950000J0D01*
G01*
X210427109Y-89502544D02*
G75*
G02*
X212327109Y-89502544I950000J0D01*
G01*
D42*
X218402109Y-83602544D02*
G75*
G02*
X215352109Y-83602544I-1525000J0D01*
G01*
X215352109Y-83602544D02*
G75*
G02*
X218402109Y-83602544I1525000J0D01*
G01*
X223402109Y-85702544D02*
G75*
G02*
X220352109Y-85702544I-1525000J0D01*
G01*
X220352109Y-85702544D02*
G75*
G02*
X223402109Y-85702544I1525000J0D01*
G01*
D41*
X223327109Y-89502544D02*
G75*
G02*
X221427109Y-89502544I-950000J0D01*
G01*
X221427109Y-89502544D02*
G75*
G02*
X223327109Y-89502544I950000J0D01*
G01*
X307577109Y-132602544D02*
G75*
G02*
X305677109Y-132602544I-950000J0D01*
G01*
X305677109Y-132602544D02*
G75*
G02*
X307577109Y-132602544I950000J0D01*
G01*
D42*
X313652109Y-126702544D02*
G75*
G02*
X310602109Y-126702544I-1525000J0D01*
G01*
X310602109Y-126702544D02*
G75*
G02*
X313652109Y-126702544I1525000J0D01*
G01*
X318652109Y-128802544D02*
G75*
G02*
X315602109Y-128802544I-1525000J0D01*
G01*
X315602109Y-128802544D02*
G75*
G02*
X318652109Y-128802544I1525000J0D01*
G01*
D41*
X318577109Y-132602544D02*
G75*
G02*
X316677109Y-132602544I-950000J0D01*
G01*
X316677109Y-132602544D02*
G75*
G02*
X318577109Y-132602544I950000J0D01*
G01*
X288527109Y-91502544D02*
G75*
G02*
X286627109Y-91502544I-950000J0D01*
G01*
X286627109Y-91502544D02*
G75*
G02*
X288527109Y-91502544I950000J0D01*
G01*
D42*
X294602109Y-85602544D02*
G75*
G02*
X291552109Y-85602544I-1525000J0D01*
G01*
X291552109Y-85602544D02*
G75*
G02*
X294602109Y-85602544I1525000J0D01*
G01*
X299602109Y-87702544D02*
G75*
G02*
X296552109Y-87702544I-1525000J0D01*
G01*
X296552109Y-87702544D02*
G75*
G02*
X299602109Y-87702544I1525000J0D01*
G01*
D41*
X299527109Y-91502544D02*
G75*
G02*
X297627109Y-91502544I-950000J0D01*
G01*
X297627109Y-91502544D02*
G75*
G02*
X299527109Y-91502544I950000J0D01*
G01*
D43*
X272127109Y-109332544D02*
X272127109Y-111932544D01*
X272327109Y-112132544D02*
X275727109Y-112132544D01*
X275727109Y-109132544D02*
X272327109Y-109132544D01*
X275927109Y-111932544D02*
X275927109Y-109332544D01*
X272127109Y-109332544D02*
G75*
G02*
X272327109Y-109132544I200000J0D01*
G01*
X272327109Y-112132544D02*
G75*
G02*
X272127109Y-111932544I0J200000D01*
G01*
X275727109Y-109132544D02*
G75*
G02*
X275927109Y-109332544I-1J-200001D01*
G01*
X275927109Y-111932544D02*
G75*
G02*
X275727109Y-112132544I-200001J1D01*
G01*
X253077109Y-126382544D02*
X253077109Y-128982544D01*
X253277109Y-129182544D02*
X256677109Y-129182544D01*
X256677109Y-126182544D02*
X253277109Y-126182544D01*
X256877109Y-128982544D02*
X256877109Y-126382544D01*
X253077109Y-126382544D02*
G75*
G02*
X253277109Y-126182544I200000J0D01*
G01*
X253277109Y-129182544D02*
G75*
G02*
X253077109Y-128982544I0J200000D01*
G01*
X256677109Y-126182544D02*
G75*
G02*
X256877109Y-126382544I-1J-200001D01*
G01*
X256877109Y-128982544D02*
G75*
G02*
X256677109Y-129182544I-200001J1D01*
G01*
X272127109Y-147432544D02*
X272127109Y-150032544D01*
X272327109Y-150232544D02*
X275727109Y-150232544D01*
X275727109Y-147232544D02*
X272327109Y-147232544D01*
X275927109Y-150032544D02*
X275927109Y-147432544D01*
X272127109Y-147432544D02*
G75*
G02*
X272327109Y-147232544I200000J0D01*
G01*
X272327109Y-150232544D02*
G75*
G02*
X272127109Y-150032544I0J200000D01*
G01*
X275727109Y-147232544D02*
G75*
G02*
X275927109Y-147432544I-1J-200001D01*
G01*
X275927109Y-150032544D02*
G75*
G02*
X275727109Y-150232544I-200001J1D01*
G01*
X272127109Y-90282544D02*
X272127109Y-92882544D01*
X272327109Y-93082544D02*
X275727109Y-93082544D01*
X275727109Y-90082544D02*
X272327109Y-90082544D01*
X275927109Y-92882544D02*
X275927109Y-90282544D01*
X272127109Y-90282544D02*
G75*
G02*
X272327109Y-90082544I200000J0D01*
G01*
X272327109Y-93082544D02*
G75*
G02*
X272127109Y-92882544I0J200000D01*
G01*
X275727109Y-90082544D02*
G75*
G02*
X275927109Y-90282544I-1J-200001D01*
G01*
X275927109Y-92882544D02*
G75*
G02*
X275727109Y-93082544I-200001J1D01*
G01*
X234027109Y-90282544D02*
X234027109Y-92882544D01*
X234227109Y-93082544D02*
X237627109Y-93082544D01*
X237627109Y-90082544D02*
X234227109Y-90082544D01*
X237827109Y-92882544D02*
X237827109Y-90282544D01*
X234027109Y-90282544D02*
G75*
G02*
X234227109Y-90082544I200000J0D01*
G01*
X234227109Y-93082544D02*
G75*
G02*
X234027109Y-92882544I0J200000D01*
G01*
X237627109Y-90082544D02*
G75*
G02*
X237827109Y-90282544I-1J-200001D01*
G01*
X237827109Y-92882544D02*
G75*
G02*
X237627109Y-93082544I-200001J1D01*
G01*
X195927109Y-140907544D02*
X195927109Y-143507544D01*
X196127109Y-143707544D02*
X199527109Y-143707544D01*
X199527109Y-140707544D02*
X196127109Y-140707544D01*
X199727109Y-143507544D02*
X199727109Y-140907544D01*
X195927109Y-140907544D02*
G75*
G02*
X196127109Y-140707544I200000J0D01*
G01*
X196127109Y-143707544D02*
G75*
G02*
X195927109Y-143507544I0J200000D01*
G01*
X199527109Y-140707544D02*
G75*
G02*
X199727109Y-140907544I-1J-200001D01*
G01*
X199727109Y-143507544D02*
G75*
G02*
X199527109Y-143707544I-200001J1D01*
G01*
D41*
X307577109Y-151652544D02*
G75*
G02*
X305677109Y-151652544I-950000J0D01*
G01*
X305677109Y-151652544D02*
G75*
G02*
X307577109Y-151652544I950000J0D01*
G01*
D42*
X313652109Y-145752544D02*
G75*
G02*
X310602109Y-145752544I-1525000J0D01*
G01*
X310602109Y-145752544D02*
G75*
G02*
X313652109Y-145752544I1525000J0D01*
G01*
X318652109Y-147852544D02*
G75*
G02*
X315602109Y-147852544I-1525000J0D01*
G01*
X315602109Y-147852544D02*
G75*
G02*
X318652109Y-147852544I1525000J0D01*
G01*
D41*
X318577109Y-151652544D02*
G75*
G02*
X316677109Y-151652544I-950000J0D01*
G01*
X316677109Y-151652544D02*
G75*
G02*
X318577109Y-151652544I950000J0D01*
G01*
X240902109Y-162702544D02*
G75*
G02*
X239002109Y-162702544I-950000J0D01*
G01*
X239002109Y-162702544D02*
G75*
G02*
X240902109Y-162702544I950000J0D01*
G01*
D42*
X246977109Y-156802544D02*
G75*
G02*
X243927109Y-156802544I-1525000J0D01*
G01*
X243927109Y-156802544D02*
G75*
G02*
X246977109Y-156802544I1525000J0D01*
G01*
X251977109Y-158902544D02*
G75*
G02*
X248927109Y-158902544I-1525000J0D01*
G01*
X248927109Y-158902544D02*
G75*
G02*
X251977109Y-158902544I1525000J0D01*
G01*
D41*
X251902109Y-162702544D02*
G75*
G02*
X250002109Y-162702544I-950000J0D01*
G01*
X250002109Y-162702544D02*
G75*
G02*
X251902109Y-162702544I950000J0D01*
G01*
X231377109Y-105552544D02*
G75*
G02*
X229477109Y-105552544I-950000J0D01*
G01*
X229477109Y-105552544D02*
G75*
G02*
X231377109Y-105552544I950000J0D01*
G01*
D42*
X237452109Y-99652544D02*
G75*
G02*
X234402109Y-99652544I-1525000J0D01*
G01*
X234402109Y-99652544D02*
G75*
G02*
X237452109Y-99652544I1525000J0D01*
G01*
X242452109Y-101752544D02*
G75*
G02*
X239402109Y-101752544I-1525000J0D01*
G01*
X239402109Y-101752544D02*
G75*
G02*
X242452109Y-101752544I1525000J0D01*
G01*
D41*
X242377109Y-105552544D02*
G75*
G02*
X240477109Y-105552544I-950000J0D01*
G01*
X240477109Y-105552544D02*
G75*
G02*
X242377109Y-105552544I950000J0D01*
G01*
X288527109Y-129602544D02*
G75*
G02*
X286627109Y-129602544I-950000J0D01*
G01*
X286627109Y-129602544D02*
G75*
G02*
X288527109Y-129602544I950000J0D01*
G01*
D42*
X294602109Y-123702544D02*
G75*
G02*
X291552109Y-123702544I-1525000J0D01*
G01*
X291552109Y-123702544D02*
G75*
G02*
X294602109Y-123702544I1525000J0D01*
G01*
X299602109Y-125802544D02*
G75*
G02*
X296552109Y-125802544I-1525000J0D01*
G01*
X296552109Y-125802544D02*
G75*
G02*
X299602109Y-125802544I1525000J0D01*
G01*
D41*
X299527109Y-129602544D02*
G75*
G02*
X297627109Y-129602544I-950000J0D01*
G01*
X297627109Y-129602544D02*
G75*
G02*
X299527109Y-129602544I950000J0D01*
G01*
X307577109Y-94502544D02*
G75*
G02*
X305677109Y-94502544I-950000J0D01*
G01*
X305677109Y-94502544D02*
G75*
G02*
X307577109Y-94502544I950000J0D01*
G01*
D42*
X313652109Y-88602544D02*
G75*
G02*
X310602109Y-88602544I-1525000J0D01*
G01*
X310602109Y-88602544D02*
G75*
G02*
X313652109Y-88602544I1525000J0D01*
G01*
X318652109Y-90702544D02*
G75*
G02*
X315602109Y-90702544I-1525000J0D01*
G01*
X315602109Y-90702544D02*
G75*
G02*
X318652109Y-90702544I1525000J0D01*
G01*
D41*
X318577109Y-94502544D02*
G75*
G02*
X316677109Y-94502544I-950000J0D01*
G01*
X316677109Y-94502544D02*
G75*
G02*
X318577109Y-94502544I950000J0D01*
G01*
X269477109Y-143652544D02*
G75*
G02*
X267577109Y-143652544I-950000J0D01*
G01*
X267577109Y-143652544D02*
G75*
G02*
X269477109Y-143652544I950000J0D01*
G01*
D42*
X275552109Y-137752544D02*
G75*
G02*
X272502109Y-137752544I-1525000J0D01*
G01*
X272502109Y-137752544D02*
G75*
G02*
X275552109Y-137752544I1525000J0D01*
G01*
X280552109Y-139852544D02*
G75*
G02*
X277502109Y-139852544I-1525000J0D01*
G01*
X277502109Y-139852544D02*
G75*
G02*
X280552109Y-139852544I1525000J0D01*
G01*
D41*
X280477109Y-143652544D02*
G75*
G02*
X278577109Y-143652544I-950000J0D01*
G01*
X278577109Y-143652544D02*
G75*
G02*
X280477109Y-143652544I950000J0D01*
G01*
X250427109Y-84502544D02*
G75*
G02*
X248527109Y-84502544I-950000J0D01*
G01*
X248527109Y-84502544D02*
G75*
G02*
X250427109Y-84502544I950000J0D01*
G01*
D42*
X256502109Y-78602544D02*
G75*
G02*
X253452109Y-78602544I-1525000J0D01*
G01*
X253452109Y-78602544D02*
G75*
G02*
X256502109Y-78602544I1525000J0D01*
G01*
X261502109Y-80702544D02*
G75*
G02*
X258452109Y-80702544I-1525000J0D01*
G01*
X258452109Y-80702544D02*
G75*
G02*
X261502109Y-80702544I1525000J0D01*
G01*
D41*
X261427109Y-84502544D02*
G75*
G02*
X259527109Y-84502544I-950000J0D01*
G01*
X259527109Y-84502544D02*
G75*
G02*
X261427109Y-84502544I950000J0D01*
G01*
X250427109Y-122602544D02*
G75*
G02*
X248527109Y-122602544I-950000J0D01*
G01*
X248527109Y-122602544D02*
G75*
G02*
X250427109Y-122602544I950000J0D01*
G01*
D42*
X256502109Y-116702544D02*
G75*
G02*
X253452109Y-116702544I-1525000J0D01*
G01*
X253452109Y-116702544D02*
G75*
G02*
X256502109Y-116702544I1525000J0D01*
G01*
X261502109Y-118802544D02*
G75*
G02*
X258452109Y-118802544I-1525000J0D01*
G01*
X258452109Y-118802544D02*
G75*
G02*
X261502109Y-118802544I1525000J0D01*
G01*
D41*
X261427109Y-122602544D02*
G75*
G02*
X259527109Y-122602544I-950000J0D01*
G01*
X259527109Y-122602544D02*
G75*
G02*
X261427109Y-122602544I950000J0D01*
G01*
X221852109Y-165702544D02*
G75*
G02*
X219952109Y-165702544I-950000J0D01*
G01*
X219952109Y-165702544D02*
G75*
G02*
X221852109Y-165702544I950000J0D01*
G01*
D42*
X227927109Y-159802544D02*
G75*
G02*
X224877109Y-159802544I-1525000J0D01*
G01*
X224877109Y-159802544D02*
G75*
G02*
X227927109Y-159802544I1525000J0D01*
G01*
X232927109Y-161902544D02*
G75*
G02*
X229877109Y-161902544I-1525000J0D01*
G01*
X229877109Y-161902544D02*
G75*
G02*
X232927109Y-161902544I1525000J0D01*
G01*
D41*
X232852109Y-165702544D02*
G75*
G02*
X230952109Y-165702544I-950000J0D01*
G01*
X230952109Y-165702544D02*
G75*
G02*
X232852109Y-165702544I950000J0D01*
G01*
X212327109Y-108552544D02*
G75*
G02*
X210427109Y-108552544I-950000J0D01*
G01*
X210427109Y-108552544D02*
G75*
G02*
X212327109Y-108552544I950000J0D01*
G01*
D42*
X218402109Y-102652544D02*
G75*
G02*
X215352109Y-102652544I-1525000J0D01*
G01*
X215352109Y-102652544D02*
G75*
G02*
X218402109Y-102652544I1525000J0D01*
G01*
X223402109Y-104752544D02*
G75*
G02*
X220352109Y-104752544I-1525000J0D01*
G01*
X220352109Y-104752544D02*
G75*
G02*
X223402109Y-104752544I1525000J0D01*
G01*
D41*
X223327109Y-108552544D02*
G75*
G02*
X221427109Y-108552544I-950000J0D01*
G01*
X221427109Y-108552544D02*
G75*
G02*
X223327109Y-108552544I950000J0D01*
G01*
X231377109Y-143652544D02*
G75*
G02*
X229477109Y-143652544I-950000J0D01*
G01*
X229477109Y-143652544D02*
G75*
G02*
X231377109Y-143652544I950000J0D01*
G01*
D42*
X237452109Y-137752544D02*
G75*
G02*
X234402109Y-137752544I-1525000J0D01*
G01*
X234402109Y-137752544D02*
G75*
G02*
X237452109Y-137752544I1525000J0D01*
G01*
X242452109Y-139852544D02*
G75*
G02*
X239402109Y-139852544I-1525000J0D01*
G01*
X239402109Y-139852544D02*
G75*
G02*
X242452109Y-139852544I1525000J0D01*
G01*
D41*
X242377109Y-143652544D02*
G75*
G02*
X240477109Y-143652544I-950000J0D01*
G01*
X240477109Y-143652544D02*
G75*
G02*
X242377109Y-143652544I950000J0D01*
G01*
X193277109Y-137127544D02*
G75*
G02*
X191377109Y-137127544I-950000J0D01*
G01*
X191377109Y-137127544D02*
G75*
G02*
X193277109Y-137127544I950000J0D01*
G01*
D42*
X199352109Y-131227544D02*
G75*
G02*
X196302109Y-131227544I-1525000J0D01*
G01*
X196302109Y-131227544D02*
G75*
G02*
X199352109Y-131227544I1525000J0D01*
G01*
X204352109Y-133327544D02*
G75*
G02*
X201302109Y-133327544I-1525000J0D01*
G01*
X201302109Y-133327544D02*
G75*
G02*
X204352109Y-133327544I1525000J0D01*
G01*
D41*
X204277109Y-137127544D02*
G75*
G02*
X202377109Y-137127544I-950000J0D01*
G01*
X202377109Y-137127544D02*
G75*
G02*
X204277109Y-137127544I950000J0D01*
G01*
X269477109Y-124602544D02*
G75*
G02*
X267577109Y-124602544I-950000J0D01*
G01*
X267577109Y-124602544D02*
G75*
G02*
X269477109Y-124602544I950000J0D01*
G01*
D42*
X275552109Y-118702544D02*
G75*
G02*
X272502109Y-118702544I-1525000J0D01*
G01*
X272502109Y-118702544D02*
G75*
G02*
X275552109Y-118702544I1525000J0D01*
G01*
X280552109Y-120802544D02*
G75*
G02*
X277502109Y-120802544I-1525000J0D01*
G01*
X277502109Y-120802544D02*
G75*
G02*
X280552109Y-120802544I1525000J0D01*
G01*
D41*
X280477109Y-124602544D02*
G75*
G02*
X278577109Y-124602544I-950000J0D01*
G01*
X278577109Y-124602544D02*
G75*
G02*
X280477109Y-124602544I950000J0D01*
G01*
X231377109Y-124602544D02*
G75*
G02*
X229477109Y-124602544I-950000J0D01*
G01*
X229477109Y-124602544D02*
G75*
G02*
X231377109Y-124602544I950000J0D01*
G01*
D42*
X237452109Y-118702544D02*
G75*
G02*
X234402109Y-118702544I-1525000J0D01*
G01*
X234402109Y-118702544D02*
G75*
G02*
X237452109Y-118702544I1525000J0D01*
G01*
X242452109Y-120802544D02*
G75*
G02*
X239402109Y-120802544I-1525000J0D01*
G01*
X239402109Y-120802544D02*
G75*
G02*
X242452109Y-120802544I1525000J0D01*
G01*
D41*
X242377109Y-124602544D02*
G75*
G02*
X240477109Y-124602544I-950000J0D01*
G01*
X240477109Y-124602544D02*
G75*
G02*
X242377109Y-124602544I950000J0D01*
G01*
X250427109Y-103552544D02*
G75*
G02*
X248527109Y-103552544I-950000J0D01*
G01*
X248527109Y-103552544D02*
G75*
G02*
X250427109Y-103552544I950000J0D01*
G01*
D42*
X256502109Y-97652544D02*
G75*
G02*
X253452109Y-97652544I-1525000J0D01*
G01*
X253452109Y-97652544D02*
G75*
G02*
X256502109Y-97652544I1525000J0D01*
G01*
X261502109Y-99752544D02*
G75*
G02*
X258452109Y-99752544I-1525000J0D01*
G01*
X258452109Y-99752544D02*
G75*
G02*
X261502109Y-99752544I1525000J0D01*
G01*
D41*
X261427109Y-103552544D02*
G75*
G02*
X259527109Y-103552544I-950000J0D01*
G01*
X259527109Y-103552544D02*
G75*
G02*
X261427109Y-103552544I950000J0D01*
G01*
D43*
X253077109Y-88282544D02*
X253077109Y-90882544D01*
X253277109Y-91082544D02*
X256677109Y-91082544D01*
X256677109Y-88082544D02*
X253277109Y-88082544D01*
X256877109Y-90882544D02*
X256877109Y-88282544D01*
X253077109Y-88282544D02*
G75*
G02*
X253277109Y-88082544I200000J0D01*
G01*
X253277109Y-91082544D02*
G75*
G02*
X253077109Y-90882544I0J200000D01*
G01*
X256677109Y-88082544D02*
G75*
G02*
X256877109Y-88282544I-1J-200001D01*
G01*
X256877109Y-90882544D02*
G75*
G02*
X256677109Y-91082544I-200001J1D01*
G01*
X224502109Y-169482544D02*
X224502109Y-172082544D01*
X224702109Y-172282544D02*
X228102109Y-172282544D01*
X228102109Y-169282544D02*
X224702109Y-169282544D01*
X228302109Y-172082544D02*
X228302109Y-169482544D01*
X224502109Y-169482544D02*
G75*
G02*
X224702109Y-169282544I200000J0D01*
G01*
X224702109Y-172282544D02*
G75*
G02*
X224502109Y-172082544I0J200000D01*
G01*
X228102109Y-169282544D02*
G75*
G02*
X228302109Y-169482544I-1J-200001D01*
G01*
X228302109Y-172082544D02*
G75*
G02*
X228102109Y-172282544I-200001J1D01*
G01*
X214977109Y-93282544D02*
X214977109Y-95882544D01*
X215177109Y-96082544D02*
X218577109Y-96082544D01*
X218577109Y-93082544D02*
X215177109Y-93082544D01*
X218777109Y-95882544D02*
X218777109Y-93282544D01*
X214977109Y-93282544D02*
G75*
G02*
X215177109Y-93082544I200000J0D01*
G01*
X215177109Y-96082544D02*
G75*
G02*
X214977109Y-95882544I0J200000D01*
G01*
X218577109Y-93082544D02*
G75*
G02*
X218777109Y-93282544I-1J-200001D01*
G01*
X218777109Y-95882544D02*
G75*
G02*
X218577109Y-96082544I-200001J1D01*
G01*
X310227109Y-155432544D02*
X310227109Y-158032544D01*
X310427109Y-158232544D02*
X313827109Y-158232544D01*
X313827109Y-155232544D02*
X310427109Y-155232544D01*
X314027109Y-158032544D02*
X314027109Y-155432544D01*
X310227109Y-155432544D02*
G75*
G02*
X310427109Y-155232544I200000J0D01*
G01*
X310427109Y-158232544D02*
G75*
G02*
X310227109Y-158032544I0J200000D01*
G01*
X313827109Y-155232544D02*
G75*
G02*
X314027109Y-155432544I-1J-200001D01*
G01*
X314027109Y-158032544D02*
G75*
G02*
X313827109Y-158232544I-200001J1D01*
G01*
X253077109Y-145432544D02*
X253077109Y-148032544D01*
X253277109Y-148232544D02*
X256677109Y-148232544D01*
X256677109Y-145232544D02*
X253277109Y-145232544D01*
X256877109Y-148032544D02*
X256877109Y-145432544D01*
X253077109Y-145432544D02*
G75*
G02*
X253277109Y-145232544I200000J0D01*
G01*
X253277109Y-148232544D02*
G75*
G02*
X253077109Y-148032544I0J200000D01*
G01*
X256677109Y-145232544D02*
G75*
G02*
X256877109Y-145432544I-1J-200001D01*
G01*
X256877109Y-148032544D02*
G75*
G02*
X256677109Y-148232544I-200001J1D01*
G01*
X234027109Y-109332544D02*
X234027109Y-111932544D01*
X234227109Y-112132544D02*
X237627109Y-112132544D01*
X237627109Y-109132544D02*
X234227109Y-109132544D01*
X237827109Y-111932544D02*
X237827109Y-109332544D01*
X234027109Y-109332544D02*
G75*
G02*
X234227109Y-109132544I200000J0D01*
G01*
X234227109Y-112132544D02*
G75*
G02*
X234027109Y-111932544I0J200000D01*
G01*
X237627109Y-109132544D02*
G75*
G02*
X237827109Y-109332544I-1J-200001D01*
G01*
X237827109Y-111932544D02*
G75*
G02*
X237627109Y-112132544I-200001J1D01*
G01*
X310227109Y-98282544D02*
X310227109Y-100882544D01*
X310427109Y-101082544D02*
X313827109Y-101082544D01*
X313827109Y-98082544D02*
X310427109Y-98082544D01*
X314027109Y-100882544D02*
X314027109Y-98282544D01*
X310227109Y-98282544D02*
G75*
G02*
X310427109Y-98082544I200000J0D01*
G01*
X310427109Y-101082544D02*
G75*
G02*
X310227109Y-100882544I0J200000D01*
G01*
X313827109Y-98082544D02*
G75*
G02*
X314027109Y-98282544I-1J-200001D01*
G01*
X314027109Y-100882544D02*
G75*
G02*
X313827109Y-101082544I-200001J1D01*
G01*
D42*
X206527109Y-117402544D02*
G75*
G02*
X204127109Y-117402544I-1200000J0D01*
G01*
X204127109Y-117402544D02*
G75*
G02*
X206527109Y-117402544I1200000J0D01*
G01*
D43*
X272127109Y-128382544D02*
X272127109Y-130982544D01*
X272327109Y-131182544D02*
X275727109Y-131182544D01*
X275727109Y-128182544D02*
X272327109Y-128182544D01*
X275927109Y-130982544D02*
X275927109Y-128382544D01*
X272127109Y-128382544D02*
G75*
G02*
X272327109Y-128182544I200000J0D01*
G01*
X272327109Y-131182544D02*
G75*
G02*
X272127109Y-130982544I0J200000D01*
G01*
X275727109Y-128182544D02*
G75*
G02*
X275927109Y-128382544I-1J-200001D01*
G01*
X275927109Y-130982544D02*
G75*
G02*
X275727109Y-131182544I-200001J1D01*
G01*
X253077109Y-107332544D02*
X253077109Y-109932544D01*
X253277109Y-110132544D02*
X256677109Y-110132544D01*
X256677109Y-107132544D02*
X253277109Y-107132544D01*
X256877109Y-109932544D02*
X256877109Y-107332544D01*
X253077109Y-107332544D02*
G75*
G02*
X253277109Y-107132544I200000J0D01*
G01*
X253277109Y-110132544D02*
G75*
G02*
X253077109Y-109932544I0J200000D01*
G01*
X256677109Y-107132544D02*
G75*
G02*
X256877109Y-107332544I-1J-200001D01*
G01*
X256877109Y-109932544D02*
G75*
G02*
X256677109Y-110132544I-200001J1D01*
G01*
X291177109Y-95282544D02*
X291177109Y-97882544D01*
X291377109Y-98082544D02*
X294777109Y-98082544D01*
X294777109Y-95082544D02*
X291377109Y-95082544D01*
X294977109Y-97882544D02*
X294977109Y-95282544D01*
X291177109Y-95282544D02*
G75*
G02*
X291377109Y-95082544I200000J0D01*
G01*
X291377109Y-98082544D02*
G75*
G02*
X291177109Y-97882544I0J200000D01*
G01*
X294777109Y-95082544D02*
G75*
G02*
X294977109Y-95282544I-1J-200001D01*
G01*
X294977109Y-97882544D02*
G75*
G02*
X294777109Y-98082544I-200001J1D01*
G01*
X214977109Y-131382544D02*
X214977109Y-133982544D01*
X215177109Y-134182544D02*
X218577109Y-134182544D01*
X218577109Y-131182544D02*
X215177109Y-131182544D01*
X218777109Y-133982544D02*
X218777109Y-131382544D01*
X214977109Y-131382544D02*
G75*
G02*
X215177109Y-131182544I200000J0D01*
G01*
X215177109Y-134182544D02*
G75*
G02*
X214977109Y-133982544I0J200000D01*
G01*
X218577109Y-131182544D02*
G75*
G02*
X218777109Y-131382544I-1J-200001D01*
G01*
X218777109Y-133982544D02*
G75*
G02*
X218577109Y-134182544I-200001J1D01*
G01*
X310227109Y-136382544D02*
X310227109Y-138982544D01*
X310427109Y-139182544D02*
X313827109Y-139182544D01*
X313827109Y-136182544D02*
X310427109Y-136182544D01*
X314027109Y-138982544D02*
X314027109Y-136382544D01*
X310227109Y-136382544D02*
G75*
G02*
X310427109Y-136182544I200000J0D01*
G01*
X310427109Y-139182544D02*
G75*
G02*
X310227109Y-138982544I0J200000D01*
G01*
X313827109Y-136182544D02*
G75*
G02*
X314027109Y-136382544I-1J-200001D01*
G01*
X314027109Y-138982544D02*
G75*
G02*
X313827109Y-139182544I-200001J1D01*
G01*
X291177109Y-133382544D02*
X291177109Y-135982544D01*
X291377109Y-136182544D02*
X294777109Y-136182544D01*
X294777109Y-133182544D02*
X291377109Y-133182544D01*
X294977109Y-135982544D02*
X294977109Y-133382544D01*
X291177109Y-133382544D02*
G75*
G02*
X291377109Y-133182544I200000J0D01*
G01*
X291377109Y-136182544D02*
G75*
G02*
X291177109Y-135982544I0J200000D01*
G01*
X294777109Y-133182544D02*
G75*
G02*
X294977109Y-133382544I-1J-200001D01*
G01*
X294977109Y-135982544D02*
G75*
G02*
X294777109Y-136182544I-200001J1D01*
G01*
X291177109Y-152432544D02*
X291177109Y-155032544D01*
X291377109Y-155232544D02*
X294777109Y-155232544D01*
X294777109Y-152232544D02*
X291377109Y-152232544D01*
X294977109Y-155032544D02*
X294977109Y-152432544D01*
X291177109Y-152432544D02*
G75*
G02*
X291377109Y-152232544I200000J0D01*
G01*
X291377109Y-155232544D02*
G75*
G02*
X291177109Y-155032544I0J200000D01*
G01*
X294777109Y-152232544D02*
G75*
G02*
X294977109Y-152432544I-1J-200001D01*
G01*
X294977109Y-155032544D02*
G75*
G02*
X294777109Y-155232544I-200001J1D01*
G01*
X194821841Y-167591141D02*
X196258743Y-170672588D01*
X196524529Y-170769326D02*
X198880929Y-169670518D01*
X197274979Y-166226548D02*
X194918579Y-167325356D01*
X198977667Y-169404733D02*
X197540765Y-166323286D01*
X194821841Y-167591141D02*
G75*
G02*
X194918579Y-167325356I181262J84523D01*
G01*
X196524529Y-170769326D02*
G75*
G02*
X196258744Y-170672587I-84523J181262D01*
G01*
X197274979Y-166226548D02*
G75*
G02*
X197540765Y-166323286I84524J-181262D01*
G01*
X198977667Y-169404733D02*
G75*
G02*
X198880929Y-169670518I-181263J-84523D01*
G01*
D41*
X288527109Y-110552544D02*
G75*
G02*
X286627109Y-110552544I-950000J0D01*
G01*
X286627109Y-110552544D02*
G75*
G02*
X288527109Y-110552544I950000J0D01*
G01*
D42*
X294602109Y-104652544D02*
G75*
G02*
X291552109Y-104652544I-1525000J0D01*
G01*
X291552109Y-104652544D02*
G75*
G02*
X294602109Y-104652544I1525000J0D01*
G01*
X299602109Y-106752544D02*
G75*
G02*
X296552109Y-106752544I-1525000J0D01*
G01*
X296552109Y-106752544D02*
G75*
G02*
X299602109Y-106752544I1525000J0D01*
G01*
D41*
X299527109Y-110552544D02*
G75*
G02*
X297627109Y-110552544I-950000J0D01*
G01*
X297627109Y-110552544D02*
G75*
G02*
X299527109Y-110552544I950000J0D01*
G01*
X269477109Y-105552544D02*
G75*
G02*
X267577109Y-105552544I-950000J0D01*
G01*
X267577109Y-105552544D02*
G75*
G02*
X269477109Y-105552544I950000J0D01*
G01*
D42*
X275552109Y-99652544D02*
G75*
G02*
X272502109Y-99652544I-1525000J0D01*
G01*
X272502109Y-99652544D02*
G75*
G02*
X275552109Y-99652544I1525000J0D01*
G01*
X280552109Y-101752544D02*
G75*
G02*
X277502109Y-101752544I-1525000J0D01*
G01*
X277502109Y-101752544D02*
G75*
G02*
X280552109Y-101752544I1525000J0D01*
G01*
D41*
X280477109Y-105552544D02*
G75*
G02*
X278577109Y-105552544I-950000J0D01*
G01*
X278577109Y-105552544D02*
G75*
G02*
X280477109Y-105552544I950000J0D01*
G01*
D43*
X214977109Y-150432544D02*
X214977109Y-153032544D01*
X215177109Y-153232544D02*
X218577109Y-153232544D01*
X218577109Y-150232544D02*
X215177109Y-150232544D01*
X218777109Y-153032544D02*
X218777109Y-150432544D01*
X214977109Y-150432544D02*
G75*
G02*
X215177109Y-150232544I200000J0D01*
G01*
X215177109Y-153232544D02*
G75*
G02*
X214977109Y-153032544I0J200000D01*
G01*
X218577109Y-150232544D02*
G75*
G02*
X218777109Y-150432544I-1J-200001D01*
G01*
X218777109Y-153032544D02*
G75*
G02*
X218577109Y-153232544I-200001J1D01*
G01*
X214977109Y-112332544D02*
X214977109Y-114932544D01*
X215177109Y-115132544D02*
X218577109Y-115132544D01*
X218577109Y-112132544D02*
X215177109Y-112132544D01*
X218777109Y-114932544D02*
X218777109Y-112332544D01*
X214977109Y-112332544D02*
G75*
G02*
X215177109Y-112132544I200000J0D01*
G01*
X215177109Y-115132544D02*
G75*
G02*
X214977109Y-114932544I0J200000D01*
G01*
X218577109Y-112132544D02*
G75*
G02*
X218777109Y-112332544I-1J-200001D01*
G01*
X218777109Y-114932544D02*
G75*
G02*
X218577109Y-115132544I-200001J1D01*
G01*
X234027109Y-128382544D02*
X234027109Y-130982544D01*
X234227109Y-131182544D02*
X237627109Y-131182544D01*
X237627109Y-128182544D02*
X234227109Y-128182544D01*
X237827109Y-130982544D02*
X237827109Y-128382544D01*
X234027109Y-128382544D02*
G75*
G02*
X234227109Y-128182544I200000J0D01*
G01*
X234227109Y-131182544D02*
G75*
G02*
X234027109Y-130982544I0J200000D01*
G01*
X237627109Y-128182544D02*
G75*
G02*
X237827109Y-128382544I-1J-200001D01*
G01*
X237827109Y-130982544D02*
G75*
G02*
X237627109Y-131182544I-200001J1D01*
G01*
X262602109Y-166482544D02*
X262602109Y-169082544D01*
X262802109Y-169282544D02*
X266202109Y-169282544D01*
X266202109Y-166282544D02*
X262802109Y-166282544D01*
X266402109Y-169082544D02*
X266402109Y-166482544D01*
X262602109Y-166482544D02*
G75*
G02*
X262802109Y-166282544I200000J0D01*
G01*
X262802109Y-169282544D02*
G75*
G02*
X262602109Y-169082544I0J200000D01*
G01*
X266202109Y-166282544D02*
G75*
G02*
X266402109Y-166482544I-1J-200001D01*
G01*
X266402109Y-169082544D02*
G75*
G02*
X266202109Y-169282544I-200001J1D01*
G01*
X310227109Y-117332544D02*
X310227109Y-119932544D01*
X310427109Y-120132544D02*
X313827109Y-120132544D01*
X313827109Y-117132544D02*
X310427109Y-117132544D01*
X314027109Y-119932544D02*
X314027109Y-117332544D01*
X310227109Y-117332544D02*
G75*
G02*
X310427109Y-117132544I200000J0D01*
G01*
X310427109Y-120132544D02*
G75*
G02*
X310227109Y-119932544I0J200000D01*
G01*
X313827109Y-117132544D02*
G75*
G02*
X314027109Y-117332544I-1J-200001D01*
G01*
X314027109Y-119932544D02*
G75*
G02*
X313827109Y-120132544I-200001J1D01*
G01*
X243552109Y-166482544D02*
X243552109Y-169082544D01*
X243752109Y-169282544D02*
X247152109Y-169282544D01*
X247152109Y-166282544D02*
X243752109Y-166282544D01*
X247352109Y-169082544D02*
X247352109Y-166482544D01*
X243552109Y-166482544D02*
G75*
G02*
X243752109Y-166282544I200000J0D01*
G01*
X243752109Y-169282544D02*
G75*
G02*
X243552109Y-169082544I0J200000D01*
G01*
X247152109Y-166282544D02*
G75*
G02*
X247352109Y-166482544I-1J-200001D01*
G01*
X247352109Y-169082544D02*
G75*
G02*
X247152109Y-169282544I-200001J1D01*
G01*
X291177109Y-114332544D02*
X291177109Y-116932544D01*
X291377109Y-117132544D02*
X294777109Y-117132544D01*
X294777109Y-114132544D02*
X291377109Y-114132544D01*
X294977109Y-116932544D02*
X294977109Y-114332544D01*
X291177109Y-114332544D02*
G75*
G02*
X291377109Y-114132544I200000J0D01*
G01*
X291377109Y-117132544D02*
G75*
G02*
X291177109Y-116932544I0J200000D01*
G01*
X294777109Y-114132544D02*
G75*
G02*
X294977109Y-114332544I-1J-200001D01*
G01*
X294977109Y-116932544D02*
G75*
G02*
X294777109Y-117132544I-200001J1D01*
G01*
X234027109Y-147432544D02*
X234027109Y-150032544D01*
X234227109Y-150232544D02*
X237627109Y-150232544D01*
X237627109Y-147232544D02*
X234227109Y-147232544D01*
X237827109Y-150032544D02*
X237827109Y-147432544D01*
X234027109Y-147432544D02*
G75*
G02*
X234227109Y-147232544I200000J0D01*
G01*
X234227109Y-150232544D02*
G75*
G02*
X234027109Y-150032544I0J200000D01*
G01*
X237627109Y-147232544D02*
G75*
G02*
X237827109Y-147432544I-1J-200001D01*
G01*
X237827109Y-150032544D02*
G75*
G02*
X237627109Y-150232544I-200001J1D01*
G01*
D42*
X67622196Y-171423134D02*
G75*
G02*
X63022196Y-171423134I-2300000J0D01*
G01*
X63022196Y-171423134D02*
G75*
G02*
X67622196Y-171423134I2300000J0D01*
G01*
X67622196Y-192636334D02*
G75*
G02*
X63022196Y-192636334I-2300000J0D01*
G01*
X63022196Y-192636334D02*
G75*
G02*
X67622196Y-192636334I2300000J0D01*
G01*
X73546816Y-178847754D02*
G75*
G02*
X71946816Y-178847754I-800000J0D01*
G01*
X71946816Y-178847754D02*
G75*
G02*
X73546816Y-178847754I800000J0D01*
G01*
X79910776Y-185211714D02*
G75*
G02*
X78310776Y-185211714I-800000J0D01*
G01*
X78310776Y-185211714D02*
G75*
G02*
X79910776Y-185211714I800000J0D01*
G01*
X88835396Y-171423134D02*
G75*
G02*
X84235396Y-171423134I-2300000J0D01*
G01*
X84235396Y-171423134D02*
G75*
G02*
X88835396Y-171423134I2300000J0D01*
G01*
X88835396Y-192636334D02*
G75*
G02*
X84235396Y-192636334I-2300000J0D01*
G01*
X84235396Y-192636334D02*
G75*
G02*
X88835396Y-192636334I2300000J0D01*
G01*
D41*
X70451607Y-149102544D02*
G75*
G02*
X68551607Y-149102544I-950000J0D01*
G01*
X68551607Y-149102544D02*
G75*
G02*
X70451607Y-149102544I950000J0D01*
G01*
D42*
X76526607Y-143202544D02*
G75*
G02*
X73476607Y-143202544I-1525000J0D01*
G01*
X73476607Y-143202544D02*
G75*
G02*
X76526607Y-143202544I1525000J0D01*
G01*
X81526607Y-145302544D02*
G75*
G02*
X78476607Y-145302544I-1525000J0D01*
G01*
X78476607Y-145302544D02*
G75*
G02*
X81526607Y-145302544I1525000J0D01*
G01*
D41*
X81451607Y-149102544D02*
G75*
G02*
X79551607Y-149102544I-950000J0D01*
G01*
X79551607Y-149102544D02*
G75*
G02*
X81451607Y-149102544I950000J0D01*
G01*
X99026607Y-163152544D02*
G75*
G02*
X97126607Y-163152544I-950000J0D01*
G01*
X97126607Y-163152544D02*
G75*
G02*
X99026607Y-163152544I950000J0D01*
G01*
D42*
X105101607Y-157252544D02*
G75*
G02*
X102051607Y-157252544I-1525000J0D01*
G01*
X102051607Y-157252544D02*
G75*
G02*
X105101607Y-157252544I1525000J0D01*
G01*
X110101607Y-159352544D02*
G75*
G02*
X107051607Y-159352544I-1525000J0D01*
G01*
X107051607Y-159352544D02*
G75*
G02*
X110101607Y-159352544I1525000J0D01*
G01*
D41*
X110026607Y-163152544D02*
G75*
G02*
X108126607Y-163152544I-950000J0D01*
G01*
X108126607Y-163152544D02*
G75*
G02*
X110026607Y-163152544I950000J0D01*
G01*
X146651607Y-147102544D02*
G75*
G02*
X144751607Y-147102544I-950000J0D01*
G01*
X144751607Y-147102544D02*
G75*
G02*
X146651607Y-147102544I950000J0D01*
G01*
D42*
X152726607Y-141202544D02*
G75*
G02*
X149676607Y-141202544I-1525000J0D01*
G01*
X149676607Y-141202544D02*
G75*
G02*
X152726607Y-141202544I1525000J0D01*
G01*
X157726607Y-143302544D02*
G75*
G02*
X154676607Y-143302544I-1525000J0D01*
G01*
X154676607Y-143302544D02*
G75*
G02*
X157726607Y-143302544I1525000J0D01*
G01*
D41*
X157651607Y-147102544D02*
G75*
G02*
X155751607Y-147102544I-950000J0D01*
G01*
X155751607Y-147102544D02*
G75*
G02*
X157651607Y-147102544I950000J0D01*
G01*
X89501607Y-106002544D02*
G75*
G02*
X87601607Y-106002544I-950000J0D01*
G01*
X87601607Y-106002544D02*
G75*
G02*
X89501607Y-106002544I950000J0D01*
G01*
D42*
X95576607Y-100102544D02*
G75*
G02*
X92526607Y-100102544I-1525000J0D01*
G01*
X92526607Y-100102544D02*
G75*
G02*
X95576607Y-100102544I1525000J0D01*
G01*
X100576607Y-102202544D02*
G75*
G02*
X97526607Y-102202544I-1525000J0D01*
G01*
X97526607Y-102202544D02*
G75*
G02*
X100576607Y-102202544I1525000J0D01*
G01*
D41*
X100501607Y-106002544D02*
G75*
G02*
X98601607Y-106002544I-950000J0D01*
G01*
X98601607Y-106002544D02*
G75*
G02*
X100501607Y-106002544I950000J0D01*
G01*
X108551607Y-142102544D02*
G75*
G02*
X106651607Y-142102544I-950000J0D01*
G01*
X106651607Y-142102544D02*
G75*
G02*
X108551607Y-142102544I950000J0D01*
G01*
D42*
X114626607Y-136202544D02*
G75*
G02*
X111576607Y-136202544I-1525000J0D01*
G01*
X111576607Y-136202544D02*
G75*
G02*
X114626607Y-136202544I1525000J0D01*
G01*
X119626607Y-138302544D02*
G75*
G02*
X116576607Y-138302544I-1525000J0D01*
G01*
X116576607Y-138302544D02*
G75*
G02*
X119626607Y-138302544I1525000J0D01*
G01*
D41*
X119551607Y-142102544D02*
G75*
G02*
X117651607Y-142102544I-950000J0D01*
G01*
X117651607Y-142102544D02*
G75*
G02*
X119551607Y-142102544I950000J0D01*
G01*
X51401607Y-94952544D02*
G75*
G02*
X49501607Y-94952544I-950000J0D01*
G01*
X49501607Y-94952544D02*
G75*
G02*
X51401607Y-94952544I950000J0D01*
G01*
D42*
X57476607Y-89052544D02*
G75*
G02*
X54426607Y-89052544I-1525000J0D01*
G01*
X54426607Y-89052544D02*
G75*
G02*
X57476607Y-89052544I1525000J0D01*
G01*
X62476607Y-91152544D02*
G75*
G02*
X59426607Y-91152544I-1525000J0D01*
G01*
X59426607Y-91152544D02*
G75*
G02*
X62476607Y-91152544I1525000J0D01*
G01*
D41*
X62401607Y-94952544D02*
G75*
G02*
X60501607Y-94952544I-950000J0D01*
G01*
X60501607Y-94952544D02*
G75*
G02*
X62401607Y-94952544I950000J0D01*
G01*
X89501607Y-86952544D02*
G75*
G02*
X87601607Y-86952544I-950000J0D01*
G01*
X87601607Y-86952544D02*
G75*
G02*
X89501607Y-86952544I950000J0D01*
G01*
D42*
X95576607Y-81052544D02*
G75*
G02*
X92526607Y-81052544I-1525000J0D01*
G01*
X92526607Y-81052544D02*
G75*
G02*
X95576607Y-81052544I1525000J0D01*
G01*
X100576607Y-83152544D02*
G75*
G02*
X97526607Y-83152544I-1525000J0D01*
G01*
X97526607Y-83152544D02*
G75*
G02*
X100576607Y-83152544I1525000J0D01*
G01*
D41*
X100501607Y-86952544D02*
G75*
G02*
X98601607Y-86952544I-950000J0D01*
G01*
X98601607Y-86952544D02*
G75*
G02*
X100501607Y-86952544I950000J0D01*
G01*
X118076607Y-163152544D02*
G75*
G02*
X116176607Y-163152544I-950000J0D01*
G01*
X116176607Y-163152544D02*
G75*
G02*
X118076607Y-163152544I950000J0D01*
G01*
D42*
X124151607Y-157252544D02*
G75*
G02*
X121101607Y-157252544I-1525000J0D01*
G01*
X121101607Y-157252544D02*
G75*
G02*
X124151607Y-157252544I1525000J0D01*
G01*
X129151607Y-159352544D02*
G75*
G02*
X126101607Y-159352544I-1525000J0D01*
G01*
X126101607Y-159352544D02*
G75*
G02*
X129151607Y-159352544I1525000J0D01*
G01*
D41*
X129076607Y-163152544D02*
G75*
G02*
X127176607Y-163152544I-950000J0D01*
G01*
X127176607Y-163152544D02*
G75*
G02*
X129076607Y-163152544I950000J0D01*
G01*
X51401607Y-152102544D02*
G75*
G02*
X49501607Y-152102544I-950000J0D01*
G01*
X49501607Y-152102544D02*
G75*
G02*
X51401607Y-152102544I950000J0D01*
G01*
D42*
X57476607Y-146202544D02*
G75*
G02*
X54426607Y-146202544I-1525000J0D01*
G01*
X54426607Y-146202544D02*
G75*
G02*
X57476607Y-146202544I1525000J0D01*
G01*
X62476607Y-148302544D02*
G75*
G02*
X59426607Y-148302544I-1525000J0D01*
G01*
X59426607Y-148302544D02*
G75*
G02*
X62476607Y-148302544I1525000J0D01*
G01*
D41*
X62401607Y-152102544D02*
G75*
G02*
X60501607Y-152102544I-950000J0D01*
G01*
X60501607Y-152102544D02*
G75*
G02*
X62401607Y-152102544I950000J0D01*
G01*
X127601607Y-144102544D02*
G75*
G02*
X125701607Y-144102544I-950000J0D01*
G01*
X125701607Y-144102544D02*
G75*
G02*
X127601607Y-144102544I950000J0D01*
G01*
D42*
X133676607Y-138202544D02*
G75*
G02*
X130626607Y-138202544I-1525000J0D01*
G01*
X130626607Y-138202544D02*
G75*
G02*
X133676607Y-138202544I1525000J0D01*
G01*
X138676607Y-140302544D02*
G75*
G02*
X135626607Y-140302544I-1525000J0D01*
G01*
X135626607Y-140302544D02*
G75*
G02*
X138676607Y-140302544I1525000J0D01*
G01*
D41*
X138601607Y-144102544D02*
G75*
G02*
X136701607Y-144102544I-950000J0D01*
G01*
X136701607Y-144102544D02*
G75*
G02*
X138601607Y-144102544I950000J0D01*
G01*
X127601607Y-86952544D02*
G75*
G02*
X125701607Y-86952544I-950000J0D01*
G01*
X125701607Y-86952544D02*
G75*
G02*
X127601607Y-86952544I950000J0D01*
G01*
D42*
X133676607Y-81052544D02*
G75*
G02*
X130626607Y-81052544I-1525000J0D01*
G01*
X130626607Y-81052544D02*
G75*
G02*
X133676607Y-81052544I1525000J0D01*
G01*
X138676607Y-83152544D02*
G75*
G02*
X135626607Y-83152544I-1525000J0D01*
G01*
X135626607Y-83152544D02*
G75*
G02*
X138676607Y-83152544I1525000J0D01*
G01*
D41*
X138601607Y-86952544D02*
G75*
G02*
X136701607Y-86952544I-950000J0D01*
G01*
X136701607Y-86952544D02*
G75*
G02*
X138601607Y-86952544I950000J0D01*
G01*
X127601607Y-106002544D02*
G75*
G02*
X125701607Y-106002544I-950000J0D01*
G01*
X125701607Y-106002544D02*
G75*
G02*
X127601607Y-106002544I950000J0D01*
G01*
D42*
X133676607Y-100102544D02*
G75*
G02*
X130626607Y-100102544I-1525000J0D01*
G01*
X130626607Y-100102544D02*
G75*
G02*
X133676607Y-100102544I1525000J0D01*
G01*
X138676607Y-102202544D02*
G75*
G02*
X135626607Y-102202544I-1525000J0D01*
G01*
X135626607Y-102202544D02*
G75*
G02*
X138676607Y-102202544I1525000J0D01*
G01*
D41*
X138601607Y-106002544D02*
G75*
G02*
X136701607Y-106002544I-950000J0D01*
G01*
X136701607Y-106002544D02*
G75*
G02*
X138601607Y-106002544I950000J0D01*
G01*
X70451607Y-130052544D02*
G75*
G02*
X68551607Y-130052544I-950000J0D01*
G01*
X68551607Y-130052544D02*
G75*
G02*
X70451607Y-130052544I950000J0D01*
G01*
D42*
X76526607Y-124152544D02*
G75*
G02*
X73476607Y-124152544I-1525000J0D01*
G01*
X73476607Y-124152544D02*
G75*
G02*
X76526607Y-124152544I1525000J0D01*
G01*
X81526607Y-126252544D02*
G75*
G02*
X78476607Y-126252544I-1525000J0D01*
G01*
X78476607Y-126252544D02*
G75*
G02*
X81526607Y-126252544I1525000J0D01*
G01*
D41*
X81451607Y-130052544D02*
G75*
G02*
X79551607Y-130052544I-950000J0D01*
G01*
X79551607Y-130052544D02*
G75*
G02*
X81451607Y-130052544I950000J0D01*
G01*
D42*
X162752702Y-164307589D02*
G75*
G02*
X159702702Y-164307589I-1525000J0D01*
G01*
X159702702Y-164307589D02*
G75*
G02*
X162752702Y-164307589I1525000J0D01*
G01*
D41*
X165200518Y-171785730D02*
G75*
G02*
X163300518Y-171785730I-950000J0D01*
G01*
X163300518Y-171785730D02*
G75*
G02*
X165200518Y-171785730I950000J0D01*
G01*
D42*
X166769041Y-160663549D02*
G75*
G02*
X163719039Y-160663549I-1525001J0D01*
G01*
X163719039Y-160663549D02*
G75*
G02*
X166769041Y-160663549I1525001J0D01*
G01*
D41*
X169849318Y-161816344D02*
G75*
G02*
X167949318Y-161816344I-950000J0D01*
G01*
X167949318Y-161816344D02*
G75*
G02*
X169849318Y-161816344I950000J0D01*
G01*
X146651607Y-89952544D02*
G75*
G02*
X144751607Y-89952544I-950000J0D01*
G01*
X144751607Y-89952544D02*
G75*
G02*
X146651607Y-89952544I950000J0D01*
G01*
D42*
X152726607Y-84052544D02*
G75*
G02*
X149676607Y-84052544I-1525000J0D01*
G01*
X149676607Y-84052544D02*
G75*
G02*
X152726607Y-84052544I1525000J0D01*
G01*
X157726607Y-86152544D02*
G75*
G02*
X154676607Y-86152544I-1525000J0D01*
G01*
X154676607Y-86152544D02*
G75*
G02*
X157726607Y-86152544I1525000J0D01*
G01*
D41*
X157651607Y-89952544D02*
G75*
G02*
X155751607Y-89952544I-950000J0D01*
G01*
X155751607Y-89952544D02*
G75*
G02*
X157651607Y-89952544I950000J0D01*
G01*
X89501607Y-125052544D02*
G75*
G02*
X87601607Y-125052544I-950000J0D01*
G01*
X87601607Y-125052544D02*
G75*
G02*
X89501607Y-125052544I950000J0D01*
G01*
D42*
X95576607Y-119152544D02*
G75*
G02*
X92526607Y-119152544I-1525000J0D01*
G01*
X92526607Y-119152544D02*
G75*
G02*
X95576607Y-119152544I1525000J0D01*
G01*
X100576607Y-121252544D02*
G75*
G02*
X97526607Y-121252544I-1525000J0D01*
G01*
X97526607Y-121252544D02*
G75*
G02*
X100576607Y-121252544I1525000J0D01*
G01*
D41*
X100501607Y-125052544D02*
G75*
G02*
X98601607Y-125052544I-950000J0D01*
G01*
X98601607Y-125052544D02*
G75*
G02*
X100501607Y-125052544I950000J0D01*
G01*
X165701607Y-137577544D02*
G75*
G02*
X163801607Y-137577544I-950000J0D01*
G01*
X163801607Y-137577544D02*
G75*
G02*
X165701607Y-137577544I950000J0D01*
G01*
D42*
X171776607Y-131677544D02*
G75*
G02*
X168726607Y-131677544I-1525000J0D01*
G01*
X168726607Y-131677544D02*
G75*
G02*
X171776607Y-131677544I1525000J0D01*
G01*
X176776607Y-133777544D02*
G75*
G02*
X173726607Y-133777544I-1525000J0D01*
G01*
X173726607Y-133777544D02*
G75*
G02*
X176776607Y-133777544I1525000J0D01*
G01*
D41*
X176701607Y-137577544D02*
G75*
G02*
X174801607Y-137577544I-950000J0D01*
G01*
X174801607Y-137577544D02*
G75*
G02*
X176701607Y-137577544I950000J0D01*
G01*
X146651607Y-109002544D02*
G75*
G02*
X144751607Y-109002544I-950000J0D01*
G01*
X144751607Y-109002544D02*
G75*
G02*
X146651607Y-109002544I950000J0D01*
G01*
D42*
X152726607Y-103102544D02*
G75*
G02*
X149676607Y-103102544I-1525000J0D01*
G01*
X149676607Y-103102544D02*
G75*
G02*
X152726607Y-103102544I1525000J0D01*
G01*
X157726607Y-105202544D02*
G75*
G02*
X154676607Y-105202544I-1525000J0D01*
G01*
X154676607Y-105202544D02*
G75*
G02*
X157726607Y-105202544I1525000J0D01*
G01*
D41*
X157651607Y-109002544D02*
G75*
G02*
X155751607Y-109002544I-950000J0D01*
G01*
X155751607Y-109002544D02*
G75*
G02*
X157651607Y-109002544I950000J0D01*
G01*
D42*
X167226607Y-137796194D02*
X173226607Y-137796194D01*
X173226607Y-139796194D01*
X167226607Y-139796194D01*
X167226607Y-137796194D01*
D40*
X163951607Y-124521684D02*
G75*
G02*
X161751607Y-124521684I-1100000J0D01*
G01*
X161751607Y-124521684D02*
G75*
G02*
X163951607Y-124521684I1100000J0D01*
G01*
X163951607Y-148270704D02*
G75*
G02*
X161751607Y-148270704I-1100000J0D01*
G01*
X161751607Y-148270704D02*
G75*
G02*
X163951607Y-148270704I1100000J0D01*
G01*
D41*
X51401607Y-133052544D02*
G75*
G02*
X49501607Y-133052544I-950000J0D01*
G01*
X49501607Y-133052544D02*
G75*
G02*
X51401607Y-133052544I950000J0D01*
G01*
D42*
X57476607Y-127152544D02*
G75*
G02*
X54426607Y-127152544I-1525000J0D01*
G01*
X54426607Y-127152544D02*
G75*
G02*
X57476607Y-127152544I1525000J0D01*
G01*
X62476607Y-129252544D02*
G75*
G02*
X59426607Y-129252544I-1525000J0D01*
G01*
X59426607Y-129252544D02*
G75*
G02*
X62476607Y-129252544I1525000J0D01*
G01*
D41*
X62401607Y-133052544D02*
G75*
G02*
X60501607Y-133052544I-950000J0D01*
G01*
X60501607Y-133052544D02*
G75*
G02*
X62401607Y-133052544I950000J0D01*
G01*
X146651607Y-128052544D02*
G75*
G02*
X144751607Y-128052544I-950000J0D01*
G01*
X144751607Y-128052544D02*
G75*
G02*
X146651607Y-128052544I950000J0D01*
G01*
D42*
X152726607Y-122152544D02*
G75*
G02*
X149676607Y-122152544I-1525000J0D01*
G01*
X149676607Y-122152544D02*
G75*
G02*
X152726607Y-122152544I1525000J0D01*
G01*
X157726607Y-124252544D02*
G75*
G02*
X154676607Y-124252544I-1525000J0D01*
G01*
X154676607Y-124252544D02*
G75*
G02*
X157726607Y-124252544I1525000J0D01*
G01*
D41*
X157651607Y-128052544D02*
G75*
G02*
X155751607Y-128052544I-950000J0D01*
G01*
X155751607Y-128052544D02*
G75*
G02*
X157651607Y-128052544I950000J0D01*
G01*
X108551607Y-84952544D02*
G75*
G02*
X106651607Y-84952544I-950000J0D01*
G01*
X106651607Y-84952544D02*
G75*
G02*
X108551607Y-84952544I950000J0D01*
G01*
D42*
X114626607Y-79052544D02*
G75*
G02*
X111576607Y-79052544I-1525000J0D01*
G01*
X111576607Y-79052544D02*
G75*
G02*
X114626607Y-79052544I1525000J0D01*
G01*
X119626607Y-81152544D02*
G75*
G02*
X116576607Y-81152544I-1525000J0D01*
G01*
X116576607Y-81152544D02*
G75*
G02*
X119626607Y-81152544I1525000J0D01*
G01*
D41*
X119551607Y-84952544D02*
G75*
G02*
X117651607Y-84952544I-950000J0D01*
G01*
X117651607Y-84952544D02*
G75*
G02*
X119551607Y-84952544I950000J0D01*
G01*
D42*
X163951607Y-117852544D02*
G75*
G02*
X161551607Y-117852544I-1200000J0D01*
G01*
X161551607Y-117852544D02*
G75*
G02*
X163951607Y-117852544I1200000J0D01*
G01*
D41*
X51401607Y-114002544D02*
G75*
G02*
X49501607Y-114002544I-950000J0D01*
G01*
X49501607Y-114002544D02*
G75*
G02*
X51401607Y-114002544I950000J0D01*
G01*
D42*
X57476607Y-108102544D02*
G75*
G02*
X54426607Y-108102544I-1525000J0D01*
G01*
X54426607Y-108102544D02*
G75*
G02*
X57476607Y-108102544I1525000J0D01*
G01*
X62476607Y-110202544D02*
G75*
G02*
X59426607Y-110202544I-1525000J0D01*
G01*
X59426607Y-110202544D02*
G75*
G02*
X62476607Y-110202544I1525000J0D01*
G01*
D41*
X62401607Y-114002544D02*
G75*
G02*
X60501607Y-114002544I-950000J0D01*
G01*
X60501607Y-114002544D02*
G75*
G02*
X62401607Y-114002544I950000J0D01*
G01*
D42*
X195827109Y-137327544D02*
X199827109Y-137327544D01*
X199827109Y-139327544D01*
X195827109Y-139327544D01*
X195827109Y-137327544D01*
X192667109Y-143227544D02*
G75*
G02*
X190467109Y-143227544I-1100000J0D01*
G01*
X190467109Y-143227544D02*
G75*
G02*
X192667109Y-143227544I1100000J0D01*
G01*
X203127109Y-121227544D02*
G75*
G02*
X200927109Y-121227544I-1100000J0D01*
G01*
X200927109Y-121227544D02*
G75*
G02*
X203127109Y-121227544I1100000J0D01*
G01*
D41*
X108551607Y-123052544D02*
G75*
G02*
X106651607Y-123052544I-950000J0D01*
G01*
X106651607Y-123052544D02*
G75*
G02*
X108551607Y-123052544I950000J0D01*
G01*
D42*
X114626607Y-117152544D02*
G75*
G02*
X111576607Y-117152544I-1525000J0D01*
G01*
X111576607Y-117152544D02*
G75*
G02*
X114626607Y-117152544I1525000J0D01*
G01*
X119626607Y-119252544D02*
G75*
G02*
X116576607Y-119252544I-1525000J0D01*
G01*
X116576607Y-119252544D02*
G75*
G02*
X119626607Y-119252544I1525000J0D01*
G01*
D41*
X119551607Y-123052544D02*
G75*
G02*
X117651607Y-123052544I-950000J0D01*
G01*
X117651607Y-123052544D02*
G75*
G02*
X119551607Y-123052544I950000J0D01*
G01*
X89501607Y-144102544D02*
G75*
G02*
X87601607Y-144102544I-950000J0D01*
G01*
X87601607Y-144102544D02*
G75*
G02*
X89501607Y-144102544I950000J0D01*
G01*
D42*
X95576607Y-138202544D02*
G75*
G02*
X92526607Y-138202544I-1525000J0D01*
G01*
X92526607Y-138202544D02*
G75*
G02*
X95576607Y-138202544I1525000J0D01*
G01*
X100576607Y-140302544D02*
G75*
G02*
X97526607Y-140302544I-1525000J0D01*
G01*
X97526607Y-140302544D02*
G75*
G02*
X100576607Y-140302544I1525000J0D01*
G01*
D41*
X100501607Y-144102544D02*
G75*
G02*
X98601607Y-144102544I-950000J0D01*
G01*
X98601607Y-144102544D02*
G75*
G02*
X100501607Y-144102544I950000J0D01*
G01*
X70451607Y-111002544D02*
G75*
G02*
X68551607Y-111002544I-950000J0D01*
G01*
X68551607Y-111002544D02*
G75*
G02*
X70451607Y-111002544I950000J0D01*
G01*
D42*
X76526607Y-105102544D02*
G75*
G02*
X73476607Y-105102544I-1525000J0D01*
G01*
X73476607Y-105102544D02*
G75*
G02*
X76526607Y-105102544I1525000J0D01*
G01*
X81526607Y-107202544D02*
G75*
G02*
X78476607Y-107202544I-1525000J0D01*
G01*
X78476607Y-107202544D02*
G75*
G02*
X81526607Y-107202544I1525000J0D01*
G01*
D41*
X81451607Y-111002544D02*
G75*
G02*
X79551607Y-111002544I-950000J0D01*
G01*
X79551607Y-111002544D02*
G75*
G02*
X81451607Y-111002544I950000J0D01*
G01*
X70451607Y-91952544D02*
G75*
G02*
X68551607Y-91952544I-950000J0D01*
G01*
X68551607Y-91952544D02*
G75*
G02*
X70451607Y-91952544I950000J0D01*
G01*
D42*
X76526607Y-86052544D02*
G75*
G02*
X73476607Y-86052544I-1525000J0D01*
G01*
X73476607Y-86052544D02*
G75*
G02*
X76526607Y-86052544I1525000J0D01*
G01*
X81526607Y-88152544D02*
G75*
G02*
X78476607Y-88152544I-1525000J0D01*
G01*
X78476607Y-88152544D02*
G75*
G02*
X81526607Y-88152544I1525000J0D01*
G01*
D41*
X81451607Y-91952544D02*
G75*
G02*
X79551607Y-91952544I-950000J0D01*
G01*
X79551607Y-91952544D02*
G75*
G02*
X81451607Y-91952544I950000J0D01*
G01*
X127601607Y-125052544D02*
G75*
G02*
X125701607Y-125052544I-950000J0D01*
G01*
X125701607Y-125052544D02*
G75*
G02*
X127601607Y-125052544I950000J0D01*
G01*
D42*
X133676607Y-119152544D02*
G75*
G02*
X130626607Y-119152544I-1525000J0D01*
G01*
X130626607Y-119152544D02*
G75*
G02*
X133676607Y-119152544I1525000J0D01*
G01*
X138676607Y-121252544D02*
G75*
G02*
X135626607Y-121252544I-1525000J0D01*
G01*
X135626607Y-121252544D02*
G75*
G02*
X138676607Y-121252544I1525000J0D01*
G01*
D41*
X138601607Y-125052544D02*
G75*
G02*
X136701607Y-125052544I-950000J0D01*
G01*
X136701607Y-125052544D02*
G75*
G02*
X138601607Y-125052544I950000J0D01*
G01*
X108551607Y-104002544D02*
G75*
G02*
X106651607Y-104002544I-950000J0D01*
G01*
X106651607Y-104002544D02*
G75*
G02*
X108551607Y-104002544I950000J0D01*
G01*
D42*
X114626607Y-98102544D02*
G75*
G02*
X111576607Y-98102544I-1525000J0D01*
G01*
X111576607Y-98102544D02*
G75*
G02*
X114626607Y-98102544I1525000J0D01*
G01*
X119626607Y-100202544D02*
G75*
G02*
X116576607Y-100202544I-1525000J0D01*
G01*
X116576607Y-100202544D02*
G75*
G02*
X119626607Y-100202544I1525000J0D01*
G01*
D41*
X119551607Y-104002544D02*
G75*
G02*
X117651607Y-104002544I-950000J0D01*
G01*
X117651607Y-104002544D02*
G75*
G02*
X119551607Y-104002544I950000J0D01*
G01*
X137126607Y-166152544D02*
G75*
G02*
X135226607Y-166152544I-950000J0D01*
G01*
X135226607Y-166152544D02*
G75*
G02*
X137126607Y-166152544I950000J0D01*
G01*
D42*
X143201607Y-160252544D02*
G75*
G02*
X140151607Y-160252544I-1525000J0D01*
G01*
X140151607Y-160252544D02*
G75*
G02*
X143201607Y-160252544I1525000J0D01*
G01*
X148201607Y-162352544D02*
G75*
G02*
X145151607Y-162352544I-1525000J0D01*
G01*
X145151607Y-162352544D02*
G75*
G02*
X148201607Y-162352544I1525000J0D01*
G01*
D41*
X148126607Y-166152544D02*
G75*
G02*
X146226607Y-166152544I-950000J0D01*
G01*
X146226607Y-166152544D02*
G75*
G02*
X148126607Y-166152544I950000J0D01*
G01*
D43*
X130251607Y-128832544D02*
X130251607Y-131432544D01*
X130451607Y-131632544D02*
X133851607Y-131632544D01*
X133851607Y-128632544D02*
X130451607Y-128632544D01*
X134051607Y-131432544D02*
X134051607Y-128832544D01*
X130251607Y-128832544D02*
G75*
G02*
X130451607Y-128632544I200000J0D01*
G01*
X130451607Y-131632544D02*
G75*
G02*
X130251607Y-131432544I0J200000D01*
G01*
X133851607Y-128632544D02*
G75*
G02*
X134051607Y-128832544I-1J-200001D01*
G01*
X134051607Y-131432544D02*
G75*
G02*
X133851607Y-131632544I-200001J1D01*
G01*
X73101607Y-152882544D02*
X73101607Y-155482544D01*
X73301607Y-155682544D02*
X76701607Y-155682544D01*
X76701607Y-152682544D02*
X73301607Y-152682544D01*
X76901607Y-155482544D02*
X76901607Y-152882544D01*
X73101607Y-152882544D02*
G75*
G02*
X73301607Y-152682544I200000J0D01*
G01*
X73301607Y-155682544D02*
G75*
G02*
X73101607Y-155482544I0J200000D01*
G01*
X76701607Y-152682544D02*
G75*
G02*
X76901607Y-152882544I-1J-200001D01*
G01*
X76901607Y-155482544D02*
G75*
G02*
X76701607Y-155682544I-200001J1D01*
G01*
X101676607Y-166932544D02*
X101676607Y-169532544D01*
X101876607Y-169732544D02*
X105276607Y-169732544D01*
X105276607Y-166732544D02*
X101876607Y-166732544D01*
X105476607Y-169532544D02*
X105476607Y-166932544D01*
X101676607Y-166932544D02*
G75*
G02*
X101876607Y-166732544I200000J0D01*
G01*
X101876607Y-169732544D02*
G75*
G02*
X101676607Y-169532544I0J200000D01*
G01*
X105276607Y-166732544D02*
G75*
G02*
X105476607Y-166932544I-1J-200001D01*
G01*
X105476607Y-169532544D02*
G75*
G02*
X105276607Y-169732544I-200001J1D01*
G01*
X139776607Y-169932544D02*
X139776607Y-172532544D01*
X139976607Y-172732544D02*
X143376607Y-172732544D01*
X143376607Y-169732544D02*
X139976607Y-169732544D01*
X143576607Y-172532544D02*
X143576607Y-169932544D01*
X139776607Y-169932544D02*
G75*
G02*
X139976607Y-169732544I200000J0D01*
G01*
X139976607Y-172732544D02*
G75*
G02*
X139776607Y-172532544I0J200000D01*
G01*
X143376607Y-169732544D02*
G75*
G02*
X143576607Y-169932544I-1J-200001D01*
G01*
X143576607Y-172532544D02*
G75*
G02*
X143376607Y-172732544I-200001J1D01*
G01*
X54051607Y-136832544D02*
X54051607Y-139432544D01*
X54251607Y-139632544D02*
X57651607Y-139632544D01*
X57651607Y-136632544D02*
X54251607Y-136632544D01*
X57851607Y-139432544D02*
X57851607Y-136832544D01*
X54051607Y-136832544D02*
G75*
G02*
X54251607Y-136632544I200000J0D01*
G01*
X54251607Y-139632544D02*
G75*
G02*
X54051607Y-139432544I0J200000D01*
G01*
X57651607Y-136632544D02*
G75*
G02*
X57851607Y-136832544I-1J-200001D01*
G01*
X57851607Y-139432544D02*
G75*
G02*
X57651607Y-139632544I-200001J1D01*
G01*
X149301607Y-112782544D02*
X149301607Y-115382544D01*
X149501607Y-115582544D02*
X152901607Y-115582544D01*
X152901607Y-112582544D02*
X149501607Y-112582544D01*
X153101607Y-115382544D02*
X153101607Y-112782544D01*
X149301607Y-112782544D02*
G75*
G02*
X149501607Y-112582544I200000J0D01*
G01*
X149501607Y-115582544D02*
G75*
G02*
X149301607Y-115382544I0J200000D01*
G01*
X152901607Y-112582544D02*
G75*
G02*
X153101607Y-112782544I-1J-200001D01*
G01*
X153101607Y-115382544D02*
G75*
G02*
X152901607Y-115582544I-200001J1D01*
G01*
X111201607Y-126832544D02*
X111201607Y-129432544D01*
X111401607Y-129632544D02*
X114801607Y-129632544D01*
X114801607Y-126632544D02*
X111401607Y-126632544D01*
X115001607Y-129432544D02*
X115001607Y-126832544D01*
X111201607Y-126832544D02*
G75*
G02*
X111401607Y-126632544I200000J0D01*
G01*
X111401607Y-129632544D02*
G75*
G02*
X111201607Y-129432544I0J200000D01*
G01*
X114801607Y-126632544D02*
G75*
G02*
X115001607Y-126832544I-1J-200001D01*
G01*
X115001607Y-129432544D02*
G75*
G02*
X114801607Y-129632544I-200001J1D01*
G01*
X130251607Y-147882544D02*
X130251607Y-150482544D01*
X130451607Y-150682544D02*
X133851607Y-150682544D01*
X133851607Y-147682544D02*
X130451607Y-147682544D01*
X134051607Y-150482544D02*
X134051607Y-147882544D01*
X130251607Y-147882544D02*
G75*
G02*
X130451607Y-147682544I200000J0D01*
G01*
X130451607Y-150682544D02*
G75*
G02*
X130251607Y-150482544I0J200000D01*
G01*
X133851607Y-147682544D02*
G75*
G02*
X134051607Y-147882544I-1J-200001D01*
G01*
X134051607Y-150482544D02*
G75*
G02*
X133851607Y-150682544I-200001J1D01*
G01*
X92151607Y-128832544D02*
X92151607Y-131432544D01*
X92351607Y-131632544D02*
X95751607Y-131632544D01*
X95751607Y-128632544D02*
X92351607Y-128632544D01*
X95951607Y-131432544D02*
X95951607Y-128832544D01*
X92151607Y-128832544D02*
G75*
G02*
X92351607Y-128632544I200000J0D01*
G01*
X92351607Y-131632544D02*
G75*
G02*
X92151607Y-131432544I0J200000D01*
G01*
X95751607Y-128632544D02*
G75*
G02*
X95951607Y-128832544I-1J-200001D01*
G01*
X95951607Y-131432544D02*
G75*
G02*
X95751607Y-131632544I-200001J1D01*
G01*
X111201607Y-107782544D02*
X111201607Y-110382544D01*
X111401607Y-110582544D02*
X114801607Y-110582544D01*
X114801607Y-107582544D02*
X111401607Y-107582544D01*
X115001607Y-110382544D02*
X115001607Y-107782544D01*
X111201607Y-107782544D02*
G75*
G02*
X111401607Y-107582544I200000J0D01*
G01*
X111401607Y-110582544D02*
G75*
G02*
X111201607Y-110382544I0J200000D01*
G01*
X114801607Y-107582544D02*
G75*
G02*
X115001607Y-107782544I-1J-200001D01*
G01*
X115001607Y-110382544D02*
G75*
G02*
X114801607Y-110582544I-200001J1D01*
G01*
X169197787Y-170120518D02*
X171554187Y-171219326D01*
X170537951Y-166773286D02*
X169101049Y-169854733D01*
X171819973Y-171122588D02*
X173256875Y-168041141D01*
X173160137Y-167775356D02*
X170803737Y-166676548D01*
X169197787Y-170120518D02*
G75*
G02*
X169101049Y-169854733I84524J181262D01*
G01*
X170537951Y-166773286D02*
G75*
G02*
X170803738Y-166676547I181263J-84524D01*
G01*
X171819973Y-171122588D02*
G75*
G02*
X171554187Y-171219326I-181262J84524D01*
G01*
X173160137Y-167775356D02*
G75*
G02*
X173256875Y-168041141I-84525J-181262D01*
G01*
X149301607Y-150882544D02*
X149301607Y-153482544D01*
X149501607Y-153682544D02*
X152901607Y-153682544D01*
X152901607Y-150682544D02*
X149501607Y-150682544D01*
X153101607Y-153482544D02*
X153101607Y-150882544D01*
X149301607Y-150882544D02*
G75*
G02*
X149501607Y-150682544I200000J0D01*
G01*
X149501607Y-153682544D02*
G75*
G02*
X149301607Y-153482544I0J200000D01*
G01*
X152901607Y-150682544D02*
G75*
G02*
X153101607Y-150882544I-1J-200001D01*
G01*
X153101607Y-153482544D02*
G75*
G02*
X152901607Y-153682544I-200001J1D01*
G01*
X120726607Y-166932544D02*
X120726607Y-169532544D01*
X120926607Y-169732544D02*
X124326607Y-169732544D01*
X124326607Y-166732544D02*
X120926607Y-166732544D01*
X124526607Y-169532544D02*
X124526607Y-166932544D01*
X120726607Y-166932544D02*
G75*
G02*
X120926607Y-166732544I200000J0D01*
G01*
X120926607Y-169732544D02*
G75*
G02*
X120726607Y-169532544I0J200000D01*
G01*
X124326607Y-166732544D02*
G75*
G02*
X124526607Y-166932544I-1J-200001D01*
G01*
X124526607Y-169532544D02*
G75*
G02*
X124326607Y-169732544I-200001J1D01*
G01*
X130251607Y-90732544D02*
X130251607Y-93332544D01*
X130451607Y-93532544D02*
X133851607Y-93532544D01*
X133851607Y-90532544D02*
X130451607Y-90532544D01*
X134051607Y-93332544D02*
X134051607Y-90732544D01*
X130251607Y-90732544D02*
G75*
G02*
X130451607Y-90532544I200000J0D01*
G01*
X130451607Y-93532544D02*
G75*
G02*
X130251607Y-93332544I0J200000D01*
G01*
X133851607Y-90532544D02*
G75*
G02*
X134051607Y-90732544I-1J-200001D01*
G01*
X134051607Y-93332544D02*
G75*
G02*
X133851607Y-93532544I-200001J1D01*
G01*
X54051607Y-117782544D02*
X54051607Y-120382544D01*
X54251607Y-120582544D02*
X57651607Y-120582544D01*
X57651607Y-117582544D02*
X54251607Y-117582544D01*
X57851607Y-120382544D02*
X57851607Y-117782544D01*
X54051607Y-117782544D02*
G75*
G02*
X54251607Y-117582544I200000J0D01*
G01*
X54251607Y-120582544D02*
G75*
G02*
X54051607Y-120382544I0J200000D01*
G01*
X57651607Y-117582544D02*
G75*
G02*
X57851607Y-117782544I-1J-200001D01*
G01*
X57851607Y-120382544D02*
G75*
G02*
X57651607Y-120582544I-200001J1D01*
G01*
X54051607Y-98732544D02*
X54051607Y-101332544D01*
X54251607Y-101532544D02*
X57651607Y-101532544D01*
X57651607Y-98532544D02*
X54251607Y-98532544D01*
X57851607Y-101332544D02*
X57851607Y-98732544D01*
X54051607Y-98732544D02*
G75*
G02*
X54251607Y-98532544I200000J0D01*
G01*
X54251607Y-101532544D02*
G75*
G02*
X54051607Y-101332544I0J200000D01*
G01*
X57651607Y-98532544D02*
G75*
G02*
X57851607Y-98732544I-1J-200001D01*
G01*
X57851607Y-101332544D02*
G75*
G02*
X57651607Y-101532544I-200001J1D01*
G01*
X54051607Y-155882544D02*
X54051607Y-158482544D01*
X54251607Y-158682544D02*
X57651607Y-158682544D01*
X57651607Y-155682544D02*
X54251607Y-155682544D01*
X57851607Y-158482544D02*
X57851607Y-155882544D01*
X54051607Y-155882544D02*
G75*
G02*
X54251607Y-155682544I200000J0D01*
G01*
X54251607Y-158682544D02*
G75*
G02*
X54051607Y-158482544I0J200000D01*
G01*
X57651607Y-155682544D02*
G75*
G02*
X57851607Y-155882544I-1J-200001D01*
G01*
X57851607Y-158482544D02*
G75*
G02*
X57651607Y-158682544I-200001J1D01*
G01*
X149301607Y-131832544D02*
X149301607Y-134432544D01*
X149501607Y-134632544D02*
X152901607Y-134632544D01*
X152901607Y-131632544D02*
X149501607Y-131632544D01*
X153101607Y-134432544D02*
X153101607Y-131832544D01*
X149301607Y-131832544D02*
G75*
G02*
X149501607Y-131632544I200000J0D01*
G01*
X149501607Y-134632544D02*
G75*
G02*
X149301607Y-134432544I0J200000D01*
G01*
X152901607Y-131632544D02*
G75*
G02*
X153101607Y-131832544I-1J-200001D01*
G01*
X153101607Y-134432544D02*
G75*
G02*
X152901607Y-134632544I-200001J1D01*
G01*
X92151607Y-147882544D02*
X92151607Y-150482544D01*
X92351607Y-150682544D02*
X95751607Y-150682544D01*
X95751607Y-147682544D02*
X92351607Y-147682544D01*
X95951607Y-150482544D02*
X95951607Y-147882544D01*
X92151607Y-147882544D02*
G75*
G02*
X92351607Y-147682544I200000J0D01*
G01*
X92351607Y-150682544D02*
G75*
G02*
X92151607Y-150482544I0J200000D01*
G01*
X95751607Y-147682544D02*
G75*
G02*
X95951607Y-147882544I-1J-200001D01*
G01*
X95951607Y-150482544D02*
G75*
G02*
X95751607Y-150682544I-200001J1D01*
G01*
X130251607Y-109782544D02*
X130251607Y-112382544D01*
X130451607Y-112582544D02*
X133851607Y-112582544D01*
X133851607Y-109582544D02*
X130451607Y-109582544D01*
X134051607Y-112382544D02*
X134051607Y-109782544D01*
X130251607Y-109782544D02*
G75*
G02*
X130451607Y-109582544I200000J0D01*
G01*
X130451607Y-112582544D02*
G75*
G02*
X130251607Y-112382544I0J200000D01*
G01*
X133851607Y-109582544D02*
G75*
G02*
X134051607Y-109782544I-1J-200001D01*
G01*
X134051607Y-112382544D02*
G75*
G02*
X133851607Y-112582544I-200001J1D01*
G01*
X92151607Y-90732544D02*
X92151607Y-93332544D01*
X92351607Y-93532544D02*
X95751607Y-93532544D01*
X95751607Y-90532544D02*
X92351607Y-90532544D01*
X95951607Y-93332544D02*
X95951607Y-90732544D01*
X92151607Y-90732544D02*
G75*
G02*
X92351607Y-90532544I200000J0D01*
G01*
X92351607Y-93532544D02*
G75*
G02*
X92151607Y-93332544I0J200000D01*
G01*
X95751607Y-90532544D02*
G75*
G02*
X95951607Y-90732544I-1J-200001D01*
G01*
X95951607Y-93332544D02*
G75*
G02*
X95751607Y-93532544I-200001J1D01*
G01*
X73101607Y-114782544D02*
X73101607Y-117382544D01*
X73301607Y-117582544D02*
X76701607Y-117582544D01*
X76701607Y-114582544D02*
X73301607Y-114582544D01*
X76901607Y-117382544D02*
X76901607Y-114782544D01*
X73101607Y-114782544D02*
G75*
G02*
X73301607Y-114582544I200000J0D01*
G01*
X73301607Y-117582544D02*
G75*
G02*
X73101607Y-117382544I0J200000D01*
G01*
X76701607Y-114582544D02*
G75*
G02*
X76901607Y-114782544I-1J-200001D01*
G01*
X76901607Y-117382544D02*
G75*
G02*
X76701607Y-117582544I-200001J1D01*
G01*
X73101607Y-95732544D02*
X73101607Y-98332544D01*
X73301607Y-98532544D02*
X76701607Y-98532544D01*
X76701607Y-95532544D02*
X73301607Y-95532544D01*
X76901607Y-98332544D02*
X76901607Y-95732544D01*
X73101607Y-95732544D02*
G75*
G02*
X73301607Y-95532544I200000J0D01*
G01*
X73301607Y-98532544D02*
G75*
G02*
X73101607Y-98332544I0J200000D01*
G01*
X76701607Y-95532544D02*
G75*
G02*
X76901607Y-95732544I-1J-200001D01*
G01*
X76901607Y-98332544D02*
G75*
G02*
X76701607Y-98532544I-200001J1D01*
G01*
X111201607Y-145882544D02*
X111201607Y-148482544D01*
X111401607Y-148682544D02*
X114801607Y-148682544D01*
X114801607Y-145682544D02*
X111401607Y-145682544D01*
X115001607Y-148482544D02*
X115001607Y-145882544D01*
X111201607Y-145882544D02*
G75*
G02*
X111401607Y-145682544I200000J0D01*
G01*
X111401607Y-148682544D02*
G75*
G02*
X111201607Y-148482544I0J200000D01*
G01*
X114801607Y-145682544D02*
G75*
G02*
X115001607Y-145882544I-1J-200001D01*
G01*
X115001607Y-148482544D02*
G75*
G02*
X114801607Y-148682544I-200001J1D01*
G01*
X111201607Y-88732544D02*
X111201607Y-91332544D01*
X111401607Y-91532544D02*
X114801607Y-91532544D01*
X114801607Y-88532544D02*
X111401607Y-88532544D01*
X115001607Y-91332544D02*
X115001607Y-88732544D01*
X111201607Y-88732544D02*
G75*
G02*
X111401607Y-88532544I200000J0D01*
G01*
X111401607Y-91532544D02*
G75*
G02*
X111201607Y-91332544I0J200000D01*
G01*
X114801607Y-88532544D02*
G75*
G02*
X115001607Y-88732544I-1J-200001D01*
G01*
X115001607Y-91332544D02*
G75*
G02*
X114801607Y-91532544I-200001J1D01*
G01*
X168351607Y-141357544D02*
X168351607Y-143957544D01*
X168551607Y-144157544D02*
X171951607Y-144157544D01*
X171951607Y-141157544D02*
X168551607Y-141157544D01*
X172151607Y-143957544D02*
X172151607Y-141357544D01*
X168351607Y-141357544D02*
G75*
G02*
X168551607Y-141157544I200000J0D01*
G01*
X168551607Y-144157544D02*
G75*
G02*
X168351607Y-143957544I0J200000D01*
G01*
X171951607Y-141157544D02*
G75*
G02*
X172151607Y-141357544I-1J-200001D01*
G01*
X172151607Y-143957544D02*
G75*
G02*
X171951607Y-144157544I-200001J1D01*
G01*
X73101607Y-133832544D02*
X73101607Y-136432544D01*
X73301607Y-136632544D02*
X76701607Y-136632544D01*
X76701607Y-133632544D02*
X73301607Y-133632544D01*
X76901607Y-136432544D02*
X76901607Y-133832544D01*
X73101607Y-133832544D02*
G75*
G02*
X73301607Y-133632544I200000J0D01*
G01*
X73301607Y-136632544D02*
G75*
G02*
X73101607Y-136432544I0J200000D01*
G01*
X76701607Y-133632544D02*
G75*
G02*
X76901607Y-133832544I-1J-200001D01*
G01*
X76901607Y-136432544D02*
G75*
G02*
X76701607Y-136632544I-200001J1D01*
G01*
X149301607Y-93732544D02*
X149301607Y-96332544D01*
X149501607Y-96532544D02*
X152901607Y-96532544D01*
X152901607Y-93532544D02*
X149501607Y-93532544D01*
X153101607Y-96332544D02*
X153101607Y-93732544D01*
X149301607Y-93732544D02*
G75*
G02*
X149501607Y-93532544I200000J0D01*
G01*
X149501607Y-96532544D02*
G75*
G02*
X149301607Y-96332544I0J200000D01*
G01*
X152901607Y-93532544D02*
G75*
G02*
X153101607Y-93732544I-1J-200001D01*
G01*
X153101607Y-96332544D02*
G75*
G02*
X152901607Y-96532544I-200001J1D01*
G01*
X92151607Y-109782544D02*
X92151607Y-112382544D01*
X92351607Y-112582544D02*
X95751607Y-112582544D01*
X95751607Y-109582544D02*
X92351607Y-109582544D01*
X95951607Y-112382544D02*
X95951607Y-109782544D01*
X92151607Y-109782544D02*
G75*
G02*
X92351607Y-109582544I200000J0D01*
G01*
X92351607Y-112582544D02*
G75*
G02*
X92151607Y-112382544I0J200000D01*
G01*
X95751607Y-109582544D02*
G75*
G02*
X95951607Y-109782544I-1J-200001D01*
G01*
X95951607Y-112382544D02*
G75*
G02*
X95751607Y-112582544I-200001J1D01*
G01*
M02*
