G04 #@! TF.GenerationSoftware,KiCad,Pcbnew,9.0.3*
G04 #@! TF.CreationDate,2025-08-01T16:01:11-04:00*
G04 #@! TF.ProjectId,quartz58,71756172-747a-4353-982e-6b696361645f,rev?*
G04 #@! TF.SameCoordinates,Original*
G04 #@! TF.FileFunction,Copper,L1,Top*
G04 #@! TF.FilePolarity,Positive*
%FSLAX46Y46*%
G04 Gerber Fmt 4.6, Leading zero omitted, Abs format (unit mm)*
G04 Created by KiCad (PCBNEW 9.0.3) date 2025-08-01 16:01:11*
%MOMM*%
%LPD*%
G01*
G04 APERTURE LIST*
G04 Aperture macros list*
%AMRoundRect*
0 Rectangle with rounded corners*
0 $1 Rounding radius*
0 $2 $3 $4 $5 $6 $7 $8 $9 X,Y pos of 4 corners*
0 Add a 4 corners polygon primitive as box body*
4,1,4,$2,$3,$4,$5,$6,$7,$8,$9,$2,$3,0*
0 Add four circle primitives for the rounded corners*
1,1,$1+$1,$2,$3*
1,1,$1+$1,$4,$5*
1,1,$1+$1,$6,$7*
1,1,$1+$1,$8,$9*
0 Add four rect primitives between the rounded corners*
20,1,$1+$1,$2,$3,$4,$5,0*
20,1,$1+$1,$4,$5,$6,$7,0*
20,1,$1+$1,$6,$7,$8,$9,0*
20,1,$1+$1,$8,$9,$2,$3,0*%
G04 Aperture macros list end*
G04 #@! TA.AperFunction,ComponentPad*
%ADD10C,1.752600*%
G04 #@! TD*
G04 #@! TA.AperFunction,SMDPad,CuDef*
%ADD11R,0.711200X1.549400*%
G04 #@! TD*
G04 #@! TA.AperFunction,SMDPad,CuDef*
%ADD12R,1.500000X0.700000*%
G04 #@! TD*
G04 #@! TA.AperFunction,SMDPad,CuDef*
%ADD13R,0.800000X1.000000*%
G04 #@! TD*
G04 #@! TA.AperFunction,ComponentPad*
%ADD14RoundRect,0.250000X0.350000X0.625000X-0.350000X0.625000X-0.350000X-0.625000X0.350000X-0.625000X0*%
G04 #@! TD*
G04 #@! TA.AperFunction,ComponentPad*
%ADD15O,1.200000X1.750000*%
G04 #@! TD*
G04 #@! TA.AperFunction,ComponentPad*
%ADD16R,1.700000X1.700000*%
G04 #@! TD*
G04 #@! TA.AperFunction,ComponentPad*
%ADD17O,1.700000X1.700000*%
G04 #@! TD*
G04 #@! TA.AperFunction,ComponentPad*
%ADD18C,1.800000*%
G04 #@! TD*
G04 #@! TA.AperFunction,ViaPad*
%ADD19C,0.800000*%
G04 #@! TD*
G04 #@! TA.AperFunction,Conductor*
%ADD20C,0.250000*%
G04 #@! TD*
G04 #@! TA.AperFunction,Profile*
%ADD21C,0.150000*%
G04 #@! TD*
G04 #@! TA.AperFunction,Profile*
%ADD22C,0.200000*%
G04 #@! TD*
G04 #@! TA.AperFunction,Profile*
%ADD23C,0.050000*%
G04 #@! TD*
G04 #@! TA.AperFunction,Profile*
%ADD24C,0.100000*%
G04 #@! TD*
G04 #@! TA.AperFunction,Profile*
%ADD25C,0.120000*%
G04 #@! TD*
G04 APERTURE END LIST*
D10*
X192747109Y-115337544D03*
X195287109Y-115337544D03*
X197827109Y-115337544D03*
X200367109Y-115337544D03*
X202907109Y-115337544D03*
D11*
X189227110Y-114698644D03*
X187527108Y-114698644D03*
X187527108Y-119956444D03*
X189227110Y-119956444D03*
D12*
X189977109Y-123177544D03*
X189977109Y-126177544D03*
X189977109Y-127677544D03*
D13*
X189327109Y-121777544D03*
X189327109Y-129077544D03*
X187127109Y-121777544D03*
X187127109Y-129077544D03*
D14*
X197827109Y-83827544D03*
D15*
X195827109Y-83827544D03*
D10*
X205447109Y-84857544D03*
X205447109Y-87397544D03*
X205447109Y-89937544D03*
X205447109Y-92477544D03*
X205447109Y-95017544D03*
X205447109Y-97557544D03*
X205447109Y-100097544D03*
X205447109Y-102637544D03*
X205447109Y-105177544D03*
X205447109Y-107717544D03*
X205447109Y-110257544D03*
X205447109Y-112797544D03*
X190207109Y-112797544D03*
X190207109Y-110257544D03*
X190207109Y-107717544D03*
X190207109Y-105177544D03*
X190207109Y-102637544D03*
X190207109Y-100097544D03*
X190207109Y-97557544D03*
X190207109Y-95017544D03*
X190207109Y-92477544D03*
X190207109Y-89937544D03*
X190207109Y-87397544D03*
X190207109Y-84857544D03*
X202907109Y-107717544D03*
X200367109Y-107717544D03*
X197827109Y-107717544D03*
D16*
X201627109Y-117877544D03*
D17*
X199087109Y-117877544D03*
X196547109Y-117877544D03*
X194007109Y-117877544D03*
D18*
X69380986Y-175481924D03*
X69380986Y-188577544D03*
X82476606Y-188577544D03*
X77038796Y-180919734D03*
X68200116Y-166918864D03*
X59778476Y-185635974D03*
X83657476Y-197140604D03*
X92079116Y-178423494D03*
X79181486Y-165950124D03*
D12*
X178101607Y-128127544D03*
X178101607Y-125127544D03*
X178101607Y-123627544D03*
D13*
X178751607Y-129527544D03*
X178751607Y-122227544D03*
X180951607Y-129527544D03*
X180951607Y-122227544D03*
D10*
X165171607Y-115887544D03*
X167711607Y-115887544D03*
X170251607Y-115887544D03*
X172791607Y-115887544D03*
X175331607Y-115887544D03*
D11*
X178851606Y-120406444D03*
X180551608Y-120406444D03*
X180551608Y-115148644D03*
X178851606Y-115148644D03*
D16*
X174051607Y-118327544D03*
D17*
X171511607Y-118327544D03*
X168971607Y-118327544D03*
X166431607Y-118327544D03*
D14*
X172251607Y-84277544D03*
D15*
X170251607Y-84277544D03*
D10*
X177871607Y-85407544D03*
X177871607Y-87947544D03*
X177871607Y-90487544D03*
X177871607Y-93027544D03*
X177871607Y-95567544D03*
X177871607Y-98107544D03*
X177871607Y-100647544D03*
X177871607Y-103187544D03*
X177871607Y-105727544D03*
X177871607Y-108267544D03*
X177871607Y-110807544D03*
X177871607Y-113347544D03*
X162631607Y-113347544D03*
X162631607Y-110807544D03*
X162631607Y-108267544D03*
X162631607Y-105727544D03*
X162631607Y-103187544D03*
X162631607Y-100647544D03*
X162631607Y-98107544D03*
X162631607Y-95567544D03*
X162631607Y-93027544D03*
X162631607Y-90487544D03*
X162631607Y-87947544D03*
X162631607Y-85407544D03*
X175331607Y-108267544D03*
X172791607Y-108267544D03*
X170251607Y-108267544D03*
D19*
X188328109Y-125227544D03*
X257652109Y-148902544D03*
X219552109Y-134627544D03*
X257652109Y-110627544D03*
X219552109Y-96677544D03*
X238602109Y-112727544D03*
X314802109Y-158927544D03*
X200202109Y-119977544D03*
X238552109Y-150877544D03*
X295752109Y-98827544D03*
X295802109Y-136927544D03*
X238602109Y-131977544D03*
X257652109Y-129777544D03*
X238602109Y-93677544D03*
X314802109Y-120977544D03*
X219552109Y-153827544D03*
X314852109Y-139977544D03*
X314802109Y-101927544D03*
X276702109Y-112927544D03*
X200502109Y-144377544D03*
X196852109Y-151227544D03*
X276702109Y-93540056D03*
X257602109Y-92377544D03*
X276702109Y-150627544D03*
X219602109Y-115577544D03*
X295752109Y-155877544D03*
X295752109Y-117977544D03*
X276702109Y-131727544D03*
X187102109Y-118077544D03*
X204952109Y-128877544D03*
X205352109Y-147277544D03*
X214152109Y-96777544D03*
X288581523Y-95293107D03*
X288902109Y-133527544D03*
X250511238Y-145454505D03*
X212952109Y-92877544D03*
X212182824Y-112285138D03*
X250249814Y-126328419D03*
X288527109Y-152413886D03*
X269711005Y-147523956D03*
X231080499Y-90210680D03*
X269606508Y-90323334D03*
X269663420Y-109399621D03*
X250552109Y-107331544D03*
X307752109Y-117178544D03*
X288752109Y-114277544D03*
X250702109Y-88277544D03*
X222402109Y-168977544D03*
X307802109Y-155327544D03*
X212129098Y-131324607D03*
X212201832Y-150377821D03*
X231477109Y-109331544D03*
X231631292Y-147535015D03*
X269598292Y-128419783D03*
X307802109Y-98327544D03*
X307802109Y-135727544D03*
X196552109Y-163577544D03*
X231202109Y-127627544D03*
X303427109Y-109277544D03*
X304202109Y-100103544D03*
X303427109Y-147177544D03*
X303377109Y-127827544D03*
X285552109Y-95227544D03*
X284702109Y-143827544D03*
X283452109Y-153577544D03*
X284677109Y-125277544D03*
X284527109Y-105877544D03*
X238702109Y-156477544D03*
X265427109Y-138827544D03*
X265727109Y-119377544D03*
X265652109Y-92103544D03*
X265777109Y-100727544D03*
X246975109Y-136877544D03*
X246952109Y-93002544D03*
X236902109Y-155577544D03*
X246852109Y-99127544D03*
X246975109Y-117727544D03*
X227925109Y-138527544D03*
X228452109Y-94677544D03*
X218502109Y-156527544D03*
X227925109Y-100477544D03*
X227925109Y-119377544D03*
X194732109Y-120327544D03*
X208549811Y-92229842D03*
X196852109Y-128477544D03*
X208875109Y-141827544D03*
X208875109Y-122727544D03*
X208875109Y-103877544D03*
X196452109Y-155127544D03*
X316952109Y-99927544D03*
X309477109Y-120777544D03*
X208820552Y-120445987D03*
X209902109Y-111977544D03*
X319216679Y-151470134D03*
X316702109Y-136877544D03*
X202477108Y-150727240D03*
X202502109Y-141927544D03*
X66253799Y-179527146D03*
X64889864Y-180913493D03*
X65405514Y-180056691D03*
X65328795Y-175479732D03*
X178501607Y-126377544D03*
X153876607Y-135389124D03*
X134776607Y-151277544D03*
X77676607Y-99249020D03*
X115776607Y-130389124D03*
X96726607Y-113301544D03*
X115776607Y-111339124D03*
X158976607Y-92258486D03*
X134826607Y-94289124D03*
X173268181Y-164533749D03*
X168976607Y-155296194D03*
X134826607Y-132389124D03*
X107776607Y-168677544D03*
X172926607Y-144777544D03*
X96726607Y-151377544D03*
X96726607Y-132389124D03*
X153876607Y-154471252D03*
X153876607Y-116339124D03*
X115776607Y-149627544D03*
X180333206Y-93027544D03*
X96726607Y-94077544D03*
X77676607Y-137389124D03*
X126876607Y-168477544D03*
X169251607Y-122377544D03*
X79176607Y-154177544D03*
X153876607Y-97289124D03*
X57776404Y-140525407D03*
X77676607Y-118339124D03*
X58626607Y-101924028D03*
X60076607Y-156977544D03*
X115776607Y-92177544D03*
X145976607Y-171477544D03*
X134826607Y-113339124D03*
X58626607Y-121202238D03*
X178576607Y-151177544D03*
X178626607Y-148777544D03*
X174987953Y-120596905D03*
X178726607Y-146427544D03*
X174945050Y-121595987D03*
X178854607Y-144027544D03*
X163276607Y-153477544D03*
X165616155Y-129011996D03*
X99376607Y-167077544D03*
X51870482Y-117382999D03*
X51720079Y-136834072D03*
X128176607Y-147377544D03*
X89595051Y-147908234D03*
X108676607Y-88677544D03*
X89676607Y-90777544D03*
X146945078Y-131809073D03*
X70720079Y-152834072D03*
X108820079Y-107734072D03*
X167976607Y-172446194D03*
X127876607Y-90777544D03*
X146876607Y-93677544D03*
X109014260Y-145389891D03*
X70767562Y-133886589D03*
X137476607Y-170077544D03*
X147076607Y-150377544D03*
X127870079Y-128784072D03*
X51794385Y-98659766D03*
X146895079Y-112709072D03*
X89745079Y-109709072D03*
X89820079Y-128834072D03*
X70876607Y-95677544D03*
X108845078Y-126809073D03*
X51645078Y-155809073D03*
X118476607Y-166977544D03*
X70930769Y-114998382D03*
X128076607Y-109377544D03*
X179126607Y-107027544D03*
X49226748Y-147327685D03*
X49235215Y-109027544D03*
X49031113Y-128277544D03*
X48212559Y-94631456D03*
X68326607Y-144177544D03*
X68576607Y-105777544D03*
X67262543Y-95602544D03*
X68426607Y-125027544D03*
X68726303Y-156202543D03*
X87551607Y-100852544D03*
X87426607Y-138977544D03*
X86312527Y-90631544D03*
X86665693Y-151287260D03*
X87576607Y-120027544D03*
X106826607Y-117827544D03*
X114476607Y-153777544D03*
X106676607Y-136977544D03*
X105176607Y-87877544D03*
X106426607Y-99277544D03*
X125576607Y-120227544D03*
X124412495Y-90052544D03*
X133476607Y-155577544D03*
X125826607Y-138827544D03*
X125976607Y-100602544D03*
X142976607Y-141877544D03*
X144626607Y-104127544D03*
X144676607Y-123177544D03*
X142976607Y-92181544D03*
X156626607Y-133227544D03*
X156101607Y-114102544D03*
X176626607Y-126127544D03*
X180361952Y-136755313D03*
X179726607Y-137527544D03*
D20*
X189278109Y-126177544D02*
X188328109Y-125227544D01*
X189977109Y-126177544D02*
X189278109Y-126177544D01*
X252506109Y-89054824D02*
X251002829Y-87551544D01*
X304603109Y-107426544D02*
X304603109Y-114740734D01*
X308754109Y-119376469D02*
X308752109Y-119378469D01*
X290352109Y-98827544D02*
X285703109Y-103476544D01*
X289727109Y-136502544D02*
X286251109Y-139978544D01*
X257652109Y-110627544D02*
X252102109Y-110627544D01*
X233402109Y-112577544D02*
X229101109Y-116878544D01*
X308102829Y-135001544D02*
X308528109Y-135426824D01*
X270703109Y-112676544D02*
X270452109Y-112927544D01*
X229101109Y-125151792D02*
X229976861Y-126027544D01*
X248151109Y-132878544D02*
X251602109Y-129427544D01*
X290652109Y-134250824D02*
X290652109Y-135577544D01*
X297102109Y-97477544D02*
X295752109Y-98827544D01*
X267201109Y-142578544D02*
X267201109Y-144346956D01*
X269575230Y-108673621D02*
X269964140Y-108673621D01*
X305301109Y-144016354D02*
X308754109Y-140563354D01*
X290801109Y-156051544D02*
X291302109Y-156552544D01*
X314802109Y-101927544D02*
X314802109Y-98443045D01*
X308052829Y-116452544D02*
X308752109Y-117151824D01*
X252502109Y-148638659D02*
X252502109Y-145477544D01*
X270689597Y-93540056D02*
X266953109Y-97276544D01*
X267201109Y-144346956D02*
X269652109Y-146797956D01*
X200202109Y-119977544D02*
X200202109Y-121377544D01*
X308502109Y-121077544D02*
X305301109Y-124278544D01*
X295077109Y-156552544D02*
X291302109Y-156552544D01*
X252102109Y-110627544D02*
X252701109Y-110028544D01*
X308752109Y-119378469D02*
X308752109Y-120827544D01*
X314502109Y-139627544D02*
X314852109Y-139977544D01*
X270452109Y-112927544D02*
X267453109Y-115926544D01*
X219552109Y-153827544D02*
X215002109Y-153827544D01*
X276702109Y-131727544D02*
X271752109Y-131727544D01*
X231602109Y-107177544D02*
X233402109Y-108977544D01*
X229101109Y-106101792D02*
X230176861Y-107177544D01*
X314802109Y-101927544D02*
X310102109Y-101927544D01*
X231902109Y-144977544D02*
X233651109Y-146726544D01*
X213752109Y-134127544D02*
X213752109Y-131852792D01*
X229101109Y-95779469D02*
X229101109Y-106101792D01*
X308054829Y-154553544D02*
X307652861Y-154553544D01*
X213752109Y-134127544D02*
X214252109Y-134627544D01*
X201627109Y-116597544D02*
X200367109Y-115337544D01*
X305301109Y-124278544D02*
X305301109Y-133151792D01*
X201627109Y-117877544D02*
X201627109Y-116597544D01*
X289704109Y-117663354D02*
X286121014Y-121246449D01*
X308754109Y-138777544D02*
X309604109Y-139627544D01*
X285703109Y-103476544D02*
X285703109Y-110590734D01*
X291831109Y-94706544D02*
X295015528Y-94706544D01*
X253202109Y-129777544D02*
X252002109Y-128577544D01*
X290652109Y-135577544D02*
X289727109Y-136502544D01*
X269652109Y-146797956D02*
X270011725Y-146797956D01*
X214152109Y-114727544D02*
X215002109Y-115577544D01*
X267201109Y-125151792D02*
X269743100Y-127693783D01*
X309302109Y-155800824D02*
X308054829Y-154553544D01*
X200202109Y-121377544D02*
X195926109Y-125653544D01*
X286121014Y-130108639D02*
X288813919Y-132801544D01*
X257652109Y-129777544D02*
X253202109Y-129777544D01*
X251652109Y-92377544D02*
X257602109Y-92377544D01*
X276702109Y-93540056D02*
X276702109Y-90443125D01*
X229101109Y-116878544D02*
X229101109Y-125151792D01*
X285703109Y-110590734D02*
X288663919Y-113551544D01*
X267652109Y-135827544D02*
X267652109Y-142127544D01*
X197039689Y-133128544D02*
X197930743Y-133128544D01*
X214252109Y-134627544D02*
X219552109Y-134627544D01*
X309952109Y-158927544D02*
X309302109Y-158277544D01*
X233651109Y-146726544D02*
X233651109Y-150326544D01*
X248151109Y-123151792D02*
X248151109Y-114578544D01*
X197930743Y-133128544D02*
X200728109Y-135925910D01*
X196639456Y-148240197D02*
X200502109Y-144377544D01*
X226744973Y-89484680D02*
X219552109Y-96677544D01*
X238602109Y-90443045D02*
X237643744Y-89484680D01*
X270703109Y-109412590D02*
X270703109Y-112676544D01*
X266953109Y-106051500D02*
X269575230Y-108673621D01*
X251602109Y-128977544D02*
X252002109Y-128577544D01*
X248151109Y-142201792D02*
X248151109Y-132878544D01*
X233552109Y-112727544D02*
X238602109Y-112727544D01*
X234302109Y-150977544D02*
X238452109Y-150977544D01*
X231203034Y-93677544D02*
X229101109Y-95779469D01*
X271743054Y-150268489D02*
X272352109Y-150877544D01*
X289052829Y-113551544D02*
X289704109Y-114202824D01*
X196852109Y-151202850D02*
X196639456Y-150990197D01*
X238602109Y-93677544D02*
X238602109Y-90443045D01*
X252765994Y-148902544D02*
X252502109Y-148638659D01*
X200728109Y-135925910D02*
X200728109Y-144151544D01*
X289202829Y-132801544D02*
X290652109Y-134250824D01*
X290664621Y-93540056D02*
X291831109Y-94706544D01*
X314802109Y-98443045D02*
X313836608Y-97477544D01*
X288827829Y-151687886D02*
X290801109Y-153661166D01*
X309102109Y-121677544D02*
X314102109Y-121677544D01*
X269743100Y-127693783D02*
X269899012Y-127693783D01*
X314102109Y-121677544D02*
X314802109Y-120977544D01*
X308752109Y-120827544D02*
X308502109Y-121077544D01*
X252002109Y-128577544D02*
X252002109Y-127002792D01*
X210051109Y-99928544D02*
X212002109Y-97977544D01*
X252002109Y-127002792D02*
X248151109Y-123151792D01*
X310102109Y-101927544D02*
X304603109Y-107426544D01*
X244728109Y-87551544D02*
X238602109Y-93677544D01*
X210051109Y-128151792D02*
X210051109Y-122628544D01*
X295752109Y-98827544D02*
X290352109Y-98827544D01*
X252701109Y-110028544D02*
X252701109Y-107476544D01*
X276702109Y-90443125D02*
X275856318Y-89597334D01*
X205352109Y-129277544D02*
X204952109Y-128877544D01*
X205352109Y-147277544D02*
X205352109Y-129277544D01*
X295015528Y-94706544D02*
X295752109Y-95443125D01*
X288663919Y-113551544D02*
X289052829Y-113551544D01*
X248151109Y-104101792D02*
X248151109Y-95878544D01*
X210051109Y-147201792D02*
X210051109Y-137828544D01*
X229876861Y-144977544D02*
X231902109Y-144977544D01*
X310302109Y-158927544D02*
X314802109Y-158927544D01*
X308754109Y-136041734D02*
X308754109Y-138079544D01*
X238452109Y-150977544D02*
X238552109Y-150877544D01*
X251602109Y-129427544D02*
X251602109Y-128977544D01*
X252701109Y-107476544D02*
X250103109Y-104878544D01*
X308752109Y-118026619D02*
X308754109Y-118028619D01*
X229976861Y-126027544D02*
X231752109Y-126027544D01*
X272352109Y-150877544D02*
X276452109Y-150877544D01*
X306314919Y-116452544D02*
X308052829Y-116452544D01*
X238452109Y-132127544D02*
X238602109Y-131977544D01*
X308754109Y-118028619D02*
X308754109Y-119376469D01*
X233651109Y-150326544D02*
X234302109Y-150977544D01*
X234352109Y-132127544D02*
X238452109Y-132127544D01*
X308754109Y-138777544D02*
X308754109Y-138079544D01*
X309604109Y-139627544D02*
X314502109Y-139627544D01*
X308528109Y-135815734D02*
X308754109Y-136041734D01*
X276702109Y-93540056D02*
X290664621Y-93540056D01*
X295752109Y-155877544D02*
X295077109Y-156552544D01*
X269899012Y-127693783D02*
X271752109Y-129546880D01*
X250103109Y-104878544D02*
X248927861Y-104878544D01*
X308528109Y-135426824D02*
X308528109Y-135815734D01*
X307150861Y-135001544D02*
X308102829Y-135001544D01*
X270011725Y-146797956D02*
X271743054Y-148529285D01*
X305301109Y-152201792D02*
X305301109Y-144016354D01*
X271752109Y-131727544D02*
X267652109Y-135827544D01*
X233402109Y-108977544D02*
X233402109Y-112577544D01*
X271743054Y-148529285D02*
X271743054Y-150268489D01*
X200728109Y-144151544D02*
X200502109Y-144377544D01*
X286251109Y-149201792D02*
X288737203Y-151687886D01*
X286121014Y-121246449D02*
X286121014Y-130108639D01*
X271752109Y-131727544D02*
X271702109Y-131727544D01*
X214152109Y-114727544D02*
X214152109Y-113202792D01*
X307652861Y-154553544D02*
X305301109Y-152201792D01*
X267201109Y-124053296D02*
X267201109Y-125151792D01*
X233651109Y-131426544D02*
X234352109Y-132127544D01*
X214152109Y-113202792D02*
X210051109Y-109101792D01*
X269964140Y-108673621D02*
X270703109Y-109412590D01*
X289704109Y-114202824D02*
X289704109Y-117663354D01*
X260382319Y-89597334D02*
X257602109Y-92377544D01*
X212002109Y-97977544D02*
X215602109Y-97977544D01*
X238602109Y-93677544D02*
X231203034Y-93677544D01*
X267453109Y-115926544D02*
X267453109Y-123801296D01*
X308502109Y-121077544D02*
X309102109Y-121677544D01*
X276452109Y-150877544D02*
X276702109Y-150627544D01*
X308754109Y-140563354D02*
X308754109Y-138777544D01*
X210051109Y-122628544D02*
X214152109Y-118527544D01*
X248151109Y-114578544D02*
X252102109Y-110627544D01*
X310302109Y-158927544D02*
X309952109Y-158927544D01*
X196639456Y-150990197D02*
X196639456Y-148240197D01*
X290801109Y-153661166D02*
X290801109Y-156051544D01*
X213552109Y-152377544D02*
X213552109Y-150702792D01*
X288737203Y-151687886D02*
X288827829Y-151687886D01*
X267453109Y-123801296D02*
X267201109Y-124053296D01*
X233651109Y-127926544D02*
X233651109Y-131426544D01*
X229101109Y-135976544D02*
X229101109Y-144201792D01*
X252502109Y-145477544D02*
X250003109Y-142978544D01*
X210051109Y-109101792D02*
X210051109Y-99928544D01*
X215602109Y-97977544D02*
X216902109Y-96677544D01*
X214152109Y-118527544D02*
X214152109Y-114727544D01*
X213752109Y-131852792D02*
X210051109Y-128151792D01*
X271752109Y-129546880D02*
X271752109Y-131727544D01*
X313836608Y-97477544D02*
X297102109Y-97477544D01*
X267652109Y-142127544D02*
X267652109Y-142327544D01*
X250003109Y-142978544D02*
X248927861Y-142978544D01*
X229101109Y-144201792D02*
X229876861Y-144977544D01*
X252506109Y-92377544D02*
X252506109Y-89054824D01*
X257652109Y-148902544D02*
X252765994Y-148902544D01*
X251002829Y-87551544D02*
X244728109Y-87551544D01*
X276702109Y-112927544D02*
X270452109Y-112927544D01*
X195926109Y-132014964D02*
X197039689Y-133128544D01*
X213552109Y-150702792D02*
X210051109Y-147201792D01*
X248927861Y-142978544D02*
X248151109Y-142201792D01*
X305301109Y-133151792D02*
X307150861Y-135001544D01*
X266953109Y-97276544D02*
X266953109Y-106051500D01*
X248151109Y-95878544D02*
X251652109Y-92377544D01*
X210051109Y-137828544D02*
X213752109Y-134127544D01*
X290018299Y-117977544D02*
X289704109Y-117663354D01*
X276702109Y-93540056D02*
X270689597Y-93540056D01*
X233651109Y-131426544D02*
X229101109Y-135976544D01*
X215002109Y-153827544D02*
X213552109Y-152377544D01*
X257602109Y-92377544D02*
X252506109Y-92377544D01*
X230176861Y-107177544D02*
X231602109Y-107177544D01*
X216902109Y-96677544D02*
X219552109Y-96677544D01*
X290152109Y-136927544D02*
X295802109Y-136927544D01*
X233402109Y-112577544D02*
X233552109Y-112727544D01*
X237643744Y-89484680D02*
X226744973Y-89484680D01*
X288813919Y-132801544D02*
X289202829Y-132801544D01*
X295752109Y-95443125D02*
X295752109Y-98827544D01*
X286251109Y-139978544D02*
X286251109Y-149201792D01*
X295752109Y-117977544D02*
X290018299Y-117977544D01*
X215002109Y-115577544D02*
X219602109Y-115577544D01*
X267652109Y-142127544D02*
X267201109Y-142578544D01*
X195926109Y-125653544D02*
X195926109Y-132014964D01*
X309302109Y-158277544D02*
X309302109Y-155800824D01*
X275856318Y-89597334D02*
X260382319Y-89597334D01*
X188502109Y-113723643D02*
X188502109Y-89102544D01*
X248927861Y-104878544D02*
X248151109Y-104101792D01*
X187527108Y-114698644D02*
X188502109Y-113723643D01*
X231752109Y-126027544D02*
X233651109Y-127926544D01*
X196852109Y-151227544D02*
X196852109Y-151202850D01*
X304603109Y-114740734D02*
X306314919Y-116452544D01*
X289727109Y-136502544D02*
X290152109Y-136927544D01*
X188502109Y-89102544D02*
X190207109Y-87397544D01*
X308752109Y-117151824D02*
X308752109Y-118026619D01*
X188328109Y-122330544D02*
X189175109Y-123177544D01*
X187702109Y-118077544D02*
X188328109Y-118703544D01*
X187102109Y-118077544D02*
X187702109Y-118077544D01*
X189175109Y-123177544D02*
X189977109Y-123177544D01*
X188328109Y-118703544D02*
X188328109Y-122330544D01*
X205447109Y-85447792D02*
X205447109Y-84857544D01*
X210827861Y-90828544D02*
X205447109Y-85447792D01*
X212390290Y-90828544D02*
X210827861Y-90828544D01*
X214152109Y-96777544D02*
X214152109Y-92590363D01*
X214152109Y-92590363D02*
X212390290Y-90828544D01*
X307752109Y-117178544D02*
X306403109Y-117178544D01*
X209600109Y-122029544D02*
X213053109Y-118576544D01*
X198101134Y-154678568D02*
X198500110Y-155077544D01*
X250102109Y-107077544D02*
X250302109Y-107077544D01*
X196552109Y-157677544D02*
X199152109Y-155077544D01*
X231202109Y-127627544D02*
X230939051Y-127627544D01*
X266502109Y-106238310D02*
X269663420Y-109399621D01*
X247700109Y-142643376D02*
X247700109Y-131692659D01*
X232902109Y-130677544D02*
X232902109Y-129327544D01*
X251153109Y-127231714D02*
X250249814Y-126328419D01*
X270252109Y-109988310D02*
X270252109Y-110677544D01*
X266452109Y-125273600D02*
X269598292Y-128419783D01*
X210701109Y-151315429D02*
X211638717Y-150377821D01*
X230939051Y-127627544D02*
X228650109Y-125338602D01*
X304152109Y-114927544D02*
X304152109Y-106377544D01*
X304152109Y-144527544D02*
X308303109Y-140376544D01*
X266152109Y-144627544D02*
X268202109Y-146677544D01*
X285502109Y-149388886D02*
X288527109Y-152413886D01*
X268452109Y-113627544D02*
X266452109Y-115627544D01*
X213053109Y-118576544D02*
X213053109Y-113155423D01*
X304152109Y-152627544D02*
X304152109Y-144527544D01*
X289253109Y-115215429D02*
X288752109Y-114714429D01*
X307752109Y-117664429D02*
X307752109Y-117178544D01*
X307614224Y-119878544D02*
X308303109Y-119189659D01*
X228650109Y-95592659D02*
X228650109Y-106504544D01*
X304102109Y-123377544D02*
X307601109Y-119878544D01*
X228650109Y-125338602D02*
X228650109Y-116679544D01*
X198500110Y-155077544D02*
X199152109Y-155077544D01*
X270203109Y-111189659D02*
X269514224Y-111878544D01*
X307802109Y-135727544D02*
X306952109Y-135727544D01*
X213302109Y-132497618D02*
X212129098Y-131324607D01*
X209600109Y-99741734D02*
X209600109Y-109702423D01*
X211348386Y-150377821D02*
X209600109Y-148629544D01*
X289253109Y-135239659D02*
X289352109Y-135338659D01*
X251153109Y-107932544D02*
X250552109Y-107331544D01*
X270252109Y-110677544D02*
X270203109Y-110726544D01*
X213053109Y-92978544D02*
X213053109Y-96288734D01*
X222402109Y-168977544D02*
X222301861Y-168977544D01*
X250002984Y-126328419D02*
X247700109Y-124025544D01*
X228650109Y-106504544D02*
X231477109Y-109331544D01*
X288502251Y-95476544D02*
X288564224Y-95476544D01*
X269514224Y-111878544D02*
X269514224Y-112815429D01*
X289352109Y-135338659D02*
X289352109Y-136239734D01*
X289253109Y-134265429D02*
X289253109Y-135239659D01*
X228650109Y-144675544D02*
X228650109Y-134929544D01*
X269598292Y-131931361D02*
X266152109Y-135377544D01*
X197827109Y-116617544D02*
X197827109Y-115337544D01*
X231477109Y-109252544D02*
X231477109Y-109331544D01*
X250702109Y-88277544D02*
X251153109Y-88728544D01*
X288902109Y-133914429D02*
X289253109Y-134265429D01*
X266502109Y-95840659D02*
X266502109Y-106238310D01*
X232902109Y-110677544D02*
X231477109Y-109252544D01*
X289253109Y-117476544D02*
X289253109Y-115215429D01*
X212952109Y-92877544D02*
X213053109Y-92978544D01*
X285402109Y-130027544D02*
X285402109Y-121327544D01*
X213053109Y-96288734D02*
X211133204Y-98208639D01*
X231509580Y-147535015D02*
X231252109Y-147277544D01*
X269663420Y-109399621D02*
X270252109Y-109988310D01*
X247700109Y-114391734D02*
X251153109Y-110938734D01*
X212129098Y-131324607D02*
X209600109Y-128795618D01*
X270203109Y-92139659D02*
X266502109Y-95840659D01*
X285252109Y-110777544D02*
X288752109Y-114277544D01*
X288902109Y-133527544D02*
X285402109Y-130027544D01*
X222301861Y-168977544D02*
X210701109Y-157376792D01*
X269598292Y-130844476D02*
X269598292Y-131931361D01*
X288502251Y-95372379D02*
X288502251Y-95476544D01*
X269514224Y-112815429D02*
X268702109Y-113627544D01*
X250511238Y-145454505D02*
X247700109Y-142643376D01*
X199087109Y-117877544D02*
X197827109Y-116617544D01*
X307601109Y-119878544D02*
X307614224Y-119878544D01*
X231631292Y-147535015D02*
X231509580Y-147535015D01*
X270203109Y-129265429D02*
X270203109Y-130239659D01*
X251153109Y-128239659D02*
X251153109Y-127231714D01*
X247700109Y-131692659D02*
X251153109Y-128239659D01*
X304102109Y-132877544D02*
X304102109Y-123377544D01*
X308303109Y-118215429D02*
X307752109Y-117664429D01*
X266152109Y-135377544D02*
X266152109Y-144627544D01*
X209600109Y-137579544D02*
X213302109Y-133877544D01*
X250302109Y-107077544D02*
X250302109Y-107081544D01*
X268864593Y-146677544D02*
X269711005Y-147523956D01*
X266452109Y-115627544D02*
X266452109Y-125273600D01*
X288564224Y-95476544D02*
X289253109Y-96165429D01*
X270203109Y-130239659D02*
X269598292Y-130844476D01*
X250249814Y-126328419D02*
X250002984Y-126328419D01*
X308303109Y-102226544D02*
X308303109Y-99165429D01*
X285402109Y-121327544D02*
X289253109Y-117476544D01*
X209600109Y-128795618D02*
X209600109Y-122029544D01*
X203851832Y-150377821D02*
X212201832Y-150377821D01*
X270203109Y-110726544D02*
X270203109Y-111189659D01*
X306403109Y-117178544D02*
X304152109Y-114927544D01*
X269606508Y-90323334D02*
X270203109Y-90919935D01*
X306952109Y-135727544D02*
X304102109Y-132877544D01*
X289352109Y-136239734D02*
X285800109Y-139791734D01*
X307802109Y-155327544D02*
X306852109Y-155327544D01*
X231285245Y-90210680D02*
X232102109Y-91027544D01*
X196552109Y-163577544D02*
X196552109Y-157677544D01*
X247700109Y-104675544D02*
X250102109Y-107077544D01*
X306852109Y-155327544D02*
X304152109Y-152627544D01*
X307802109Y-98664429D02*
X307802109Y-98327544D01*
X288752109Y-114714429D02*
X288752109Y-114277544D01*
X232902109Y-112427544D02*
X232902109Y-110677544D01*
X251153109Y-91288734D02*
X247700109Y-94741734D01*
X268702109Y-113627544D02*
X268452109Y-113627544D01*
X211638717Y-150377821D02*
X212201832Y-150377821D01*
X270203109Y-90919935D02*
X270203109Y-92139659D01*
X308303109Y-99165429D02*
X307802109Y-98664429D01*
X251153109Y-88728544D02*
X251153109Y-91288734D01*
X199152109Y-155077544D02*
X203851832Y-150377821D01*
X250302109Y-107081544D02*
X250552109Y-107331544D01*
X231080499Y-90210680D02*
X231285245Y-90210680D01*
X268202109Y-146677544D02*
X268864593Y-146677544D01*
X269598292Y-128419783D02*
X269598292Y-128660612D01*
X228650109Y-116679544D02*
X232902109Y-112427544D01*
X211133204Y-98208639D02*
X209600109Y-99741734D01*
X231080499Y-90210680D02*
X231218973Y-90210680D01*
X247700109Y-124025544D02*
X247700109Y-114391734D01*
X289253109Y-96165429D02*
X289253109Y-99226544D01*
X251153109Y-110938734D02*
X251153109Y-107932544D01*
X308303109Y-119189659D02*
X308303109Y-118215429D01*
X232902109Y-129327544D02*
X231202109Y-127627544D01*
X285800109Y-139791734D02*
X285800109Y-140079544D01*
X212201832Y-150377821D02*
X211348386Y-150377821D01*
X308303109Y-140376544D02*
X308303109Y-136228544D01*
X288902109Y-133527544D02*
X288902109Y-133914429D01*
X232102109Y-91027544D02*
X232102109Y-92140659D01*
X285800109Y-140079544D02*
X285502109Y-140377544D01*
X213302109Y-133877544D02*
X213302109Y-132497618D01*
X308303109Y-136228544D02*
X307802109Y-135727544D01*
X247700109Y-94741734D02*
X247700109Y-104675544D01*
X289253109Y-99226544D02*
X285252109Y-103227544D01*
X210701109Y-157376792D02*
X210701109Y-151315429D01*
X213053109Y-113155423D02*
X212182824Y-112285138D01*
X269598292Y-128660612D02*
X270203109Y-129265429D01*
X285502109Y-140377544D02*
X285502109Y-149388886D01*
X228650109Y-134929544D02*
X232902109Y-130677544D01*
X285252109Y-103227544D02*
X285252109Y-110777544D01*
X209600109Y-109702423D02*
X212182824Y-112285138D01*
X288581523Y-95293107D02*
X288502251Y-95372379D01*
X232102109Y-92140659D02*
X228650109Y-95592659D01*
X209600109Y-148629544D02*
X209600109Y-137579544D01*
X231252109Y-147277544D02*
X228650109Y-144675544D01*
X304152109Y-106377544D02*
X308303109Y-102226544D01*
X195287109Y-116617544D02*
X195287109Y-115337544D01*
X195287109Y-107717544D02*
X205447109Y-97557544D01*
X195287109Y-115337544D02*
X195287109Y-107717544D01*
X196547109Y-117877544D02*
X195287109Y-116617544D01*
X204244809Y-113999844D02*
X204244809Y-99397653D01*
X206649409Y-98055553D02*
X206649409Y-94519535D01*
X204882618Y-98759844D02*
X205945118Y-98759844D01*
X202907109Y-115337544D02*
X204244809Y-113999844D01*
X204244809Y-88599844D02*
X204244809Y-91870244D01*
X204244809Y-91884844D02*
X204252109Y-91877544D01*
X204244809Y-91870244D02*
X204252109Y-91877544D01*
X204244809Y-92975553D02*
X204244809Y-91884844D01*
X204244809Y-99397653D02*
X204882618Y-98759844D01*
X205447109Y-87397544D02*
X204244809Y-88599844D01*
X206649409Y-94519535D02*
X205809718Y-93679844D01*
X205945118Y-98759844D02*
X206649409Y-98055553D01*
X205809718Y-93679844D02*
X204949100Y-93679844D01*
X204949100Y-93679844D02*
X204244809Y-92975553D01*
X192747109Y-116617544D02*
X192747109Y-115337544D01*
X192747109Y-107717544D02*
X205447109Y-95017544D01*
X194007109Y-117877544D02*
X192747109Y-116617544D01*
X192747109Y-115337544D02*
X192747109Y-107717544D01*
X303377109Y-127827544D02*
X303377109Y-146952544D01*
X304202109Y-100103544D02*
X303427109Y-100878544D01*
X303427109Y-109277544D02*
X303651109Y-109501544D01*
X303377109Y-146952544D02*
X303602109Y-147177544D01*
X303602109Y-147177544D02*
X303427109Y-147177544D01*
X303651109Y-127827544D02*
X303377109Y-127827544D01*
X303651109Y-109501544D02*
X303651109Y-127827544D01*
X303427109Y-100878544D02*
X303427109Y-109277544D01*
X285552109Y-97727544D02*
X285102109Y-98177544D01*
X284677109Y-106027544D02*
X284527109Y-105877544D01*
X284677109Y-125277544D02*
X284677109Y-106027544D01*
X285552109Y-95227544D02*
X285552109Y-97727544D01*
X284702109Y-143827544D02*
X284702109Y-125302544D01*
X284527109Y-98752544D02*
X284527109Y-105877544D01*
X283452109Y-150813886D02*
X284702109Y-149563886D01*
X284702109Y-149563886D02*
X284702109Y-143827544D01*
X284702109Y-125302544D02*
X284677109Y-125277544D01*
X285552109Y-97727544D02*
X284527109Y-98752544D01*
X283452109Y-153577544D02*
X283452109Y-150813886D01*
X265652109Y-92103544D02*
X265652109Y-100602544D01*
X265427109Y-149802544D02*
X265427109Y-138827544D01*
X261402109Y-153827544D02*
X265427109Y-149802544D01*
X265427109Y-138827544D02*
X265427109Y-119677544D01*
X241352109Y-153827544D02*
X261402109Y-153827544D01*
X265427109Y-119677544D02*
X265727109Y-119377544D01*
X265777109Y-119327544D02*
X265727109Y-119377544D01*
X265777109Y-100727544D02*
X265777109Y-119327544D01*
X238702109Y-156477544D02*
X241352109Y-153827544D01*
X265652109Y-100602544D02*
X265777109Y-100727544D01*
X246852109Y-117604544D02*
X246975109Y-117727544D01*
X246852109Y-99127544D02*
X246852109Y-117604544D01*
X236902109Y-155577544D02*
X246975109Y-145504544D01*
X246952109Y-99027544D02*
X246852109Y-99127544D01*
X246975109Y-117727544D02*
X246975109Y-136877544D01*
X246952109Y-93002544D02*
X246952109Y-99027544D01*
X246975109Y-145504544D02*
X246975109Y-136877544D01*
X227902109Y-119354544D02*
X227925109Y-119377544D01*
X228452109Y-94677544D02*
X227925109Y-95204544D01*
X227925109Y-100477544D02*
X227902109Y-100500544D01*
X228199109Y-119651544D02*
X228199109Y-138253544D01*
X227925109Y-147104544D02*
X227925109Y-138527544D01*
X227902109Y-100500544D02*
X227902109Y-119354544D01*
X218502109Y-156527544D02*
X227925109Y-147104544D01*
X227925109Y-119377544D02*
X228199109Y-119651544D01*
X227925109Y-95204544D02*
X227925109Y-100477544D01*
X228199109Y-138253544D02*
X227925109Y-138527544D01*
X208875109Y-123804544D02*
X208875109Y-122727544D01*
X210752109Y-119539736D02*
X209149109Y-121142736D01*
X209149109Y-121142736D02*
X209149109Y-122453544D01*
X209149109Y-104151544D02*
X209149109Y-109889233D01*
X210701109Y-114189659D02*
X210752109Y-114240659D01*
X196852109Y-128477544D02*
X204202109Y-128477544D01*
X208549811Y-92229842D02*
X209792109Y-93472140D01*
X209149109Y-109889233D02*
X210752109Y-111492233D01*
X210752109Y-113164429D02*
X210701109Y-113215429D01*
X210752109Y-114240659D02*
X210752109Y-119539736D01*
X209149109Y-122453544D02*
X208875109Y-122727544D01*
X209792109Y-93472140D02*
X209792109Y-97137544D01*
X208875109Y-98054544D02*
X208875109Y-103877544D01*
X210701109Y-113215429D02*
X210701109Y-114189659D01*
X210752109Y-111492233D02*
X210752109Y-113164429D01*
X209792109Y-97137544D02*
X208875109Y-98054544D01*
X190207109Y-115802544D02*
X190207109Y-112797544D01*
X204202109Y-128477544D02*
X208875109Y-123804544D01*
X208875109Y-122727544D02*
X208875109Y-141827544D01*
X194732109Y-120327544D02*
X190207109Y-115802544D01*
X208875109Y-103877544D02*
X209149109Y-104151544D01*
X189227110Y-114698644D02*
X189004809Y-114476343D01*
X189004809Y-91139844D02*
X190207109Y-89937544D01*
X189004809Y-114476343D02*
X189004809Y-91139844D01*
X191053109Y-127126544D02*
X199002109Y-119177544D01*
X191001109Y-137676792D02*
X191001109Y-128353544D01*
X204674308Y-115826544D02*
X204703109Y-115826544D01*
X202803109Y-119053544D02*
X202803109Y-117726544D01*
X203751109Y-116778544D02*
X203751109Y-116749743D01*
X203751109Y-116749743D02*
X204674308Y-115826544D01*
X196452109Y-155127544D02*
X196452109Y-153724043D01*
X207102109Y-101752544D02*
X205447109Y-100097544D01*
X199002109Y-119177544D02*
X201352109Y-119177544D01*
X202803109Y-117726544D02*
X203751109Y-116778544D01*
X207102109Y-113427544D02*
X207102109Y-101752544D01*
X194003109Y-140678792D02*
X191001109Y-137676792D01*
X201352109Y-119177544D02*
X201476109Y-119053544D01*
X196452109Y-153724043D02*
X194003109Y-151275043D01*
X201476109Y-119053544D02*
X202803109Y-119053544D01*
X204703109Y-115826544D02*
X207102109Y-113427544D01*
X194003109Y-151275043D02*
X194003109Y-140678792D01*
X191053109Y-128353544D02*
X191053109Y-127126544D01*
X191001109Y-128353544D02*
X191053109Y-128353544D01*
X305301109Y-111340124D02*
X311613689Y-105027544D01*
X305301109Y-114101792D02*
X305301109Y-111340124D01*
X307200861Y-116001544D02*
X305301109Y-114101792D01*
X308726109Y-116001544D02*
X307200861Y-116001544D01*
X311613689Y-105027544D02*
X313702109Y-105027544D01*
X316952109Y-101777544D02*
X316952109Y-99927544D01*
X309477109Y-117402544D02*
X309802109Y-117077544D01*
X309802109Y-117077544D02*
X308726109Y-116001544D01*
X313702109Y-105027544D02*
X316952109Y-101777544D01*
X309477109Y-120777544D02*
X309477109Y-117402544D01*
X208820552Y-120445987D02*
X208820552Y-113109101D01*
X208820552Y-113109101D02*
X209752109Y-112177544D01*
X209902109Y-112027544D02*
X209902109Y-111977544D01*
X209752109Y-112177544D02*
X209902109Y-112027544D01*
X319216679Y-151470134D02*
X319216679Y-139392114D01*
X316702109Y-136877544D02*
X316702109Y-137054458D01*
X319216679Y-139392114D02*
X316702109Y-136877544D01*
X204102109Y-149102239D02*
X204102109Y-143527544D01*
X202477108Y-150727240D02*
X204102109Y-149102239D01*
X204102109Y-143527544D02*
X202502109Y-141927544D01*
X64889864Y-180913493D02*
X64973625Y-180829732D01*
X69380986Y-184569733D02*
X69380986Y-188577544D01*
X65640985Y-180829732D02*
X69380986Y-184569733D01*
X64973625Y-180829732D02*
X65640985Y-180829732D01*
X74026607Y-188577544D02*
X82476606Y-188577544D01*
X65505754Y-180056691D02*
X74026607Y-188577544D01*
X65405514Y-180056691D02*
X65505754Y-180056691D01*
X66126603Y-175481924D02*
X69380986Y-175481924D01*
X65328795Y-175479732D02*
X66124411Y-175479732D01*
X66124411Y-175479732D02*
X66126603Y-175481924D01*
X67006607Y-180919734D02*
X77038796Y-180919734D01*
X66228795Y-180141922D02*
X67006607Y-180919734D01*
X66253799Y-179527146D02*
X66228795Y-179552150D01*
X66228795Y-179552150D02*
X66228795Y-180141922D01*
X178501607Y-126377544D02*
X178501607Y-126827544D01*
X178001607Y-127327544D02*
X178001607Y-128102544D01*
X178501607Y-126827544D02*
X178001607Y-127327544D01*
X178001607Y-128102544D02*
X178026607Y-128127544D01*
X118776607Y-89277544D02*
X115876607Y-92177544D01*
X89494755Y-147133072D02*
X89832135Y-147133072D01*
X107999227Y-144124544D02*
X107535983Y-144124544D01*
X127569755Y-128058072D02*
X128170799Y-128058072D01*
X128827607Y-131077544D02*
X128827607Y-138388124D01*
X111188187Y-130389124D02*
X109727607Y-128928544D01*
X127836905Y-168477544D02*
X132717905Y-173358544D01*
X128802607Y-109076824D02*
X128735453Y-109009670D01*
X70684065Y-114272382D02*
X67989671Y-111577988D01*
X125175607Y-103940124D02*
X134826607Y-94289124D01*
X115876607Y-92177544D02*
X115776607Y-92177544D01*
X77023409Y-152036390D02*
X77676607Y-152689588D01*
X90471079Y-109797262D02*
X90471079Y-109408352D01*
X128477327Y-146651544D02*
X128902607Y-147076824D01*
X172751607Y-163652544D02*
X170375317Y-161276254D01*
X96726607Y-94077544D02*
X96726607Y-90539588D01*
X77676607Y-152689588D02*
X77688651Y-152689588D01*
X71627607Y-143438124D02*
X71627607Y-135777544D01*
X128827607Y-138388124D02*
X125175607Y-142040124D01*
X109402607Y-88303544D02*
X108250607Y-87151544D01*
X115776607Y-111339124D02*
X111138187Y-111339124D01*
X48976607Y-130989124D02*
X48976607Y-133927544D01*
X125175607Y-125663924D02*
X127569755Y-128058072D01*
X128376607Y-108577544D02*
X127314417Y-108577544D01*
X52627607Y-136714880D02*
X52627607Y-139006822D01*
X68025607Y-149713924D02*
X68175607Y-149863924D01*
X109120799Y-107008072D02*
X108519755Y-107008072D01*
X48975607Y-152713924D02*
X49125607Y-152863924D01*
X90727607Y-111928544D02*
X90727607Y-110053790D01*
X172751607Y-164017175D02*
X172751607Y-163652544D01*
X72163187Y-118339124D02*
X71676607Y-117852544D01*
X87089687Y-143477084D02*
X87075607Y-143491164D01*
X109740260Y-145089171D02*
X109314980Y-144663891D01*
X77676607Y-137389124D02*
X73088187Y-137389124D01*
X57993563Y-155056544D02*
X59914563Y-156977544D01*
X109546079Y-107822262D02*
X109546079Y-107433352D01*
X89519755Y-128108072D02*
X90120799Y-128108072D01*
X87075607Y-144713924D02*
X89494755Y-147133072D01*
X71068282Y-133160589D02*
X70522272Y-133160589D01*
X127314417Y-108577544D02*
X126215417Y-107478544D01*
X107535983Y-144124544D02*
X106275607Y-142864168D01*
X169439408Y-160340345D02*
X163570315Y-154471252D01*
X96726607Y-90539588D02*
X96064563Y-89877544D01*
X51019683Y-116658000D02*
X48975607Y-114613924D01*
X48975607Y-114613924D02*
X48975607Y-111876596D01*
X89895771Y-147182234D02*
X90678607Y-147965070D01*
X158976607Y-92258486D02*
X161020665Y-92258486D01*
X180479607Y-94561805D02*
X180479607Y-106078204D01*
X109312954Y-144663891D02*
X109075607Y-144426544D01*
X68175607Y-149876544D02*
X70335453Y-152036390D01*
X109740260Y-145091197D02*
X109740260Y-145089171D01*
X129988187Y-132389124D02*
X134826607Y-132389124D01*
X71493562Y-133585869D02*
X71068282Y-133160589D01*
X91976607Y-151377544D02*
X96726607Y-151377544D01*
X106275607Y-142864168D02*
X106275607Y-142863924D01*
X115776607Y-130389124D02*
X111188187Y-130389124D01*
X96726607Y-113301544D02*
X92100607Y-113301544D01*
X168151665Y-154471252D02*
X163001607Y-154471252D01*
X109145798Y-126083073D02*
X108544756Y-126083073D01*
X87075607Y-106613924D02*
X87075607Y-103839852D01*
X173270402Y-164533749D02*
X173539590Y-164802937D01*
X128735453Y-109009670D02*
X128735453Y-108936390D01*
X111138187Y-111339124D02*
X109727607Y-109928544D01*
X128902607Y-149940454D02*
X130239697Y-151277544D01*
X58626607Y-102225596D02*
X58626607Y-101924028D01*
X181233208Y-108059145D02*
X181233208Y-117420943D01*
X108519755Y-107008072D02*
X106125607Y-104613924D01*
X106125607Y-142713924D02*
X106125607Y-140040124D01*
X180479607Y-106078204D02*
X180754607Y-106353204D01*
X90471079Y-109408352D02*
X90045799Y-108983072D01*
X147852607Y-113028790D02*
X147621079Y-112797262D01*
X90727607Y-110053790D02*
X90471079Y-109797262D01*
X125175607Y-144713924D02*
X127113227Y-146651544D01*
X90727607Y-138388124D02*
X90727607Y-131328544D01*
X180333206Y-93245945D02*
X180059206Y-93519945D01*
X109075607Y-144426544D02*
X108301227Y-144426544D01*
X90546079Y-128533352D02*
X90546079Y-128922262D01*
X59914563Y-156977544D02*
X60076607Y-156977544D01*
X161401607Y-89177544D02*
X162631607Y-87947544D01*
X156165027Y-135389124D02*
X153876607Y-135389124D01*
X180754607Y-106353204D02*
X180754607Y-107580544D01*
X77676607Y-118339124D02*
X72163187Y-118339124D01*
X90676607Y-150077544D02*
X91976607Y-151377544D01*
X147621079Y-112408352D02*
X147195799Y-111983072D01*
X58301301Y-121202238D02*
X57917211Y-121202238D01*
X134776607Y-151277544D02*
X134826607Y-151227544D01*
X109476607Y-170377544D02*
X124976607Y-170377544D01*
X170375317Y-161276254D02*
X170375317Y-161204965D01*
X109727607Y-109928544D02*
X109727607Y-108003790D01*
X110402607Y-146527924D02*
X110402607Y-146140428D01*
X71627607Y-134090734D02*
X71493562Y-133956689D01*
X148977607Y-97976544D02*
X149665027Y-97289124D01*
X107000227Y-124528544D02*
X106990227Y-124528544D01*
X149263187Y-116339124D02*
X147852607Y-114928544D01*
X147377327Y-149651544D02*
X146163227Y-149651544D01*
X146644756Y-131083073D02*
X147245798Y-131083073D01*
X147902607Y-141363124D02*
X147902607Y-132128792D01*
X77688651Y-152689588D02*
X79176607Y-154177544D01*
X128802607Y-109465734D02*
X128802607Y-109076824D01*
X111076607Y-92177544D02*
X109827607Y-90928544D01*
X58626607Y-121202238D02*
X58463954Y-121364891D01*
X125175607Y-106613924D02*
X125175607Y-103940124D01*
X51568761Y-116658000D02*
X51019683Y-116658000D01*
X106990227Y-124528544D02*
X106125607Y-123663924D01*
X91788187Y-132389124D02*
X96726607Y-132389124D01*
X147902607Y-133928544D02*
X149363187Y-135389124D01*
X68025607Y-127990124D02*
X71676607Y-124339124D01*
X109727607Y-127053792D02*
X109571078Y-126897263D01*
X128827607Y-131077544D02*
X128827607Y-131228544D01*
X51157135Y-136108072D02*
X52020799Y-136108072D01*
X163001607Y-154471252D02*
X153876607Y-154471252D01*
X71676607Y-114718914D02*
X71656769Y-114699076D01*
X109727607Y-136438124D02*
X109727607Y-128928544D01*
X52627607Y-117113404D02*
X52171202Y-116656999D01*
X109827607Y-90928544D02*
X109827607Y-89190734D01*
X77676607Y-99249020D02*
X77676607Y-95539473D01*
X144225607Y-106940124D02*
X148977607Y-102188124D01*
X109827607Y-89190734D02*
X109402607Y-88765734D01*
X96776607Y-94077544D02*
X96726607Y-94077544D01*
X126040227Y-107478544D02*
X125175607Y-106613924D01*
X111401607Y-149627544D02*
X110429607Y-148655544D01*
X106125607Y-101928544D02*
X115776607Y-92277544D01*
X52627607Y-127338124D02*
X48976607Y-130989124D01*
X126215417Y-107478544D02*
X126040227Y-107478544D01*
X128902607Y-147076824D02*
X128902607Y-149940454D01*
X153876607Y-116339124D02*
X149263187Y-116339124D01*
X53986003Y-121202238D02*
X53501301Y-121202238D01*
X90678607Y-147965070D02*
X90678607Y-149926469D01*
X144225607Y-125990124D02*
X147852607Y-122363124D01*
X52171202Y-116656999D02*
X51569762Y-116656999D01*
X124976607Y-170377544D02*
X126876607Y-168477544D01*
X128827607Y-131228544D02*
X129988187Y-132389124D01*
X52627607Y-139006822D02*
X54147628Y-140526843D01*
X173268181Y-164533749D02*
X173270402Y-164533749D01*
X90120799Y-128108072D02*
X90546079Y-128533352D01*
X108544756Y-126083073D02*
X107528607Y-125066924D01*
X173539590Y-166840527D02*
X173954111Y-167255048D01*
X107528607Y-125066924D02*
X107528607Y-125056924D01*
X96726607Y-113301544D02*
X96726607Y-113339124D01*
X48975607Y-111876596D02*
X58626607Y-102225596D01*
X181233208Y-117420943D02*
X180626608Y-118027543D01*
X70335453Y-152036390D02*
X77023409Y-152036390D01*
X147852607Y-114577544D02*
X147852607Y-113028790D01*
X144225607Y-128663924D02*
X146644756Y-131083073D01*
X149665027Y-97289124D02*
X153876607Y-97289124D01*
X110429607Y-148655544D02*
X110429607Y-146554924D01*
X71676607Y-124339124D02*
X71676607Y-117852544D01*
X49125607Y-152863924D02*
X49125607Y-152876544D01*
X77705131Y-99249020D02*
X77676607Y-99249020D01*
X110402607Y-146140428D02*
X109776607Y-145514428D01*
X89444755Y-108983072D02*
X87075607Y-106613924D01*
X128170799Y-128058072D02*
X128596079Y-128483352D01*
X103702607Y-87151544D02*
X96776607Y-94077544D01*
X71493562Y-133956689D02*
X71493562Y-133585869D01*
X71656769Y-114697662D02*
X71231489Y-114272382D01*
X161020665Y-92258486D02*
X161401607Y-91877544D01*
X149363187Y-135389124D02*
X153876607Y-135389124D01*
X109546079Y-107433352D02*
X109120799Y-107008072D01*
X128596079Y-128483352D02*
X128596079Y-128872262D01*
X71676607Y-117852544D02*
X71676607Y-114718914D01*
X96064563Y-89877544D02*
X86039807Y-89877544D01*
X108250607Y-87151544D02*
X103702607Y-87151544D01*
X147671078Y-131897263D02*
X147902607Y-132128792D01*
X127113227Y-146651544D02*
X128477327Y-146651544D01*
X52627607Y-120328544D02*
X52627607Y-117113404D01*
X52627607Y-120328544D02*
X52627607Y-127338124D01*
X173954111Y-167255048D02*
X173954111Y-170347376D01*
X68025607Y-147040124D02*
X71627607Y-143438124D01*
X73088187Y-137389124D02*
X71627607Y-135928544D01*
X90727607Y-131328544D02*
X91788187Y-132389124D01*
X169176607Y-122377544D02*
X156165027Y-135389124D01*
X109727607Y-128928544D02*
X109727607Y-127053792D01*
X70522272Y-133160589D02*
X68025607Y-130663924D01*
X126876607Y-168477544D02*
X127836905Y-168477544D01*
X134826607Y-113339124D02*
X129838187Y-113339124D01*
X106275607Y-142863924D02*
X106125607Y-142713924D01*
X180059206Y-94141404D02*
X180479607Y-94561805D01*
X87089687Y-142026044D02*
X90727607Y-138388124D01*
X71656769Y-114699076D02*
X71656769Y-114697662D01*
X108301227Y-144426544D02*
X107999227Y-144124544D01*
X129838187Y-113339124D02*
X128827607Y-112328544D01*
X174051607Y-118327544D02*
X174051607Y-117147544D01*
X134826607Y-94289124D02*
X134826607Y-90539473D01*
X107528607Y-125056924D02*
X107000227Y-124528544D01*
X125175607Y-142040124D02*
X125175607Y-144713924D01*
X51569762Y-116656999D02*
X51568761Y-116658000D01*
X169251607Y-122377544D02*
X169176607Y-122377544D01*
X109402607Y-88765734D02*
X109402607Y-88303544D01*
X90676607Y-149928469D02*
X90676607Y-150077544D01*
X134826607Y-113339124D02*
X125175607Y-122990124D01*
X134826607Y-90539473D02*
X134193678Y-89906544D01*
X144225607Y-145040124D02*
X147902607Y-141363124D01*
X71627607Y-135928544D02*
X71627607Y-134090734D01*
X54147628Y-140526843D02*
X57774968Y-140526843D01*
X90546079Y-128922262D02*
X90727607Y-129103790D01*
X144225607Y-125990124D02*
X144225607Y-128663924D01*
X106125607Y-120990124D02*
X115776607Y-111339124D01*
X87075607Y-143491164D02*
X87075607Y-144713924D01*
X147621079Y-112797262D02*
X147621079Y-112408352D01*
X128735453Y-108936390D02*
X128376607Y-108577544D01*
X146594359Y-111983072D02*
X146381720Y-112195711D01*
X180333206Y-93027544D02*
X180333206Y-93245945D01*
X53501301Y-121202238D02*
X52627607Y-120328544D01*
X115776607Y-149627544D02*
X111401607Y-149627544D01*
X153223480Y-150036390D02*
X147762173Y-150036390D01*
X147852607Y-114928544D02*
X147852607Y-114577544D01*
X109571078Y-126897263D02*
X109571078Y-126508353D01*
X89881297Y-147182234D02*
X89895771Y-147182234D01*
X147762173Y-150036390D02*
X147377327Y-149651544D01*
X125405607Y-89906544D02*
X124776607Y-89277544D01*
X51305607Y-155056544D02*
X57993563Y-155056544D01*
X144225607Y-147713924D02*
X144225607Y-145040124D01*
X90678607Y-149926469D02*
X90676607Y-149928469D01*
X109776607Y-145514428D02*
X109776607Y-145127544D01*
X68175607Y-149863924D02*
X68175607Y-149876544D01*
X130239697Y-151277544D02*
X134776607Y-151277544D01*
X109314980Y-144663891D02*
X109312954Y-144663891D01*
X53992309Y-121208544D02*
X53986003Y-121202238D01*
X87089687Y-142026044D02*
X87089687Y-143477084D01*
X107776607Y-168677544D02*
X109476607Y-170377544D01*
X65673091Y-94877544D02*
X58626607Y-101924028D01*
X48976607Y-133927544D02*
X51157135Y-136108072D01*
X172926607Y-144777544D02*
X172926607Y-151346194D01*
X180626608Y-118027543D02*
X180626608Y-120156444D01*
X147902607Y-132128792D02*
X147902607Y-133928544D01*
X147245798Y-131083073D02*
X147671078Y-131508353D01*
X172926607Y-151346194D02*
X168976607Y-155296194D01*
X57776404Y-140525407D02*
X57763114Y-140538697D01*
X71231489Y-114272382D02*
X70684065Y-114272382D01*
X128827607Y-112328544D02*
X128827607Y-109490734D01*
X161401607Y-91877544D02*
X161401607Y-89177544D01*
X49125607Y-152876544D02*
X51305607Y-155056544D01*
X87075607Y-122990124D02*
X87075607Y-125663924D01*
X58463954Y-121364891D02*
X58301301Y-121202238D01*
X148977607Y-102188124D02*
X148977607Y-97976544D01*
X106125607Y-104613924D02*
X106125607Y-101928544D01*
X77676607Y-95539473D02*
X77014678Y-94877544D01*
X109727607Y-108003790D02*
X109546079Y-107822262D01*
X163570315Y-154471252D02*
X163001607Y-154471252D01*
X57774968Y-140526843D02*
X57776404Y-140525407D01*
X85586527Y-90330824D02*
X85586527Y-91367624D01*
X87075607Y-103839852D02*
X96726607Y-94188852D01*
X174051607Y-117147544D02*
X172791607Y-115887544D01*
X180059206Y-93519945D02*
X180059206Y-94141404D01*
X106125607Y-123663924D02*
X106125607Y-120990124D01*
X149184123Y-174685060D02*
X145976607Y-171477544D01*
X57917211Y-121202238D02*
X57910905Y-121208544D01*
X128596079Y-128872262D02*
X128827607Y-129103790D01*
X96726607Y-113339124D02*
X87075607Y-122990124D01*
X170375317Y-161204965D02*
X169510697Y-160340345D01*
X85586527Y-91367624D02*
X77705131Y-99249020D01*
X128827607Y-129103790D02*
X128827607Y-131077544D01*
X52020799Y-136108072D02*
X52627607Y-136714880D01*
X106125607Y-140040124D02*
X109727607Y-136438124D01*
X169616427Y-174685060D02*
X149184123Y-174685060D01*
X77014678Y-94877544D02*
X65673091Y-94877544D01*
X180754607Y-107580544D02*
X181233208Y-108059145D01*
X169510697Y-160340345D02*
X169439408Y-160340345D01*
X147852607Y-122363124D02*
X147852607Y-114577544D01*
X125175607Y-122990124D02*
X125175607Y-125663924D01*
X90727607Y-129103790D02*
X90727607Y-131328544D01*
X115776607Y-92277544D02*
X115776607Y-92177544D01*
X57910905Y-121208544D02*
X53992309Y-121208544D01*
X147671078Y-131508353D02*
X147671078Y-131897263D01*
X52627607Y-146388124D02*
X48975607Y-150040124D01*
X144225607Y-110039598D02*
X144225607Y-106940124D01*
X147195799Y-111983072D02*
X146594359Y-111983072D01*
X134193678Y-89906544D02*
X125405607Y-89906544D01*
X146163227Y-149651544D02*
X144225607Y-147713924D01*
X109776607Y-145127544D02*
X109740260Y-145091197D01*
X68025607Y-130663924D02*
X68025607Y-127990124D01*
X90045799Y-108983072D02*
X89444755Y-108983072D01*
X92100607Y-113301544D02*
X90727607Y-111928544D01*
X128827607Y-109490734D02*
X128802607Y-109465734D01*
X68025607Y-147040124D02*
X68025607Y-149713924D01*
X173954111Y-170347376D02*
X169616427Y-174685060D01*
X173539590Y-164802937D02*
X173539590Y-166840527D01*
X115776607Y-92177544D02*
X111076607Y-92177544D01*
X124776607Y-89277544D02*
X118776607Y-89277544D01*
X132717905Y-173358544D02*
X144095607Y-173358544D01*
X146381720Y-112195711D02*
X144225607Y-110039598D01*
X110429607Y-146554924D02*
X110402607Y-146527924D01*
X153876607Y-154471252D02*
X153876607Y-150689517D01*
X168976607Y-155296194D02*
X168151665Y-154471252D01*
X86039807Y-89877544D02*
X85586527Y-90330824D01*
X67989671Y-111577988D02*
X67989671Y-108935956D01*
X89832135Y-147133072D02*
X89881297Y-147182234D01*
X153876607Y-150689517D02*
X153223480Y-150036390D01*
X48975607Y-150040124D02*
X48975607Y-152713924D01*
X96726607Y-94188852D02*
X96726607Y-94077544D01*
X52627607Y-139006822D02*
X52627607Y-146388124D01*
X109571078Y-126508353D02*
X109145798Y-126083073D01*
X87075607Y-125663924D02*
X89519755Y-128108072D01*
X67989671Y-108935956D02*
X77676607Y-99249020D01*
X173268181Y-164533749D02*
X172751607Y-164017175D01*
X144095607Y-173358544D02*
X145976607Y-171477544D01*
X171453907Y-116606728D02*
X171453907Y-115389535D01*
X177302607Y-134841354D02*
X177302605Y-134841350D01*
X177239383Y-134690320D02*
X177302607Y-134627097D01*
X173326607Y-120912090D02*
X173326607Y-119905544D01*
X177302607Y-132927992D02*
X173908953Y-129534337D01*
X178576607Y-151177544D02*
X177226607Y-149827544D01*
X173326607Y-119905544D02*
X172687607Y-119266544D01*
X177302607Y-134627097D02*
X177302607Y-132927992D01*
X173317050Y-120921647D02*
X173326607Y-120912090D01*
X177302607Y-134753544D02*
X177239383Y-134690320D01*
X171453907Y-115389535D02*
X171576607Y-115266835D01*
X177325607Y-143254204D02*
X177325607Y-138136924D01*
X173317050Y-122293607D02*
X173317050Y-120921647D01*
X171576607Y-115266835D02*
X171576607Y-107927544D01*
X172687607Y-117840428D02*
X171453907Y-116606728D01*
X177302607Y-138113924D02*
X177302607Y-134841354D01*
X171589307Y-107769535D02*
X176171298Y-103187544D01*
X171576607Y-107927544D02*
X171589307Y-107914844D01*
X171589307Y-107914844D02*
X171589307Y-107769535D01*
X177226607Y-149827544D02*
X177226607Y-143353204D01*
X177226607Y-143353204D02*
X177325607Y-143254204D01*
X177302605Y-134841350D02*
X177302607Y-134753544D01*
X173908953Y-122885510D02*
X173317050Y-122293607D01*
X176171298Y-103187544D02*
X177871607Y-103187544D01*
X177325607Y-138136924D02*
X177302607Y-138113924D01*
X173908953Y-129534337D02*
X173908953Y-122885510D01*
X172687607Y-119266544D02*
X172687607Y-117840428D01*
X177753607Y-132741182D02*
X174359953Y-129347527D01*
X174527607Y-114991235D02*
X174527607Y-109163853D01*
X177753607Y-134654544D02*
X177753609Y-134440290D01*
X174129307Y-107769535D02*
X174833598Y-107065244D01*
X177776607Y-134677544D02*
X177753607Y-134654544D01*
X173768050Y-122106797D02*
X173768050Y-121108457D01*
X174129307Y-116385553D02*
X174129307Y-115389535D01*
X176181762Y-107417389D02*
X177871607Y-105727544D01*
X174833598Y-107065244D02*
X175829616Y-107065244D01*
X175227607Y-117328544D02*
X174988907Y-117089844D01*
X174129307Y-108765553D02*
X174129307Y-107769535D01*
X174261953Y-120614554D02*
X174261953Y-120296185D01*
X177677607Y-143540014D02*
X177776607Y-143441014D01*
X177776607Y-143441014D02*
X177776607Y-134677544D01*
X178626607Y-148777544D02*
X177677607Y-147828544D01*
X177677607Y-147828544D02*
X177677607Y-143540014D01*
X177753609Y-134440290D02*
X177753607Y-134440288D01*
X174359953Y-129347527D02*
X174359953Y-122698700D01*
X174833598Y-117089844D02*
X174129307Y-116385553D01*
X174687233Y-119870905D02*
X175227607Y-119870905D01*
X174527607Y-109163853D02*
X174129307Y-108765553D01*
X174359953Y-122698700D02*
X173768050Y-122106797D01*
X174261953Y-120296185D02*
X174687233Y-119870905D01*
X177753607Y-134440288D02*
X177753607Y-132741182D01*
X173768050Y-121108457D02*
X174261953Y-120614554D01*
X174988907Y-117089844D02*
X174833598Y-117089844D01*
X174129307Y-115389535D02*
X174527607Y-114991235D01*
X175829616Y-107065244D02*
X176181762Y-107417389D01*
X175227607Y-119870905D02*
X175227607Y-117328544D01*
X174219050Y-121295267D02*
X174219050Y-121919987D01*
X178128607Y-145829544D02*
X178726607Y-146427544D01*
X174810953Y-129160717D02*
X178274607Y-132624371D01*
X174714871Y-120869987D02*
X174644330Y-120869987D01*
X174810953Y-122511890D02*
X174810953Y-129160717D01*
X174644330Y-120869987D02*
X174219050Y-121295267D01*
X178274607Y-132624371D02*
X178274607Y-143580824D01*
X178128607Y-143726824D02*
X178128607Y-145829544D01*
X178274607Y-143580824D02*
X178128607Y-143726824D01*
X174219050Y-121919987D02*
X174810953Y-122511890D01*
X174987953Y-120596905D02*
X174714871Y-120869987D01*
X174945050Y-121771607D02*
X175261953Y-122088510D01*
X178725607Y-143767634D02*
X178660152Y-143833089D01*
X178725607Y-132437561D02*
X178725607Y-143767634D01*
X174945050Y-121595987D02*
X174945050Y-121771607D01*
X175261953Y-128973907D02*
X178725607Y-132437561D01*
X175261953Y-122088510D02*
X175261953Y-128973907D01*
X178660152Y-143833089D02*
X178854607Y-144027544D01*
X160940288Y-147813863D02*
X163226607Y-145527544D01*
X163226607Y-131401544D02*
X165616155Y-129011996D01*
X163276607Y-153477544D02*
X160940288Y-151141225D01*
X163226607Y-145527544D02*
X163226607Y-131401544D01*
X160940288Y-151141225D02*
X160940288Y-147813863D01*
X50832873Y-117109000D02*
X48524607Y-114800734D01*
X48526607Y-130801314D02*
X48526607Y-134227544D01*
X134202607Y-155276824D02*
X134202607Y-155878264D01*
X146257271Y-112709072D02*
X143774607Y-110226408D01*
X126086027Y-156303544D02*
X124286027Y-154503544D01*
X118476607Y-166977544D02*
X117605607Y-166106544D01*
X165802607Y-119503544D02*
X164501607Y-118202544D01*
X147401607Y-122176314D02*
X143774607Y-125803314D01*
X162774518Y-172397110D02*
X162774518Y-172184977D01*
X96576607Y-161177544D02*
X91776607Y-156377544D01*
X99376607Y-167077544D02*
X99376607Y-166539924D01*
X51133135Y-136834072D02*
X51720079Y-136834072D01*
X143774607Y-106753314D02*
X148526607Y-102001314D01*
X89607945Y-128834072D02*
X89820079Y-128834072D01*
X127870079Y-128784072D02*
X128376607Y-129290600D01*
X100347607Y-166106544D02*
X99376607Y-167077544D01*
X90225607Y-149741659D02*
X90225607Y-150264354D01*
X51720079Y-137307901D02*
X52127607Y-137715429D01*
X48674607Y-153063354D02*
X51118797Y-155507544D01*
X67574607Y-146853314D02*
X67574607Y-149900734D01*
X164501607Y-118202544D02*
X164501607Y-117127544D01*
X70785652Y-133886589D02*
X71176607Y-134277544D01*
X88676607Y-156377544D02*
X90225607Y-154828544D01*
X124724607Y-144900734D02*
X127201417Y-147377544D01*
X70720079Y-152834072D02*
X72466308Y-154580301D01*
X70767562Y-133886589D02*
X70610462Y-133886589D01*
X147451607Y-141176314D02*
X143774607Y-144853314D01*
X128376607Y-91277544D02*
X127876607Y-90777544D01*
X126028607Y-107929544D02*
X125853417Y-107929544D01*
X133777327Y-156303544D02*
X126086027Y-156303544D01*
X127476607Y-109377544D02*
X126028607Y-107929544D01*
X105800837Y-139703314D02*
X105824607Y-139703314D01*
X128176607Y-147377544D02*
X128327607Y-147528544D01*
X147451607Y-132315602D02*
X147451607Y-141176314D01*
X124724607Y-106800734D02*
X124724607Y-103753314D01*
X67724607Y-150050734D02*
X67724607Y-150063354D01*
X128076607Y-109377544D02*
X128376607Y-109677544D01*
X138467649Y-169086502D02*
X137476607Y-170077544D01*
X127657945Y-128784072D02*
X127870079Y-128784072D01*
X83576607Y-156377544D02*
X88676607Y-156377544D01*
X109276607Y-117201314D02*
X109276607Y-108190600D01*
X72466308Y-154580301D02*
X72466308Y-155867245D01*
X146945078Y-131809073D02*
X147451607Y-132315602D01*
X118476607Y-166977544D02*
X119347607Y-166106544D01*
X167976607Y-172446194D02*
X167976607Y-172447467D01*
X171511607Y-118327544D02*
X170335607Y-119503544D01*
X48524607Y-114800734D02*
X48524607Y-111689786D01*
X90576607Y-90777544D02*
X89676607Y-90777544D01*
X109276607Y-127240602D02*
X108845078Y-126809073D01*
X71176607Y-105111210D02*
X71176607Y-95977544D01*
X109276607Y-136251314D02*
X109276607Y-127240602D01*
X89745079Y-109709072D02*
X90276607Y-110240600D01*
X147401607Y-113215600D02*
X147401607Y-122176314D01*
X86638687Y-143290274D02*
X86638687Y-141839234D01*
X89582945Y-147896128D02*
X89582945Y-147859072D01*
X70767562Y-133886589D02*
X70785652Y-133886589D01*
X71176607Y-95977544D02*
X70876607Y-95677544D01*
X109951607Y-146327238D02*
X109951607Y-146714734D01*
X90227607Y-148328544D02*
X90227607Y-149739659D01*
X89595051Y-147908234D02*
X89607269Y-147896016D01*
X148626607Y-92977544D02*
X149076607Y-92977544D01*
X86624607Y-106800734D02*
X86624607Y-103653042D01*
X86638687Y-141839234D02*
X90276607Y-138201314D01*
X106813417Y-124979544D02*
X106803417Y-124979544D01*
X86624607Y-103653042D02*
X91372679Y-98904970D01*
X72466308Y-155887843D02*
X68976607Y-159377544D01*
X86624607Y-122803314D02*
X86624607Y-125850734D01*
X51928868Y-117382999D02*
X52176607Y-117630738D01*
X148526607Y-102001314D02*
X148526607Y-95327544D01*
X143774607Y-147900734D02*
X146251417Y-150377544D01*
X67538671Y-111764798D02*
X67538671Y-108749146D01*
X48524607Y-149853314D02*
X48524607Y-152900734D01*
X105824607Y-139703314D02*
X109276607Y-136251314D01*
X134202607Y-155878264D02*
X133777327Y-156303544D01*
X51720079Y-136834072D02*
X51720079Y-137307901D01*
X90276607Y-129290600D02*
X89820079Y-128834072D01*
X67724607Y-150063354D02*
X70495327Y-152834072D01*
X147076607Y-150377544D02*
X139101887Y-150377544D01*
X128376607Y-129290600D02*
X128376607Y-138201314D01*
X90276607Y-138201314D02*
X90276607Y-129290600D01*
X70610462Y-133886589D02*
X67574607Y-130850734D01*
X165011898Y-173111730D02*
X164861898Y-173261730D01*
X51118797Y-155507544D02*
X51343549Y-155507544D01*
X139101887Y-150377544D02*
X134202607Y-155276824D01*
X48674607Y-153050734D02*
X48674607Y-153063354D01*
X67574607Y-130850734D02*
X67574607Y-127803314D01*
X125853417Y-107929544D02*
X124724607Y-106800734D01*
X89595051Y-147908234D02*
X89582945Y-147896128D01*
X161125607Y-113751544D02*
X161125607Y-94533544D01*
X148064724Y-93539427D02*
X148626607Y-92977544D01*
X72976607Y-156377544D02*
X83576607Y-156377544D01*
X109014260Y-145389891D02*
X108501913Y-144877544D01*
X107077607Y-125253734D02*
X107077607Y-125243734D01*
X128327607Y-147528544D02*
X128327607Y-150003264D01*
X109014260Y-145389891D02*
X109951607Y-146327238D01*
X171511607Y-118167544D02*
X170251607Y-116907544D01*
X70930769Y-115031706D02*
X70930769Y-114998382D01*
X91372679Y-98904970D02*
X91372679Y-91573616D01*
X109978607Y-149016736D02*
X114094651Y-153132780D01*
X107324607Y-144575544D02*
X105627607Y-142878544D01*
X119347607Y-166106544D02*
X133505607Y-166106544D01*
X117605607Y-166106544D02*
X100347607Y-166106544D01*
X96576607Y-163739924D02*
X96576607Y-161177544D01*
X70772255Y-114998382D02*
X67538671Y-111764798D01*
X170335607Y-119503544D02*
X165802607Y-119503544D01*
X162774518Y-172184977D02*
X159676043Y-169086502D01*
X161125607Y-94533544D02*
X162631607Y-93027544D01*
X67574607Y-149900734D02*
X67724607Y-150050734D01*
X124724607Y-103753314D02*
X128376607Y-100101314D01*
X162631607Y-93027544D02*
X162587549Y-92983486D01*
X86624607Y-125850734D02*
X89607945Y-128834072D01*
X127201417Y-147377544D02*
X128176607Y-147377544D01*
X146895079Y-112709072D02*
X147401607Y-113215600D01*
X105627607Y-139876544D02*
X105800837Y-139703314D01*
X164501607Y-117127544D02*
X161125607Y-113751544D01*
X52127607Y-108086786D02*
X52127607Y-98992988D01*
X159676043Y-169086502D02*
X138467649Y-169086502D01*
X114777327Y-153051544D02*
X115202607Y-153476824D01*
X106803417Y-124979544D02*
X105674607Y-123850734D01*
X86624607Y-143304354D02*
X86638687Y-143290274D01*
X89532945Y-109709072D02*
X86624607Y-106800734D01*
X128376607Y-109677544D02*
X128376607Y-119151314D01*
X53924491Y-159377544D02*
X53400549Y-158853602D01*
X53400549Y-158853602D02*
X53400549Y-157564544D01*
X67538671Y-108749146D02*
X71176607Y-105111210D01*
X52127607Y-146250314D02*
X48524607Y-149853314D01*
X143774607Y-125803314D02*
X143774607Y-128850734D01*
X149076607Y-92977544D02*
X149082549Y-92983486D01*
X70495327Y-152834072D02*
X70720079Y-152834072D01*
X90227607Y-149739659D02*
X90225607Y-149741659D01*
X124724607Y-122803314D02*
X124724607Y-125850734D01*
X159575549Y-92983486D02*
X161125607Y-94533544D01*
X94464797Y-154503544D02*
X114777327Y-154503544D01*
X52127607Y-137715429D02*
X52127607Y-146250314D01*
X167976607Y-172447467D02*
X167312344Y-173111730D01*
X105627607Y-142878544D02*
X105627607Y-139876544D01*
X146876607Y-93677544D02*
X147014724Y-93539427D01*
X51343549Y-155507544D02*
X51645078Y-155809073D01*
X72466308Y-155867245D02*
X72976607Y-156377544D01*
X128376607Y-119151314D02*
X124724607Y-122803314D01*
X147014724Y-93539427D02*
X148064724Y-93539427D01*
X89795079Y-147896016D02*
X90227607Y-148328544D01*
X146895079Y-112709072D02*
X146257271Y-112709072D01*
X71176607Y-124201314D02*
X71176607Y-115277544D01*
X108820079Y-107734072D02*
X108607945Y-107734072D01*
X108501913Y-144877544D02*
X108114417Y-144877544D01*
X143774607Y-128850734D02*
X146732946Y-131809073D01*
X70930769Y-114998382D02*
X70772255Y-114998382D01*
X89582945Y-147859072D02*
X86624607Y-144900734D01*
X107077607Y-125243734D02*
X106813417Y-124979544D01*
X114175887Y-153051544D02*
X114777327Y-153051544D01*
X86624607Y-144900734D02*
X86624607Y-143304354D01*
X114094651Y-153132780D02*
X114175887Y-153051544D01*
X115202607Y-154078264D02*
X114777327Y-154503544D01*
X53400549Y-157564544D02*
X51645078Y-155809073D01*
X90225607Y-154828544D02*
X90225607Y-150264354D01*
X146251417Y-150377544D02*
X147076607Y-150377544D01*
X99376607Y-166539924D02*
X96576607Y-163739924D01*
X51794385Y-98659766D02*
X51784431Y-98649812D01*
X105674607Y-123850734D02*
X105674607Y-120803314D01*
X72466308Y-155867245D02*
X72466308Y-155887843D01*
X52176607Y-117630738D02*
X52176607Y-127151314D01*
X48524607Y-152900734D02*
X48674607Y-153050734D01*
X51870482Y-117382999D02*
X51928868Y-117382999D01*
X90276607Y-119151314D02*
X86624607Y-122803314D01*
X71176607Y-143251314D02*
X67574607Y-146853314D01*
X109951607Y-146714734D02*
X109978607Y-146741734D01*
X128376607Y-138201314D02*
X124724607Y-141853314D01*
X71176607Y-115277544D02*
X70930769Y-115031706D01*
X115202607Y-153476824D02*
X115202607Y-154078264D01*
X167312344Y-173111730D02*
X165011898Y-173111730D01*
X105674607Y-120803314D02*
X109276607Y-117201314D01*
X128376607Y-100101314D02*
X128376607Y-91277544D01*
X91776607Y-156377544D02*
X83576607Y-156377544D01*
X124724607Y-141853314D02*
X124724607Y-144900734D01*
X146732946Y-131809073D02*
X146945078Y-131809073D01*
X52127607Y-98992988D02*
X51794385Y-98659766D01*
X90276607Y-110240600D02*
X90276607Y-119151314D01*
X48524607Y-111689786D02*
X52127607Y-108086786D01*
X170251607Y-116907544D02*
X170251607Y-115887544D01*
X89745079Y-109709072D02*
X89532945Y-109709072D01*
X109376607Y-89377544D02*
X108676607Y-88677544D01*
X68976607Y-159377544D02*
X53924491Y-159377544D01*
X133175887Y-154851544D02*
X133777327Y-154851544D01*
X163639138Y-173261730D02*
X162774518Y-172397110D01*
X133777327Y-154851544D02*
X134202607Y-155276824D01*
X149082549Y-92983486D02*
X159575549Y-92983486D01*
X107812417Y-144575544D02*
X107324607Y-144575544D01*
X164861898Y-173261730D02*
X163639138Y-173261730D01*
X52176607Y-127151314D02*
X48526607Y-130801314D01*
X128076607Y-109377544D02*
X127476607Y-109377544D01*
X143774607Y-110226408D02*
X143774607Y-106753314D01*
X108845078Y-126809073D02*
X108632946Y-126809073D01*
X143774607Y-144853314D02*
X143774607Y-147900734D01*
X108607945Y-107734072D02*
X105674607Y-104800734D01*
X128327607Y-150003264D02*
X133175887Y-154851544D01*
X148526607Y-95327544D02*
X146876607Y-93677544D01*
X48526607Y-134227544D02*
X51133135Y-136834072D01*
X105674607Y-104800734D02*
X105674607Y-101741734D01*
X67574607Y-127803314D02*
X71176607Y-124201314D01*
X51596483Y-117109000D02*
X50832873Y-117109000D01*
X90225607Y-150264354D02*
X94464797Y-154503544D01*
X109978607Y-146741734D02*
X109978607Y-149016736D01*
X71176607Y-134277544D02*
X71176607Y-143251314D01*
X51870482Y-117382999D02*
X51596483Y-117109000D01*
X109276607Y-108190600D02*
X108820079Y-107734072D01*
X109376607Y-98039734D02*
X109376607Y-89377544D01*
X89607269Y-147896016D02*
X89795079Y-147896016D01*
X124286027Y-154503544D02*
X114777327Y-154503544D01*
X133505607Y-166106544D02*
X137476607Y-170077544D01*
X108632946Y-126809073D02*
X107077607Y-125253734D01*
X105674607Y-101741734D02*
X109376607Y-98039734D01*
X124724607Y-125850734D02*
X127657945Y-128784072D01*
X108114417Y-144877544D02*
X107812417Y-144575544D01*
X91372679Y-91573616D02*
X90576607Y-90777544D01*
X177871607Y-87947544D02*
X176669307Y-89149844D01*
X177839307Y-94365244D02*
X178369616Y-94365244D01*
X177371298Y-94227544D02*
X177701607Y-94227544D01*
X179126607Y-95122235D02*
X179126607Y-107027544D01*
X177701607Y-94227544D02*
X177839307Y-94365244D01*
X176669307Y-89149844D02*
X176669307Y-93525553D01*
X176669307Y-93525553D02*
X177371298Y-94227544D01*
X178369616Y-94365244D02*
X179126607Y-95122235D01*
X166431607Y-117667544D02*
X166431607Y-117147544D01*
X165171607Y-108267544D02*
X165171607Y-115887544D01*
X177871607Y-95567544D02*
X165171607Y-108267544D01*
X166431607Y-117147544D02*
X165171607Y-115887544D01*
X167711607Y-115887544D02*
X167711607Y-116407544D01*
X176146607Y-98107544D02*
X177871607Y-98107544D01*
X167711607Y-116407544D02*
X168971607Y-117667544D01*
X167711607Y-115887544D02*
X167711607Y-106542544D01*
X167711607Y-106542544D02*
X176146607Y-98107544D01*
X48075607Y-130614504D02*
X48075607Y-134414354D01*
X49235215Y-109027544D02*
X49218805Y-109043954D01*
X49031113Y-128032050D02*
X49031113Y-128277544D01*
X48076607Y-127077544D02*
X49031113Y-128032050D01*
X49031113Y-128277544D02*
X49031113Y-129658998D01*
X49031113Y-129658998D02*
X48075607Y-130614504D01*
X49726607Y-146827826D02*
X49226748Y-147327685D01*
X48073607Y-114987544D02*
X48076607Y-114990544D01*
X49065074Y-108711596D02*
X48212559Y-107859081D01*
X49065074Y-108857403D02*
X49065074Y-108711596D01*
X49726607Y-136065354D02*
X49726607Y-146827826D01*
X49218805Y-109043954D02*
X49218805Y-110357778D01*
X48075607Y-134414354D02*
X49726607Y-136065354D01*
X49218805Y-110357778D02*
X48073607Y-111502976D01*
X49235215Y-109027544D02*
X49065074Y-108857403D01*
X48073607Y-111502976D02*
X48073607Y-114987544D01*
X48076607Y-114990544D02*
X48076607Y-127077544D01*
X48212559Y-107859081D02*
X48212559Y-94631456D01*
X67123607Y-131037544D02*
X68826607Y-132740544D01*
X68826607Y-124627544D02*
X68426607Y-125027544D01*
X67076607Y-108977544D02*
X67076607Y-111677544D01*
X68326607Y-144177544D02*
X68326607Y-145463504D01*
X68426607Y-126313504D02*
X67123607Y-127616504D01*
X67087671Y-111951608D02*
X68826607Y-113690544D01*
X68726303Y-151702860D02*
X68726303Y-156202543D01*
X67273607Y-150250164D02*
X68726303Y-151702860D01*
X67123607Y-150087544D02*
X67273607Y-150237544D01*
X67076607Y-111677544D02*
X67087671Y-111688608D01*
X67262543Y-104713480D02*
X67262543Y-95602544D01*
X68576607Y-105777544D02*
X68576607Y-107073400D01*
X67087671Y-111688608D02*
X67087671Y-111951608D01*
X68826607Y-132740544D02*
X68826607Y-143437608D01*
X67123607Y-127616504D02*
X67123607Y-131037544D01*
X68326607Y-105777544D02*
X67262543Y-104713480D01*
X68576607Y-107073400D02*
X67087671Y-108562336D01*
X68086671Y-144177544D02*
X68326607Y-144177544D01*
X67123607Y-146666504D02*
X67123607Y-150087544D01*
X68826607Y-113690544D02*
X68826607Y-124627544D01*
X67087671Y-108562336D02*
X67087671Y-108966480D01*
X68326607Y-145463504D02*
X67123607Y-146666504D01*
X68826607Y-143437608D02*
X68086671Y-144177544D01*
X68576607Y-105777544D02*
X68326607Y-105777544D01*
X67273607Y-150237544D02*
X67273607Y-150250164D01*
X67087671Y-108966480D02*
X67076607Y-108977544D01*
X68426607Y-125027544D02*
X68426607Y-126313504D01*
X86176607Y-141927544D02*
X86176607Y-143114544D01*
X86173607Y-145087544D02*
X86176607Y-145090544D01*
X86187687Y-141652424D02*
X86187687Y-141916464D01*
X87526607Y-101177544D02*
X87526607Y-102113232D01*
X87776607Y-119827544D02*
X87576607Y-120027544D01*
X86173607Y-122616504D02*
X87576607Y-121213504D01*
X86176607Y-150798174D02*
X86665693Y-151287260D01*
X87326607Y-140513504D02*
X86187687Y-141652424D01*
X87551607Y-100852544D02*
X87851607Y-100852544D01*
X87576607Y-121213504D02*
X87576607Y-120027544D01*
X86173607Y-143117544D02*
X86173607Y-145087544D01*
X86176607Y-145090544D02*
X86176607Y-150798174D01*
X87876607Y-127740544D02*
X86173607Y-126037544D01*
X87551607Y-100852544D02*
X86312527Y-99613464D01*
X87851607Y-100852544D02*
X87526607Y-101177544D01*
X87526607Y-102113232D02*
X86173607Y-103466232D01*
X86312527Y-99613464D02*
X86312527Y-90631544D01*
X87326607Y-139077544D02*
X87326607Y-140513504D01*
X87426607Y-138977544D02*
X87326607Y-139077544D01*
X86173607Y-106987544D02*
X87776607Y-108590544D01*
X86187687Y-141916464D02*
X86176607Y-141927544D01*
X87776607Y-108590544D02*
X87776607Y-119827544D01*
X86173607Y-126037544D02*
X86173607Y-122616504D01*
X87876607Y-138527544D02*
X87876607Y-127740544D01*
X87426607Y-138977544D02*
X87876607Y-138527544D01*
X86176607Y-143114544D02*
X86173607Y-143117544D01*
X86173607Y-103466232D02*
X86173607Y-106987544D01*
X105614027Y-139252314D02*
X105176607Y-139689734D01*
X106626607Y-136927544D02*
X106676607Y-136977544D01*
X105223607Y-120616504D02*
X105223607Y-124037544D01*
X109527607Y-149203544D02*
X114101607Y-153777544D01*
X105223607Y-104987544D02*
X106826607Y-106590544D01*
X105637797Y-139252314D02*
X105614027Y-139252314D01*
X106826607Y-106590544D02*
X106826607Y-117827544D01*
X106626607Y-125430544D02*
X106626607Y-136927544D01*
X106426607Y-99277544D02*
X106426607Y-100351924D01*
X105176607Y-143065354D02*
X107137797Y-145026544D01*
X105223607Y-101554924D02*
X105223607Y-104987544D01*
X105176607Y-97727544D02*
X105176607Y-87877544D01*
X106826607Y-119013504D02*
X105223607Y-120616504D01*
X107137797Y-145026544D02*
X107625607Y-145026544D01*
X105176607Y-139689734D02*
X105176607Y-143065354D01*
X106426607Y-99277544D02*
X106426607Y-98977544D01*
X106676607Y-136977544D02*
X106676607Y-138213504D01*
X109527607Y-146928544D02*
X109527607Y-149203544D01*
X106426607Y-98977544D02*
X105176607Y-97727544D01*
X106826607Y-117827544D02*
X106826607Y-119013504D01*
X114101607Y-153777544D02*
X114476607Y-153777544D01*
X106676607Y-138213504D02*
X105637797Y-139252314D01*
X106616607Y-125430544D02*
X106626607Y-125430544D01*
X107625607Y-145026544D02*
X109527607Y-146928544D01*
X105223607Y-124037544D02*
X106616607Y-125430544D01*
X106426607Y-100351924D02*
X105223607Y-101554924D01*
X124273607Y-122616504D02*
X124273607Y-126037544D01*
X125901607Y-100602544D02*
X124412495Y-99113432D01*
X125976607Y-100602544D02*
X125901607Y-100602544D01*
X125576607Y-120227544D02*
X125576607Y-121313504D01*
X124273607Y-126037544D02*
X125826607Y-127590544D01*
X124273607Y-103566504D02*
X124273607Y-106987544D01*
X125626607Y-108340544D02*
X125626607Y-120177544D01*
X125776607Y-138877544D02*
X125776607Y-140163504D01*
X124412495Y-99113432D02*
X124412495Y-90052544D01*
X124273607Y-145087544D02*
X125976607Y-146790544D01*
X125976607Y-149740659D02*
X131813492Y-155577544D01*
X125976607Y-146790544D02*
X125976607Y-149740659D01*
X125976607Y-100602544D02*
X125976607Y-101863504D01*
X124273607Y-106987544D02*
X125626607Y-108340544D01*
X125776607Y-140163504D02*
X124273607Y-141666504D01*
X124273607Y-141666504D02*
X124273607Y-145087544D01*
X125826607Y-138827544D02*
X125776607Y-138877544D01*
X125626607Y-120177544D02*
X125576607Y-120227544D01*
X131813492Y-155577544D02*
X133476607Y-155577544D01*
X125826607Y-127590544D02*
X125826607Y-138827544D01*
X125576607Y-121313504D02*
X124273607Y-122616504D01*
X125976607Y-101863504D02*
X124273607Y-103566504D01*
X144676607Y-123177544D02*
X144676607Y-124263504D01*
X142976607Y-92181544D02*
X142976607Y-102477544D01*
X144626607Y-104977544D02*
X143323607Y-106280544D01*
X144176607Y-129890544D02*
X144176607Y-140677544D01*
X142976607Y-102477544D02*
X144626607Y-104127544D01*
X144676607Y-111766218D02*
X144676607Y-123177544D01*
X143323607Y-125616504D02*
X143323607Y-129037544D01*
X144626607Y-104127544D02*
X144626607Y-104977544D01*
X143323607Y-110413218D02*
X144676607Y-111766218D01*
X144176607Y-140677544D02*
X142976607Y-141877544D01*
X143323607Y-106280544D02*
X143323607Y-110413218D01*
X144676607Y-124263504D02*
X143323607Y-125616504D01*
X143323607Y-129037544D02*
X144176607Y-129890544D01*
X162631607Y-90487544D02*
X163833907Y-89285244D01*
X180303607Y-106540014D02*
X180303607Y-107515074D01*
X179608206Y-119474844D02*
X178926606Y-120156444D01*
X164061298Y-82277544D02*
X177101607Y-82277544D01*
X180028607Y-94748615D02*
X180028607Y-106265014D01*
X180028607Y-106265014D02*
X180303607Y-106540014D01*
X179608206Y-111533755D02*
X179608206Y-119474844D01*
X177101607Y-82277544D02*
X179101607Y-84277544D01*
X179101607Y-84277544D02*
X179101607Y-84289735D01*
X161429307Y-85905553D02*
X161429307Y-84909535D01*
X162133598Y-86609844D02*
X161429307Y-85905553D01*
X163833907Y-89285244D02*
X163833907Y-87247654D01*
X179101607Y-84289735D02*
X179608206Y-84796334D01*
X179651607Y-108167074D02*
X179651607Y-111490354D01*
X163196097Y-86609844D02*
X162133598Y-86609844D01*
X163833907Y-87247654D02*
X163196097Y-86609844D01*
X161429307Y-84909535D02*
X164061298Y-82277544D01*
X179608206Y-94328214D02*
X180028607Y-94748615D01*
X179608206Y-84796334D02*
X179608206Y-94328214D01*
X179651607Y-111490354D02*
X179608206Y-111533755D01*
X180303607Y-107515074D02*
X179651607Y-108167074D01*
X158252607Y-132651544D02*
X158252607Y-116253544D01*
X158252607Y-116253544D02*
X156101607Y-114102544D01*
X157676607Y-133227544D02*
X158252607Y-132651544D01*
X156626607Y-133227544D02*
X157676607Y-133227544D01*
X180361952Y-136755313D02*
X179627607Y-136020968D01*
X176163953Y-126440198D02*
X176367269Y-126236882D01*
X176163953Y-128600287D02*
X176163953Y-126440198D01*
X179627607Y-132063941D02*
X176163953Y-128600287D01*
X176517269Y-126236882D02*
X176626607Y-126127544D01*
X176367269Y-126236882D02*
X176517269Y-126236882D01*
X179627607Y-136020968D02*
X179627607Y-132063941D01*
X179852607Y-106726824D02*
X179852607Y-107328264D01*
X176669307Y-113845553D02*
X177373598Y-114549844D01*
X179200607Y-111303544D02*
X178358907Y-112145244D01*
X179852607Y-107328264D02*
X179427327Y-107753544D01*
X178101607Y-114549844D02*
X178101607Y-120350544D01*
X177426607Y-121677544D02*
X176450607Y-122653544D01*
X179146452Y-94504270D02*
X179577607Y-94935425D01*
X176451607Y-124627544D02*
X176951607Y-125127544D01*
X179577607Y-94935425D02*
X179577607Y-106451824D01*
X176951607Y-125127544D02*
X178026607Y-125127544D01*
X165261607Y-82777544D02*
X176951606Y-82777544D01*
X176450607Y-123903544D02*
X176451607Y-123904544D01*
X177373598Y-112145244D02*
X176669307Y-112849535D01*
X179577607Y-106451824D02*
X179852607Y-106726824D01*
X176450607Y-122653544D02*
X176450607Y-123903544D01*
X179200607Y-107753544D02*
X179200607Y-111303544D01*
X178101607Y-120350544D02*
X177426607Y-121025544D01*
X178358907Y-112145244D02*
X177373598Y-112145244D01*
X179427327Y-107753544D02*
X179200607Y-107753544D01*
X177373598Y-114549844D02*
X178101607Y-114549844D01*
X179146452Y-84972390D02*
X179146452Y-94504270D01*
X176951606Y-82777544D02*
X179146452Y-84972390D01*
X162631607Y-85407544D02*
X165261607Y-82777544D01*
X176669307Y-112849535D02*
X176669307Y-113845553D01*
X177426607Y-121025544D02*
X177426607Y-121677544D01*
X176451607Y-123904544D02*
X176451607Y-124627544D01*
X175331607Y-108282544D02*
X175331607Y-108267544D01*
X176126607Y-114727544D02*
X176126607Y-109062544D01*
X176126607Y-109062544D02*
X175331607Y-108267544D01*
X179176607Y-136977544D02*
X179176607Y-132250751D01*
X176533907Y-115134844D02*
X176126607Y-114727544D01*
X175712953Y-119679008D02*
X176533907Y-118858054D01*
X179726607Y-137527544D02*
X179176607Y-136977544D01*
X176533907Y-118858054D02*
X176533907Y-115134844D01*
X179176607Y-132250751D02*
X175712953Y-128787097D01*
X175712953Y-128787097D02*
X175712953Y-119679008D01*
D21*
X186348957Y-157573007D02*
G75*
G02*
X186302111Y-157361695I453145J211307D01*
G01*
X225902109Y-78977544D02*
G75*
G02*
X225402109Y-79477607I-500107J44D01*
G01*
X236427109Y-175227544D02*
G75*
G02*
X235927109Y-175727607I-500107J44D01*
G01*
X283552109Y-76477544D02*
X265502109Y-76477544D01*
X274527109Y-172227544D02*
G75*
G02*
X274027109Y-172727607I-500107J44D01*
G01*
X274527109Y-172227544D02*
X274527109Y-162177544D01*
X244452109Y-76477544D02*
X226402109Y-76477544D01*
X274527109Y-162177544D02*
G75*
G02*
X275027109Y-161677607I499893J44D01*
G01*
X186348956Y-157573007D02*
X198456219Y-183536662D01*
X303102109Y-83977544D02*
X303102109Y-81977544D01*
X322152109Y-161177544D02*
X322152109Y-84977544D01*
X199120682Y-183778503D02*
G75*
G02*
X198456234Y-183536655I-211280J453203D01*
G01*
X216285557Y-175774390D02*
G75*
G02*
X216496866Y-175727544I211145J-452410D01*
G01*
X265502109Y-76477544D02*
G75*
G02*
X265002158Y-75977544I-7J499944D01*
G01*
X264502109Y-74477544D02*
G75*
G02*
X265002158Y-74977544I-7J-500056D01*
G01*
X321652109Y-84477544D02*
X303602109Y-84477544D01*
X275027109Y-161677544D02*
X321652109Y-161677544D01*
X284552109Y-81477544D02*
G75*
G02*
X284052158Y-80977544I-7J499944D01*
G01*
X264502109Y-74477544D02*
X245452109Y-74477544D01*
X321652109Y-84477544D02*
G75*
G02*
X322152158Y-84977544I-7J-500056D01*
G01*
X284052109Y-80977544D02*
X284052109Y-76977544D01*
X225402109Y-79477544D02*
X186802109Y-79477544D01*
X216496866Y-175727544D02*
X235927109Y-175727544D01*
X225902109Y-76977544D02*
X225902109Y-78977544D01*
X244952109Y-74977544D02*
G75*
G02*
X245452109Y-74477607I499893J44D01*
G01*
X236427109Y-173227544D02*
G75*
G02*
X236927109Y-172727607I499893J44D01*
G01*
X302602109Y-81477544D02*
G75*
G02*
X303102158Y-81977544I-7J-500056D01*
G01*
X265002109Y-75977544D02*
X265002109Y-74977544D01*
X236427109Y-175227544D02*
X236427109Y-173227544D01*
X283552109Y-76477544D02*
G75*
G02*
X284052158Y-76977544I-7J-500056D01*
G01*
X303602109Y-84477544D02*
G75*
G02*
X303102158Y-83977544I-7J499944D01*
G01*
X322152109Y-161177544D02*
G75*
G02*
X321652109Y-161677607I-500107J44D01*
G01*
X186302109Y-79977544D02*
X186302109Y-157361695D01*
X225902109Y-76977544D02*
G75*
G02*
X226402109Y-76477607I499893J44D01*
G01*
X186302109Y-79977544D02*
G75*
G02*
X186802109Y-79477607I499893J44D01*
G01*
X244952109Y-75977544D02*
G75*
G02*
X244452109Y-76477607I-500107J44D01*
G01*
X302602109Y-81477544D02*
X284552109Y-81477544D01*
X199120681Y-183778503D02*
X216285557Y-175774390D01*
X244952109Y-74977544D02*
X244952109Y-75977544D01*
X236927109Y-172727544D02*
X274027109Y-172727544D01*
D22*
X57678796Y-170155224D02*
G75*
G02*
X60787780Y-168919594I1800019J42D01*
G01*
X60578796Y-193904244D02*
G75*
G02*
X58378796Y-193904244I-1100000J0D01*
G01*
X58378796Y-193904244D02*
G75*
G02*
X60578796Y-193904244I1100000J0D01*
G01*
X60578796Y-170155224D02*
G75*
G02*
X58378796Y-170155224I-1100000J0D01*
G01*
X58378796Y-170155224D02*
G75*
G02*
X60578796Y-170155224I1100000J0D01*
G01*
X60753479Y-195175152D02*
G75*
G02*
X63427651Y-195153661I1348036J-1351830D01*
G01*
X60750201Y-195178431D02*
G75*
G02*
X57678849Y-193904251I-1271386J1274149D01*
G01*
X63419106Y-168913963D02*
G75*
G02*
X60790947Y-168920627I-1317591J1381481D01*
G01*
X57678796Y-170155224D02*
X57678796Y-193904244D01*
X63419106Y-168913964D02*
G75*
G02*
X63427689Y-195153681I12509689J-13115768D01*
G01*
D21*
X169622497Y-183986661D02*
G75*
G02*
X168958020Y-184228535I-453197J211361D01*
G01*
X151581850Y-176177544D02*
X132151607Y-176177544D01*
X103076607Y-76427544D02*
X103076607Y-75427544D01*
X168958035Y-184228503D02*
X151793159Y-176224390D01*
X103576607Y-74927544D02*
X122626607Y-74927544D01*
X181776606Y-157811695D02*
G75*
G02*
X181729765Y-158023010I-499606J-105D01*
G01*
X181276607Y-79927544D02*
G75*
G02*
X181776556Y-80427544I-7J-499956D01*
G01*
X123626607Y-76927544D02*
X141676607Y-76927544D01*
X84026607Y-77427544D02*
G75*
G02*
X84526607Y-76927507I499993J44D01*
G01*
X93551607Y-172677544D02*
X93551607Y-162627544D01*
X94051607Y-173177544D02*
G75*
G02*
X93551556Y-172677544I-7J500044D01*
G01*
X151581850Y-176177544D02*
G75*
G02*
X151793164Y-176224379I-50J-500356D01*
G01*
X122626607Y-74927544D02*
G75*
G02*
X123126556Y-75427544I-7J-499956D01*
G01*
X65476607Y-81927544D02*
X83526607Y-81927544D01*
X132151607Y-176177544D02*
G75*
G02*
X131651556Y-175677544I-7J500044D01*
G01*
X142676607Y-79927544D02*
G75*
G02*
X142176556Y-79427544I-7J500044D01*
G01*
X142676607Y-79927544D02*
X181276607Y-79927544D01*
X142176607Y-77427544D02*
X142176607Y-79427544D01*
X84526607Y-76927544D02*
X102576607Y-76927544D01*
X46426607Y-84927544D02*
X64476607Y-84927544D01*
X131151607Y-173177544D02*
X94051607Y-173177544D01*
X46426607Y-162127544D02*
G75*
G02*
X45926556Y-161627544I-7J500044D01*
G01*
X64976607Y-84427544D02*
G75*
G02*
X64476607Y-84927507I-500007J44D01*
G01*
X131651607Y-175677544D02*
X131651607Y-173677544D01*
X123126607Y-75427544D02*
X123126607Y-76427544D01*
X181729760Y-158023007D02*
X169622497Y-183986662D01*
X84026607Y-81427544D02*
G75*
G02*
X83526607Y-81927507I-500007J44D01*
G01*
X64976607Y-84427544D02*
X64976607Y-82427544D01*
X181776607Y-80427544D02*
X181776607Y-157811695D01*
X45926607Y-85427544D02*
G75*
G02*
X46426607Y-84927507I499993J44D01*
G01*
X45926607Y-161627544D02*
X45926607Y-85427544D01*
X141676607Y-76927544D02*
G75*
G02*
X142176556Y-77427544I-7J-499956D01*
G01*
X64976607Y-82427544D02*
G75*
G02*
X65476607Y-81927507I499993J44D01*
G01*
X123626607Y-76927544D02*
G75*
G02*
X123126556Y-76427544I-7J500044D01*
G01*
X93051607Y-162127544D02*
X46426607Y-162127544D01*
X103076607Y-75427544D02*
G75*
G02*
X103576607Y-74927507I499993J44D01*
G01*
X93051607Y-162127544D02*
G75*
G02*
X93551556Y-162627544I-7J-499956D01*
G01*
X103076607Y-76427544D02*
G75*
G02*
X102576607Y-76927507I-500007J44D01*
G01*
X84026607Y-81427544D02*
X84026607Y-77427544D01*
X131151607Y-173177544D02*
G75*
G02*
X131651556Y-173677544I-7J-499956D01*
G01*
D23*
X269477109Y-86502544D02*
G75*
G02*
X267577109Y-86502544I-950000J0D01*
G01*
X267577109Y-86502544D02*
G75*
G02*
X269477109Y-86502544I950000J0D01*
G01*
D24*
X275552109Y-80602544D02*
G75*
G02*
X272502109Y-80602544I-1525000J0D01*
G01*
X272502109Y-80602544D02*
G75*
G02*
X275552109Y-80602544I1525000J0D01*
G01*
X280552109Y-82702544D02*
G75*
G02*
X277502109Y-82702544I-1525000J0D01*
G01*
X277502109Y-82702544D02*
G75*
G02*
X280552109Y-82702544I1525000J0D01*
G01*
D23*
X280477109Y-86502544D02*
G75*
G02*
X278577109Y-86502544I-950000J0D01*
G01*
X278577109Y-86502544D02*
G75*
G02*
X280477109Y-86502544I950000J0D01*
G01*
X307577109Y-113552544D02*
G75*
G02*
X305677109Y-113552544I-950000J0D01*
G01*
X305677109Y-113552544D02*
G75*
G02*
X307577109Y-113552544I950000J0D01*
G01*
D24*
X313652109Y-107652544D02*
G75*
G02*
X310602109Y-107652544I-1525000J0D01*
G01*
X310602109Y-107652544D02*
G75*
G02*
X313652109Y-107652544I1525000J0D01*
G01*
X318652109Y-109752544D02*
G75*
G02*
X315602109Y-109752544I-1525000J0D01*
G01*
X315602109Y-109752544D02*
G75*
G02*
X318652109Y-109752544I1525000J0D01*
G01*
D23*
X318577109Y-113552544D02*
G75*
G02*
X316677109Y-113552544I-950000J0D01*
G01*
X316677109Y-113552544D02*
G75*
G02*
X318577109Y-113552544I950000J0D01*
G01*
X200129398Y-161366344D02*
G75*
G02*
X198229398Y-161366344I-950000J0D01*
G01*
X198229398Y-161366344D02*
G75*
G02*
X200129398Y-161366344I950000J0D01*
G01*
X204778198Y-171335730D02*
G75*
G02*
X202878198Y-171335730I-950000J0D01*
G01*
X202878198Y-171335730D02*
G75*
G02*
X204778198Y-171335730I950000J0D01*
G01*
D24*
X208376015Y-163857589D02*
G75*
G02*
X205326013Y-163857589I-1525001J0D01*
G01*
X205326013Y-163857589D02*
G75*
G02*
X208376015Y-163857589I1525001J0D01*
G01*
X208585859Y-169276627D02*
G75*
G02*
X205535859Y-169276627I-1525000J0D01*
G01*
X205535859Y-169276627D02*
G75*
G02*
X208585859Y-169276627I1525000J0D01*
G01*
D23*
X288527109Y-148652544D02*
G75*
G02*
X286627109Y-148652544I-950000J0D01*
G01*
X286627109Y-148652544D02*
G75*
G02*
X288527109Y-148652544I950000J0D01*
G01*
D24*
X294602109Y-142752544D02*
G75*
G02*
X291552109Y-142752544I-1525000J0D01*
G01*
X291552109Y-142752544D02*
G75*
G02*
X294602109Y-142752544I1525000J0D01*
G01*
X299602109Y-144852544D02*
G75*
G02*
X296552109Y-144852544I-1525000J0D01*
G01*
X296552109Y-144852544D02*
G75*
G02*
X299602109Y-144852544I1525000J0D01*
G01*
D23*
X299527109Y-148652544D02*
G75*
G02*
X297627109Y-148652544I-950000J0D01*
G01*
X297627109Y-148652544D02*
G75*
G02*
X299527109Y-148652544I950000J0D01*
G01*
X250427109Y-141652544D02*
G75*
G02*
X248527109Y-141652544I-950000J0D01*
G01*
X248527109Y-141652544D02*
G75*
G02*
X250427109Y-141652544I950000J0D01*
G01*
D24*
X256502109Y-135752544D02*
G75*
G02*
X253452109Y-135752544I-1525000J0D01*
G01*
X253452109Y-135752544D02*
G75*
G02*
X256502109Y-135752544I1525000J0D01*
G01*
X261502109Y-137852544D02*
G75*
G02*
X258452109Y-137852544I-1525000J0D01*
G01*
X258452109Y-137852544D02*
G75*
G02*
X261502109Y-137852544I1525000J0D01*
G01*
D23*
X261427109Y-141652544D02*
G75*
G02*
X259527109Y-141652544I-950000J0D01*
G01*
X259527109Y-141652544D02*
G75*
G02*
X261427109Y-141652544I950000J0D01*
G01*
X212327109Y-146652544D02*
G75*
G02*
X210427109Y-146652544I-950000J0D01*
G01*
X210427109Y-146652544D02*
G75*
G02*
X212327109Y-146652544I950000J0D01*
G01*
D24*
X218402109Y-140752544D02*
G75*
G02*
X215352109Y-140752544I-1525000J0D01*
G01*
X215352109Y-140752544D02*
G75*
G02*
X218402109Y-140752544I1525000J0D01*
G01*
X223402109Y-142852544D02*
G75*
G02*
X220352109Y-142852544I-1525000J0D01*
G01*
X220352109Y-142852544D02*
G75*
G02*
X223402109Y-142852544I1525000J0D01*
G01*
D23*
X223327109Y-146652544D02*
G75*
G02*
X221427109Y-146652544I-950000J0D01*
G01*
X221427109Y-146652544D02*
G75*
G02*
X223327109Y-146652544I950000J0D01*
G01*
X212327109Y-127602544D02*
G75*
G02*
X210427109Y-127602544I-950000J0D01*
G01*
X210427109Y-127602544D02*
G75*
G02*
X212327109Y-127602544I950000J0D01*
G01*
D24*
X218402109Y-121702544D02*
G75*
G02*
X215352109Y-121702544I-1525000J0D01*
G01*
X215352109Y-121702544D02*
G75*
G02*
X218402109Y-121702544I1525000J0D01*
G01*
X223402109Y-123802544D02*
G75*
G02*
X220352109Y-123802544I-1525000J0D01*
G01*
X220352109Y-123802544D02*
G75*
G02*
X223402109Y-123802544I1525000J0D01*
G01*
D23*
X223327109Y-127602544D02*
G75*
G02*
X221427109Y-127602544I-950000J0D01*
G01*
X221427109Y-127602544D02*
G75*
G02*
X223327109Y-127602544I950000J0D01*
G01*
X231377109Y-86502544D02*
G75*
G02*
X229477109Y-86502544I-950000J0D01*
G01*
X229477109Y-86502544D02*
G75*
G02*
X231377109Y-86502544I950000J0D01*
G01*
D24*
X237452109Y-80602544D02*
G75*
G02*
X234402109Y-80602544I-1525000J0D01*
G01*
X234402109Y-80602544D02*
G75*
G02*
X237452109Y-80602544I1525000J0D01*
G01*
X242452109Y-82702544D02*
G75*
G02*
X239402109Y-82702544I-1525000J0D01*
G01*
X239402109Y-82702544D02*
G75*
G02*
X242452109Y-82702544I1525000J0D01*
G01*
D23*
X242377109Y-86502544D02*
G75*
G02*
X240477109Y-86502544I-950000J0D01*
G01*
X240477109Y-86502544D02*
G75*
G02*
X242377109Y-86502544I950000J0D01*
G01*
X259952109Y-162702544D02*
G75*
G02*
X258052109Y-162702544I-950000J0D01*
G01*
X258052109Y-162702544D02*
G75*
G02*
X259952109Y-162702544I950000J0D01*
G01*
D24*
X266027109Y-156802544D02*
G75*
G02*
X262977109Y-156802544I-1525000J0D01*
G01*
X262977109Y-156802544D02*
G75*
G02*
X266027109Y-156802544I1525000J0D01*
G01*
X271027109Y-158902544D02*
G75*
G02*
X267977109Y-158902544I-1525000J0D01*
G01*
X267977109Y-158902544D02*
G75*
G02*
X271027109Y-158902544I1525000J0D01*
G01*
D23*
X270952109Y-162702544D02*
G75*
G02*
X269052109Y-162702544I-950000J0D01*
G01*
X269052109Y-162702544D02*
G75*
G02*
X270952109Y-162702544I950000J0D01*
G01*
X212327109Y-89502544D02*
G75*
G02*
X210427109Y-89502544I-950000J0D01*
G01*
X210427109Y-89502544D02*
G75*
G02*
X212327109Y-89502544I950000J0D01*
G01*
D24*
X218402109Y-83602544D02*
G75*
G02*
X215352109Y-83602544I-1525000J0D01*
G01*
X215352109Y-83602544D02*
G75*
G02*
X218402109Y-83602544I1525000J0D01*
G01*
X223402109Y-85702544D02*
G75*
G02*
X220352109Y-85702544I-1525000J0D01*
G01*
X220352109Y-85702544D02*
G75*
G02*
X223402109Y-85702544I1525000J0D01*
G01*
D23*
X223327109Y-89502544D02*
G75*
G02*
X221427109Y-89502544I-950000J0D01*
G01*
X221427109Y-89502544D02*
G75*
G02*
X223327109Y-89502544I950000J0D01*
G01*
X307577109Y-132602544D02*
G75*
G02*
X305677109Y-132602544I-950000J0D01*
G01*
X305677109Y-132602544D02*
G75*
G02*
X307577109Y-132602544I950000J0D01*
G01*
D24*
X313652109Y-126702544D02*
G75*
G02*
X310602109Y-126702544I-1525000J0D01*
G01*
X310602109Y-126702544D02*
G75*
G02*
X313652109Y-126702544I1525000J0D01*
G01*
X318652109Y-128802544D02*
G75*
G02*
X315602109Y-128802544I-1525000J0D01*
G01*
X315602109Y-128802544D02*
G75*
G02*
X318652109Y-128802544I1525000J0D01*
G01*
D23*
X318577109Y-132602544D02*
G75*
G02*
X316677109Y-132602544I-950000J0D01*
G01*
X316677109Y-132602544D02*
G75*
G02*
X318577109Y-132602544I950000J0D01*
G01*
X288527109Y-91502544D02*
G75*
G02*
X286627109Y-91502544I-950000J0D01*
G01*
X286627109Y-91502544D02*
G75*
G02*
X288527109Y-91502544I950000J0D01*
G01*
D24*
X294602109Y-85602544D02*
G75*
G02*
X291552109Y-85602544I-1525000J0D01*
G01*
X291552109Y-85602544D02*
G75*
G02*
X294602109Y-85602544I1525000J0D01*
G01*
X299602109Y-87702544D02*
G75*
G02*
X296552109Y-87702544I-1525000J0D01*
G01*
X296552109Y-87702544D02*
G75*
G02*
X299602109Y-87702544I1525000J0D01*
G01*
D23*
X299527109Y-91502544D02*
G75*
G02*
X297627109Y-91502544I-950000J0D01*
G01*
X297627109Y-91502544D02*
G75*
G02*
X299527109Y-91502544I950000J0D01*
G01*
D25*
X272127109Y-109332544D02*
X272127109Y-111932544D01*
X272327109Y-112132544D02*
X275727109Y-112132544D01*
X275727109Y-109132544D02*
X272327109Y-109132544D01*
X275927109Y-111932544D02*
X275927109Y-109332544D01*
X272127109Y-109332544D02*
G75*
G02*
X272327109Y-109132544I200000J0D01*
G01*
X272327109Y-112132544D02*
G75*
G02*
X272127109Y-111932544I0J200000D01*
G01*
X275727109Y-109132544D02*
G75*
G02*
X275927109Y-109332544I-1J-200001D01*
G01*
X275927109Y-111932544D02*
G75*
G02*
X275727109Y-112132544I-200001J1D01*
G01*
X253077109Y-126382544D02*
X253077109Y-128982544D01*
X253277109Y-129182544D02*
X256677109Y-129182544D01*
X256677109Y-126182544D02*
X253277109Y-126182544D01*
X256877109Y-128982544D02*
X256877109Y-126382544D01*
X253077109Y-126382544D02*
G75*
G02*
X253277109Y-126182544I200000J0D01*
G01*
X253277109Y-129182544D02*
G75*
G02*
X253077109Y-128982544I0J200000D01*
G01*
X256677109Y-126182544D02*
G75*
G02*
X256877109Y-126382544I-1J-200001D01*
G01*
X256877109Y-128982544D02*
G75*
G02*
X256677109Y-129182544I-200001J1D01*
G01*
X272127109Y-147432544D02*
X272127109Y-150032544D01*
X272327109Y-150232544D02*
X275727109Y-150232544D01*
X275727109Y-147232544D02*
X272327109Y-147232544D01*
X275927109Y-150032544D02*
X275927109Y-147432544D01*
X272127109Y-147432544D02*
G75*
G02*
X272327109Y-147232544I200000J0D01*
G01*
X272327109Y-150232544D02*
G75*
G02*
X272127109Y-150032544I0J200000D01*
G01*
X275727109Y-147232544D02*
G75*
G02*
X275927109Y-147432544I-1J-200001D01*
G01*
X275927109Y-150032544D02*
G75*
G02*
X275727109Y-150232544I-200001J1D01*
G01*
X272127109Y-90282544D02*
X272127109Y-92882544D01*
X272327109Y-93082544D02*
X275727109Y-93082544D01*
X275727109Y-90082544D02*
X272327109Y-90082544D01*
X275927109Y-92882544D02*
X275927109Y-90282544D01*
X272127109Y-90282544D02*
G75*
G02*
X272327109Y-90082544I200000J0D01*
G01*
X272327109Y-93082544D02*
G75*
G02*
X272127109Y-92882544I0J200000D01*
G01*
X275727109Y-90082544D02*
G75*
G02*
X275927109Y-90282544I-1J-200001D01*
G01*
X275927109Y-92882544D02*
G75*
G02*
X275727109Y-93082544I-200001J1D01*
G01*
X234027109Y-90282544D02*
X234027109Y-92882544D01*
X234227109Y-93082544D02*
X237627109Y-93082544D01*
X237627109Y-90082544D02*
X234227109Y-90082544D01*
X237827109Y-92882544D02*
X237827109Y-90282544D01*
X234027109Y-90282544D02*
G75*
G02*
X234227109Y-90082544I200000J0D01*
G01*
X234227109Y-93082544D02*
G75*
G02*
X234027109Y-92882544I0J200000D01*
G01*
X237627109Y-90082544D02*
G75*
G02*
X237827109Y-90282544I-1J-200001D01*
G01*
X237827109Y-92882544D02*
G75*
G02*
X237627109Y-93082544I-200001J1D01*
G01*
X195927109Y-140907544D02*
X195927109Y-143507544D01*
X196127109Y-143707544D02*
X199527109Y-143707544D01*
X199527109Y-140707544D02*
X196127109Y-140707544D01*
X199727109Y-143507544D02*
X199727109Y-140907544D01*
X195927109Y-140907544D02*
G75*
G02*
X196127109Y-140707544I200000J0D01*
G01*
X196127109Y-143707544D02*
G75*
G02*
X195927109Y-143507544I0J200000D01*
G01*
X199527109Y-140707544D02*
G75*
G02*
X199727109Y-140907544I-1J-200001D01*
G01*
X199727109Y-143507544D02*
G75*
G02*
X199527109Y-143707544I-200001J1D01*
G01*
D23*
X307577109Y-151652544D02*
G75*
G02*
X305677109Y-151652544I-950000J0D01*
G01*
X305677109Y-151652544D02*
G75*
G02*
X307577109Y-151652544I950000J0D01*
G01*
D24*
X313652109Y-145752544D02*
G75*
G02*
X310602109Y-145752544I-1525000J0D01*
G01*
X310602109Y-145752544D02*
G75*
G02*
X313652109Y-145752544I1525000J0D01*
G01*
X318652109Y-147852544D02*
G75*
G02*
X315602109Y-147852544I-1525000J0D01*
G01*
X315602109Y-147852544D02*
G75*
G02*
X318652109Y-147852544I1525000J0D01*
G01*
D23*
X318577109Y-151652544D02*
G75*
G02*
X316677109Y-151652544I-950000J0D01*
G01*
X316677109Y-151652544D02*
G75*
G02*
X318577109Y-151652544I950000J0D01*
G01*
X240902109Y-162702544D02*
G75*
G02*
X239002109Y-162702544I-950000J0D01*
G01*
X239002109Y-162702544D02*
G75*
G02*
X240902109Y-162702544I950000J0D01*
G01*
D24*
X246977109Y-156802544D02*
G75*
G02*
X243927109Y-156802544I-1525000J0D01*
G01*
X243927109Y-156802544D02*
G75*
G02*
X246977109Y-156802544I1525000J0D01*
G01*
X251977109Y-158902544D02*
G75*
G02*
X248927109Y-158902544I-1525000J0D01*
G01*
X248927109Y-158902544D02*
G75*
G02*
X251977109Y-158902544I1525000J0D01*
G01*
D23*
X251902109Y-162702544D02*
G75*
G02*
X250002109Y-162702544I-950000J0D01*
G01*
X250002109Y-162702544D02*
G75*
G02*
X251902109Y-162702544I950000J0D01*
G01*
X231377109Y-105552544D02*
G75*
G02*
X229477109Y-105552544I-950000J0D01*
G01*
X229477109Y-105552544D02*
G75*
G02*
X231377109Y-105552544I950000J0D01*
G01*
D24*
X237452109Y-99652544D02*
G75*
G02*
X234402109Y-99652544I-1525000J0D01*
G01*
X234402109Y-99652544D02*
G75*
G02*
X237452109Y-99652544I1525000J0D01*
G01*
X242452109Y-101752544D02*
G75*
G02*
X239402109Y-101752544I-1525000J0D01*
G01*
X239402109Y-101752544D02*
G75*
G02*
X242452109Y-101752544I1525000J0D01*
G01*
D23*
X242377109Y-105552544D02*
G75*
G02*
X240477109Y-105552544I-950000J0D01*
G01*
X240477109Y-105552544D02*
G75*
G02*
X242377109Y-105552544I950000J0D01*
G01*
X288527109Y-129602544D02*
G75*
G02*
X286627109Y-129602544I-950000J0D01*
G01*
X286627109Y-129602544D02*
G75*
G02*
X288527109Y-129602544I950000J0D01*
G01*
D24*
X294602109Y-123702544D02*
G75*
G02*
X291552109Y-123702544I-1525000J0D01*
G01*
X291552109Y-123702544D02*
G75*
G02*
X294602109Y-123702544I1525000J0D01*
G01*
X299602109Y-125802544D02*
G75*
G02*
X296552109Y-125802544I-1525000J0D01*
G01*
X296552109Y-125802544D02*
G75*
G02*
X299602109Y-125802544I1525000J0D01*
G01*
D23*
X299527109Y-129602544D02*
G75*
G02*
X297627109Y-129602544I-950000J0D01*
G01*
X297627109Y-129602544D02*
G75*
G02*
X299527109Y-129602544I950000J0D01*
G01*
X307577109Y-94502544D02*
G75*
G02*
X305677109Y-94502544I-950000J0D01*
G01*
X305677109Y-94502544D02*
G75*
G02*
X307577109Y-94502544I950000J0D01*
G01*
D24*
X313652109Y-88602544D02*
G75*
G02*
X310602109Y-88602544I-1525000J0D01*
G01*
X310602109Y-88602544D02*
G75*
G02*
X313652109Y-88602544I1525000J0D01*
G01*
X318652109Y-90702544D02*
G75*
G02*
X315602109Y-90702544I-1525000J0D01*
G01*
X315602109Y-90702544D02*
G75*
G02*
X318652109Y-90702544I1525000J0D01*
G01*
D23*
X318577109Y-94502544D02*
G75*
G02*
X316677109Y-94502544I-950000J0D01*
G01*
X316677109Y-94502544D02*
G75*
G02*
X318577109Y-94502544I950000J0D01*
G01*
X269477109Y-143652544D02*
G75*
G02*
X267577109Y-143652544I-950000J0D01*
G01*
X267577109Y-143652544D02*
G75*
G02*
X269477109Y-143652544I950000J0D01*
G01*
D24*
X275552109Y-137752544D02*
G75*
G02*
X272502109Y-137752544I-1525000J0D01*
G01*
X272502109Y-137752544D02*
G75*
G02*
X275552109Y-137752544I1525000J0D01*
G01*
X280552109Y-139852544D02*
G75*
G02*
X277502109Y-139852544I-1525000J0D01*
G01*
X277502109Y-139852544D02*
G75*
G02*
X280552109Y-139852544I1525000J0D01*
G01*
D23*
X280477109Y-143652544D02*
G75*
G02*
X278577109Y-143652544I-950000J0D01*
G01*
X278577109Y-143652544D02*
G75*
G02*
X280477109Y-143652544I950000J0D01*
G01*
X250427109Y-84502544D02*
G75*
G02*
X248527109Y-84502544I-950000J0D01*
G01*
X248527109Y-84502544D02*
G75*
G02*
X250427109Y-84502544I950000J0D01*
G01*
D24*
X256502109Y-78602544D02*
G75*
G02*
X253452109Y-78602544I-1525000J0D01*
G01*
X253452109Y-78602544D02*
G75*
G02*
X256502109Y-78602544I1525000J0D01*
G01*
X261502109Y-80702544D02*
G75*
G02*
X258452109Y-80702544I-1525000J0D01*
G01*
X258452109Y-80702544D02*
G75*
G02*
X261502109Y-80702544I1525000J0D01*
G01*
D23*
X261427109Y-84502544D02*
G75*
G02*
X259527109Y-84502544I-950000J0D01*
G01*
X259527109Y-84502544D02*
G75*
G02*
X261427109Y-84502544I950000J0D01*
G01*
X250427109Y-122602544D02*
G75*
G02*
X248527109Y-122602544I-950000J0D01*
G01*
X248527109Y-122602544D02*
G75*
G02*
X250427109Y-122602544I950000J0D01*
G01*
D24*
X256502109Y-116702544D02*
G75*
G02*
X253452109Y-116702544I-1525000J0D01*
G01*
X253452109Y-116702544D02*
G75*
G02*
X256502109Y-116702544I1525000J0D01*
G01*
X261502109Y-118802544D02*
G75*
G02*
X258452109Y-118802544I-1525000J0D01*
G01*
X258452109Y-118802544D02*
G75*
G02*
X261502109Y-118802544I1525000J0D01*
G01*
D23*
X261427109Y-122602544D02*
G75*
G02*
X259527109Y-122602544I-950000J0D01*
G01*
X259527109Y-122602544D02*
G75*
G02*
X261427109Y-122602544I950000J0D01*
G01*
X221852109Y-165702544D02*
G75*
G02*
X219952109Y-165702544I-950000J0D01*
G01*
X219952109Y-165702544D02*
G75*
G02*
X221852109Y-165702544I950000J0D01*
G01*
D24*
X227927109Y-159802544D02*
G75*
G02*
X224877109Y-159802544I-1525000J0D01*
G01*
X224877109Y-159802544D02*
G75*
G02*
X227927109Y-159802544I1525000J0D01*
G01*
X232927109Y-161902544D02*
G75*
G02*
X229877109Y-161902544I-1525000J0D01*
G01*
X229877109Y-161902544D02*
G75*
G02*
X232927109Y-161902544I1525000J0D01*
G01*
D23*
X232852109Y-165702544D02*
G75*
G02*
X230952109Y-165702544I-950000J0D01*
G01*
X230952109Y-165702544D02*
G75*
G02*
X232852109Y-165702544I950000J0D01*
G01*
X212327109Y-108552544D02*
G75*
G02*
X210427109Y-108552544I-950000J0D01*
G01*
X210427109Y-108552544D02*
G75*
G02*
X212327109Y-108552544I950000J0D01*
G01*
D24*
X218402109Y-102652544D02*
G75*
G02*
X215352109Y-102652544I-1525000J0D01*
G01*
X215352109Y-102652544D02*
G75*
G02*
X218402109Y-102652544I1525000J0D01*
G01*
X223402109Y-104752544D02*
G75*
G02*
X220352109Y-104752544I-1525000J0D01*
G01*
X220352109Y-104752544D02*
G75*
G02*
X223402109Y-104752544I1525000J0D01*
G01*
D23*
X223327109Y-108552544D02*
G75*
G02*
X221427109Y-108552544I-950000J0D01*
G01*
X221427109Y-108552544D02*
G75*
G02*
X223327109Y-108552544I950000J0D01*
G01*
X231377109Y-143652544D02*
G75*
G02*
X229477109Y-143652544I-950000J0D01*
G01*
X229477109Y-143652544D02*
G75*
G02*
X231377109Y-143652544I950000J0D01*
G01*
D24*
X237452109Y-137752544D02*
G75*
G02*
X234402109Y-137752544I-1525000J0D01*
G01*
X234402109Y-137752544D02*
G75*
G02*
X237452109Y-137752544I1525000J0D01*
G01*
X242452109Y-139852544D02*
G75*
G02*
X239402109Y-139852544I-1525000J0D01*
G01*
X239402109Y-139852544D02*
G75*
G02*
X242452109Y-139852544I1525000J0D01*
G01*
D23*
X242377109Y-143652544D02*
G75*
G02*
X240477109Y-143652544I-950000J0D01*
G01*
X240477109Y-143652544D02*
G75*
G02*
X242377109Y-143652544I950000J0D01*
G01*
X193277109Y-137127544D02*
G75*
G02*
X191377109Y-137127544I-950000J0D01*
G01*
X191377109Y-137127544D02*
G75*
G02*
X193277109Y-137127544I950000J0D01*
G01*
D24*
X199352109Y-131227544D02*
G75*
G02*
X196302109Y-131227544I-1525000J0D01*
G01*
X196302109Y-131227544D02*
G75*
G02*
X199352109Y-131227544I1525000J0D01*
G01*
X204352109Y-133327544D02*
G75*
G02*
X201302109Y-133327544I-1525000J0D01*
G01*
X201302109Y-133327544D02*
G75*
G02*
X204352109Y-133327544I1525000J0D01*
G01*
D23*
X204277109Y-137127544D02*
G75*
G02*
X202377109Y-137127544I-950000J0D01*
G01*
X202377109Y-137127544D02*
G75*
G02*
X204277109Y-137127544I950000J0D01*
G01*
X269477109Y-124602544D02*
G75*
G02*
X267577109Y-124602544I-950000J0D01*
G01*
X267577109Y-124602544D02*
G75*
G02*
X269477109Y-124602544I950000J0D01*
G01*
D24*
X275552109Y-118702544D02*
G75*
G02*
X272502109Y-118702544I-1525000J0D01*
G01*
X272502109Y-118702544D02*
G75*
G02*
X275552109Y-118702544I1525000J0D01*
G01*
X280552109Y-120802544D02*
G75*
G02*
X277502109Y-120802544I-1525000J0D01*
G01*
X277502109Y-120802544D02*
G75*
G02*
X280552109Y-120802544I1525000J0D01*
G01*
D23*
X280477109Y-124602544D02*
G75*
G02*
X278577109Y-124602544I-950000J0D01*
G01*
X278577109Y-124602544D02*
G75*
G02*
X280477109Y-124602544I950000J0D01*
G01*
X231377109Y-124602544D02*
G75*
G02*
X229477109Y-124602544I-950000J0D01*
G01*
X229477109Y-124602544D02*
G75*
G02*
X231377109Y-124602544I950000J0D01*
G01*
D24*
X237452109Y-118702544D02*
G75*
G02*
X234402109Y-118702544I-1525000J0D01*
G01*
X234402109Y-118702544D02*
G75*
G02*
X237452109Y-118702544I1525000J0D01*
G01*
X242452109Y-120802544D02*
G75*
G02*
X239402109Y-120802544I-1525000J0D01*
G01*
X239402109Y-120802544D02*
G75*
G02*
X242452109Y-120802544I1525000J0D01*
G01*
D23*
X242377109Y-124602544D02*
G75*
G02*
X240477109Y-124602544I-950000J0D01*
G01*
X240477109Y-124602544D02*
G75*
G02*
X242377109Y-124602544I950000J0D01*
G01*
X250427109Y-103552544D02*
G75*
G02*
X248527109Y-103552544I-950000J0D01*
G01*
X248527109Y-103552544D02*
G75*
G02*
X250427109Y-103552544I950000J0D01*
G01*
D24*
X256502109Y-97652544D02*
G75*
G02*
X253452109Y-97652544I-1525000J0D01*
G01*
X253452109Y-97652544D02*
G75*
G02*
X256502109Y-97652544I1525000J0D01*
G01*
X261502109Y-99752544D02*
G75*
G02*
X258452109Y-99752544I-1525000J0D01*
G01*
X258452109Y-99752544D02*
G75*
G02*
X261502109Y-99752544I1525000J0D01*
G01*
D23*
X261427109Y-103552544D02*
G75*
G02*
X259527109Y-103552544I-950000J0D01*
G01*
X259527109Y-103552544D02*
G75*
G02*
X261427109Y-103552544I950000J0D01*
G01*
D25*
X253077109Y-88282544D02*
X253077109Y-90882544D01*
X253277109Y-91082544D02*
X256677109Y-91082544D01*
X256677109Y-88082544D02*
X253277109Y-88082544D01*
X256877109Y-90882544D02*
X256877109Y-88282544D01*
X253077109Y-88282544D02*
G75*
G02*
X253277109Y-88082544I200000J0D01*
G01*
X253277109Y-91082544D02*
G75*
G02*
X253077109Y-90882544I0J200000D01*
G01*
X256677109Y-88082544D02*
G75*
G02*
X256877109Y-88282544I-1J-200001D01*
G01*
X256877109Y-90882544D02*
G75*
G02*
X256677109Y-91082544I-200001J1D01*
G01*
X224502109Y-169482544D02*
X224502109Y-172082544D01*
X224702109Y-172282544D02*
X228102109Y-172282544D01*
X228102109Y-169282544D02*
X224702109Y-169282544D01*
X228302109Y-172082544D02*
X228302109Y-169482544D01*
X224502109Y-169482544D02*
G75*
G02*
X224702109Y-169282544I200000J0D01*
G01*
X224702109Y-172282544D02*
G75*
G02*
X224502109Y-172082544I0J200000D01*
G01*
X228102109Y-169282544D02*
G75*
G02*
X228302109Y-169482544I-1J-200001D01*
G01*
X228302109Y-172082544D02*
G75*
G02*
X228102109Y-172282544I-200001J1D01*
G01*
X214977109Y-93282544D02*
X214977109Y-95882544D01*
X215177109Y-96082544D02*
X218577109Y-96082544D01*
X218577109Y-93082544D02*
X215177109Y-93082544D01*
X218777109Y-95882544D02*
X218777109Y-93282544D01*
X214977109Y-93282544D02*
G75*
G02*
X215177109Y-93082544I200000J0D01*
G01*
X215177109Y-96082544D02*
G75*
G02*
X214977109Y-95882544I0J200000D01*
G01*
X218577109Y-93082544D02*
G75*
G02*
X218777109Y-93282544I-1J-200001D01*
G01*
X218777109Y-95882544D02*
G75*
G02*
X218577109Y-96082544I-200001J1D01*
G01*
X310227109Y-155432544D02*
X310227109Y-158032544D01*
X310427109Y-158232544D02*
X313827109Y-158232544D01*
X313827109Y-155232544D02*
X310427109Y-155232544D01*
X314027109Y-158032544D02*
X314027109Y-155432544D01*
X310227109Y-155432544D02*
G75*
G02*
X310427109Y-155232544I200000J0D01*
G01*
X310427109Y-158232544D02*
G75*
G02*
X310227109Y-158032544I0J200000D01*
G01*
X313827109Y-155232544D02*
G75*
G02*
X314027109Y-155432544I-1J-200001D01*
G01*
X314027109Y-158032544D02*
G75*
G02*
X313827109Y-158232544I-200001J1D01*
G01*
X253077109Y-145432544D02*
X253077109Y-148032544D01*
X253277109Y-148232544D02*
X256677109Y-148232544D01*
X256677109Y-145232544D02*
X253277109Y-145232544D01*
X256877109Y-148032544D02*
X256877109Y-145432544D01*
X253077109Y-145432544D02*
G75*
G02*
X253277109Y-145232544I200000J0D01*
G01*
X253277109Y-148232544D02*
G75*
G02*
X253077109Y-148032544I0J200000D01*
G01*
X256677109Y-145232544D02*
G75*
G02*
X256877109Y-145432544I-1J-200001D01*
G01*
X256877109Y-148032544D02*
G75*
G02*
X256677109Y-148232544I-200001J1D01*
G01*
X234027109Y-109332544D02*
X234027109Y-111932544D01*
X234227109Y-112132544D02*
X237627109Y-112132544D01*
X237627109Y-109132544D02*
X234227109Y-109132544D01*
X237827109Y-111932544D02*
X237827109Y-109332544D01*
X234027109Y-109332544D02*
G75*
G02*
X234227109Y-109132544I200000J0D01*
G01*
X234227109Y-112132544D02*
G75*
G02*
X234027109Y-111932544I0J200000D01*
G01*
X237627109Y-109132544D02*
G75*
G02*
X237827109Y-109332544I-1J-200001D01*
G01*
X237827109Y-111932544D02*
G75*
G02*
X237627109Y-112132544I-200001J1D01*
G01*
X310227109Y-98282544D02*
X310227109Y-100882544D01*
X310427109Y-101082544D02*
X313827109Y-101082544D01*
X313827109Y-98082544D02*
X310427109Y-98082544D01*
X314027109Y-100882544D02*
X314027109Y-98282544D01*
X310227109Y-98282544D02*
G75*
G02*
X310427109Y-98082544I200000J0D01*
G01*
X310427109Y-101082544D02*
G75*
G02*
X310227109Y-100882544I0J200000D01*
G01*
X313827109Y-98082544D02*
G75*
G02*
X314027109Y-98282544I-1J-200001D01*
G01*
X314027109Y-100882544D02*
G75*
G02*
X313827109Y-101082544I-200001J1D01*
G01*
D24*
X206527109Y-117402544D02*
G75*
G02*
X204127109Y-117402544I-1200000J0D01*
G01*
X204127109Y-117402544D02*
G75*
G02*
X206527109Y-117402544I1200000J0D01*
G01*
D25*
X272127109Y-128382544D02*
X272127109Y-130982544D01*
X272327109Y-131182544D02*
X275727109Y-131182544D01*
X275727109Y-128182544D02*
X272327109Y-128182544D01*
X275927109Y-130982544D02*
X275927109Y-128382544D01*
X272127109Y-128382544D02*
G75*
G02*
X272327109Y-128182544I200000J0D01*
G01*
X272327109Y-131182544D02*
G75*
G02*
X272127109Y-130982544I0J200000D01*
G01*
X275727109Y-128182544D02*
G75*
G02*
X275927109Y-128382544I-1J-200001D01*
G01*
X275927109Y-130982544D02*
G75*
G02*
X275727109Y-131182544I-200001J1D01*
G01*
X253077109Y-107332544D02*
X253077109Y-109932544D01*
X253277109Y-110132544D02*
X256677109Y-110132544D01*
X256677109Y-107132544D02*
X253277109Y-107132544D01*
X256877109Y-109932544D02*
X256877109Y-107332544D01*
X253077109Y-107332544D02*
G75*
G02*
X253277109Y-107132544I200000J0D01*
G01*
X253277109Y-110132544D02*
G75*
G02*
X253077109Y-109932544I0J200000D01*
G01*
X256677109Y-107132544D02*
G75*
G02*
X256877109Y-107332544I-1J-200001D01*
G01*
X256877109Y-109932544D02*
G75*
G02*
X256677109Y-110132544I-200001J1D01*
G01*
X291177109Y-95282544D02*
X291177109Y-97882544D01*
X291377109Y-98082544D02*
X294777109Y-98082544D01*
X294777109Y-95082544D02*
X291377109Y-95082544D01*
X294977109Y-97882544D02*
X294977109Y-95282544D01*
X291177109Y-95282544D02*
G75*
G02*
X291377109Y-95082544I200000J0D01*
G01*
X291377109Y-98082544D02*
G75*
G02*
X291177109Y-97882544I0J200000D01*
G01*
X294777109Y-95082544D02*
G75*
G02*
X294977109Y-95282544I-1J-200001D01*
G01*
X294977109Y-97882544D02*
G75*
G02*
X294777109Y-98082544I-200001J1D01*
G01*
X214977109Y-131382544D02*
X214977109Y-133982544D01*
X215177109Y-134182544D02*
X218577109Y-134182544D01*
X218577109Y-131182544D02*
X215177109Y-131182544D01*
X218777109Y-133982544D02*
X218777109Y-131382544D01*
X214977109Y-131382544D02*
G75*
G02*
X215177109Y-131182544I200000J0D01*
G01*
X215177109Y-134182544D02*
G75*
G02*
X214977109Y-133982544I0J200000D01*
G01*
X218577109Y-131182544D02*
G75*
G02*
X218777109Y-131382544I-1J-200001D01*
G01*
X218777109Y-133982544D02*
G75*
G02*
X218577109Y-134182544I-200001J1D01*
G01*
X310227109Y-136382544D02*
X310227109Y-138982544D01*
X310427109Y-139182544D02*
X313827109Y-139182544D01*
X313827109Y-136182544D02*
X310427109Y-136182544D01*
X314027109Y-138982544D02*
X314027109Y-136382544D01*
X310227109Y-136382544D02*
G75*
G02*
X310427109Y-136182544I200000J0D01*
G01*
X310427109Y-139182544D02*
G75*
G02*
X310227109Y-138982544I0J200000D01*
G01*
X313827109Y-136182544D02*
G75*
G02*
X314027109Y-136382544I-1J-200001D01*
G01*
X314027109Y-138982544D02*
G75*
G02*
X313827109Y-139182544I-200001J1D01*
G01*
X291177109Y-133382544D02*
X291177109Y-135982544D01*
X291377109Y-136182544D02*
X294777109Y-136182544D01*
X294777109Y-133182544D02*
X291377109Y-133182544D01*
X294977109Y-135982544D02*
X294977109Y-133382544D01*
X291177109Y-133382544D02*
G75*
G02*
X291377109Y-133182544I200000J0D01*
G01*
X291377109Y-136182544D02*
G75*
G02*
X291177109Y-135982544I0J200000D01*
G01*
X294777109Y-133182544D02*
G75*
G02*
X294977109Y-133382544I-1J-200001D01*
G01*
X294977109Y-135982544D02*
G75*
G02*
X294777109Y-136182544I-200001J1D01*
G01*
X291177109Y-152432544D02*
X291177109Y-155032544D01*
X291377109Y-155232544D02*
X294777109Y-155232544D01*
X294777109Y-152232544D02*
X291377109Y-152232544D01*
X294977109Y-155032544D02*
X294977109Y-152432544D01*
X291177109Y-152432544D02*
G75*
G02*
X291377109Y-152232544I200000J0D01*
G01*
X291377109Y-155232544D02*
G75*
G02*
X291177109Y-155032544I0J200000D01*
G01*
X294777109Y-152232544D02*
G75*
G02*
X294977109Y-152432544I-1J-200001D01*
G01*
X294977109Y-155032544D02*
G75*
G02*
X294777109Y-155232544I-200001J1D01*
G01*
X194821841Y-167591141D02*
X196258743Y-170672588D01*
X196524529Y-170769326D02*
X198880929Y-169670518D01*
X197274979Y-166226548D02*
X194918579Y-167325356D01*
X198977667Y-169404733D02*
X197540765Y-166323286D01*
X194821841Y-167591141D02*
G75*
G02*
X194918579Y-167325356I181262J84523D01*
G01*
X196524529Y-170769326D02*
G75*
G02*
X196258744Y-170672587I-84523J181262D01*
G01*
X197274979Y-166226548D02*
G75*
G02*
X197540765Y-166323286I84524J-181262D01*
G01*
X198977667Y-169404733D02*
G75*
G02*
X198880929Y-169670518I-181263J-84523D01*
G01*
D23*
X288527109Y-110552544D02*
G75*
G02*
X286627109Y-110552544I-950000J0D01*
G01*
X286627109Y-110552544D02*
G75*
G02*
X288527109Y-110552544I950000J0D01*
G01*
D24*
X294602109Y-104652544D02*
G75*
G02*
X291552109Y-104652544I-1525000J0D01*
G01*
X291552109Y-104652544D02*
G75*
G02*
X294602109Y-104652544I1525000J0D01*
G01*
X299602109Y-106752544D02*
G75*
G02*
X296552109Y-106752544I-1525000J0D01*
G01*
X296552109Y-106752544D02*
G75*
G02*
X299602109Y-106752544I1525000J0D01*
G01*
D23*
X299527109Y-110552544D02*
G75*
G02*
X297627109Y-110552544I-950000J0D01*
G01*
X297627109Y-110552544D02*
G75*
G02*
X299527109Y-110552544I950000J0D01*
G01*
X269477109Y-105552544D02*
G75*
G02*
X267577109Y-105552544I-950000J0D01*
G01*
X267577109Y-105552544D02*
G75*
G02*
X269477109Y-105552544I950000J0D01*
G01*
D24*
X275552109Y-99652544D02*
G75*
G02*
X272502109Y-99652544I-1525000J0D01*
G01*
X272502109Y-99652544D02*
G75*
G02*
X275552109Y-99652544I1525000J0D01*
G01*
X280552109Y-101752544D02*
G75*
G02*
X277502109Y-101752544I-1525000J0D01*
G01*
X277502109Y-101752544D02*
G75*
G02*
X280552109Y-101752544I1525000J0D01*
G01*
D23*
X280477109Y-105552544D02*
G75*
G02*
X278577109Y-105552544I-950000J0D01*
G01*
X278577109Y-105552544D02*
G75*
G02*
X280477109Y-105552544I950000J0D01*
G01*
D25*
X214977109Y-150432544D02*
X214977109Y-153032544D01*
X215177109Y-153232544D02*
X218577109Y-153232544D01*
X218577109Y-150232544D02*
X215177109Y-150232544D01*
X218777109Y-153032544D02*
X218777109Y-150432544D01*
X214977109Y-150432544D02*
G75*
G02*
X215177109Y-150232544I200000J0D01*
G01*
X215177109Y-153232544D02*
G75*
G02*
X214977109Y-153032544I0J200000D01*
G01*
X218577109Y-150232544D02*
G75*
G02*
X218777109Y-150432544I-1J-200001D01*
G01*
X218777109Y-153032544D02*
G75*
G02*
X218577109Y-153232544I-200001J1D01*
G01*
X214977109Y-112332544D02*
X214977109Y-114932544D01*
X215177109Y-115132544D02*
X218577109Y-115132544D01*
X218577109Y-112132544D02*
X215177109Y-112132544D01*
X218777109Y-114932544D02*
X218777109Y-112332544D01*
X214977109Y-112332544D02*
G75*
G02*
X215177109Y-112132544I200000J0D01*
G01*
X215177109Y-115132544D02*
G75*
G02*
X214977109Y-114932544I0J200000D01*
G01*
X218577109Y-112132544D02*
G75*
G02*
X218777109Y-112332544I-1J-200001D01*
G01*
X218777109Y-114932544D02*
G75*
G02*
X218577109Y-115132544I-200001J1D01*
G01*
X234027109Y-128382544D02*
X234027109Y-130982544D01*
X234227109Y-131182544D02*
X237627109Y-131182544D01*
X237627109Y-128182544D02*
X234227109Y-128182544D01*
X237827109Y-130982544D02*
X237827109Y-128382544D01*
X234027109Y-128382544D02*
G75*
G02*
X234227109Y-128182544I200000J0D01*
G01*
X234227109Y-131182544D02*
G75*
G02*
X234027109Y-130982544I0J200000D01*
G01*
X237627109Y-128182544D02*
G75*
G02*
X237827109Y-128382544I-1J-200001D01*
G01*
X237827109Y-130982544D02*
G75*
G02*
X237627109Y-131182544I-200001J1D01*
G01*
X262602109Y-166482544D02*
X262602109Y-169082544D01*
X262802109Y-169282544D02*
X266202109Y-169282544D01*
X266202109Y-166282544D02*
X262802109Y-166282544D01*
X266402109Y-169082544D02*
X266402109Y-166482544D01*
X262602109Y-166482544D02*
G75*
G02*
X262802109Y-166282544I200000J0D01*
G01*
X262802109Y-169282544D02*
G75*
G02*
X262602109Y-169082544I0J200000D01*
G01*
X266202109Y-166282544D02*
G75*
G02*
X266402109Y-166482544I-1J-200001D01*
G01*
X266402109Y-169082544D02*
G75*
G02*
X266202109Y-169282544I-200001J1D01*
G01*
X310227109Y-117332544D02*
X310227109Y-119932544D01*
X310427109Y-120132544D02*
X313827109Y-120132544D01*
X313827109Y-117132544D02*
X310427109Y-117132544D01*
X314027109Y-119932544D02*
X314027109Y-117332544D01*
X310227109Y-117332544D02*
G75*
G02*
X310427109Y-117132544I200000J0D01*
G01*
X310427109Y-120132544D02*
G75*
G02*
X310227109Y-119932544I0J200000D01*
G01*
X313827109Y-117132544D02*
G75*
G02*
X314027109Y-117332544I-1J-200001D01*
G01*
X314027109Y-119932544D02*
G75*
G02*
X313827109Y-120132544I-200001J1D01*
G01*
X243552109Y-166482544D02*
X243552109Y-169082544D01*
X243752109Y-169282544D02*
X247152109Y-169282544D01*
X247152109Y-166282544D02*
X243752109Y-166282544D01*
X247352109Y-169082544D02*
X247352109Y-166482544D01*
X243552109Y-166482544D02*
G75*
G02*
X243752109Y-166282544I200000J0D01*
G01*
X243752109Y-169282544D02*
G75*
G02*
X243552109Y-169082544I0J200000D01*
G01*
X247152109Y-166282544D02*
G75*
G02*
X247352109Y-166482544I-1J-200001D01*
G01*
X247352109Y-169082544D02*
G75*
G02*
X247152109Y-169282544I-200001J1D01*
G01*
X291177109Y-114332544D02*
X291177109Y-116932544D01*
X291377109Y-117132544D02*
X294777109Y-117132544D01*
X294777109Y-114132544D02*
X291377109Y-114132544D01*
X294977109Y-116932544D02*
X294977109Y-114332544D01*
X291177109Y-114332544D02*
G75*
G02*
X291377109Y-114132544I200000J0D01*
G01*
X291377109Y-117132544D02*
G75*
G02*
X291177109Y-116932544I0J200000D01*
G01*
X294777109Y-114132544D02*
G75*
G02*
X294977109Y-114332544I-1J-200001D01*
G01*
X294977109Y-116932544D02*
G75*
G02*
X294777109Y-117132544I-200001J1D01*
G01*
X234027109Y-147432544D02*
X234027109Y-150032544D01*
X234227109Y-150232544D02*
X237627109Y-150232544D01*
X237627109Y-147232544D02*
X234227109Y-147232544D01*
X237827109Y-150032544D02*
X237827109Y-147432544D01*
X234027109Y-147432544D02*
G75*
G02*
X234227109Y-147232544I200000J0D01*
G01*
X234227109Y-150232544D02*
G75*
G02*
X234027109Y-150032544I0J200000D01*
G01*
X237627109Y-147232544D02*
G75*
G02*
X237827109Y-147432544I-1J-200001D01*
G01*
X237827109Y-150032544D02*
G75*
G02*
X237627109Y-150232544I-200001J1D01*
G01*
D24*
X67622196Y-171423134D02*
G75*
G02*
X63022196Y-171423134I-2300000J0D01*
G01*
X63022196Y-171423134D02*
G75*
G02*
X67622196Y-171423134I2300000J0D01*
G01*
X67622196Y-192636334D02*
G75*
G02*
X63022196Y-192636334I-2300000J0D01*
G01*
X63022196Y-192636334D02*
G75*
G02*
X67622196Y-192636334I2300000J0D01*
G01*
X73546816Y-178847754D02*
G75*
G02*
X71946816Y-178847754I-800000J0D01*
G01*
X71946816Y-178847754D02*
G75*
G02*
X73546816Y-178847754I800000J0D01*
G01*
X79910776Y-185211714D02*
G75*
G02*
X78310776Y-185211714I-800000J0D01*
G01*
X78310776Y-185211714D02*
G75*
G02*
X79910776Y-185211714I800000J0D01*
G01*
X88835396Y-171423134D02*
G75*
G02*
X84235396Y-171423134I-2300000J0D01*
G01*
X84235396Y-171423134D02*
G75*
G02*
X88835396Y-171423134I2300000J0D01*
G01*
X88835396Y-192636334D02*
G75*
G02*
X84235396Y-192636334I-2300000J0D01*
G01*
X84235396Y-192636334D02*
G75*
G02*
X88835396Y-192636334I2300000J0D01*
G01*
D23*
X70451607Y-149102544D02*
G75*
G02*
X68551607Y-149102544I-950000J0D01*
G01*
X68551607Y-149102544D02*
G75*
G02*
X70451607Y-149102544I950000J0D01*
G01*
D24*
X76526607Y-143202544D02*
G75*
G02*
X73476607Y-143202544I-1525000J0D01*
G01*
X73476607Y-143202544D02*
G75*
G02*
X76526607Y-143202544I1525000J0D01*
G01*
X81526607Y-145302544D02*
G75*
G02*
X78476607Y-145302544I-1525000J0D01*
G01*
X78476607Y-145302544D02*
G75*
G02*
X81526607Y-145302544I1525000J0D01*
G01*
D23*
X81451607Y-149102544D02*
G75*
G02*
X79551607Y-149102544I-950000J0D01*
G01*
X79551607Y-149102544D02*
G75*
G02*
X81451607Y-149102544I950000J0D01*
G01*
X99026607Y-163152544D02*
G75*
G02*
X97126607Y-163152544I-950000J0D01*
G01*
X97126607Y-163152544D02*
G75*
G02*
X99026607Y-163152544I950000J0D01*
G01*
D24*
X105101607Y-157252544D02*
G75*
G02*
X102051607Y-157252544I-1525000J0D01*
G01*
X102051607Y-157252544D02*
G75*
G02*
X105101607Y-157252544I1525000J0D01*
G01*
X110101607Y-159352544D02*
G75*
G02*
X107051607Y-159352544I-1525000J0D01*
G01*
X107051607Y-159352544D02*
G75*
G02*
X110101607Y-159352544I1525000J0D01*
G01*
D23*
X110026607Y-163152544D02*
G75*
G02*
X108126607Y-163152544I-950000J0D01*
G01*
X108126607Y-163152544D02*
G75*
G02*
X110026607Y-163152544I950000J0D01*
G01*
X146651607Y-147102544D02*
G75*
G02*
X144751607Y-147102544I-950000J0D01*
G01*
X144751607Y-147102544D02*
G75*
G02*
X146651607Y-147102544I950000J0D01*
G01*
D24*
X152726607Y-141202544D02*
G75*
G02*
X149676607Y-141202544I-1525000J0D01*
G01*
X149676607Y-141202544D02*
G75*
G02*
X152726607Y-141202544I1525000J0D01*
G01*
X157726607Y-143302544D02*
G75*
G02*
X154676607Y-143302544I-1525000J0D01*
G01*
X154676607Y-143302544D02*
G75*
G02*
X157726607Y-143302544I1525000J0D01*
G01*
D23*
X157651607Y-147102544D02*
G75*
G02*
X155751607Y-147102544I-950000J0D01*
G01*
X155751607Y-147102544D02*
G75*
G02*
X157651607Y-147102544I950000J0D01*
G01*
X89501607Y-106002544D02*
G75*
G02*
X87601607Y-106002544I-950000J0D01*
G01*
X87601607Y-106002544D02*
G75*
G02*
X89501607Y-106002544I950000J0D01*
G01*
D24*
X95576607Y-100102544D02*
G75*
G02*
X92526607Y-100102544I-1525000J0D01*
G01*
X92526607Y-100102544D02*
G75*
G02*
X95576607Y-100102544I1525000J0D01*
G01*
X100576607Y-102202544D02*
G75*
G02*
X97526607Y-102202544I-1525000J0D01*
G01*
X97526607Y-102202544D02*
G75*
G02*
X100576607Y-102202544I1525000J0D01*
G01*
D23*
X100501607Y-106002544D02*
G75*
G02*
X98601607Y-106002544I-950000J0D01*
G01*
X98601607Y-106002544D02*
G75*
G02*
X100501607Y-106002544I950000J0D01*
G01*
X108551607Y-142102544D02*
G75*
G02*
X106651607Y-142102544I-950000J0D01*
G01*
X106651607Y-142102544D02*
G75*
G02*
X108551607Y-142102544I950000J0D01*
G01*
D24*
X114626607Y-136202544D02*
G75*
G02*
X111576607Y-136202544I-1525000J0D01*
G01*
X111576607Y-136202544D02*
G75*
G02*
X114626607Y-136202544I1525000J0D01*
G01*
X119626607Y-138302544D02*
G75*
G02*
X116576607Y-138302544I-1525000J0D01*
G01*
X116576607Y-138302544D02*
G75*
G02*
X119626607Y-138302544I1525000J0D01*
G01*
D23*
X119551607Y-142102544D02*
G75*
G02*
X117651607Y-142102544I-950000J0D01*
G01*
X117651607Y-142102544D02*
G75*
G02*
X119551607Y-142102544I950000J0D01*
G01*
X51401607Y-94952544D02*
G75*
G02*
X49501607Y-94952544I-950000J0D01*
G01*
X49501607Y-94952544D02*
G75*
G02*
X51401607Y-94952544I950000J0D01*
G01*
D24*
X57476607Y-89052544D02*
G75*
G02*
X54426607Y-89052544I-1525000J0D01*
G01*
X54426607Y-89052544D02*
G75*
G02*
X57476607Y-89052544I1525000J0D01*
G01*
X62476607Y-91152544D02*
G75*
G02*
X59426607Y-91152544I-1525000J0D01*
G01*
X59426607Y-91152544D02*
G75*
G02*
X62476607Y-91152544I1525000J0D01*
G01*
D23*
X62401607Y-94952544D02*
G75*
G02*
X60501607Y-94952544I-950000J0D01*
G01*
X60501607Y-94952544D02*
G75*
G02*
X62401607Y-94952544I950000J0D01*
G01*
X89501607Y-86952544D02*
G75*
G02*
X87601607Y-86952544I-950000J0D01*
G01*
X87601607Y-86952544D02*
G75*
G02*
X89501607Y-86952544I950000J0D01*
G01*
D24*
X95576607Y-81052544D02*
G75*
G02*
X92526607Y-81052544I-1525000J0D01*
G01*
X92526607Y-81052544D02*
G75*
G02*
X95576607Y-81052544I1525000J0D01*
G01*
X100576607Y-83152544D02*
G75*
G02*
X97526607Y-83152544I-1525000J0D01*
G01*
X97526607Y-83152544D02*
G75*
G02*
X100576607Y-83152544I1525000J0D01*
G01*
D23*
X100501607Y-86952544D02*
G75*
G02*
X98601607Y-86952544I-950000J0D01*
G01*
X98601607Y-86952544D02*
G75*
G02*
X100501607Y-86952544I950000J0D01*
G01*
X118076607Y-163152544D02*
G75*
G02*
X116176607Y-163152544I-950000J0D01*
G01*
X116176607Y-163152544D02*
G75*
G02*
X118076607Y-163152544I950000J0D01*
G01*
D24*
X124151607Y-157252544D02*
G75*
G02*
X121101607Y-157252544I-1525000J0D01*
G01*
X121101607Y-157252544D02*
G75*
G02*
X124151607Y-157252544I1525000J0D01*
G01*
X129151607Y-159352544D02*
G75*
G02*
X126101607Y-159352544I-1525000J0D01*
G01*
X126101607Y-159352544D02*
G75*
G02*
X129151607Y-159352544I1525000J0D01*
G01*
D23*
X129076607Y-163152544D02*
G75*
G02*
X127176607Y-163152544I-950000J0D01*
G01*
X127176607Y-163152544D02*
G75*
G02*
X129076607Y-163152544I950000J0D01*
G01*
X51401607Y-152102544D02*
G75*
G02*
X49501607Y-152102544I-950000J0D01*
G01*
X49501607Y-152102544D02*
G75*
G02*
X51401607Y-152102544I950000J0D01*
G01*
D24*
X57476607Y-146202544D02*
G75*
G02*
X54426607Y-146202544I-1525000J0D01*
G01*
X54426607Y-146202544D02*
G75*
G02*
X57476607Y-146202544I1525000J0D01*
G01*
X62476607Y-148302544D02*
G75*
G02*
X59426607Y-148302544I-1525000J0D01*
G01*
X59426607Y-148302544D02*
G75*
G02*
X62476607Y-148302544I1525000J0D01*
G01*
D23*
X62401607Y-152102544D02*
G75*
G02*
X60501607Y-152102544I-950000J0D01*
G01*
X60501607Y-152102544D02*
G75*
G02*
X62401607Y-152102544I950000J0D01*
G01*
X127601607Y-144102544D02*
G75*
G02*
X125701607Y-144102544I-950000J0D01*
G01*
X125701607Y-144102544D02*
G75*
G02*
X127601607Y-144102544I950000J0D01*
G01*
D24*
X133676607Y-138202544D02*
G75*
G02*
X130626607Y-138202544I-1525000J0D01*
G01*
X130626607Y-138202544D02*
G75*
G02*
X133676607Y-138202544I1525000J0D01*
G01*
X138676607Y-140302544D02*
G75*
G02*
X135626607Y-140302544I-1525000J0D01*
G01*
X135626607Y-140302544D02*
G75*
G02*
X138676607Y-140302544I1525000J0D01*
G01*
D23*
X138601607Y-144102544D02*
G75*
G02*
X136701607Y-144102544I-950000J0D01*
G01*
X136701607Y-144102544D02*
G75*
G02*
X138601607Y-144102544I950000J0D01*
G01*
X127601607Y-86952544D02*
G75*
G02*
X125701607Y-86952544I-950000J0D01*
G01*
X125701607Y-86952544D02*
G75*
G02*
X127601607Y-86952544I950000J0D01*
G01*
D24*
X133676607Y-81052544D02*
G75*
G02*
X130626607Y-81052544I-1525000J0D01*
G01*
X130626607Y-81052544D02*
G75*
G02*
X133676607Y-81052544I1525000J0D01*
G01*
X138676607Y-83152544D02*
G75*
G02*
X135626607Y-83152544I-1525000J0D01*
G01*
X135626607Y-83152544D02*
G75*
G02*
X138676607Y-83152544I1525000J0D01*
G01*
D23*
X138601607Y-86952544D02*
G75*
G02*
X136701607Y-86952544I-950000J0D01*
G01*
X136701607Y-86952544D02*
G75*
G02*
X138601607Y-86952544I950000J0D01*
G01*
X127601607Y-106002544D02*
G75*
G02*
X125701607Y-106002544I-950000J0D01*
G01*
X125701607Y-106002544D02*
G75*
G02*
X127601607Y-106002544I950000J0D01*
G01*
D24*
X133676607Y-100102544D02*
G75*
G02*
X130626607Y-100102544I-1525000J0D01*
G01*
X130626607Y-100102544D02*
G75*
G02*
X133676607Y-100102544I1525000J0D01*
G01*
X138676607Y-102202544D02*
G75*
G02*
X135626607Y-102202544I-1525000J0D01*
G01*
X135626607Y-102202544D02*
G75*
G02*
X138676607Y-102202544I1525000J0D01*
G01*
D23*
X138601607Y-106002544D02*
G75*
G02*
X136701607Y-106002544I-950000J0D01*
G01*
X136701607Y-106002544D02*
G75*
G02*
X138601607Y-106002544I950000J0D01*
G01*
X70451607Y-130052544D02*
G75*
G02*
X68551607Y-130052544I-950000J0D01*
G01*
X68551607Y-130052544D02*
G75*
G02*
X70451607Y-130052544I950000J0D01*
G01*
D24*
X76526607Y-124152544D02*
G75*
G02*
X73476607Y-124152544I-1525000J0D01*
G01*
X73476607Y-124152544D02*
G75*
G02*
X76526607Y-124152544I1525000J0D01*
G01*
X81526607Y-126252544D02*
G75*
G02*
X78476607Y-126252544I-1525000J0D01*
G01*
X78476607Y-126252544D02*
G75*
G02*
X81526607Y-126252544I1525000J0D01*
G01*
D23*
X81451607Y-130052544D02*
G75*
G02*
X79551607Y-130052544I-950000J0D01*
G01*
X79551607Y-130052544D02*
G75*
G02*
X81451607Y-130052544I950000J0D01*
G01*
D24*
X162752702Y-164307589D02*
G75*
G02*
X159702702Y-164307589I-1525000J0D01*
G01*
X159702702Y-164307589D02*
G75*
G02*
X162752702Y-164307589I1525000J0D01*
G01*
D23*
X165200518Y-171785730D02*
G75*
G02*
X163300518Y-171785730I-950000J0D01*
G01*
X163300518Y-171785730D02*
G75*
G02*
X165200518Y-171785730I950000J0D01*
G01*
D24*
X166769041Y-160663549D02*
G75*
G02*
X163719039Y-160663549I-1525001J0D01*
G01*
X163719039Y-160663549D02*
G75*
G02*
X166769041Y-160663549I1525001J0D01*
G01*
D23*
X169849318Y-161816344D02*
G75*
G02*
X167949318Y-161816344I-950000J0D01*
G01*
X167949318Y-161816344D02*
G75*
G02*
X169849318Y-161816344I950000J0D01*
G01*
X146651607Y-89952544D02*
G75*
G02*
X144751607Y-89952544I-950000J0D01*
G01*
X144751607Y-89952544D02*
G75*
G02*
X146651607Y-89952544I950000J0D01*
G01*
D24*
X152726607Y-84052544D02*
G75*
G02*
X149676607Y-84052544I-1525000J0D01*
G01*
X149676607Y-84052544D02*
G75*
G02*
X152726607Y-84052544I1525000J0D01*
G01*
X157726607Y-86152544D02*
G75*
G02*
X154676607Y-86152544I-1525000J0D01*
G01*
X154676607Y-86152544D02*
G75*
G02*
X157726607Y-86152544I1525000J0D01*
G01*
D23*
X157651607Y-89952544D02*
G75*
G02*
X155751607Y-89952544I-950000J0D01*
G01*
X155751607Y-89952544D02*
G75*
G02*
X157651607Y-89952544I950000J0D01*
G01*
X89501607Y-125052544D02*
G75*
G02*
X87601607Y-125052544I-950000J0D01*
G01*
X87601607Y-125052544D02*
G75*
G02*
X89501607Y-125052544I950000J0D01*
G01*
D24*
X95576607Y-119152544D02*
G75*
G02*
X92526607Y-119152544I-1525000J0D01*
G01*
X92526607Y-119152544D02*
G75*
G02*
X95576607Y-119152544I1525000J0D01*
G01*
X100576607Y-121252544D02*
G75*
G02*
X97526607Y-121252544I-1525000J0D01*
G01*
X97526607Y-121252544D02*
G75*
G02*
X100576607Y-121252544I1525000J0D01*
G01*
D23*
X100501607Y-125052544D02*
G75*
G02*
X98601607Y-125052544I-950000J0D01*
G01*
X98601607Y-125052544D02*
G75*
G02*
X100501607Y-125052544I950000J0D01*
G01*
X165701607Y-137577544D02*
G75*
G02*
X163801607Y-137577544I-950000J0D01*
G01*
X163801607Y-137577544D02*
G75*
G02*
X165701607Y-137577544I950000J0D01*
G01*
D24*
X171776607Y-131677544D02*
G75*
G02*
X168726607Y-131677544I-1525000J0D01*
G01*
X168726607Y-131677544D02*
G75*
G02*
X171776607Y-131677544I1525000J0D01*
G01*
X176776607Y-133777544D02*
G75*
G02*
X173726607Y-133777544I-1525000J0D01*
G01*
X173726607Y-133777544D02*
G75*
G02*
X176776607Y-133777544I1525000J0D01*
G01*
D23*
X176701607Y-137577544D02*
G75*
G02*
X174801607Y-137577544I-950000J0D01*
G01*
X174801607Y-137577544D02*
G75*
G02*
X176701607Y-137577544I950000J0D01*
G01*
X146651607Y-109002544D02*
G75*
G02*
X144751607Y-109002544I-950000J0D01*
G01*
X144751607Y-109002544D02*
G75*
G02*
X146651607Y-109002544I950000J0D01*
G01*
D24*
X152726607Y-103102544D02*
G75*
G02*
X149676607Y-103102544I-1525000J0D01*
G01*
X149676607Y-103102544D02*
G75*
G02*
X152726607Y-103102544I1525000J0D01*
G01*
X157726607Y-105202544D02*
G75*
G02*
X154676607Y-105202544I-1525000J0D01*
G01*
X154676607Y-105202544D02*
G75*
G02*
X157726607Y-105202544I1525000J0D01*
G01*
D23*
X157651607Y-109002544D02*
G75*
G02*
X155751607Y-109002544I-950000J0D01*
G01*
X155751607Y-109002544D02*
G75*
G02*
X157651607Y-109002544I950000J0D01*
G01*
D24*
X167226607Y-137796194D02*
X173226607Y-137796194D01*
X173226607Y-139796194D01*
X167226607Y-139796194D01*
X167226607Y-137796194D01*
D22*
X163951607Y-124521684D02*
G75*
G02*
X161751607Y-124521684I-1100000J0D01*
G01*
X161751607Y-124521684D02*
G75*
G02*
X163951607Y-124521684I1100000J0D01*
G01*
X163951607Y-148270704D02*
G75*
G02*
X161751607Y-148270704I-1100000J0D01*
G01*
X161751607Y-148270704D02*
G75*
G02*
X163951607Y-148270704I1100000J0D01*
G01*
D23*
X51401607Y-133052544D02*
G75*
G02*
X49501607Y-133052544I-950000J0D01*
G01*
X49501607Y-133052544D02*
G75*
G02*
X51401607Y-133052544I950000J0D01*
G01*
D24*
X57476607Y-127152544D02*
G75*
G02*
X54426607Y-127152544I-1525000J0D01*
G01*
X54426607Y-127152544D02*
G75*
G02*
X57476607Y-127152544I1525000J0D01*
G01*
X62476607Y-129252544D02*
G75*
G02*
X59426607Y-129252544I-1525000J0D01*
G01*
X59426607Y-129252544D02*
G75*
G02*
X62476607Y-129252544I1525000J0D01*
G01*
D23*
X62401607Y-133052544D02*
G75*
G02*
X60501607Y-133052544I-950000J0D01*
G01*
X60501607Y-133052544D02*
G75*
G02*
X62401607Y-133052544I950000J0D01*
G01*
X146651607Y-128052544D02*
G75*
G02*
X144751607Y-128052544I-950000J0D01*
G01*
X144751607Y-128052544D02*
G75*
G02*
X146651607Y-128052544I950000J0D01*
G01*
D24*
X152726607Y-122152544D02*
G75*
G02*
X149676607Y-122152544I-1525000J0D01*
G01*
X149676607Y-122152544D02*
G75*
G02*
X152726607Y-122152544I1525000J0D01*
G01*
X157726607Y-124252544D02*
G75*
G02*
X154676607Y-124252544I-1525000J0D01*
G01*
X154676607Y-124252544D02*
G75*
G02*
X157726607Y-124252544I1525000J0D01*
G01*
D23*
X157651607Y-128052544D02*
G75*
G02*
X155751607Y-128052544I-950000J0D01*
G01*
X155751607Y-128052544D02*
G75*
G02*
X157651607Y-128052544I950000J0D01*
G01*
X108551607Y-84952544D02*
G75*
G02*
X106651607Y-84952544I-950000J0D01*
G01*
X106651607Y-84952544D02*
G75*
G02*
X108551607Y-84952544I950000J0D01*
G01*
D24*
X114626607Y-79052544D02*
G75*
G02*
X111576607Y-79052544I-1525000J0D01*
G01*
X111576607Y-79052544D02*
G75*
G02*
X114626607Y-79052544I1525000J0D01*
G01*
X119626607Y-81152544D02*
G75*
G02*
X116576607Y-81152544I-1525000J0D01*
G01*
X116576607Y-81152544D02*
G75*
G02*
X119626607Y-81152544I1525000J0D01*
G01*
D23*
X119551607Y-84952544D02*
G75*
G02*
X117651607Y-84952544I-950000J0D01*
G01*
X117651607Y-84952544D02*
G75*
G02*
X119551607Y-84952544I950000J0D01*
G01*
D24*
X163951607Y-117852544D02*
G75*
G02*
X161551607Y-117852544I-1200000J0D01*
G01*
X161551607Y-117852544D02*
G75*
G02*
X163951607Y-117852544I1200000J0D01*
G01*
D23*
X51401607Y-114002544D02*
G75*
G02*
X49501607Y-114002544I-950000J0D01*
G01*
X49501607Y-114002544D02*
G75*
G02*
X51401607Y-114002544I950000J0D01*
G01*
D24*
X57476607Y-108102544D02*
G75*
G02*
X54426607Y-108102544I-1525000J0D01*
G01*
X54426607Y-108102544D02*
G75*
G02*
X57476607Y-108102544I1525000J0D01*
G01*
X62476607Y-110202544D02*
G75*
G02*
X59426607Y-110202544I-1525000J0D01*
G01*
X59426607Y-110202544D02*
G75*
G02*
X62476607Y-110202544I1525000J0D01*
G01*
D23*
X62401607Y-114002544D02*
G75*
G02*
X60501607Y-114002544I-950000J0D01*
G01*
X60501607Y-114002544D02*
G75*
G02*
X62401607Y-114002544I950000J0D01*
G01*
D24*
X195827109Y-137327544D02*
X199827109Y-137327544D01*
X199827109Y-139327544D01*
X195827109Y-139327544D01*
X195827109Y-137327544D01*
X192667109Y-143227544D02*
G75*
G02*
X190467109Y-143227544I-1100000J0D01*
G01*
X190467109Y-143227544D02*
G75*
G02*
X192667109Y-143227544I1100000J0D01*
G01*
X203127109Y-121227544D02*
G75*
G02*
X200927109Y-121227544I-1100000J0D01*
G01*
X200927109Y-121227544D02*
G75*
G02*
X203127109Y-121227544I1100000J0D01*
G01*
D23*
X108551607Y-123052544D02*
G75*
G02*
X106651607Y-123052544I-950000J0D01*
G01*
X106651607Y-123052544D02*
G75*
G02*
X108551607Y-123052544I950000J0D01*
G01*
D24*
X114626607Y-117152544D02*
G75*
G02*
X111576607Y-117152544I-1525000J0D01*
G01*
X111576607Y-117152544D02*
G75*
G02*
X114626607Y-117152544I1525000J0D01*
G01*
X119626607Y-119252544D02*
G75*
G02*
X116576607Y-119252544I-1525000J0D01*
G01*
X116576607Y-119252544D02*
G75*
G02*
X119626607Y-119252544I1525000J0D01*
G01*
D23*
X119551607Y-123052544D02*
G75*
G02*
X117651607Y-123052544I-950000J0D01*
G01*
X117651607Y-123052544D02*
G75*
G02*
X119551607Y-123052544I950000J0D01*
G01*
X89501607Y-144102544D02*
G75*
G02*
X87601607Y-144102544I-950000J0D01*
G01*
X87601607Y-144102544D02*
G75*
G02*
X89501607Y-144102544I950000J0D01*
G01*
D24*
X95576607Y-138202544D02*
G75*
G02*
X92526607Y-138202544I-1525000J0D01*
G01*
X92526607Y-138202544D02*
G75*
G02*
X95576607Y-138202544I1525000J0D01*
G01*
X100576607Y-140302544D02*
G75*
G02*
X97526607Y-140302544I-1525000J0D01*
G01*
X97526607Y-140302544D02*
G75*
G02*
X100576607Y-140302544I1525000J0D01*
G01*
D23*
X100501607Y-144102544D02*
G75*
G02*
X98601607Y-144102544I-950000J0D01*
G01*
X98601607Y-144102544D02*
G75*
G02*
X100501607Y-144102544I950000J0D01*
G01*
X70451607Y-111002544D02*
G75*
G02*
X68551607Y-111002544I-950000J0D01*
G01*
X68551607Y-111002544D02*
G75*
G02*
X70451607Y-111002544I950000J0D01*
G01*
D24*
X76526607Y-105102544D02*
G75*
G02*
X73476607Y-105102544I-1525000J0D01*
G01*
X73476607Y-105102544D02*
G75*
G02*
X76526607Y-105102544I1525000J0D01*
G01*
X81526607Y-107202544D02*
G75*
G02*
X78476607Y-107202544I-1525000J0D01*
G01*
X78476607Y-107202544D02*
G75*
G02*
X81526607Y-107202544I1525000J0D01*
G01*
D23*
X81451607Y-111002544D02*
G75*
G02*
X79551607Y-111002544I-950000J0D01*
G01*
X79551607Y-111002544D02*
G75*
G02*
X81451607Y-111002544I950000J0D01*
G01*
X70451607Y-91952544D02*
G75*
G02*
X68551607Y-91952544I-950000J0D01*
G01*
X68551607Y-91952544D02*
G75*
G02*
X70451607Y-91952544I950000J0D01*
G01*
D24*
X76526607Y-86052544D02*
G75*
G02*
X73476607Y-86052544I-1525000J0D01*
G01*
X73476607Y-86052544D02*
G75*
G02*
X76526607Y-86052544I1525000J0D01*
G01*
X81526607Y-88152544D02*
G75*
G02*
X78476607Y-88152544I-1525000J0D01*
G01*
X78476607Y-88152544D02*
G75*
G02*
X81526607Y-88152544I1525000J0D01*
G01*
D23*
X81451607Y-91952544D02*
G75*
G02*
X79551607Y-91952544I-950000J0D01*
G01*
X79551607Y-91952544D02*
G75*
G02*
X81451607Y-91952544I950000J0D01*
G01*
X127601607Y-125052544D02*
G75*
G02*
X125701607Y-125052544I-950000J0D01*
G01*
X125701607Y-125052544D02*
G75*
G02*
X127601607Y-125052544I950000J0D01*
G01*
D24*
X133676607Y-119152544D02*
G75*
G02*
X130626607Y-119152544I-1525000J0D01*
G01*
X130626607Y-119152544D02*
G75*
G02*
X133676607Y-119152544I1525000J0D01*
G01*
X138676607Y-121252544D02*
G75*
G02*
X135626607Y-121252544I-1525000J0D01*
G01*
X135626607Y-121252544D02*
G75*
G02*
X138676607Y-121252544I1525000J0D01*
G01*
D23*
X138601607Y-125052544D02*
G75*
G02*
X136701607Y-125052544I-950000J0D01*
G01*
X136701607Y-125052544D02*
G75*
G02*
X138601607Y-125052544I950000J0D01*
G01*
X108551607Y-104002544D02*
G75*
G02*
X106651607Y-104002544I-950000J0D01*
G01*
X106651607Y-104002544D02*
G75*
G02*
X108551607Y-104002544I950000J0D01*
G01*
D24*
X114626607Y-98102544D02*
G75*
G02*
X111576607Y-98102544I-1525000J0D01*
G01*
X111576607Y-98102544D02*
G75*
G02*
X114626607Y-98102544I1525000J0D01*
G01*
X119626607Y-100202544D02*
G75*
G02*
X116576607Y-100202544I-1525000J0D01*
G01*
X116576607Y-100202544D02*
G75*
G02*
X119626607Y-100202544I1525000J0D01*
G01*
D23*
X119551607Y-104002544D02*
G75*
G02*
X117651607Y-104002544I-950000J0D01*
G01*
X117651607Y-104002544D02*
G75*
G02*
X119551607Y-104002544I950000J0D01*
G01*
X137126607Y-166152544D02*
G75*
G02*
X135226607Y-166152544I-950000J0D01*
G01*
X135226607Y-166152544D02*
G75*
G02*
X137126607Y-166152544I950000J0D01*
G01*
D24*
X143201607Y-160252544D02*
G75*
G02*
X140151607Y-160252544I-1525000J0D01*
G01*
X140151607Y-160252544D02*
G75*
G02*
X143201607Y-160252544I1525000J0D01*
G01*
X148201607Y-162352544D02*
G75*
G02*
X145151607Y-162352544I-1525000J0D01*
G01*
X145151607Y-162352544D02*
G75*
G02*
X148201607Y-162352544I1525000J0D01*
G01*
D23*
X148126607Y-166152544D02*
G75*
G02*
X146226607Y-166152544I-950000J0D01*
G01*
X146226607Y-166152544D02*
G75*
G02*
X148126607Y-166152544I950000J0D01*
G01*
D25*
X130251607Y-128832544D02*
X130251607Y-131432544D01*
X130451607Y-131632544D02*
X133851607Y-131632544D01*
X133851607Y-128632544D02*
X130451607Y-128632544D01*
X134051607Y-131432544D02*
X134051607Y-128832544D01*
X130251607Y-128832544D02*
G75*
G02*
X130451607Y-128632544I200000J0D01*
G01*
X130451607Y-131632544D02*
G75*
G02*
X130251607Y-131432544I0J200000D01*
G01*
X133851607Y-128632544D02*
G75*
G02*
X134051607Y-128832544I-1J-200001D01*
G01*
X134051607Y-131432544D02*
G75*
G02*
X133851607Y-131632544I-200001J1D01*
G01*
X73101607Y-152882544D02*
X73101607Y-155482544D01*
X73301607Y-155682544D02*
X76701607Y-155682544D01*
X76701607Y-152682544D02*
X73301607Y-152682544D01*
X76901607Y-155482544D02*
X76901607Y-152882544D01*
X73101607Y-152882544D02*
G75*
G02*
X73301607Y-152682544I200000J0D01*
G01*
X73301607Y-155682544D02*
G75*
G02*
X73101607Y-155482544I0J200000D01*
G01*
X76701607Y-152682544D02*
G75*
G02*
X76901607Y-152882544I-1J-200001D01*
G01*
X76901607Y-155482544D02*
G75*
G02*
X76701607Y-155682544I-200001J1D01*
G01*
X101676607Y-166932544D02*
X101676607Y-169532544D01*
X101876607Y-169732544D02*
X105276607Y-169732544D01*
X105276607Y-166732544D02*
X101876607Y-166732544D01*
X105476607Y-169532544D02*
X105476607Y-166932544D01*
X101676607Y-166932544D02*
G75*
G02*
X101876607Y-166732544I200000J0D01*
G01*
X101876607Y-169732544D02*
G75*
G02*
X101676607Y-169532544I0J200000D01*
G01*
X105276607Y-166732544D02*
G75*
G02*
X105476607Y-166932544I-1J-200001D01*
G01*
X105476607Y-169532544D02*
G75*
G02*
X105276607Y-169732544I-200001J1D01*
G01*
X139776607Y-169932544D02*
X139776607Y-172532544D01*
X139976607Y-172732544D02*
X143376607Y-172732544D01*
X143376607Y-169732544D02*
X139976607Y-169732544D01*
X143576607Y-172532544D02*
X143576607Y-169932544D01*
X139776607Y-169932544D02*
G75*
G02*
X139976607Y-169732544I200000J0D01*
G01*
X139976607Y-172732544D02*
G75*
G02*
X139776607Y-172532544I0J200000D01*
G01*
X143376607Y-169732544D02*
G75*
G02*
X143576607Y-169932544I-1J-200001D01*
G01*
X143576607Y-172532544D02*
G75*
G02*
X143376607Y-172732544I-200001J1D01*
G01*
X54051607Y-136832544D02*
X54051607Y-139432544D01*
X54251607Y-139632544D02*
X57651607Y-139632544D01*
X57651607Y-136632544D02*
X54251607Y-136632544D01*
X57851607Y-139432544D02*
X57851607Y-136832544D01*
X54051607Y-136832544D02*
G75*
G02*
X54251607Y-136632544I200000J0D01*
G01*
X54251607Y-139632544D02*
G75*
G02*
X54051607Y-139432544I0J200000D01*
G01*
X57651607Y-136632544D02*
G75*
G02*
X57851607Y-136832544I-1J-200001D01*
G01*
X57851607Y-139432544D02*
G75*
G02*
X57651607Y-139632544I-200001J1D01*
G01*
X149301607Y-112782544D02*
X149301607Y-115382544D01*
X149501607Y-115582544D02*
X152901607Y-115582544D01*
X152901607Y-112582544D02*
X149501607Y-112582544D01*
X153101607Y-115382544D02*
X153101607Y-112782544D01*
X149301607Y-112782544D02*
G75*
G02*
X149501607Y-112582544I200000J0D01*
G01*
X149501607Y-115582544D02*
G75*
G02*
X149301607Y-115382544I0J200000D01*
G01*
X152901607Y-112582544D02*
G75*
G02*
X153101607Y-112782544I-1J-200001D01*
G01*
X153101607Y-115382544D02*
G75*
G02*
X152901607Y-115582544I-200001J1D01*
G01*
X111201607Y-126832544D02*
X111201607Y-129432544D01*
X111401607Y-129632544D02*
X114801607Y-129632544D01*
X114801607Y-126632544D02*
X111401607Y-126632544D01*
X115001607Y-129432544D02*
X115001607Y-126832544D01*
X111201607Y-126832544D02*
G75*
G02*
X111401607Y-126632544I200000J0D01*
G01*
X111401607Y-129632544D02*
G75*
G02*
X111201607Y-129432544I0J200000D01*
G01*
X114801607Y-126632544D02*
G75*
G02*
X115001607Y-126832544I-1J-200001D01*
G01*
X115001607Y-129432544D02*
G75*
G02*
X114801607Y-129632544I-200001J1D01*
G01*
X130251607Y-147882544D02*
X130251607Y-150482544D01*
X130451607Y-150682544D02*
X133851607Y-150682544D01*
X133851607Y-147682544D02*
X130451607Y-147682544D01*
X134051607Y-150482544D02*
X134051607Y-147882544D01*
X130251607Y-147882544D02*
G75*
G02*
X130451607Y-147682544I200000J0D01*
G01*
X130451607Y-150682544D02*
G75*
G02*
X130251607Y-150482544I0J200000D01*
G01*
X133851607Y-147682544D02*
G75*
G02*
X134051607Y-147882544I-1J-200001D01*
G01*
X134051607Y-150482544D02*
G75*
G02*
X133851607Y-150682544I-200001J1D01*
G01*
X92151607Y-128832544D02*
X92151607Y-131432544D01*
X92351607Y-131632544D02*
X95751607Y-131632544D01*
X95751607Y-128632544D02*
X92351607Y-128632544D01*
X95951607Y-131432544D02*
X95951607Y-128832544D01*
X92151607Y-128832544D02*
G75*
G02*
X92351607Y-128632544I200000J0D01*
G01*
X92351607Y-131632544D02*
G75*
G02*
X92151607Y-131432544I0J200000D01*
G01*
X95751607Y-128632544D02*
G75*
G02*
X95951607Y-128832544I-1J-200001D01*
G01*
X95951607Y-131432544D02*
G75*
G02*
X95751607Y-131632544I-200001J1D01*
G01*
X111201607Y-107782544D02*
X111201607Y-110382544D01*
X111401607Y-110582544D02*
X114801607Y-110582544D01*
X114801607Y-107582544D02*
X111401607Y-107582544D01*
X115001607Y-110382544D02*
X115001607Y-107782544D01*
X111201607Y-107782544D02*
G75*
G02*
X111401607Y-107582544I200000J0D01*
G01*
X111401607Y-110582544D02*
G75*
G02*
X111201607Y-110382544I0J200000D01*
G01*
X114801607Y-107582544D02*
G75*
G02*
X115001607Y-107782544I-1J-200001D01*
G01*
X115001607Y-110382544D02*
G75*
G02*
X114801607Y-110582544I-200001J1D01*
G01*
X169197787Y-170120518D02*
X171554187Y-171219326D01*
X170537951Y-166773286D02*
X169101049Y-169854733D01*
X171819973Y-171122588D02*
X173256875Y-168041141D01*
X173160137Y-167775356D02*
X170803737Y-166676548D01*
X169197787Y-170120518D02*
G75*
G02*
X169101049Y-169854733I84524J181262D01*
G01*
X170537951Y-166773286D02*
G75*
G02*
X170803738Y-166676547I181263J-84524D01*
G01*
X171819973Y-171122588D02*
G75*
G02*
X171554187Y-171219326I-181262J84524D01*
G01*
X173160137Y-167775356D02*
G75*
G02*
X173256875Y-168041141I-84525J-181262D01*
G01*
X149301607Y-150882544D02*
X149301607Y-153482544D01*
X149501607Y-153682544D02*
X152901607Y-153682544D01*
X152901607Y-150682544D02*
X149501607Y-150682544D01*
X153101607Y-153482544D02*
X153101607Y-150882544D01*
X149301607Y-150882544D02*
G75*
G02*
X149501607Y-150682544I200000J0D01*
G01*
X149501607Y-153682544D02*
G75*
G02*
X149301607Y-153482544I0J200000D01*
G01*
X152901607Y-150682544D02*
G75*
G02*
X153101607Y-150882544I-1J-200001D01*
G01*
X153101607Y-153482544D02*
G75*
G02*
X152901607Y-153682544I-200001J1D01*
G01*
X120726607Y-166932544D02*
X120726607Y-169532544D01*
X120926607Y-169732544D02*
X124326607Y-169732544D01*
X124326607Y-166732544D02*
X120926607Y-166732544D01*
X124526607Y-169532544D02*
X124526607Y-166932544D01*
X120726607Y-166932544D02*
G75*
G02*
X120926607Y-166732544I200000J0D01*
G01*
X120926607Y-169732544D02*
G75*
G02*
X120726607Y-169532544I0J200000D01*
G01*
X124326607Y-166732544D02*
G75*
G02*
X124526607Y-166932544I-1J-200001D01*
G01*
X124526607Y-169532544D02*
G75*
G02*
X124326607Y-169732544I-200001J1D01*
G01*
X130251607Y-90732544D02*
X130251607Y-93332544D01*
X130451607Y-93532544D02*
X133851607Y-93532544D01*
X133851607Y-90532544D02*
X130451607Y-90532544D01*
X134051607Y-93332544D02*
X134051607Y-90732544D01*
X130251607Y-90732544D02*
G75*
G02*
X130451607Y-90532544I200000J0D01*
G01*
X130451607Y-93532544D02*
G75*
G02*
X130251607Y-93332544I0J200000D01*
G01*
X133851607Y-90532544D02*
G75*
G02*
X134051607Y-90732544I-1J-200001D01*
G01*
X134051607Y-93332544D02*
G75*
G02*
X133851607Y-93532544I-200001J1D01*
G01*
X54051607Y-117782544D02*
X54051607Y-120382544D01*
X54251607Y-120582544D02*
X57651607Y-120582544D01*
X57651607Y-117582544D02*
X54251607Y-117582544D01*
X57851607Y-120382544D02*
X57851607Y-117782544D01*
X54051607Y-117782544D02*
G75*
G02*
X54251607Y-117582544I200000J0D01*
G01*
X54251607Y-120582544D02*
G75*
G02*
X54051607Y-120382544I0J200000D01*
G01*
X57651607Y-117582544D02*
G75*
G02*
X57851607Y-117782544I-1J-200001D01*
G01*
X57851607Y-120382544D02*
G75*
G02*
X57651607Y-120582544I-200001J1D01*
G01*
X54051607Y-98732544D02*
X54051607Y-101332544D01*
X54251607Y-101532544D02*
X57651607Y-101532544D01*
X57651607Y-98532544D02*
X54251607Y-98532544D01*
X57851607Y-101332544D02*
X57851607Y-98732544D01*
X54051607Y-98732544D02*
G75*
G02*
X54251607Y-98532544I200000J0D01*
G01*
X54251607Y-101532544D02*
G75*
G02*
X54051607Y-101332544I0J200000D01*
G01*
X57651607Y-98532544D02*
G75*
G02*
X57851607Y-98732544I-1J-200001D01*
G01*
X57851607Y-101332544D02*
G75*
G02*
X57651607Y-101532544I-200001J1D01*
G01*
X54051607Y-155882544D02*
X54051607Y-158482544D01*
X54251607Y-158682544D02*
X57651607Y-158682544D01*
X57651607Y-155682544D02*
X54251607Y-155682544D01*
X57851607Y-158482544D02*
X57851607Y-155882544D01*
X54051607Y-155882544D02*
G75*
G02*
X54251607Y-155682544I200000J0D01*
G01*
X54251607Y-158682544D02*
G75*
G02*
X54051607Y-158482544I0J200000D01*
G01*
X57651607Y-155682544D02*
G75*
G02*
X57851607Y-155882544I-1J-200001D01*
G01*
X57851607Y-158482544D02*
G75*
G02*
X57651607Y-158682544I-200001J1D01*
G01*
X149301607Y-131832544D02*
X149301607Y-134432544D01*
X149501607Y-134632544D02*
X152901607Y-134632544D01*
X152901607Y-131632544D02*
X149501607Y-131632544D01*
X153101607Y-134432544D02*
X153101607Y-131832544D01*
X149301607Y-131832544D02*
G75*
G02*
X149501607Y-131632544I200000J0D01*
G01*
X149501607Y-134632544D02*
G75*
G02*
X149301607Y-134432544I0J200000D01*
G01*
X152901607Y-131632544D02*
G75*
G02*
X153101607Y-131832544I-1J-200001D01*
G01*
X153101607Y-134432544D02*
G75*
G02*
X152901607Y-134632544I-200001J1D01*
G01*
X92151607Y-147882544D02*
X92151607Y-150482544D01*
X92351607Y-150682544D02*
X95751607Y-150682544D01*
X95751607Y-147682544D02*
X92351607Y-147682544D01*
X95951607Y-150482544D02*
X95951607Y-147882544D01*
X92151607Y-147882544D02*
G75*
G02*
X92351607Y-147682544I200000J0D01*
G01*
X92351607Y-150682544D02*
G75*
G02*
X92151607Y-150482544I0J200000D01*
G01*
X95751607Y-147682544D02*
G75*
G02*
X95951607Y-147882544I-1J-200001D01*
G01*
X95951607Y-150482544D02*
G75*
G02*
X95751607Y-150682544I-200001J1D01*
G01*
X130251607Y-109782544D02*
X130251607Y-112382544D01*
X130451607Y-112582544D02*
X133851607Y-112582544D01*
X133851607Y-109582544D02*
X130451607Y-109582544D01*
X134051607Y-112382544D02*
X134051607Y-109782544D01*
X130251607Y-109782544D02*
G75*
G02*
X130451607Y-109582544I200000J0D01*
G01*
X130451607Y-112582544D02*
G75*
G02*
X130251607Y-112382544I0J200000D01*
G01*
X133851607Y-109582544D02*
G75*
G02*
X134051607Y-109782544I-1J-200001D01*
G01*
X134051607Y-112382544D02*
G75*
G02*
X133851607Y-112582544I-200001J1D01*
G01*
X92151607Y-90732544D02*
X92151607Y-93332544D01*
X92351607Y-93532544D02*
X95751607Y-93532544D01*
X95751607Y-90532544D02*
X92351607Y-90532544D01*
X95951607Y-93332544D02*
X95951607Y-90732544D01*
X92151607Y-90732544D02*
G75*
G02*
X92351607Y-90532544I200000J0D01*
G01*
X92351607Y-93532544D02*
G75*
G02*
X92151607Y-93332544I0J200000D01*
G01*
X95751607Y-90532544D02*
G75*
G02*
X95951607Y-90732544I-1J-200001D01*
G01*
X95951607Y-93332544D02*
G75*
G02*
X95751607Y-93532544I-200001J1D01*
G01*
X73101607Y-114782544D02*
X73101607Y-117382544D01*
X73301607Y-117582544D02*
X76701607Y-117582544D01*
X76701607Y-114582544D02*
X73301607Y-114582544D01*
X76901607Y-117382544D02*
X76901607Y-114782544D01*
X73101607Y-114782544D02*
G75*
G02*
X73301607Y-114582544I200000J0D01*
G01*
X73301607Y-117582544D02*
G75*
G02*
X73101607Y-117382544I0J200000D01*
G01*
X76701607Y-114582544D02*
G75*
G02*
X76901607Y-114782544I-1J-200001D01*
G01*
X76901607Y-117382544D02*
G75*
G02*
X76701607Y-117582544I-200001J1D01*
G01*
X73101607Y-95732544D02*
X73101607Y-98332544D01*
X73301607Y-98532544D02*
X76701607Y-98532544D01*
X76701607Y-95532544D02*
X73301607Y-95532544D01*
X76901607Y-98332544D02*
X76901607Y-95732544D01*
X73101607Y-95732544D02*
G75*
G02*
X73301607Y-95532544I200000J0D01*
G01*
X73301607Y-98532544D02*
G75*
G02*
X73101607Y-98332544I0J200000D01*
G01*
X76701607Y-95532544D02*
G75*
G02*
X76901607Y-95732544I-1J-200001D01*
G01*
X76901607Y-98332544D02*
G75*
G02*
X76701607Y-98532544I-200001J1D01*
G01*
X111201607Y-145882544D02*
X111201607Y-148482544D01*
X111401607Y-148682544D02*
X114801607Y-148682544D01*
X114801607Y-145682544D02*
X111401607Y-145682544D01*
X115001607Y-148482544D02*
X115001607Y-145882544D01*
X111201607Y-145882544D02*
G75*
G02*
X111401607Y-145682544I200000J0D01*
G01*
X111401607Y-148682544D02*
G75*
G02*
X111201607Y-148482544I0J200000D01*
G01*
X114801607Y-145682544D02*
G75*
G02*
X115001607Y-145882544I-1J-200001D01*
G01*
X115001607Y-148482544D02*
G75*
G02*
X114801607Y-148682544I-200001J1D01*
G01*
X111201607Y-88732544D02*
X111201607Y-91332544D01*
X111401607Y-91532544D02*
X114801607Y-91532544D01*
X114801607Y-88532544D02*
X111401607Y-88532544D01*
X115001607Y-91332544D02*
X115001607Y-88732544D01*
X111201607Y-88732544D02*
G75*
G02*
X111401607Y-88532544I200000J0D01*
G01*
X111401607Y-91532544D02*
G75*
G02*
X111201607Y-91332544I0J200000D01*
G01*
X114801607Y-88532544D02*
G75*
G02*
X115001607Y-88732544I-1J-200001D01*
G01*
X115001607Y-91332544D02*
G75*
G02*
X114801607Y-91532544I-200001J1D01*
G01*
X168351607Y-141357544D02*
X168351607Y-143957544D01*
X168551607Y-144157544D02*
X171951607Y-144157544D01*
X171951607Y-141157544D02*
X168551607Y-141157544D01*
X172151607Y-143957544D02*
X172151607Y-141357544D01*
X168351607Y-141357544D02*
G75*
G02*
X168551607Y-141157544I200000J0D01*
G01*
X168551607Y-144157544D02*
G75*
G02*
X168351607Y-143957544I0J200000D01*
G01*
X171951607Y-141157544D02*
G75*
G02*
X172151607Y-141357544I-1J-200001D01*
G01*
X172151607Y-143957544D02*
G75*
G02*
X171951607Y-144157544I-200001J1D01*
G01*
X73101607Y-133832544D02*
X73101607Y-136432544D01*
X73301607Y-136632544D02*
X76701607Y-136632544D01*
X76701607Y-133632544D02*
X73301607Y-133632544D01*
X76901607Y-136432544D02*
X76901607Y-133832544D01*
X73101607Y-133832544D02*
G75*
G02*
X73301607Y-133632544I200000J0D01*
G01*
X73301607Y-136632544D02*
G75*
G02*
X73101607Y-136432544I0J200000D01*
G01*
X76701607Y-133632544D02*
G75*
G02*
X76901607Y-133832544I-1J-200001D01*
G01*
X76901607Y-136432544D02*
G75*
G02*
X76701607Y-136632544I-200001J1D01*
G01*
X149301607Y-93732544D02*
X149301607Y-96332544D01*
X149501607Y-96532544D02*
X152901607Y-96532544D01*
X152901607Y-93532544D02*
X149501607Y-93532544D01*
X153101607Y-96332544D02*
X153101607Y-93732544D01*
X149301607Y-93732544D02*
G75*
G02*
X149501607Y-93532544I200000J0D01*
G01*
X149501607Y-96532544D02*
G75*
G02*
X149301607Y-96332544I0J200000D01*
G01*
X152901607Y-93532544D02*
G75*
G02*
X153101607Y-93732544I-1J-200001D01*
G01*
X153101607Y-96332544D02*
G75*
G02*
X152901607Y-96532544I-200001J1D01*
G01*
X92151607Y-109782544D02*
X92151607Y-112382544D01*
X92351607Y-112582544D02*
X95751607Y-112582544D01*
X95751607Y-109582544D02*
X92351607Y-109582544D01*
X95951607Y-112382544D02*
X95951607Y-109782544D01*
X92151607Y-109782544D02*
G75*
G02*
X92351607Y-109582544I200000J0D01*
G01*
X92351607Y-112582544D02*
G75*
G02*
X92151607Y-112382544I0J200000D01*
G01*
X95751607Y-109582544D02*
G75*
G02*
X95951607Y-109782544I-1J-200001D01*
G01*
X95951607Y-112382544D02*
G75*
G02*
X95751607Y-112582544I-200001J1D01*
G01*
M02*
