G04 #@! TF.GenerationSoftware,KiCad,Pcbnew,9.0.3*
G04 #@! TF.CreationDate,2025-08-01T00:23:15-04:00*
G04 #@! TF.ProjectId,quartz58,71756172-747a-4353-982e-6b696361645f,rev?*
G04 #@! TF.SameCoordinates,Original*
G04 #@! TF.FileFunction,Soldermask,Bot*
G04 #@! TF.FilePolarity,Negative*
%FSLAX46Y46*%
G04 Gerber Fmt 4.6, Leading zero omitted, Abs format (unit mm)*
G04 Created by KiCad (PCBNEW 9.0.3) date 2025-08-01 00:23:15*
%MOMM*%
%LPD*%
G01*
G04 APERTURE LIST*
G04 Aperture macros list*
%AMRoundRect*
0 Rectangle with rounded corners*
0 $1 Rounding radius*
0 $2 $3 $4 $5 $6 $7 $8 $9 X,Y pos of 4 corners*
0 Add a 4 corners polygon primitive as box body*
4,1,4,$2,$3,$4,$5,$6,$7,$8,$9,$2,$3,0*
0 Add four circle primitives for the rounded corners*
1,1,$1+$1,$2,$3*
1,1,$1+$1,$4,$5*
1,1,$1+$1,$6,$7*
1,1,$1+$1,$8,$9*
0 Add four rect primitives between the rounded corners*
20,1,$1+$1,$2,$3,$4,$5,0*
20,1,$1+$1,$4,$5,$6,$7,0*
20,1,$1+$1,$6,$7,$8,$9,0*
20,1,$1+$1,$8,$9,$2,$3,0*%
%AMRotRect*
0 Rectangle, with rotation*
0 The origin of the aperture is its center*
0 $1 length*
0 $2 width*
0 $3 Rotation angle, in degrees counterclockwise*
0 Add horizontal line*
21,1,$1,$2,0,0,$3*%
G04 Aperture macros list end*
%ADD10C,1.750000*%
%ADD11C,1.700000*%
%ADD12C,3.150000*%
%ADD13C,5.150000*%
%ADD14RoundRect,0.260000X-1.065000X-1.040000X1.065000X-1.040000X1.065000X1.040000X-1.065000X1.040000X0*%
%ADD15RoundRect,0.250000X-1.025000X-1.000000X1.025000X-1.000000X1.025000X1.000000X-1.025000X1.000000X0*%
%ADD16C,1.000000*%
%ADD17RoundRect,0.050000X-0.850000X0.850000X-0.850000X-0.850000X0.850000X-0.850000X0.850000X0.850000X0*%
%ADD18O,1.800000X1.800000*%
%ADD19C,1.900000*%
%ADD20RoundRect,0.260000X-1.392649X0.525695X-0.492472X-1.404741X1.392649X-0.525695X0.492472X1.404741X0*%
%ADD21RoundRect,0.250000X-1.339492X0.506347X-0.473124X-1.351584X1.339492X-0.506347X0.473124X1.351584X0*%
%ADD22RoundRect,0.260000X0.492472X-1.404741X1.392649X0.525695X-0.492472X1.404741X-1.392649X-0.525695X0*%
%ADD23RoundRect,0.250000X0.473124X-1.351584X1.339492X0.506347X-0.473124X1.351584X-1.339492X-0.506347X0*%
%ADD24C,1.852600*%
%ADD25R,1.450000X0.820000*%
%ADD26RoundRect,0.205000X0.520000X0.205000X-0.520000X0.205000X-0.520000X-0.205000X0.520000X-0.205000X0*%
%ADD27RoundRect,0.050000X0.500000X1.900000X-0.500000X1.900000X-0.500000X-1.900000X0.500000X-1.900000X0*%
%ADD28RoundRect,0.050000X0.750000X1.700000X-0.750000X1.700000X-0.750000X-1.700000X0.750000X-1.700000X0*%
%ADD29RoundRect,0.250000X0.250000X0.400000X-0.250000X0.400000X-0.250000X-0.400000X0.250000X-0.400000X0*%
%ADD30RoundRect,0.250000X-0.250000X-0.400000X0.250000X-0.400000X0.250000X0.400000X-0.250000X0.400000X0*%
%ADD31RoundRect,0.050000X-0.150000X-0.650000X0.150000X-0.650000X0.150000X0.650000X-0.150000X0.650000X0*%
%ADD32RoundRect,0.050000X-0.900000X-1.100000X0.900000X-1.100000X0.900000X1.100000X-0.900000X1.100000X0*%
%ADD33RotRect,1.450000X0.820000X245.000000*%
%ADD34RoundRect,0.205000X0.033968X0.557917X-0.405555X-0.384643X-0.033968X-0.557917X0.405555X0.384643X0*%
%ADD35RotRect,1.450000X0.820000X115.000000*%
%ADD36RoundRect,0.205000X0.405555X-0.384643X-0.033968X0.557917X-0.405555X0.384643X0.033968X-0.557917X0*%
%ADD37RoundRect,0.050000X0.150000X0.650000X-0.150000X0.650000X-0.150000X-0.650000X0.150000X-0.650000X0*%
%ADD38RoundRect,0.050000X0.900000X1.100000X-0.900000X1.100000X-0.900000X-1.100000X0.900000X-1.100000X0*%
G04 APERTURE END LIST*
D10*
X69921607Y-149102544D03*
D11*
X70001607Y-154252544D03*
D12*
X71191607Y-146562544D03*
D13*
X75001607Y-149102544D03*
D12*
X77541607Y-144022544D03*
D10*
X80081607Y-149102544D03*
D14*
X67916607Y-146562544D03*
X71501607Y-143102544D03*
D15*
X80843607Y-144022544D03*
D14*
X83501607Y-145302544D03*
D10*
X288996607Y-125052544D03*
D11*
X289076607Y-130202544D03*
D12*
X290266607Y-122512544D03*
D13*
X294076607Y-125052544D03*
D12*
X296616607Y-119972544D03*
D10*
X299156607Y-125052544D03*
D14*
X286991607Y-122512544D03*
X290576607Y-119052544D03*
D15*
X299918607Y-119972544D03*
D14*
X302576607Y-121252544D03*
D10*
X308046607Y-104002544D03*
D11*
X308126607Y-109152544D03*
D12*
X309316607Y-101462544D03*
D13*
X313126607Y-104002544D03*
D12*
X315666607Y-98922544D03*
D10*
X318206607Y-104002544D03*
D14*
X306041607Y-101462544D03*
X309626607Y-98002544D03*
D15*
X318968607Y-98922544D03*
D14*
X321626607Y-100202544D03*
D10*
X98496607Y-163152544D03*
D11*
X98576607Y-168302544D03*
D12*
X99766607Y-160612544D03*
D13*
X103576607Y-163152544D03*
D12*
X106116607Y-158072544D03*
D10*
X108656607Y-163152544D03*
D14*
X96491607Y-160612544D03*
X100076607Y-157152544D03*
D15*
X109418607Y-158072544D03*
D14*
X112076607Y-159352544D03*
D10*
X146121607Y-147102544D03*
D11*
X146201607Y-152252544D03*
D12*
X147391607Y-144562544D03*
D13*
X151201607Y-147102544D03*
D12*
X153741607Y-142022544D03*
D10*
X156281607Y-147102544D03*
D14*
X144116607Y-144562544D03*
X147701607Y-141102544D03*
D15*
X157043607Y-142022544D03*
D14*
X159701607Y-143302544D03*
D16*
X179851607Y-127377544D03*
X179851607Y-124377544D03*
D10*
X327096607Y-144102544D03*
D11*
X327176607Y-149252544D03*
D12*
X328366607Y-141562544D03*
D13*
X332176607Y-144102544D03*
D12*
X334716607Y-139022544D03*
D10*
X337256607Y-144102544D03*
D14*
X325091607Y-141562544D03*
X328676607Y-138102544D03*
D15*
X338018607Y-139022544D03*
D14*
X340676607Y-140302544D03*
D10*
X365196607Y-94952544D03*
D11*
X365276607Y-100102544D03*
D12*
X366466607Y-92412544D03*
D13*
X370276607Y-94952544D03*
D12*
X372816607Y-89872544D03*
D10*
X375356607Y-94952544D03*
D14*
X363191607Y-92412544D03*
X366776607Y-88952544D03*
D15*
X376118607Y-89872544D03*
D14*
X378776607Y-91152544D03*
D10*
X88971607Y-106002544D03*
D11*
X89051607Y-111152544D03*
D12*
X90241607Y-103462544D03*
D13*
X94051607Y-106002544D03*
D12*
X96591607Y-100922544D03*
D10*
X99131607Y-106002544D03*
D14*
X86966607Y-103462544D03*
X90551607Y-100002544D03*
D15*
X99893607Y-100922544D03*
D14*
X102551607Y-102202544D03*
D10*
X108021607Y-142102544D03*
D11*
X108101607Y-147252544D03*
D12*
X109291607Y-139562544D03*
D13*
X113101607Y-142102544D03*
D12*
X115641607Y-137022544D03*
D10*
X118181607Y-142102544D03*
D14*
X106016607Y-139562544D03*
X109601607Y-136102544D03*
D15*
X118943607Y-137022544D03*
D14*
X121601607Y-138302544D03*
D10*
X346146607Y-111002544D03*
D11*
X346226607Y-116152544D03*
D12*
X347416607Y-108462544D03*
D13*
X351226607Y-111002544D03*
D12*
X353766607Y-105922544D03*
D10*
X356306607Y-111002544D03*
D14*
X344141607Y-108462544D03*
X347726607Y-105002544D03*
D15*
X357068607Y-105922544D03*
D14*
X359726607Y-107202544D03*
D17*
X259776607Y-118327544D03*
D18*
X257236607Y-118327544D03*
X254696607Y-118327544D03*
X252156607Y-118327544D03*
D19*
X128991571Y-196233942D03*
X128991571Y-209329562D03*
X142087191Y-209329562D03*
X136649381Y-201671752D03*
X127810701Y-187670882D03*
X119389061Y-206387992D03*
X143268061Y-217892622D03*
X151689701Y-199175512D03*
X138792071Y-186702142D03*
D10*
X327096607Y-106002544D03*
D11*
X327176607Y-111152544D03*
D12*
X328366607Y-103462544D03*
D13*
X332176607Y-106002544D03*
D12*
X334716607Y-100922544D03*
D10*
X337256607Y-106002544D03*
D14*
X325091607Y-103462544D03*
X328676607Y-100002544D03*
D15*
X338018607Y-100922544D03*
D14*
X340676607Y-102202544D03*
D10*
X50871607Y-94952544D03*
D11*
X50951607Y-100102544D03*
D12*
X52141607Y-92412544D03*
D13*
X55951607Y-94952544D03*
D12*
X58491607Y-89872544D03*
D10*
X61031607Y-94952544D03*
D14*
X48866607Y-92412544D03*
X52451607Y-88952544D03*
D15*
X61793607Y-89872544D03*
D14*
X64451607Y-91152544D03*
D10*
X88971607Y-86952544D03*
D11*
X89051607Y-92102544D03*
D12*
X90241607Y-84412544D03*
D13*
X94051607Y-86952544D03*
D12*
X96591607Y-81872544D03*
D10*
X99131607Y-86952544D03*
D14*
X86966607Y-84412544D03*
X90551607Y-80952544D03*
D15*
X99893607Y-81872544D03*
D14*
X102551607Y-83152544D03*
D10*
X117546607Y-163152544D03*
D11*
X117626607Y-168302544D03*
D12*
X118816607Y-160612544D03*
D13*
X122626607Y-163152544D03*
D12*
X125166607Y-158072544D03*
D10*
X127706607Y-163152544D03*
D14*
X115541607Y-160612544D03*
X119126607Y-157152544D03*
D15*
X128468607Y-158072544D03*
D14*
X131126607Y-159352544D03*
D10*
X308046607Y-84952544D03*
D11*
X308126607Y-90102544D03*
D12*
X309316607Y-82412544D03*
D13*
X313126607Y-84952544D03*
D12*
X315666607Y-79872544D03*
D10*
X318206607Y-84952544D03*
D14*
X306041607Y-82412544D03*
X309626607Y-78952544D03*
D15*
X318968607Y-79872544D03*
D14*
X321626607Y-81152544D03*
D10*
X50871607Y-152102544D03*
D11*
X50951607Y-157252544D03*
D12*
X52141607Y-149562544D03*
D13*
X55951607Y-152102544D03*
D12*
X58491607Y-147022544D03*
D10*
X61031607Y-152102544D03*
D14*
X48866607Y-149562544D03*
X52451607Y-146102544D03*
D15*
X61793607Y-147022544D03*
D14*
X64451607Y-148302544D03*
D10*
X327096607Y-86952544D03*
D11*
X327176607Y-92102544D03*
D12*
X328366607Y-84412544D03*
D13*
X332176607Y-86952544D03*
D12*
X334716607Y-81872544D03*
D10*
X337256607Y-86952544D03*
D14*
X325091607Y-84412544D03*
X328676607Y-80952544D03*
D15*
X338018607Y-81872544D03*
D14*
X340676607Y-83152544D03*
D10*
X365196607Y-114002544D03*
D11*
X365276607Y-119152544D03*
D12*
X366466607Y-111462544D03*
D13*
X370276607Y-114002544D03*
D12*
X372816607Y-108922544D03*
D10*
X375356607Y-114002544D03*
D14*
X363191607Y-111462544D03*
X366776607Y-108002544D03*
D15*
X376118607Y-108922544D03*
D14*
X378776607Y-110202544D03*
D10*
X257506395Y-162196993D03*
D11*
X252872720Y-164445982D03*
D12*
X260345142Y-162274554D03*
D13*
X259653296Y-166801037D03*
D12*
X265330790Y-166956158D03*
D10*
X261800197Y-171405081D03*
D20*
X258961067Y-159306396D03*
X263611979Y-161093250D03*
D21*
X266726275Y-169948786D03*
D20*
X266689521Y-172898704D03*
D10*
X346146607Y-149102544D03*
D11*
X346226607Y-154252544D03*
D12*
X347416607Y-146562544D03*
D13*
X351226607Y-149102544D03*
D12*
X353766607Y-144022544D03*
D10*
X356306607Y-149102544D03*
D14*
X344141607Y-146562544D03*
X347726607Y-143102544D03*
D15*
X357068607Y-144022544D03*
D14*
X359726607Y-145302544D03*
D10*
X308046607Y-142102544D03*
D11*
X308126607Y-147252544D03*
D12*
X309316607Y-139562544D03*
D13*
X313126607Y-142102544D03*
D12*
X315666607Y-137022544D03*
D10*
X318206607Y-142102544D03*
D14*
X306041607Y-139562544D03*
X309626607Y-136102544D03*
D15*
X318968607Y-137022544D03*
D14*
X321626607Y-138302544D03*
D10*
X127071607Y-144102544D03*
D11*
X127151607Y-149252544D03*
D12*
X128341607Y-141562544D03*
D13*
X132151607Y-144102544D03*
D12*
X134691607Y-139022544D03*
D10*
X137231607Y-144102544D03*
D14*
X125066607Y-141562544D03*
X128651607Y-138102544D03*
D15*
X137993607Y-139022544D03*
D14*
X140651607Y-140302544D03*
D10*
X127071607Y-86952544D03*
D11*
X127151607Y-92102544D03*
D12*
X128341607Y-84412544D03*
D13*
X132151607Y-86952544D03*
D12*
X134691607Y-81872544D03*
D10*
X137231607Y-86952544D03*
D14*
X125066607Y-84412544D03*
X128651607Y-80952544D03*
D15*
X137993607Y-81872544D03*
D14*
X140651607Y-83152544D03*
D10*
X127071607Y-106002544D03*
D11*
X127151607Y-111152544D03*
D12*
X128341607Y-103462544D03*
D13*
X132151607Y-106002544D03*
D12*
X134691607Y-100922544D03*
D10*
X137231607Y-106002544D03*
D14*
X125066607Y-103462544D03*
X128651607Y-100002544D03*
D15*
X137993607Y-100922544D03*
D14*
X140651607Y-102202544D03*
D10*
X269946607Y-147102544D03*
D11*
X270026607Y-152252544D03*
D12*
X271216607Y-144562544D03*
D13*
X275026607Y-147102544D03*
D12*
X277566607Y-142022544D03*
D10*
X280106607Y-147102544D03*
D14*
X267941607Y-144562544D03*
X271526607Y-141102544D03*
D15*
X280868607Y-142022544D03*
D14*
X283526607Y-143302544D03*
D10*
X69921607Y-130052544D03*
D11*
X70001607Y-135202544D03*
D12*
X71191607Y-127512544D03*
D13*
X75001607Y-130052544D03*
D12*
X77541607Y-124972544D03*
D10*
X80081607Y-130052544D03*
D14*
X67916607Y-127512544D03*
X71501607Y-124052544D03*
D15*
X80843607Y-124972544D03*
D14*
X83501607Y-126252544D03*
D10*
X164428017Y-171405081D03*
D11*
X169129312Y-173509060D03*
D12*
X162662721Y-169180619D03*
D13*
X166574918Y-166801037D03*
D12*
X163044325Y-162352114D03*
D10*
X168721819Y-162196993D03*
D22*
X161278646Y-172148777D03*
X159657907Y-167437405D03*
D23*
X164439810Y-159359486D03*
D22*
X166723204Y-157491471D03*
D10*
X146121607Y-89952544D03*
D11*
X146201607Y-95102544D03*
D12*
X147391607Y-87412544D03*
D13*
X151201607Y-89952544D03*
D12*
X153741607Y-84872544D03*
D10*
X156281607Y-89952544D03*
D14*
X144116607Y-87412544D03*
X147701607Y-83952544D03*
D15*
X157043607Y-84872544D03*
D14*
X159701607Y-86152544D03*
D10*
X88971607Y-125052544D03*
D11*
X89051607Y-130202544D03*
D12*
X90241607Y-122512544D03*
D13*
X94051607Y-125052544D03*
D12*
X96591607Y-119972544D03*
D10*
X99131607Y-125052544D03*
D14*
X86966607Y-122512544D03*
X90551607Y-119052544D03*
D15*
X99893607Y-119972544D03*
D14*
X102551607Y-121252544D03*
D24*
X250896607Y-115787544D03*
X253436607Y-115787544D03*
X255976607Y-115787544D03*
X258516607Y-115787544D03*
X261056607Y-115787544D03*
D10*
X269946607Y-128052544D03*
D11*
X270026607Y-133202544D03*
D12*
X271216607Y-125512544D03*
D13*
X275026607Y-128052544D03*
D12*
X277566607Y-122972544D03*
D10*
X280106607Y-128052544D03*
D14*
X267941607Y-125512544D03*
X271526607Y-122052544D03*
D15*
X280868607Y-122972544D03*
D14*
X283526607Y-124252544D03*
D10*
X288996607Y-86952544D03*
D11*
X289076607Y-92102544D03*
D12*
X290266607Y-84412544D03*
D13*
X294076607Y-86952544D03*
D12*
X296616607Y-81872544D03*
D10*
X299156607Y-86952544D03*
D14*
X286991607Y-84412544D03*
X290576607Y-80952544D03*
D15*
X299918607Y-81872544D03*
D14*
X302576607Y-83152544D03*
D10*
X165171607Y-137577544D03*
D11*
X165251607Y-142727544D03*
D12*
X166441607Y-135037544D03*
D13*
X170251607Y-137577544D03*
D12*
X172791607Y-132497544D03*
D10*
X175331607Y-137577544D03*
D14*
X163166607Y-135037544D03*
X166751607Y-131577544D03*
D15*
X176093607Y-132497544D03*
D14*
X178751607Y-133777544D03*
D10*
X146121607Y-109002544D03*
D11*
X146201607Y-114152544D03*
D12*
X147391607Y-106462544D03*
D13*
X151201607Y-109002544D03*
D12*
X153741607Y-103922544D03*
D10*
X156281607Y-109002544D03*
D14*
X144116607Y-106462544D03*
X147701607Y-103002544D03*
D15*
X157043607Y-103922544D03*
D14*
X159701607Y-105202544D03*
D10*
X365196607Y-152102544D03*
D11*
X365276607Y-157252544D03*
D12*
X366466607Y-149562544D03*
D13*
X370276607Y-152102544D03*
D12*
X372816607Y-147022544D03*
D10*
X375356607Y-152102544D03*
D14*
X363191607Y-149562544D03*
X366776607Y-146102544D03*
D15*
X376118607Y-147022544D03*
D14*
X378776607Y-148302544D03*
D10*
X298521607Y-163152544D03*
D11*
X298601607Y-168302544D03*
D12*
X299791607Y-160612544D03*
D13*
X303601607Y-163152544D03*
D12*
X306141607Y-158072544D03*
D10*
X308681607Y-163152544D03*
D14*
X296516607Y-160612544D03*
X300101607Y-157152544D03*
D15*
X309443607Y-158072544D03*
D14*
X312101607Y-159352544D03*
D10*
X50871607Y-133052544D03*
D11*
X50951607Y-138202544D03*
D12*
X52141607Y-130512544D03*
D13*
X55951607Y-133052544D03*
D12*
X58491607Y-127972544D03*
D10*
X61031607Y-133052544D03*
D14*
X48866607Y-130512544D03*
X52451607Y-127052544D03*
D15*
X61793607Y-127972544D03*
D14*
X64451607Y-129252544D03*
D10*
X146121607Y-128052544D03*
D11*
X146201607Y-133202544D03*
D12*
X147391607Y-125512544D03*
D13*
X151201607Y-128052544D03*
D12*
X153741607Y-122972544D03*
D10*
X156281607Y-128052544D03*
D14*
X144116607Y-125512544D03*
X147701607Y-122052544D03*
D15*
X157043607Y-122972544D03*
D14*
X159701607Y-124252544D03*
D10*
X108021607Y-84952544D03*
D11*
X108101607Y-90102544D03*
D12*
X109291607Y-82412544D03*
D13*
X113101607Y-84952544D03*
D12*
X115641607Y-79872544D03*
D10*
X118181607Y-84952544D03*
D14*
X106016607Y-82412544D03*
X109601607Y-78952544D03*
D15*
X118943607Y-79872544D03*
D14*
X121601607Y-81152544D03*
D10*
X288996607Y-106002544D03*
D11*
X289076607Y-111152544D03*
D12*
X290266607Y-103462544D03*
D13*
X294076607Y-106002544D03*
D12*
X296616607Y-100922544D03*
D10*
X299156607Y-106002544D03*
D14*
X286991607Y-103462544D03*
X290576607Y-100002544D03*
D15*
X299918607Y-100922544D03*
D14*
X302576607Y-102202544D03*
D10*
X346146607Y-130052544D03*
D11*
X346226607Y-135202544D03*
D12*
X347416607Y-127512544D03*
D13*
X351226607Y-130052544D03*
D12*
X353766607Y-124972544D03*
D10*
X356306607Y-130052544D03*
D14*
X344141607Y-127512544D03*
X347726607Y-124052544D03*
D15*
X357068607Y-124972544D03*
D14*
X359726607Y-126252544D03*
D10*
X50871607Y-114002544D03*
D11*
X50951607Y-119152544D03*
D12*
X52141607Y-111462544D03*
D13*
X55951607Y-114002544D03*
D12*
X58491607Y-108922544D03*
D10*
X61031607Y-114002544D03*
D14*
X48866607Y-111462544D03*
X52451607Y-108002544D03*
D15*
X61793607Y-108922544D03*
D14*
X64451607Y-110202544D03*
D24*
X165171607Y-115887544D03*
X167711607Y-115887544D03*
X170251607Y-115887544D03*
X172791607Y-115887544D03*
X175331607Y-115887544D03*
D10*
X308046607Y-123052544D03*
D11*
X308126607Y-128202544D03*
D12*
X309316607Y-120512544D03*
D13*
X313126607Y-123052544D03*
D12*
X315666607Y-117972544D03*
D10*
X318206607Y-123052544D03*
D14*
X306041607Y-120512544D03*
X309626607Y-117052544D03*
D15*
X318968607Y-117972544D03*
D14*
X321626607Y-119252544D03*
D10*
X108021607Y-123052544D03*
D11*
X108101607Y-128202544D03*
D12*
X109291607Y-120512544D03*
D13*
X113101607Y-123052544D03*
D12*
X115641607Y-117972544D03*
D10*
X118181607Y-123052544D03*
D14*
X106016607Y-120512544D03*
X109601607Y-117052544D03*
D15*
X118943607Y-117972544D03*
D14*
X121601607Y-119252544D03*
D10*
X88971607Y-144102544D03*
D11*
X89051607Y-149252544D03*
D12*
X90241607Y-141562544D03*
D13*
X94051607Y-144102544D03*
D12*
X96591607Y-139022544D03*
D10*
X99131607Y-144102544D03*
D14*
X86966607Y-141562544D03*
X90551607Y-138102544D03*
D15*
X99893607Y-139022544D03*
D14*
X102551607Y-140302544D03*
D17*
X174051607Y-118327544D03*
D18*
X171511607Y-118327544D03*
X168971607Y-118327544D03*
X166431607Y-118327544D03*
D10*
X279471607Y-166152544D03*
D11*
X279551607Y-171302544D03*
D12*
X280741607Y-163612544D03*
D13*
X284551607Y-166152544D03*
D12*
X287091607Y-161072544D03*
D10*
X289631607Y-166152544D03*
D14*
X277466607Y-163612544D03*
X281051607Y-160152544D03*
D15*
X290393607Y-161072544D03*
D14*
X293051607Y-162352544D03*
D10*
X269946607Y-109002544D03*
D11*
X270026607Y-114152544D03*
D12*
X271216607Y-106462544D03*
D13*
X275026607Y-109002544D03*
D12*
X277566607Y-103922544D03*
D10*
X280106607Y-109002544D03*
D14*
X267941607Y-106462544D03*
X271526607Y-103002544D03*
D15*
X280868607Y-103922544D03*
D14*
X283526607Y-105202544D03*
D16*
X246376607Y-124377544D03*
X246376607Y-127377544D03*
D10*
X288996607Y-144102544D03*
D11*
X289076607Y-149252544D03*
D12*
X290266607Y-141562544D03*
D13*
X294076607Y-144102544D03*
D12*
X296616607Y-139022544D03*
D10*
X299156607Y-144102544D03*
D14*
X286991607Y-141562544D03*
X290576607Y-138102544D03*
D15*
X299918607Y-139022544D03*
D14*
X302576607Y-140302544D03*
D10*
X69921607Y-111002544D03*
D11*
X70001607Y-116152544D03*
D12*
X71191607Y-108462544D03*
D13*
X75001607Y-111002544D03*
D12*
X77541607Y-105922544D03*
D10*
X80081607Y-111002544D03*
D14*
X67916607Y-108462544D03*
X71501607Y-105002544D03*
D15*
X80843607Y-105922544D03*
D14*
X83501607Y-107202544D03*
D10*
X250896607Y-137577544D03*
D11*
X250976607Y-142727544D03*
D12*
X252166607Y-135037544D03*
D13*
X255976607Y-137577544D03*
D12*
X258516607Y-132497544D03*
D10*
X261056607Y-137577544D03*
D14*
X248891607Y-135037544D03*
X252476607Y-131577544D03*
D15*
X261818607Y-132497544D03*
D14*
X264476607Y-133777544D03*
D10*
X327096607Y-125052544D03*
D11*
X327176607Y-130202544D03*
D12*
X328366607Y-122512544D03*
D13*
X332176607Y-125052544D03*
D12*
X334716607Y-119972544D03*
D10*
X337256607Y-125052544D03*
D14*
X325091607Y-122512544D03*
X328676607Y-119052544D03*
D15*
X338018607Y-119972544D03*
D14*
X340676607Y-121252544D03*
D10*
X69921607Y-91952544D03*
D11*
X70001607Y-97102544D03*
D12*
X71191607Y-89412544D03*
D13*
X75001607Y-91952544D03*
D12*
X77541607Y-86872544D03*
D10*
X80081607Y-91952544D03*
D14*
X67916607Y-89412544D03*
X71501607Y-85952544D03*
D15*
X80843607Y-86872544D03*
D14*
X83501607Y-88152544D03*
D10*
X317571607Y-163152544D03*
D11*
X317651607Y-168302544D03*
D12*
X318841607Y-160612544D03*
D13*
X322651607Y-163152544D03*
D12*
X325191607Y-158072544D03*
D10*
X327731607Y-163152544D03*
D14*
X315566607Y-160612544D03*
X319151607Y-157152544D03*
D15*
X328493607Y-158072544D03*
D14*
X331151607Y-159352544D03*
D10*
X127071607Y-125052544D03*
D11*
X127151607Y-130202544D03*
D12*
X128341607Y-122512544D03*
D13*
X132151607Y-125052544D03*
D12*
X134691607Y-119972544D03*
D10*
X137231607Y-125052544D03*
D14*
X125066607Y-122512544D03*
X128651607Y-119052544D03*
D15*
X137993607Y-119972544D03*
D14*
X140651607Y-121252544D03*
D10*
X269946607Y-89952544D03*
D11*
X270026607Y-95102544D03*
D12*
X271216607Y-87412544D03*
D13*
X275026607Y-89952544D03*
D12*
X277566607Y-84872544D03*
D10*
X280106607Y-89952544D03*
D14*
X267941607Y-87412544D03*
X271526607Y-83952544D03*
D15*
X280868607Y-84872544D03*
D14*
X283526607Y-86152544D03*
D10*
X365196607Y-133052544D03*
D11*
X365276607Y-138202544D03*
D12*
X366466607Y-130512544D03*
D13*
X370276607Y-133052544D03*
D12*
X372816607Y-127972544D03*
D10*
X375356607Y-133052544D03*
D14*
X363191607Y-130512544D03*
X366776607Y-127052544D03*
D15*
X376118607Y-127972544D03*
D14*
X378776607Y-129252544D03*
D10*
X346146607Y-91952544D03*
D11*
X346226607Y-97102544D03*
D12*
X347416607Y-89412544D03*
D13*
X351226607Y-91952544D03*
D12*
X353766607Y-86872544D03*
D10*
X356306607Y-91952544D03*
D14*
X344141607Y-89412544D03*
X347726607Y-85952544D03*
D15*
X357068607Y-86872544D03*
D14*
X359726607Y-88152544D03*
D10*
X108021607Y-104002544D03*
D11*
X108101607Y-109152544D03*
D12*
X109291607Y-101462544D03*
D13*
X113101607Y-104002544D03*
D12*
X115641607Y-98922544D03*
D10*
X118181607Y-104002544D03*
D14*
X106016607Y-101462544D03*
X109601607Y-98002544D03*
D15*
X118943607Y-98922544D03*
D14*
X121601607Y-100202544D03*
D10*
X136596607Y-166152544D03*
D11*
X136676607Y-171302544D03*
D12*
X137866607Y-163612544D03*
D13*
X141676607Y-166152544D03*
D12*
X144216607Y-161072544D03*
D10*
X146756607Y-166152544D03*
D14*
X134591607Y-163612544D03*
X138176607Y-160152544D03*
D15*
X147518607Y-161072544D03*
D14*
X150176607Y-162352544D03*
D25*
X334851607Y-111832544D03*
X334851607Y-110332544D03*
D26*
X329501607Y-110332544D03*
D25*
X329501607Y-111832544D03*
X134826607Y-130882544D03*
X134826607Y-129382544D03*
D26*
X129476607Y-129382544D03*
D25*
X129476607Y-130882544D03*
X77676607Y-154932544D03*
X77676607Y-153432544D03*
D26*
X72326607Y-153432544D03*
D25*
X72326607Y-154932544D03*
X315801607Y-128882544D03*
X315801607Y-127382544D03*
D26*
X310451607Y-127382544D03*
D25*
X310451607Y-128882544D03*
X106251607Y-168982544D03*
X106251607Y-167482544D03*
D26*
X100901607Y-167482544D03*
D25*
X100901607Y-168982544D03*
D27*
X171251607Y-84447544D03*
X169251607Y-84447544D03*
D28*
X166901607Y-90307544D03*
X173601607Y-90307544D03*
D25*
X144351607Y-171982544D03*
X144351607Y-170482544D03*
D26*
X139001607Y-170482544D03*
D25*
X139001607Y-171982544D03*
D29*
X159995435Y-138993114D03*
X156695435Y-138993114D03*
X83795371Y-99691605D03*
X80495371Y-99691605D03*
D25*
X58626607Y-138882544D03*
X58626607Y-137382544D03*
D26*
X53276607Y-137382544D03*
D25*
X53276607Y-138882544D03*
D30*
X290045379Y-157818234D03*
X293345379Y-157818234D03*
D29*
X64732467Y-102668170D03*
X61432467Y-102668170D03*
D25*
X153876607Y-114832544D03*
X153876607Y-113332544D03*
D26*
X148526607Y-113332544D03*
D25*
X148526607Y-114832544D03*
D29*
X140962562Y-136016549D03*
X137662562Y-136016549D03*
D30*
X280520371Y-100668186D03*
X283820371Y-100668186D03*
D29*
X164775082Y-156077544D03*
X161475082Y-156077544D03*
D25*
X334851607Y-149932544D03*
X334851607Y-148432544D03*
D26*
X329501607Y-148432544D03*
D25*
X329501607Y-149932544D03*
X334851607Y-92782544D03*
X334851607Y-91282544D03*
D26*
X329501607Y-91282544D03*
D25*
X329501607Y-92782544D03*
D30*
X280520371Y-97691621D03*
X283820371Y-97691621D03*
X375770451Y-143530722D03*
X379070451Y-143530722D03*
X299570387Y-97691621D03*
X302870387Y-97691621D03*
D25*
X115776607Y-128882544D03*
X115776607Y-127382544D03*
D26*
X110426607Y-127382544D03*
D25*
X110426607Y-128882544D03*
X134826607Y-149932544D03*
X134826607Y-148432544D03*
D26*
X129476607Y-148432544D03*
D25*
X129476607Y-149932544D03*
X96726607Y-130882544D03*
X96726607Y-129382544D03*
D26*
X91376607Y-129382544D03*
D25*
X91376607Y-130882544D03*
D30*
X337670419Y-97691621D03*
X340970419Y-97691621D03*
D25*
X296751607Y-92782544D03*
X296751607Y-91282544D03*
D26*
X291401607Y-91282544D03*
D25*
X291401607Y-92782544D03*
D29*
X121895403Y-95524414D03*
X118595403Y-95524414D03*
X121895403Y-92547849D03*
X118595403Y-92547849D03*
D31*
X254726607Y-153627544D03*
X255226607Y-153627544D03*
X255726607Y-153627544D03*
X256226607Y-153627544D03*
X256726607Y-153627544D03*
X257226607Y-153627544D03*
D32*
X252826607Y-150377544D03*
X259126607Y-150377544D03*
D25*
X115776607Y-109832544D03*
X115776607Y-108332544D03*
D26*
X110426607Y-108332544D03*
D25*
X110426607Y-109832544D03*
X258651607Y-143407544D03*
X258651607Y-141907544D03*
D26*
X253301607Y-141907544D03*
D25*
X253301607Y-143407544D03*
X315801607Y-90782544D03*
X315801607Y-89282544D03*
D26*
X310451607Y-89282544D03*
D25*
X310451607Y-90782544D03*
D33*
X172989197Y-166840527D03*
X171629735Y-166206600D03*
D34*
X169368727Y-171055347D03*
D33*
X170728189Y-171689274D03*
D25*
X153876607Y-152932544D03*
X153876607Y-151432544D03*
D26*
X148526607Y-151432544D03*
D25*
X148526607Y-152932544D03*
X287226607Y-171982544D03*
X287226607Y-170482544D03*
D26*
X281876607Y-170482544D03*
D25*
X281876607Y-171982544D03*
X277701607Y-95782544D03*
X277701607Y-94282544D03*
D26*
X272351607Y-94282544D03*
D25*
X272351607Y-95782544D03*
X125301607Y-168982544D03*
X125301607Y-167482544D03*
D26*
X119951607Y-167482544D03*
D25*
X119951607Y-168982544D03*
X134826607Y-92782544D03*
X134826607Y-91282544D03*
D26*
X129476607Y-91282544D03*
D25*
X129476607Y-92782544D03*
X58626607Y-119832544D03*
X58626607Y-118332544D03*
D26*
X53276607Y-118332544D03*
D25*
X53276607Y-119832544D03*
X372951607Y-157932544D03*
X372951607Y-156432544D03*
D26*
X367601607Y-156432544D03*
D25*
X367601607Y-157932544D03*
X315801607Y-147932544D03*
X315801607Y-146432544D03*
D26*
X310451607Y-146432544D03*
D25*
X310451607Y-147932544D03*
X296751607Y-111832544D03*
X296751607Y-110332544D03*
D26*
X291401607Y-110332544D03*
D25*
X291401607Y-111832544D03*
X372951607Y-100782544D03*
X372951607Y-99282544D03*
D26*
X367601607Y-99282544D03*
D25*
X367601607Y-100782544D03*
D29*
X112370319Y-154757968D03*
X109070319Y-154757968D03*
D30*
X299570387Y-135791653D03*
X302870387Y-135791653D03*
D29*
X64745359Y-140554157D03*
X61445359Y-140554157D03*
X64745187Y-143530722D03*
X61445187Y-143530722D03*
X140945419Y-97608016D03*
X137645419Y-97608016D03*
D25*
X334851607Y-130882544D03*
X334851607Y-129382544D03*
D26*
X329501607Y-129382544D03*
D25*
X329501607Y-130882544D03*
D29*
X102758021Y-97608016D03*
X99458021Y-97608016D03*
D25*
X315801607Y-109832544D03*
X315801607Y-108332544D03*
D26*
X310451607Y-108332544D03*
D25*
X310451607Y-109832544D03*
X353901607Y-97782544D03*
X353901607Y-96282544D03*
D26*
X348551607Y-96282544D03*
D25*
X348551607Y-97782544D03*
D30*
X375770451Y-140554157D03*
X379070451Y-140554157D03*
X280520371Y-135791653D03*
X283820371Y-135791653D03*
D29*
X121895311Y-134070876D03*
X118595311Y-134070876D03*
D25*
X58626607Y-100782544D03*
X58626607Y-99282544D03*
D26*
X53276607Y-99282544D03*
D25*
X53276607Y-100782544D03*
D30*
X375770451Y-105430690D03*
X379070451Y-105430690D03*
D25*
X277701607Y-133882544D03*
X277701607Y-132382544D03*
D26*
X272351607Y-132382544D03*
D25*
X272351607Y-133882544D03*
D24*
X263596607Y-85307544D03*
X263596607Y-87847544D03*
X263596607Y-90387544D03*
X263596607Y-92927544D03*
X263596607Y-95467544D03*
X263596607Y-98007544D03*
X263596607Y-100547544D03*
X263596607Y-103087544D03*
X263596607Y-105627544D03*
X263596607Y-108167544D03*
X263596607Y-110707544D03*
X263596607Y-113247544D03*
X248356607Y-113247544D03*
X248356607Y-110707544D03*
X248356607Y-108167544D03*
X248356607Y-105627544D03*
X248356607Y-103087544D03*
X248356607Y-100547544D03*
X248356607Y-98007544D03*
X248356607Y-95467544D03*
X248356607Y-92927544D03*
X248356607Y-90387544D03*
X248356607Y-87847544D03*
X248356607Y-85307544D03*
X261056607Y-108167544D03*
X258516607Y-108167544D03*
X255976607Y-108167544D03*
D29*
X159995279Y-135410385D03*
X156695279Y-135410385D03*
D30*
X260875042Y-157222921D03*
X264175042Y-157222921D03*
D29*
X180190323Y-144046932D03*
X176890323Y-144046932D03*
D25*
X58626607Y-157932544D03*
X58626607Y-156432544D03*
D26*
X53276607Y-156432544D03*
D25*
X53276607Y-157932544D03*
X153876607Y-133882544D03*
X153876607Y-132382544D03*
D26*
X148526607Y-132382544D03*
D25*
X148526607Y-133882544D03*
X372951607Y-138882544D03*
X372951607Y-137382544D03*
D26*
X367601607Y-137382544D03*
D25*
X367601607Y-138882544D03*
X353901607Y-135882544D03*
X353901607Y-134382544D03*
D26*
X348551607Y-134382544D03*
D25*
X348551607Y-135882544D03*
X353901607Y-154932544D03*
X353901607Y-153432544D03*
D26*
X348551607Y-153432544D03*
D25*
X348551607Y-154932544D03*
D29*
X159995435Y-100286918D03*
X156695435Y-100286918D03*
X180190323Y-146428184D03*
X176890323Y-146428184D03*
D30*
X318620403Y-134005714D03*
X321920403Y-134005714D03*
X299570387Y-94715056D03*
X302870387Y-94715056D03*
D25*
X96726607Y-149932544D03*
X96726607Y-148432544D03*
D26*
X91376607Y-148432544D03*
D25*
X91376607Y-149932544D03*
X134826607Y-111832544D03*
X134826607Y-110332544D03*
D26*
X129476607Y-110332544D03*
D25*
X129476607Y-111832544D03*
D35*
X255500025Y-171689274D03*
X256859487Y-171055347D03*
D36*
X254598479Y-166206600D03*
D35*
X253239017Y-166840527D03*
D37*
X128589384Y-198331748D03*
X128089384Y-198331748D03*
X127589384Y-198331748D03*
X127089384Y-198331748D03*
X126589384Y-198331748D03*
X126089384Y-198331748D03*
X125589384Y-198331748D03*
X125089384Y-198331748D03*
X124589384Y-198331748D03*
X124089384Y-198331748D03*
D38*
X130489384Y-201581748D03*
X122189384Y-201581748D03*
D30*
X337670419Y-94715056D03*
X340970419Y-94715056D03*
D25*
X96726607Y-92782544D03*
X96726607Y-91282544D03*
D26*
X91376607Y-91282544D03*
D25*
X91376607Y-92782544D03*
D30*
X356720435Y-137577592D03*
X360020435Y-137577592D03*
D29*
X150470287Y-157734528D03*
X147170287Y-157734528D03*
X83795203Y-141149470D03*
X80495203Y-141149470D03*
X121895311Y-130945488D03*
X118595311Y-130945488D03*
D30*
X337670419Y-132815088D03*
X340970419Y-132815088D03*
D25*
X277701607Y-152932544D03*
X277701607Y-151432544D03*
D26*
X272351607Y-151432544D03*
D25*
X272351607Y-152932544D03*
X77676607Y-116832544D03*
X77676607Y-115332544D03*
D26*
X72326607Y-115332544D03*
D25*
X72326607Y-116832544D03*
D29*
X131420303Y-154757968D03*
X128120303Y-154757968D03*
D30*
X356720435Y-102454125D03*
X360020435Y-102454125D03*
X337670419Y-135791653D03*
X340970419Y-135791653D03*
D29*
X83795203Y-137577592D03*
X80495203Y-137577592D03*
X83795371Y-102668168D03*
X80495371Y-102668168D03*
D30*
X328145411Y-155436982D03*
X331445411Y-155436982D03*
D25*
X77676607Y-97782544D03*
X77676607Y-96282544D03*
D26*
X72326607Y-96282544D03*
D25*
X72326607Y-97782544D03*
X277701607Y-114832544D03*
X277701607Y-113332544D03*
D26*
X272351607Y-113332544D03*
D25*
X272351607Y-114832544D03*
D30*
X356720435Y-140554157D03*
X360020435Y-140554157D03*
D29*
X102845327Y-135707984D03*
X99545327Y-135707984D03*
D30*
X318620403Y-131029149D03*
X321920403Y-131029149D03*
D27*
X256976607Y-84347544D03*
X254976607Y-84347544D03*
D28*
X252626607Y-90207544D03*
X259326607Y-90207544D03*
D29*
X140945419Y-94333788D03*
X137645419Y-94333788D03*
D25*
X296751607Y-130882544D03*
X296751607Y-129382544D03*
D26*
X291401607Y-129382544D03*
D25*
X291401607Y-130882544D03*
D30*
X375770451Y-102454125D03*
X379070451Y-102454125D03*
D31*
X167976607Y-153627544D03*
X168476607Y-153627544D03*
X168976607Y-153627544D03*
X169476607Y-153627544D03*
X169976607Y-153627544D03*
X170476607Y-153627544D03*
X170976607Y-153627544D03*
X171476607Y-153627544D03*
X171976607Y-153627544D03*
X172476607Y-153627544D03*
D32*
X166076607Y-150377544D03*
X174376607Y-150377544D03*
D25*
X115776607Y-147932544D03*
X115776607Y-146432544D03*
D26*
X110426607Y-146432544D03*
D25*
X110426607Y-147932544D03*
D30*
X318620403Y-95310369D03*
X321920403Y-95310369D03*
D25*
X115776607Y-90782544D03*
X115776607Y-89282544D03*
D26*
X110426607Y-89282544D03*
D25*
X110426607Y-90782544D03*
D29*
X102846419Y-132880252D03*
X99546419Y-132880252D03*
X140962562Y-132444671D03*
X137662562Y-132444671D03*
D25*
X325326607Y-168982544D03*
X325326607Y-167482544D03*
D26*
X319976607Y-167482544D03*
D25*
X319976607Y-168982544D03*
X372951607Y-119832544D03*
X372951607Y-118332544D03*
D26*
X367601607Y-118332544D03*
D25*
X367601607Y-119832544D03*
D30*
X299570387Y-132815088D03*
X302870387Y-132815088D03*
D29*
X159995435Y-97310353D03*
X156695435Y-97310353D03*
D24*
X177871607Y-85407544D03*
X177871607Y-87947544D03*
X177871607Y-90487544D03*
X177871607Y-93027544D03*
X177871607Y-95567544D03*
X177871607Y-98107544D03*
X177871607Y-100647544D03*
X177871607Y-103187544D03*
X177871607Y-105727544D03*
X177871607Y-108267544D03*
X177871607Y-110807544D03*
X177871607Y-113347544D03*
X162631607Y-113347544D03*
X162631607Y-110807544D03*
X162631607Y-108267544D03*
X162631607Y-105727544D03*
X162631607Y-103187544D03*
X162631607Y-100647544D03*
X162631607Y-98107544D03*
X162631607Y-95567544D03*
X162631607Y-93027544D03*
X162631607Y-90487544D03*
X162631607Y-87947544D03*
X162631607Y-85407544D03*
X175331607Y-108267544D03*
X172791607Y-108267544D03*
X170251607Y-108267544D03*
D25*
X172926607Y-143407544D03*
X172926607Y-141907544D03*
D26*
X167576607Y-141907544D03*
D25*
X167576607Y-143407544D03*
D29*
X180190323Y-151190688D03*
X176890323Y-151190688D03*
X64745359Y-105644728D03*
X61445359Y-105644728D03*
D25*
X77676607Y-135882544D03*
X77676607Y-134382544D03*
D26*
X72326607Y-134382544D03*
D25*
X72326607Y-135882544D03*
D30*
X280520371Y-138768218D03*
X283820371Y-138768218D03*
D25*
X153876607Y-95782544D03*
X153876607Y-94282544D03*
D26*
X148526607Y-94282544D03*
D25*
X148526607Y-95782544D03*
D29*
X102845387Y-94333788D03*
X99545387Y-94333788D03*
D25*
X306276607Y-168982544D03*
X306276607Y-167482544D03*
D26*
X300926607Y-167482544D03*
D25*
X300926607Y-168982544D03*
X353901607Y-116832544D03*
X353901607Y-115332544D03*
D26*
X348551607Y-115332544D03*
D25*
X348551607Y-116832544D03*
D29*
X180190323Y-148809436D03*
X176890323Y-148809436D03*
D25*
X96726607Y-111832544D03*
X96726607Y-110332544D03*
D26*
X91376607Y-110332544D03*
D25*
X91376607Y-111832544D03*
D30*
X261470355Y-129243210D03*
X264770355Y-129243210D03*
D29*
X166561021Y-127682167D03*
X163261021Y-127682167D03*
D30*
X356720435Y-99477560D03*
X360020435Y-99477560D03*
X309095395Y-155436982D03*
X312395395Y-155436982D03*
X318620403Y-92333804D03*
X321920403Y-92333804D03*
D25*
X296751607Y-149932544D03*
X296751607Y-148432544D03*
D26*
X291401607Y-148432544D03*
D25*
X291401607Y-149932544D03*
M02*
